<svg width="188" height="80" viewBox="0 0 188 80" fill="none" xmlns="http://www.w3.org/2000/svg">
<rect width="187.5" height="80" fill="white"/>
<g clip-path="url(#clip0_309_8204)">
<path d="M34.8472 37.9284C34.8472 33.5817 34.8654 29.235 34.8307 24.8883C34.8234 24.0537 35.0627 23.7669 35.9174 23.7834C39.9573 23.8619 44.0154 23.6628 48.0352 23.9824C54.1023 24.4646 58.8891 28.9775 60.1475 34.9405C61.4314 41.0295 58.7595 47.1569 53.4923 50.1831C51.1418 51.5328 48.5867 52.1063 45.8929 52.1099C42.5488 52.1154 39.2066 52.0898 35.8626 52.1264C35.0499 52.1355 34.8271 51.8451 34.8326 51.0616C34.8636 46.6839 34.8472 42.308 34.849 37.9302L34.8472 37.9284ZM41.2065 37.8973C41.2065 40.299 41.2248 42.7006 41.1955 45.1004C41.1864 45.789 41.3654 46.094 42.116 46.0647C43.4511 46.0136 44.7898 46.0611 46.1267 46.0465C50.0332 46.0027 53.2311 43.0951 53.8009 39.0845C54.3561 35.1761 52.1061 31.2513 48.4278 30.318C46.4664 29.8194 44.3405 29.9765 42.2913 29.8048C41.4658 29.7354 41.1663 30.0094 41.1864 30.8751C41.2412 33.2146 41.2047 35.556 41.2047 37.8955L41.2065 37.8973Z" fill="#090A0B"/>
<path d="M85.2451 51.8526C87.4842 51.838 89.2229 51.891 91.1131 52.3603C93.7522 53.016 95.237 54.9994 96.0004 57.5563C96.1758 58.1407 95.8708 58.3142 95.405 58.4421C93.7942 58.8859 92.1907 59.3607 90.5689 59.7662C90.3534 59.8191 89.9078 59.6018 89.8183 59.4009C89.2393 58.0932 88.1727 57.6987 86.8651 57.6823C84.3429 57.6513 81.8134 57.7243 79.2985 57.5599C76.8111 57.3974 74.8368 56.2267 74.0387 53.7338C73.204 51.1221 73.8944 48.8154 75.8888 46.927C76.2139 46.6183 76.5462 46.4357 76.1006 45.917C73.6643 43.0917 73.1876 39.8462 74.5208 36.4511C75.8796 32.9938 78.694 31.2716 82.2919 30.7657C84.0032 30.5246 85.6834 30.7328 87.3399 31.2277C87.6029 31.3063 88.1435 31.2095 88.222 31.0396C89.3142 28.669 91.314 27.9275 93.7212 27.8472C95.4544 27.7906 95.4544 27.7796 95.4544 29.5384C95.4544 30.4808 95.4105 31.4268 95.4671 32.3656C95.5165 33.1892 95.2498 33.4851 94.386 33.4796C93.7613 33.476 93.0911 33.7079 92.5304 34.0056C92.3222 34.1152 92.1889 34.8092 92.3313 35.0667C94.1485 38.3596 94.2508 41.6653 92.2126 44.8376C90.063 48.1835 86.7518 49.2939 82.9202 49.1295C82.4362 49.1095 81.954 49.0254 81.4755 48.9378C80.5587 48.7716 80.0912 49.0218 79.8373 49.8838C79.6017 50.6801 79.9122 51.2773 80.6336 51.6042C81.0062 51.7741 81.4536 51.8307 81.87 51.8417C82.9951 51.8727 84.1201 51.8526 85.2451 51.8526C85.2524 51.7869 85.2378 51.9184 85.2451 51.8526ZM87.455 39.8755C87.4404 37.8848 85.8076 36.3762 83.6818 36.389C81.6454 36.4018 80.0181 37.9651 80.0181 39.9083C80.0181 41.8991 81.671 43.4569 83.7658 43.4387C85.888 43.4204 87.4696 41.8918 87.455 39.8736V39.8755Z" fill="#090A0B"/>
<path d="M140.141 50.406C139.082 50.9905 138.209 51.6169 137.235 51.9858C132.795 53.6715 127.895 51.8671 125.408 47.6994C122.99 43.6486 123.397 37.8956 126.361 34.2338C129.882 29.8853 136.218 29.7136 139.514 32.5937C139.642 32.7051 139.819 32.7636 139.988 32.8549C140.068 32.7544 140.159 32.6942 140.168 32.6229C140.289 31.6611 140.835 31.1795 141.807 31.1783C142.992 31.1783 144.179 31.2021 145.364 31.1692C145.976 31.1527 146.252 31.3445 146.25 31.9929C146.239 38.4398 146.239 44.8868 146.252 51.332C146.252 51.9402 146.007 52.1265 145.434 52.1173C143.974 52.0936 142.515 52.0863 141.056 52.1191C140.36 52.1356 140.123 51.847 140.19 51.1914C140.214 50.9631 140.163 50.7256 140.139 50.4042L140.141 50.406ZM135.12 36.5313C132.244 36.535 130.076 38.7266 130.072 41.6341C130.069 44.5289 132.262 46.7698 135.108 46.7753C138.008 46.7807 140.208 44.5453 140.199 41.5994C140.19 38.6955 138.017 36.5277 135.12 36.5295V36.5313Z" fill="#090A0B"/>
<path d="M121.841 46.2457C121.841 47.9843 121.857 49.65 121.819 51.3119C121.813 51.522 121.567 51.8215 121.357 51.9183C119.121 52.9538 114.492 53.0086 112.302 50.6088C111.014 49.1989 110.536 47.5205 110.525 45.674C110.508 43.0295 110.501 40.3849 110.536 37.7404C110.545 36.9806 110.364 36.6482 109.522 36.6628C107.329 36.703 107.327 36.6683 107.327 34.4457C107.327 33.6256 107.34 32.8038 107.321 31.9838C107.307 31.4085 107.533 31.14 108.131 31.171C108.677 31.2003 109.225 31.1692 109.771 31.1838C110.313 31.1984 110.536 30.9519 110.529 30.4131C110.512 29.2278 110.538 28.0425 110.512 26.8572C110.499 26.2436 110.709 25.9769 111.358 25.9915C112.815 26.0244 114.276 26.0153 115.734 25.9915C116.323 25.9824 116.55 26.2271 116.537 26.8079C116.513 27.9622 116.555 29.1182 116.515 30.2725C116.493 30.9373 116.72 31.2076 117.403 31.1875C118.586 31.1509 119.773 31.2076 120.959 31.1656C121.647 31.14 121.876 31.4158 121.861 32.0733C121.834 33.3188 121.823 34.5662 121.865 35.8118C121.888 36.5131 121.593 36.7103 120.944 36.6902C119.759 36.6574 118.572 36.7122 117.388 36.6683C116.672 36.6409 116.512 36.9752 116.517 37.6034C116.537 39.8224 116.51 42.0414 116.53 44.2604C116.544 45.9005 117.45 46.8191 119.103 46.7552C119.96 46.7223 120.807 46.4466 121.841 46.2457Z" fill="#090A0B"/>
<path d="M16.6637 21.0148C19.4342 24.0848 21.551 27.407 22.8057 31.1948C24.9808 37.7605 25.5123 44.5015 24.5882 51.3558C24.4092 52.6799 24.1571 53.9985 24.0476 55.3281C23.969 56.2887 23.381 56.2211 22.7143 56.2376C21.9034 56.2595 21.9564 55.7335 21.9637 55.1984C22.0824 47.9003 20.2652 41.1228 16.4262 34.9132C15.5332 33.4704 14.4794 32.1244 13.4676 30.7565C13.0877 30.2433 12.9891 29.7867 13.2521 29.1657C14.315 26.6472 15.3231 24.1068 16.3568 21.5754C16.4226 21.4147 16.5212 21.2686 16.6637 21.0093V21.0148Z" fill="#090A0B"/>
<path d="M4.68273 21C6.7885 23.3742 8.52353 25.8124 9.749 28.5738C12.799 35.45 13.504 42.6659 12.746 50.0754C12.5707 51.7976 12.2328 53.5034 12.0977 55.2275C12.0155 56.2813 11.4073 56.252 10.6677 56.2374C9.83484 56.2192 9.98095 55.6201 9.98825 55.127C10.0978 47.4637 8.08338 40.414 3.87183 34.009C3.10477 32.842 2.20073 31.7663 1.43549 30.5993C1.22181 30.2742 1.10493 29.7043 1.23825 29.3592C2.27379 26.6671 3.38238 24.0025 4.4727 21.3324C4.5074 21.2502 4.5695 21.1772 4.68273 21Z" fill="#090A0B"/>
<path d="M156.982 37.4482C156.982 41.9776 156.962 46.5087 157 51.038C157.007 51.8982 156.726 52.1576 155.899 52.1265C154.533 52.0736 153.163 52.09 151.795 52.1229C151.114 52.1393 150.909 51.8745 150.909 51.2079C150.926 41.9648 150.926 32.7217 150.909 23.4785C150.909 22.7681 151.136 22.5015 151.855 22.5234C153.221 22.5654 154.593 22.58 155.959 22.5234C156.777 22.4905 157.002 22.7973 156.998 23.5826C156.971 28.2033 156.984 32.8258 156.984 37.4464L156.982 37.4482Z" fill="#090A0B"/>
<path d="M103.928 41.6378C103.928 44.7992 103.906 47.9606 103.943 51.122C103.952 51.8817 103.714 52.1484 102.955 52.1246C101.557 52.0808 100.158 52.0954 98.7613 52.1191C98.1495 52.1301 97.8975 51.9274 97.8975 51.2754C97.9139 44.8613 97.9121 38.4471 97.8975 32.033C97.8975 31.4157 98.0965 31.1527 98.7412 31.1673C100.138 31.2002 101.539 31.2112 102.935 31.1673C103.681 31.1436 103.95 31.3847 103.941 32.1554C103.906 35.3168 103.926 38.4782 103.926 41.6396L103.928 41.6378Z" fill="#090A0B"/>
<path d="M70.0901 41.6339C70.0901 44.7935 70.07 47.9531 70.1047 51.1126C70.112 51.856 69.9074 52.15 69.1331 52.1244C67.7377 52.077 66.3388 52.0934 64.9416 52.119C64.3261 52.1299 64.0704 51.9144 64.0723 51.2752C64.0851 44.8647 64.0851 38.4543 64.0723 32.0438C64.0723 31.3589 64.3462 31.1489 65.0037 31.1672C66.3698 31.2037 67.7377 31.2092 69.1039 31.1653C69.8527 31.1398 70.1156 31.3882 70.1065 32.1552C70.0718 35.3148 70.0919 38.4744 70.0901 41.6339Z" fill="#090A0B"/>
<path d="M104.681 24.8957C104.668 26.9759 103.072 28.5575 100.966 28.5721C98.8364 28.5867 97.2311 26.9796 97.2329 24.8354C97.2347 22.6895 98.8237 21.1645 101.026 21.1955C103.15 21.2248 104.694 22.7881 104.681 24.8957Z" fill="#090A0B"/>
<path d="M70.8316 24.8409C70.8371 26.9576 69.2043 28.5739 67.0693 28.5684C64.9745 28.563 63.3765 26.9832 63.3509 24.892C63.3253 22.7844 64.9544 21.1809 67.1131 21.1937C69.2536 21.2065 70.8279 22.7515 70.8334 24.8427L70.8316 24.8409Z" fill="#090A0B"/>
</g>
<defs>
<clipPath id="clip0_309_8204">
<rect width="155.82" height="38.7751" fill="white" transform="translate(1.18018 21)"/>
</clipPath>
</defs>
</svg>
