<svg width="2500" height="1094" viewBox="0 0 2500 1094" fill="none" xmlns="http://www.w3.org/2000/svg">
<g clip-path="url(#clip0_444_197)">
<path fill-rule="evenodd" clip-rule="evenodd" d="M110.295 178.334C120.891 178.334 131.488 178.334 143.057 179.307C155.572 178.334 168.101 178.334 181.59 178.334V185.092C161.357 185.092 161.357 194.728 161.357 212.069V262.171C161.357 288.175 167.141 304.569 196.998 304.569C223.015 304.569 236.504 291.08 236.504 266.023V222.652C236.504 214.948 236.504 200.5 232.652 193.742C229.759 187.971 223.015 186.038 217.231 185.079V178.321C224.935 178.321 232.652 178.321 240.356 179.294C249.032 178.321 257.696 178.321 265.413 178.321V185.079C259.629 186.998 252.885 187.971 250.005 193.742C246.153 201.459 247.113 214.948 247.113 222.652V261.185C247.113 298.759 227.853 318.032 189.307 318.032C153.653 318.032 129.581 304.543 129.581 262.158V212.056C129.581 194.715 130.541 185.079 110.308 185.079V178.334H110.295ZM311.651 211.096V274.674C311.651 291.055 311.651 307.435 331.883 307.435V315.139C324.179 315.139 315.503 315.139 306.839 314.167C299.135 314.167 291.431 315.139 283.714 315.139V307.435C300.094 306.476 302.014 297.799 302.014 283.351V199.527C295.27 189.89 292.39 187.011 280.821 185.079V178.321C287.566 178.321 294.31 178.321 301.054 179.294C308.758 178.321 316.462 178.321 324.179 178.321L406.07 272.741V216.868C406.07 201.459 406.07 186.038 385.838 185.079V178.321C394.501 178.321 402.218 178.321 409.909 179.294C418.586 178.321 426.29 178.321 434.967 178.321V185.079C429.183 186.998 422.438 186.998 419.559 192.783C416.667 198.567 416.667 212.056 416.667 218.8V318.032H406.07L311.651 211.096ZM467.716 212.056C467.716 194.715 467.716 185.079 447.483 185.079V178.321C459.039 178.321 470.595 178.321 482.164 179.294C493.733 178.321 506.249 178.321 518.778 178.321V185.079C498.545 185.079 499.505 194.715 499.505 212.056V282.378C499.505 299.718 498.545 308.395 518.778 307.435V315.139C506.262 315.139 494.693 315.139 482.164 314.167C470.595 314.167 459.039 315.139 447.483 315.139V307.435C467.716 308.395 467.716 298.759 467.716 281.418V212.056ZM594.884 318.032L551.526 207.244C544.782 189.903 544.782 187.984 527.441 185.092V178.334C539.011 178.334 550.567 178.334 562.123 179.307C573.692 178.334 586.208 178.334 598.736 178.334V185.092C591.992 186.051 581.396 186.051 581.396 195.688C581.396 198.58 584.288 206.284 585.248 209.176L611.252 278.539L630.525 228.437C634.377 220.733 640.162 205.311 640.162 196.648C640.162 187.011 630.525 186.051 622.821 185.092V178.334C630.538 178.334 639.202 178.334 646.906 179.307C656.543 178.334 665.206 178.334 673.883 178.334V185.092C658.475 186.051 655.57 195.688 649.798 208.217L604.521 318.045L594.884 318.032ZM683.52 307.435C703.752 308.395 702.793 298.759 702.793 281.418V212.056C702.793 194.715 703.752 185.079 683.52 185.079V178.321C695.089 178.321 706.645 178.321 719.173 179.294C744.218 178.321 769.263 178.321 795.28 178.321L796.253 214.935H787.576C783.724 193.729 772.168 187.958 751.935 187.958C750.003 187.958 736.527 187.958 735.554 189.877C734.595 190.837 734.595 200.474 734.595 201.446V239.98C751.935 239.98 762.531 237.087 763.491 217.827H771.195C771.195 227.464 771.195 237.087 770.236 246.737C771.195 254.441 771.195 263.118 771.195 271.781H763.491C759.639 252.508 753.855 249.629 734.595 249.629V273.714C734.595 292.987 734.595 305.516 758.666 305.516C781.791 305.516 791.415 298.759 796.24 275.647H804.904C803.944 283.351 803.944 291.055 803.944 298.759C803.944 304.543 803.944 309.355 804.904 315.139C776.007 315.139 747.097 315.139 719.173 314.167C706.645 314.167 695.089 315.139 683.52 315.139V307.435ZM941.709 282.378C946.534 288.162 950.386 294.907 956.157 300.691C960.009 305.516 962.901 306.476 968.686 307.435V315.139C961.942 315.139 955.197 315.139 948.453 314.167C941.696 314.167 934.964 315.139 928.22 315.139L898.351 273.714C891.607 264.077 882.943 253.481 877.158 254.454H873.306V281.431C873.306 298.772 873.306 308.408 893.539 307.448V315.152C881.983 315.152 869.454 315.152 857.885 314.18C846.329 314.18 834.76 315.152 822.244 315.152V307.448C842.477 308.408 842.477 298.772 842.477 281.431V212.069C842.477 194.728 842.477 185.092 822.244 185.092V178.334C834.76 178.334 846.329 178.334 857.885 179.307C869.454 178.334 880.038 178.334 891.607 178.334C901.243 178.334 916.651 179.307 925.328 183.159C938.817 187.971 945.561 199.527 945.561 213.975C945.561 232.289 930.14 243.845 913.759 246.737L941.709 282.378ZM881.983 244.817C901.243 244.817 911.852 237.1 911.852 216.881C911.852 197.607 904.148 187.971 883.915 187.971C881.996 187.971 875.252 187.011 874.279 189.89C873.319 191.81 873.319 206.271 873.319 209.163V244.817H881.983ZM989.878 315.139H980.255V271.781H988.919C994.703 291.055 1004.33 308.395 1027.45 308.395C1039.02 308.395 1050.58 299.718 1050.58 287.203C1050.58 267.942 1030.34 263.118 1015.9 256.373C997.596 248.669 982.174 238.06 982.174 214.948C982.174 189.89 1002.41 176.402 1025.53 176.402C1037.09 176.402 1048.64 178.321 1057.32 186.038L1060.21 178.321H1068.88L1069.84 215.895H1061.17C1057.32 199.514 1045.77 186.025 1027.45 186.025C1016.86 186.025 1007.22 191.797 1007.22 202.406C1007.22 217.814 1022.63 222.639 1034.2 228.411C1056.35 237.074 1077.54 247.684 1077.54 274.648C1077.54 302.585 1054.43 318.006 1028.41 318.006C1014.92 318.006 1001.43 313.181 992.771 303.557L989.878 315.139ZM1113.21 212.056C1113.21 194.715 1114.17 185.079 1093.93 185.079V178.321C1105.49 178.321 1116.09 178.321 1127.66 179.294C1140.19 178.321 1152.7 178.321 1164.27 178.321V185.079C1144.04 185.079 1145.01 194.715 1145.01 212.056V282.378C1145.01 299.718 1145.01 308.395 1164.27 307.435V315.139C1152.7 315.139 1140.19 315.139 1127.66 314.167C1116.1 314.167 1105.5 315.139 1093.93 315.139V307.435C1114.17 308.395 1113.21 298.759 1113.21 281.418V212.056ZM1312.63 217.84H1303.94C1301.05 200.5 1291.43 187.971 1273.11 187.971C1259.64 187.971 1260.6 187.011 1260.6 203.379V281.418C1260.6 299.718 1260.6 308.395 1281.8 307.435V315.139C1269.26 315.139 1256.74 315.139 1245.18 314.167C1232.66 314.167 1220.13 315.139 1208.57 315.139V307.435C1229.77 308.395 1228.81 299.718 1228.81 281.418V203.379C1228.81 188.931 1229.77 189.89 1216.28 187.971C1196.05 187.011 1188.34 199.527 1185.46 217.84H1176.8L1177.76 178.334H1310.71L1312.63 217.84ZM1406.08 281.418C1406.08 299.718 1406.08 308.395 1426.3 307.435V315.139C1413.78 315.139 1401.27 315.139 1387.76 314.167C1377.18 314.167 1365.6 315.139 1355.02 315.139V307.435C1375.26 308.395 1374.29 299.718 1375.26 281.418V263.118L1338.64 199.527C1333.82 189.89 1331.89 187.971 1321.31 185.079V178.321C1331.89 178.321 1342.51 178.321 1353.1 179.294C1364.65 178.321 1376.22 178.321 1387.78 178.321V185.079C1382.97 186.038 1372.37 186.998 1372.37 194.715C1372.37 198.567 1378.14 208.204 1380.07 212.056L1401.28 249.629L1420.53 215.908C1423.42 211.083 1428.23 201.459 1428.23 195.675C1428.23 187.011 1420.53 185.079 1413.8 185.079V178.321C1420.54 178.321 1427.27 178.321 1434.04 179.294C1442.7 178.321 1450.41 178.321 1459.07 178.321V185.079C1449.45 186.038 1445.6 192.783 1441.75 200.487L1406.1 259.253V281.418H1406.08ZM710.497 509.738C710.497 480.828 732.649 452.904 762.518 452.904C782.751 452.904 796.24 469.285 796.24 489.518C796.24 517.455 774.075 545.392 745.178 545.392C723.985 545.392 710.497 530.943 710.497 509.738ZM741.326 486.626C737.474 497.222 733.622 512.63 733.622 524.199C733.622 530.943 735.541 538.647 744.205 538.647C762.518 538.647 773.115 488.558 773.115 473.137C773.115 466.38 770.223 460.608 762.518 460.608C750.949 460.608 744.205 476.989 741.326 486.626Z" fill="#090A0B"/>
<path fill-rule="evenodd" clip-rule="evenodd" d="M823.217 557.934C817.432 577.181 806.836 598.386 783.724 598.386C775.06 598.386 765.411 594.534 765.411 584.885C765.411 580.073 770.235 575.261 775.047 575.261C780.832 575.261 783.711 579.113 784.684 583.925C784.684 586.817 784.684 590.682 788.536 590.682C794.32 590.682 795.28 583.925 796.253 580.073C799.145 567.557 802.024 555.988 804.916 544.432L823.23 464.46H805.889L807.809 456.756H825.149C831.894 432.672 843.463 403.762 873.319 403.762C881.023 403.762 893.552 406.654 893.552 416.291C893.552 422.075 888.74 426.887 883.915 426.887C872.359 426.887 874.279 412.439 866.575 412.439C860.79 412.439 857.898 419.183 856.938 423.035C852.126 433.631 850.194 445.187 848.274 456.756H867.547L865.628 464.46H846.355L823.217 557.934ZM364.632 674.48H373.309L374.268 716.891H365.605C360.78 697.618 348.264 683.17 327.071 683.17C293.35 683.17 285.646 718.81 285.646 744.828C285.646 769.859 293.363 803.594 325.152 803.594C343.452 803.594 352.129 796.837 352.129 778.536C352.129 765.035 349.237 762.142 334.788 761.183V753.479H396.447V761.183C382.958 761.183 383.918 766.954 383.918 778.536V799.716C369.47 801.635 365.618 802.608 353.102 807.446C340.573 811.298 332.869 814.19 319.38 814.19C277.955 814.19 250.018 788.173 250.018 745.801C250.018 704.362 277.955 672.573 320.34 672.573C334.788 672.573 349.237 676.425 360.806 686.075L364.632 674.48ZM407.017 804.554C426.29 805.513 426.29 795.864 426.29 778.536V708.188C426.29 690.861 426.29 681.237 407.017 682.197V674.467C417.613 674.467 428.21 675.427 439.779 675.427C452.295 675.427 464.823 675.427 477.339 674.467V682.197C457.106 681.237 458.079 691.82 458.079 708.188V768.887C458.079 789.133 457.106 802.608 482.164 802.608C506.249 802.608 515.885 795.864 521.657 772.765H531.293L529.361 812.258C491.787 811.298 454.214 811.298 441.698 811.298C430.129 811.298 418.573 811.298 407.017 812.258V804.554ZM577.543 775.657C575.624 780.469 572.732 787.213 572.732 792.985C572.732 803.594 582.368 803.594 590.072 804.567V812.271C581.408 811.311 572.732 811.311 564.068 811.311C556.364 811.311 547.687 811.311 539.983 812.271V804.567C557.324 804.567 563.095 784.321 568.893 771.818L609.358 672.573H619.955L662.353 779.522C664.272 785.293 669.097 795.89 672.949 799.742C676.801 802.634 681.613 803.62 686.438 804.58V812.284C674.882 811.324 662.353 811.324 649.824 811.324C639.228 811.324 627.672 811.324 617.075 812.284V804.58C622.847 803.62 634.416 804.58 634.416 794.93C634.416 792.038 631.524 784.347 630.564 781.454L625.739 769.872H580.462L577.543 775.657ZM621.861 759.263L603.561 712.066L584.288 759.263H621.861ZM707.604 811.298H698.94V768.887H706.645C712.429 787.2 722.053 804.554 745.178 804.554C756.734 804.554 768.303 796.824 768.303 784.308C768.303 765.035 749.03 759.25 734.581 753.479C715.308 744.815 700.86 735.165 700.86 712.066C700.86 687.009 720.133 672.547 744.205 672.547C754.801 672.547 766.37 675.44 775.034 683.157L777.926 674.467H786.59L787.55 712.053H778.886C775.034 696.632 763.478 682.184 745.165 682.184C735.528 682.184 724.932 687.955 724.932 699.511C724.932 714.933 740.34 719.757 752.869 724.569C775.021 734.193 795.254 743.842 795.254 771.792C795.254 799.703 772.129 814.177 746.124 814.177C733.609 814.177 720.12 809.365 710.471 799.716L707.604 811.298ZM930.153 674.48H938.816L940.736 716.891H932.072C927.247 697.618 914.731 683.17 893.526 683.17C859.804 683.17 852.1 718.81 852.1 744.828C852.1 769.859 859.805 803.594 891.593 803.594C909.894 803.594 918.57 796.837 918.57 778.536C918.57 765.035 915.678 762.142 901.23 761.183V753.479H962.888V761.183C949.4 761.183 950.372 766.954 950.372 778.536V799.716C935.924 801.635 932.072 802.608 919.543 807.446C907.014 811.298 899.31 814.19 885.822 814.19C844.396 814.19 816.447 788.173 816.447 745.801C816.447 704.362 844.383 672.573 886.782 672.573C901.23 672.573 915.678 676.425 927.247 686.075L930.153 674.48ZM976.39 743.868C976.39 699.537 1012.04 672.56 1053.47 672.56C1095.85 672.56 1130.54 699.537 1130.54 743.868C1130.54 788.173 1094.89 814.19 1053.47 814.19C1011.08 814.19 976.39 787.2 976.39 743.868ZM1012.04 741.91C1012.04 768.887 1019.75 804.554 1053.47 804.554C1087.19 804.554 1094.89 773.724 1094.89 744.828C1094.89 716.891 1087.19 682.21 1053.47 682.21C1019.75 682.21 1012.04 715.918 1012.04 741.91ZM1231.7 724.582L1200.87 814.177H1190.27L1151.74 700.484C1146.93 687.968 1146.93 684.116 1132.48 682.197V674.467C1143.08 674.467 1153.67 675.427 1163.31 675.427C1175.83 675.427 1187.39 675.427 1199.92 674.467V682.197C1193.18 683.157 1182.58 682.197 1182.58 692.78C1182.58 697.592 1186.43 710.108 1188.37 714.946L1205.71 770.832L1235.56 674.467H1245.2L1277.95 768.874L1288.56 734.193C1291.45 725.529 1298.18 704.323 1298.18 696.632C1298.18 685.076 1290.48 684.116 1280.85 682.197V674.467C1287.6 674.467 1295.29 675.427 1302.03 675.427C1309.76 675.427 1318.43 675.427 1326.12 674.467V682.197C1315.54 683.157 1312.64 688.941 1309.75 698.565L1272.17 814.177H1261.57L1231.7 724.582ZM2313.61 85.847V581.992C2309.73 624.404 2301.07 664.856 2280.86 702.417C2277.9 709.139 2274.35 715.588 2270.25 721.69C2211.49 818.989 2107.44 874.876 1992.79 869.091C1935.94 865.239 1884.88 847.886 1839.61 817.056C1820.33 802.595 1802.04 788.147 1785.65 769.834V768.874C1766.4 747.694 1750.97 723.609 1738.45 697.592C1718.21 658.099 1708.58 612.809 1706.67 566.571V84.8613C1734.6 85.847 2313.61 85.847 2313.61 85.847Z" fill="#090A0B"/>
<path fill-rule="evenodd" clip-rule="evenodd" d="M1953.3 111.864C1959.07 110.905 1965.81 113.784 1971.59 114.757C1986.05 117.649 1997.6 123.433 2011.1 130.165C2028.43 119.568 2048.67 112.824 2068.91 111.864V125.353C2072.76 124.393 2077.57 124.393 2080.47 122.461L2082.39 123.42V138.828C2086.24 138.828 2090.09 137.869 2093.94 137.869V214.935L2090.09 213.962H2024.58C2021.69 218.787 2014.96 221.679 2010.14 221.679C2003.39 221.679 1997.6 218.787 1994.72 213.962H1926.33L1927.29 213.003V137.869C1930.19 137.869 1935 138.828 1939.81 138.828V123.42C1944.62 123.42 1948.5 125.34 1952.35 125.34L1953.31 110.892L1953.3 111.864Z" fill="#090A0B"/>
<path fill-rule="evenodd" clip-rule="evenodd" d="M2001.44 141.721C2000.48 143.641 2001.44 146.533 2001.44 148.465C1997.59 147.493 1993.74 145.573 1989.89 143.641C1982.18 141.721 1974.47 137.869 1965.8 135.936V128.232C1978.34 131.125 1990.86 135.949 2001.44 141.721ZM2055.41 136.909L2054.45 135.949C2042.89 139.801 2031.32 142.694 2020.73 147.505C2021.2 146.445 2021.45 145.296 2021.45 144.133C2021.45 142.971 2021.2 141.822 2020.73 140.761C2032.28 134.977 2043.85 132.084 2055.41 128.232V136.909Z" fill="#090A0B"/>
<path fill-rule="evenodd" clip-rule="evenodd" d="M2001.44 157.142C2001.44 159.062 2000.48 162.927 2001.44 164.846C1989.89 159.062 1978.34 155.21 1965.8 151.358V144.613C1978.34 147.506 1989.9 151.358 2001.44 157.142ZM2055.41 151.358C2043.85 154.25 2032.28 158.102 2021.69 163.886C2020.73 160.994 2021.69 158.102 2020.73 156.182C2030.35 151.358 2041.93 148.478 2051.56 144.613H2055.41V151.358ZM2001.44 172.55C2000.48 174.47 2000.48 176.402 2000.48 179.294V180.254C1989.9 174.47 1977.36 170.618 1965.8 167.725V160.021C1978.34 162.927 1989.9 166.779 2001.44 172.55ZM2055.41 167.738C2042.89 170.631 2032.28 175.442 2021.69 180.267H2020.73V171.603C2032.28 166.779 2042.89 162.94 2054.45 160.034L2055.41 167.738ZM1916.68 214.948C1911.85 216.868 1906.08 218.8 1902.22 223.612L1900.3 226.504C1900.3 241.912 1898.38 257.334 1883.91 265.038C1877.17 268.89 1869.47 270.822 1862.73 272.742C1859.84 276.594 1856.96 281.405 1856.96 286.23C1854.07 285.27 1851.16 283.338 1849.23 282.378C1849.23 279.486 1851.15 276.607 1853.08 273.714C1840.57 273.714 1829.98 277.566 1819.36 280.459H1805.88C1809.74 277.566 1812.63 273.714 1816.47 270.822C1811.66 266.97 1806.84 272.742 1802.03 273.714C1791.42 276.607 1779.87 282.378 1771.2 283.351C1770.24 276.607 1771.2 268.903 1770.24 261.186H1771.2C1788.53 259.266 1804.92 252.522 1819.36 241.926C1831.9 233.262 1843.44 218.8 1857.92 215.921C1858.88 209.177 1862.73 201.473 1869.47 197.608C1874.29 195.688 1880.06 192.783 1885.84 193.756C1898.37 197.595 1904.14 213.016 1916.68 214.948Z" fill="#090A0B"/>
<path fill-rule="evenodd" clip-rule="evenodd" d="M1885.83 212.056C1885.83 213.975 1885.83 216.881 1883.91 218.8C1882.95 219.76 1881.02 218.8 1879.1 218.8C1878.21 218.347 1877.47 217.654 1876.96 216.801C1876.45 215.949 1876.19 214.969 1876.21 213.975C1876.21 212.056 1877.17 210.123 1879.1 209.164C1881.98 209.164 1884.87 209.164 1885.83 212.056ZM2014.94 231.329C2015.9 233.248 2014.94 235.181 2013.98 236.141C2013.02 238.06 2011.09 238.06 2011.09 239.033C2015.9 242.898 2019.76 246.75 2025.53 249.629V283.351C2027.45 284.31 2029.38 284.31 2030.34 284.31C2031.3 296.826 2031.3 310.315 2031.3 323.803H2038.04C2039 343.06 2039 362.353 2038.04 381.61C2033.23 382.569 2029.38 386.421 2028.42 392.206C2032.27 392.206 2035.16 391.246 2037.08 395.098C2040.96 398.95 2041.92 404.722 2040.96 409.546C2040 414.358 2036.12 418.21 2032.27 420.13C2031.31 421.09 2030.35 420.13 2030.35 421.089V496.236C2031.31 497.196 2033.24 495.277 2033.24 497.196C2037.1 500.088 2040.97 505.86 2041.93 511.644C2042.89 518.402 2040.01 526.093 2033.24 530.917C2033.24 531.877 2031.32 531.877 2030.35 531.877V618.606C2034.2 618.606 2037.1 623.418 2039.02 625.35C2042.89 634.014 2041.93 643.638 2036.12 650.408C2034.2 652.327 2032.27 654.26 2030.35 654.26V661.964C2040.96 661.004 2052.52 661.004 2062.14 664.856C2059.25 669.668 2055.4 675.44 2051.56 680.277C2072.76 683.17 2093.94 684.129 2114.18 678.332C2121.88 672.56 2128.64 662.924 2138.26 660.044C2141.15 660.044 2143.07 661.964 2143.07 664.856C2150.78 662.937 2156.55 656.192 2162.35 652.34C2166.2 636.919 2166.2 621.511 2165.24 606.09C2165.24 598.386 2167.16 591.655 2169.09 585.844C2182.57 590.682 2204.73 595.494 2204.73 614.754C2206.65 614.754 2208.58 612.834 2209.54 611.862C2225.94 608.01 2238.45 619.592 2255.79 616.674C2259.64 615.714 2262.54 613.781 2266.38 612.822C2265.42 619.579 2262.52 625.363 2258.67 631.135C2246.13 649.422 2226.88 660.044 2207.6 668.695L2200.85 674.467C2196.04 683.157 2189.3 690.861 2183.5 698.552C2185.42 696.632 2188.31 699.511 2190.26 699.511C2189.3 711.093 2176.75 717.825 2168.09 722.637L2156.51 726.489C2136.29 742.882 2115.1 754.425 2092.93 765.022C2080.42 770.819 2065.95 773.711 2052.48 777.563C2053.44 783.335 2053.44 790.079 2054.4 794.891C2050.55 795.851 2045.73 795.851 2040.92 795.851C2042.84 801.622 2040.92 808.393 2037.04 813.204C2036.08 814.164 2035.12 816.097 2033.19 816.097C2038 820.908 2043.8 826.68 2049.59 831.518C2050.55 831.518 2050.55 832.477 2050.55 832.477C2025.49 839.222 1994.66 840.182 1969.61 832.477C1974.43 827.64 1980.22 821.868 1986.01 816.084C1983.12 812.232 1980.24 809.339 1979.26 803.568C1979.26 796.811 1982.16 791.026 1987.93 788.147V787.187C1982.16 785.268 1976.35 782.375 1970.57 779.483C1950.35 776.591 1929.16 775.631 1910.85 767.901C1894.48 762.13 1877.13 755.385 1864.62 742.869C1846.31 742.869 1833.8 726.476 1822.21 714.932C1814.51 705.283 1807.78 695.659 1806.81 684.103C1806.81 682.184 1808.72 680.251 1809.7 679.266C1816.44 677.346 1822.21 682.184 1828.97 682.184C1833.78 683.144 1837.63 684.103 1843.41 684.103C1841.48 681.998 1840.44 679.227 1840.51 676.373C1832.81 676.373 1823.16 679.266 1817.39 672.521C1816.43 670.602 1817.39 667.71 1818.35 665.777C1825.09 660.006 1832.81 658.073 1841.47 657.113C1844.37 647.464 1852.06 635.908 1863.64 634.948C1868.45 633.988 1872.3 635.908 1876.15 638.8C1881.93 644.572 1882.9 652.302 1881.93 660.006C1899.28 661.925 1915.67 655.194 1933.96 657.113C1954.21 657.113 1972.49 660.965 1990.81 666.737V654.221C1985.04 652.301 1982.14 647.464 1979.25 641.679C1976.33 633.015 1981.17 623.392 1987.91 618.58H1990.81V531.851C1985.04 531.851 1981.18 525.107 1979.25 520.295C1976.33 510.659 1981.17 501.995 1988.87 496.21H1990.79V420.091C1987.9 420.091 1984.05 417.199 1982.13 415.279C1979.24 411.427 1977.29 404.683 1980.21 399.871C1981.17 396.979 1983.1 394.086 1985.98 392.167H1991.75C1991.75 387.342 1986.94 383.503 1983.09 381.571H1982.13C1981.17 362.298 1982.13 343.997 1981.17 324.724C1982.13 322.805 1986.94 323.764 1988.87 323.764C1989.83 308.356 1989.83 297.747 1989.83 284.271C1989.83 283.312 1990.79 284.271 1990.79 284.271C1992.71 283.312 1995.61 285.231 1995.61 283.312V249.59H1997.53C2001.38 245.738 2006.19 242.846 2010.07 238.994C2010.07 237.074 2008.15 238.994 2007.17 237.075C2006.19 237.075 2005.23 235.155 2005.23 233.222C2005.23 231.29 2007.17 230.33 2008.15 228.398C2011.1 227.464 2013.98 228.424 2014.94 231.329Z" fill="#090A0B"/>
<path fill-rule="evenodd" clip-rule="evenodd" d="M2014.94 265.997V273.701C2013.43 272.295 2012.13 270.674 2011.09 268.89C2009.17 270.809 2007.24 272.742 2006.25 273.701V265.038C2007.99 264.291 2009.37 262.914 2010.13 261.186C2012.06 262.158 2013.02 264.078 2014.94 265.997ZM1902.22 282.378C1907.04 293.947 1908 307.436 1902.22 318.992C1910.89 308.395 1924.39 300.691 1938.82 301.651C1940.74 317.059 1937.86 331.521 1929.2 342.117C1936.9 339.225 1946.53 338.265 1955.22 338.265H1954.26C1955.22 352.713 1951.37 367.174 1940.76 376.798C1935.94 377.758 1931.13 377.758 1927.28 378.718C1936.9 371.973 1945.57 359.444 1944.61 346.929C1936.9 346.929 1930.17 349.821 1923.43 351.753C1923.43 347.901 1922.47 343.077 1922.47 338.265C1931.13 331.52 1930.17 320.924 1931.13 310.328C1916.7 316.112 1902.22 326.709 1893.57 339.238C1892.61 335.386 1891.65 330.574 1890.68 326.709C1899.34 317.072 1900.3 302.624 1896.45 291.068C1887.79 292.028 1879.1 297.812 1875.25 305.516L1874.29 312.26L1864.66 322.857C1862.74 314.18 1858.89 305.516 1851.16 299.732C1845.39 304.556 1843.46 312.26 1841.54 319.005C1834.79 307.449 1821.29 300.704 1807.82 300.704C1808.78 310.341 1810.71 319.965 1815.52 327.682C1814.56 332.506 1813.6 336.358 1813.6 341.17C1804.94 330.574 1792.4 322.87 1777.96 323.829C1777 332.493 1780.85 340.21 1787.58 344.062C1785.66 349.847 1784.69 355.631 1785.66 361.403C1778.92 358.511 1771.23 354.659 1762.54 355.618C1764.46 365.255 1772.19 375.851 1781.81 381.636C1775.07 380.663 1768.34 384.528 1765.42 377.784C1758.67 370.08 1754.84 359.47 1752.9 348.887V347.914C1761.57 345.022 1773.15 347.914 1781.81 350.807C1773.15 342.13 1768.34 329.614 1768.34 317.085C1775.08 317.085 1783.74 314.193 1790.48 316.125C1796.27 318.045 1802.06 320.937 1806.87 324.789C1802.06 315.153 1798.21 302.637 1802.06 292.041C1815.53 292.041 1828.08 295.893 1838.66 304.569C1840.58 298.785 1844.43 293 1849.24 288.189C1857.93 291.081 1866.6 299.745 1867.56 308.421C1868.52 309.381 1867.56 307.462 1868.52 306.502C1868.52 297.825 1877.18 289.161 1884.88 285.309C1890.67 284.311 1895.48 281.418 1902.22 282.378Z" fill="#090A0B"/>
<path fill-rule="evenodd" clip-rule="evenodd" d="M2019.77 303.571V312.234L2010.14 303.571C2006.87 305.749 2004.21 308.732 2002.41 312.234H2001.46V303.571L2010.14 293.934C2013.98 297.799 2015.92 299.719 2019.77 303.571ZM2206.66 295.867C2213.41 297.786 2219.18 300.691 2224.02 307.436C2232.68 327.668 2215.33 344.036 2210.51 361.39C2220.16 361.39 2230.76 367.174 2234.6 375.838C2237.49 391.246 2239.41 407.627 2241.34 423.048C2245.2 451.958 2249.05 477.002 2252.93 505.899C2256.78 524.199 2237.5 533.836 2229.8 548.284C2225.95 551.176 2220.18 554.056 2215.34 554.056C2173.93 555.015 2133.47 554.056 2091.06 554.056C2086.25 552.136 2081.44 548.284 2080.48 542.5C2078.56 535.755 2081.44 528.051 2081.44 520.347C2088.18 474.11 2093.96 425.927 2099.75 379.69C2101.67 373.906 2105.52 367.174 2112.27 364.282C2116.12 363.322 2119.01 361.39 2123.82 362.363L2107.46 324.789C2105.54 315.153 2109.38 305.529 2118.04 298.772C2120.93 297.812 2124.78 295.88 2128.65 295.88C2153.67 294.907 2180.65 295.867 2206.66 295.867Z" fill="#090A0B"/>
<path fill-rule="evenodd" clip-rule="evenodd" d="M1849.23 340.184L1850.19 342.104L1843.44 351.74C1843.44 342.104 1837.67 332.467 1829.97 324.763C1826.09 341.144 1827.08 361.377 1832.86 378.717C1829.01 376.798 1823.21 376.798 1819.36 373.893C1816.47 366.189 1808.78 357.512 1800.11 355.592C1801.07 369.081 1797.22 386.421 1811.67 395.098C1811.67 399.91 1813.59 403.762 1815.52 408.587C1815.52 407.614 1813.6 408.587 1813.6 407.614C1803.98 398.95 1791.44 394.125 1777.96 395.098C1778.53 399.773 1780.11 404.266 1782.61 408.26C1785.1 412.254 1788.44 415.651 1792.4 418.21C1793.38 422.062 1792.4 424.955 1794.34 427.847L1798.19 437.483C1790.46 434.591 1782.77 432.659 1775.07 434.591C1782.77 451.932 1801.09 463.501 1819.37 465.42H1822.26C1823.22 467.34 1822.26 472.177 1823.22 475.057C1810.71 471.205 1798.19 476.017 1787.58 480.828C1796.27 488.545 1809.75 488.545 1822.26 487.586C1824.18 487.586 1824.18 486.613 1826.12 485.653C1829.04 488.545 1830.95 491.438 1832.87 494.317C1815.52 498.169 1795.31 496.249 1782.77 484.68L1776.03 476.976H1776.99C1783.73 473.124 1792.4 470.232 1800.11 467.34C1782.76 462.528 1768.32 445.187 1763.49 428.807C1771.22 426.874 1780.84 423.982 1789.5 426.874C1776.03 419.17 1770.26 402.789 1768.32 387.381C1777.95 388.341 1788.54 384.489 1796.26 389.314C1791.42 375.825 1792.38 359.444 1795.3 344.996L1794.34 344.036H1795.3C1803 346.928 1811.67 350.793 1817.44 357.525H1818.4L1820.32 359.444H1819.36L1821.28 361.377C1819.36 344.996 1821.28 328.628 1825.13 313.207C1836.71 317.059 1846.34 329.588 1849.23 340.184Z" fill="#090A0B"/>
<path fill-rule="evenodd" clip-rule="evenodd" d="M1882.95 314.167C1881.03 325.736 1890.68 333.44 1888.75 344.996L1887.79 352.713C1895.49 345.969 1906.08 341.144 1916.7 337.305C1918.62 349.834 1921.51 365.242 1916.7 377.771C1916.7 380.663 1913.78 383.555 1911.86 386.435C1924.4 387.394 1934.03 379.69 1947.53 380.65C1943.65 390.287 1944.61 401.843 1938.84 411.479C1936.92 417.251 1934.03 421.103 1929.21 425.927C1937.88 424.968 1948.49 424.008 1956.19 428.82C1946.54 439.416 1941.73 454.837 1928.25 461.568H1927.29C1934.04 464.461 1941.73 470.232 1945.58 476.017C1933.07 478.909 1920.55 484.68 1912.83 496.249C1907.06 497.209 1900.32 497.209 1895.51 499.142V498.182C1908.02 491.438 1916.71 476.989 1931.15 472.178C1923.44 466.393 1912.83 469.285 1904.17 470.245C1901.28 471.218 1897.42 474.097 1896.46 477.949C1895.51 476.03 1895.51 471.205 1894.55 468.313C1893.59 464.461 1890.69 459.649 1891.65 454.824C1902.24 448.067 1907.06 435.551 1908.02 423.995C1897.44 424.955 1885.86 428.82 1879.11 435.564C1878.15 430.739 1878.15 425.927 1876.22 423.035V421.103C1887.8 415.331 1893.57 398.95 1891.64 385.462C1881.99 388.354 1871.39 397.991 1868.52 408.587C1867.56 403.762 1856 399.91 1863.7 395.098C1868.52 383.529 1867.56 369.081 1860.81 359.444L1856.96 354.633C1848.27 366.189 1845.38 384.502 1853.08 397.991C1851.16 400.883 1847.31 404.735 1845.38 408.587C1844.42 407.614 1843.46 405.682 1842.48 403.762C1836.71 397.991 1830.93 392.206 1823.21 390.274C1824.17 400.87 1830.94 410.506 1838.63 418.21L1840.55 419.17C1839.59 424.955 1839.59 431.699 1839.59 437.483C1832.85 430.739 1823.2 428.82 1814.53 424.955L1805.87 423.035C1806.83 434.591 1813.58 445.188 1823.2 451.945V450.985C1823.2 453.877 1822.24 457.729 1822.24 461.581H1821.28C1804.91 449.053 1797.22 430.752 1796.25 411.492C1799.14 411.492 1802.02 413.412 1803.95 413.412C1813.58 414.371 1821.28 416.304 1829.01 420.156C1820.31 407.757 1814.39 393.627 1811.66 378.73H1810.7C1822.25 380.65 1832.86 383.555 1842.48 391.259C1839.59 373.919 1845.38 355.605 1855.03 342.117C1870.43 352.713 1875.25 371.986 1873.31 390.286C1880.34 382.286 1889.83 376.862 1900.29 374.878C1900.29 375.838 1900.29 376.798 1901.25 377.771C1903.17 393.179 1897.4 408.6 1886.82 420.156C1897.4 419.196 1907.04 415.344 1915.73 410.532C1920.54 430.765 1909.93 447.133 1898.37 460.622C1897.41 461.581 1896.45 463.514 1894.52 464.474C1905.1 456.77 1921.5 461.581 1930.16 450.025C1934.97 445.213 1938.82 439.429 1942.68 433.644C1934.01 431.725 1924.39 433.644 1917.64 437.496C1919.56 432.672 1921.5 427.86 1922.46 423.048C1932.08 414.384 1932.08 400.896 1935.93 389.327C1927.27 393.179 1917.64 395.111 1908 396.071L1905.1 397.991C1906.06 393.166 1906.06 387.394 1906.06 380.65C1912.81 371.986 1913.77 359.457 1908.95 348.861C1896.44 354.633 1885.83 365.229 1879.09 377.758C1878.13 373.906 1879.09 369.094 1877.17 365.229C1876.21 363.309 1879.09 361.377 1880.06 359.444C1883.91 350.781 1881.98 338.252 1877.17 329.588C1872.35 335.372 1869.46 341.144 1868.5 347.888C1866.58 344.996 1864.65 343.064 1861.76 340.184C1865.62 330.548 1872.35 319.952 1882.95 314.167Z" fill="#090A0B"/>
<path fill-rule="evenodd" clip-rule="evenodd" d="M2018.8 350.793C2019.76 358.497 2017.84 367.174 2011.09 371.026C2008.2 371.026 2007.24 369.107 2005.29 367.174C2000.48 362.349 2001.44 355.605 2002.4 349.833H2018.8V350.793Z" fill="#090A0B"/>
<path fill-rule="evenodd" clip-rule="evenodd" d="M2143.07 381.61C2142.11 383.529 2143.07 384.502 2142.11 386.421C2139.22 387.381 2135.37 385.462 2132.49 386.421C2124.76 385.462 2118.99 389.314 2113.22 392.206H2112.26C2116.11 385.462 2121.88 380.637 2129.61 378.717C2133.45 379.69 2140.19 377.758 2143.07 381.61ZM2217.25 379.69C2218.21 379.69 2219.17 380.65 2220.16 381.622C2221.12 384.515 2219.18 386.434 2217.25 386.434H2189.34C2187.39 385.475 2186.42 383.542 2187.39 381.622L2190.31 378.73C2198 379.69 2207.62 378.717 2217.25 379.69ZM1973.51 381.61C1976.4 397.99 1964.84 412.439 1952.33 421.102C1948.47 421.102 1943.64 420.143 1938.82 420.143C1951.37 415.331 1961.95 404.735 1964.84 392.206C1959.07 391.246 1953.29 394.125 1948.47 396.058C1950.39 394.125 1948.47 385.462 1954.25 385.462C1960.99 384.502 1966.77 383.542 1973.51 381.61Z" fill="#090A0B"/>
<path fill-rule="evenodd" clip-rule="evenodd" d="M1762.53 386.434C1761.57 390.286 1764.45 394.138 1765.42 398.003C1759.65 393.178 1751.94 391.259 1745.2 390.299C1745.2 398.003 1749.05 405.707 1755.78 410.532C1760.59 411.492 1765.41 413.424 1770.24 413.424L1776.01 422.088C1763.47 422.088 1750.96 418.236 1744.23 408.599C1738.45 401.842 1737.48 393.178 1737.48 384.514C1745.88 383.667 1754.36 384.317 1762.53 386.434ZM2143.07 396.071C2143.04 397.854 2142.35 399.564 2141.15 400.882C2134.41 402.802 2125.73 399.923 2120.91 402.802C2117.6 405.383 2114.06 407.645 2110.32 409.559C2112.24 400.882 2121.88 395.111 2128.64 393.178C2133.45 394.138 2141.15 391.246 2143.07 396.071ZM2219.18 394.138C2221.12 394.138 2222.1 396.071 2222.1 397.99C2223.06 400.882 2220.18 401.842 2218.22 401.842L2198 400.882C2196.08 399.923 2194.15 398.963 2194.15 396.071C2194.15 395.111 2194.15 395.111 2196.07 394.138H2219.18ZM2014.94 403.762C2014.94 406.654 2013.98 408.586 2012.05 409.546C2010.12 410.506 2008.2 409.546 2006.25 408.586C2004.33 406.654 2004.33 404.721 2005.29 402.802C2005.29 400.882 2008.21 399.91 2010.13 399.91C2012.05 399.91 2013.98 400.882 2014.94 403.762ZM1856.96 403.762C1871.39 415.331 1874.29 432.671 1875.25 449.999C1872.35 454.824 1868.5 459.635 1865.62 464.447C1868.52 449.039 1870.43 427.847 1856.96 416.278C1852.12 429.766 1852.12 445.187 1855.04 460.595C1852.12 456.743 1850.2 451.931 1845.39 449.026V448.066H1844.43C1843.46 432.671 1844.42 414.371 1856.96 403.762ZM2142.11 409.559C2142.11 411.479 2143.07 412.451 2143.07 414.371C2140.18 419.183 2130.56 416.29 2125.72 417.263C2118.97 418.223 2114.16 422.088 2108.39 425.927C2111.28 419.183 2118.97 409.559 2127.66 409.559H2142.11ZM2222.08 409.559C2224 410.519 2224.98 412.451 2224 414.371L2222.08 417.263C2215.33 417.263 2208.58 418.223 2201.84 416.303C2200.88 415.344 2200.88 412.451 2201.84 410.532L2203.76 409.572L2222.08 409.559Z" fill="#090A0B"/>
<path fill-rule="evenodd" clip-rule="evenodd" d="M2141.15 424.967C2142.11 426.887 2144.04 429.792 2142.11 431.712L2139.22 432.672C2133.45 433.631 2122.83 429.779 2117.05 435.564C2113.2 437.483 2110.31 441.348 2106.47 442.308C2109.36 434.591 2117.05 425.927 2126.69 424.967H2141.15ZM2225.94 429.779C2225.94 430.739 2225.94 432.672 2224.02 432.672C2218.22 431.712 2209.56 435.564 2206.66 429.779C2205.7 427.86 2206.66 426.887 2207.62 425.927C2208.58 424.967 2209.54 425.927 2210.51 424.967C2216.29 425.927 2224.02 422.075 2225.94 429.779ZM1985.09 431.712C1986.05 446.16 1974.48 457.729 1961.96 463.501C1956.19 464.46 1950.41 467.353 1944.61 466.393C1941.72 465.433 1939.8 461.581 1935.95 461.581C1938.84 459.662 1939.8 458.689 1942.69 456.769C1953.3 458.689 1964.85 455.809 1970.63 446.173C1972.55 444.253 1973.52 442.321 1974.48 440.388C1966.77 440.388 1959.07 439.429 1953.3 443.281L1958.11 433.644C1966.77 432.671 1975.44 432.671 1985.09 431.712ZM1760.59 434.591C1761.55 437.483 1763.49 441.348 1764.45 444.228C1757.7 441.335 1749.04 441.335 1741.35 442.308C1743.27 449.052 1750.97 455.797 1757.71 456.756C1763.49 458.676 1769.3 457.716 1774.11 456.756C1777 458.676 1779.88 461.568 1782.77 464.46C1767.36 467.353 1750.02 465.42 1739.43 453.864C1734.62 448.08 1732.67 442.308 1732.67 435.564C1741.87 433.813 1751.29 433.485 1760.59 434.591ZM2142.11 440.375C2143.07 442.308 2144.03 444.228 2143.07 445.2L2140.18 448.093C2136.33 447.133 2127.66 447.133 2121.87 448.093C2115.12 450.012 2109.35 454.85 2103.58 459.662C2104.54 455.81 2107.43 452.917 2109.35 450.025C2117.05 440.389 2128.62 438.469 2140.18 439.429L2142.11 440.375ZM2228.83 442.308C2228.83 444.228 2228.83 448.08 2225.94 448.08C2220.16 447.12 2213.39 449.999 2210.51 444.228C2210.51 442.308 2210.51 440.375 2212.43 440.375C2218.21 440.375 2224.02 437.496 2228.83 442.308ZM1850.19 460.608C1855.03 468.312 1858.88 476.989 1860.8 485.653C1865.61 474.097 1871.38 459.649 1883.9 452.904C1886.82 456.756 1886.82 462.541 1887.78 466.393C1891.63 473.15 1891.63 484.706 1888.74 491.45C1883.9 499.155 1876.19 505.899 1876.19 514.576C1888.74 503.019 1907.02 501.087 1925.34 502.06C1913.75 511.683 1917.63 530.956 1902.21 537.701C1895.47 540.593 1889.69 543.485 1881.96 541.553C1878.11 552.149 1879.07 565.65 1880.05 577.207C1880.05 587.79 1889.69 601.291 1877.15 608.036C1868.49 613.807 1855.97 615.74 1846.32 609.955C1839.58 606.103 1833.81 597.439 1831.89 589.709C1846.32 603.211 1857.91 581.046 1874.27 584.898L1875.23 585.857C1875.23 583.938 1874.27 581.046 1874.27 579.113C1869.46 578.153 1865.61 577.194 1861.76 579.113C1862.85 577.065 1864.52 575.389 1866.57 574.301C1868.49 574.301 1869.46 572.382 1872.34 572.382V567.57C1868.49 567.57 1864.64 567.57 1860.79 568.53C1863.68 564.678 1867.53 561.785 1871.37 560.826C1872.33 559.866 1871.37 557.933 1872.33 556.948C1869.44 555.988 1865.58 555.988 1861.74 555.988C1864.64 553.096 1869.45 551.176 1873.3 550.216L1875.22 542.512C1871.37 542.512 1867.52 544.432 1863.66 545.405C1871.37 526.132 1901.22 540.58 1907.97 518.428C1908.93 514.576 1911.82 511.67 1913.74 507.831C1896.41 507.831 1882.91 517.468 1870.4 529.024C1865.58 513.616 1872.32 499.154 1881.95 487.598C1886.79 481.814 1884.84 473.15 1880.99 467.353C1870.41 478.922 1861.75 493.37 1860.77 509.751C1856.92 491.45 1853.04 470.258 1836.69 458.689C1831.88 473.137 1840.54 484.693 1848.24 496.262C1852.1 503.966 1854.04 514.563 1851.14 524.199H1852.1C1852.1 525.159 1851.14 524.199 1851.14 525.159H1852.1C1844.39 518.415 1832.85 515.535 1822.23 519.387C1815.67 520.328 1808.97 519.323 1802.98 516.495C1805.87 523.239 1811.64 529.984 1819.35 531.903C1829.96 534.795 1840.55 531.903 1850.18 529.011C1852.1 528.051 1850.18 530.93 1851.14 532.863C1855.97 540.567 1855.01 552.123 1851.14 559.853C1850.18 566.597 1854.05 573.329 1854.05 581.033C1853.07 584.885 1849.22 587.777 1846.32 588.737C1849.22 579.113 1839.58 572.369 1842.47 562.745C1845.36 557.934 1842.47 552.136 1843.43 547.324C1843.43 543.472 1845.35 540.58 1845.35 536.728C1835.73 540.58 1823.19 543.472 1813.56 537.688C1802.98 530.943 1795.28 519.387 1792.36 506.858C1802.97 514.563 1819.33 510.711 1831.88 510.711C1836.69 511.67 1841.5 511.67 1845.35 514.563C1847.27 500.114 1832.84 493.37 1829.94 480.841C1826.07 469.285 1828.02 456.769 1829.94 444.241C1836.71 449.052 1845.38 452.904 1850.19 460.608ZM2143.07 456.756C2144.03 459.649 2143.07 462.528 2141.15 462.528C2130.57 463.488 2118.99 460.608 2112.24 467.34L2102.62 474.097C2105.51 465.42 2115.14 455.797 2125.72 454.837C2130.56 455.797 2138.26 452.904 2143.07 456.756ZM2230.75 457.729C2231.71 459.649 2231.71 461.581 2229.79 462.541C2224.98 461.581 2216.29 465.433 2214.37 459.649C2214.37 457.729 2215.33 454.837 2217.26 454.837C2222.08 455.797 2228.83 452.904 2230.75 457.729ZM2141.15 471.218C2143.07 472.177 2143.07 475.07 2142.11 476.989L2140.19 477.949C2131.53 479.868 2119.95 475.057 2113.22 481.801C2107.44 484.693 2103.59 490.465 2098.75 493.357C2101.67 484.693 2109.36 476.016 2119 472.164C2124.76 469.285 2134.41 470.245 2141.15 471.218ZM2232.68 473.137C2233.64 475.057 2233.64 476.989 2231.72 478.909C2225.95 478.909 2219.18 480.828 2216.3 475.057C2216.3 474.097 2216.3 471.205 2218.22 471.205C2222.08 471.218 2230.75 468.325 2232.68 473.137ZM2140.19 485.653C2141.15 485.653 2142.11 486.613 2143.09 487.585C2143.09 489.505 2143.09 491.437 2142.13 492.397C2133.46 495.289 2122.85 491.437 2116.11 496.249C2110.34 500.101 2103.59 504.913 2097.79 510.698C2101.67 499.142 2112.26 487.585 2124.77 484.693L2140.19 485.653ZM2234.6 487.585C2234.6 490.478 2235.56 492.397 2232.68 493.357H2222.1C2221.14 492.397 2218.22 492.397 2218.22 490.465C2217.26 488.545 2219.18 487.573 2219.18 485.64C2223.06 484.68 2227.87 485.64 2230.76 484.68C2232.68 485.653 2233.64 486.626 2234.6 487.585Z" fill="#090A0B"/>
<path fill-rule="evenodd" clip-rule="evenodd" d="M2192.21 612.821C2191.25 623.431 2185.46 634.027 2179.67 644.61C2180.63 634.987 2181.59 622.471 2180.63 612.821C2180.63 610.902 2181.59 608.01 2181.59 606.077C2185.46 608.01 2189.34 609.929 2192.21 612.821ZM2206.66 627.283C2206.66 627.283 2207.62 626.323 2208.58 626.323C2204.73 634.027 2199.92 641.731 2192.21 647.503C2195.11 641.731 2196.07 633.067 2198.96 625.363V623.444C2199.92 625.363 2202.81 628.255 2206.66 627.283Z" fill="#090A0B"/>
<path fill-rule="evenodd" clip-rule="evenodd" d="M2239.41 628.255C2229.79 640.771 2215.33 647.503 2201.85 654.273C2205.7 644.623 2217.26 640.771 2222.1 631.148C2224.02 631.148 2223.06 628.255 2224.99 627.296L2224.03 626.336C2228.83 626.323 2233.64 629.215 2239.41 628.255Z" fill="#090A0B"/>
<path fill-rule="evenodd" clip-rule="evenodd" d="M2137.3 691.833C2112.24 707.241 2078.53 705.309 2050.58 698.578C2047.69 697.618 2043.84 697.618 2040.96 695.685C2065.02 700.497 2091.04 700.497 2114.18 694.726C2131.53 689.914 2146.92 683.17 2160.43 671.601C2154.63 680.277 2145 686.062 2137.3 691.833ZM1972.55 677.372C1987.97 682.21 2002.42 686.062 2017.84 690.874C1996.63 687.981 1975.42 681.25 1954.26 682.21C1941.72 681.25 1929.2 683.17 1917.66 683.17V684.129C1915.74 680.277 1912.82 675.44 1908.97 673.52C1931.13 672.56 1952.33 672.56 1972.55 677.372ZM1907.04 680.277C1910.89 685.089 1908.95 694.713 1906.08 700.497C1902.22 702.417 1908 704.349 1907.04 707.242C1908.95 716.891 1906.08 726.515 1898.37 732.299C1890.67 738.084 1881.02 738.071 1873.31 735.191C1872.35 734.232 1870.42 733.272 1869.46 733.272C1871.38 731.352 1874.27 732.312 1877.17 731.352C1886.82 729.433 1897.41 722.688 1899.33 712.105C1900.29 707.267 1897.41 703.415 1894.52 700.523C1896.44 697.631 1900.29 695.711 1902.22 691.859C1903.18 688.967 1901.26 683.196 1899.33 679.318C1897.41 676.425 1895.48 676.425 1893.56 674.506C1898.37 673.52 1904.14 674.48 1907.04 680.277Z" fill="#090A0B"/>
<path fill-rule="evenodd" clip-rule="evenodd" d="M1894.52 686.062C1894.52 690.874 1891.63 693.766 1888.75 696.645C1880.06 702.417 1867.54 701.457 1857.92 699.537C1856 697.618 1854.07 698.578 1853.08 697.618C1865.62 696.658 1878.14 693.766 1887.79 684.142C1889.71 682.21 1893.56 683.17 1894.52 686.062ZM1967.73 698.565C1973.51 703.376 1982.19 707.228 1987.01 713.026C1966.76 715.918 1949.45 732.273 1926.31 725.542C1922.24 724.527 1918.34 722.905 1914.75 720.73L1916.67 717.838C1934 726.502 1955.2 716.878 1969.64 708.188C1959.06 701.444 1944.58 703.376 1931.11 704.336C1926.3 704.336 1920.52 703.376 1917.63 700.484C1918.59 697.592 1918.59 693.74 1919.55 690.861C1933.05 705.309 1952.33 688.941 1967.73 698.565ZM1857.92 711.106C1859.32 708.719 1861.31 706.725 1863.69 705.309C1865.61 706.269 1865.61 709.161 1865.61 711.106C1865.61 713.999 1863.69 715.918 1861.76 717.851C1858.87 718.811 1855.01 718.81 1853.07 716.891C1851.15 714.971 1848.26 713.039 1849.22 709.161C1849.22 706.269 1851.14 705.309 1853.07 703.389L1855.99 702.43C1856.96 705.309 1856 709.161 1857.92 711.106Z" fill="#090A0B"/>
<path fill-rule="evenodd" clip-rule="evenodd" d="M1930.16 710.121C1936.9 710.121 1945.57 707.228 1951.37 710.121C1942.68 711.106 1934.01 718.81 1923.43 714.958L1917.66 713.999C1918.62 712.079 1919.58 708.201 1919.58 706.269C1922.47 709.161 1926.31 709.161 1930.16 710.121ZM1725.91 733.246C1733.64 746.747 1744.23 758.303 1751.93 770.832C1776.99 799.716 1803 827.653 1836.71 846.926C1913.77 896.068 2020.73 911.476 2111.28 880.647C2187.38 856.562 2258.68 799.716 2298.18 727.461L2301.07 729.381L2388.75 792.959C2388.75 792.959 2389.71 792.959 2389.71 793.918V950.943L2388.75 951.929C2360.81 933.616 2333.83 913.37 2305.88 895.082C2194.15 998.153 2024.58 1036.69 1875.25 988.53C1816.48 970.216 1762.53 939.387 1715.33 897.002C1687.39 915.289 1660.42 934.562 1633.44 953.848H1632.48V793.905C1632.48 792.946 1631.52 792.946 1632.48 791.986C1642.13 786.214 1649.83 778.51 1659.46 773.698C1678.73 756.345 1703.79 744.789 1723.03 727.448C1724.95 728.434 1724.95 732.286 1725.91 733.246Z" fill="#090A0B"/>
<path fill-rule="evenodd" clip-rule="evenodd" d="M2008.21 807.446V812.258C2005.29 812.258 2003.37 810.338 2001.46 809.366C1998.56 805.514 1996.64 802.608 1996.64 797.783L1997.6 796.824C2002.42 797.796 2006.27 803.594 2008.21 807.446ZM2019.77 803.594C2020.73 805.514 2021.69 807.446 2021.69 810.338C2020.73 811.298 2018.8 810.338 2016.88 809.378C2013.98 806.486 2012.06 803.607 2013.02 798.769C2014.94 799.716 2018.8 800.689 2019.77 803.594ZM2007.25 817.069C2006.27 818.989 2006.27 824.774 2002.42 825.733C2000.5 825.733 1999.52 826.693 1997.6 825.733C1995.68 824.774 1998.56 822.841 1998.56 820.922C2000.48 818.029 2003.37 817.069 2007.25 817.069ZM2018.8 819.002C2018.8 821.894 2017.84 824.774 2014.94 826.706C2013.02 826.706 2011.09 827.666 2010.13 826.706H2009.17C2009.17 823.814 2011.09 820.935 2013.98 819.002C2015.92 819.002 2017.84 818.029 2018.8 819.002Z" fill="#090A0B"/>
<path fill-rule="evenodd" clip-rule="evenodd" d="M1750.97 829.585C1749.05 826.693 1748.08 826.693 1743.27 828.626L1708.58 841.167L1707.63 840.208L1723.03 807.459C1725.93 801.662 1724.95 800.702 1723.03 797.81H1723.99L1734.6 809.392V810.351C1731.68 807.459 1730.72 807.459 1729.76 808.432C1728.8 809.405 1727.85 811.324 1725.91 814.203L1717.25 835.409L1739.41 826.719C1740.37 826.719 1742.31 825.759 1743.27 824.8C1745.19 823.84 1744.23 821.907 1742.31 819.988L1743.27 819.028L1751.93 828.652L1750.97 829.585ZM1734.6 866.212C1738.45 869.104 1740.37 869.104 1743.27 866.212L1760.59 845.966C1763.49 842.114 1763.49 841.155 1760.59 837.302V836.343L1774.1 848.859L1773.14 849.818C1770.24 846.926 1768.32 845.966 1765.41 849.818L1747.12 870.064C1744.23 872.956 1745.2 874.876 1748.08 877.768L1747.12 878.728L1733.64 867.172L1734.6 866.212ZM1794.34 914.369L1781.8 904.745V903.785C1783.72 905.705 1785.65 906.678 1786.61 904.745C1787.57 903.785 1787.57 901.853 1788.53 900.893L1789.49 894.149L1776.97 885.459L1770.23 889.311L1768.31 891.257C1767.35 893.176 1769.27 895.109 1770.23 896.068L1769.27 897.028L1759.62 889.298L1760.58 888.338C1761.54 889.298 1762.5 889.298 1763.47 889.298C1765.39 889.298 1770.23 886.406 1772.16 884.486L1800.1 868.119L1801.06 869.078L1793.36 905.679C1792.37 910.491 1792.37 911.451 1794.32 913.383V914.369H1794.34ZM1790.46 892.229L1794.34 873.916L1778.92 883.54L1790.46 892.229ZM1884.87 915.329C1881.98 914.369 1881.02 915.329 1877.17 918.221L1851.15 944.238H1850.19V907.637C1850.19 900.893 1849.23 899.933 1846.34 898.974L1847.3 898.014L1861.76 904.758V905.718C1857.91 903.798 1856.95 903.798 1855.99 905.718V935.587L1873.31 918.234C1873.31 918.234 1875.23 916.314 1876.21 914.382C1877.18 912.449 1875.25 911.489 1873.31 910.53V909.57L1884.87 914.382V915.329ZM1916.68 965.444L1884.87 956.78L1885.83 955.82C1889.71 956.78 1890.67 956.78 1892.59 951.968L1899.33 925.951C1900.29 921.113 1899.33 920.153 1895.48 919.194L1896.44 918.234L1927.27 926.924L1925.35 935.587L1923.43 934.628C1924.39 929.816 1922.47 927.883 1916.68 925.964L1907.99 924.044C1907.04 924.044 1906.08 923.084 1906.08 925.964L1902.22 938.48L1911.85 941.372C1916.68 942.332 1917.64 941.372 1919.58 937.52H1920.54L1916.68 950.995H1915.73C1915.73 946.184 1915.73 945.224 1910.89 943.291L1901.26 940.399L1897.41 954.86C1897.41 957.753 1897.41 957.753 1906.08 960.632C1912.82 962.552 1916.68 961.592 1920.54 955.82L1922.46 956.78L1916.68 965.444ZM1974.47 975.067L1964.84 974.108L1953.29 952.928H1949.43L1948.47 964.484C1947.51 969.296 1948.47 970.256 1953.29 971.228L1952.33 972.188L1935.93 970.268V968.349C1940.74 969.309 1941.7 968.349 1941.7 963.537L1945.56 937.52C1946.52 932.708 1945.56 932.708 1941.7 930.776V929.816L1958.1 932.708C1963.87 932.708 1973.51 935.6 1971.57 945.224C1970.61 952.954 1962.91 953.914 1960.02 953.914L1969.64 970.282C1970.6 972.201 1972.53 974.134 1974.45 974.134L1974.47 975.067ZM1950.41 950.969C1955.22 950.969 1963.88 952.915 1965.81 944.225C1966.77 935.561 1959.07 934.602 1956.19 934.602C1953.3 933.642 1952.34 934.602 1952.34 935.561L1950.41 950.969ZM1990.86 975.067C1995.67 975.067 1996.63 974.108 1996.63 969.296L1997.59 942.319C1997.59 938.467 1996.63 937.507 1991.82 936.547V935.587L2009.17 936.547V937.507C2005.29 937.507 2003.37 937.507 2003.37 942.319L2002.42 969.296C2002.42 974.108 2004.33 975.067 2008.21 975.067V976.027H1990.86V975.067ZM2051.56 974.108L2033.24 976.027V975.067C2039.02 974.107 2039.02 972.175 2039.02 968.323L2036.12 937.494L2033.23 938.454C2026.49 938.454 2024.57 939.413 2023.61 946.158L2022.65 947.117V936.534L2056.37 933.642L2057.33 944.225H2056.37C2054.45 937.481 2052.52 936.521 2045.79 937.481H2042.89L2044.81 968.31C2044.81 972.162 2045.77 973.122 2051.56 973.122V974.108ZM2109.36 964.471L2093.94 967.363V966.403C2095.86 966.403 2097.79 965.444 2097.79 963.511C2097.79 962.552 2095.88 960.619 2095.88 959.659L2092.02 954.847L2076.61 957.74L2074.7 965.444V967.363C2075.66 970.256 2078.55 969.283 2079.51 969.283V970.243L2067.95 973.135V972.175C2068.91 971.215 2069.87 971.215 2070.84 970.255C2071.8 968.336 2072.76 963.511 2073.74 960.632L2080.48 928.843H2081.44L2102.65 959.672C2105.54 963.524 2106.5 964.484 2109.39 963.524V964.471H2109.36ZM2091.05 952.928L2080.47 937.507L2076.61 954.86L2091.05 952.928ZM2135.38 926.911L2134.42 927.87C2131.53 923.059 2126.69 919.181 2119.96 921.113C2117.07 922.073 2115.15 924.991 2116.11 927.87C2119 936.534 2138.27 931.722 2142.13 944.238C2144.04 949.05 2142.13 955.82 2133.46 958.699C2128.65 959.659 2125.73 958.699 2123.81 958.699C2122.85 959.659 2122.85 960.619 2122.85 961.592H2121.89L2116.12 950.01H2117.08C2119 951.955 2124.78 958.699 2132.5 956.767C2137.31 954.847 2138.27 950.97 2137.31 948.077C2136.35 944.225 2134.42 942.306 2124.77 940.373C2118.03 939.413 2113.22 937.481 2112.26 931.709C2109.36 924.965 2114.18 920.127 2119 919.168C2122.85 917.248 2126.7 918.208 2127.69 918.208C2129.61 917.248 2129.61 916.288 2129.61 915.316H2130.57L2135.38 926.911ZM2204.73 882.58C2201.84 883.54 2201.84 885.472 2201.84 890.31L2206.65 925.951L2205.69 926.911L2176.78 904.745C2171.97 900.893 2171.01 900.893 2168.12 901.853V900.893L2181.59 893.189L2182.55 894.149C2179.66 896.068 2178.7 897.041 2179.66 898.961C2179.66 899.92 2182.55 900.88 2184.47 902.813L2202.78 916.288L2199.89 893.189C2199.89 892.229 2198.93 889.311 2198.93 888.351C2197.97 886.432 2196.04 887.392 2193.16 888.351V887.392L2203.74 881.62L2204.73 882.58ZM2236.52 905.705C2240.37 902.813 2240.37 901.853 2238.44 898.001L2223.03 875.836C2220.14 872.943 2219.15 871.984 2214.34 874.876V873.916L2228.8 863.333L2229.76 864.293C2225.91 867.185 2224.95 868.145 2227.84 872.956L2243.25 894.162C2246.14 898.014 2248.06 898.014 2250.95 895.122L2251.91 896.081L2237.48 906.665L2236.52 905.705ZM2284.7 869.104L2271.2 880.66V879.701C2275.05 875.849 2274.09 874.889 2271.2 871.997L2250.95 848.871L2248.06 850.791C2243.25 855.603 2243.25 857.535 2246.14 863.333L2245.18 864.293L2238.44 856.563L2264.46 833.463L2271.2 841.167L2270.24 842.127C2265.43 838.275 2263.5 838.275 2257.72 843.087L2255.81 845.007L2276.03 868.132C2278.92 871.024 2279.9 871.984 2283.75 868.132L2284.7 869.104ZM2327.09 824.774L2316.5 836.356L2315.54 835.396C2317.46 833.476 2318.44 832.504 2317.46 830.584C2316.5 829.598 2314.57 829.598 2313.61 828.639L2307.81 826.719L2297.23 839.261L2300.12 846.005C2301.08 846.005 2301.08 846.965 2302.04 847.925C2303.96 848.884 2305.89 846.965 2305.89 846.005L2306.85 846.965L2299.15 855.629L2298.19 854.669C2299.15 854.669 2299.15 853.709 2299.15 851.777C2299.15 849.844 2297.23 845.032 2296.26 843.113L2281.82 813.244L2282.78 812.284L2318.42 823.84C2323.24 825.759 2324.19 825.759 2326.13 823.84L2327.09 824.774ZM2304.92 825.733L2287.59 819.962L2295.3 836.356L2304.92 825.733Z" fill="#090A0B"/>
</g>
<defs>
<clipPath id="clip0_444_197">
<rect width="2500" height="1094" fill="white"/>
</clipPath>
</defs>
</svg>
