<svg width="154" height="56" viewBox="0 0 154 56" fill="none" xmlns="http://www.w3.org/2000/svg">
<path d="M146.657 46.9214H34.5078V12.6289H146.643C147.584 12.6289 148.168 13.6584 147.684 14.4559L137.902 28.9704C137.588 29.4344 137.588 30.0289 137.902 30.4929L147.698 45.0799C148.183 45.9064 147.598 46.9214 146.657 46.9214Z" fill="white"/>
<path d="M66.7763 20.502V24.2285H63.3968V20.502H61.7998V29.405H63.3968V25.7945H66.7763V29.405H68.3733V20.502H66.7763Z" fill="#0E031E"/>
<path d="M73.4782 26.5342C73.4782 27.2737 72.8793 27.8827 72.152 27.8827C71.4248 27.8827 70.8259 27.2737 70.8259 26.5342V22.7207H69.3145V26.5342C69.3145 28.1292 70.5835 29.4197 72.152 29.4197C73.7206 29.4197 74.9896 28.1292 74.9896 26.5342V22.7207H73.4782V26.5342Z" fill="#0E031E"/>
<path d="M84.7145 23.112C84.7145 22.329 85.2278 22.0825 85.7839 22.0825C86.226 22.0825 86.8249 22.4305 87.2099 22.851L88.208 21.662C87.7089 20.9805 86.7108 20.502 85.8837 20.502C84.2297 20.502 83.0462 21.488 83.0462 23.112C83.0462 26.128 86.668 25.171 86.668 26.853C86.668 27.375 86.1689 27.839 85.5986 27.839C84.7002 27.839 84.415 27.3895 84.0015 26.9255L82.9036 28.0855C83.6023 28.97 84.4721 29.4195 85.513 29.4195C87.0815 29.4195 88.3363 28.4335 88.3363 26.882C88.3363 23.518 84.7145 24.562 84.7145 23.112Z" fill="#0E031E"/>
<path d="M107.13 27.9841C106.231 27.9841 105.975 27.5926 105.975 26.9836V24.3156H107.372V22.9671H105.975V21.1836L104.435 21.8796V27.3171C104.435 28.7091 105.376 29.4051 106.673 29.4051C106.873 29.4051 107.13 29.3906 107.286 29.3616L107.657 27.9551C107.486 27.9696 107.301 27.9841 107.13 27.9841Z" fill="#0E031E"/>
<path d="M79.2535 22.7645C78.4977 22.7645 77.9844 22.982 77.4711 23.4895V20.5605H75.9453V25.9835C75.9453 28.0135 77.3855 29.4055 79.0111 29.4055C80.822 29.4055 82.3905 27.9845 82.3905 26.085C82.4048 24.2 80.9503 22.7645 79.2535 22.7645ZM79.2535 27.854C78.2981 27.854 77.5281 27.071 77.5281 26.0995C77.5281 25.128 78.2981 24.345 79.2535 24.345C80.2088 24.345 80.9788 25.128 80.9788 26.0995C80.9646 27.071 80.1946 27.854 79.2535 27.854Z" fill="#0E031E"/>
<path d="M95.7509 26.0119C95.7509 24.0979 94.1681 22.6914 92.3714 22.6914C90.7458 22.6914 89.3057 24.0834 89.3057 26.1134V31.5364H90.8314V28.6074C91.3305 29.1149 91.8581 29.3324 92.6138 29.3324C94.2821 29.3324 95.7509 27.8969 95.7509 26.0119ZM94.3107 25.9829C94.3107 26.9544 93.5407 27.7374 92.5853 27.7374C91.6299 27.7374 90.8599 26.9544 90.8599 25.9829C90.8599 25.0114 91.6299 24.2284 92.5853 24.2284C93.5264 24.2284 94.3107 25.0259 94.3107 25.9829Z" fill="#0E031E"/>
<path d="M100.657 22.6045V21.053C101.056 20.8645 101.327 20.4585 101.327 19.98V19.951C101.327 19.2985 100.799 18.762 100.158 18.762H100.129C99.4874 18.762 98.9598 19.2985 98.9598 19.951V19.98C98.9598 20.4585 99.2449 20.8645 99.6442 21.053V22.6045C99.0453 22.6915 98.5035 22.9525 98.0614 23.315L93.8692 19.9945C93.8977 19.893 93.912 19.777 93.912 19.661C93.912 18.9215 93.3274 18.3125 92.5859 18.3125C91.8587 18.3125 91.2598 18.907 91.2598 19.661C91.2598 20.4005 91.8444 21.0095 92.5859 21.0095C92.8283 21.0095 93.0422 20.937 93.2418 20.8355L97.3627 24.098C97.0062 24.6345 96.8066 25.287 96.8066 25.9685C96.8066 26.6935 97.0348 27.3605 97.4198 27.926L96.165 29.202C96.0651 29.173 95.9653 29.144 95.8512 29.144C95.2524 29.144 94.7675 29.637 94.7675 30.246C94.7675 30.855 95.2524 31.348 95.8512 31.348C96.4501 31.348 96.9349 30.855 96.9349 30.246C96.9349 30.13 96.9207 30.0285 96.8779 29.927L98.1185 28.6655C98.6746 29.1005 99.3875 29.3615 100.143 29.3615C101.997 29.3615 103.494 27.839 103.494 25.954C103.48 24.2575 102.254 22.851 100.657 22.6045ZM100.143 27.7085C99.2022 27.7085 98.4322 26.9255 98.4322 25.9685C98.4322 25.0115 99.2022 24.2285 100.143 24.2285C101.084 24.2285 101.854 25.0115 101.854 25.9685C101.854 26.9255 101.084 27.7085 100.143 27.7085Z" fill="#0E031E"/>
<path d="M62.3133 39.0634C62.3989 39.1794 62.4987 39.2664 62.6128 39.3244C62.7411 39.3824 62.8694 39.4114 62.9978 39.4114C63.0691 39.4114 63.1403 39.3969 63.2259 39.3824C63.3115 39.3679 63.3685 39.3244 63.4398 39.2809C63.4968 39.2374 63.5539 39.1794 63.5966 39.1069C63.6394 39.0344 63.6537 38.9619 63.6537 38.8749C63.6537 38.7444 63.6109 38.6574 63.5396 38.5849C63.4541 38.5124 63.3685 38.4689 63.2402 38.4109C63.1261 38.3674 62.9978 38.3239 62.8552 38.2804C62.7126 38.2369 62.5842 38.1789 62.4702 38.1064C62.3561 38.0339 62.2563 37.9324 62.1707 37.8019C62.0852 37.6714 62.0566 37.5119 62.0566 37.2944C62.0566 37.1929 62.0709 37.0914 62.1137 36.9899C62.1565 36.8884 62.2135 36.7869 62.3133 36.6999C62.3989 36.6129 62.5129 36.5404 62.6555 36.4679C62.7981 36.3954 62.955 36.3809 63.1546 36.3809C63.3257 36.3809 63.4968 36.4099 63.6679 36.4534C63.8248 36.4969 63.9674 36.5984 64.0957 36.7579L63.7392 37.0914C63.6822 37.0044 63.6109 36.9319 63.5111 36.8884C63.4113 36.8304 63.2972 36.8159 63.1689 36.8159C63.0405 36.8159 62.9407 36.8304 62.8694 36.8594C62.7839 36.8884 62.7268 36.9319 62.6698 36.9899C62.627 37.0479 62.5842 37.0914 62.57 37.1494C62.5557 37.2074 62.5415 37.2654 62.5415 37.3089C62.5415 37.4539 62.5842 37.5554 62.6555 37.6279C62.7411 37.7004 62.8266 37.7584 62.955 37.8019C63.0691 37.8454 63.1974 37.8889 63.34 37.9324C63.4826 37.9759 63.6109 38.0194 63.725 38.0919C63.8391 38.1644 63.9389 38.2514 64.0244 38.3674C64.11 38.4834 64.1385 38.6429 64.1385 38.8314C64.1385 38.9909 64.11 39.1359 64.0529 39.2519C63.9959 39.3824 63.9103 39.4839 63.8105 39.5709C63.7107 39.6579 63.5966 39.7304 63.4541 39.7739C63.3115 39.8174 63.1689 39.8464 63.012 39.8464C62.7981 39.8464 62.6128 39.8029 62.4274 39.7304C62.242 39.6579 62.0994 39.5419 61.9854 39.3824L62.3133 39.0634Z" fill="#0E031E"/>
<path d="M66.2343 39.8319C65.9919 39.8319 65.7638 39.7884 65.5499 39.7014C65.336 39.6144 65.1649 39.4984 65.0223 39.3389C64.8797 39.1794 64.7656 39.0054 64.6801 38.7879C64.5945 38.5704 64.5518 38.3529 64.5518 38.1064C64.5518 37.8599 64.5945 37.6279 64.6801 37.4249C64.7656 37.2074 64.8797 37.0334 65.0223 36.8739C65.1649 36.7144 65.3503 36.5984 65.5499 36.5114C65.7638 36.4244 65.9777 36.3809 66.2343 36.3809C66.491 36.3809 66.7049 36.4244 66.9188 36.5114C67.1327 36.5984 67.3038 36.7144 67.4464 36.8739C67.589 37.0334 67.7031 37.2074 67.7886 37.4249C67.8742 37.6424 67.9169 37.8599 67.9169 38.1064C67.9169 38.3529 67.8742 38.5849 67.7886 38.7879C67.7031 39.0054 67.589 39.1794 67.4464 39.3389C67.3038 39.4984 67.1184 39.6144 66.9188 39.7014C66.7049 39.7884 66.491 39.8319 66.2343 39.8319ZM66.2343 39.4114C66.4197 39.4114 66.5908 39.3824 66.7334 39.3099C66.876 39.2374 67.0044 39.1504 67.1184 39.0344C67.2182 38.9184 67.3038 38.7734 67.3608 38.6139C67.4179 38.4544 67.4464 38.2804 67.4464 38.1064C67.4464 37.9324 67.4179 37.7584 67.3608 37.5989C67.3038 37.4394 67.2182 37.2944 67.1184 37.1784C67.0186 37.0624 66.8903 36.9609 66.7334 36.9029C66.5908 36.8304 66.4197 36.8014 66.2343 36.8014C66.049 36.8014 65.8779 36.8304 65.7353 36.9029C65.5927 36.9754 65.4643 37.0624 65.3503 37.1784C65.2505 37.2944 65.1649 37.4394 65.1079 37.5989C65.0508 37.7584 65.0223 37.9324 65.0223 38.1064C65.0223 38.2804 65.0508 38.4544 65.1079 38.6139C65.1649 38.7734 65.2505 38.9184 65.3503 39.0344C65.4501 39.1504 65.5784 39.2519 65.7353 39.3099C65.8921 39.3824 66.049 39.4114 66.2343 39.4114Z" fill="#0E031E"/>
<path d="M68.5586 36.4688H69.0006V39.3398H70.4836V39.7603H68.5586V36.4688Z" fill="#0E031E"/>
<path d="M71.2965 36.4688V38.4842C71.2965 38.5857 71.3108 38.6873 71.3393 38.8033C71.3678 38.9193 71.4106 39.0208 71.4819 39.1078C71.5389 39.1948 71.6245 39.2818 71.7386 39.3398C71.8384 39.3978 71.9667 39.4267 72.1236 39.4267C72.2804 39.4267 72.4088 39.3978 72.5086 39.3398C72.6084 39.2818 72.6939 39.2093 72.7652 39.1078C72.8223 39.0208 72.8793 38.9193 72.9078 38.8033C72.9363 38.6873 72.9506 38.5857 72.9506 38.4842V36.4688H73.3926V38.5567C73.3926 38.7452 73.3641 38.9193 73.2928 39.0787C73.2358 39.2383 73.136 39.3688 73.0219 39.4848C72.9078 39.6008 72.7795 39.6878 72.6226 39.7458C72.4658 39.8038 72.3089 39.8328 72.1236 39.8328C71.9382 39.8328 71.7813 39.8038 71.6245 39.7458C71.4676 39.6878 71.3393 39.6008 71.2252 39.4848C71.1112 39.3688 71.0256 39.2383 70.9543 39.0787C70.8973 38.9193 70.8545 38.7452 70.8545 38.5567V36.4688H71.2965Z" fill="#0E031E"/>
<path d="M74.8046 36.8892H73.7637V36.4688H76.2876V36.8892H75.2466V39.7603H74.8046V36.8892Z" fill="#0E031E"/>
<path d="M76.7578 36.4688H77.1999V39.7603H76.7578V36.4688Z" fill="#0E031E"/>
<path d="M79.51 39.8319C79.2676 39.8319 79.0394 39.7884 78.8255 39.7014C78.6117 39.6144 78.4405 39.4984 78.2979 39.3389C78.1554 39.1794 78.0413 39.0054 77.9557 38.7879C77.8702 38.5704 77.8274 38.3529 77.8274 38.1064C77.8274 37.8599 77.8702 37.6279 77.9557 37.4249C78.0413 37.2074 78.1554 37.0334 78.2979 36.8739C78.4405 36.7144 78.6259 36.5984 78.8255 36.5114C79.0394 36.4244 79.2533 36.3809 79.51 36.3809C79.7524 36.3809 79.9805 36.4244 80.1944 36.5114C80.4083 36.5984 80.5794 36.7144 80.722 36.8739C80.8646 37.0334 80.9787 37.2074 81.0642 37.4249C81.1498 37.6424 81.1926 37.8599 81.1926 38.1064C81.1926 38.3529 81.1498 38.5849 81.0642 38.7879C80.9787 39.0054 80.8646 39.1794 80.722 39.3389C80.5794 39.4984 80.3941 39.6144 80.1944 39.7014C79.9805 39.7884 79.7524 39.8319 79.51 39.8319ZM79.51 39.4114C79.6954 39.4114 79.8665 39.3824 80.0091 39.3099C80.1516 39.2374 80.28 39.1504 80.3941 39.0344C80.4939 38.9184 80.5794 38.7734 80.6365 38.6139C80.6935 38.4544 80.722 38.2804 80.722 38.1064C80.722 37.9324 80.6935 37.7584 80.6365 37.5989C80.5794 37.4394 80.4939 37.2944 80.3941 37.1784C80.2942 37.0624 80.1659 36.9609 80.0091 36.9029C79.8665 36.8304 79.6954 36.8014 79.51 36.8014C79.3246 36.8014 79.1535 36.8304 79.0109 36.9029C78.8683 36.9754 78.74 37.0624 78.6259 37.1784C78.5261 37.2944 78.4405 37.4394 78.3835 37.5989C78.3265 37.7584 78.2979 37.9324 78.2979 38.1064C78.2979 38.2804 78.3265 38.4544 78.3835 38.6139C78.4405 38.7734 78.5261 38.9184 78.6259 39.0344C78.7257 39.1504 78.8541 39.2519 79.0109 39.3099C79.1535 39.3824 79.3246 39.4114 79.51 39.4114Z" fill="#0E031E"/>
<path d="M81.8203 36.4688H82.3907L84.1731 39.1658H84.1874V36.4688H84.6294V39.7603H84.0733L82.2766 37.0633H82.2624V39.7603H81.8203V36.4688Z" fill="#0E031E"/>
<path d="M85.5416 39.0634C85.6271 39.1794 85.727 39.2664 85.841 39.3244C85.9694 39.3824 86.0977 39.4114 86.226 39.4114C86.2973 39.4114 86.3686 39.3969 86.4542 39.3824C86.5397 39.3679 86.5968 39.3244 86.6681 39.2809C86.7251 39.2374 86.7821 39.1794 86.8249 39.1069C86.8677 39.0344 86.882 38.9619 86.882 38.8749C86.882 38.7444 86.8392 38.6574 86.7679 38.5849C86.6823 38.5124 86.5968 38.4689 86.4684 38.4109C86.3544 38.3674 86.226 38.3239 86.0834 38.2804C85.9409 38.2369 85.8125 38.1789 85.6984 38.1064C85.5844 38.0339 85.4846 37.9324 85.399 37.8019C85.3134 37.6714 85.2849 37.5119 85.2849 37.2944C85.2849 37.1929 85.2992 37.0914 85.342 36.9899C85.3847 36.8884 85.4418 36.7869 85.5416 36.6999C85.6271 36.6129 85.7412 36.5404 85.8838 36.4679C86.0264 36.3954 86.1833 36.3809 86.3829 36.3809C86.554 36.3809 86.7251 36.4099 86.8962 36.4534C87.0531 36.4969 87.1957 36.5984 87.324 36.7579L86.9675 37.0914C86.9105 37.0044 86.8392 36.9319 86.7394 36.8884C86.6396 36.8304 86.5255 36.8159 86.3971 36.8159C86.2688 36.8159 86.169 36.8304 86.0977 36.8594C86.0121 36.8884 85.9551 36.9319 85.8981 36.9899C85.8553 37.0479 85.8125 37.0914 85.7983 37.1494C85.784 37.2074 85.7697 37.2654 85.7697 37.3089C85.7697 37.4539 85.8125 37.5554 85.8838 37.6279C85.9694 37.7004 86.0549 37.7584 86.1833 37.8019C86.2973 37.8454 86.4257 37.8889 86.5683 37.9324C86.7108 37.9759 86.8392 38.0194 86.9533 38.0919C87.0673 38.1644 87.1671 38.2514 87.2527 38.3674C87.3383 38.4834 87.3668 38.6429 87.3668 38.8314C87.3668 38.9909 87.3383 39.1359 87.2812 39.2519C87.2242 39.3824 87.1386 39.4839 87.0388 39.5709C86.939 39.6579 86.8249 39.7304 86.6823 39.7739C86.5397 39.8174 86.3971 39.8464 86.2403 39.8464C86.0264 39.8464 85.841 39.8029 85.6557 39.7304C85.4703 39.6579 85.3277 39.5419 85.2136 39.3824L85.5416 39.0634Z" fill="#0E031E"/>
<path d="M89.249 36.4688H90.3898C90.6037 36.4688 90.7605 36.4978 90.9031 36.5558C91.0314 36.6138 91.1455 36.6863 91.2168 36.7733C91.2881 36.8603 91.3451 36.9618 91.3736 37.0633C91.4022 37.1793 91.4164 37.2808 91.4164 37.3823C91.4164 37.4838 91.4022 37.5853 91.3736 37.7012C91.3451 37.8173 91.2881 37.9042 91.2168 37.9912C91.1455 38.0782 91.0314 38.1507 90.9031 38.2088C90.7748 38.2667 90.6037 38.2958 90.3898 38.2958H89.6911V39.7458H89.249V36.4688ZM89.6911 37.9187H90.2614C90.347 37.9187 90.4325 37.9187 90.5181 37.9042C90.6036 37.8897 90.6749 37.8607 90.7462 37.8317C90.8175 37.7882 90.8603 37.7448 90.9031 37.6723C90.9459 37.5998 90.9601 37.5127 90.9601 37.3967C90.9601 37.2807 90.9459 37.1937 90.9031 37.1212C90.8603 37.0487 90.8175 37.0052 90.7462 36.9617C90.6749 36.9182 90.6036 36.9037 90.5181 36.8892C90.4325 36.8747 90.347 36.8748 90.2614 36.8748H89.6911V37.9187Z" fill="#0E031E"/>
<path d="M92.6427 36.4688H93.042L94.4251 39.7603H93.9118L93.5838 38.9483H92.0438L91.7301 39.7603H91.2168L92.6427 36.4688ZM93.427 38.5567L92.8281 37.0488H92.8138L92.2007 38.5567H93.427Z" fill="#0E031E"/>
<path d="M94.8385 36.4688H95.9792C96.1931 36.4688 96.35 36.4978 96.4926 36.5558C96.6209 36.6138 96.735 36.6863 96.8063 36.7733C96.8776 36.8603 96.9346 36.9618 96.9631 37.0633C96.9916 37.1793 97.0059 37.2808 97.0059 37.3823C97.0059 37.4838 96.9916 37.5852 96.9489 37.6867C96.9061 37.7882 96.8633 37.8753 96.792 37.9478C96.7207 38.0203 96.6351 38.0928 96.5353 38.1508C96.4355 38.2088 96.3214 38.2378 96.2074 38.2523L97.12 39.7458H96.5781L95.7511 38.2958H95.2663V39.7458H94.8242V36.4688H94.8385ZM95.2663 37.9187H95.8366C95.9222 37.9187 96.0077 37.9187 96.0933 37.9042C96.1789 37.8897 96.2501 37.8607 96.3214 37.8317C96.3927 37.7882 96.4355 37.7448 96.4783 37.6723C96.5211 37.5998 96.5353 37.5127 96.5353 37.3967C96.5353 37.2807 96.5211 37.1937 96.4783 37.1212C96.4355 37.0487 96.3927 37.0052 96.3214 36.9617C96.2501 36.9182 96.1789 36.9037 96.0933 36.8892C96.0077 36.8747 95.9222 36.8748 95.8366 36.8748H95.2663V37.9187Z" fill="#0E031E"/>
<path d="M98.2187 36.8892H97.1777V36.4688H99.7016V36.8892H98.6607V39.7603H98.2187V36.8892Z" fill="#0E031E"/>
<path d="M100.157 36.4688H100.728L102.51 39.1658H102.524V36.4688H102.966V39.7603H102.41L100.614 37.0633H100.599V39.7603H100.157V36.4688Z" fill="#0E031E"/>
<path d="M103.793 36.4688H105.875V36.8892H104.235V37.8753H105.775V38.2958H104.235V39.3542H105.96V39.7748H103.793V36.4688Z" fill="#0E031E"/>
<path d="M106.574 36.4688H107.715C107.928 36.4688 108.085 36.4978 108.228 36.5558C108.356 36.6138 108.47 36.6863 108.542 36.7733C108.613 36.8603 108.67 36.9618 108.698 37.0633C108.727 37.1793 108.741 37.2808 108.741 37.3823C108.741 37.4838 108.727 37.5852 108.684 37.6867C108.641 37.7882 108.599 37.8753 108.527 37.9478C108.456 38.0203 108.37 38.0928 108.271 38.1508C108.171 38.2088 108.057 38.2378 107.943 38.2523L108.855 39.7458H108.313L107.486 38.2958H107.002V39.7458H106.56V36.4688H106.574ZM107.016 37.9187H107.586C107.672 37.9187 107.757 37.9187 107.843 37.9042C107.928 37.8897 108 37.8607 108.071 37.8317C108.142 37.7882 108.185 37.7448 108.228 37.6723C108.271 37.5998 108.285 37.5127 108.285 37.3967C108.285 37.2807 108.271 37.1937 108.228 37.1212C108.185 37.0487 108.142 37.0052 108.071 36.9617C108 36.9182 107.928 36.9037 107.843 36.8892C107.757 36.8747 107.672 36.8748 107.586 36.8748H107.016V37.9187Z" fill="#0E031E"/>
<path d="M110.639 36.4688H111.779C111.993 36.4688 112.15 36.4978 112.293 36.5558C112.421 36.6138 112.535 36.6863 112.606 36.7733C112.678 36.8603 112.735 36.9618 112.763 37.0633C112.792 37.1648 112.806 37.2808 112.806 37.3823C112.806 37.4838 112.792 37.5853 112.763 37.7012C112.735 37.8173 112.678 37.9042 112.606 37.9912C112.535 38.0782 112.421 38.1507 112.293 38.2088C112.164 38.2667 111.993 38.2958 111.779 38.2958H111.081V39.7458H110.639V36.4688ZM111.081 37.9187H111.651C111.737 37.9187 111.822 37.9187 111.908 37.9042C111.993 37.8897 112.065 37.8607 112.136 37.8317C112.207 37.8027 112.25 37.7448 112.293 37.6723C112.336 37.5998 112.35 37.5127 112.35 37.3967C112.35 37.2807 112.336 37.1937 112.293 37.1212C112.25 37.0487 112.207 37.0052 112.136 36.9617C112.065 36.9182 111.993 36.9037 111.908 36.8892C111.822 36.8747 111.737 36.8748 111.651 36.8748H111.081V37.9187Z" fill="#0E031E"/>
<path d="M113.347 36.4688H114.488C114.702 36.4688 114.859 36.4978 115.001 36.5558C115.13 36.6138 115.244 36.6863 115.315 36.7733C115.386 36.8603 115.443 36.9618 115.472 37.0633C115.5 37.1793 115.515 37.2808 115.515 37.3823C115.515 37.4838 115.5 37.5852 115.458 37.6867C115.415 37.7882 115.372 37.8753 115.301 37.9478C115.229 38.0203 115.144 38.0928 115.044 38.1508C114.944 38.2088 114.83 38.2378 114.716 38.2523L115.629 39.7458H115.087L114.26 38.2958H113.775V39.7458H113.333V36.4688H113.347ZM113.775 37.9187H114.345C114.431 37.9187 114.517 37.9187 114.602 37.9042C114.688 37.8897 114.759 37.8607 114.83 37.8317C114.902 37.8027 114.944 37.7448 114.987 37.6723C115.03 37.5998 115.044 37.5127 115.044 37.3967C115.044 37.2807 115.03 37.1937 114.987 37.1212C114.944 37.0487 114.902 37.0052 114.83 36.9617C114.759 36.9182 114.688 36.9037 114.602 36.8892C114.517 36.8747 114.431 36.8748 114.345 36.8748H113.775V37.9187Z" fill="#0E031E"/>
<path d="M117.61 39.8319C117.368 39.8319 117.14 39.7884 116.926 39.7014C116.712 39.6144 116.541 39.4984 116.398 39.3389C116.256 39.1794 116.142 39.0054 116.056 38.7879C115.971 38.5704 115.928 38.3529 115.928 38.1064C115.928 37.8599 115.971 37.6279 116.056 37.4249C116.142 37.2074 116.256 37.0334 116.398 36.8739C116.541 36.7144 116.726 36.5984 116.926 36.5114C117.14 36.4244 117.354 36.3809 117.61 36.3809C117.867 36.3809 118.081 36.4244 118.295 36.5114C118.509 36.5984 118.68 36.7144 118.822 36.8739C118.965 37.0334 119.079 37.2074 119.165 37.4249C119.25 37.6424 119.293 37.8599 119.293 38.1064C119.293 38.3529 119.25 38.5849 119.165 38.7879C119.079 39.0054 118.965 39.1794 118.822 39.3389C118.68 39.4984 118.494 39.6144 118.295 39.7014C118.095 39.7884 117.853 39.8319 117.61 39.8319ZM117.61 39.4114C117.796 39.4114 117.967 39.3824 118.109 39.3099C118.252 39.2374 118.38 39.1504 118.494 39.0344C118.608 38.9184 118.68 38.7734 118.737 38.6139C118.794 38.4544 118.822 38.2804 118.822 38.1064C118.822 37.9324 118.794 37.7584 118.737 37.5989C118.68 37.4394 118.594 37.2944 118.494 37.1784C118.395 37.0624 118.266 36.9609 118.109 36.9029C117.967 36.8304 117.796 36.8014 117.61 36.8014C117.425 36.8014 117.254 36.8304 117.111 36.9029C116.969 36.9754 116.84 37.0624 116.726 37.1784C116.626 37.2944 116.541 37.4394 116.484 37.5989C116.427 37.7584 116.398 37.9324 116.398 38.1064C116.398 38.2804 116.427 38.4544 116.484 38.6139C116.541 38.7734 116.626 38.9184 116.726 39.0344C116.826 39.1504 116.954 39.2519 117.111 39.3099C117.254 39.3824 117.425 39.4114 117.61 39.4114Z" fill="#0E031E"/>
<path d="M122.672 37.9179V39.5419C122.587 39.5854 122.501 39.6289 122.401 39.6724C122.302 39.7159 122.202 39.7449 122.088 39.7739C121.974 39.8029 121.874 39.8174 121.76 39.8319C121.646 39.8464 121.546 39.8464 121.446 39.8464C121.175 39.8464 120.933 39.8029 120.719 39.7014C120.505 39.6144 120.32 39.4839 120.177 39.3244C120.034 39.1649 119.92 38.9764 119.835 38.7734C119.763 38.5704 119.721 38.3384 119.721 38.1064C119.721 37.8599 119.763 37.6279 119.849 37.4249C119.935 37.2074 120.049 37.0334 120.191 36.8739C120.334 36.7144 120.519 36.5984 120.719 36.5114C120.933 36.4244 121.147 36.3809 121.403 36.3809C121.703 36.3809 121.945 36.4244 122.131 36.4969C122.316 36.5694 122.473 36.6709 122.601 36.8159L122.287 37.1494C122.159 37.0189 122.016 36.9319 121.86 36.8739C121.717 36.8159 121.56 36.8014 121.389 36.8014C121.204 36.8014 121.033 36.8304 120.89 36.9029C120.747 36.9754 120.619 37.0624 120.505 37.1784C120.405 37.2944 120.32 37.4394 120.263 37.5989C120.206 37.7584 120.177 37.9324 120.177 38.1064C120.177 38.2949 120.206 38.4689 120.277 38.6284C120.334 38.7879 120.434 38.9329 120.548 39.0489C120.662 39.1649 120.79 39.2519 120.947 39.3244C121.104 39.3969 121.261 39.4259 121.446 39.4259C121.603 39.4259 121.746 39.4114 121.888 39.3824C122.031 39.3534 122.145 39.3099 122.245 39.2519V38.3384H121.532V37.9179H122.672Z" fill="#0E031E"/>
<path d="M123.471 36.4688H124.611C124.825 36.4688 124.982 36.4978 125.125 36.5558C125.253 36.6138 125.367 36.6863 125.438 36.7733C125.51 36.8603 125.567 36.9618 125.595 37.0633C125.624 37.1648 125.638 37.2808 125.638 37.3823C125.638 37.4838 125.624 37.5852 125.581 37.6867C125.538 37.7882 125.496 37.8753 125.424 37.9478C125.353 38.0203 125.267 38.0928 125.168 38.1508C125.068 38.2088 124.954 38.2378 124.84 38.2523L125.752 39.7458H125.21L124.383 38.2958H123.913V39.7458H123.471V36.4688ZM123.913 37.9187H124.483C124.569 37.9187 124.654 37.9187 124.74 37.9042C124.825 37.8897 124.897 37.8607 124.968 37.8317C125.039 37.7882 125.082 37.7448 125.125 37.6723C125.168 37.5998 125.182 37.5127 125.182 37.3967C125.182 37.2807 125.168 37.1937 125.125 37.1212C125.082 37.0487 125.039 37.0052 124.968 36.9617C124.897 36.9182 124.825 36.9037 124.74 36.8892C124.654 36.8747 124.569 36.8748 124.483 36.8748H123.913V37.9187Z" fill="#0E031E"/>
<path d="M127.278 36.4688H127.678L129.061 39.7603H128.548L128.22 38.9483H126.68L126.366 39.7603H125.853L127.278 36.4688ZM128.063 38.5567L127.464 37.0488H127.45L126.836 38.5567H128.063Z" fill="#0E031E"/>
<path d="M129.445 36.4688H130.101L131.128 38.9628H131.142L132.155 36.4688H132.811V39.7603H132.368V37.0633H132.354L131.27 39.7603H130.985L129.902 37.0633H129.887V39.7603H129.445V36.4688Z" fill="#0E031E"/>
<path d="M45.4027 50.5908H16.656C12.5921 50.5908 9.3125 47.2413 9.3125 43.1233V13.8913C9.3125 9.75883 12.6064 6.42383 16.656 6.42383H45.4027C49.4666 6.42383 52.7462 9.77333 52.7462 13.8913V43.1233C52.7462 47.2558 49.4666 50.5908 45.4027 50.5908Z" fill="#0E031E"/>
<path d="M45.7879 48.8502H16.2712C13.3766 48.8502 11.0381 46.4722 11.0381 43.5287V13.4992C11.0381 10.5557 13.3766 8.17773 16.2712 8.17773H45.8022C48.6968 8.17773 51.0353 10.5557 51.0353 13.4992V43.5142C51.021 46.4577 48.6825 48.8502 45.7879 48.8502Z" fill="white"/>
<path d="M47.5129 11.7305H14.5312V45.269H47.5129V11.7305Z" fill="#0E031E"/>
<path d="M52.6887 35.0753H9.35479C7.74349 35.0753 6.43164 33.7413 6.43164 32.1028V24.8963C6.43164 23.2578 7.74349 21.9238 9.35479 21.9238H52.6887C54.3 21.9238 55.6118 23.2578 55.6118 24.8963V32.1028C55.6118 33.7413 54.3 35.0753 52.6887 35.0753Z" fill="#0E031E"/>
<path d="M53.0028 33.4797H9.25537C8.71352 33.4797 8.27148 33.0302 8.27148 32.4792V24.5767C8.27148 24.0257 8.71352 23.5762 9.25537 23.5762H53.0028C53.5446 23.5762 53.9867 24.0257 53.9867 24.5767V32.4792C53.9867 33.0302 53.5446 33.4797 53.0028 33.4797Z" fill="white"/>
<path d="M19.6074 26.2891H21.0476C21.2472 26.2891 21.4469 26.3036 21.6465 26.3471C21.8319 26.3906 22.003 26.4631 22.1456 26.5501C22.2882 26.6516 22.4022 26.7676 22.4878 26.9416C22.5733 27.1011 22.6161 27.3041 22.6161 27.5506C22.6161 27.8261 22.5733 28.0436 22.4735 28.2176C22.388 28.3916 22.2596 28.5076 22.1028 28.6091C21.9459 28.6961 21.7606 28.7686 21.5609 28.7976C21.3471 28.8266 21.1332 28.8411 20.9193 28.8411H20.3774V30.6391H19.6217V26.2891H19.6074ZM20.8337 28.1741C20.9478 28.1741 21.0476 28.1741 21.1759 28.1596C21.3043 28.1451 21.4041 28.1306 21.5039 28.0871C21.6037 28.0436 21.6893 27.9856 21.7463 27.8986C21.8033 27.8116 21.8461 27.6956 21.8461 27.5506C21.8461 27.4201 21.8176 27.3041 21.7606 27.2316C21.7035 27.1591 21.6322 27.0866 21.5467 27.0431C21.4611 26.9996 21.3613 26.9706 21.2472 26.9561C21.1332 26.9416 21.0333 26.9416 20.9335 26.9416H20.3917V28.1596H20.8337V28.1741Z" fill="#0E031E"/>
<path d="M23.2295 27.6955H23.9567V28.1595H23.971C24.0565 27.9855 24.1706 27.855 24.3132 27.768C24.4558 27.681 24.6269 27.623 24.8265 27.623C24.8693 27.623 24.9121 27.623 24.9549 27.6375C24.9976 27.652 25.0404 27.652 25.0832 27.6665V28.377C25.0262 28.3625 24.9691 28.348 24.9121 28.3335C24.855 28.319 24.798 28.319 24.741 28.319C24.5699 28.319 24.4415 28.348 24.3275 28.4205C24.2276 28.4785 24.1421 28.551 24.0993 28.638C24.0423 28.725 24.0138 28.7975 23.9852 28.8845C23.971 28.9715 23.9567 29.0295 23.9567 29.073V30.6535H23.2295V27.6955Z" fill="#0E031E"/>
<path d="M25.3115 29.1598C25.3115 28.9278 25.3543 28.7103 25.4399 28.5218C25.5254 28.3333 25.6395 28.1737 25.7678 28.0288C25.9104 27.8982 26.0815 27.7968 26.2669 27.7098C26.4665 27.6373 26.6662 27.5938 26.88 27.5938C27.0939 27.5938 27.3078 27.6373 27.4932 27.7098C27.6786 27.7823 27.8497 27.8837 27.9923 28.0288C28.1349 28.1592 28.2489 28.3188 28.3202 28.5218C28.4058 28.7103 28.4486 28.9278 28.4486 29.1598C28.4486 29.3918 28.4058 29.6092 28.3202 29.7977C28.2347 29.9862 28.1206 30.1458 27.9923 30.2908C27.8497 30.4213 27.6786 30.5228 27.4932 30.6098C27.2936 30.6823 27.0939 30.7258 26.88 30.7258C26.6662 30.7258 26.4523 30.6823 26.2669 30.6098C26.0673 30.5373 25.9104 30.4358 25.7678 30.2908C25.6252 30.1603 25.5112 30.0007 25.4399 29.7977C25.3543 29.6092 25.3115 29.3918 25.3115 29.1598ZM26.0387 29.1598C26.0387 29.2758 26.053 29.3773 26.0958 29.4933C26.1386 29.6093 26.1956 29.6962 26.2669 29.7687C26.3382 29.8557 26.4237 29.9138 26.5378 29.9718C26.6519 30.0298 26.766 30.0443 26.8943 30.0443C27.0226 30.0443 27.151 30.0153 27.2508 29.9718C27.3506 29.9283 27.4504 29.8557 27.5217 29.7687C27.593 29.6817 27.65 29.5948 27.6928 29.4933C27.7356 29.3918 27.7499 29.2758 27.7499 29.1598C27.7499 29.0438 27.7356 28.9423 27.6928 28.8262C27.65 28.7247 27.593 28.6233 27.5217 28.5508C27.4504 28.4638 27.3649 28.4057 27.2508 28.3477C27.1367 28.2897 27.0226 28.2752 26.8943 28.2752C26.766 28.2752 26.6376 28.3042 26.5378 28.3477C26.438 28.3912 26.3382 28.4638 26.2669 28.5508C26.1956 28.6378 26.1386 28.7247 26.0958 28.8262C26.0673 28.9423 26.0387 29.0438 26.0387 29.1598Z" fill="#0E031E"/>
<path d="M28.748 27.6953H29.5323L30.3023 29.7543H30.3166L31.0866 27.6953H31.828L30.6873 30.6388H29.9173L28.748 27.6953Z" fill="#0E031E"/>
<path d="M32.1699 26.6948C32.1699 26.5788 32.2127 26.4773 32.2983 26.3903C32.3838 26.3033 32.4979 26.2598 32.6262 26.2598C32.7546 26.2598 32.8686 26.3033 32.9542 26.3903C33.0397 26.4773 33.0968 26.5788 33.0968 26.7093C33.0968 26.8398 33.054 26.9413 32.9542 27.0283C32.8544 27.1153 32.7546 27.1588 32.6262 27.1588C32.4979 27.1588 32.3838 27.1153 32.2983 27.0283C32.2127 26.9123 32.1699 26.8108 32.1699 26.6948ZM32.2697 27.6953H32.997V30.6388H32.2697V27.6953Z" fill="#0E031E"/>
<path d="M36.1194 30.1894C36.0053 30.3634 35.8627 30.4939 35.6916 30.5809C35.5205 30.6679 35.3209 30.6969 35.1212 30.6969C34.8931 30.6969 34.6935 30.6534 34.5223 30.5809C34.3512 30.5084 34.1944 30.3924 34.0803 30.2474C33.9662 30.1024 33.8664 29.9429 33.7951 29.7544C33.7238 29.5659 33.6953 29.3629 33.6953 29.1454C33.6953 28.9279 33.7238 28.7249 33.7951 28.5364C33.8664 28.3479 33.952 28.1884 34.0803 28.0434C34.2086 27.8984 34.3512 27.7969 34.5223 27.7099C34.6935 27.6374 34.8788 27.5939 35.0927 27.5939C35.2353 27.5939 35.3494 27.6084 35.4492 27.6374C35.549 27.6664 35.6488 27.7099 35.7201 27.7534C35.8057 27.7969 35.8627 27.8404 35.9198 27.8984C35.9768 27.9564 36.0196 27.9999 36.0623 28.0434H36.0766V25.9844H36.8038V30.6099H36.1194V30.1894ZM34.4083 29.1599C34.4083 29.2759 34.4225 29.3774 34.4653 29.4934C34.5081 29.6094 34.5651 29.6964 34.6364 29.7689C34.7077 29.8559 34.7933 29.9139 34.9073 29.9719C35.0214 30.0299 35.1355 30.0444 35.2638 30.0444C35.3922 30.0444 35.5205 30.0154 35.6203 29.9719C35.7201 29.9284 35.8199 29.8559 35.8912 29.7689C35.9625 29.6819 36.0196 29.5949 36.0623 29.4934C36.1051 29.3919 36.1194 29.2759 36.1194 29.1599C36.1194 29.0439 36.1051 28.9424 36.0623 28.8264C36.0196 28.7249 35.9625 28.6234 35.8912 28.5509C35.8199 28.4639 35.7344 28.4059 35.6203 28.3479C35.5062 28.2899 35.3922 28.2754 35.2638 28.2754C35.1355 28.2754 35.0072 28.3044 34.9073 28.3479C34.8075 28.3914 34.7077 28.4639 34.6364 28.5509C34.5651 28.6379 34.5081 28.7249 34.4653 28.8264C34.4225 28.9424 34.4083 29.0439 34.4083 29.1599Z" fill="#0E031E"/>
<path d="M38.2012 29.4213C38.2298 29.6388 38.3153 29.8128 38.4579 29.9288C38.6005 30.0448 38.7716 30.1173 38.9855 30.1173C39.1709 30.1173 39.3135 30.0738 39.4418 30.0013C39.5701 29.9288 39.6699 29.8273 39.7698 29.7113L40.2831 30.1028C40.112 30.3203 39.9266 30.4653 39.7127 30.5523C39.4988 30.6393 39.2849 30.6828 39.0568 30.6828C38.8429 30.6828 38.629 30.6393 38.4437 30.5668C38.244 30.4943 38.0872 30.3928 37.9446 30.2478C37.802 30.1173 37.6879 29.9578 37.6166 29.7548C37.5311 29.5663 37.4883 29.3488 37.4883 29.1168C37.4883 28.8848 37.5311 28.6673 37.6166 28.4788C37.7022 28.2903 37.8162 28.1308 37.9446 27.9858C38.0872 27.8553 38.2583 27.7538 38.4437 27.6668C38.6433 27.5943 38.8429 27.5508 39.0568 27.5508C39.2564 27.5508 39.4418 27.5798 39.6129 27.6523C39.784 27.7248 39.9266 27.8263 40.0407 27.9568C40.1548 28.0873 40.2546 28.2613 40.3116 28.4498C40.3829 28.6528 40.4114 28.8703 40.4114 29.1313V29.3343H38.2012V29.4213ZM39.6842 28.8703C39.6842 28.6528 39.6129 28.4788 39.4846 28.3628C39.3562 28.2323 39.1709 28.1743 38.9427 28.1743C38.7288 28.1743 38.5577 28.2323 38.4294 28.3628C38.3011 28.4933 38.2298 28.6528 38.2012 28.8703H39.6842Z" fill="#0E031E"/>
<path d="M41.0818 27.6955H41.809V28.1595H41.8233C41.9088 27.9855 42.0229 27.855 42.1655 27.768C42.3081 27.681 42.4792 27.623 42.6788 27.623C42.7216 27.623 42.7644 27.623 42.8072 27.6375C42.8499 27.652 42.8927 27.652 42.9355 27.6665V28.377C42.8785 28.3625 42.8214 28.348 42.7644 28.3335C42.7073 28.319 42.6503 28.319 42.5933 28.319C42.4222 28.319 42.2938 28.348 42.1797 28.4205C42.0799 28.4785 41.9944 28.551 41.9516 28.638C41.8946 28.725 41.866 28.7975 41.8375 28.8845C41.8233 28.9715 41.809 29.0295 41.809 29.073V30.6535H41.0818V27.6955Z" fill="#0E031E"/>
<path d="M38.1729 20.7069H32.3979L37.1462 17.9374C37.2746 17.8649 37.3173 17.7054 37.246 17.5894C37.1747 17.4589 37.0179 17.4154 36.9038 17.4879L31.9844 20.3444L34.9503 15.2404C35.0216 15.1099 34.9788 14.9504 34.8647 14.8779C34.7364 14.8054 34.5796 14.8489 34.5083 14.9649L31.5994 19.9674V13.9934C31.5994 13.8484 31.4853 13.7324 31.3427 13.7324C31.2001 13.7324 31.086 13.8484 31.086 13.9934V20.2429L28.1059 14.9649C28.0346 14.8344 27.8777 14.7909 27.7636 14.8634C27.6353 14.9359 27.5925 15.0954 27.6638 15.2114L30.4444 20.1414L25.7103 17.4589C25.582 17.3864 25.4251 17.4299 25.3681 17.5604C25.2968 17.6909 25.3396 17.8504 25.4679 17.9084L30.3303 20.6634H24.5125C24.3699 20.6634 24.2559 20.7794 24.2559 20.9244C24.2559 21.0694 24.3699 21.1854 24.5125 21.1854H38.1872C38.3297 21.1854 38.4438 21.0694 38.4438 20.9244C38.4438 20.7794 38.3155 20.7069 38.1729 20.7069Z" fill="white"/>
<path d="M24.4985 37.3379H30.2735L25.5251 40.1074C25.3968 40.1799 25.354 40.3394 25.4253 40.4554C25.4966 40.5859 25.6535 40.6294 25.7675 40.5569L30.687 37.7004L27.7211 42.8044C27.6498 42.9349 27.6925 43.0944 27.8066 43.1669C27.9349 43.2394 28.0918 43.1959 28.1631 43.0799L31.072 38.0774V44.0514C31.072 44.1964 31.1861 44.3124 31.3287 44.3124C31.4712 44.3124 31.5853 44.1964 31.5853 44.0514V37.8019L34.5655 43.0799C34.6368 43.2104 34.7937 43.2539 34.9077 43.1814C35.0361 43.1089 35.0788 42.9494 35.0075 42.8334L32.227 37.9034L36.9611 40.5859C37.0894 40.6584 37.2462 40.6149 37.3033 40.4844C37.3746 40.3539 37.3318 40.1944 37.2035 40.1364L32.3411 37.3814H38.1588C38.3014 37.3814 38.4155 37.2654 38.4155 37.1204C38.4155 36.9754 38.3014 36.8594 38.1588 36.8594H24.4842C24.3416 36.8594 24.2275 36.9754 24.2275 37.1204C24.2275 37.2654 24.3559 37.3379 24.4985 37.3379Z" fill="white"/>
</svg>
