<svg width="1920" height="1080" viewBox="0 0 1920 1080" fill="none" xmlns="http://www.w3.org/2000/svg">
<g clip-path="url(#clip0_271_641)">
<rect width="1920" height="1080" fill="#090A0B"/>
<path d="M81 385.5H93.2L105.4 440.9H105.6L120 385.5H132.2L146.7 440.9H146.9L159.1 385.5H171.3L153.4 457H140.9L126.2 401H126L111.4 457H98.8L81 385.5ZM202.488 404.5C212.188 404.5 219.688 410 219.688 421.7V457H209.088V424.7C209.088 417.8 206.188 413.4 198.888 413.4C191.188 413.4 185.688 418.3 185.688 425.9V457H175.188V385.5H185.688V412.5H185.888C188.588 408.5 193.888 404.5 202.488 404.5ZM258.189 419.3C258.189 415.6 255.989 412.8 248.989 412.8C240.589 412.8 237.489 415.4 236.989 422H226.789C227.289 412.2 233.589 404.5 248.989 404.5C260.289 404.5 268.689 408.8 268.689 422.4V446.7C268.689 450.3 269.489 452.2 273.589 451.8V456.8C271.189 457.7 269.489 457.9 267.489 457.9C261.889 457.9 259.289 455.9 258.289 450.9H258.089C254.889 455.4 249.089 458.5 241.189 458.5C230.789 458.5 224.389 452.5 224.389 443.9C224.389 432.7 232.689 429.2 245.489 426.7C253.389 425.2 258.189 424.2 258.189 419.3ZM243.489 450.2C252.189 450.2 258.189 445.9 258.189 437.6V429.9C256.489 431.1 252.389 432.3 247.489 433.3C238.789 435.2 234.989 437.7 234.989 442.9C234.989 447.6 237.789 450.2 243.489 450.2ZM301.154 414.5H291.554V442.2C291.554 448 294.354 448.7 301.154 448.3V456.9C299.054 457.4 296.754 457.7 293.954 457.7C285.554 457.7 280.954 453.9 280.954 443.1V414.5H273.554V405.9H280.954V389.8H291.554V405.9H301.154V414.5ZM324.928 457V385.5H352.728C372.428 385.5 384.528 398.3 384.528 421.3C384.528 444.3 372.828 457 353.028 457H324.928ZM336.828 395.6V446.9H352.128C368.128 446.9 372.628 435 372.628 421.3C372.628 407.6 368.128 395.6 352.128 395.6H336.828ZM396.869 397.3C393.969 397.3 390.969 395.3 390.969 391.7C390.969 388.1 393.969 386.2 396.869 386.2C399.969 386.2 402.869 388.1 402.869 391.7C402.869 395.3 399.969 397.3 396.869 397.3ZM391.669 405.9H402.169V457H391.669V405.9ZM446.244 405.9H456.744V453.5C456.744 468.2 447.844 474.7 433.344 474.7C418.644 474.7 410.544 467 409.444 458.4H420.044C421.044 462.9 424.644 466.3 432.944 466.3C441.744 466.3 446.244 462.3 446.244 453.1V446.9H446.044C443.344 450.7 438.644 454.5 430.544 454.5C417.744 454.5 408.144 445.6 408.144 429.5C408.144 413.3 417.744 404.5 430.544 404.5C438.644 404.5 443.344 408.3 446.044 411.9H446.244V405.9ZM432.544 445.9C441.044 445.9 446.144 440.3 446.144 429.5C446.144 418.7 441.044 413.1 432.544 413.1C423.344 413.1 418.644 420 418.644 429.5C418.644 438.9 423.344 445.9 432.544 445.9ZM470.603 397.3C467.703 397.3 464.703 395.3 464.703 391.7C464.703 388.1 467.703 386.2 470.603 386.2C473.703 386.2 476.603 388.1 476.603 391.7C476.603 395.3 473.703 397.3 470.603 397.3ZM465.403 405.9H475.903V457H465.403V405.9ZM508.978 414.5H499.378V442.2C499.378 448 502.178 448.7 508.978 448.3V456.9C506.878 457.4 504.578 457.7 501.778 457.7C493.378 457.7 488.778 453.9 488.778 443.1V414.5H481.378V405.9H488.778V389.8H499.378V405.9H508.978V414.5ZM545.802 419.3C545.802 415.6 543.602 412.8 536.602 412.8C528.202 412.8 525.102 415.4 524.602 422H514.402C514.902 412.2 521.202 404.5 536.602 404.5C547.902 404.5 556.302 408.8 556.302 422.4V446.7C556.302 450.3 557.102 452.2 561.202 451.8V456.8C558.802 457.7 557.102 457.9 555.102 457.9C549.502 457.9 546.902 455.9 545.902 450.9H545.702C542.502 455.4 536.702 458.5 528.802 458.5C518.402 458.5 512.002 452.5 512.002 443.9C512.002 432.7 520.302 429.2 533.102 426.7C541.002 425.2 545.802 424.2 545.802 419.3ZM531.102 450.2C539.802 450.2 545.802 445.9 545.802 437.6V429.9C544.102 431.1 540.002 432.3 535.102 433.3C526.402 435.2 522.602 437.7 522.602 442.9C522.602 447.6 525.402 450.2 531.102 450.2ZM565.544 385.5H576.144V457H565.544V385.5ZM602.483 457V385.5H617.883L637.883 440.5H638.083L657.983 385.5H673.383V457H661.783V402.8H661.583L642.683 457H633.183L614.283 402.8H614.083V457H602.483ZM713.584 419.3C713.584 415.6 711.384 412.8 704.384 412.8C695.984 412.8 692.884 415.4 692.384 422H682.184C682.684 412.2 688.984 404.5 704.384 404.5C715.684 404.5 724.084 408.8 724.084 422.4V446.7C724.084 450.3 724.884 452.2 728.984 451.8V456.8C726.584 457.7 724.884 457.9 722.884 457.9C717.284 457.9 714.684 455.9 713.684 450.9H713.484C710.284 455.4 704.484 458.5 696.584 458.5C686.184 458.5 679.784 452.5 679.784 443.9C679.784 432.7 688.084 429.2 700.884 426.7C708.784 425.2 713.584 424.2 713.584 419.3ZM698.884 450.2C707.584 450.2 713.584 445.9 713.584 437.6V429.9C711.884 431.1 707.784 432.3 702.884 433.3C694.184 435.2 690.384 437.7 690.384 442.9C690.384 447.6 693.184 450.2 698.884 450.2ZM757.425 404.7C759.225 404.7 760.525 404.8 762.025 405V414.9H761.825C751.725 413.2 743.625 420 743.625 430.9V457H733.125V405.9H743.625V415.5H743.825C746.525 409.1 750.725 404.7 757.425 404.7ZM766.77 385.5H777.27V426.4L798.07 405.9H810.97L791.57 424.9L813.07 457H800.47L784.37 431.8L777.27 438.5V457H766.77V385.5ZM835.221 449.9C843.921 449.9 847.421 444.5 848.321 441.4H858.821C856.221 451.1 848.621 458.5 835.521 458.5C819.621 458.5 809.921 447.5 809.921 431.5C809.921 414.9 819.621 404.5 835.021 404.5C851.521 404.5 859.621 416 859.621 434.2H820.421C820.421 442.8 825.921 449.9 835.221 449.9ZM835.021 412.8C826.521 412.8 820.421 418.5 820.421 426.4H849.121C849.121 418.5 843.521 412.8 835.021 412.8ZM888.244 414.5H878.644V442.2C878.644 448 881.444 448.7 888.244 448.3V456.9C886.144 457.4 883.844 457.7 881.044 457.7C872.644 457.7 868.044 453.9 868.044 443.1V414.5H860.644V405.9H868.044V389.8H878.644V405.9H888.244V414.5ZM899.775 397.3C896.875 397.3 893.875 395.3 893.875 391.7C893.875 388.1 896.875 386.2 899.775 386.2C902.875 386.2 905.775 388.1 905.775 391.7C905.775 395.3 902.875 397.3 899.775 397.3ZM894.575 405.9H905.075V457H894.575V405.9ZM941.25 404.5C950.75 404.5 958.25 410 958.25 421.7V457H947.65V424.7C947.65 417.8 944.75 413.4 937.55 413.4C929.45 413.4 924.25 418.3 924.25 425.9V457H913.75V405.9H924.25V412.5H924.45C927.15 408.5 932.45 404.5 941.25 404.5ZM1001.25 405.9H1011.75V453.5C1011.75 468.2 1002.85 474.7 988.352 474.7C973.652 474.7 965.552 467 964.452 458.4H975.052C976.052 462.9 979.652 466.3 987.952 466.3C996.752 466.3 1001.25 462.3 1001.25 453.1V446.9H1001.05C998.352 450.7 993.652 454.5 985.552 454.5C972.752 454.5 963.152 445.6 963.152 429.5C963.152 413.3 972.752 404.5 985.552 404.5C993.652 404.5 998.352 408.3 1001.05 411.9H1001.25V405.9ZM987.552 445.9C996.052 445.9 1001.15 440.3 1001.15 429.5C1001.15 418.7 996.052 413.1 987.552 413.1C978.352 413.1 973.652 420 973.652 429.5C973.652 438.9 978.352 445.9 987.552 445.9ZM86.1 577V505.5H113.9C133.6 505.5 145.7 518.3 145.7 541.3C145.7 564.3 134 577 114.2 577H86.1ZM98 515.6V566.9H113.3C129.3 566.9 133.8 555 133.8 541.3C133.8 527.6 129.3 515.6 113.3 515.6H98ZM182.259 539.3C182.259 535.6 180.059 532.8 173.059 532.8C164.659 532.8 161.559 535.4 161.059 542H150.859C151.359 532.2 157.659 524.5 173.059 524.5C184.359 524.5 192.759 528.8 192.759 542.4V566.7C192.759 570.3 193.559 572.2 197.659 571.8V576.8C195.259 577.7 193.559 577.9 191.559 577.9C185.959 577.9 183.359 575.9 182.359 570.9H182.159C178.959 575.4 173.159 578.5 165.259 578.5C154.859 578.5 148.459 572.5 148.459 563.9C148.459 552.7 156.759 549.2 169.559 546.7C177.459 545.2 182.259 544.2 182.259 539.3ZM167.559 570.2C176.259 570.2 182.259 565.9 182.259 557.6V549.9C180.559 551.1 176.459 552.3 171.559 553.3C162.859 555.2 159.059 557.7 159.059 562.9C159.059 567.6 161.859 570.2 167.559 570.2ZM225.224 534.5H215.624V562.2C215.624 568 218.424 568.7 225.224 568.3V576.9C223.124 577.4 220.824 577.7 218.024 577.7C209.624 577.7 205.024 573.9 205.024 563.1V534.5H197.624V525.9H205.024V509.8H215.624V525.9H225.224V534.5ZM262.048 539.3C262.048 535.6 259.848 532.8 252.848 532.8C244.448 532.8 241.348 535.4 240.848 542H230.648C231.148 532.2 237.448 524.5 252.848 524.5C264.148 524.5 272.548 528.8 272.548 542.4V566.7C272.548 570.3 273.348 572.2 277.448 571.8V576.8C275.048 577.7 273.348 577.9 271.348 577.9C265.748 577.9 263.148 575.9 262.148 570.9H261.948C258.748 575.4 252.948 578.5 245.048 578.5C234.648 578.5 228.248 572.5 228.248 563.9C228.248 552.7 236.548 549.2 249.348 546.7C257.248 545.2 262.048 544.2 262.048 539.3ZM247.348 570.2C256.048 570.2 262.048 565.9 262.048 557.6V549.9C260.348 551.1 256.248 552.3 251.348 553.3C242.648 555.2 238.848 557.7 238.848 562.9C238.848 567.6 241.648 570.2 247.348 570.2ZM326.833 534.4C342.133 538.3 353.733 541.6 353.733 557.6C353.733 569 345.133 578.5 327.133 578.5C309.633 578.5 296.333 569.4 295.633 553.2H307.533C308.133 562.3 314.333 568.3 327.133 568.3C337.733 568.3 341.833 563.6 341.833 558.1C341.833 549.6 335.733 548 321.633 544.5C310.433 541.7 298.333 537.4 298.333 523.8C298.333 511.1 308.133 504 323.733 504C339.433 504 350.833 512.2 351.833 526.9H339.933C338.833 518.6 333.633 514.2 323.733 514.2C315.233 514.2 310.133 517.4 310.133 522.7C310.133 530.5 316.833 531.9 326.833 534.4ZM387.214 524.5C396.914 524.5 404.414 530 404.414 541.7V577H393.814V544.7C393.814 537.8 390.914 533.4 383.614 533.4C375.914 533.4 370.414 538.3 370.414 545.9V577H359.914V505.5H370.414V532.5H370.614C373.314 528.5 378.614 524.5 387.214 524.5ZM435.016 578.5C419.016 578.5 409.316 567.4 409.316 551.5C409.316 535.6 419.016 524.5 435.016 524.5C451.016 524.5 460.716 535.6 460.716 551.5C460.716 567.4 451.016 578.5 435.016 578.5ZM435.016 569.9C445.016 569.9 450.216 562 450.216 551.5C450.216 540.9 445.016 533.1 435.016 533.1C425.016 533.1 419.816 540.9 419.816 551.5C419.816 562 425.016 569.9 435.016 569.9ZM499.573 525.9H510.073V577H499.573V570.4H499.373C496.673 574.4 491.373 578.4 482.573 578.4C473.073 578.4 465.573 572.9 465.573 561.2V525.9H476.173V558.2C476.173 565.1 479.073 569.5 486.273 569.5C494.373 569.5 499.573 564.6 499.573 557V525.9ZM518.274 505.5H528.874V577H518.274V505.5ZM572.97 505.5H583.47V577H572.97V571.1H572.77C570.07 574.6 565.07 578.5 557.17 578.5C544.07 578.5 534.37 568.3 534.37 551.5C534.37 534.7 544.07 524.5 557.17 524.5C565.07 524.5 570.07 528.2 572.77 532.1H572.97V505.5ZM558.97 569.9C567.57 569.9 572.87 562.8 572.87 551.5C572.87 540.1 567.57 533.1 558.97 533.1C549.77 533.1 544.87 541.5 544.87 551.5C544.87 561.5 549.77 569.9 558.97 569.9ZM604.259 505.5H616.959L635.459 538.7H635.659L654.259 505.5H666.959L641.559 548.6V577H629.659V548.6L604.259 505.5ZM682.098 578.5C666.098 578.5 656.398 567.4 656.398 551.5C656.398 535.6 666.098 524.5 682.098 524.5C698.098 524.5 707.798 535.6 707.798 551.5C707.798 567.4 698.098 578.5 682.098 578.5ZM682.098 569.9C692.098 569.9 697.298 562 697.298 551.5C697.298 540.9 692.098 533.1 682.098 533.1C672.098 533.1 666.898 540.9 666.898 551.5C666.898 562 672.098 569.9 682.098 569.9ZM746.655 525.9H757.155V577H746.655V570.4H746.455C743.755 574.4 738.455 578.4 729.655 578.4C720.155 578.4 712.655 572.9 712.655 561.2V525.9H723.255V558.2C723.255 565.1 726.155 569.5 733.355 569.5C741.455 569.5 746.655 564.6 746.655 557V525.9ZM98 656.4H128.9V666.6H98V697H86.1V625.5H136.1V635.6H98V656.4ZM160.102 698.5C144.102 698.5 134.402 687.4 134.402 671.5C134.402 655.6 144.102 644.5 160.102 644.5C176.102 644.5 185.802 655.6 185.802 671.5C185.802 687.4 176.102 698.5 160.102 698.5ZM160.102 689.9C170.102 689.9 175.302 682 175.302 671.5C175.302 660.9 170.102 653.1 160.102 653.1C150.102 653.1 144.902 660.9 144.902 671.5C144.902 682 150.102 689.9 160.102 689.9ZM226.259 664.6C225.859 659.4 222.559 653.1 213.559 653.1C203.259 653.1 198.859 661.9 198.859 671.5C198.859 681.1 203.159 689.9 213.559 689.9C222.559 689.9 225.859 683.7 226.259 678H236.759C235.959 689.8 226.859 698.5 213.559 698.5C198.259 698.5 188.359 687.5 188.359 671.5C188.359 655.5 198.259 644.5 213.459 644.5C226.759 644.5 235.459 653 236.759 664.6H226.259ZM275.295 645.9H285.795V697H275.295V690.4H275.095C272.395 694.4 267.095 698.4 258.295 698.4C248.795 698.4 241.295 692.9 241.295 681.2V645.9H251.895V678.2C251.895 685.1 254.795 689.5 261.995 689.5C270.095 689.5 275.295 684.6 275.295 677V645.9ZM315.897 666.1C325.297 668.3 335.497 670.4 335.497 682.6C335.497 692.4 327.097 698.5 314.697 698.5C298.197 698.5 291.097 690.8 290.597 680H300.797C301.297 685.5 303.697 690.2 314.497 690.2C321.797 690.2 324.897 686.6 324.897 683.4C324.897 677 318.797 676.5 311.297 674.7C303.197 672.8 292.197 671.2 292.197 659.6C292.197 651.2 299.597 644.5 312.397 644.5C326.297 644.5 332.897 652 333.597 660.9H323.397C322.697 656.9 320.697 652.8 312.497 652.8C306.197 652.8 302.797 655.2 302.797 658.8C302.797 664 308.497 664.4 315.897 666.1ZM391.07 698.5C369.47 698.5 355.97 682.7 355.97 661.2C355.97 639.7 369.47 624 391.07 624C412.57 624 426.17 639.7 426.17 661.2C426.17 682.7 412.57 698.5 391.07 698.5ZM391.07 688.3C407.47 688.3 414.27 675.7 414.27 661.2C414.27 646.8 407.47 634.2 391.07 634.2C374.67 634.2 367.77 646.8 367.77 661.2C367.77 675.7 374.67 688.3 391.07 688.3ZM460.023 644.5C469.523 644.5 477.023 650 477.023 661.7V697H466.423V664.7C466.423 657.8 463.523 653.4 456.323 653.4C448.223 653.4 443.023 658.3 443.023 665.9V697H432.523V645.9H443.023V652.5H443.223C445.923 648.5 451.223 644.5 460.023 644.5ZM491.555 648.4H479.955C479.955 634.5 488.155 624 505.355 624C518.055 624 527.655 631.7 527.655 642.7C527.655 651.3 522.955 655.2 516.955 659.5C510.955 663.8 506.755 667 506.755 677.1H496.455C496.455 666.4 500.155 661 506.355 655.8C511.155 651.6 516.055 649.8 516.055 642.9C516.055 637.9 511.955 633.9 505.055 633.9C496.955 633.9 491.555 637.8 491.555 648.4ZM501.655 697.8C497.955 697.8 495.155 695.3 495.155 691.3C495.155 687.4 497.955 684.8 501.655 684.8C505.255 684.8 508.055 687.4 508.055 691.3C508.055 695.3 505.255 697.8 501.655 697.8Z" fill="white"/>
<g clip-path="url(#clip1_271_641)">
<circle opacity="0.2" cx="1443.44" cy="537.444" r="203.167" stroke="#E3E5E8" stroke-width="2.55556"/>
<line opacity="0.2" x1="2234.29" y1="333.503" x2="634.513" y2="333.503" stroke="url(#paint0_linear_271_641)" stroke-width="2.55556"/>
<line opacity="0.2" x1="2242.29" y1="252.283" x2="1442.4" y2="252.283" stroke="url(#paint1_linear_271_641)" stroke-width="2.55556"/>
<line opacity="0.2" x1="1149.46" y1="331.226" x2="1149.46" y2="982.892" stroke="url(#paint2_linear_271_641)" stroke-width="2.55556"/>
<line opacity="0.2" y1="-1.27778" x2="651.667" y2="-1.27778" transform="matrix(1.19249e-08 1 1 -1.19249e-08 1663.84 90.4399)" stroke="url(#paint3_linear_271_641)" stroke-width="2.55556"/>
<line opacity="0.2" x1="2234" y1="538.278" x2="1721" y2="538.278" stroke="url(#paint4_linear_271_641)" stroke-width="2.55556"/>
<line opacity="0.2" x1="634.508" y1="740.827" x2="2234.29" y2="740.827" stroke="url(#paint5_linear_271_641)" stroke-width="2.55556"/>
<line opacity="0.2" y1="-1.27778" x2="799.889" y2="-1.27778" transform="matrix(1 8.74228e-08 8.74228e-08 -1 642.508 820.33)" stroke="url(#paint6_linear_271_641)" stroke-width="2.55556"/>
<line opacity="0.2" x1="1444.28" y1="100" x2="1444.28" y2="422" stroke="url(#paint7_linear_271_641)" stroke-width="2.55556"/>
<line opacity="0.2" x1="1441.72" y1="994.89" x2="1441.72" y2="670.335" stroke="url(#paint8_linear_271_641)" stroke-width="2.55556"/>
<g opacity="0.2">
<path d="M1434.2 544.52H1404.92V528.84H1434.2V498.6H1449.88V528.84H1479.16V544.52H1449.88V574.76H1434.2V544.52Z" fill="url(#paint9_linear_271_641)"/>
<path d="M1434.2 544.52H1435.48V543.242H1434.2V544.52ZM1404.92 544.52H1403.64V545.798H1404.92V544.52ZM1404.92 528.84V527.562H1403.64V528.84H1404.92ZM1434.2 528.84V530.118H1435.48V528.84H1434.2ZM1434.2 498.6V497.322H1432.92V498.6H1434.2ZM1449.88 498.6H1451.16V497.322H1449.88V498.6ZM1449.88 528.84H1448.6V530.118H1449.88V528.84ZM1479.16 528.84H1480.44V527.562H1479.16V528.84ZM1479.16 544.52V545.798H1480.44V544.52H1479.16ZM1449.88 544.52V543.242H1448.6V544.52H1449.88ZM1449.88 574.76V576.038H1451.16V574.76H1449.88ZM1434.2 574.76H1432.92V576.038H1434.2V574.76ZM1434.2 543.242H1404.92V545.798H1434.2V543.242ZM1406.2 544.52V528.84H1403.64V544.52H1406.2ZM1404.92 530.118H1434.2V527.562H1404.92V530.118ZM1435.48 528.84V498.6H1432.92V528.84H1435.48ZM1434.2 499.878H1449.88V497.322H1434.2V499.878ZM1448.6 498.6V528.84H1451.16V498.6H1448.6ZM1449.88 530.118H1479.16V527.562H1449.88V530.118ZM1477.88 528.84V544.52H1480.44V528.84H1477.88ZM1479.16 543.242H1449.88V545.798H1479.16V543.242ZM1448.6 544.52V574.76H1451.16V544.52H1448.6ZM1449.88 573.482H1434.2V576.038H1449.88V573.482ZM1435.48 574.76V544.52H1432.92V574.76H1435.48Z" fill="url(#paint10_linear_271_641)"/>
</g>
<path opacity="0.2" d="M1809.72 536.997C1809.72 739.532 1645.53 903.719 1443 903.719C1240.46 903.719 1076.28 739.532 1076.28 536.997C1076.28 334.462 1240.46 170.275 1443 170.275C1645.53 170.275 1809.72 334.462 1809.72 536.997Z" stroke="#E3E5E8" stroke-width="2.55556"/>
<path fill-rule="evenodd" clip-rule="evenodd" d="M1272.13 911.588L1261.16 906.608L1261.87 899.271L1257.32 897.208L1254.97 928.531L1259.66 930.663L1281.74 908.293L1277.19 906.23L1272.13 911.588ZM1260.68 910.872L1269.2 914.744L1259.19 925.511L1259.12 925.477L1260.68 910.872ZM1294.89 913.23L1285.9 936.91L1294.73 940.262L1293.25 944.157L1271.04 935.726L1272.52 931.831L1281.31 935.168L1290.3 911.489L1294.89 913.23ZM1319.97 928.961L1308.46 925.416L1308.23 918.05L1303.46 916.581L1305.11 947.949L1310.03 949.466L1329.08 924.471L1324.31 923.003L1319.97 928.961ZM1308.52 929.708L1317.47 932.463L1308.91 944.417L1308.83 944.392L1308.52 929.708ZM1352.21 930.008L1345.36 958.696L1334.21 956.034C1326.3 954.148 1322.67 947.854 1324.88 938.625C1327.08 929.397 1332.99 925.422 1340.93 927.317L1352.21 930.008ZM1341.56 953.504L1346.47 932.921L1340.33 931.456C1333.91 929.924 1330.96 934.268 1329.65 939.765C1328.34 945.262 1329 950.507 1335.42 952.039L1341.56 953.504ZM1364.7 945.577C1363.46 953.19 1365.03 959.925 1367.34 964.522L1371.08 965.133C1369.32 959.788 1368.15 953.872 1369.38 946.34C1370.58 938.971 1373.58 933.692 1376.94 929.184L1373.2 928.573C1369.56 932.2 1365.9 938.208 1364.7 945.577ZM1379.96 954.295C1380.16 957.306 1381.68 961.089 1387.09 961.696C1393.41 962.405 1396.5 957.397 1397.15 951.617C1397.8 945.796 1395.9 940.228 1389.58 939.519C1384.13 938.907 1381.64 942.239 1380.91 945.768L1376.03 945.221C1377.43 938.694 1382.47 934.486 1389.93 935.324C1398.37 936.272 1402.98 943.306 1401.99 952.16C1401 960.974 1394.95 966.811 1386.5 965.863C1379.08 965.03 1375.1 959.81 1375.08 953.747L1379.96 954.295ZM1423.16 945.32L1411.13 944.809L1409.03 937.742L1404.05 937.531L1413.59 967.456L1418.74 967.675L1430.83 938.668L1425.85 938.457L1423.16 945.32ZM1412.27 948.945L1421.63 949.342L1416.38 963.074L1416.3 963.071L1412.27 948.945ZM1437.99 957.933C1438.6 960.888 1440.64 964.423 1446.08 964.276C1452.43 964.104 1454.8 958.717 1454.65 952.903C1454.49 947.047 1451.83 941.796 1445.48 941.968C1440 942.116 1437.99 945.76 1437.76 949.357L1432.85 949.489C1433.33 942.832 1437.74 937.968 1445.24 937.765C1453.74 937.535 1459.27 943.865 1459.51 952.771C1459.75 961.637 1454.57 968.256 1446.07 968.485C1438.61 968.687 1433.95 964.067 1433.08 958.066L1437.99 957.933ZM1462.93 969.04L1466.71 968.748C1469.39 964.362 1471.53 957.784 1470.94 950.093C1470.36 942.649 1467.23 936.354 1463.9 932.433L1460.12 932.725C1463.1 937.501 1465.63 943.015 1466.21 950.459C1466.8 958.067 1465.13 963.864 1462.93 969.04ZM1496.35 933.927L1500.05 958.984L1509.39 957.606L1510 961.728L1486.49 965.193L1485.89 961.071L1495.19 959.7L1491.5 934.643L1496.35 933.927ZM1507.31 940.457C1508.67 946.916 1513.63 947.262 1520.14 947.535L1520.56 947.551C1524.57 947.697 1527.23 947.795 1527.87 950.838C1528.32 952.978 1526.54 954.703 1523.11 955.425C1519.11 956.267 1516.64 954.933 1515.49 951.676L1510.68 952.688C1512.34 958.536 1517.64 960.877 1523.97 959.543C1530.27 958.216 1533.62 954.517 1532.54 949.391C1531.39 943.902 1526.14 943.194 1521.38 943.016C1515.39 942.802 1512.79 942.675 1512.07 939.244C1511.6 937.024 1512.86 934.778 1517.13 933.877C1522.3 932.789 1525.31 934.684 1526.33 938.306L1531.13 937.294C1529.47 930.815 1523.33 928.272 1516.27 929.76C1509 931.29 1506.34 935.856 1507.31 940.457ZM1544.61 922.877C1553.18 920.448 1560.31 925.202 1562.73 933.735C1565.15 942.268 1561.55 950.016 1552.98 952.445C1544.45 954.862 1537.29 950.159 1534.87 941.626C1532.45 933.093 1536.07 925.293 1544.61 922.877ZM1545.75 926.925C1539.24 928.768 1537.96 934.534 1539.59 940.288C1541.21 946.004 1545.33 950.24 1551.83 948.396C1558.34 946.553 1559.67 940.776 1558.05 935.061C1556.42 929.306 1552.26 925.081 1545.75 926.925ZM1580.55 939.189C1575.43 941.045 1572.39 938.331 1570.87 935.722L1566.26 937.394C1568.97 942.818 1574.85 945.731 1581.87 943.187C1589.86 940.292 1592.69 932.376 1589.67 924.038C1586.64 915.661 1579.39 911.4 1571.4 914.295C1564.34 916.853 1561.69 922.859 1563.33 929.328L1567.95 927.655C1567.04 924.169 1567.79 920.078 1572.95 918.209C1578.92 916.044 1583.1 920.189 1585.1 925.696C1587.08 931.165 1586.52 937.025 1580.55 939.189ZM1616.38 895.758L1628.98 922.428L1624.01 924.771L1602.55 910.411L1602.47 910.446L1611.93 930.477L1607.49 932.573L1594.9 905.902L1599.82 903.578L1621.29 917.845L1621.37 917.81L1611.94 897.854L1616.38 895.758ZM1651.64 893.195C1647.3 885.461 1639.25 882.503 1631.49 886.865C1623.75 891.205 1622.05 899.635 1626.39 907.369C1630.73 915.102 1638.79 918.004 1646.53 913.663C1654.3 909.302 1655.98 900.929 1651.64 893.195ZM1630.67 904.966C1627.74 899.75 1627.65 893.845 1633.54 890.534C1639.44 887.222 1644.47 890.362 1647.4 895.577C1650.3 900.757 1650.37 906.683 1644.47 909.994C1638.57 913.305 1633.58 910.146 1630.67 904.966ZM1665.6 901.588L1661.44 904.193L1645.79 879.193L1649.95 876.589L1665.6 901.588ZM1679.3 887.502L1664.93 866.645L1660.89 869.43L1675.26 890.287L1667.52 895.623L1669.88 899.054L1689.45 885.573L1687.08 882.142L1679.3 887.502ZM1695.39 880.978L1691.46 883.923L1673.77 860.328L1677.7 857.383L1695.39 880.978ZM1685.47 861.764C1689.66 866.866 1694.22 864.882 1700.12 862.122L1700.5 861.942C1704.13 860.219 1706.53 859.078 1708.51 861.483C1709.89 863.173 1709.11 865.528 1706.4 867.752C1703.24 870.343 1700.43 870.3 1697.91 867.942L1694.11 871.056C1698.28 875.481 1704.06 875.113 1709.06 871.004C1714.04 866.922 1715.31 862.093 1711.98 858.044C1708.42 853.707 1703.44 855.503 1699.14 857.541C1693.72 860.115 1691.36 861.201 1689.14 858.49C1687.7 856.737 1687.77 854.165 1691.15 851.391C1695.24 848.041 1698.78 848.332 1701.36 851.077L1705.15 847.963C1700.69 842.98 1694.07 843.559 1688.48 848.139C1682.75 852.849 1682.49 858.129 1685.47 861.764ZM1724.24 857.157L1720.58 860.434L1700.89 838.474L1704.55 835.197L1724.24 857.157ZM1716.06 823.536C1710.2 829.277 1710.72 834.708 1715.22 839.308L1728.81 853.195L1732.29 849.791L1718.7 835.904C1715.58 832.719 1715.76 829.717 1719.01 826.543C1722.22 823.399 1725.23 823.286 1728.34 826.47L1741.93 840.357L1745.44 836.924L1731.85 823.037C1727.35 818.438 1721.93 817.795 1716.06 823.536ZM1737.2 824.4C1734.15 821.685 1732.26 818.405 1731.68 815.02L1727.03 815.291L1726.79 811.215L1731.62 810.933C1732.02 808.31 1733.25 805.697 1735.33 803.355C1741.25 796.699 1749.82 796.872 1756.45 802.768C1763.07 808.664 1764.21 817.13 1758.29 823.786C1752.39 830.411 1743.82 830.296 1737.2 824.4ZM1738.47 806.152C1737.16 807.631 1736.4 809.165 1736.08 810.703L1741.73 810.374L1741.97 814.451L1736.34 814.749C1737 816.932 1738.49 818.978 1740.46 820.733C1744.9 824.682 1750.65 826.042 1755.14 820.988C1759.64 815.935 1757.65 810.353 1753.21 806.404C1748.74 802.428 1742.97 801.099 1738.47 806.152ZM1774.18 798.062C1770.85 802.37 1766.83 801.709 1764.15 800.317L1761.15 804.2C1766.34 807.329 1772.87 806.64 1777.43 800.733C1782.63 794.01 1780.79 785.807 1773.77 780.383C1766.72 774.933 1758.32 775.215 1753.12 781.938C1748.53 787.877 1749.51 794.369 1754.36 798.953L1757.36 795.069C1754.72 792.613 1753.17 788.754 1756.53 784.413C1760.41 779.387 1766.16 780.651 1770.79 784.234C1775.4 787.791 1778.07 793.036 1774.18 798.062ZM1772.5 768.355L1779.19 758.337L1774.72 752.477L1777.49 748.326L1795.99 773.725L1793.13 778.013L1762.6 770.625L1765.37 766.474L1772.5 768.355ZM1781.83 761.737L1776.63 769.525L1790.79 773.424L1790.84 773.355L1781.83 761.737ZM1818.94 734.811L1793.06 720.66L1790.71 724.967L1800.7 730.43L1797.23 736.763C1794.86 741.11 1790.44 738.865 1787.41 737.32C1786.09 736.652 1785.04 736.114 1784.51 736.296L1782.04 740.82L1782.29 740.958C1782.68 740.59 1783.87 741.148 1785.46 741.89C1788.79 743.442 1793.84 745.801 1796.81 742.175L1796.88 742.215C1795.98 745.578 1797.07 748.572 1800.69 750.551C1805.4 753.124 1809.99 751.17 1812.9 745.85L1818.94 734.811ZM1804.39 732.448L1812.93 737.119L1809.74 742.946C1808.3 745.588 1806.25 748.042 1802.52 746.003C1798.76 743.945 1799.76 740.917 1801.2 738.275L1804.39 732.448ZM1817.33 710.168L1811.18 723.186L1807.37 721.389L1813.52 708.371L1805.43 704.549L1798.24 719.768L1794.47 717.99L1803.75 698.332L1830.42 710.924L1821.32 730.209L1817.55 728.43L1824.56 713.584L1817.33 710.168ZM1842.94 679.574L1815.45 668.903L1813.72 673.364L1834.56 681.453L1834.53 681.53L1810.87 680.709L1809.45 684.362L1827.47 699.719L1827.44 699.796L1806.6 691.707L1804.87 696.168L1832.36 706.839L1834.66 700.917L1816.48 685.055L1816.51 684.979L1840.64 685.496L1842.94 679.574ZM1820.12 651.647C1822.68 643.112 1830.52 639.648 1839.02 642.194C1847.51 644.74 1852.12 651.933 1849.56 660.468C1847.02 668.964 1839.2 672.479 1830.71 669.933C1822.21 667.387 1817.58 660.142 1820.12 651.647ZM1824.15 652.855C1822.21 659.335 1826.39 663.514 1832.12 665.231C1837.81 666.936 1843.59 665.741 1845.53 659.261C1847.47 652.78 1843.31 648.562 1837.62 646.857C1831.89 645.14 1826.1 646.374 1824.15 652.855ZM1852.86 628.689L1828.16 623.093L1827.08 627.88L1851.78 633.477L1849.7 642.649L1853.76 643.57L1859.01 620.397L1854.95 619.477L1852.86 628.689ZM1849.37 605.838C1846.77 611.808 1844.65 616.312 1838.14 615.249C1833.5 614.492 1830.2 610.36 1831.4 603.032C1832.56 595.907 1837.15 591.097 1843.79 591.888L1843 596.732C1839.25 596.372 1836.4 598.498 1835.55 603.709C1834.85 608.025 1836.49 610.006 1838.73 610.371C1842.19 610.936 1843.24 608.559 1845.6 603.051C1847.49 598.677 1850.04 594.036 1855.58 594.939C1860.75 595.783 1862.99 600.244 1861.95 606.595C1860.91 612.987 1856.82 617.083 1850.76 616.514L1851.55 611.67C1855.01 611.773 1857.14 609.948 1857.8 605.918C1858.37 602.457 1857.4 600.168 1855.24 599.816C1852.17 599.316 1851.12 601.761 1849.54 605.452L1849.37 605.838ZM1834.9 576.669C1834.08 584.836 1837.96 588.668 1844.36 589.312L1863.69 591.256L1864.18 586.413L1844.85 584.469C1840.42 584.023 1838.63 581.604 1839.08 577.09C1839.53 572.616 1841.77 570.602 1846.2 571.048L1865.53 572.992L1866.02 568.108L1846.69 566.164C1840.29 565.52 1835.72 568.501 1834.9 576.669ZM1863.19 550.087C1863.03 555.529 1859.38 557.356 1856.39 557.801L1856.24 562.707C1862.28 562.192 1867.16 557.803 1867.39 550.341C1867.66 541.847 1861.35 536.287 1852.49 536.013C1843.58 535.738 1836.94 540.898 1836.68 549.392C1836.45 556.896 1841.05 561.578 1847.67 562.442L1847.82 557.536C1844.24 557.095 1840.72 554.882 1840.89 549.398C1841.08 543.049 1846.48 540.698 1852.33 540.879C1858.15 541.058 1863.39 543.738 1863.19 550.087Z" fill="url(#paint11_linear_271_641)"/>
<path opacity="0.2" d="M1728.17 537.222C1728.17 694.593 1600.59 822.167 1443.22 822.167C1285.85 822.167 1158.28 694.593 1158.28 537.222C1158.28 379.852 1285.85 252.278 1443.22 252.278C1600.59 252.278 1728.17 379.852 1728.17 537.222Z" stroke="#E3E5E8" stroke-width="2.55556"/>
<path fill-rule="evenodd" clip-rule="evenodd" d="M1586.19 235C1591.2 237.141 1591.57 241.203 1590.9 244.145L1595.41 246.075C1597.13 240.262 1594.83 234.116 1587.96 231.18C1580.15 227.838 1572.67 231.684 1569.18 239.838C1565.68 248.03 1568.06 256.093 1575.88 259.435C1582.78 262.388 1588.82 259.81 1592.03 253.964L1587.52 252.033C1585.81 255.203 1582.46 257.676 1577.42 255.518C1571.58 253.02 1571.36 247.138 1573.66 241.752C1575.95 236.405 1580.35 232.502 1586.19 235ZM1596.33 251.501C1591.98 259.233 1593.64 267.643 1601.41 272.007C1609.14 276.351 1617.23 273.417 1621.57 265.685C1625.92 257.953 1624.2 249.559 1616.47 245.215C1608.7 240.851 1600.67 243.769 1596.33 251.501ZM1617.29 263.281C1614.36 268.495 1609.37 271.653 1603.47 268.339C1597.58 265.025 1597.64 259.1 1600.57 253.885C1603.48 248.707 1608.51 245.569 1614.4 248.883C1620.3 252.197 1620.2 258.102 1617.29 263.281ZM1616.32 279.974L1633.34 255.882L1637.82 259.047L1635.89 284.804L1635.95 284.851L1648.73 266.757L1652.74 269.589L1635.73 293.68L1631.28 290.539L1633.13 264.827L1633.06 264.779L1620.33 282.805L1616.32 279.974ZM1659.17 274.898L1655.22 271.513L1643.65 300.448L1647.69 303.914L1674.53 288.09L1670.59 284.704L1649.18 298.125L1649.15 298.099L1659.17 274.898ZM1671.52 302.375L1681.56 312.692L1678.55 315.626L1668.5 305.309L1662.09 311.552L1673.83 323.613L1670.84 326.519L1655.68 310.94L1676.82 290.37L1691.69 305.653L1688.71 308.559L1677.26 296.793L1671.52 302.375ZM1695.63 310.123L1672.75 328.738L1675.85 332.546L1684.68 325.36L1689.24 330.959C1692.36 334.802 1688.62 338.039 1686.04 340.268C1684.93 341.231 1684.03 342.006 1684 342.56L1687.25 346.56L1687.48 346.378C1687.28 345.883 1688.25 344.988 1689.54 343.796C1692.23 341.302 1696.33 337.511 1694.09 333.393L1694.15 333.341C1696.93 335.444 1700.11 335.566 1703.31 332.962C1707.47 329.578 1707.4 324.585 1703.57 319.882L1695.63 310.123ZM1687.95 322.704L1695.5 316.56L1699.69 321.712C1701.59 324.047 1703.09 326.87 1699.79 329.551C1696.46 332.259 1694.04 330.192 1692.14 327.856L1687.95 322.704ZM1709.16 347.751C1711.34 353.888 1712.88 358.619 1707.4 362.298C1703.5 364.92 1698.26 364.16 1694.13 357.995C1690.1 352.002 1690.16 345.355 1695.55 341.39L1698.28 345.465C1695.3 347.763 1694.68 351.266 1697.62 355.65C1700.06 359.28 1702.61 359.603 1704.49 358.338C1707.4 356.384 1706.55 353.927 1704.5 348.293C1702.89 343.814 1701.58 338.681 1706.24 335.554C1710.58 332.633 1715.27 334.357 1718.86 339.699C1722.47 345.076 1722.28 350.865 1717.48 354.588L1714.74 350.513C1717.33 348.228 1717.64 345.435 1715.36 342.045C1713.41 339.134 1711.14 338.123 1709.33 339.342C1706.74 341.076 1707.65 343.579 1709.02 347.356L1709.16 347.751ZM1729.91 358.666L1727.43 354.429L1701.97 369.322L1704.45 373.559L1729.91 358.666ZM1711.41 388.038C1707.48 380.041 1710.87 372.169 1718.83 368.259C1726.8 364.349 1735.06 366.492 1738.99 374.489C1742.9 382.449 1739.56 390.34 1731.6 394.25C1723.64 398.16 1715.32 395.998 1711.41 388.038ZM1715.19 386.183C1718.17 392.255 1724.07 392.481 1729.44 389.844C1734.77 387.225 1738.2 382.416 1735.22 376.344C1732.23 370.272 1726.31 370.009 1720.98 372.628C1715.61 375.265 1712.2 380.111 1715.19 386.183ZM1746.87 392.89L1719.21 403.138L1720.92 407.741L1741.61 400.073L1741.64 400.15L1725.58 420.312L1727.47 425.417L1755.12 415.17L1753.42 410.567L1732.65 418.263L1732.62 418.186L1748.78 398.035L1746.87 392.89ZM1730.88 437.283L1759.64 430.747L1762.18 441.929C1763.98 449.854 1759.94 455.891 1750.69 457.993C1741.44 460.096 1735.26 456.551 1733.45 448.586L1730.88 437.283ZM1756.67 436.457L1736.03 441.146L1737.43 447.301C1738.89 453.737 1744.09 454.459 1749.6 453.207C1755.11 451.954 1759.53 449.047 1758.07 442.611L1756.67 436.457ZM1743.95 466.492L1745.49 478.439L1738.88 481.7L1739.52 486.65L1767.39 472.173L1766.73 467.059L1736.1 460.056L1736.74 465.007L1743.95 466.492ZM1749.37 476.609L1748.18 467.322L1762.6 470.168L1762.61 470.25L1749.37 476.609ZM1739.74 495.468L1765.05 494.586L1764.72 485.146L1768.89 485.001L1769.71 508.746L1765.55 508.891L1765.22 499.492L1739.91 500.374L1739.74 495.468ZM1746.88 516.834L1746.22 528.86L1739.12 530.863L1738.85 535.847L1768.89 526.689L1769.18 521.54L1740.33 509.076L1740.06 514.059L1746.88 516.834ZM1750.37 527.769L1750.89 518.419L1764.55 523.845L1764.54 523.927L1750.37 527.769Z" fill="url(#paint12_linear_271_641)"/>
<path fill-rule="evenodd" clip-rule="evenodd" d="M1541.49 325.552L1552.29 330.884L1551.35 338.195L1555.82 340.404L1559.19 309.173L1554.57 306.891L1531.78 328.535L1536.26 330.744L1541.49 325.552ZM1552.91 326.638L1544.52 322.493L1554.87 312.055L1554.94 312.091L1552.91 326.638ZM1565.14 347.121C1572.07 351.525 1577.24 349.776 1580.69 344.345L1591.11 327.949L1587.01 325.338L1576.58 341.734C1574.19 345.494 1571.23 346.005 1567.4 343.57C1563.6 341.158 1562.81 338.257 1565.2 334.498L1575.62 318.101L1571.48 315.468L1561.06 331.864C1557.6 337.295 1558.21 342.717 1565.14 347.121ZM1578.27 354.989L1596.83 332.066L1605.75 339.282C1612.06 344.395 1612.62 351.64 1606.65 359.013C1600.68 366.387 1593.63 367.422 1587.28 362.283L1578.27 354.989ZM1598.03 338.393L1584.71 354.84L1589.62 358.811C1594.75 362.964 1599.28 360.317 1602.83 355.925C1606.39 351.532 1608.06 346.517 1602.93 342.364L1598.03 338.393ZM1622.96 354.562L1619.4 351.182L1599.09 372.564L1602.65 375.945L1622.96 354.562ZM1620.66 369.445L1630.36 380.076L1627.26 382.913L1617.55 372.282L1610.94 378.318L1622.29 390.746L1619.21 393.555L1604.55 377.502L1626.33 357.615L1640.71 373.364L1637.64 376.173L1626.57 364.049L1620.66 369.445ZM1644.55 378.023L1620.77 395.462L1623.67 399.421L1641.47 386.372L1641.52 386.438L1631.6 410.232L1634.82 414.623L1658.6 397.184L1655.7 393.226L1637.84 406.323L1637.79 406.257L1647.8 382.447L1644.55 378.023ZM1662.81 424.629C1665.13 422.698 1667.3 419.243 1664.62 414.505C1661.48 408.978 1655.61 409.411 1650.55 412.278C1645.46 415.166 1642.07 419.978 1645.2 425.505C1647.9 430.279 1652.06 430.34 1655.35 428.858L1657.77 433.129C1651.66 435.829 1645.3 434.219 1641.6 427.687C1637.41 420.293 1640.4 412.435 1648.15 408.043C1655.87 403.672 1664.15 405.145 1668.34 412.539C1672.02 419.035 1670.13 425.321 1665.23 428.9L1662.81 424.629ZM1672.49 450.777L1666.8 437.552L1674.15 434.39L1680.64 449.471L1684.47 447.824L1676.04 428.234L1648.95 439.89L1657.54 459.859L1661.36 458.212L1654.71 442.752L1662.94 439.215L1668.62 452.439L1672.49 450.777ZM1679.13 470.605L1682.89 484.501L1678.83 485.6L1675.07 471.705L1666.43 474.044L1670.83 490.289L1666.8 491.378L1661.12 470.395L1689.59 462.686L1695.16 483.271L1691.14 484.36L1686.85 468.513L1679.13 470.605ZM1696.47 489.443L1667.33 493.989L1668.09 498.839L1689.89 495.438L1689.91 495.519L1670.16 512.085L1670.99 517.465L1700.14 512.919L1699.38 508.069L1677.49 511.484L1677.48 511.402L1697.32 494.864L1696.47 489.443ZM1692.21 539.824C1695.69 538.953 1697.69 536.156 1697.53 531.786C1697.3 525.479 1691.6 523.087 1686.08 523.289C1680.51 523.493 1674.98 525.718 1675.23 532.437C1675.4 537.095 1678.75 540.688 1683.45 540.557L1683.14 532.23L1687.1 532.085L1687.59 545.4L1673.91 545.901L1700.62 558.339L1700.2 563.477L1669.91 571.796L1670.32 566.822L1677.47 565.017L1678.47 553.014L1671.72 550.05L1672.11 545.383L1672.01 542.586L1676.01 541.366L1676 541.284C1672.96 539.413 1671.17 536.713 1671.01 532.261C1670.7 523.728 1676.99 518.71 1685.9 518.384C1694.76 518.06 1701.43 523.182 1701.74 531.674C1702.02 539.341 1698.01 543.616 1692.39 544.729L1692.21 539.824ZM1681.65 564.041L1682.42 554.71L1695.93 560.514L1695.92 560.596L1681.65 564.041ZM1685.48 597.493C1689.06 597.451 1691.66 595.193 1692.51 590.905C1693.75 584.716 1688.75 581.07 1683.33 579.988C1677.87 578.898 1671.98 579.782 1670.66 586.376C1669.75 590.947 1672.18 595.217 1676.78 596.178L1678.41 588.007L1682.29 588.782L1679.69 601.848L1664.52 598.82L1665.18 595.503L1669.35 595.243L1669.37 595.162C1666.84 592.639 1665.73 589.598 1666.6 585.229C1668.27 576.855 1675.56 573.43 1684.29 575.174C1692.99 576.91 1698.29 583.436 1696.63 591.769C1695.13 599.293 1690.24 602.523 1684.52 602.307L1685.48 597.493ZM1674.55 623.627L1678.97 609.925L1686.58 612.382L1681.54 628.007L1685.51 629.286L1692.06 608.989L1663.99 599.935L1657.31 620.624L1661.28 621.903L1666.44 605.886L1674.96 608.634L1670.54 622.335L1674.55 623.627ZM1656.16 624.012L1682.91 636.452L1680.23 642.212L1656.18 640.122L1656.14 640.197L1673.25 657.21L1670.57 662.969L1643.83 650.529L1645.85 646.19L1666.12 655.621L1666.15 655.546L1649.17 639.047L1650.82 635.494L1674.38 637.855L1674.42 637.781L1654.15 628.35L1656.16 624.012ZM1647.33 677.428L1654.92 665.191L1661.72 669.406L1653.07 683.361L1656.61 685.556L1667.85 667.428L1642.77 651.893L1631.32 670.371L1634.87 672.566L1643.73 658.26L1651.34 662.975L1643.76 675.212L1647.33 677.428ZM1629.83 672.462L1653.1 690.582L1649.73 694.911L1624.09 691.781L1624.04 691.846L1641.52 705.456L1638.5 709.329L1615.23 691.208L1618.58 686.912L1644.17 689.958L1644.23 689.893L1626.81 676.335L1629.83 672.462ZM1626.72 715.612L1608.56 697.962L1605.14 701.482L1623.3 719.133L1616.75 725.878L1619.73 728.781L1636.29 711.741L1633.3 708.837L1626.72 715.612ZM1589.85 715.833L1607.64 739.359L1598.49 746.275C1592.01 751.176 1584.84 749.974 1579.12 742.407C1573.4 734.839 1574.09 727.749 1580.6 722.824L1589.85 715.833ZM1601.21 738.996L1588.45 722.117L1583.41 725.923C1578.15 729.903 1579.63 734.938 1583.04 739.446C1586.45 743.954 1590.91 746.783 1596.18 742.802L1601.21 738.996ZM1568.76 739.543L1558.41 745.708L1552.79 740.944L1548.5 743.499L1572.88 763.304L1577.31 760.665L1571.53 729.774L1567.25 732.329L1568.76 739.543ZM1561.63 748.541L1569.68 743.748L1572.81 758.111L1572.74 758.153L1561.63 748.541ZM1540.71 746.93L1551.31 769.934L1559.89 765.982L1561.63 769.766L1540.05 779.707L1538.31 775.923L1546.85 771.988L1536.25 748.984L1540.71 746.93ZM1523.91 761.587L1512.5 765.448L1508 759.612L1503.27 761.212L1522.96 785.684L1527.85 784.031L1528.67 752.616L1523.94 754.216L1523.91 761.587ZM1515.06 768.893L1523.93 765.891L1523.98 780.592L1523.9 780.619L1515.06 768.893Z" fill="url(#paint13_linear_271_641)"/>
<path fill-rule="evenodd" clip-rule="evenodd" d="M1614.31 555.305L1615.08 550.332L1584.81 553.082L1584.02 558.219L1605.93 567.7L1605.92 567.781L1582.16 570.245L1581.37 575.34L1609.39 587.143L1610.16 582.17L1588.35 573.705L1588.36 573.624L1611.86 571.204L1612.63 566.231L1590.95 556.869L1590.96 556.787L1614.31 555.305ZM1589.42 605.128L1594.37 591.612L1601.89 594.368L1596.23 609.781L1600.14 611.216L1607.49 591.194L1579.8 581.037L1572.31 601.446L1576.22 602.881L1582.02 587.08L1590.42 590.163L1585.47 603.679L1589.42 605.128ZM1579.78 633.255C1576.63 631.464 1576.21 628.764 1576.7 626.24L1576.63 626.199C1574.63 628.626 1571.36 629.803 1567.52 627.625C1562.57 624.817 1561.95 619.963 1564.96 614.653L1571.56 603.028L1597.21 617.579L1590.96 628.594C1587.97 633.869 1583.91 635.596 1579.78 633.255ZM1584.17 615.825L1580.43 622.427C1578.7 625.477 1579.26 627.317 1581.52 628.599C1583.79 629.881 1585.83 629.194 1587.28 626.647L1591.17 619.793L1584.17 615.825ZM1580.98 614.014L1572.76 609.353L1568.77 616.386C1566.7 620.045 1567.79 622.134 1570.19 623.498C1572.81 624.984 1575.2 624.203 1576.72 621.512L1580.98 614.014ZM1551.16 646.836C1556.28 650.993 1560.35 648.133 1565.58 644.244L1565.91 643.991C1569.12 641.574 1571.25 639.973 1573.67 641.932C1575.36 643.309 1575.06 645.774 1572.86 648.498C1570.28 651.67 1567.52 652.193 1564.58 650.389L1561.49 654.202C1566.46 657.701 1572.05 656.178 1576.12 651.147C1580.18 646.149 1580.45 641.164 1576.38 637.865C1572.02 634.332 1567.5 637.092 1563.69 639.954C1558.91 643.562 1556.81 645.101 1554.09 642.893C1552.32 641.464 1551.88 638.93 1554.64 635.533C1557.96 631.432 1561.5 631.004 1564.57 633.176L1567.66 629.362C1562.29 625.378 1555.92 627.276 1551.37 632.884C1546.69 638.651 1547.5 643.875 1551.16 646.836ZM1563.71 664.017L1560.21 667.458L1539.53 646.423L1543.04 642.982L1563.71 664.017ZM1547.75 672.851L1532.06 652.962L1528.21 656.001L1543.89 675.89L1536.51 681.713L1539.09 684.985L1557.74 670.273L1555.16 667.002L1547.75 672.851ZM1524.6 679.516L1512.04 686.551L1509.99 682.88L1522.55 675.845L1518.17 668.035L1503.49 676.259L1501.45 672.624L1520.42 662.002L1534.83 687.734L1516.22 698.155L1514.19 694.52L1528.51 686.498L1524.6 679.516ZM1491.96 702.979L1484.69 678.718L1479.99 680.127L1487.26 704.389L1478.25 707.088L1479.45 711.079L1502.21 704.259L1501.01 700.268L1491.96 702.979ZM1469.6 682.994L1473.36 712.247L1460.88 713.851C1454.87 714.623 1450.59 712.054 1449.9 706.735C1449.38 702.644 1451.16 700.003 1454.41 698.753L1454.4 698.672C1449.72 698.4 1448.66 692.923 1447.96 689.319C1447.62 687.597 1447.37 686.302 1446.85 686.208L1446.81 685.922L1451.93 685.265C1452.38 685.583 1452.57 686.753 1452.8 688.207C1453.33 691.574 1454.11 696.463 1459.02 695.832L1466.18 694.912L1464.73 683.62L1469.6 682.994ZM1467.96 708.741L1466.72 699.085L1460.13 699.931C1457.15 700.315 1454.11 701.287 1454.66 705.542C1455.2 709.756 1458.39 709.971 1461.37 709.587L1467.96 708.741ZM1428.55 709.159L1440.59 709.614L1442.72 716.671L1447.7 716.859L1438.02 686.978L1432.87 686.784L1420.91 715.847L1425.9 716.035L1428.55 709.159ZM1439.42 705.483L1430.07 705.13L1435.25 691.373L1435.33 691.376L1439.42 705.483ZM1412.85 699.833L1400.36 697.308L1401.19 693.183L1413.69 695.709L1416.17 683.417L1420.98 684.39L1415.14 713.299L1394.92 709.213L1395.75 705.129L1411.15 708.243L1412.85 699.833ZM1377.48 689.518L1389.46 693.863L1386.54 701.929L1371.76 696.572L1370.34 700.489L1389.73 707.519L1399.78 679.791L1395.17 678.118L1390.89 689.907L1378.91 685.563L1377.48 689.518ZM1365.93 697.995L1361.52 695.831L1374.52 669.358L1378.93 671.522L1365.93 697.995ZM1347.7 683.575C1343.14 680.597 1343.48 676.532 1344.65 673.752L1340.54 671.067C1337.84 676.493 1339.04 682.946 1345.29 687.029C1352.41 691.677 1360.44 689.188 1365.29 681.763C1370.16 674.304 1369.21 665.949 1362.1 661.302C1355.82 657.196 1349.42 658.685 1345.24 663.884L1349.35 666.569C1351.59 663.745 1355.31 661.891 1359.9 664.892C1365.22 668.366 1364.42 674.197 1361.21 679.101C1358.03 683.97 1353.02 687.049 1347.7 683.575ZM1343.16 647.806L1321.6 667.938L1313.77 659.557C1308.23 653.619 1308.68 646.367 1315.61 639.891C1322.55 633.415 1329.67 633.366 1335.24 639.335L1343.16 647.806ZM1321.3 661.507L1336.76 647.063L1332.45 642.45C1327.95 637.627 1323.09 639.621 1318.96 643.478C1314.83 647.336 1312.48 652.071 1316.99 656.894L1321.3 661.507ZM1317.99 629.4L1311.38 619.326L1315.9 613.503L1313.17 609.329L1294.42 634.536L1297.25 638.848L1327.86 631.754L1325.13 627.579L1317.99 629.4ZM1308.69 622.669L1313.83 630.5L1299.61 634.244L1299.56 634.175L1308.69 622.669ZM1310.18 602.066L1287 612.267L1290.8 620.913L1286.99 622.591L1277.42 600.843L1281.23 599.165L1285.02 607.774L1308.2 597.573L1310.18 602.066ZM1296.31 585.597L1293.29 573.936L1299.44 569.873L1298.19 565.041L1272.35 582.897L1273.64 587.889L1304.91 590.997L1303.66 586.165L1296.31 585.597ZM1289.67 576.238L1292.02 585.303L1277.35 584.286L1277.33 584.206L1289.67 576.238Z" fill="url(#paint14_linear_271_641)"/>
</g>
</g>
<defs>
<linearGradient id="paint0_linear_271_641" x1="634.513" y1="332.225" x2="2234.29" y2="332.251" gradientUnits="userSpaceOnUse">
<stop stop-color="#E3E5E8"/>
<stop offset="1" stop-color="#E3E5E8" stop-opacity="0.4"/>
</linearGradient>
<linearGradient id="paint1_linear_271_641" x1="1442.4" y1="251.005" x2="2242.29" y2="251.011" gradientUnits="userSpaceOnUse">
<stop stop-color="#E3E5E8"/>
<stop offset="1" stop-color="#E3E5E8" stop-opacity="0.4"/>
</linearGradient>
<linearGradient id="paint2_linear_271_641" x1="1148.18" y1="982.892" x2="1148.18" y2="331.226" gradientUnits="userSpaceOnUse">
<stop stop-color="#E3E5E8"/>
<stop offset="1" stop-color="#E3E5E8" stop-opacity="0.4"/>
</linearGradient>
<linearGradient id="paint3_linear_271_641" x1="651.667" y1="0.000864337" x2="2.25144e-08" y2="-0.00342253" gradientUnits="userSpaceOnUse">
<stop stop-color="#E3E5E8"/>
<stop offset="1" stop-color="#E3E5E8" stop-opacity="0.4"/>
</linearGradient>
<linearGradient id="paint4_linear_271_641" x1="1721" y1="536.999" x2="2234" y2="537.002" gradientUnits="userSpaceOnUse">
<stop stop-color="#E3E5E8"/>
<stop offset="1" stop-color="#E3E5E8" stop-opacity="0.4"/>
</linearGradient>
<linearGradient id="paint5_linear_271_641" x1="2234.29" y1="742.105" x2="634.508" y2="742.08" gradientUnits="userSpaceOnUse">
<stop stop-color="#E3E5E8"/>
<stop offset="1" stop-color="#E3E5E8" stop-opacity="0.4"/>
</linearGradient>
<linearGradient id="paint6_linear_271_641" x1="799.889" y1="0.000864337" x2="4.51723e-08" y2="-0.0055944" gradientUnits="userSpaceOnUse">
<stop stop-color="#E3E5E8"/>
<stop offset="1" stop-color="#E3E5E8" stop-opacity="0.4"/>
</linearGradient>
<linearGradient id="paint7_linear_271_641" x1="1443" y1="422" x2="1443" y2="100" gradientUnits="userSpaceOnUse">
<stop stop-color="#E3E5E8"/>
<stop offset="1" stop-color="#E3E5E8" stop-opacity="0.4"/>
</linearGradient>
<linearGradient id="paint8_linear_271_641" x1="1443" y1="670.335" x2="1443" y2="994.89" gradientUnits="userSpaceOnUse">
<stop stop-color="#E3E5E8"/>
<stop offset="1" stop-color="#E3E5E8" stop-opacity="0.4"/>
</linearGradient>
<linearGradient id="paint9_linear_271_641" x1="1362" y1="475" x2="1551.88" y2="581.936" gradientUnits="userSpaceOnUse">
<stop stop-color="#141F49" stop-opacity="0.54"/>
<stop offset="1" stop-color="#0E142C" stop-opacity="0.23"/>
</linearGradient>
<linearGradient id="paint10_linear_271_641" x1="1522" y1="475.138" x2="1362" y2="475.138" gradientUnits="userSpaceOnUse">
<stop stop-color="#E3E5E8"/>
<stop offset="1" stop-color="#E3E5E8" stop-opacity="0.4"/>
</linearGradient>
<linearGradient id="paint11_linear_271_641" x1="1482.39" y1="1059.83" x2="1522.29" y2="453.733" gradientUnits="userSpaceOnUse">
<stop stop-color="#0B3CFF"/>
<stop offset="1" stop-color="#0B8AFF"/>
</linearGradient>
<linearGradient id="paint12_linear_271_641" x1="1518.82" y1="374.432" x2="1802.28" y2="371.571" gradientUnits="userSpaceOnUse">
<stop stop-color="#0B3CFF"/>
<stop offset="1" stop-color="#0B8AFF"/>
</linearGradient>
<linearGradient id="paint13_linear_271_641" x1="1421.78" y1="585.433" x2="1685.34" y2="646.384" gradientUnits="userSpaceOnUse">
<stop stop-color="#0B3CFF"/>
<stop offset="1" stop-color="#0B8AFF"/>
</linearGradient>
<linearGradient id="paint14_linear_271_641" x1="1382.77" y1="541.558" x2="1404.12" y2="720.543" gradientUnits="userSpaceOnUse">
<stop stop-color="#0B3CFF"/>
<stop offset="1" stop-color="#0B8AFF"/>
</linearGradient>
<clipPath id="clip0_271_641">
<rect width="1920" height="1080" fill="white"/>
</clipPath>
<clipPath id="clip1_271_641">
<rect width="1599" height="874" fill="white" transform="translate(635 103)"/>
</clipPath>
</defs>
</svg>
