<svg width="1920" height="1080" viewBox="0 0 1920 1080" fill="none" xmlns="http://www.w3.org/2000/svg">
<rect width="1920" height="1080" fill="#090A0B"/>
<g clip-path="url(#clip0_274_1920)">
<path opacity="0.2" d="M490.061 897.939C489.475 897.354 488.525 897.354 487.939 897.939L478.393 907.485C477.808 908.071 477.808 909.021 478.393 909.607C478.979 910.192 479.929 910.192 480.515 909.607L489 901.121L497.485 909.607C498.071 910.192 499.021 910.192 499.607 909.607C500.192 909.021 500.192 908.071 499.607 907.485L490.061 897.939ZM487.5 899L487.5 1251L490.5 1251L490.5 899L487.5 899Z" fill="url(#paint0_linear_274_1920)"/>
<path opacity="0.2" d="M420 976L420 1180" stroke="url(#paint1_linear_274_1920)" stroke-width="3"/>
<path opacity="0.2" d="M164 1005L164 1209" stroke="url(#paint2_linear_274_1920)" stroke-width="3"/>
<path opacity="0.2" d="M1470.34 871.939C1469.75 871.354 1468.8 871.354 1468.22 871.939L1458.67 881.485C1458.09 882.071 1458.09 883.021 1458.67 883.607C1459.26 884.192 1460.21 884.192 1460.79 883.607L1469.28 875.121L1477.76 883.607C1478.35 884.192 1479.3 884.192 1479.88 883.607C1480.47 883.021 1480.47 882.071 1479.88 881.485L1470.34 871.939ZM1467.78 873L1467.78 1228L1470.78 1228L1470.78 873L1467.78 873Z" fill="url(#paint3_linear_274_1920)"/>
<path opacity="0.2" d="M1548.94 807.939C1548.35 808.525 1548.35 809.475 1548.94 810.061L1558.49 819.607C1559.07 820.192 1560.02 820.192 1560.61 819.607C1561.19 819.021 1561.19 818.071 1560.61 817.485L1552.12 809L1560.61 800.515C1561.19 799.929 1561.19 798.979 1560.61 798.393C1560.02 797.808 1559.07 797.808 1558.49 798.393L1548.94 807.939ZM2063 807.5L1550 807.5L1550 810.5L2063 810.5L2063 807.5Z" fill="url(#paint4_linear_274_1920)"/>
<line opacity="0.2" x1="1138.5" y1="1281" x2="1138.5" y2="810" stroke="url(#paint5_linear_274_1920)" stroke-width="3"/>
<line opacity="0.2" x1="418" y1="977.5" x2="1948" y2="977.5" stroke="url(#paint6_linear_274_1920)" stroke-width="3"/>
<path opacity="0.2" d="M1038.94 810.939C1038.35 811.525 1038.35 812.475 1038.94 813.061L1048.49 822.607C1049.07 823.192 1050.02 823.192 1050.61 822.607C1051.19 822.021 1051.19 821.071 1050.61 820.485L1042.12 812L1050.61 803.515C1051.19 802.929 1051.19 801.979 1050.61 801.393C1050.02 800.808 1049.07 800.808 1048.49 801.393L1038.94 810.939ZM1040 813.5L1140 813.5L1140 810.5L1040 810.5L1040 813.5Z" fill="url(#paint7_linear_274_1920)"/>
<path opacity="0.2" d="M418.061 836.061C418.646 835.475 418.646 834.525 418.061 833.939L408.515 824.393C407.929 823.808 406.979 823.808 406.393 824.393C405.808 824.979 405.808 825.929 406.393 826.515L414.879 835L406.393 843.485C405.808 844.071 405.808 845.021 406.393 845.607C406.979 846.192 407.929 846.192 408.515 845.607L418.061 836.061ZM-95 836.5L417 836.5L417 833.5L-95 833.5L-95 836.5Z" fill="url(#paint8_linear_274_1920)"/>
<line opacity="0.2" y1="-1.5" x2="799.889" y2="-1.5" transform="matrix(1 8.74228e-08 8.74228e-08 -1 162 1005.33)" stroke="url(#paint9_linear_274_1920)" stroke-width="3"/>
<path opacity="0.2" d="M962.061 882.939C961.475 882.354 960.525 882.354 959.939 882.939L950.393 892.485C949.808 893.071 949.808 894.021 950.393 894.607C950.979 895.192 951.929 895.192 952.515 894.607L961 886.121L969.485 894.607C970.071 895.192 971.021 895.192 971.607 894.607C972.192 894.021 972.192 893.071 971.607 892.485L962.061 882.939ZM959.5 884L959.5 1008L962.5 1008L962.5 884L959.5 884Z" fill="url(#paint10_linear_274_1920)"/>
<rect x="912.16" y="772.16" width="95.68" height="79.68" rx="7.84" fill="#090A0B"/>
<rect x="912.16" y="772.16" width="95.68" height="79.68" rx="7.84" stroke="url(#paint11_radial_274_1920)" stroke-width="0.32"/>
<rect x="928" y="784" width="64" height="56" rx="8" fill="url(#paint12_linear_274_1920)"/>
<path d="M952.424 802.648H956.232L959.944 808.408H960.008L963.72 802.648H967.528L962.024 810.648L968.136 819H964.232L960.008 812.856H959.944L955.784 819H951.848L957.96 810.648L952.424 802.648Z" fill="#3F65FD"/>
<rect x="1421.16" y="769.16" width="95.68" height="79.68" rx="7.84" fill="#090A0B"/>
<rect x="1421.16" y="769.16" width="95.68" height="79.68" rx="7.84" stroke="url(#paint13_radial_274_1920)" stroke-width="0.32"/>
<rect x="1437" y="781" width="64" height="56" rx="8" fill="url(#paint14_linear_274_1920)"/>
<path d="M1461.42 799.648H1465.23L1468.94 805.408H1469.01L1472.72 799.648H1476.53L1471.02 807.648L1477.14 816H1473.23L1469.01 809.856H1468.94L1464.78 816H1460.85L1466.96 807.648L1461.42 799.648Z" fill="#3F65FD"/>
<rect x="441.16" y="795.16" width="95.68" height="79.68" rx="7.84" fill="#090A0B"/>
<rect x="441.16" y="795.16" width="95.68" height="79.68" rx="7.84" stroke="url(#paint15_radial_274_1920)" stroke-width="0.32"/>
<rect x="457" y="807" width="64" height="56" rx="8" fill="url(#paint16_linear_274_1920)"/>
<path d="M481.424 825.648H485.232L488.944 831.408H489.008L492.72 825.648H496.528L491.024 833.648L497.136 842H493.232L489.008 835.856H488.944L484.784 842H480.848L486.96 833.648L481.424 825.648Z" fill="#3F65FD"/>
</g>
<g clip-path="url(#clip1_274_1920)">
<path opacity="0.2" d="M1432 181L1432 -171" stroke="url(#paint17_linear_274_1920)" stroke-width="3"/>
<path opacity="0.2" d="M1501 104L1501 -100" stroke="url(#paint18_linear_274_1920)" stroke-width="3"/>
<path opacity="0.2" d="M1757 75L1757 -129" stroke="url(#paint19_linear_274_1920)" stroke-width="3"/>
<path opacity="0.2" d="M452 134L452 -148" stroke="url(#paint20_linear_274_1920)" stroke-width="3"/>
<path opacity="0.2" d="M-142 271H78" stroke="url(#paint21_linear_274_1920)" stroke-width="3"/>
<line opacity="0.2" x1="779.5" y1="196" x2="779.5" y2="-201" stroke="url(#paint22_linear_274_1920)" stroke-width="3"/>
<line opacity="0.2" x1="1503" y1="102.5" x2="-27" y2="102.5" stroke="url(#paint23_linear_274_1920)" stroke-width="3"/>
<path opacity="0.2" d="M2016 245L1825 245" stroke="url(#paint24_linear_274_1920)" stroke-width="3"/>
<line opacity="0.2" y1="-1.5" x2="799.889" y2="-1.5" transform="matrix(-1 -8.74228e-08 -8.74228e-08 1 1759 74.6699)" stroke="url(#paint25_linear_274_1920)" stroke-width="3"/>
<path opacity="0.2" d="M958.939 197.061C959.525 197.646 960.475 197.646 961.061 197.061L970.607 187.515C971.192 186.929 971.192 185.979 970.607 185.393C970.021 184.808 969.071 184.808 968.485 185.393L960 193.879L951.515 185.393C950.929 184.808 949.979 184.808 949.393 185.393C948.808 185.979 948.808 186.929 949.393 187.515L958.939 197.061ZM961.5 196L961.5 72L958.5 72L958.5 196L961.5 196Z" fill="url(#paint26_linear_274_1920)"/>
</g>
<path d="M690.088 517V455.6H667.188V445.5H724.788V455.6H701.988V517H690.088ZM757.109 464.5C766.809 464.5 774.309 470 774.309 481.7V517H763.709V484.7C763.709 477.8 760.809 473.4 753.509 473.4C745.809 473.4 740.309 478.3 740.309 485.9V517H729.809V445.5H740.309V472.5H740.509C743.209 468.5 748.509 464.5 757.109 464.5ZM804.51 509.9C813.21 509.9 816.71 504.5 817.61 501.4H828.11C825.51 511.1 817.91 518.5 804.81 518.5C788.91 518.5 779.21 507.5 779.21 491.5C779.21 474.9 788.91 464.5 804.31 464.5C820.81 464.5 828.91 476 828.91 494.2H789.71C789.71 502.8 795.21 509.9 804.51 509.9ZM804.31 472.8C795.81 472.8 789.71 478.5 789.71 486.4H818.41C818.41 478.5 812.81 472.8 804.31 472.8ZM906.152 463.5C906.152 472.3 900.952 476.4 895.052 478.4V478.6C902.552 479.9 908.952 485.4 908.952 496.1C908.952 509.9 899.452 517 884.652 517H852.252V445.5H882.952C897.652 445.5 906.152 452 906.152 463.5ZM864.152 475.1H882.552C891.052 475.1 894.252 471.7 894.252 465.4C894.252 459.1 890.352 455.6 883.252 455.6H864.152V475.1ZM864.152 484V506.9H883.752C893.952 506.9 897.052 502.1 897.052 495.4C897.052 488.1 892.552 484 885.052 484H864.152ZM937.084 509.9C945.784 509.9 949.284 504.5 950.184 501.4H960.684C958.084 511.1 950.484 518.5 937.384 518.5C921.484 518.5 911.784 507.5 911.784 491.5C911.784 474.9 921.484 464.5 936.884 464.5C953.384 464.5 961.484 476 961.484 494.2H922.284C922.284 502.8 927.784 509.9 937.084 509.9ZM936.884 472.8C928.384 472.8 922.284 478.5 922.284 486.4H950.984C950.984 478.5 945.384 472.8 936.884 472.8ZM988.784 486.1C998.184 488.3 1008.38 490.4 1008.38 502.6C1008.38 512.4 999.984 518.5 987.584 518.5C971.084 518.5 963.984 510.8 963.484 500H973.684C974.184 505.5 976.584 510.2 987.384 510.2C994.684 510.2 997.784 506.6 997.784 503.4C997.784 497 991.684 496.5 984.184 494.7C976.084 492.8 965.084 491.2 965.084 479.6C965.084 471.2 972.484 464.5 985.284 464.5C999.184 464.5 1005.78 472 1006.48 480.9H996.284C995.584 476.9 993.584 472.8 985.384 472.8C979.084 472.8 975.684 475.2 975.684 478.8C975.684 484 981.384 484.4 988.784 486.1ZM1036.64 474.5H1027.04V502.2C1027.04 508 1029.84 508.7 1036.64 508.3V516.9C1034.54 517.4 1032.24 517.7 1029.44 517.7C1021.04 517.7 1016.44 513.9 1016.44 503.1V474.5H1009.04V465.9H1016.44V449.8H1027.04V465.9H1036.64V474.5ZM1059.32 445.5H1069.82V486.4L1090.62 465.9H1103.52L1084.12 484.9L1105.62 517H1093.02L1076.92 491.8L1069.82 498.5V517H1059.32V445.5ZM1127.77 509.9C1136.47 509.9 1139.97 504.5 1140.87 501.4H1151.37C1148.77 511.1 1141.17 518.5 1128.07 518.5C1112.17 518.5 1102.47 507.5 1102.47 491.5C1102.47 474.9 1112.17 464.5 1127.57 464.5C1144.07 464.5 1152.17 476 1152.17 494.2H1112.97C1112.97 502.8 1118.47 509.9 1127.77 509.9ZM1127.57 472.8C1119.07 472.8 1112.97 478.5 1112.97 486.4H1141.67C1141.67 478.5 1136.07 472.8 1127.57 472.8ZM1183.87 464.5C1196.87 464.5 1206.57 474.7 1206.57 491.5C1206.57 508.3 1196.87 518.5 1183.87 518.5C1175.87 518.5 1170.87 514.7 1168.17 510.9H1167.97V534.4H1157.37V465.9H1167.97V471.9H1168.17C1170.87 468.3 1175.87 464.5 1183.87 464.5ZM1181.87 509.9C1191.07 509.9 1195.97 501.5 1195.97 491.5C1195.97 481.5 1191.07 473.1 1181.87 473.1C1173.37 473.1 1168.07 480.1 1168.07 491.5C1168.07 502.8 1173.37 509.9 1181.87 509.9ZM1235.14 474.5H1225.54V502.2C1225.54 508 1228.34 508.7 1235.14 508.3V516.9C1233.04 517.4 1230.74 517.7 1227.94 517.7C1219.54 517.7 1214.94 513.9 1214.94 503.1V474.5H1207.54V465.9H1214.94V449.8H1225.54V465.9H1235.14V474.5Z" fill="white"/>
<path d="M469.862 637V565.5H497.662C517.362 565.5 529.462 578.3 529.462 601.3C529.462 624.3 517.762 637 497.962 637H469.862ZM481.762 575.6V626.9H497.062C513.062 626.9 517.562 615 517.562 601.3C517.562 587.6 513.062 575.6 497.062 575.6H481.762ZM541.802 577.3C538.902 577.3 535.902 575.3 535.902 571.7C535.902 568.1 538.902 566.2 541.802 566.2C544.902 566.2 547.802 568.1 547.802 571.7C547.802 575.3 544.902 577.3 541.802 577.3ZM536.602 585.9H547.102V637H536.602V585.9ZM591.177 585.9H601.677V633.5C601.677 648.2 592.777 654.7 578.277 654.7C563.577 654.7 555.477 647 554.377 638.4H564.977C565.977 642.9 569.577 646.3 577.877 646.3C586.677 646.3 591.177 642.3 591.177 633.1V626.9H590.977C588.277 630.7 583.577 634.5 575.477 634.5C562.677 634.5 553.077 625.6 553.077 609.5C553.077 593.3 562.677 584.5 575.477 584.5C583.577 584.5 588.277 588.3 590.977 591.9H591.177V585.9ZM577.477 625.9C585.977 625.9 591.077 620.3 591.077 609.5C591.077 598.7 585.977 593.1 577.477 593.1C568.277 593.1 563.577 600 563.577 609.5C563.577 618.9 568.277 625.9 577.477 625.9ZM615.537 577.3C612.637 577.3 609.637 575.3 609.637 571.7C609.637 568.1 612.637 566.2 615.537 566.2C618.637 566.2 621.537 568.1 621.537 571.7C621.537 575.3 618.637 577.3 615.537 577.3ZM610.337 585.9H620.837V637H610.337V585.9ZM653.912 594.5H644.312V622.2C644.312 628 647.112 628.7 653.912 628.3V636.9C651.812 637.4 649.512 637.7 646.712 637.7C638.312 637.7 633.712 633.9 633.712 623.1V594.5H626.312V585.9H633.712V569.8H644.312V585.9H653.912V594.5ZM690.736 599.3C690.736 595.6 688.536 592.8 681.536 592.8C673.136 592.8 670.036 595.4 669.536 602H659.336C659.836 592.2 666.136 584.5 681.536 584.5C692.836 584.5 701.236 588.8 701.236 602.4V626.7C701.236 630.3 702.036 632.2 706.136 631.8V636.8C703.736 637.7 702.036 637.9 700.036 637.9C694.436 637.9 691.836 635.9 690.836 630.9H690.636C687.436 635.4 681.636 638.5 673.736 638.5C663.336 638.5 656.936 632.5 656.936 623.9C656.936 612.7 665.236 609.2 678.036 606.7C685.936 605.2 690.736 604.2 690.736 599.3ZM676.036 630.2C684.736 630.2 690.736 625.9 690.736 617.6V609.9C689.036 611.1 684.936 612.3 680.036 613.3C671.336 615.2 667.536 617.7 667.536 622.9C667.536 627.6 670.336 630.2 676.036 630.2ZM710.477 565.5H721.077V637H710.477V565.5ZM747.416 637V565.5H762.816L782.816 620.5H783.016L802.916 565.5H818.316V637H806.716V582.8H806.516L787.616 637H778.116L759.216 582.8H759.016V637H747.416ZM858.517 599.3C858.517 595.6 856.317 592.8 849.317 592.8C840.917 592.8 837.817 595.4 837.317 602H827.117C827.617 592.2 833.917 584.5 849.317 584.5C860.617 584.5 869.017 588.8 869.017 602.4V626.7C869.017 630.3 869.817 632.2 873.917 631.8V636.8C871.517 637.7 869.817 637.9 867.817 637.9C862.217 637.9 859.617 635.9 858.617 630.9H858.417C855.217 635.4 849.417 638.5 841.517 638.5C831.117 638.5 824.717 632.5 824.717 623.9C824.717 612.7 833.017 609.2 845.817 606.7C853.717 605.2 858.517 604.2 858.517 599.3ZM843.817 630.2C852.517 630.2 858.517 625.9 858.517 617.6V609.9C856.817 611.1 852.717 612.3 847.817 613.3C839.117 615.2 835.317 617.7 835.317 622.9C835.317 627.6 838.117 630.2 843.817 630.2ZM902.359 584.7C904.159 584.7 905.459 584.8 906.959 585V594.9H906.759C896.659 593.2 888.559 600 888.559 610.9V637H878.059V585.9H888.559V595.5H888.759C891.459 589.1 895.659 584.7 902.359 584.7ZM911.703 565.5H922.203V606.4L943.003 585.9H955.903L936.503 604.9L958.003 637H945.403L929.303 611.8L922.203 618.5V637H911.703V565.5ZM980.155 629.9C988.855 629.9 992.355 624.5 993.255 621.4H1003.75C1001.15 631.1 993.555 638.5 980.455 638.5C964.555 638.5 954.855 627.5 954.855 611.5C954.855 594.9 964.555 584.5 979.955 584.5C996.455 584.5 1004.55 596 1004.55 614.2H965.355C965.355 622.8 970.855 629.9 980.155 629.9ZM979.955 592.8C971.455 592.8 965.355 598.5 965.355 606.4H994.055C994.055 598.5 988.455 592.8 979.955 592.8ZM1033.18 594.5H1023.58V622.2C1023.58 628 1026.38 628.7 1033.18 628.3V636.9C1031.08 637.4 1028.78 637.7 1025.98 637.7C1017.58 637.7 1012.98 633.9 1012.98 623.1V594.5H1005.58V585.9H1012.98V569.8H1023.58V585.9H1033.18V594.5ZM1044.71 577.3C1041.81 577.3 1038.81 575.3 1038.81 571.7C1038.81 568.1 1041.81 566.2 1044.71 566.2C1047.81 566.2 1050.71 568.1 1050.71 571.7C1050.71 575.3 1047.81 577.3 1044.71 577.3ZM1039.51 585.9H1050.01V637H1039.51V585.9ZM1086.18 584.5C1095.68 584.5 1103.18 590 1103.18 601.7V637H1092.58V604.7C1092.58 597.8 1089.68 593.4 1082.48 593.4C1074.38 593.4 1069.18 598.3 1069.18 605.9V637H1058.68V585.9H1069.18V592.5H1069.38C1072.08 588.5 1077.38 584.5 1086.18 584.5ZM1146.19 585.9H1156.69V633.5C1156.69 648.2 1147.79 654.7 1133.29 654.7C1118.59 654.7 1110.49 647 1109.39 638.4H1119.99C1120.99 642.9 1124.59 646.3 1132.89 646.3C1141.69 646.3 1146.19 642.3 1146.19 633.1V626.9H1145.99C1143.29 630.7 1138.59 634.5 1130.49 634.5C1117.69 634.5 1108.09 625.6 1108.09 609.5C1108.09 593.3 1117.69 584.5 1130.49 584.5C1138.59 584.5 1143.29 588.3 1145.99 591.9H1146.19V585.9ZM1132.49 625.9C1140.99 625.9 1146.09 620.3 1146.09 609.5C1146.09 598.7 1140.99 593.1 1132.49 593.1C1123.29 593.1 1118.59 600 1118.59 609.5C1118.59 618.9 1123.29 625.9 1132.49 625.9ZM1209.89 594.4C1225.19 598.3 1236.79 601.6 1236.79 617.6C1236.79 629 1228.19 638.5 1210.19 638.5C1192.69 638.5 1179.39 629.4 1178.69 613.2H1190.59C1191.19 622.3 1197.39 628.3 1210.19 628.3C1220.79 628.3 1224.89 623.6 1224.89 618.1C1224.89 609.6 1218.79 608 1204.69 604.5C1193.49 601.7 1181.39 597.4 1181.39 583.8C1181.39 571.1 1191.19 564 1206.79 564C1222.49 564 1233.89 572.2 1234.89 586.9H1222.99C1221.89 578.6 1216.69 574.2 1206.79 574.2C1198.29 574.2 1193.19 577.4 1193.19 582.7C1193.19 590.5 1199.89 591.9 1209.89 594.4ZM1265.76 629.9C1274.46 629.9 1277.96 624.5 1278.86 621.4H1289.36C1286.76 631.1 1279.16 638.5 1266.06 638.5C1250.16 638.5 1240.46 627.5 1240.46 611.5C1240.46 594.9 1250.16 584.5 1265.56 584.5C1282.06 584.5 1290.16 596 1290.16 614.2H1250.96C1250.96 622.8 1256.46 629.9 1265.76 629.9ZM1265.56 592.8C1257.06 592.8 1250.96 598.5 1250.96 606.4H1279.66C1279.66 598.5 1274.06 592.8 1265.56 592.8ZM1330.56 604.6C1330.16 599.4 1326.86 593.1 1317.86 593.1C1307.56 593.1 1303.16 601.9 1303.16 611.5C1303.16 621.1 1307.46 629.9 1317.86 629.9C1326.86 629.9 1330.16 623.7 1330.56 618H1341.06C1340.26 629.8 1331.16 638.5 1317.86 638.5C1302.56 638.5 1292.66 627.5 1292.66 611.5C1292.66 595.5 1302.56 584.5 1317.76 584.5C1331.06 584.5 1339.76 593 1341.06 604.6H1330.56ZM1370.3 584.7C1372.1 584.7 1373.4 584.8 1374.9 585V594.9H1374.7C1364.6 593.2 1356.5 600 1356.5 610.9V637H1346V585.9H1356.5V595.5H1356.7C1359.4 589.1 1363.6 584.7 1370.3 584.7ZM1400.58 629.9C1409.28 629.9 1412.78 624.5 1413.68 621.4H1424.18C1421.58 631.1 1413.98 638.5 1400.88 638.5C1384.98 638.5 1375.28 627.5 1375.28 611.5C1375.28 594.9 1384.98 584.5 1400.38 584.5C1416.88 584.5 1424.98 596 1424.98 614.2H1385.78C1385.78 622.8 1391.28 629.9 1400.58 629.9ZM1400.38 592.8C1391.88 592.8 1385.78 598.5 1385.78 606.4H1414.48C1414.48 598.5 1408.88 592.8 1400.38 592.8ZM1453.61 594.5H1444.01V622.2C1444.01 628 1446.81 628.7 1453.61 628.3V636.9C1451.51 637.4 1449.21 637.7 1446.41 637.7C1438.01 637.7 1433.41 633.9 1433.41 623.1V594.5H1426.01V585.9H1433.41V569.8H1444.01V585.9H1453.61V594.5Z" fill="url(#paint27_linear_274_1920)"/>
<defs>
<linearGradient id="paint0_linear_274_1920" x1="487.72" y1="1251" x2="487.721" y2="899" gradientUnits="userSpaceOnUse">
<stop stop-color="#E3E5E8"/>
<stop offset="1" stop-color="#E3E5E8" stop-opacity="0.4"/>
</linearGradient>
<linearGradient id="paint1_linear_274_1920" x1="418.72" y1="1180" x2="418.72" y2="976" gradientUnits="userSpaceOnUse">
<stop stop-color="#E3E5E8"/>
<stop offset="1" stop-color="#E3E5E8" stop-opacity="0.4"/>
</linearGradient>
<linearGradient id="paint2_linear_274_1920" x1="162.72" y1="1209" x2="162.72" y2="1005" gradientUnits="userSpaceOnUse">
<stop stop-color="#E3E5E8"/>
<stop offset="1" stop-color="#E3E5E8" stop-opacity="0.4"/>
</linearGradient>
<linearGradient id="paint3_linear_274_1920" x1="1468" y1="1228" x2="1468" y2="873" gradientUnits="userSpaceOnUse">
<stop stop-color="#E3E5E8"/>
<stop offset="1" stop-color="#E3E5E8" stop-opacity="0.4"/>
</linearGradient>
<linearGradient id="paint4_linear_274_1920" x1="1550" y1="807.72" x2="2063" y2="807.723" gradientUnits="userSpaceOnUse">
<stop stop-color="#E3E5E8"/>
<stop offset="1" stop-color="#E3E5E8" stop-opacity="0.4"/>
</linearGradient>
<linearGradient id="paint5_linear_274_1920" x1="1140" y1="810" x2="1140" y2="1281" gradientUnits="userSpaceOnUse">
<stop stop-color="#E3E5E8"/>
<stop offset="1" stop-color="#E3E5E8" stop-opacity="0.4"/>
</linearGradient>
<linearGradient id="paint6_linear_274_1920" x1="1948" y1="979.001" x2="418" y2="978.977" gradientUnits="userSpaceOnUse">
<stop stop-color="#E3E5E8"/>
<stop offset="1" stop-color="#E3E5E8" stop-opacity="0.4"/>
</linearGradient>
<linearGradient id="paint7_linear_274_1920" x1="1140" y1="812.001" x2="1040" y2="812.001" gradientUnits="userSpaceOnUse">
<stop stop-color="#E3E5E8"/>
<stop offset="1" stop-color="#E3E5E8" stop-opacity="0.4"/>
</linearGradient>
<linearGradient id="paint8_linear_274_1920" x1="417" y1="835.001" x2="-95" y2="834.998" gradientUnits="userSpaceOnUse">
<stop stop-color="#E3E5E8"/>
<stop offset="1" stop-color="#E3E5E8" stop-opacity="0.4"/>
</linearGradient>
<linearGradient id="paint9_linear_274_1920" x1="799.889" y1="0.000864337" x2="4.51723e-08" y2="-0.0055944" gradientUnits="userSpaceOnUse">
<stop stop-color="#E3E5E8"/>
<stop offset="1" stop-color="#E3E5E8" stop-opacity="0.4"/>
</linearGradient>
<linearGradient id="paint10_linear_274_1920" x1="959.72" y1="1008" x2="959.72" y2="884" gradientUnits="userSpaceOnUse">
<stop stop-color="#E3E5E8"/>
<stop offset="1" stop-color="#E3E5E8" stop-opacity="0.4"/>
</linearGradient>
<radialGradient id="paint11_radial_274_1920" cx="0" cy="0" r="1" gradientUnits="userSpaceOnUse" gradientTransform="translate(960 772) rotate(90) scale(34.7143 41.6571)">
<stop stop-color="#BEC9E7" stop-opacity="0.61"/>
<stop offset="1" stop-color="#2962FF" stop-opacity="0"/>
</radialGradient>
<linearGradient id="paint12_linear_274_1920" x1="948.4" y1="784" x2="963.421" y2="839.067" gradientUnits="userSpaceOnUse">
<stop stop-color="#0B3CFF" stop-opacity="0.16"/>
<stop offset="1" stop-color="#0B8AFF" stop-opacity="0"/>
</linearGradient>
<radialGradient id="paint13_radial_274_1920" cx="0" cy="0" r="1" gradientUnits="userSpaceOnUse" gradientTransform="translate(1469 769) rotate(90) scale(34.7143 41.6571)">
<stop stop-color="#BEC9E7" stop-opacity="0.61"/>
<stop offset="1" stop-color="#2962FF" stop-opacity="0"/>
</radialGradient>
<linearGradient id="paint14_linear_274_1920" x1="1457.4" y1="781" x2="1472.42" y2="836.067" gradientUnits="userSpaceOnUse">
<stop stop-color="#0B3CFF" stop-opacity="0.16"/>
<stop offset="1" stop-color="#0B8AFF" stop-opacity="0"/>
</linearGradient>
<radialGradient id="paint15_radial_274_1920" cx="0" cy="0" r="1" gradientUnits="userSpaceOnUse" gradientTransform="translate(489 795) rotate(90) scale(34.7143 41.6571)">
<stop stop-color="#BEC9E7" stop-opacity="0.61"/>
<stop offset="1" stop-color="#2962FF" stop-opacity="0"/>
</radialGradient>
<linearGradient id="paint16_linear_274_1920" x1="477.4" y1="807" x2="492.421" y2="862.067" gradientUnits="userSpaceOnUse">
<stop stop-color="#0B3CFF" stop-opacity="0.16"/>
<stop offset="1" stop-color="#0B8AFF" stop-opacity="0"/>
</linearGradient>
<linearGradient id="paint17_linear_274_1920" x1="1433.28" y1="-171" x2="1433.28" y2="181" gradientUnits="userSpaceOnUse">
<stop stop-color="#E3E5E8"/>
<stop offset="1" stop-color="#E3E5E8" stop-opacity="0.4"/>
</linearGradient>
<linearGradient id="paint18_linear_274_1920" x1="1502.28" y1="-100" x2="1502.28" y2="104" gradientUnits="userSpaceOnUse">
<stop stop-color="#E3E5E8"/>
<stop offset="1" stop-color="#E3E5E8" stop-opacity="0.4"/>
</linearGradient>
<linearGradient id="paint19_linear_274_1920" x1="1758.28" y1="-129" x2="1758.28" y2="75" gradientUnits="userSpaceOnUse">
<stop stop-color="#E3E5E8"/>
<stop offset="1" stop-color="#E3E5E8" stop-opacity="0.4"/>
</linearGradient>
<linearGradient id="paint20_linear_274_1920" x1="450.72" y1="-148" x2="450.721" y2="134" gradientUnits="userSpaceOnUse">
<stop stop-color="#E3E5E8"/>
<stop offset="1" stop-color="#E3E5E8" stop-opacity="0.4"/>
</linearGradient>
<linearGradient id="paint21_linear_274_1920" x1="78" y1="272.28" x2="-142" y2="272.28" gradientUnits="userSpaceOnUse">
<stop stop-color="#E3E5E8"/>
<stop offset="1" stop-color="#E3E5E8" stop-opacity="0.4"/>
</linearGradient>
<linearGradient id="paint22_linear_274_1920" x1="782.28" y1="-201" x2="782.279" y2="196" gradientUnits="userSpaceOnUse">
<stop stop-color="#E3E5E8"/>
<stop offset="1" stop-color="#E3E5E8" stop-opacity="0.4"/>
</linearGradient>
<linearGradient id="paint23_linear_274_1920" x1="-27" y1="100.999" x2="1503" y2="101.023" gradientUnits="userSpaceOnUse">
<stop stop-color="#E3E5E8"/>
<stop offset="1" stop-color="#E3E5E8" stop-opacity="0.4"/>
</linearGradient>
<linearGradient id="paint24_linear_274_1920" x1="1825" y1="244.999" x2="2016" y2="245" gradientUnits="userSpaceOnUse">
<stop stop-color="#E3E5E8"/>
<stop offset="1" stop-color="#E3E5E8" stop-opacity="0.4"/>
</linearGradient>
<linearGradient id="paint25_linear_274_1920" x1="799.889" y1="0.000864337" x2="4.51723e-08" y2="-0.0055944" gradientUnits="userSpaceOnUse">
<stop stop-color="#E3E5E8"/>
<stop offset="1" stop-color="#E3E5E8" stop-opacity="0.4"/>
</linearGradient>
<linearGradient id="paint26_linear_274_1920" x1="961.28" y1="72" x2="961.28" y2="196" gradientUnits="userSpaceOnUse">
<stop stop-color="#E3E5E8"/>
<stop offset="1" stop-color="#E3E5E8" stop-opacity="0.4"/>
</linearGradient>
<linearGradient id="paint27_linear_274_1920" x1="1397.53" y1="433.998" x2="1043.98" y2="903.356" gradientUnits="userSpaceOnUse">
<stop stop-color="#0B3CFF"/>
<stop offset="1" stop-color="#3F65FD"/>
</linearGradient>
<clipPath id="clip0_274_1920">
<rect width="1919" height="526" fill="white" transform="translate(1 554)"/>
</clipPath>
<clipPath id="clip1_274_1920">
<rect width="1919" height="526" fill="white" transform="matrix(-1 0 0 -1 1920 526)"/>
</clipPath>
</defs>
</svg>
