<svg width="1920" height="1080" viewBox="0 0 1920 1080" fill="none" xmlns="http://www.w3.org/2000/svg">
<rect width="1920" height="1080" fill="#090A0B"/>
<g clip-path="url(#clip0_271_611)">
<line y1="-1.34177" x2="1132.45" y2="-1.34177" transform="matrix(1 0 0 -1 788 373.747)" stroke="url(#paint0_linear_271_611)" stroke-opacity="0.3" stroke-width="2.68354"/>
<line x1="1078" y1="789.658" x2="1920" y2="789.658" stroke="url(#paint1_linear_271_611)" stroke-opacity="0.3" stroke-width="2.68354"/>
<line y1="-1.34177" x2="1132.45" y2="-1.34177" transform="matrix(1 0 0 -1 788 672)" stroke="url(#paint2_linear_271_611)" stroke-opacity="0.3" stroke-width="2.68354"/>
<line x1="1920" y1="253.342" x2="1335" y2="253.342" stroke="url(#paint3_linear_271_611)" stroke-opacity="0.3" stroke-width="2.68354"/>
<line x1="1886.66" y1="967" x2="1886.66" y2="140" stroke="url(#paint4_linear_271_611)" stroke-opacity="0.3" stroke-width="2.68354"/>
<line y1="-1.34177" x2="179" y2="-1.34177" transform="matrix(4.37114e-08 1 1 -4.37114e-08 1464 195)" stroke="url(#paint5_linear_271_611)" stroke-opacity="0.3" stroke-width="2.68354"/>
<line x1="1198.66" y1="851" x2="1198.66" y2="672" stroke="url(#paint6_linear_271_611)" stroke-opacity="0.3" stroke-width="2.68354"/>
<rect x="1008" y="455" width="799" height="136" rx="21.4683" fill="#141F49" fill-opacity="0.54"/>
<rect x="1008" y="455" width="799" height="136" rx="21.4683" fill="url(#paint7_linear_271_611)"/>
<rect x="1033" y="475" width="748" height="100" rx="10.7342" fill="url(#paint8_linear_271_611)"/>
<path d="M1211.61 509.506H1216.64L1221.67 532.359H1221.76L1227.7 509.506H1232.73L1238.71 532.359H1238.79L1243.83 509.506H1248.86L1241.47 539H1236.32L1230.25 515.9H1230.17L1224.15 539H1218.95L1211.61 509.506ZM1255.82 521.675H1270.22V525.882H1255.82V534.834H1272.65V539H1250.92V509.506H1272.24V513.672H1255.82V521.675ZM1298.07 516.931C1298.07 520.561 1295.92 522.252 1293.49 523.077V523.16C1296.58 523.696 1299.22 525.965 1299.22 530.379C1299.22 536.071 1295.3 539 1289.2 539H1275.83V509.506H1288.5C1294.56 509.506 1298.07 512.187 1298.07 516.931ZM1280.74 521.716H1288.33C1291.84 521.716 1293.16 520.314 1293.16 517.715C1293.16 515.116 1291.55 513.672 1288.62 513.672H1280.74V521.716ZM1280.74 525.387V534.834H1288.83C1293.03 534.834 1294.31 532.854 1294.31 530.09C1294.31 527.079 1292.46 525.387 1289.36 525.387H1280.74ZM1313.13 521.427C1319.45 523.036 1324.23 524.397 1324.23 530.997C1324.23 535.7 1320.68 539.619 1313.26 539.619C1306.04 539.619 1300.55 535.865 1300.26 529.182H1305.17C1305.42 532.936 1307.98 535.411 1313.26 535.411C1317.63 535.411 1319.32 533.472 1319.32 531.204C1319.32 527.697 1316.81 527.037 1310.99 525.594C1306.37 524.439 1301.38 522.665 1301.38 517.055C1301.38 511.816 1305.42 508.887 1311.86 508.887C1318.33 508.887 1323.03 512.27 1323.45 518.334H1318.54C1318.08 514.91 1315.94 513.095 1311.86 513.095C1308.35 513.095 1306.25 514.415 1306.25 516.601C1306.25 519.819 1309.01 520.396 1313.13 521.427ZM1327.32 509.506H1332.23V539H1327.32V509.506ZM1343.31 539V513.672H1333.86V509.506H1357.62V513.672H1348.22V539H1343.31ZM1365.06 521.675H1379.45V525.882H1365.06V534.834H1381.89V539H1360.15V509.506H1381.47V513.672H1365.06V521.675ZM1409.25 532.029H1397.21L1394.82 539H1389.83L1400.67 509.506H1405.83L1416.64 539H1411.65L1409.25 532.029ZM1398.57 527.945H1407.93L1403.31 514.002H1403.23L1398.57 527.945ZM1418.62 539V509.506H1424.11L1437.39 531.657H1437.47V509.506H1442.38V539H1436.94L1423.61 516.931H1423.53V539H1418.62ZM1463.64 532.029H1451.59L1449.2 539H1444.21L1455.06 509.506H1460.21L1471.02 539H1466.03L1463.64 532.029ZM1452.95 527.945H1462.32L1457.7 514.002H1457.62L1452.95 527.945ZM1473.01 509.506H1477.91V534.834H1492.64V539H1473.01V509.506ZM1488.6 509.506H1493.84L1501.47 523.201H1501.56L1509.23 509.506H1514.47L1503.99 527.285V539H1499.08V527.285L1488.6 509.506ZM1524.67 539V513.672H1515.22V509.506H1538.98V513.672H1529.58V539H1524.67ZM1541.59 509.506H1546.5V539H1541.59V509.506ZM1571.5 519.654C1570.96 516.684 1569.02 513.095 1563.58 513.095C1557.23 513.095 1554.71 518.416 1554.71 524.232C1554.71 530.09 1557.23 535.411 1563.58 535.411C1569.07 535.411 1571.17 531.822 1571.5 528.234H1576.41C1575.75 534.875 1571.21 539.619 1563.7 539.619C1555.21 539.619 1549.84 533.142 1549.84 524.232C1549.84 515.364 1555.21 508.887 1563.7 508.887C1571.17 508.887 1575.71 513.631 1576.41 519.654H1571.5ZM1590.39 521.427C1596.71 523.036 1601.49 524.397 1601.49 530.997C1601.49 535.7 1597.94 539.619 1590.52 539.619C1583.3 539.619 1577.81 535.865 1577.52 529.182H1582.43C1582.68 532.936 1585.24 535.411 1590.52 535.411C1594.89 535.411 1596.58 533.472 1596.58 531.204C1596.58 527.697 1594.07 527.037 1588.25 525.594C1583.63 524.439 1578.64 522.665 1578.64 517.055C1578.64 511.816 1582.68 508.887 1589.12 508.887C1595.59 508.887 1600.29 512.27 1600.71 518.334H1595.8C1595.34 514.91 1593.2 513.095 1589.12 513.095C1585.61 513.095 1583.51 514.415 1583.51 516.601C1583.51 519.819 1586.27 520.396 1590.39 521.427Z" fill="url(#paint9_linear_271_611)"/>
<rect x="1107" y="704" width="64" height="56" rx="8" fill="url(#paint10_linear_271_611)"/>
<path d="M1131.42 722.648H1135.23L1138.94 728.408H1139.01L1142.72 722.648H1146.53L1141.02 730.648L1147.14 739H1143.23L1139.01 732.856H1138.94L1134.78 739H1130.85L1136.96 730.648L1131.42 722.648Z" fill="#3F65FD"/>
<rect x="1365" y="286" width="64" height="56" rx="8" fill="url(#paint11_linear_271_611)"/>
<path d="M1389.42 304.648H1393.23L1396.94 310.408H1397.01L1400.72 304.648H1404.53L1399.02 312.648L1405.14 321H1401.23L1397.01 314.856H1396.94L1392.78 321H1388.85L1394.96 312.648L1389.42 304.648Z" fill="#3F65FD"/>
<rect x="1200" y="674" width="687" height="117" rx="21.4683" fill="#141F49" fill-opacity="0.54"/>
<rect x="1200" y="674" width="687" height="117" rx="21.4683" fill="url(#paint12_linear_271_611)"/>
<rect x="1221" y="691" width="644" height="86" rx="10.7342" fill="url(#paint13_linear_271_611)"/>
<path d="M1455.33 728.953C1454.91 726.643 1453.4 723.852 1449.17 723.852C1444.22 723.852 1442.27 727.99 1442.27 732.514C1442.27 737.07 1444.22 741.209 1449.17 741.209C1453.43 741.209 1455.07 738.417 1455.33 735.626H1459.14C1458.63 740.792 1455.1 744.481 1449.26 744.481C1442.65 744.481 1438.48 739.444 1438.48 732.514C1438.48 725.616 1442.65 720.579 1449.26 720.579C1455.07 720.579 1458.6 724.269 1459.14 728.953H1455.33ZM1461.33 744V721.06H1471.11C1475.83 721.06 1478.88 723.467 1478.88 727.637C1478.88 730.846 1477.24 732.707 1474.61 733.348V733.412C1479.9 734.407 1477.98 743.39 1479.2 743.775V744H1475.19C1474.13 743.037 1476.28 735.145 1470.76 735.145H1465.15V744H1461.33ZM1465.15 724.301V731.872H1470.31C1472.65 731.872 1475.09 731.423 1475.09 728.087C1475.09 724.782 1472.65 724.301 1470.31 724.301H1465.15ZM1481.36 744V721.06H1486.31L1492.72 738.706H1492.79L1499.17 721.06H1504.11V744H1500.39V726.611H1500.33L1494.26 744H1491.21L1485.15 726.611H1485.09V744H1481.36ZM1521.55 730.332C1526.46 731.584 1530.18 732.642 1530.18 737.776C1530.18 741.433 1527.42 744.481 1521.64 744.481C1516.03 744.481 1511.76 741.562 1511.54 736.364H1515.36C1515.55 739.284 1517.54 741.209 1521.64 741.209C1525.05 741.209 1526.36 739.701 1526.36 737.936C1526.36 735.209 1524.4 734.696 1519.88 733.573C1516.29 732.675 1512.4 731.295 1512.4 726.932C1512.4 722.857 1515.55 720.579 1520.55 720.579C1525.59 720.579 1529.25 723.21 1529.57 727.926H1525.75C1525.4 725.263 1523.73 723.852 1520.55 723.852C1517.83 723.852 1516.19 724.878 1516.19 726.579C1516.19 729.081 1518.34 729.53 1521.55 730.332ZM1529.4 721.06H1533.48L1539.41 731.712H1539.48L1545.45 721.06H1549.52L1541.37 734.888V744H1537.55V734.888L1529.4 721.06ZM1558.71 730.332C1563.62 731.584 1567.34 732.642 1567.34 737.776C1567.34 741.433 1564.58 744.481 1558.8 744.481C1553.19 744.481 1548.92 741.562 1548.7 736.364H1552.52C1552.71 739.284 1554.7 741.209 1558.8 741.209C1562.21 741.209 1563.52 739.701 1563.52 737.936C1563.52 735.209 1561.56 734.696 1557.04 733.573C1553.45 732.675 1549.56 731.295 1549.56 726.932C1549.56 722.857 1552.71 720.579 1557.71 720.579C1562.75 720.579 1566.41 723.21 1566.73 727.926H1562.91C1562.56 725.263 1560.89 723.852 1557.71 723.852C1554.99 723.852 1553.35 724.878 1553.35 726.579C1553.35 729.081 1555.5 729.53 1558.71 730.332ZM1574.67 744V724.301H1567.33V721.06H1585.81V724.301H1578.49V744H1574.67ZM1591.59 730.525H1602.78V733.797H1591.59V740.76H1604.68V744H1587.77V721.06H1604.36V724.301H1591.59V730.525ZM1607.15 744V721.06H1612.09L1618.51 738.706H1618.57L1624.95 721.06H1629.9V744H1626.17V726.611H1626.11L1620.05 744H1617L1610.93 726.611H1610.87V744H1607.15ZM1641.96 730.332C1646.87 731.584 1650.59 732.642 1650.59 737.776C1650.59 741.433 1647.83 744.481 1642.05 744.481C1636.44 744.481 1632.17 741.562 1631.95 736.364H1635.77C1635.96 739.284 1637.95 741.209 1642.05 741.209C1645.46 741.209 1646.77 739.701 1646.77 737.936C1646.77 735.209 1644.81 734.696 1640.29 733.573C1636.7 732.675 1632.81 731.295 1632.81 726.932C1632.81 722.857 1635.96 720.579 1640.96 720.579C1646 720.579 1649.66 723.21 1649.98 727.926H1646.16C1645.81 725.263 1644.14 723.852 1640.96 723.852C1638.24 723.852 1636.6 724.878 1636.6 726.579C1636.6 729.081 1638.75 729.53 1641.96 730.332Z" fill="url(#paint14_linear_271_611)"/>
<rect x="1465" y="255" width="419" height="117" rx="21.4683" fill="#141F49" fill-opacity="0.54"/>
<rect x="1465" y="255" width="419" height="117" rx="21.4683" fill="url(#paint15_linear_271_611)"/>
<rect x="1478" y="272" width="393" height="86" rx="10.7342" fill="url(#paint16_linear_271_611)"/>
<path d="M1578.93 311.332C1583.84 312.584 1587.56 313.642 1587.56 318.776C1587.56 322.433 1584.8 325.481 1579.02 325.481C1573.41 325.481 1569.14 322.562 1568.92 317.364H1572.74C1572.93 320.284 1574.92 322.209 1579.02 322.209C1582.43 322.209 1583.74 320.701 1583.74 318.936C1583.74 316.209 1581.78 315.696 1577.26 314.573C1573.67 313.675 1569.78 312.295 1569.78 307.932C1569.78 303.857 1572.93 301.579 1577.93 301.579C1582.97 301.579 1586.63 304.21 1586.95 308.926H1583.13C1582.78 306.263 1581.11 304.852 1577.93 304.852C1575.21 304.852 1573.57 305.878 1573.57 307.579C1573.57 310.081 1575.72 310.53 1578.93 311.332ZM1600.29 325.481C1593.36 325.481 1589.03 320.412 1589.03 313.514C1589.03 306.616 1593.36 301.579 1600.29 301.579C1607.19 301.579 1611.55 306.616 1611.55 313.514C1611.55 320.412 1607.19 325.481 1600.29 325.481ZM1600.29 322.209C1605.55 322.209 1607.73 318.166 1607.73 313.514C1607.73 308.894 1605.55 304.852 1600.29 304.852C1595.03 304.852 1592.81 308.894 1592.81 313.514C1592.81 318.166 1595.03 322.209 1600.29 322.209ZM1629.92 309.953C1629.5 307.643 1627.99 304.852 1623.76 304.852C1618.82 304.852 1616.86 308.99 1616.86 313.514C1616.86 318.07 1618.82 322.209 1623.76 322.209C1628.03 322.209 1629.66 319.417 1629.92 316.626H1633.74C1633.22 321.792 1629.7 325.481 1623.86 325.481C1617.25 325.481 1613.08 320.444 1613.08 313.514C1613.08 306.616 1617.25 301.579 1623.86 301.579C1629.66 301.579 1633.19 305.269 1633.74 309.953H1629.92ZM1635.99 302.06H1639.8V325H1635.99V302.06ZM1656.37 319.578H1647L1645.14 325H1641.25L1649.69 302.06H1653.7L1662.11 325H1658.23L1656.37 319.578ZM1648.06 316.402H1655.34L1651.75 305.557H1651.68L1648.06 316.402ZM1663.65 302.06H1667.47V321.76H1678.92V325H1663.65V302.06ZM1686.37 325V302.06H1691.31L1697.73 319.706H1697.79L1704.17 302.06H1709.11V325H1705.39V307.611H1705.33L1699.27 325H1696.22L1690.15 307.611H1690.09V325H1686.37ZM1716.21 311.525H1727.4V314.797H1716.21V321.76H1729.3V325H1712.39V302.06H1728.98V305.301H1716.21V311.525ZM1731.77 325V302.06H1740.69C1747.01 302.06 1750.89 306.167 1750.89 313.546C1750.89 320.925 1747.14 325 1740.78 325H1731.77ZM1735.59 305.301V321.76H1740.49C1745.63 321.76 1747.07 317.942 1747.07 313.546C1747.07 309.151 1745.63 305.301 1740.49 305.301H1735.59ZM1753.37 302.06H1757.19V325H1753.37V302.06ZM1773.75 319.578H1764.38L1762.52 325H1758.64L1767.08 302.06H1771.09L1779.5 325H1775.61L1773.75 319.578ZM1765.44 316.402H1772.73L1769.13 305.557H1769.07L1765.44 316.402Z" fill="url(#paint17_linear_271_611)"/>
</g>
<path d="M86.1 397V325.5H113.9C133.6 325.5 145.7 338.3 145.7 361.3C145.7 384.3 134 397 114.2 397H86.1ZM98 335.6V386.9H113.3C129.3 386.9 133.8 375 133.8 361.3C133.8 347.6 129.3 335.6 113.3 335.6H98ZM182.259 359.3C182.259 355.6 180.059 352.8 173.059 352.8C164.659 352.8 161.559 355.4 161.059 362H150.859C151.359 352.2 157.659 344.5 173.059 344.5C184.359 344.5 192.759 348.8 192.759 362.4V386.7C192.759 390.3 193.559 392.2 197.659 391.8V396.8C195.259 397.7 193.559 397.9 191.559 397.9C185.959 397.9 183.359 395.9 182.359 390.9H182.159C178.959 395.4 173.159 398.5 165.259 398.5C154.859 398.5 148.459 392.5 148.459 383.9C148.459 372.7 156.759 369.2 169.559 366.7C177.459 365.2 182.259 364.2 182.259 359.3ZM167.559 390.2C176.259 390.2 182.259 385.9 182.259 377.6V369.9C180.559 371.1 176.459 372.3 171.559 373.3C162.859 375.2 159.059 377.7 159.059 382.9C159.059 387.6 161.859 390.2 167.559 390.2ZM225.224 354.5H215.624V382.2C215.624 388 218.424 388.7 225.224 388.3V396.9C223.124 397.4 220.824 397.7 218.024 397.7C209.624 397.7 205.024 393.9 205.024 383.1V354.5H197.624V345.9H205.024V329.8H215.624V345.9H225.224V354.5ZM262.048 359.3C262.048 355.6 259.848 352.8 252.848 352.8C244.448 352.8 241.348 355.4 240.848 362H230.648C231.148 352.2 237.448 344.5 252.848 344.5C264.148 344.5 272.548 348.8 272.548 362.4V386.7C272.548 390.3 273.348 392.2 277.448 391.8V396.8C275.048 397.7 273.348 397.9 271.348 397.9C265.748 397.9 263.148 395.9 262.148 390.9H261.948C258.748 395.4 252.948 398.5 245.048 398.5C234.648 398.5 228.248 392.5 228.248 383.9C228.248 372.7 236.548 369.2 249.348 366.7C257.248 365.2 262.048 364.2 262.048 359.3ZM247.348 390.2C256.048 390.2 262.048 385.9 262.048 377.6V369.9C260.348 371.1 256.248 372.3 251.348 373.3C242.648 375.2 238.848 377.7 238.848 382.9C238.848 387.6 241.648 390.2 247.348 390.2ZM280.19 366.7H307.09V376.5H280.19V366.7ZM314.772 397V325.5H342.572C362.272 325.5 374.372 338.3 374.372 361.3C374.372 384.3 362.672 397 342.872 397H314.772ZM326.672 335.6V386.9H341.972C357.972 386.9 362.472 375 362.472 361.3C362.472 347.6 357.972 335.6 341.972 335.6H326.672ZM405.113 344.7C406.913 344.7 408.213 344.8 409.713 345V354.9H409.513C399.413 353.2 391.313 360 391.313 370.9V397H380.813V345.9H391.313V355.5H391.513C394.213 349.1 398.413 344.7 405.113 344.7ZM420.357 337.3C417.457 337.3 414.457 335.3 414.457 331.7C414.457 328.1 417.457 326.2 420.357 326.2C423.457 326.2 426.357 328.1 426.357 331.7C426.357 335.3 423.457 337.3 420.357 337.3ZM415.157 345.9H425.657V397H415.157V345.9ZM429.332 345.9H440.432L453.332 385.9H453.432L466.332 345.9H477.432L459.332 397H447.432L429.332 345.9ZM501.807 389.9C510.507 389.9 514.007 384.5 514.907 381.4H525.407C522.807 391.1 515.207 398.5 502.107 398.5C486.207 398.5 476.507 387.5 476.507 371.5C476.507 354.9 486.207 344.5 501.607 344.5C518.107 344.5 526.207 356 526.207 374.2H487.007C487.007 382.8 492.507 389.9 501.807 389.9ZM501.607 352.8C493.107 352.8 487.007 358.5 487.007 366.4H515.707C515.707 358.5 510.107 352.8 501.607 352.8ZM558.906 344.5C568.406 344.5 575.906 350 575.906 361.7V397H565.306V364.7C565.306 357.8 562.406 353.4 555.206 353.4C547.106 353.4 541.906 358.3 541.906 365.9V397H531.406V345.9H541.906V352.5H542.106C544.806 348.5 550.106 344.5 558.906 344.5ZM601.651 397V325.5H629.451C649.151 325.5 661.251 338.3 661.251 361.3C661.251 384.3 649.551 397 629.751 397H601.651ZM613.551 335.6V386.9H628.851C644.851 386.9 649.351 375 649.351 361.3C649.351 347.6 644.851 335.6 628.851 335.6H613.551ZM673.591 337.3C670.691 337.3 667.691 335.3 667.691 331.7C667.691 328.1 670.691 326.2 673.591 326.2C676.691 326.2 679.591 328.1 679.591 331.7C679.591 335.3 676.691 337.3 673.591 337.3ZM668.391 345.9H678.891V397H668.391V345.9ZM722.966 345.9H733.466V393.5C733.466 408.2 724.566 414.7 710.066 414.7C695.366 414.7 687.266 407 686.166 398.4H696.766C697.766 402.9 701.366 406.3 709.666 406.3C718.466 406.3 722.966 402.3 722.966 393.1V386.9H722.766C720.066 390.7 715.366 394.5 707.266 394.5C694.466 394.5 684.866 385.6 684.866 369.5C684.866 353.3 694.466 344.5 707.266 344.5C715.366 344.5 720.066 348.3 722.766 351.9H722.966V345.9ZM709.266 385.9C717.766 385.9 722.866 380.3 722.866 369.5C722.866 358.7 717.766 353.1 709.266 353.1C700.066 353.1 695.366 360 695.366 369.5C695.366 378.9 700.066 385.9 709.266 385.9ZM747.326 337.3C744.426 337.3 741.426 335.3 741.426 331.7C741.426 328.1 744.426 326.2 747.326 326.2C750.426 326.2 753.326 328.1 753.326 331.7C753.326 335.3 750.426 337.3 747.326 337.3ZM742.126 345.9H752.626V397H742.126V345.9ZM785.701 354.5H776.101V382.2C776.101 388 778.901 388.7 785.701 388.3V396.9C783.601 397.4 781.301 397.7 778.501 397.7C770.101 397.7 765.501 393.9 765.501 383.1V354.5H758.101V345.9H765.501V329.8H776.101V345.9H785.701V354.5ZM822.525 359.3C822.525 355.6 820.325 352.8 813.325 352.8C804.925 352.8 801.825 355.4 801.325 362H791.125C791.625 352.2 797.925 344.5 813.325 344.5C824.625 344.5 833.025 348.8 833.025 362.4V386.7C833.025 390.3 833.825 392.2 837.925 391.8V396.8C835.525 397.7 833.825 397.9 831.825 397.9C826.225 397.9 823.625 395.9 822.625 390.9H822.425C819.225 395.4 813.425 398.5 805.525 398.5C795.125 398.5 788.725 392.5 788.725 383.9C788.725 372.7 797.025 369.2 809.825 366.7C817.725 365.2 822.525 364.2 822.525 359.3ZM807.825 390.2C816.525 390.2 822.525 385.9 822.525 377.6V369.9C820.825 371.1 816.725 372.3 811.825 373.3C803.125 375.2 799.325 377.7 799.325 382.9C799.325 387.6 802.125 390.2 807.825 390.2ZM842.266 325.5H852.866V397H842.266V325.5ZM86.1 517V445.5H101.5L121.5 500.5H121.7L141.6 445.5H157V517H145.4V462.8H145.2L126.3 517H116.8L97.9 462.8H97.7V517H86.1ZM197.201 479.3C197.201 475.6 195.001 472.8 188.001 472.8C179.601 472.8 176.501 475.4 176.001 482H165.801C166.301 472.2 172.601 464.5 188.001 464.5C199.301 464.5 207.701 468.8 207.701 482.4V506.7C207.701 510.3 208.501 512.2 212.601 511.8V516.8C210.201 517.7 208.501 517.9 206.501 517.9C200.901 517.9 198.301 515.9 197.301 510.9H197.101C193.901 515.4 188.101 518.5 180.201 518.5C169.801 518.5 163.401 512.5 163.401 503.9C163.401 492.7 171.701 489.2 184.501 486.7C192.401 485.2 197.201 484.2 197.201 479.3ZM182.501 510.2C191.201 510.2 197.201 505.9 197.201 497.6V489.9C195.501 491.1 191.401 492.3 186.501 493.3C177.801 495.2 174.001 497.7 174.001 502.9C174.001 507.6 176.801 510.2 182.501 510.2ZM241.042 464.7C242.842 464.7 244.142 464.8 245.642 465V474.9H245.442C235.342 473.2 227.242 480 227.242 490.9V517H216.742V465.9H227.242V475.5H227.442C230.142 469.1 234.342 464.7 241.042 464.7ZM250.387 445.5H260.887V486.4L281.687 465.9H294.587L275.187 484.9L296.687 517H284.087L267.987 491.8L260.887 498.5V517H250.387V445.5ZM318.838 509.9C327.538 509.9 331.038 504.5 331.938 501.4H342.438C339.838 511.1 332.238 518.5 319.138 518.5C303.238 518.5 293.538 507.5 293.538 491.5C293.538 474.9 303.238 464.5 318.638 464.5C335.138 464.5 343.238 476 343.238 494.2H304.038C304.038 502.8 309.538 509.9 318.838 509.9ZM318.638 472.8C310.138 472.8 304.038 478.5 304.038 486.4H332.738C332.738 478.5 327.138 472.8 318.638 472.8ZM371.861 474.5H362.261V502.2C362.261 508 365.061 508.7 371.861 508.3V516.9C369.761 517.4 367.461 517.7 364.661 517.7C356.261 517.7 351.661 513.9 351.661 503.1V474.5H344.261V465.9H351.661V449.8H362.261V465.9H371.861V474.5ZM383.392 457.3C380.492 457.3 377.492 455.3 377.492 451.7C377.492 448.1 380.492 446.2 383.392 446.2C386.492 446.2 389.392 448.1 389.392 451.7C389.392 455.3 386.492 457.3 383.392 457.3ZM378.192 465.9H388.692V517H378.192V465.9ZM424.867 464.5C434.367 464.5 441.867 470 441.867 481.7V517H431.267V484.7C431.267 477.8 428.367 473.4 421.167 473.4C413.067 473.4 407.867 478.3 407.867 485.9V517H397.367V465.9H407.867V472.5H408.067C410.767 468.5 416.067 464.5 424.867 464.5ZM484.869 465.9H495.369V513.5C495.369 528.2 486.469 534.7 471.969 534.7C457.269 534.7 449.169 527 448.069 518.4H458.669C459.669 522.9 463.269 526.3 471.569 526.3C480.369 526.3 484.869 522.3 484.869 513.1V506.9H484.669C481.969 510.7 477.269 514.5 469.169 514.5C456.369 514.5 446.769 505.6 446.769 489.5C446.769 473.3 456.369 464.5 469.169 464.5C477.269 464.5 481.969 468.3 484.669 471.9H484.869V465.9ZM471.169 505.9C479.669 505.9 484.769 500.3 484.769 489.5C484.769 478.7 479.669 473.1 471.169 473.1C461.969 473.1 457.269 480 457.269 489.5C457.269 498.9 461.969 505.9 471.169 505.9ZM548.571 474.4C563.871 478.3 575.471 481.6 575.471 497.6C575.471 509 566.871 518.5 548.871 518.5C531.371 518.5 518.071 509.4 517.371 493.2H529.271C529.871 502.3 536.071 508.3 548.871 508.3C559.471 508.3 563.571 503.6 563.571 498.1C563.571 489.6 557.471 488 543.371 484.5C532.171 481.7 520.071 477.4 520.071 463.8C520.071 451.1 529.871 444 545.471 444C561.171 444 572.571 452.2 573.571 466.9H561.671C560.571 458.6 555.371 454.2 545.471 454.2C536.971 454.2 531.871 457.4 531.871 462.7C531.871 470.5 538.571 471.9 548.571 474.4ZM605.759 474.5H596.159V502.2C596.159 508 598.959 508.7 605.759 508.3V516.9C603.659 517.4 601.359 517.7 598.559 517.7C590.159 517.7 585.559 513.9 585.559 503.1V474.5H578.159V465.9H585.559V449.8H596.159V465.9H605.759V474.5ZM635.691 464.7C637.491 464.7 638.791 464.8 640.291 465V474.9H640.091C629.991 473.2 621.891 480 621.891 490.9V517H611.391V465.9H621.891V475.5H622.091C624.791 469.1 628.991 464.7 635.691 464.7ZM674.177 479.3C674.177 475.6 671.977 472.8 664.977 472.8C656.577 472.8 653.477 475.4 652.977 482H642.777C643.277 472.2 649.577 464.5 664.977 464.5C676.277 464.5 684.677 468.8 684.677 482.4V506.7C684.677 510.3 685.477 512.2 689.577 511.8V516.8C687.177 517.7 685.477 517.9 683.477 517.9C677.877 517.9 675.277 515.9 674.277 510.9H674.077C670.877 515.4 665.077 518.5 657.177 518.5C646.777 518.5 640.377 512.5 640.377 503.9C640.377 492.7 648.677 489.2 661.477 486.7C669.377 485.2 674.177 484.2 674.177 479.3ZM659.477 510.2C668.177 510.2 674.177 505.9 674.177 497.6V489.9C672.477 491.1 668.377 492.3 663.477 493.3C654.777 495.2 650.977 497.7 650.977 502.9C650.977 507.6 653.777 510.2 659.477 510.2ZM717.142 474.5H707.542V502.2C707.542 508 710.342 508.7 717.142 508.3V516.9C715.042 517.4 712.742 517.7 709.942 517.7C701.542 517.7 696.942 513.9 696.942 503.1V474.5H689.542V465.9H696.942V449.8H707.542V465.9H717.142V474.5ZM744.885 509.9C753.585 509.9 757.085 504.5 757.985 501.4H768.485C765.885 511.1 758.285 518.5 745.185 518.5C729.285 518.5 719.585 507.5 719.585 491.5C719.585 474.9 729.285 464.5 744.685 464.5C761.185 464.5 769.285 476 769.285 494.2H730.085C730.085 502.8 735.585 509.9 744.885 509.9ZM744.685 472.8C736.185 472.8 730.085 478.5 730.085 486.4H758.785C758.785 478.5 753.185 472.8 744.685 472.8ZM809.884 465.9H820.384V513.5C820.384 528.2 811.484 534.7 796.984 534.7C782.284 534.7 774.184 527 773.084 518.4H783.684C784.684 522.9 788.284 526.3 796.584 526.3C805.384 526.3 809.884 522.3 809.884 513.1V506.9H809.684C806.984 510.7 802.284 514.5 794.184 514.5C781.384 514.5 771.784 505.6 771.784 489.5C771.784 473.3 781.384 464.5 794.184 464.5C802.284 464.5 806.984 468.3 809.684 471.9H809.884V465.9ZM796.184 505.9C804.684 505.9 809.784 500.3 809.784 489.5C809.784 478.7 804.684 473.1 796.184 473.1C786.984 473.1 782.284 480 782.284 489.5C782.284 498.9 786.984 505.9 796.184 505.9ZM834.244 457.3C831.344 457.3 828.344 455.3 828.344 451.7C828.344 448.1 831.344 446.2 834.244 446.2C837.344 446.2 840.244 448.1 840.244 451.7C840.244 455.3 837.344 457.3 834.244 457.3ZM829.044 465.9H839.544V517H829.044V465.9ZM870.819 509.9C879.519 509.9 883.019 504.5 883.919 501.4H894.419C891.819 511.1 884.219 518.5 871.119 518.5C855.219 518.5 845.519 507.5 845.519 491.5C845.519 474.9 855.219 464.5 870.619 464.5C887.119 464.5 895.219 476 895.219 494.2H856.019C856.019 502.8 861.519 509.9 870.819 509.9ZM870.619 472.8C862.119 472.8 856.019 478.5 856.019 486.4H884.719C884.719 478.5 879.119 472.8 870.619 472.8ZM922.518 486.1C931.918 488.3 942.118 490.4 942.118 502.6C942.118 512.4 933.718 518.5 921.318 518.5C904.818 518.5 897.718 510.8 897.218 500H907.418C907.918 505.5 910.318 510.2 921.118 510.2C928.418 510.2 931.518 506.6 931.518 503.4C931.518 497 925.418 496.5 917.918 494.7C909.818 492.8 898.818 491.2 898.818 479.6C898.818 471.2 906.218 464.5 919.018 464.5C932.918 464.5 939.518 472 940.218 480.9H930.018C929.318 476.9 927.318 472.8 919.118 472.8C912.818 472.8 909.418 475.2 909.418 478.8C909.418 484 915.118 484.4 922.518 486.1ZM953.144 487.1C949.444 487.1 946.644 484.6 946.644 480.6C946.644 476.7 949.444 474.1 953.144 474.1C956.744 474.1 959.544 476.7 959.544 480.6C959.544 484.6 956.744 487.1 953.144 487.1ZM953.144 517.8C949.444 517.8 946.644 515.3 946.644 511.3C946.644 507.4 949.444 504.8 953.144 504.8C956.744 504.8 959.544 507.4 959.544 511.3C959.544 515.3 956.744 517.8 953.144 517.8ZM135.9 590.1C134.6 582.9 129.9 574.2 116.7 574.2C101.3 574.2 95.2 587.1 95.2 601.2C95.2 615.4 101.3 628.3 116.7 628.3C130 628.3 135.1 619.6 135.9 610.9H147.8C146.2 627 135.2 638.5 117 638.5C96.4 638.5 83.4 622.8 83.4 601.2C83.4 579.7 96.4 564 117 564C135.1 564 146.1 575.5 147.8 590.1H135.9ZM176.801 638.5C160.801 638.5 151.101 627.4 151.101 611.5C151.101 595.6 160.801 584.5 176.801 584.5C192.801 584.5 202.501 595.6 202.501 611.5C202.501 627.4 192.801 638.5 176.801 638.5ZM176.801 629.9C186.801 629.9 192.001 622 192.001 611.5C192.001 600.9 186.801 593.1 176.801 593.1C166.801 593.1 161.601 600.9 161.601 611.5C161.601 622 166.801 629.9 176.801 629.9ZM207.958 565.5H218.558V637H207.958V565.5ZM226.173 565.5H236.773V637H226.173V565.5ZM267.569 629.9C276.269 629.9 279.769 624.5 280.669 621.4H291.169C288.569 631.1 280.969 638.5 267.869 638.5C251.969 638.5 242.269 627.5 242.269 611.5C242.269 594.9 251.969 584.5 267.369 584.5C283.869 584.5 291.969 596 291.969 614.2H252.769C252.769 622.8 258.269 629.9 267.569 629.9ZM267.369 592.8C258.869 592.8 252.769 598.5 252.769 606.4H281.469C281.469 598.5 275.869 592.8 267.369 592.8ZM332.368 604.6C331.968 599.4 328.668 593.1 319.668 593.1C309.368 593.1 304.968 601.9 304.968 611.5C304.968 621.1 309.268 629.9 319.668 629.9C328.668 629.9 331.968 623.7 332.368 618H342.868C342.068 629.8 332.968 638.5 319.668 638.5C304.368 638.5 294.468 627.5 294.468 611.5C294.468 595.5 304.368 584.5 319.568 584.5C332.868 584.5 341.568 593 342.868 604.6H332.368ZM372.205 594.5H362.605V622.2C362.605 628 365.405 628.7 372.205 628.3V636.9C370.105 637.4 367.805 637.7 365.005 637.7C356.605 637.7 352.005 633.9 352.005 623.1V594.5H344.605V585.9H352.005V569.8H362.605V585.9H372.205V594.5ZM383.736 577.3C380.836 577.3 377.836 575.3 377.836 571.7C377.836 568.1 380.836 566.2 383.736 566.2C386.836 566.2 389.736 568.1 389.736 571.7C389.736 575.3 386.836 577.3 383.736 577.3ZM378.536 585.9H389.036V637H378.536V585.9ZM425.211 584.5C434.711 584.5 442.211 590 442.211 601.7V637H431.611V604.7C431.611 597.8 428.711 593.4 421.511 593.4C413.411 593.4 408.211 598.3 408.211 605.9V637H397.711V585.9H408.211V592.5H408.411C411.111 588.5 416.411 584.5 425.211 584.5ZM485.213 585.9H495.713V633.5C495.713 648.2 486.813 654.7 472.313 654.7C457.613 654.7 449.513 647 448.413 638.4H459.013C460.013 642.9 463.613 646.3 471.913 646.3C480.713 646.3 485.213 642.3 485.213 633.1V626.9H485.013C482.313 630.7 477.613 634.5 469.513 634.5C456.713 634.5 447.113 625.6 447.113 609.5C447.113 593.3 456.713 584.5 469.513 584.5C477.613 584.5 482.313 588.3 485.013 591.9H485.213V585.9ZM471.513 625.9C480.013 625.9 485.113 620.3 485.113 609.5C485.113 598.7 480.013 593.1 471.513 593.1C462.313 593.1 457.613 600 457.613 609.5C457.613 618.9 462.313 625.9 471.513 625.9ZM551.615 599.3C551.615 595.6 549.415 592.8 542.415 592.8C534.015 592.8 530.915 595.4 530.415 602H520.215C520.715 592.2 527.015 584.5 542.415 584.5C553.715 584.5 562.115 588.8 562.115 602.4V626.7C562.115 630.3 562.915 632.2 567.015 631.8V636.8C564.615 637.7 562.915 637.9 560.915 637.9C555.315 637.9 552.715 635.9 551.715 630.9H551.515C548.315 635.4 542.515 638.5 534.615 638.5C524.215 638.5 517.815 632.5 517.815 623.9C517.815 612.7 526.115 609.2 538.915 606.7C546.815 605.2 551.615 604.2 551.615 599.3ZM536.915 630.2C545.615 630.2 551.615 625.9 551.615 617.6V609.9C549.915 611.1 545.815 612.3 540.915 613.3C532.215 615.2 528.415 617.7 528.415 622.9C528.415 627.6 531.215 630.2 536.915 630.2ZM598.656 584.5C608.156 584.5 615.656 590 615.656 601.7V637H605.056V604.7C605.056 597.8 602.156 593.4 594.956 593.4C586.856 593.4 581.656 598.3 581.656 605.9V637H571.156V585.9H581.656V592.5H581.856C584.556 588.5 589.856 584.5 598.656 584.5ZM659.158 565.5H669.658V637H659.158V631.1H658.958C656.258 634.6 651.258 638.5 643.358 638.5C630.258 638.5 620.558 628.3 620.558 611.5C620.558 594.7 630.258 584.5 643.358 584.5C651.258 584.5 656.258 588.2 658.958 592.1H659.158V565.5ZM645.158 629.9C653.758 629.9 659.058 622.8 659.058 611.5C659.058 600.1 653.758 593.1 645.158 593.1C635.958 593.1 631.058 601.5 631.058 611.5C631.058 621.5 635.958 629.9 645.158 629.9ZM86.1 685.5H98V746.9H133.7V757H86.1V685.5ZM159.897 749.9C168.597 749.9 172.097 744.5 172.997 741.4H183.497C180.897 751.1 173.297 758.5 160.197 758.5C144.297 758.5 134.597 747.5 134.597 731.5C134.597 714.9 144.297 704.5 159.697 704.5C176.197 704.5 184.297 716 184.297 734.2H145.097C145.097 742.8 150.597 749.9 159.897 749.9ZM159.697 712.8C151.197 712.8 145.097 718.5 145.097 726.4H173.797C173.797 718.5 168.197 712.8 159.697 712.8ZM183.324 705.9H194.424L207.324 745.9H207.424L220.324 705.9H231.424L213.324 757H201.424L183.324 705.9ZM255.799 749.9C264.499 749.9 267.999 744.5 268.899 741.4H279.399C276.799 751.1 269.199 758.5 256.099 758.5C240.199 758.5 230.499 747.5 230.499 731.5C230.499 714.9 240.199 704.5 255.599 704.5C272.099 704.5 280.199 716 280.199 734.2H240.999C240.999 742.8 246.499 749.9 255.799 749.9ZM255.599 712.8C247.099 712.8 240.999 718.5 240.999 726.4H269.699C269.699 718.5 264.099 712.8 255.599 712.8ZM309.698 704.7C311.498 704.7 312.798 704.8 314.298 705V714.9H314.098C303.998 713.2 295.898 720 295.898 730.9V757H285.398V705.9H295.898V715.5H296.098C298.798 709.1 302.998 704.7 309.698 704.7ZM348.185 719.3C348.185 715.6 345.985 712.8 338.985 712.8C330.585 712.8 327.485 715.4 326.985 722H316.785C317.285 712.2 323.585 704.5 338.985 704.5C350.285 704.5 358.685 708.8 358.685 722.4V746.7C358.685 750.3 359.485 752.2 363.585 751.8V756.8C361.185 757.7 359.485 757.9 357.485 757.9C351.885 757.9 349.285 755.9 348.285 750.9H348.085C344.885 755.4 339.085 758.5 331.185 758.5C320.785 758.5 314.385 752.5 314.385 743.9C314.385 732.7 322.685 729.2 335.485 726.7C343.385 725.2 348.185 724.2 348.185 719.3ZM333.485 750.2C342.185 750.2 348.185 745.9 348.185 737.6V729.9C346.485 731.1 342.385 732.3 337.485 733.3C328.785 735.2 324.985 737.7 324.985 742.9C324.985 747.6 327.785 750.2 333.485 750.2ZM403.127 705.9H413.627V753.5C413.627 768.2 404.727 774.7 390.227 774.7C375.527 774.7 367.427 767 366.327 758.4H376.927C377.927 762.9 381.527 766.3 389.827 766.3C398.627 766.3 403.127 762.3 403.127 753.1V746.9H402.927C400.227 750.7 395.527 754.5 387.427 754.5C374.627 754.5 365.027 745.6 365.027 729.5C365.027 713.3 374.627 704.5 387.427 704.5C395.527 704.5 400.227 708.3 402.927 711.9H403.127V705.9ZM389.427 745.9C397.927 745.9 403.027 740.3 403.027 729.5C403.027 718.7 397.927 713.1 389.427 713.1C380.227 713.1 375.527 720 375.527 729.5C375.527 738.9 380.227 745.9 389.427 745.9ZM427.486 697.3C424.586 697.3 421.586 695.3 421.586 691.7C421.586 688.1 424.586 686.2 427.486 686.2C430.586 686.2 433.486 688.1 433.486 691.7C433.486 695.3 430.586 697.3 427.486 697.3ZM422.286 705.9H432.786V757H422.286V705.9ZM468.961 704.5C478.461 704.5 485.961 710 485.961 721.7V757H475.361V724.7C475.361 717.8 472.461 713.4 465.261 713.4C457.161 713.4 451.961 718.3 451.961 725.9V757H441.461V705.9H451.961V712.5H452.161C454.861 708.5 460.161 704.5 468.961 704.5ZM528.963 705.9H539.463V753.5C539.463 768.2 530.563 774.7 516.063 774.7C501.363 774.7 493.263 767 492.163 758.4H502.763C503.763 762.9 507.363 766.3 515.663 766.3C524.463 766.3 528.963 762.3 528.963 753.1V746.9H528.763C526.063 750.7 521.363 754.5 513.263 754.5C500.463 754.5 490.863 745.6 490.863 729.5C490.863 713.3 500.463 704.5 513.263 704.5C521.363 704.5 526.063 708.3 528.763 711.9H528.963V705.9ZM515.263 745.9C523.763 745.9 528.863 740.3 528.863 729.5C528.863 718.7 523.763 713.1 515.263 713.1C506.063 713.1 501.363 720 501.363 729.5C501.363 738.9 506.063 745.9 515.263 745.9ZM565.565 757V685.5H593.365C613.065 685.5 625.165 698.3 625.165 721.3C625.165 744.3 613.465 757 593.665 757H565.565ZM577.465 695.6V746.9H592.765C608.765 746.9 613.265 735 613.265 721.3C613.265 707.6 608.765 695.6 592.765 695.6H577.465ZM661.724 719.3C661.724 715.6 659.524 712.8 652.524 712.8C644.124 712.8 641.024 715.4 640.524 722H630.324C630.824 712.2 637.124 704.5 652.524 704.5C663.824 704.5 672.224 708.8 672.224 722.4V746.7C672.224 750.3 673.024 752.2 677.124 751.8V756.8C674.724 757.7 673.024 757.9 671.024 757.9C665.424 757.9 662.824 755.9 661.824 750.9H661.624C658.424 755.4 652.624 758.5 644.724 758.5C634.324 758.5 627.924 752.5 627.924 743.9C627.924 732.7 636.224 729.2 649.024 726.7C656.924 725.2 661.724 724.2 661.724 719.3ZM647.024 750.2C655.724 750.2 661.724 745.9 661.724 737.6V729.9C660.024 731.1 655.924 732.3 651.024 733.3C642.324 735.2 638.524 737.7 638.524 742.9C638.524 747.6 641.324 750.2 647.024 750.2ZM704.689 714.5H695.089V742.2C695.089 748 697.889 748.7 704.689 748.3V756.9C702.589 757.4 700.289 757.7 697.489 757.7C689.089 757.7 684.489 753.9 684.489 743.1V714.5H677.089V705.9H684.489V689.8H695.089V705.9H704.689V714.5ZM741.513 719.3C741.513 715.6 739.313 712.8 732.313 712.8C723.913 712.8 720.813 715.4 720.313 722H710.113C710.613 712.2 716.913 704.5 732.313 704.5C743.613 704.5 752.013 708.8 752.013 722.4V746.7C752.013 750.3 752.813 752.2 756.913 751.8V756.8C754.513 757.7 752.813 757.9 750.813 757.9C745.213 757.9 742.613 755.9 741.613 750.9H741.413C738.213 755.4 732.413 758.5 724.513 758.5C714.113 758.5 707.713 752.5 707.713 743.9C707.713 732.7 716.013 729.2 728.813 726.7C736.713 725.2 741.513 724.2 741.513 719.3ZM726.813 750.2C735.513 750.2 741.513 745.9 741.513 737.6V729.9C739.813 731.1 735.713 732.3 730.813 733.3C722.113 735.2 718.313 737.7 718.313 742.9C718.313 747.6 721.113 750.2 726.813 750.2Z" fill="white"/>
<defs>
<linearGradient id="paint0_linear_271_611" x1="1132.45" y1="0.000864337" x2="1.38111e-07" y2="-0.0120815" gradientUnits="userSpaceOnUse">
<stop stop-color="#E3E5E8"/>
<stop offset="1" stop-color="#E3E5E8" stop-opacity="0.4"/>
</linearGradient>
<linearGradient id="paint1_linear_271_611" x1="1920" y1="791.001" x2="1078" y2="790.994" gradientUnits="userSpaceOnUse">
<stop stop-color="#E3E5E8"/>
<stop offset="1" stop-color="#E3E5E8" stop-opacity="0.4"/>
</linearGradient>
<linearGradient id="paint2_linear_271_611" x1="1132.45" y1="0.000864337" x2="1.38111e-07" y2="-0.0120815" gradientUnits="userSpaceOnUse">
<stop stop-color="#E3E5E8"/>
<stop offset="1" stop-color="#E3E5E8" stop-opacity="0.4"/>
</linearGradient>
<linearGradient id="paint3_linear_271_611" x1="1335" y1="251.999" x2="1920" y2="252.003" gradientUnits="userSpaceOnUse">
<stop stop-color="#E3E5E8"/>
<stop offset="1" stop-color="#E3E5E8" stop-opacity="0.4"/>
</linearGradient>
<linearGradient id="paint4_linear_271_611" x1="1888" y1="140" x2="1887.99" y2="967" gradientUnits="userSpaceOnUse">
<stop stop-color="#E3E5E8"/>
<stop offset="1" stop-color="#E3E5E8" stop-opacity="0.4"/>
</linearGradient>
<linearGradient id="paint5_linear_271_611" x1="179" y1="0.000864337" x2="-9.77362e-10" y2="0.000540896" gradientUnits="userSpaceOnUse">
<stop stop-color="#E3E5E8"/>
<stop offset="1" stop-color="#E3E5E8" stop-opacity="0.4"/>
</linearGradient>
<linearGradient id="paint6_linear_271_611" x1="1200" y1="672" x2="1200" y2="851" gradientUnits="userSpaceOnUse">
<stop stop-color="#E3E5E8"/>
<stop offset="1" stop-color="#E3E5E8" stop-opacity="0.4"/>
</linearGradient>
<linearGradient id="paint7_linear_271_611" x1="1576.04" y1="455" x2="1568.7" y2="599.206" gradientUnits="userSpaceOnUse">
<stop stop-color="#0B3CFF" stop-opacity="0.08"/>
<stop offset="1" stop-color="#0B8AFF" stop-opacity="0"/>
</linearGradient>
<linearGradient id="paint8_linear_271_611" x1="1271.42" y1="475" x2="1275.82" y2="580.467" gradientUnits="userSpaceOnUse">
<stop stop-color="#0B3CFF" stop-opacity="0.16"/>
<stop offset="1" stop-color="#0B8AFF" stop-opacity="0"/>
</linearGradient>
<linearGradient id="paint9_linear_271_611" x1="1335.95" y1="501" x2="1337.65" y2="548.482" gradientUnits="userSpaceOnUse">
<stop stop-color="#0B3CFF"/>
<stop offset="1" stop-color="#0B8AFF"/>
</linearGradient>
<linearGradient id="paint10_linear_271_611" x1="1127.4" y1="704" x2="1142.42" y2="759.067" gradientUnits="userSpaceOnUse">
<stop stop-color="#0B3CFF" stop-opacity="0.16"/>
<stop offset="1" stop-color="#0B8AFF" stop-opacity="0"/>
</linearGradient>
<linearGradient id="paint11_linear_271_611" x1="1385.4" y1="286" x2="1400.42" y2="341.067" gradientUnits="userSpaceOnUse">
<stop stop-color="#0B3CFF" stop-opacity="0.16"/>
<stop offset="1" stop-color="#0B8AFF" stop-opacity="0"/>
</linearGradient>
<linearGradient id="paint12_linear_271_611" x1="1688.41" y1="674" x2="1682.1" y2="798.059" gradientUnits="userSpaceOnUse">
<stop stop-color="#0B3CFF" stop-opacity="0.08"/>
<stop offset="1" stop-color="#0B8AFF" stop-opacity="0"/>
</linearGradient>
<linearGradient id="paint13_linear_271_611" x1="1426.27" y1="691" x2="1430.05" y2="781.702" gradientUnits="userSpaceOnUse">
<stop stop-color="#0B3CFF" stop-opacity="0.16"/>
<stop offset="1" stop-color="#0B8AFF" stop-opacity="0"/>
</linearGradient>
<linearGradient id="paint14_linear_271_611" x1="1505.53" y1="715" x2="1507.4" y2="751.883" gradientUnits="userSpaceOnUse">
<stop stop-color="#0B3CFF"/>
<stop offset="1" stop-color="#0B8AFF"/>
</linearGradient>
<linearGradient id="paint15_linear_271_611" x1="1762.88" y1="255" x2="1752.57" y2="378.519" gradientUnits="userSpaceOnUse">
<stop stop-color="#0B3CFF" stop-opacity="0.08"/>
<stop offset="1" stop-color="#0B8AFF" stop-opacity="0"/>
</linearGradient>
<linearGradient id="paint16_linear_271_611" x1="1603.27" y1="272" x2="1609.44" y2="362.438" gradientUnits="userSpaceOnUse">
<stop stop-color="#0B3CFF" stop-opacity="0.16"/>
<stop offset="1" stop-color="#0B8AFF" stop-opacity="0"/>
</linearGradient>
<linearGradient id="paint17_linear_271_611" x1="1635.57" y1="296" x2="1637.47" y2="332.88" gradientUnits="userSpaceOnUse">
<stop stop-color="#0B3CFF"/>
<stop offset="1" stop-color="#0B8AFF"/>
</linearGradient>
<clipPath id="clip0_271_611">
<rect width="1132" height="799.194" fill="white" transform="translate(788 140)"/>
</clipPath>
</defs>
</svg>
