<svg viewBox="0 0 499.1 499.1" xmlns="http://www.w3.org/2000/svg"><rect height="498.1" rx="95.87" stroke="#000" stroke-miterlimit="10" width="498.1" x=".5" y=".5"/><path d="m251.71 46.87c-12.94 24.1-25.89 48.19-38.84 72.29.91.59 19.19 12.8 18.1 32.93-.56 10.35-5.97 17.6-8.39 20.48-6.16 6.03-18.49 16.08-36.15 18.34-4.32.55-29.36 3.75-35.32-9.12-4.23-9.14 3.75-20.78 5.11-22.71-16.37-13.31-32.73-26.61-49.09-39.92l19.42 74.45-.54 78.76 12.94 23.2v61.5c3 7.39 8.34 18.01 17.8 28.59 7.17 8.02 14.5 13.56 20.29 17.26 1.15-44.96 2.29-89.91 3.44-134.87 3.61-10.15 13.07-16.87 23.2-16.72 11.75.16 22.17 9.53 23.74 22.12l2.16 160.22 21.04 14.02 23.74-13.48-2.7-160.22c1.26-12.14 11.25-21.56 23.2-22.12 12.38-.58 23.48 8.53 25.35 21.04v132.57c6.26-3.54 15.63-9.86 24.28-20.36 10.26-12.46 14.71-24.99 16.72-32.37 0-19.06 2.19-43.48 1.96-62l11.52-18.38s1.99-82.94 1.89-91.17c1.53-10.08 12.27-53.12 15.38-62.04-16.18 12.77-32.37 25.53-48.55 38.3 8.97 15.59 7.8 21.73 5.66 24.55-9.91 13.03-68.85-4.5-68.83-4.51.39-.24-8.22-18.55-9.67-28.66-.95-6.66 1.4-16.18 15.1-29.13-11.33-24.28-22.66-48.55-33.99-72.83h.02s0 0 0 0z" fill="#fff"/></svg>