<svg fill="none" height="25" viewBox="0 0 146 25" width="146" xmlns="http://www.w3.org/2000/svg"><path d="m4.94318.727272v23.272728h-4.9204527v-23.272728zm4.0483 0h6.06822l6.4091 15.636328h.2727l6.4091-15.636328h6.0682v23.272728h-4.7728v-15.14773h-.1932l-6.0227 15.03413h-3.25l-6.0227-15.09095h-.1932v15.20455h-4.77272zm29.28122 23.272728v-23.272728h9.3182c1.7121 0 3.1402.253788 4.2841.761368 1.1439.50757 2.0038 1.21212 2.5795 2.11363.5758.89394.8637 1.92425.8637 3.09091 0 .90909-.1818 1.70834-.5455 2.39773-.3636.68182-.8636 1.24239-1.5 1.68179-.6288.4318-1.3485.7387-2.1591.9205v.2273c.8864.0378 1.7159.2878 2.4887.75.7803.4621 1.4129 1.1098 1.8977 1.9431.4848.8258.7273 1.8106.7273 2.9546 0 1.2348-.3068 2.3371-.9205 3.3068-.606.9621-1.5038 1.7235-2.6932 2.2841s-2.6553.8409-4.3977.8409zm4.9205-4.0227h4.0113c1.3713 0 2.3713-.2614 3-.7841.6288-.5303.9432-1.2349.9432-2.1137 0-.6439-.1553-1.2121-.4659-1.7045s-.7538-.8788-1.3295-1.1591c-.5682-.2803-1.2462-.4204-2.0341-.4204h-4.125zm0-9.5114h3.6477c.6743 0 1.2727-.1174 1.7955-.3523.5303-.24239.9469-.5833 1.25-1.02269.3106-.43939.4659-.96591.4659-1.57955 0-.84091-.2993-1.51894-.8978-2.03409-.5909-.51515-1.4318-.77273-2.5227-.77273h-3.7386zm20.2471 13.5341h-5.2727l8.0341-23.272728h6.3409l8.0227 23.272728h-5.2727l-5.8295-17.95455h-.1819zm-.3295-9.1477h12.4545v3.8409h-12.4545zm32.3494-7.43185c-.0909-.91666-.481-1.62878-1.1704-2.13636s-1.625-.76136-2.8068-.76136c-.8031 0-1.4811.11363-2.0341.34091-.5531.21969-.9773.52651-1.2728.92045-.2878.39394-.4318.84091-.4318 1.34091-.0151.41667.072.7803.2614 1.09091.197.31061.4659.57954.8068.80682.3409.21969.7348.41288 1.1818.57954.447.15909.9243.29546 1.4318.40913l2.0909.5c1.0152.2272 1.947.5303 2.7955.9091.8485.3787 1.5833.8447 2.2045 1.3977.6213.553 1.1023 1.2045 1.4432 1.9545.3488.75.5268 1.6099.5338 2.5796-.007 1.4242-.371 2.6591-1.0906 3.7045-.7121 1.0379-1.7424 1.8447-3.0909 2.4205-1.3409.5682-2.9583.8522-4.8523.8522-1.8788 0-3.5151-.2878-4.9091-.8636-1.3863-.5757-2.4697-1.428-3.25-2.5568-.7727-1.1364-1.178-2.5417-1.2159-4.2159h4.7614c.053.7803.2765 1.4318.6704 1.9545.4016.5152.9357.9053 1.6023 1.1705.6743.2576 1.4356.3863 2.2841.3863.8333 0 1.5568-.1212 2.1705-.3636.6212-.2424 1.1022-.5795 1.4431-1.0114.341-.4318.5114-.928.5114-1.4886 0-.5227-.1553-.9621-.4659-1.3182-.303-.356-.75-.6591-1.3409-.9091-.5833-.25-1.2993-.4772-2.1477-.6818l-2.5341-.6363c-1.9621-.4773-3.5114-1.2235-4.6478-2.2387-1.1363-1.0151-1.7007-2.38256-1.6931-4.10226-.0076-1.40909.3674-2.64015 1.125-3.69318.7651-1.05303 1.8144-1.875 3.1477-2.46591 1.3333-.590905 2.8485-.88636 4.5454-.88636 1.7273 0 3.2349.295455 4.5228.88636 1.2954.59091 2.303 1.41288 3.0227 2.46591s1.0905 2.27273 1.1135 3.65909zm20.9688 0c-.091-.91666-.481-1.62878-1.17-2.13636-.69-.50758-1.625-.76136-2.807-.76136-.803 0-1.481.11363-2.034.34091-.553.21969-.978.52651-1.273.92045-.288.39394-.432.84091-.432 1.34091-.015.41667.072.7803.261 1.09091.197.31061.466.57954.807.80682.341.21969.735.41288 1.182.57954.447.15909.924.29546 1.432.40913l2.091.5c1.015.2272 1.947.5303 2.795.9091.849.3787 1.584.8447 2.205 1.3977s1.102 1.2045 1.443 1.9545c.348.75.526 1.6099.534 2.5796-.008 1.4242-.371 2.6591-1.091 3.7045-.712 1.0379-1.742 1.8447-3.091 2.4205-1.341.5682-2.958.8522-4.852.8522-1.879 0-3.515-.2878-4.909-.8636-1.386-.5757-2.47-1.428-3.25-2.5568-.773-1.1364-1.178-2.5417-1.216-4.2159h4.761c.053.7803.277 1.4318.671 1.9545.401.5152.935.9053 1.602 1.1705.674.2576 1.436.3863 2.284.3863.833 0 1.557-.1212 2.171-.3636.621-.2424 1.102-.5795 1.443-1.0114.341-.4318.511-.928.511-1.4886 0-.5227-.155-.9621-.466-1.3182-.303-.356-.75-.6591-1.341-.9091-.583-.25-1.299-.4772-2.147-.6818l-2.534-.6363c-1.963-.4773-3.512-1.2235-4.648-2.2387-1.137-1.0151-1.701-2.38256-1.693-4.10226-.008-1.40909.367-2.64015 1.125-3.69318.765-1.05303 1.814-1.875 3.147-2.46591 1.334-.590905 2.849-.88636 4.546-.88636 1.727 0 3.235.295455 4.523.88636 1.295.59091 2.303 1.41288 3.022 2.46591.72 1.05303 1.091 2.27273 1.114 3.65909zm6.98-6.693178h5.511l5.307 10.022728h.228l5.306-10.022728h5.512l-8.489 15.045428v8.2273h-4.886v-8.2273z" fill="#fff"/></svg>