<?xml version="1.0" encoding="UTF-8"?><svg id="a" xmlns="http://www.w3.org/2000/svg" viewBox="0 0 1150.73 282.46"><defs><style>.b{stroke-width:0px;}.c{isolation:isolate;}</style></defs><g class="c"><g class="c"><path class="b" d="M16.05,40.12h40.12v187.24H16.05V40.12Z"/><path class="b" d="M88,40.12h52.69l51.89,137.49,50.29-137.49h51.62v187.24h-38.25v-125.45l-48.68,125.45h-32.63l-48.68-125.45v125.45h-38.25V40.12Z"/></g><g class="c"><path class="b" d="M326.6,40.12h71.15c43.33,0,68.48,18.19,68.48,49.49,0,23.54-13.91,36.91-35.31,41.46,24.88,3.21,42,16.32,42,43.07,0,32.63-25.68,53.23-71.69,53.23h-74.63V40.12ZM366.72,71.68v45.47h32.1c17.12,0,27.28-8.83,27.28-22.74s-9.9-22.74-27.28-22.74h-32.1ZM366.72,148.19v47.34h34.77c19.26,0,30.23-8.83,30.23-23.27,0-15.25-11.23-24.07-30.23-24.07h-34.77Z"/></g><g class="c"><path class="b" d="M475.59,227.36l68.48-187.24h48.15l67.94,187.24h-43.06l-14.44-40.93h-71.15l-14.44,40.93h-41.46ZM542.2,154.07h49.49l-24.88-71.15-24.61,71.15Z"/></g><g class="c"><path class="b" d="M702.42,166.37c1.34,18.19,15.78,30.76,38.79,30.76,18.46,0,32.1-8.03,32.1-22.74,0-15.78-15.25-18.99-46.54-25.14-31.56-5.88-59.38-16.05-59.38-54.03,0-33.17,27.55-56.71,69.81-56.71s72.22,23,72.76,58.85h-39.32c-1.87-15.78-13.91-26.75-33.44-26.75-17.12,0-29.42,7.22-29.42,21.67,0,15.25,14.71,18.46,45.74,24.34,32.1,5.88,60.45,15.51,60.18,53.23-.27,35.04-29.16,59.11-73.02,59.11-47.61,0-77.3-25.14-77.57-63.13l39.32.53Z"/></g><g class="c"><path class="b" d="M867.46,166.37c1.34,18.19,15.78,30.76,38.79,30.76,18.46,0,32.1-8.03,32.1-22.74,0-15.78-15.25-18.99-46.54-25.14-31.56-5.88-59.38-16.05-59.38-54.03,0-33.17,27.55-56.71,69.81-56.71s72.22,23,72.76,58.85h-39.32c-1.87-15.78-13.91-26.75-33.44-26.75-17.12,0-29.42,7.22-29.42,21.67,0,15.25,14.71,18.46,45.74,24.34,32.1,5.88,60.45,15.51,60.18,53.23-.27,35.04-29.16,59.11-73.02,59.11-47.61,0-77.3-25.14-77.57-63.13l39.32.53Z"/></g><g class="c"><path class="b" d="M973.12,40.12h46.81l42,76.77,44.13-76.77h44.67l-68.74,117.69v69.55h-40.12v-69.55l-68.74-117.69Z"/></g></g></svg>