<?xml version="1.0" encoding="utf-8"?>
<!-- Generator: Adobe Illustrator 28.1.0, SVG Export Plug-In . SVG Version: 6.00 Build 0)  -->
<svg version="1.1" baseProfile="tiny" id="Layer_1" xmlns="http://www.w3.org/2000/svg" xmlns:xlink="http://www.w3.org/1999/xlink"
	 x="0px" y="0px" viewBox="0 0 6715 1903" overflow="visible" xml:space="preserve">
<path display="none" fill-rule="evenodd" fill="#F6FFF8" d="M5956.3,1202.9H5670c2.8,73.3,18.9,133.6,49.2,182.2
	s71.4,89,118.6,118.6s98.5,50.9,159.1,63.6s124.6,20.2,188,20.2c62,0,122.3-8.3,182.2-20.2c59.9-12,112.6-31.1,159.1-60.7
	s83.9-70,112.8-118.6s43.4-107.4,43.4-179.3c0-50.7-9.2-95.6-28.9-130.2c-19.7-34.5-45.7-63.5-78.1-86.8s-68.3-40.9-109.9-55
	s-86.5-24.8-130.2-34.7c-42.3-9.9-83.5-20.5-124.4-28.9c-40.9-8.5-75.3-18.4-107-28.9c-31.7-10.6-58.4-23.6-78.1-40.5
	s-28.9-39.7-28.9-66.5c0-22.6,6.1-38.7,17.4-52.1s24.3-24.8,40.5-31.8s32.3-12.3,52.1-14.5c19.7-2.1,38-2.9,55-2.9
	c53.6,0,102.3,11.4,141.7,31.8c39.5,20.4,59.4,57.9,63.6,115.7h286.3c-5.6-67.7-23.2-123.4-52.1-167.8s-63.3-80.2-107-107
	s-94.7-43.7-150.4-55s-114.3-17.4-173.5-17.4s-117.2,3.9-173.5,14.5c-56.4,10.6-105.3,28.9-150.4,55s-82.4,61.9-109.9,107
	s-40.5,103.1-40.5,173.5c0,47.9,9.2,88.4,28.9,121.5s45.7,62,78.1,83.9c32.4,21.8,71.2,38.7,112.8,52.1s83.6,24.8,127.3,34.7
	c107.1,22.6,188.8,44,248.7,66.5c59.9,22.6,92.6,59,92.6,104.1c0,26.8-7.6,48.9-20.2,66.5c-12.7,17.6-30.1,29.9-49.2,40.5
	c-19,10.6-37.5,18.2-60.7,23.1c-23.3,4.9-45.4,8.7-66.5,8.7c-29.6,0-59.3-4.5-86.8-11.6c-27.5-7-51.2-17-72.3-31.8
	s-38.7-34.6-52.1-57.8C5963.1,1263.6,5956.3,1235.4,5956.3,1202.9L5956.3,1202.9z M5207.2,48.9v1509.8H5508V48.9H5207.2z
	 M4741.5,893.5h-488.8c1.4-21.1,6.7-42.6,14.5-69.4s21.5-54.1,40.5-78.1s43.5-44.5,75.2-60.7s73.6-23.1,121.5-23.1
	c73.3,0,126,21.3,162,60.7C4702.2,762.3,4727.4,817.3,4741.5,893.5L4741.5,893.5z M4252.7,1084.4h789.6c5.6-84.6-0.5-165.4-20.2-243
	c-19.7-77.5-53.9-144.7-98.3-205.4c-44.4-60.6-98.7-111.6-167.8-147.5s-149.9-52.1-243-52.1c-83.2,0-160.1,13.8-228.5,43.4
	s-127.1,70-176.4,121.5c-49.3,51.4-88.9,111.7-115.7,182.2s-37.6,146.7-37.6,228.5c0,84.6,11.5,163.8,37.6,234.3
	s64.9,131.5,112.8,182.2c47.9,50.7,104.5,88.2,173.5,115.7c69.1,27.5,148.3,43.4,234.3,43.4c124,0,227.9-30.4,315.3-86.8
	s151.5-149.5,193.8-280.6h-263.2c-9.9,33.8-37.3,65.1-81,95.4s-95.6,46.3-156.2,46.3c-84.6,0-148.7-22.8-193.8-66.5
	C4282.8,1251.8,4256.9,1181.6,4252.7,1084.4L4252.7,1084.4z M2988.8,1012c-0.8-46.3,5.3-88.6,14.5-130.2s25.1-76.8,46.3-109.9
	c21.1-33.1,47.2-61.3,81-81s75-28.9,124.4-28.9c46.5,0,88.4,10.7,121.5,31.8s58.4,50,78.1,83.9c19.7,33.8,34.2,70.5,43.4,112.8
	s14.5,85,14.5,127.3c0,45.1-5.3,88.6-14.5,130.2s-22.9,78.2-43.4,109.9c-20.4,31.7-47.9,56.2-81,75.2s-75,28.9-124.4,28.9
	s-91.2-9.2-124.4-28.9c-33.1-19.7-57.7-47.9-78.1-81s-34.9-68.3-43.4-109.9S2988.8,1055.7,2988.8,1012L2988.8,1012z M3802.5,1888.8
	l-1-1423.4h-286.3v138.8h-2.9c-33.8-60.6-81.8-104.1-141.7-130.2s-123.2-37.6-190.9-37.6c-83.2,0-155.6,16.7-216.9,49.2
	c-61.3,32.4-112.4,75.9-153.3,130.2s-69.9,114.6-89.7,185.1c-19.7,70.5-31.8,145.1-31.8,219.8c0,105.7,16.7,193.5,46.3,266.1
	s67.7,132,112.8,176.4s93.2,76.4,147.5,95.4s108.3,28.9,159.1,28.9c67.7,0,133.2-15.1,196.7-40.5c63.4-25.4,112.3-68.1,147.5-127.3
	h2.9l-2.2,468.9h303.9L3802.5,1888.8z M1973.6,465.4v1093.3h297.9V1067c0-49.3,7.5-96.5,17.4-138.8s25.9-78.2,49.2-109.9
	s54.5-56.9,92.6-75.2s83.9-28.9,138.8-28.9c18.3,0,38.1,0.8,57.8,2.9s35.1,5.9,49.2,8.7V445.2c-24-7-46.8-8.7-66.5-8.7
	c-38.1,0-74.7,6.1-109.9,17.4s-67.3,25.8-98.3,46.3c-31,20.4-57,46.3-81,75.2S2277,634.1,2263,668h-5.8V465.4L1973.6,465.4z
	 M1756.7,297.7V48.9h-300.8v248.7h300.8V297.7z M1455.9,465.4v1093.3h300.8V465.4H1455.9z M353.9,1058.3h-321
	c-1.4,93,16.8,172.4,52.1,240.1c35.2,67.7,81.8,124.1,141.7,167.8s130,75,208.2,95.4s159.8,31.8,243,31.8
	c102.9,0,190.8-13.6,269-37.6s143.8-55.3,196.7-98.3s94.7-94.1,121.5-153.3s40.5-124.7,40.5-193.8c0-84.6-19-154-55-208.2
	c-35.9-54.3-77.9-97.7-127.3-130.2c-49.3-32.4-100.4-54.6-150.4-69.4s-87.5-26.2-115.7-31.8c-94.4-24-172.9-42.3-231.4-57.8
	S523,579.3,489.9,563.8s-55.2-30.8-66.5-49.2C412,496.2,406,471.9,406,442.3c0-32.4,6.2-59.8,20.2-81c14.1-21.1,33.1-38,55-52.1
	c21.8-14.1,45.5-23.3,72.3-28.9s54.2-8.7,81-8.7c40.9,0,78.3,1.6,112.8,8.7c34.5,7,65.8,20.7,92.6,37.6s47.4,39.8,63.6,69.4
	s26.1,67.7,28.9,112.8h321c0-87.4-16-161.4-49.2-222.7c-33.1-61.3-76.7-113.8-133-153.3C1014.8,84.6,950,57.9,877.4,40.2
	c-72.6-17.6-149.6-26-228.5-26c-67.7,0-134.8,7.7-202.5,26S317.7,86,264.2,124.1c-53.6,38.1-97,87.5-130.2,144.6
	c-33,57.1-49.1,125-49.1,202.5c0,69.1,11.5,127.8,37.6,176.4s61.8,89.1,104.1,121.5s91.1,57.7,144.6,78.1
	c53.6,20.4,108.5,38,164.9,52.1c55,15.5,108.4,30.7,162,43.4s102.3,26.5,144.6,43.4s75.2,38.3,101.2,63.6
	c26.1,25.4,40.5,57.5,40.5,98.3c0,38.1-12.1,70.8-31.8,95.4c-19.7,24.7-42.7,43.8-72.3,57.8c-29.6,14.1-61.6,24-95.4,28.9
	s-65.8,5.8-95.4,5.8c-43.7,0-86.4-3.9-127.3-14.5s-76.7-27.3-107-49.2c-30.3-21.8-54-51.5-72.3-86.8
	C364.5,1150.3,353.9,1109.1,353.9,1058.3L353.9,1058.3z"/>
<g>
	<path d="M34.1,645.5h235.7v1099.7H34.1V645.5z"/>
	<path d="M456.7,645.5h309.5L1071,1453l295.4-807.5h303.2v1099.7h-224.7v-736.8L1159,1745.2H967.3l-285.9-736.8v736.8H456.7V645.5z"
		/>
	<path d="M1858.1,645.5H2276c254.5,0,402.2,106.8,402.2,290.6c0,138.3-81.7,216.8-207.4,243.5c146.1,18.9,246.7,95.8,246.7,252.9
		c0,191.7-150.8,312.6-421,312.6h-438.3V645.5z M2093.7,830.9V1098h188.5c100.5,0,160.2-51.8,160.2-133.5
		c0-81.7-58.1-133.5-160.2-133.5H2093.7z M2093.7,1280.2v278.1H2298c113.1,0,177.5-51.8,177.5-136.7c0-89.5-66-141.4-177.5-141.4
		H2093.7z"/>
	<path d="M2733.1,1745.2l402.2-1099.7h282.8l399,1099.7h-252.9l-84.8-240.4h-417.9l-84.8,240.4H2733.1z M3124.3,1314.8H3415
		l-146.1-417.9L3124.3,1314.8z"/>
	<path d="M4065.4,1387c7.9,106.8,92.7,180.7,227.8,180.7c108.4,0,188.5-47.1,188.5-133.5c0-92.7-89.6-111.5-273.4-147.7
		c-185.4-34.6-348.8-94.3-348.8-317.4c0-194.8,161.8-333.1,410-333.1c259.2,0,424.2,135.1,427.3,345.6H4466
		c-11-92.7-81.7-157.1-196.4-157.1c-100.5,0-172.8,42.4-172.8,127.3c0,89.5,86.4,108.4,268.6,143c188.5,34.6,355.1,91.1,353.5,312.6
		c-1.6,205.8-171.2,347.2-428.9,347.2c-279.6,0-454-147.7-455.6-370.8L4065.4,1387z"/>
	<path d="M5034.7,1387c7.9,106.8,92.7,180.7,227.8,180.7c108.4,0,188.5-47.1,188.5-133.5c0-92.7-89.6-111.5-273.4-147.7
		c-185.4-34.6-348.8-94.3-348.8-317.4c0-194.8,161.8-333.1,410-333.1c259.2,0,424.2,135.1,427.3,345.6h-230.9
		c-11-92.7-81.7-157.1-196.4-157.1c-100.5,0-172.8,42.4-172.8,127.3c0,89.5,86.4,108.4,268.6,143c188.5,34.6,355.1,91.1,353.5,312.6
		c-1.6,205.8-171.2,347.2-428.9,347.2c-279.6,0-454-147.7-455.6-370.8L5034.7,1387z"/>
	<path d="M5655.3,645.5h274.9l246.7,450.9l259.2-450.9h262.4l-403.8,691.3v408.5H6059v-408.5L5655.3,645.5z"/>
</g>
</svg>
