<svg viewBox="0 0 146 25" xmlns="http://www.w3.org/2000/svg"><path d="m34.1 645.5h235.7v1099.7h-235.7z"/><path d="m456.7 645.5h309.5l304.8 807.5 295.4-807.5h303.2v1099.7h-224.7v-736.8l-285.9 736.8h-191.7l-285.9-736.8v736.8h-224.7z"/><path d="m1858.1 645.5h417.9c254.5 0 402.2 106.8 402.2 290.6 0 138.3-81.7 216.8-207.4 243.5 146.1 18.9 246.7 95.8 246.7 252.9 0 191.7-150.8 312.6-421 312.6h-438.3v-1099.6zm235.6 185.4v267.1h188.5c100.5 0 160.2-51.8 160.2-133.5s-58.1-133.5-160.2-133.5h-188.5zm0 449.3v278.1h204.3c113.1 0 177.5-51.8 177.5-136.7 0-89.5-66-141.4-177.5-141.4z"/><path d="m2733.1 1745.2 402.2-1099.7h282.8l399 1099.7h-252.9l-84.8-240.4h-417.9l-84.8 240.4zm391.2-430.4h290.7l-146.1-417.9z"/><path d="m4065.4 1387c7.9 106.8 92.7 180.7 227.8 180.7 108.4 0 188.5-47.1 188.5-133.5 0-92.7-89.6-111.5-273.4-147.7-185.4-34.6-348.8-94.3-348.8-317.4 0-194.8 161.8-333.1 410-333.1 259.2 0 424.2 135.1 427.3 345.6h-230.8c-11-92.7-81.7-157.1-196.4-157.1-100.5 0-172.8 42.4-172.8 127.3 0 89.5 86.4 108.4 268.6 143 188.5 34.6 355.1 91.1 353.5 312.6-1.6 205.8-171.2 347.2-428.9 347.2-279.6 0-454-147.7-455.6-370.8z"/><path d="m5034.7 1387c7.9 106.8 92.7 180.7 227.8 180.7 108.4 0 188.5-47.1 188.5-133.5 0-92.7-89.6-111.5-273.4-147.7-185.4-34.6-348.8-94.3-348.8-317.4 0-194.8 161.8-333.1 410-333.1 259.2 0 424.2 135.1 427.3 345.6h-230.9c-11-92.7-81.7-157.1-196.4-157.1-100.5 0-172.8 42.4-172.8 127.3 0 89.5 86.4 108.4 268.6 143 188.5 34.6 355.1 91.1 353.5 312.6-1.6 205.8-171.2 347.2-428.9 347.2-279.6 0-454-147.7-455.6-370.8z"/><path d="m5655.3 645.5h274.9l246.7 450.9 259.2-450.9h262.4l-403.8 691.3v408.5h-235.7v-408.5z"/></svg>