<svg enable-background="new 0 0 6715 1903" viewBox="0 0 6715 1903" xmlns="http://www.w3.org/2000/svg"><path clip-rule="evenodd" d="m5956.3 1202.9h-286.3c2.8 73.3 18.9 133.6 49.2 182.2s71.4 89 118.6 118.6 98.5 50.9 159.1 63.6 124.6 20.2 188 20.2c62 0 122.3-8.3 182.2-20.2 59.9-12 112.6-31.1 159.1-60.7s83.9-70 112.8-118.6 43.4-107.4 43.4-179.3c0-50.7-9.2-95.6-28.9-130.2-19.7-34.5-45.7-63.5-78.1-86.8s-68.3-40.9-109.9-55-86.5-24.8-130.2-34.7c-42.3-9.9-83.5-20.5-124.4-28.9-40.9-8.5-75.3-18.4-107-28.9-31.7-10.6-58.4-23.6-78.1-40.5s-28.9-39.7-28.9-66.5c0-22.6 6.1-38.7 17.4-52.1s24.3-24.8 40.5-31.8 32.3-12.3 52.1-14.5c19.7-2.1 38-2.9 55-2.9 53.6 0 102.3 11.4 141.7 31.8 39.5 20.4 59.4 57.9 63.6 115.7h286.3c-5.6-67.7-23.2-123.4-52.1-167.8s-63.3-80.2-107-107-94.7-43.7-150.4-55-114.3-17.4-173.5-17.4-117.2 3.9-173.5 14.5c-56.4 10.6-105.3 28.9-150.4 55s-82.4 61.9-109.9 107-40.5 103.1-40.5 173.5c0 47.9 9.2 88.4 28.9 121.5s45.7 62 78.1 83.9c32.4 21.8 71.2 38.7 112.8 52.1s83.6 24.8 127.3 34.7c107.1 22.6 188.8 44 248.7 66.5 59.9 22.6 92.6 59 92.6 104.1 0 26.8-7.6 48.9-20.2 66.5-12.7 17.6-30.1 29.9-49.2 40.5-19 10.6-37.5 18.2-60.7 23.1-23.3 4.9-45.4 8.7-66.5 8.7-29.6 0-59.3-4.5-86.8-11.6-27.5-7-51.2-17-72.3-31.8s-38.7-34.6-52.1-57.8c-13.7-23-20.5-51.2-20.5-83.7zm-749.1-1154v1509.8h300.8v-1509.8zm-465.7 844.6h-488.8c1.4-21.1 6.7-42.6 14.5-69.4s21.5-54.1 40.5-78.1 43.5-44.5 75.2-60.7 73.6-23.1 121.5-23.1c73.3 0 126 21.3 162 60.7 35.8 39.4 61 94.4 75.1 170.6zm-488.8 190.9h789.6c5.6-84.6-.5-165.4-20.2-243-19.7-77.5-53.9-144.7-98.3-205.4-44.4-60.6-98.7-111.6-167.8-147.5s-149.9-52.1-243-52.1c-83.2 0-160.1 13.8-228.5 43.4s-127.1 70-176.4 121.5c-49.3 51.4-88.9 111.7-115.7 182.2s-37.6 146.7-37.6 228.5c0 84.6 11.5 163.8 37.6 234.3s64.9 131.5 112.8 182.2 104.5 88.2 173.5 115.7c69.1 27.5 148.3 43.4 234.3 43.4 124 0 227.9-30.4 315.3-86.8s151.5-149.5 193.8-280.6h-263.2c-9.9 33.8-37.3 65.1-81 95.4s-95.6 46.3-156.2 46.3c-84.6 0-148.7-22.8-193.8-66.5-45.1-43.6-71-113.8-75.2-211zm-1263.9-72.4c-.8-46.3 5.3-88.6 14.5-130.2s25.1-76.8 46.3-109.9c21.1-33.1 47.2-61.3 81-81s75-28.9 124.4-28.9c46.5 0 88.4 10.7 121.5 31.8s58.4 50 78.1 83.9c19.7 33.8 34.2 70.5 43.4 112.8s14.5 85 14.5 127.3c0 45.1-5.3 88.6-14.5 130.2s-22.9 78.2-43.4 109.9c-20.4 31.7-47.9 56.2-81 75.2s-75 28.9-124.4 28.9-91.2-9.2-124.4-28.9c-33.1-19.7-57.7-47.9-78.1-81s-34.9-68.3-43.4-109.9-14.5-86.5-14.5-130.2zm813.7 876.8-1-1423.4h-286.3v138.8h-2.9c-33.8-60.6-81.8-104.1-141.7-130.2s-123.2-37.6-190.9-37.6c-83.2 0-155.6 16.7-216.9 49.2-61.3 32.4-112.4 75.9-153.3 130.2s-69.9 114.6-89.7 185.1c-19.7 70.5-31.8 145.1-31.8 219.8 0 105.7 16.7 193.5 46.3 266.1s67.7 132 112.8 176.4 93.2 76.4 147.5 95.4 108.3 28.9 159.1 28.9c67.7 0 133.2-15.1 196.7-40.5 63.4-25.4 112.3-68.1 147.5-127.3h2.9l-2.2 468.9h303.9zm-1828.9-1423.4v1093.3h297.9v-491.7c0-49.3 7.5-96.5 17.4-138.8s25.9-78.2 49.2-109.9 54.5-56.9 92.6-75.2 83.9-28.9 138.8-28.9c18.3 0 38.1.8 57.8 2.9s35.1 5.9 49.2 8.7v-280.6c-24-7-46.8-8.7-66.5-8.7-38.1 0-74.7 6.1-109.9 17.4s-67.3 25.8-98.3 46.3c-31 20.4-57 46.3-81 75.2s-43.8 58.7-57.8 92.6h-5.8v-202.6zm-216.9-167.7v-248.8h-300.8v248.7h300.8zm-300.8 167.7v1093.3h300.8v-1093.3zm-1102 592.9h-321c-1.4 93 16.8 172.4 52.1 240.1 35.2 67.7 81.8 124.1 141.7 167.8s130 75 208.2 95.4 159.8 31.8 243 31.8c102.9 0 190.8-13.6 269-37.6s143.8-55.3 196.7-98.3 94.7-94.1 121.5-153.3 40.5-124.7 40.5-193.8c0-84.6-19-154-55-208.2-35.9-54.3-77.9-97.7-127.3-130.2-49.3-32.4-100.4-54.6-150.4-69.4s-87.5-26.2-115.7-31.8c-94.4-24-172.9-42.3-231.4-57.8s-102.8-33.7-135.9-49.2-55.2-30.8-66.5-49.2c-11.4-18.4-17.4-42.7-17.4-72.3 0-32.4 6.2-59.8 20.2-81 14.1-21.1 33.1-38 55-52.1 21.8-14.1 45.5-23.3 72.3-28.9s54.2-8.7 81-8.7c40.9 0 78.3 1.6 112.8 8.7 34.5 7 65.8 20.7 92.6 37.6s47.4 39.8 63.6 69.4 26.1 67.7 28.9 112.8h321c0-87.4-16-161.4-49.2-222.7-33.1-61.3-76.7-113.8-133-153.3-56.4-39.5-121.2-66.2-193.8-83.9-72.6-17.6-149.6-26-228.5-26-67.7 0-134.8 7.7-202.5 26s-128.7 45.8-182.2 83.9c-53.6 38.1-97 87.5-130.2 144.6-33 57.1-49.1 125-49.1 202.5 0 69.1 11.5 127.8 37.6 176.4s61.8 89.1 104.1 121.5 91.1 57.7 144.6 78.1c53.6 20.4 108.5 38 164.9 52.1 55 15.5 108.4 30.7 162 43.4s102.3 26.5 144.6 43.4 75.2 38.3 101.2 63.6c26.1 25.4 40.5 57.5 40.5 98.3 0 38.1-12.1 70.8-31.8 95.4-19.7 24.7-42.7 43.8-72.3 57.8-29.6 14.1-61.6 24-95.4 28.9s-65.8 5.8-95.4 5.8c-43.7 0-86.4-3.9-127.3-14.5s-76.7-27.3-107-49.2c-30.3-21.8-54-51.5-72.3-86.8-18.4-35.1-29-76.3-29-127.1z" fill="#f6fff8" fill-rule="evenodd"/></svg>