<svg fill="none" height="160" viewBox="0 0 160 160" width="160" xmlns="http://www.w3.org/2000/svg"><path d="m69.8995 14.1238 1.1952-.1771 1.2054-.1505.741-.0825 1.1963-.1216 1.2055-.0952 1.2136-.0689.6896-.0374 1.2015-.0416 1.2082-.0156.6533.0039 1.1938.0102 1.1992.0355 1.2037.0612 1.7778.1272 1.1898.1094 1.1927.1344 1.1947.159.5019.074 1.1737.1799 1.1748.2038 1.1748.2276 1.1742.2508 1.1734.2744.3828.0924 1.1487.2919 1.1464.3143 1.1436.337 1.1399.3594 1.136.3809 1.132.4031 1.126.4242.21.0805 1.098.4368 1.09.4571 1.084.4779 1.077.4977 1.068.5178 1.061.5371 1.05.5563 1.041.5754 1.031.5941 1.02.6124 1.009.6304.996.6482.984.6657.972.6825.958.6989.943.7154.93.7312.914.7468.171.1446.918.778.901.793.885.8075.867.8219.85.8355.831.8489.813.8619.265.2891.809.8916.789.9041.769.916.748.9274.727.9381.306.4016.719.9665.696.9767.673.9863.972 1.4903.638 1.022.613 1.0302.588 1.0376.318.5677.573 1.0631.546 1.0697.829 1.7127.501 1.0991.474 1.104.286.6861.453 1.1258.425 1.13m-72.6785-42.7533-.7685.1273-1.2017.2069-1.1898.2344-.792.1726-1.1938.265-1.1808.2925-.8119.2188-1.1818.3242-1.1672.3515-.8274.2655-1.166.3838-1.1496.4115-.8391.3124-1.1458.4441-1.1283.4716-.8467.3591-1.1218.5048-.8393.3999-1.1138.5379-1.0934.5657-.8399.4456-1.0829.5988-.8277.4853-1.0707.6317-1.0479.6595-.8218.5289-1.0332.6924-.8048.5663-1.017.7247-.992.7519-.7929.6077-.9733.7837-.7713.6425-.9529.8154-.748.6757-.931.8468-.9033.8727-.7278.7122-.8791.9027-.7006.7426-.8539.9322m39.5307-21.4688-1.1841.2041-1.1728.231-1.1601.2576-1.1473.2843-1.1336.3109-1.1189.3373-1.1041.3639-1.0886.39-1.072.4158-1.0554.4421-1.0374.4677-1.019.4931-1.0003.5187-.9807.5439-.9605.5688-.9396.5935-.9183.6179-.8964.6419-.8737.6658-.8507.6893-.8267.7125-.8024.7355-.7776.7579-.7519.7799-.7262.8018-.7.8234-.6729.844-.6452.8645-.6172.8848-.5889.9041-.5598.9234-.5307.9421-.5011.96-.4708.9775-.4404.9948-.4094 1.011-.378 1.0271-.3462 1.0424-.3144 1.0572-.2824 1.0713-.2497 1.0847-.2168 1.0977-.1842 1.1099-.1503 1.1215-.1172 1.1323-.0835 1.1427-.0494 1.1519-.0156 1.1609.0182 1.1691.0528 1.1762.0865 1.183.1212 1.1887.1555 1.194.1898 1.1984.2242 1.2017.2582 1.2048.2923 1.2065.3266 1.208.3604 1.2085.3942 1.2082.4279 1.2069.4617 1.2048.4946 1.2023.5275 1.1986.5602 1.1943.5925 1.189.6243 1.183.6563 1.1762.6879 1.1685.7185 1.1604.7491 1.1507.7792 1.141.8085 1.13.8377 1.1187.8663 1.1059.8941 1.0932.9217 1.079.9487 1.0642.9747 1.0487 1.0006 1.0328 1.0252 1.0158 1.0494.9982 1.0729.9801 1.0959.9608 1.118.9412 1.1394.9206 1.16.8999 1.1799.878 1.1986.8559 1.2168.8333 1.2341.8098 1.2506.7856 1.2662.761 1.2811.736 1.2949.7103 1.3076.684 1.3198.658 1.3311.631 1.3411.604 1.3505.576 1.3586.547 1.3661.519 1.3728.49 1.378.461 1.3828.431 1.3862.402 1.3888.372 1.3907.341 1.3913.311 1.391.281 1.3899.249 1.3876.22 1.3848.187 1.3808.158 1.3757.126 1.3698.095 1.363.063 1.356.033 1.347.001 1.337-.029 1.328-.061 1.315-.09 1.304-.122 1.292-.152 1.277-.183 1.262-.212 1.248-.243 1.231-.272 1.214-.302 1.197-.331 1.179-.359 1.159-.388 1.139-.417 1.119-.444 1.098-.471 1.076-.499 1.054-.525 1.031-.552 1.007-.577.983-.603.958-.628.933-.652.907-.676.881-.6992.854-.7225.827-.7445.799-.7664.772-.7877.743-.8086.714-.8287.685-.8483.656-.8673.626-.8856.596-.9033.566-.9206.535-.937.505-.9531.474-.9685.442-.9829.412-.9971.38-1.0104.348-1.0231.317-1.0354.286-1.0467.253-1.0574.222-1.0677.19-1.0773.158-1.086.127-1.0941.094-1.1016.063-1.1085.032-1.1147-.001-1.1201-.031-1.1252-.064-1.1294-.094-1.1329-.125-1.1356-.156-1.1383-.187-1.1396-.218-1.1405-.248-1.1411-.278-1.1407-.308-1.1397-.337-1.1385-.367-1.136-.396-1.1331m-112.2092-21.2845-.672.7712-.8271.9608-.7963.9854-.6444.8016-.7676 1.0129-.6127.8262-.7375 1.039-.5794.8494-.706 1.0646-.5451.8704-.6743 1.0886-.6404 1.1107-.51.8908-.607 1.1332-.473.9075-.5723 1.1541-.4353.9222-.5369 1.1737-.3964.935-.5006 1.1924-.4645 1.2108-.3567.9438-.4274 1.2269-.3161.9515-.3899 1.2416-.2755.9569-.3519 1.2544-.3144 1.2703-.2338.956-.2759 1.2805-.1924.9563-.2372 1.2893-.1509.9542-.1984 1.2967-.1603 1.3089-.1087.9429-.1215 1.3134m16.8098-39.0441-.8236.9574-.7931.9815-.7616 1.0056-.7299 1.0291-.6975 1.0518-.6645 1.0745-.6311 1.096-.5971 1.1172-.5627 1.138-.5278 1.1577-.4923 1.1774-.456 1.196-.42 1.2139-.3834 1.2315-.3459 1.2479-.3087 1.2638-.271 1.2791-.233 1.2935-.1944 1.3072-.1558 1.3199-.1166 1.3321-.0775 1.3434-.0383 1.3539.0012 1.3636.0408 1.372.0806 1.38.1203 1.3874.1606 1.393.2004 1.3984.2403 1.4029.2804 1.4061.3201 1.4086.3595 1.4103.3995 1.4109.439 1.4106.4785 1.4092.5175 1.4069.5565 1.4038.5951 1.3998.6331 1.3945.6714 1.3884.7088 1.3815.746 1.3734.7829 1.3644.8196 1.3545.8552 1.3437.8908 1.3318.9253 1.3191.9597 1.3054.9932 1.2907 1.0264 1.2751 1.0587 1.259 1.0905 1.241 1.1215 1.223 1.1515 1.204 1.1811 1.183 1.2096 1.164 1.2376 1.141 1.2647 1.118 1.2906 1.095 1.3161 1.071 1.3405 1.047 1.3638 1.02 1.3862.994 1.4077.967 1.4285.94 1.4478.911 1.4665.881 1.4838.852 1.5003.821 1.5156.791 1.5301.759 1.5431.728 1.5553.694 1.5661.662 1.5764.629 1.5851.594 1.5925.561 1.5993.525 1.6047.491 1.6089.456 1.6121.42 1.6141.385 1.6149.349 1.6149.312 1.6132.276 1.6113.24 1.6072.204 1.6027.167 1.5971.13 1.5899.093 1.582.057 1.5732.021 1.563-.016 1.5519-.053 1.5397-.088 1.527-.125 1.512-.161 1.497-.196 1.481-.232 1.465-.267 1.445-.302 1.428-.337 1.407-.371 1.387-.405 1.365-.438 1.343-.472 1.319-.504 1.296-.537 1.271-.569 1.245-.6 1.219-.63 1.192-.661 1.165-.691 1.137-.72 1.107-.749 1.078-.777 1.048-.804 1.018-.832.986-.857.955-.883.923-.908.89-.933.858-.956.823-.979.79-1.001.756-1.022.722-1.044.687-1.063.652-1.083.616-1.102.582-1.119.545-1.137.509-1.153.473-1.169.437-1.183m-129.398-27.1573-.0669.9356-.0829 1.3159-.0448 1.3256-.0256.9171-.0068 1.3256.0151.9044.0309 1.3236.0692 1.3307.0542.8786.1062 1.3261.2361 2.1801.1799 1.3239.1299.8281.2154 1.3145.252 1.3174.1646.7913.286 1.3052.3221 1.306.1966.7511.3545 1.2915.3901 1.2905m-2.7758-25.2828-.0833 1.3238-.0451 1.3341-.0066 1.3429.0318 1.351.071 1.3588.1095 1.3652.1487 1.3707.1876 1.3757.2264 1.3794.2656 1.3826.3042 1.3845.3428 1.3856.3817 1.386.4202 1.3851.4586 1.3836.4969 1.3811.5349 1.3775.5723 1.3732.6095 1.3675.647 1.362.6834 1.354.7199 1.346.7556 1.337.7915 1.327.8266 1.316.8609 1.303.8947 1.292.9285 1.277.9611 1.262.9935 1.247 1.0253 1.231 1.0561 1.213 1.0866 1.195 1.116 1.176 1.1447 1.156 1.1729 1.135 1.2003 1.114 1.2264 1.091 1.2526 1.068 1.2769 1.044 1.3011 1.02 1.324.994 1.3462.968 1.3672.941 1.3874.914 1.4066.886 1.4251.856 1.4421.828 1.4585.797 1.4736.767 1.4878.736 1.5009.705 1.513.673 1.5238.64 1.5341.607 1.5425.574 1.5505.54 1.5573.507 1.5624.472 1.5673.437 1.5707.403 1.5726.368 1.574.332 1.5741.297 1.5729.261 1.5709.225 1.5679.19 1.5635.153 1.5582.118 1.5519.082 1.5445.046 1.5358.01 1.5263-.026 1.5162-.062 1.5043-.097 1.492-.132 1.4784-.168 1.464-.203 1.4483-.237 1.4325-.272 1.4144-.307 1.397-.34 1.378-.374 1.358-.407 1.338-.44 1.315-.472 1.294-.505 1.27-.536 1.247-.567 1.222-.599 1.196-.628 1.171-.658 1.144-.687 1.117-.716m-100.6232-35.4855.2265.7065.4205 1.274.4558 1.27.2525.66.4841 1.251.5179 1.247.5516 1.241.2685.592.5769 1.219.6095 1.212.9197 1.725.664 1.178.6952 1.17.7259 1.159.2804.446.7443 1.131.7735 1.119.8022 1.107.2759.369.8172 1.076.8445 1.063.8712 1.049.8975 1.033.9228 1.018.2333.253.9319.985.9557.967.979.95 1.0017.931 1.0238.912 1.0451.893 1.0659.873.1365.108 1.0661.837 1.0848.815 1.103.794 1.1203.772 1.1371.749 1.1526.726 1.1677.703 1.1819.677 1.1952.654 1.208.628 1.2197.603 1.2307.577 1.2406.551 1.2497.524.1629.067 1.2812.506 1.2886.478 1.2956.45 1.3014.422 1.3062.393 1.3104.364 1.3136.335.3365.081 1.3385.311 1.34.281 1.3402.251 1.34.221 1.3385.189.4574.063 1.3578.162 1.355.131 1.3505.101.5275.028 1.3661.07 1.36.039 1.3533.007.5917-.01 1.3646-.025 1.3559-.057 1.3459-.089.6495-.052 1.3536-.122 1.3413-.154 1.3289-.185.7009-.099 1.3323-.22 1.3175-.252.7293-.145m-77.161-45.3375.426 1.2885.4611 1.286.4963 1.283.531 1.278.5655 1.273.5999 1.267.6339 1.259.6674 1.252.7007 1.243.7338 1.234.7659 1.223.7979 1.212.8295 1.199.86 1.187.8908 1.173.9205 1.158.9498 1.142.9787 1.127 1.0065 1.109 1.0338 1.091 1.0607 1.073 1.0863 1.054 1.1118 1.033 1.1362 1.012 1.16.99 1.183.969 1.2052.945 1.2264.921 1.2469.898 1.2665.872 1.2851.847 1.3034.821 1.3201.794 1.3359.766 1.3516.739 1.3652.71 1.3788.682 1.3908.652 1.4021.623 1.4126.592 1.4219.562 1.4299.531 1.4376.5 1.4438.468 1.4492.437 1.4534.404 1.4569.372 1.4588.34 1.4606.306 1.4605.274 1.46.24 1.4583.208 1.4557.174 1.4517.141 1.4473.107 1.4415.074 1.435.041 1.4273.008 1.4186-.027 1.4095-.058 1.3989-.092 1.3876-.125 1.3755-.158 1.3623-.19 1.3482-.223 1.3334-.254m0 0 1.3178-.287 1.3011-.318.7537-.192 1.2982-.353 1.2801-.385.7733-.24 1.274-.42 1.253-.451.789-.287 1.245-.487.788-.331 1.234-.521 1.21-.552.797-.378 1.196-.586 1.172-.616.8-.425 1.156-.65.79-.467 1.137-.682 1.111-.712.786-.512m0 0 1.089-.744.774-.551 1.066-.776 1.037-.803.762-.594 1.012-.833.744-.632.986-.862.724-.667.957-.892.926-.916.705-.704.896-.943.68-.737.865-.968.653-.769.833-.993.799-1.016.627-.799.765-1.038.597-.827.731-1.06.565-.852.697-1.08.532-.876.661-1.099.624-1.116.498-.898.588-1.133.463-.917.55-1.148.427-.935.513-1.161.39-.951.475-1.173.439-1.188.349-.96m0 0 .401-1.198.311-.9707.363-1.2057.271-.9801.325-1.2119.288-1.2236.23-.98.25-1.2278.189-.9838.213-1.2303.149-.9858.176-1.2309.14-1.2397.106-.9761.105-1.238.065-.9733.068-1.2348.033-1.2414.025-.9569-.002-1.236-.016-.9486-.036-1.2292-.07-1.2337-.056-.9257-.103-1.2244-.095-.9126-.135-1.2139-.167-1.2162-.132-.8831-.198-1.2037-.23-1.2043-.168-.8502-.258-1.1899-.29-1.1895-.201-.814-.317-1.1728-.348-1.1714-.231-.7746-.372-1.1527-.402-1.1498-.26-.7318m-95.3595-34.8593-1.0613.6263-1.0386.6536-1.0155.6805-.9918.7069-.9674.7332-.9421.7596-.916.7848-.8899.8103-.8629.8352-.8351.8596-.8071.8838-.7783.9075-.7489.9305-.7188.9531-.6884.9755-.6572.9971-.626 1.0187-.5936 1.039-.5613 1.0591-.5284 1.0787-.4949 1.0977-.4611 1.1162-.4265 1.1337-.3919 1.1507-.3569 1.1674-.3216 1.183-.2857 1.198-.25 1.2125-.2134 1.2261-.1771 1.2391-.1399 1.2513-.1027 1.2627-.0656 1.2734-.0283 1.2833.0093 1.2925.0471 1.3006.0849 1.308.1229 1.3148.1606 1.3207.1989 1.3253.2367 1.3298.2744 1.3327.3124 1.3352.3499 1.3369.3876 1.3372.4251 1.3369.4625 1.3358.4997 1.3338.5363 1.3306.5733 1.327.6092 1.3219.6453 1.3165.6807 1.3097.716 1.3021.7511 1.2938.7855 1.2842.8195 1.2742.8527 1.263.8857 1.251.9179 1.2383.9498 1.2244.9813 1.2096 1.0116 1.1944 1.0417 1.1776 1.0709 1.1606 1.0994 1.1425 1.1271 1.1238 1.1543 1.1042 1.1805 1.0835 1.206 1.063 1.2307 1.04 1.2545 1.018 1.2776.994 1.2996.97 1.3207.945 1.341.92 1.3604.894 1.3788.867 1.3962.839 1.4129.811 1.4281.783 1.4424.754 1.4563.724 1.4685.694 1.4799.663 1.49.632 1.4997.601 1.5077.569 1.515.537 1.5213.504 1.5261.471 1.5303.438 1.5329.405 1.5352.371 1.5358.337 1.5354.303 1.5343.268 1.5318.234 1.5284.201 1.5238.165 1.5184.131 1.512.096 1.5042.062 1.4954.027 1.4866-.008 1.475-.042 1.464-.076 1.452-.111 1.438-.144 1.423-.178 1.409-.212 1.392-.245 1.375-.279 1.357-.311 1.338-.344 1.319-.375 1.298-.408 1.277-.439 1.255-.471 1.233-.501 1.208-.531 1.185-.561 1.159-.591 1.134-.619 1.109-.648 1.08-.676 1.054-.703 1.026-.729.997-.757.968-.781.939-.807.908-.831.878-.855.847-.879.816-.9.784-.923.751-.944.72-.965.686-.985.654-1.004.62-1.023.586-1.0406.553-1.0578.519-1.0744.484-1.0903.45-1.1054.416-1.1198.381-1.1331.346-1.1465.312-1.1586.276-1.17.242-1.181.206-1.1909.172-1.2003.137-1.2091.103-1.2168.067-1.2238.033-1.2303m-127.6338-27.3504-.5012 1.1935-.4648 1.2119-.4285 1.2303-.3913 1.2477-.3541 1.2646-.3164 1.2802-.2787 1.2958-.24 1.31-.2015 1.3239-.1623 1.3366-.1232 1.3491-.0837 1.3602-.0443 1.3703-.0042 1.3803.0355 1.3888.0755 1.3967.1157 1.4038.1561 1.4097.1964 1.4151.2366 1.4191.277 1.4225.3169 1.4251.357 1.4262.397 1.4267.437 1.4265.4765 1.4251.5161 1.4225.5556 1.4191.5943 1.4148.6327 1.4095.6714 1.4032.7092 1.3961.7468 1.3877.7841 1.3785.8209 1.368.857 1.358.893 1.345.9277 1.332.9625 1.318.9966 1.303 1.0298 1.287 1.0627 1.271 1.0948 1.252 1.1259 1.234 1.1564 1.215 1.1864 1.194 1.2154 1.173 1.2434 1.151 1.2708 1.128 1.2973 1.104 1.323 1.08 1.3476 1.054 1.3714 1.028 1.3939 1.001 1.416.974 1.4367.946 1.4563.916 1.4753.887 1.4931.857 1.5097.826 1.5255.795 1.5397.763 1.5534.73 1.5655.698 1.5769.664 1.5871.63 1.5959.596 1.6041.561 1.6104.526 1.6164.491 1.6205.455 1.624.419 1.626.384 1.6271.346 1.6272.31 1.6257.273 1.6237.237 1.6197.2 1.6155.162 1.6095.126 1.603.088 1.5951.052 1.5857.014 1.576-.022 1.565-.06 1.5527-.096 1.5395-.132 1.5255-.169 1.5097-.205 1.495-.24 1.477-.276 1.458-.312 1.441-.347 1.42-.381 1.399-.416 1.378-.449 1.355-.483 1.332-.516 1.308-.549 1.283-.581 1.258-.612 1.231-.643 1.204-.674 1.177-.705 1.148-.733 1.119-.763 1.09-.791 1.059-.818 1.029-.846.997-.872.965-.898.934-.923.9-.948.868-.971.834-.994.799-1.017m-16.963-88.7324-.492-.4175-.499-.409-.508-.4008-.517-.3917-.524-.3831-.531-.3739-.539-.3645-.546-.3551-.552-.3455-.559-.3353-.564-.3251-.57-.3151-.575-.3044-.581-.2939-.585-.2829-.589-.2721-.594-.261-.597-.2494-.6-.2384-.604-.2264-.606-.2149-.608-.2032-.611-.1913-.612-.1791-.613-.167-.615-.1544-.614-.1423-.616-.1298-.6146-.1173-.6146-.1046-.6138-.0921-.6127-.0794-.6112-.0666-.6096-.0536-.6069-.0408-.6047-.0278-.6016-.0147-.5985-.002-.595.0111-.5908.0241-.5869.0371-.582.0499-.5772.0632-.5717.0759-.5662.089-.5604.1018-.5539.1145-.5474.1272-.5406.1403-.5329.1528-.5255.1655-.5179.178-.5093.1905-.5009.2026-.4923.2148-.483.2271-.4736.2392-.4637.2508-.454.263-.4435.2744-.4331.2857-.4219.2973-.4112.3084-.3998.3194-.3882.3302-.3763.3409-.3641.3512-.3519.3616-.3391.3719-.3263.3815-.3136.3911-.3002.4007-.2869.4099-.2732.4189-.2594.4277-.2452.4361-.2312.4445-.2171.4523-.2023.4603-.1879.4673-.1731.4748-.1583.4818-.1433.4883-.128.4949-.113.5005-.0973.5068-.0823.5118-.0667.517-.0513.5221-.0355.5266-.0199.5305-.0042.5346.0113.5382.0273.5413.0428.5442.0585.547.0743.549.09.551.1055.5524.1215.5538.1368.5544.1521.5549.1677.5552.1827.5552.1981.5544.2134.5535.2284.5524.2429.5507.258.549.2724.5465.2869.5439.301.541.3153.5374.3292.5339.3428.5301.3564.5254.3694.5207.3828.5158.3953.5104.4081.5048.4205.4986.4322.4923.4444.4857.4557.4787.4671.4714.4779.4637.4883.456.4989.4475.5091.4393.5184.4303.5281.4214.5369.4121.5457.4022.5539.3925.5618.3827.5695.3721.5769.3613.5838.3509.5902.3396.5962.3282.6021.3168.6076.3053.6123.2933.617.2812.6208.269.6252.2565.628.244.6313.2313.6337.2182.6359.2055.6376.1921.6391.1792.6398.1658.6409.1519.64.1386.64.125.64.1113.638.0975.637.0839.635.07.632.0559.63.0422.627.0281.623.0144.619.0003.615-.0136.61-.0275.605-.0411.6-.055.594-.0688.587-.0828.581-.0961.574-.1097.567-.1233.559-.1366.551-.1496.543-.163.535-.176.525-.189.516-.2018.507-.2143.496-.227.487-.239.476-.2513.465-.2634.454-.2749.443-.2868.432-.2982.42-.3094.407-.3203.396-.3311.383-.3418.37-.352.358-.3622.344-.3721.331-.3815.318-.3911.304-.4005.29-.409.276-.4178.263-.4259.248-.4343.233-.4421.219-.4495.205-.4566.19-.4637.175-.4705.161-.4767.145-.4829.13-.4887.116-.494.1-.4993.085-.5043.071-.5087.055-.5133.039-.517.025-.5206.01-.524-.006-.5269-.021-.5297-.036-.5323-.051-.5343-.065-.5359-.081-.5374-.096-.5388-.11-.5393-.125-.54-.14-.5402-.154-.5399-.169-.5396-.183-.5391-.197-.5376-.211-.5366-.225-.5348-.239-.5328-.252-.5306-.266-.528-.279-.5249-.292-.5221-.305-.5183-.318-.515-.33-.5105-.342-.5065-.355-.5016-.367-.4969-.378-.4917-.39-.4861-.401-.4807-.412-.4744-.423-.4682-.434-.4617-.443-.4549-.454-.4478-.463-.4407-.473-.4331zm-6.053 3.7157.278.2188.285.2115.278.2139.257.2265.229.2463.21.2605.205.2655.217.2622.237.2522.246.2472.239.2483.214.2562.179.2692.157.2786.15.2832.163.2817.187.2772.198.2735.19.2735.163.2766.123.282.097.2868.09.2897.103.2911.13.2913.142.2903.134.2888.105.2865.062.2843.033.284.025.2854.04.2896.067.2945.081.2962.073.2933.042.286-.002.2758-.032.2701-.04.2707-.026.2766.002.2868.016.2911.008.2868-.021.2746-.066.2568-.096.246-.105.2449-.091.2534-.064.2681-.05.2749-.058.2696-.085.2525-.128.2279-.157.2122-.165.2095-.154.2202-.127.2392-.115.248-.121.2421-.147.2208-.185.1899-.212.1697-.22.1658-.21.1783-.187.2009-.176.2115-.18.2049-.202.1802-.237.1443-.259.1205-.266.1153-.259.1287-.24.1547-.229.167-.234.1595-.251.1324-.277.0927-.297.066-.303.0598-.297.0743-.284.1017-.275.1154-.278.108-.29.0793-.308.0369-.322.0085-.329.0017-.324.0161-.317.0451-.31.0592-.311.0519-.318.0229-.327-.0206-.336-.0496-.339-.0573-.34-.0425-.337-.0142-.333.0006-.333-.0062-.333-.0349-.333-.0774-.336-.1063-.338-.1139-.341-.1003-.343-.0726-.344-.0581-.341-.0643-.335-.0913-.3264-.1315-.3221-.159-.3227-.1666-.3286-.1539-.3371-.1282-.3405-.1147-.336-.1199-.3235-.144-.3064-.1806-.2957-.2057-.2946-.2126-.3028-.2018-.3175-.1788-.3235-.1664-.3175-.1706-.2997-.191-.2738-.2225-.2574-.2441-.2548-.2505-.2653-.2415-.2852-.2222-.2937-.2117-.2866-.2145-.2636-.2305-.2305-.2553-.2091-.273-.2046-.2783-.2174-.2718-.2414-.2568-.2523-.248-.2446-.2494-.2174-.2607-.1782-.2784-.1521-.291-.1464-.2951-.1609-.2911-.1884-.2811-.2012-.2746-.193-.2744-.1626-.2803-.1189-.2902-.0896-.2976-.0829-.3005-.0979-.299-.1283-.2939-.1424-.2902-.1337-.2882-.1021-.2886-.0551-.2908-.0238-.2925-.0159-.2941-.0318-.2951-.063-.2953-.0786-.2939-.0701-.2908-.0374-.2857.0105-.2797.0428-.2764.0511-.2763.0352-.2798.004-.2851-.012-.286-.004-.2817.0279-.2718.0754-.2579.1073-.2497.1158-.248.101-.2537.0701-.2635.0548-.2673.0618-.2619.0917-.2468.1368-.2268.1674-.2134.1756-.2106.1621-.2179.1333-.2325.1187-.238.1248-.2316.1515-.2131.1927-.1868.2208-.1695.2284-.1652.2165-.1746.191-.1922.1777-.1998.1824-.193.2052-.1712.2409-.14.265-.1193.2724-.1142.2625-.1244.2412-.1452.229-.1541.2327-.1471.2509-.123.2795-.0885.2994-.0652.3056-.0592.2985-.0703.2815-.0924.2718-.1031.2739-.0956.2866-.0705.3076-.0338.3223-.009.3272-.0023.3227-.0139.3112-.0368.3043-.0479.3042-.0411.3115-.0156.3241.0218.3328.0471.3369.0541.3351.0431.329.0198.325.0088.323.015.325.04.328.0762.331.1009.334.1083.334.0981.335.0759.333.0646.33.0709.326.0935.32.1276.318.151.318.1582.322.1491.328.1289.329.1185.324.1235.315.1438.3.1743.292.1952.291.2021.298.1944.308.1772.313.1681.307.1717.292.1888.269.2142.256.2322.253.238zm10.504-5.832-.703-.5958-.714-.5841-.727-.5717-.738-.5594-.748-.547-.76-.5337-.77-.5207-.779-.5067-.789-.4932-.797-.479-.807-.4645-.814-.4501-.821-.435-.829-.4201-.836-.4044-.842-.3892-.847-.3732-.853-.3571-.858-.3413-.862-.3245-.866-.3081-.87-.2911-.872-.2743-.875-.2574-.877-.24-.8786-.2225-.8794-.2049-.8802-.1874-.8802-.1697-.8797-.1517-.8788-.1337-.8774-.1157-.8757-.0972-.8732-.0791-.8703-.0609-.8672-.0422-.8632-.0241-.859-.0057-.8541.013-.8488.0315-.843.0502-.8369.0686-.83.087-.8229.1057-.815.1241-.807.1423-.7985.161-.7892.1791-.7798.1976-.7696.2156-.759.2339-.7483.2519-.737.2696-.7247.2874-.7128.3052-.7001.3225-.6867.3399-.6734.3571-.6592.3744-.6447.3908-.63.4079-.6149.424-.5993.4404-.5831.4563-.5667.4722-.5502.4875-.5327.5031-.5156.5181-.4974.5325-.4796.5473-.4611.5615-.4421.575-.4231.589-.4035.602-.384.615-.364.6275-.3437.6397-.3232.6516-.3025.6629-.2815.6743-.2602.6847-.2389.6953-.2171.7051-.1955.7148-.1734.7236-.1515.7324-.1291.7408-.1067.7483-.0843.7558-.0616.7627-.0389.769-.0159.7751.0066.7806.0298.7856.0525.7899.0752.7942.0984.7975.1215.8007.1441.8032.1669.8052.1898.8069.2126.8078.2349.8083.2574.8081.2801.8077.3019.8066.3244.805.3462.8029.3677.8004.3893.7972.4104.7934.4316.7893.4526.7848.4727.7791.4932.7738.5134.7672.5329.7604.5519.7534.5712.7456.5897.7372.6078.7284.626.7193.6433.7095.6603.6992.6774.6887.6932.6774.7089.666.7244.6539.7392.6413.7537.6284.7676.615.7807.6014.7939.5873.8059.5725.8181.5578.8292.5428.8397.5265.8501.5108.8598.4946.8686.4778.8772.4606.885.4435.8925.426.899.4081.9052.39.9109.3716.9154.3529.92.3341.9236.3152.9265.2959.9294.2766.9307.2568.9322.2372.933.2171.9328.1973.9321.1771.9307.157.929.1366.927.1165.924.0958.92.0757.916.0547.911.0346.905.0141.9-.0065.893-.0269.886-.047.879-.0675.87-.0876.861-.108.851-.1278.843-.1479.831-.1675.821-.1874.809-.2066.798-.2262.785-.2451.772-.2642.758-.2828.746-.3016.73-.3197.717-.3378.701-.3555.685-.3729.67-.3906.654-.4073.636-.4243.62-.4404.602-.4566.585-.4722.567-.4878.549-.503.53-.5176.511-.5319.491-.5462.473-.5598.453-.5733.432-.5859.413-.5986.393-.6107.372-.6224.351-.6338.33-.6448.31-.6555.288-.6652.267-.6751.246-.6845.224-.693.203-.7017.181-.7094.159-.7174.138-.7241.116-.731.094-.7369.073-.7428.051-.748.029-.753.007-.7573-.014-.7616-.036-.7649-.058-.7678-.079-.7707-.1-.7726-.122-.7746-.143-.7757-.164-.7766-.185-.7768-.205-.7772-.227-.7763-.246-.7754-.267-.7741-.287-.7723-.307-.77-.327-.7676-.346-.7641-.365-.7607-.384-.757-.403-.7522-.422-.7477-.44-.7425-.457-.7369-.476-.731-.493-.7244-.51-.7176-.527-.7106-.543-.7029-.559-.6952-.576-.6868-.591-.6779-.606-.6689-.621-.6595-.635-.6499-.65-.6394-.663-.6292-.677-.6184zm2.727-.0751-.88-.7457-.894-.7307-.91-.7153-.923-.7001-.937-.6839-.951-.668-.963-.651-.975-.6343-.987-.6168-.998-.5994-1.008-.581-1.019-.5632-1.028-.5444-1.037-.5255-1.045-.5065-1.054-.4872-1.06-.4674-1.068-.4472-1.073-.4271-1.079-.4067-1.085-.3863-1.088-.3651-1.093-.3443-1.0952-.3229-1.0984-.3012-1.1008-.2795-1.1021-.2579-1.103-.2355-1.1033-.2137-1.1033-.1913-1.1021-.169-1.1011-.1462-1.0987-.1236-1.0962-.1006-1.0928-.0779-1.0891-.055-1.0845-.0318-1.0795-.0088-1.074.0142-1.0676.0374-1.061.0607-1.0533.0839-1.0451.1071-1.0366.1301-1.0275.1536-1.0176.1766-1.0074.1995-.996.2225-.9847.2457-.9725.2684-.9597.2914-.946.314-.9328.3365-.918.3588-.9029.3812-.8876.4033-.8712.4251-.8547.447-.8374.4685-.8198.4897-.8014.511-.7829.5317-.7636.5524-.7437.5728-.7234.593-.7028.6124-.6814.6323-.6597.6514-.6377.6702-.6152.6885-.5922.7068-.5686.7245-.5449.742-.5204.759-.496.7754-.4708.7919-.4455.8075-.42.8225-.3939.8378-.3677.8517-.3408.8658-.3139.8792-.2866.8922-.2591.9047-.2315.9163-.2035.9277-.1753.9384-.1473.9486-.1183.9582-.09.9674-.061.9758-.0321.9838-.0031.9911.0261.9976.0551 1.0039.0843 1.009.1134 1.0141.1428 1.0183.1722 1.0215.2012 1.0246.2304 1.0268.2594 1.0283.2883 1.0294.317 1.0294.3456 1.0288.3743 1.028.4027 1.0259.4307 1.0235.4589 1.0203.4861 1.0167.5136 1.0121.5408 1.0067.5676 1.001.5939.9943.6203.9871.6459.9795.6711.9708.696.9613.7208.9518.7446.9409.7682.93.7914.9182.8141.9056.8363.8925.8575.8789.8786.8647.8989.8497.9189.8344.9381.818.9566.8018.9747.7842.9918.7667 1.0085.7485 1.0247.7298 1.0397.7105 1.0545.6907 1.0681.6706 1.0814.6499 1.0937.6286 1.1055.6074 1.1163.5853 1.1266.5629 1.1359.5405 1.1444.5172 1.1524.4937 1.1595.4702 1.1657.4458 1.1711.4218 1.1759.3971 1.1797.3724 1.1827.3472 1.185.3219 1.1867.2968 1.187.2707 1.1873.2451 1.1861.2191 1.1845.193 1.1819.1672 1.1788.1409 1.175.1145 1.169.0884 1.164.0618 1.158.0357 1.151.0094 1.143-.017 1.134-.0431 1.125-.0689 1.114-.0952 1.104-.121 1.093-.1468 1.08-.1727 1.067-.1978 1.054-.223 1.04-.248 1.025-.273 1.009-.2976.993-.3219.976-.3458.96-.3699.941-.3934.924-.4163.904-.4393.884-.4617.865-.4838.845-.5059.823-.5272.802-.5481.78-.5689.758-.5889.735-.6088.712-.6281.689-.6468.664-.6654.641-.6836.617-.701.591-.7179.566-.7343.541-.7505.516-.7661.489-.7811.464-.7953.437-.8095.411-.823.384-.8361.358-.848.33-.8602.304-.8713.276-.8823.25-.8922.222-.9018.194-.911.167-.9197.14-.9273.113-.9348.085-.9418.058-.9477.031-.9538.003-.9585-.024-.9633-.051-.9674-.078-.9707-.105-.9736-.132-.9758-.158-.9778-.184-.9787-.211-.9795-.237-.9795-.263-.9792-.289-.9781-.314-.9767-.339-.9744-.364-.9718-.389-.9688-.414-.9647-.437-.9609-.462-.9559-.485-.9509-.508-.945-.532-.9387-.554-.9321-.576-.9246-.599-.9168-.62-.9087-.641-.8999-.662-.8908-.682-.8811-.702-.871-.723-.8602-.741-.8494-.76-.8378-.779-.8256-.796-.8137-.814-.8007-.831-.7873-.848-.7741z" stroke="#fce48f" stroke-linecap="round" stroke-linejoin="round"/></svg>