<svg fill="none" height="47" viewBox="0 0 48 47" width="48" xmlns="http://www.w3.org/2000/svg"><path d="m38.9125 10.5101v25.779c0 .5896-.2342 1.155-.6511 1.5719s-.9823.6511-1.5719.6511h-25.779c-.5896 0-1.15501-.2342-1.5719-.6511s-.6511-.9823-.6511-1.5719v-25.779c0-.58957.23421-1.155.6511-1.57189s.9823-.6511 1.5719-.6511h25.779c.5896 0 1.155.23421 1.5719.6511s.6511.98232.6511 1.57189zm-21.333 9.3405h-4.446v14.235h4.4265v-14.235zm.3705-4.8945c.0026-.3355-.061-.6681-.187-.9791-.126-.3109-.312-.5939-.5474-.8329s-.5156-.4294-.8245-.5601c-.309-.1307-.6406-.1993-.9761-.2019h-.078c-.6827 0-1.3374.2712-1.8201.7539s-.7539 1.1374-.7539 1.8201.2712 1.3374.7539 1.8201 1.1374.7539 1.8201.7539c.3355.0078.6692-.0506.9821-.1719.3129-.1212.5989-.3029.8415-.5347.2427-.2318.4373-.5091.5727-.8162.1355-.307.2091-.6377.2167-.9732zm16.497 10.4715c0-4.29-2.73-5.9475-5.421-5.9475-.8833-.0409-1.762.15-2.5487.5536-.7868.4037-1.4543 1.0061-1.9363 1.7474h-.1365v-1.95h-4.173v14.235h4.446v-7.5465c-.0651-.7722.1767-1.5389.6732-2.1339.4964-.595 1.2074-.9704 1.9788-1.0446h.1755c1.404 0 2.457.8775 2.457 3.12v7.6245h4.446l.039-8.6385z" fill="#2a2e32"/></svg>