<svg fill="none" height="341" viewBox="0 0 626 341" width="626" xmlns="http://www.w3.org/2000/svg" xmlns:xlink="http://www.w3.org/1999/xlink"><linearGradient id="a"><stop offset="0" stop-color="#d9d9d9"/><stop offset=".640625" stop-color="#d9d9d9" stop-opacity=".25"/><stop offset="1" stop-color="#d9d9d9" stop-opacity="0"/></linearGradient><linearGradient id="b" gradientUnits="userSpaceOnUse" x1="75" x2="75" xlink:href="#a" y1="148" y2="341"/><linearGradient id="c" gradientUnits="userSpaceOnUse" x1="-.000001" x2="189.969" y1="341" y2="203.035"><stop offset="0" stop-color="#10b981"/><stop offset="1" stop-color="#d9f99d"/></linearGradient><linearGradient id="d" gradientUnits="userSpaceOnUse" x1="17" x2="158.452" y1="341" y2="233.954"><stop offset="0" stop-color="#d9f99d"/><stop offset="1" stop-color="#10b981"/></linearGradient><linearGradient id="e" gradientUnits="userSpaceOnUse" x1="234" x2="234" xlink:href="#a" y1="148" y2="341"/><linearGradient id="f" gradientUnits="userSpaceOnUse" x1="159" x2="348.969" y1="341" y2="203.035"><stop offset="0" stop-color="#f97316"/><stop offset="1" stop-color="#fef08a"/></linearGradient><linearGradient id="g" gradientUnits="userSpaceOnUse" x1="177" x2="318.112" y1="341" y2="235.14"><stop offset="0" stop-color="#fef08a"/><stop offset=".588542" stop-color="#f97316"/><stop offset="1" stop-color="#f97316"/></linearGradient><linearGradient id="h" gradientUnits="userSpaceOnUse" x1="393" x2="393" xlink:href="#a" y1="148" y2="341"/><linearGradient id="i" gradientUnits="userSpaceOnUse" x1="318" x2="507.969" y1="341" y2="203.035"><stop offset="0" stop-color="#3b82f6"/><stop offset="1" stop-color="#e0f2fe"/></linearGradient><linearGradient id="j" gradientUnits="userSpaceOnUse" x1="336" x2="477.112" y1="341" y2="235.14"><stop offset="0" stop-color="#e0f2fe"/><stop offset="1" stop-color="#3b82f6"/></linearGradient><linearGradient id="k" gradientUnits="userSpaceOnUse" x1="552" x2="552" xlink:href="#a" y1="148" y2="341"/><linearGradient id="l" gradientUnits="userSpaceOnUse" x1="477" x2="666.969" y1="341" y2="203.035"><stop offset="0" stop-color="#9333ea"/><stop offset="1" stop-color="#ddd6fe"/></linearGradient><linearGradient id="m" gradientUnits="userSpaceOnUse" x1="495" x2="636.112" y1="341" y2="235.14"><stop offset="0" stop-color="#ddd6fe"/><stop offset="1" stop-color="#9333ea"/></linearGradient><clipPath id="n"><path d="m0 0h626v341h-626z"/></clipPath><mask id="o" height="193" maskUnits="userSpaceOnUse" width="150" x="0" y="148"><rect fill="url(#b)" height="193" rx="8" width="150" y="148"/></mask><mask id="p" height="193" maskUnits="userSpaceOnUse" width="150" x="159" y="148"><rect fill="url(#e)" height="193" rx="8" width="150" x="159" y="148"/></mask><mask id="q" height="193" maskUnits="userSpaceOnUse" width="150" x="318" y="148"><rect fill="url(#h)" height="193" rx="8" width="150" x="318" y="148"/></mask><mask id="r" height="193" maskUnits="userSpaceOnUse" width="150" x="477" y="148"><rect fill="url(#k)" height="193" rx="8" width="150" x="477" y="148"/></mask><g clip-path="url(#n)"><g mask="url(#o)"><path d="m0 148h150v193h-150z" fill="url(#c)"/><path clip-rule="evenodd" d="m132 264-57.5-65-57.5 65h33.5305v77h48.5306v-77z" fill="url(#d)" fill-rule="evenodd"/></g><g mask="url(#p)"><path d="m159 148h150v193h-150z" fill="url(#f)"/><path clip-rule="evenodd" d="m291 264-57-65-57 65h33.143v77h48.53v-77z" fill="url(#g)" fill-rule="evenodd"/></g><g mask="url(#q)"><path d="m318 148h150v193h-150z" fill="url(#i)"/><path clip-rule="evenodd" d="m450 264-57-65-57 65h33.143v77h48.53v-77z" fill="url(#j)" fill-rule="evenodd"/></g><g mask="url(#r)"><path d="m477 148h150v193h-150z" fill="url(#l)"/><path clip-rule="evenodd" d="m609 264-57-65-57 65h33.143v77h48.53v-77z" fill="url(#m)" fill-rule="evenodd"/></g><g fill="#fff"><path d="m208.918 104.308c38.768 0 20.227-58.259 38.515-58.259.927 0 1.939.1683 3.119.5051v-2.0206c-30.93-3.2834-20.396 42.1791-33.037 54.8918l-.759-1.9364-26.884-52.9554h-10.872z"/><path d="m269.029 94.6265v-16.2487h36.071v-8.8399h-36.071v-16.1644h41.802v-8.84h-52.083v58.9325h52.589v-8.8395z"/><path d="m331.563 94.6265 36.661-41.253v-8.84h-47.785v8.84h36.407l-37.166 41.253v8.8395h51.409v-8.8395z"/><path d="m377.431 103.466h10.956l5.309-10.6075c3.371-2.1048 5.815-2.9467 7.838-2.9467 5.309 0 7.416 5.5566 13.484 5.5566 3.287 0 7.67-1.5996 14.327-6.4827l7.333 14.4803h10.956l-30.003-59.7743h-10.198zm35.059-47.5668 16.181 31.6553c-2.444 1.4312-4.466 1.9364-6.236 1.9364-5.478 0-8.344-5.4723-14.496-5.4723-3.118 0-7.079 1.4312-12.557 5.5565z"/></g></g></svg>