<svg viewBox="0 0 626 371" xmlns="http://www.w3.org/2000/svg" xmlns:xlink="http://www.w3.org/1999/xlink"><clipPath id="a"><path d="m0 2h626v333h-626z"/></clipPath><linearGradient id="b"><stop offset="0" stop-color="#e3e5e8"/><stop offset="1" stop-color="#e3e5e8" stop-opacity=".4"/></linearGradient><linearGradient id="c" gradientTransform="matrix(1 0 0 -1 0 338)" gradientUnits="userSpaceOnUse" x1=".05" x2="626.05" xlink:href="#b" y1="241.45" y2="241.45"/><linearGradient id="d" gradientTransform="matrix(1 0 0 -1 0 338)" gradientUnits="userSpaceOnUse" x1="313.02" x2="626.02" xlink:href="#b" y1="272.48" y2="272.48"/><linearGradient id="e" gradientTransform="matrix(1 0 0 -1 0 338)" gradientUnits="userSpaceOnUse" x1="201.5" x2="201.5" xlink:href="#b" y1="-13" y2="242"/><linearGradient id="f" gradientTransform="matrix(0 1 -1 0 800 -70)" gradientUnits="userSpaceOnUse" x1="326" x2="71" xlink:href="#b" y1="407.5" y2="407.5"/><linearGradient id="g" gradientTransform="matrix(1 0 0 -1 0 338)" gradientUnits="userSpaceOnUse" x1="361.03" x2="626.03" xlink:href="#b" y1="161.47" y2="161.47"/><linearGradient id="h" gradientTransform="matrix(1 0 0 -1 0 338)" gradientUnits="userSpaceOnUse" x1="488.5" x2="488.5" xlink:href="#b" y1="162" y2="-13"/><linearGradient id="i" gradientTransform="matrix(1 0 0 -1 0 338)" gradientUnits="userSpaceOnUse" x1="626" x2="0" xlink:href="#b" y1="82.5" y2="82.5"/><linearGradient id="j" gradientUnits="userSpaceOnUse" x1="313" x2="0" xlink:href="#b" y1="287.5" y2="287.5"/><linearGradient id="k" gradientTransform="matrix(1 0 0 -1 0 338)" gradientUnits="userSpaceOnUse" x1="313.5" x2="313.5" xlink:href="#b" y1="210" y2="336"/><linearGradient id="l" gradientTransform="matrix(1 0 0 -1 0 338)" gradientUnits="userSpaceOnUse" x1="312.5" x2="312.5" xlink:href="#b" y1="114" y2="-13"/><linearGradient id="m"><stop offset="0" stop-color="#d9d9d9"/><stop offset=".64" stop-color="#d9d9d9" stop-opacity=".25"/><stop offset="1" stop-color="#d9d9d9" stop-opacity="0"/></linearGradient><linearGradient id="n" gradientTransform="matrix(1 0 0 -1 0 338)" gradientUnits="userSpaceOnUse" x1="126" x2="126" xlink:href="#m" y1="112" y2="17"/><mask id="o" height="145" maskUnits="userSpaceOnUse" width="150" x="51" y="226"><rect fill="url(#n)" height="95" rx="8" width="150" x="51" y="226"/></mask><linearGradient id="p" gradientTransform="matrix(1 0 0 -1 0 338)" gradientUnits="userSpaceOnUse" x1="51" x2="201" y1="-33" y2="112"><stop offset="0" stop-color="#10b981"/><stop offset="1" stop-color="#d9f99d"/></linearGradient><linearGradient id="q" gradientTransform="matrix(1 0 0 -1 0 338)" gradientUnits="userSpaceOnUse" x1="68.17" x2="183.83" y1="-14.04" y2="94.04"><stop offset="0" stop-color="#d9f99d"/><stop offset="1" stop-color="#10b981"/></linearGradient><linearGradient id="r" gradientTransform="matrix(1 0 0 -1 0 338)" gradientUnits="userSpaceOnUse" x1="450.41" x2="450.41" y1="273" y2="162"><stop offset="0" stop-color="#d9d9d9"/><stop offset="1" stop-color="#d9d9d9" stop-opacity=".24"/></linearGradient><mask id="s" height="111" maskUnits="userSpaceOnUse" width="114.83" x="393" y="65"><rect fill="url(#r)" height="111" rx="6.12" width="114.83" x="393" y="65"/></mask><linearGradient id="t" gradientTransform="matrix(1 0 0 -1 0 338)" gradientUnits="userSpaceOnUse" x1="393" x2="507.83" y1="162" y2="273"><stop offset="0" stop-color="#f97316"/><stop offset="1" stop-color="#fef08a"/></linearGradient><linearGradient id="u"><stop offset="0" stop-color="#ddd6fe"/><stop offset="1" stop-color="#9333ea"/></linearGradient><linearGradient id="v" gradientTransform="matrix(1 0 0 -1 0 338)" gradientUnits="userSpaceOnUse" x1="408.44" x2="496.98" xlink:href="#u" y1="176.51" y2="259.25"/><linearGradient id="w" gradientTransform="matrix(1 0 0 -1 0 338)" gradientUnits="userSpaceOnUse" x1="408.44" x2="496.98" y1="176.51" y2="259.25"><stop offset="0" stop-color="#fef08a"/><stop offset=".59" stop-color="#f97316"/><stop offset="1" stop-color="#f97316"/></linearGradient><linearGradient id="x" gradientTransform="matrix(1 0 0 -1 0 338)" gradientUnits="userSpaceOnUse" x1="538.5" x2="538.5" xlink:href="#m" y1="112" y2="17"/><mask id="y" height="96" maskUnits="userSpaceOnUse" width="99.31" x="489" y="226"><rect fill="url(#x)" height="95" rx="5.3" width="99" x="489" y="226"/></mask><linearGradient id="z" gradientTransform="matrix(1 0 0 -1 0 338)" gradientUnits="userSpaceOnUse" x1="489" x2="588.31" y1="16" y2="112"><stop offset="0" stop-color="#3b82f6"/><stop offset="1" stop-color="#e0f2fe"/></linearGradient><linearGradient id="A" gradientTransform="matrix(0 1 1 0 396.06 274.57)" gradientUnits="userSpaceOnUse" x1="-28.53" x2="26.16" y1="116.76" y2="167.87"><stop offset="0" stop-color="#e0f2fe"/><stop offset="1" stop-color="#3b82f6"/></linearGradient><linearGradient id="B" gradientTransform="matrix(1 0 0 -1 0 338)" gradientUnits="userSpaceOnUse" x1="151.5" x2="151.5" y1="336" y2="242"><stop offset="0" stop-color="#d9d9d9" stop-opacity="0"/><stop offset=".5" stop-color="#d9d9d9" stop-opacity=".25"/><stop offset="1" stop-color="#d9d9d9"/></linearGradient><mask id="C" height="96" maskUnits="userSpaceOnUse" width="99.31" x="102" y="0"><rect fill="url(#B)" height="94" rx="5.3" width="99" x="102" y="2"/></mask><linearGradient id="D" gradientTransform="matrix(1 0 0 -1 0 338)" gradientUnits="userSpaceOnUse" x1="102" x2="201.31" y1="242" y2="338"><stop offset="0" stop-color="#9333ea"/><stop offset="1" stop-color="#ddd6fe"/></linearGradient><linearGradient id="E" gradientTransform="matrix(1 0 0 -1 0 338)" gradientUnits="userSpaceOnUse" x1="116.84" x2="193.41" xlink:href="#u" y1="252.96" y2="324.52"/><g clip-path="url(#a)"><path d="m313 124c26.51 0 48 21.49 48 48s-21.49 48-48 48-48-21.49-48-48 21.49-48 48-48z"/><g fill="none"><g stroke="#e3e5e8"><circle cx="313" cy="172" opacity=".2" r="79.5"/><circle cx="313" cy="172" opacity=".2" r="111.5"/><circle cx="313" cy="172" opacity=".2" r="143.5"/></g><path d="m626 96.5h-626" opacity=".2" stroke="url(#c)"/><path d="m626 65.5h-313" opacity=".2" stroke="url(#d)"/><path d="m201.5 96v255" opacity=".2" stroke="url(#e)"/><path d="m392.5 1v255" opacity=".2" stroke="url(#f)"/><path d="m626 176.5h-265" opacity=".2" stroke="url(#g)"/><path d="m488.5 351v-175" opacity=".2" stroke="url(#h)"/><path d="m0 255.5h626" opacity=".2" stroke="url(#i)"/><path d="m0 287.5h313" opacity=".2" stroke="url(#j)"/><path d="m313.5 2v126" opacity=".2" stroke="url(#k)"/><path d="m312.5 351v-127" opacity=".2" stroke="url(#l)"/></g><g mask="url(#o)"><path d="m51 226h150v145h-150z" fill="url(#p)"/><path d="m126 242c30.93 0 56 25.07 56 56s-25.07 56-56 56-56-25.07-56-56 25.07-56 56-56z" fill="url(#q)"/></g><rect fill="#fff" height="111" rx="6.12" width="114.83" x="393" y="65"/><g mask="url(#s)"><rect fill="url(#t)" height="111" rx="6.12" width="114.83" x="393" y="65"/><path d="m452.71 77.25 37.13 21.43v42.87l-37.13 21.43-37.12-21.43v-42.87z" fill="#d9d9d9"/><path d="m452.71 77.25 37.13 21.43v42.87l-37.13 21.43-37.12-21.43v-42.87z" fill="url(#v)"/><path d="m452.71 77.25 37.13 21.43v42.87l-37.13 21.43-37.12-21.43v-42.87z" fill="url(#w)"/></g><g mask="url(#y)"><path d="m489 226h99.31v96h-99.31z" fill="url(#z)"/><path d="m511.89 246.9h52.97v52.97h-52.97z" fill="#d9d9d9" transform="matrix(.70710678 -.70710678 .70710678 .70710678 -35.63 460.76)"/><path d="m511.89 246.9h52.97v52.97h-52.97z" fill="url(#A)" transform="matrix(.70710678 -.70710678 .70710678 .70710678 -35.63 460.76)"/></g><rect fill="#fff" height="96" rx="5.3" width="99.31" x="102"/><g mask="url(#C)"><path d="m102 0h99.31v96h-99.31z" fill="url(#D)"/><path d="m153.64 10.59 35.26 25.62-13.47 41.45h-43.59l-13.47-41.45 35.26-25.62z" fill="#d9d9d9"/><path d="m153.64 10.59 35.26 25.62-13.47 41.45h-43.59l-13.47-41.45 35.26-25.62z" fill="url(#E)"/></g><path d="m313.78 145.62c-1.68 3.14-3.37 6.27-5.06 9.41.12.08 2.5 1.67 2.36 4.29-.07 1.35-.78 2.29-1.09 2.66-.8.78-2.41 2.09-4.7 2.39-.56.07-3.82.49-4.6-1.19-.55-1.19.49-2.71.67-2.96-2.13-1.73-4.26-3.46-6.39-5.2l2.53 9.69-.07 10.25 1.68 3.02v8c.39.96 1.09 2.34 2.32 3.72.93 1.04 1.89 1.76 2.64 2.25.15-5.85.3-11.7.45-17.55.47-1.32 1.7-2.2 3.02-2.18 1.53.02 2.89 1.24 3.09 2.88l.28 20.85 2.74 1.83 3.09-1.76-.35-20.85c.16-1.58 1.46-2.81 3.02-2.88 1.61-.08 3.06 1.11 3.3 2.74v17.25c.82-.46 2.03-1.28 3.16-2.65 1.33-1.62 1.91-3.25 2.18-4.21 0-2.48.28-5.66.26-8.07l1.5-2.39s.26-10.79.25-11.87c.2-1.31 1.6-6.91 2-8.07-2.11 1.66-4.21 3.32-6.32 4.98 1.17 2.03 1.02 2.83.74 3.19-1.29 1.7-8.96-.59-8.96-.59.05-.03-1.07-2.41-1.26-3.73-.12-.87.18-2.11 1.97-3.79-1.47-3.16-2.95-6.32-4.42-9.48s0 0 0 0z" fill="#fff"/></g></svg>