<svg fill="none" height="389" viewBox="0 0 610 389" width="610" xmlns="http://www.w3.org/2000/svg"><g stroke="#e3e5e8"><path d="m374.845 192c0 42.801-34.748 77.5-77.613 77.5s-77.613-34.699-77.613-77.5 34.748-77.5 77.613-77.5 77.613 34.699 77.613 77.5z" opacity=".2"/><path d="m348.503 192c0 28.442-23.091 51.5-51.576 51.5s-51.575-23.058-51.575-51.5 23.09-51.5 51.575-51.5 51.576 23.058 51.576 51.5z" opacity=".2"/><path d="m402.885 192c0 58.265-47.302 105.5-105.653 105.5-58.352 0-105.654-47.235-105.654-105.5s47.302-105.5 105.654-105.5c58.351 0 105.653 47.235 105.653 105.5z" opacity=".2"/><path d="m430.926 192c0 73.729-59.856 133.5-133.694 133.5s-133.694-59.771-133.694-133.5 59.856-133.5 133.694-133.5 133.694 59.771 133.694 133.5z" opacity=".2"/><path d="m456.964 192c0 88.089-71.514 159.5-159.732 159.5s-159.732-71.411-159.732-159.5 71.514-159.5 159.732-159.5 159.732 71.411 159.732 159.5z" opacity=".2"/></g><rect fill="#fff" height="72" rx="36" width="72" x="260.852" y="156"/><path d="m293.725 208c20.696 0 10.798-31.101 20.561-31.101.495 0 1.035.09 1.664.27v-1.079c-16.511-1.753-10.887 22.517-17.636 29.303l-.405-1.033-14.351-28.27h-5.804z" fill="#0e031e"/><rect fill="#0b8aff" height="48" rx="24" width="70" x="146" y="90"/><path d="m162.976 108.56h1.904v5.648l5.184-5.648h2.272l-4.448 4.848 4.72 6.592h-2.224l-3.744-5.264-1.76 1.888v3.376h-1.904zm10.738 11.44v-11.44h4.864c2.192 0 3.776 1.024 3.776 3.424s-1.584 3.44-3.776 3.44h-2.96v4.576zm1.904-9.824v3.616h2.88c1.28 0 1.952-.544 1.952-1.808 0-1.248-.672-1.808-1.952-1.808zm8.194-1.616h1.904v11.44h-1.904zm13.737 11.44h-1.856v-2.512h-5.232v-1.728l5.232-6.816h1.856v6.976h1.552v1.568h-1.552zm-1.856-8.752-3.584 4.672h3.584z" fill="#fff"/><rect fill="#b10bff" height="48" rx="24" width="66" x="321" y="18"/><path d="m337.976 36.56h1.904v5.648l5.184-5.648h2.272l-4.448 4.848 4.72 6.592h-2.224l-3.744-5.264-1.76 1.888v3.376h-1.904zm10.738 11.44v-11.44h4.864c2.192 0 3.776 1.024 3.776 3.424s-1.584 3.44-3.776 3.44h-2.96v4.576zm1.904-9.824v3.616h2.88c1.28 0 1.952-.544 1.952-1.808 0-1.248-.672-1.808-1.952-1.808zm8.194-1.616h1.904v11.44h-1.904zm9.449.384h1.488v11.056h-1.856v-8.016c-.656.64-1.392.64-2.32.64v-1.328c2 0 2.576-.992 2.688-2.352z" fill="#fff"/><rect fill="#ed5d3d" height="48" rx="24" width="70" x="286" y="326"/><path d="m302.976 344.56h1.904v5.648l5.184-5.648h2.272l-4.448 4.848 4.72 6.592h-2.224l-3.744-5.264-1.76 1.888v3.376h-1.904zm10.738 11.44v-11.44h4.864c2.192 0 3.776 1.024 3.776 3.424s-1.584 3.44-3.776 3.44h-2.96v4.576zm1.904-9.824v3.616h2.88c1.28 0 1.952-.544 1.952-1.808 0-1.248-.672-1.808-1.952-1.808zm8.194-1.616h1.904v11.44h-1.904zm11.321 3.984c2.128 0 3.584 1.536 3.584 3.696 0 2.464-1.776 4-4.08 4-2.704 0-4.176-1.6-4.24-3.504h1.84c.112.992.768 1.92 2.304 1.92 1.36 0 2.32-.832 2.32-2.432 0-1.504-.88-2.208-2.224-2.208-.864 0-1.648.304-2.176.96h-1.872l1.2-6.032h6.368v1.568h-4.976l-.592 2.96v.032c.576-.592 1.392-.96 2.544-.96z" fill="#fff"/><rect fill="#2eb67d" height="48" rx="24" width="70" x="111" y="238"/><path d="m127.976 256.56h1.904v5.648l5.184-5.648h2.272l-4.448 4.848 4.72 6.592h-2.224l-3.744-5.264-1.76 1.888v3.376h-1.904zm10.738 11.44v-11.44h4.864c2.192 0 3.776 1.024 3.776 3.424s-1.584 3.44-3.776 3.44h-2.96v4.576zm1.904-9.824v3.616h2.88c1.28 0 1.952-.544 1.952-1.808 0-1.248-.672-1.808-1.952-1.808zm8.194-1.616h1.904v11.44h-1.904zm8.633 3.728h-1.808c0-2.064 1.408-3.584 4.176-3.584 1.952 0 3.68 1.104 3.68 3.056 0 1.184-.608 1.92-1.664 2.368v.032c1.504.432 2.032 1.424 2.032 2.736 0 2.176-1.616 3.344-4.016 3.344-2.912 0-4.496-1.488-4.496-4.032h1.792c0 1.488.688 2.448 2.576 2.448 1.664 0 2.304-.64 2.304-1.808 0-1.52-1.104-1.856-2.24-1.856h-.992v-1.472h.928c1.152 0 1.92-.48 1.92-1.616 0-.912-.576-1.616-1.888-1.616-1.744 0-2.304.912-2.304 2z" fill="#fff"/><rect fill="#ff9d0b" height="48" rx="24" width="70" x="422" y="214"/><path d="m438.976 232.56h1.904v5.648l5.184-5.648h2.272l-4.448 4.848 4.72 6.592h-2.224l-3.744-5.264-1.76 1.888v3.376h-1.904zm10.738 11.44v-11.44h4.864c2.192 0 3.776 1.024 3.776 3.424s-1.584 3.44-3.776 3.44h-2.96v4.576zm1.904-9.824v3.616h2.88c1.28 0 1.952-.544 1.952-1.808 0-1.248-.672-1.808-1.952-1.808zm8.194-1.616h1.904v11.44h-1.904zm8.777 4.304h-1.792c0-2.384 1.28-4.16 4.112-4.16 2.048 0 3.664 1.216 3.664 3.328 0 3.52-4.72 4.112-5.632 6.368v.032h5.521v1.568h-7.937c0-1.952 1.168-3.376 2.864-4.448 2.032-1.344 3.328-1.872 3.328-3.44 0-.912-.432-1.824-1.856-1.824-1.648 0-2.272 1.056-2.272 2.576z" fill="#fff"/></svg>