<svg fill="none" height="221" viewBox="0 0 422 221" width="422" xmlns="http://www.w3.org/2000/svg" xmlns:xlink="http://www.w3.org/1999/xlink"><linearGradient id="a"><stop offset="0" stop-color="#e3e5e8"/><stop offset="1" stop-color="#e3e5e8" stop-opacity=".4"/></linearGradient><linearGradient id="b" gradientUnits="userSpaceOnUse" x1="422" x2="0" xlink:href="#a" y1=".000864" y2="-.000933"/><linearGradient id="c" gradientUnits="userSpaceOnUse" x1="265" x2="211" y1="32" y2="247"><stop offset="0" stop-color="#700bff" stop-opacity=".08"/><stop offset="1" stop-color="#0b8aff" stop-opacity="0"/></linearGradient><linearGradient id="d" gradientUnits="userSpaceOnUse" x1="207.375" x2="213.379" y1="39" y2="58.2585"><stop offset="0" stop-color="#700bff" stop-opacity=".24"/><stop offset="1" stop-color="#0b8aff" stop-opacity=".04"/></linearGradient><linearGradient id="e" gradientUnits="userSpaceOnUse" x1="167.5" x2="199.976" y1="64" y2="223.248"><stop offset="0" stop-color="#700bff" stop-opacity=".16"/><stop offset="1" stop-color="#0b8aff" stop-opacity="0"/></linearGradient><linearGradient id="f" gradientUnits="userSpaceOnUse" x1="0" x2="422" xlink:href="#a" y1="31.9991" y2="32.0009"/><linearGradient id="g" gradientUnits="userSpaceOnUse" x1="83.0009" x2="83.0002" xlink:href="#a" y1="0" y2="247"/><linearGradient id="h" gradientUnits="userSpaceOnUse" x1="339.001" x2="339" xlink:href="#a" y1="0" y2="247"/><linearGradient id="i" gradientUnits="userSpaceOnUse" x1="371.001" x2="371" xlink:href="#a" y1="32" y2="247"/><linearGradient id="j" gradientUnits="userSpaceOnUse" x1="51.0009" x2="51.0005" xlink:href="#a" y1="64" y2="247"/><clipPath id="k"><path d="m0 0h422v221h-422z"/></clipPath><g clip-path="url(#k)"><path d="m0-.5h422" stroke="url(#b)" stroke-opacity=".3" transform="matrix(1 0 0 -1 0 64)"/><rect fill="#0e142c" height="215" rx="8" width="256" x="83" y="32"/><rect fill="url(#c)" height="215" rx="8" width="256" x="83" y="32"/><circle cx="211" cy="49" fill="url(#d)" r="10"/><rect fill="url(#e)" height="157" rx="4" width="240" x="91" y="64"/><g stroke-opacity=".3"><path d="m422 32.5h-422" stroke="url(#f)"/><path d="m82.5 247v-247" stroke="url(#g)"/><path d="m338.5 247v-247" stroke="url(#h)"/><path d="m370.5 247v-215" stroke="url(#i)"/><path d="m50.5 247v-183" stroke="url(#j)"/></g></g></svg>