<svg fill="none" height="20" viewBox="0 0 89 20" width="89" xmlns="http://www.w3.org/2000/svg"><g fill="#0e031e"><path d="m9.87138 20c12.79112 0 6.67362-19.222223 12.70762-19.222223.3059 0 .6396.055557 1.0289.166667v-.666667c-10.2051-1.083332-6.7292 13.916623-10.9002 18.111123l-.2503-.6389-8.87034-17.472223h-3.58706z"/><path d="m29.7045 16.8056v-5.3612h11.9013v-2.91662h-11.9013v-5.33334h13.7921v-2.916663h-17.1845v19.444423h17.3514v-2.9166z"/><path d="m50.3371 16.8056 12.0959-13.61116v-2.916663h-15.7664v2.916663h12.0125l-12.2628 13.61116v2.9166h16.9621v-2.9166z"/><path d="m65.4707 19.7222h3.6148l1.7519-3.5c1.1122-.6944 1.9186-.9722 2.586-.9722 1.7518 0 2.447 1.8333 4.449 1.8333 1.0845 0 2.5305-.5277 4.7272-2.1389l2.4192 4.7778h3.6148l-9.8991-19.7222h-3.3646zm11.5675-15.69442 5.3389 10.44442c-.8064.4722-1.4737.6389-2.0577.6389-1.8074 0-2.7528-1.8055-4.7827-1.8055-1.0289 0-2.3358.4722-4.1432 1.8333z"/></g></svg>