<svg fill="none" height="40" viewBox="0 0 119 40" width="119" xmlns="http://www.w3.org/2000/svg" xmlns:xlink="http://www.w3.org/1999/xlink"><clipPath id="a"><path d="m0 0h119v40h-119z"/></clipPath><g clip-path="url(#a)" fill="#000"><path d="m51.8271 19.0381c0 1.3102-1.2835 1.5776-3.396 1.9787-3.4226.6685-5.642 1.6044-5.642 4.5992 0 2.2997 1.7113 3.904 4.4922 3.904 2.1125 0 3.6634-.8289 4.519-2.0322h.0535c.2674 1.337.9627 1.8718 2.4601 1.8718.5348 0 .9894-.0535 1.6311-.2941v-1.337c-1.0963.1069-1.3102-.4011-1.3102-1.3637v-6.4978c0-3.6366-2.2462-4.7864-5.2678-4.7864-4.1179 0-5.8025 2.0589-5.9362 4.6794h2.7275c.1337-1.7648.9626-2.46 3.2087-2.46 1.8718 0 2.4601.7487 2.4601 1.7381zm-3.9308 8.2625c-1.5241 0-2.2728-.6952-2.2728-1.952 0-1.3904 1.0161-2.0589 3.3424-2.567 1.3103-.2674 2.4066-.5882 2.8612-.9091v2.0589c0 2.2194-1.6044 3.3692-3.9308 3.3692zm19.2904-17.3006v7.1128h-.0535c-.7219-1.0428-2.0589-2.0322-4.1714-2.0322-3.5029 0-6.0966 2.7274-6.0966 7.2197s2.5937 7.2197 6.0966 7.2197c2.1125 0 3.4495-1.0428 4.1714-1.9787h.0535v1.5776h2.8077v-19.1189zm-3.7435 17.2204c-2.4601 0-3.7703-2.2461-3.7703-4.9201s1.3102-4.9201 3.7703-4.9201c2.2996 0 3.7168 1.8718 3.7168 4.9201 0 3.0216-1.4172 4.9201-3.7168 4.9201zm15.3874 2.2996c-4.2783 0-6.8721-2.9681-6.8721-7.2197s2.5938-7.2197 6.8721-7.2197c4.2784 0 6.8721 2.9681 6.8721 7.2197s-2.5937 7.2197-6.8721 7.2197zm0-2.2996c2.674 0 4.0645-2.1124 4.0645-4.9201 0-2.8344-1.3905-4.9201-4.0645-4.9201-2.6739 0-4.0644 2.0857-4.0644 4.9201 0 2.8077 1.3905 4.9201 4.0644 4.9201zm16.1661-12.1398c-2.3531 0-3.7703 1.0696-4.4923 2.1392h-.0535v-1.7649h-2.8076v13.664h2.8076v-8.316c0-2.0322 1.3905-3.3425 3.5564-3.3425 1.9253 0 2.7007 1.1766 2.7007 3.0216v8.6369h2.8344v-9.4391c0-3.1285-2.0054-4.5992-4.5457-4.5992zm8.6913-1.9253c.828 0 1.604-.5348 1.604-1.4974 0-.9627-.776-1.4707-1.604-1.4707-.776 0-1.578.508-1.578 1.4707 0 .9626.802 1.4974 1.578 1.4974zm-1.391 2.2996v13.664h2.808v-13.664zm11.572 5.4015c-1.979-.4546-3.503-.5616-3.503-1.952 0-.9627.909-1.6044 2.594-1.6044 2.192 0 2.727 1.0963 2.914 2.1659h2.728c-.187-2.3798-1.952-4.3853-5.669-4.3853-3.423 0-5.402 1.7916-5.402 4.0377 0 3.1018 2.942 3.5296 5.108 4.0377 2.005.4813 3.636.615 3.636 2.3263 0 .8557-.829 1.8183-2.781 1.8183-2.888 0-3.529-1.2567-3.663-2.7274h-2.727c.133 2.8879 2.032 4.9468 6.444 4.9468 3.316 0 5.562-1.6311 5.562-4.2516 0-3.2622-2.728-3.8238-5.241-4.412z"/><path d="m20.4991 19.0494c0-4.2842-3.898-7.7572-3.898-7.7572s-3.898 3.473-3.898 7.7572c0 4.2841 3.898 7.757 3.898 7.757s3.898-3.4729 3.898-7.757z"/><path d="m8.71611 21.3929c3.79779 2.1421 4.92739 7.1764 4.92739 7.1764s-5.02757 1.5614-8.82536-.5807c-3.79778-2.142-4.927515-7.1764-4.927515-7.1764s5.027705-1.5613 8.825485.5807z"/><path d="m24.49 21.3929c-3.7979 2.1421-4.9275 7.1764-4.9275 7.1764s5.0276 1.5614 8.8254-.5807c3.7978-2.142 4.9275-7.1764 4.9275-7.1764s-5.0277-1.5613-8.8254.5807z"/></g></svg>