<svg fill="none" height="40" viewBox="0 0 40 40" width="40" xmlns="http://www.w3.org/2000/svg"><path d="m38.3666 31.4114c-.3877-.3877-.8329-.6759-1.2971-.9074l.0136-.0136-15.3554-9.428c.1142-.1854.1938-.3845.242-.5899l13.0421 3.1203v-.0146c.3793.1278.7785.2127 1.1996.2127 2.0923.001 3.7886-1.6953 3.7886-3.7888 0-2.0914-1.6963-3.7877-3.7886-3.7888-.4233 0-.8214.0859-1.1996.2127v-.0146l-13.0421 3.1202c-.0492-.2064-.1288-.4055-.242-.5899l15.3554-9.42786-.0157-.01572c.4652-.23051.9094-.5197 1.2971-.90738 1.9215-1.92163 1.9215-5.03563 0-6.95725-1.9215-1.921631-5.0364-1.920577-6.9569 0-.3876.38768-.6758.83299-.9073 1.29715l-.0136-.01362-9.4274 15.35628c-.1855-.1143-.3846-.1939-.5899-.2421l3.1201-13.04273-.0147.00001c.1279-.3793.2127-.7785.2127-1.19971-.001-2.09241-1.6952-3.78876977-3.7886-3.78877-2.0912-.00000023-3.7885 1.6953-3.7885 3.78876 0 .4233.0859.82147.2127 1.19972l-.0147-.00001 3.1201 13.04273c-.2064.0493-.4044.1299-.5898.2421l-9.42746-15.35628-.01362.01362c-.2305-.46521-.51967-.90947-.90733-1.29715-1.92153-1.921628-5.03536-1.921635-6.95688-.00001-1.921527 1.92163-1.920472 5.03667.00001 6.95725.38765.38768.83294.67582 1.29708.90738l-.01362.01362 15.35542 9.42787c-.1142.1855-.1938.3846-.242.5899l-13.04208-3.1202.00001.0146c-.37928-.1278-.77847-.2127-1.19966-.2127-2.0923.0011-3.78857023 1.6953-3.78857 3.7888.00104798 2.0924 1.69522 3.7888 3.78857 3.7888.42328 0 .82143-.086 1.19966-.2127l-.00001.0146 13.04208-3.1202c.0492.2064.1299.4044.242.5899l-15.35542 9.4279.01362.0136c-.46519.2305-.90942.5197-1.29708.9074-1.921527 1.9216-1.921533 5.0356-.00001 6.9572 1.92153 1.9216 5.03641 1.9206 6.95689 0 .38766-.3877.67579-.833.90733-1.2971l.01362.0136 9.42745-15.3563c.1854.1142.3845.1939.5898.2421l-3.1201 13.0427h.0147c-.1278.3793-.2127.7785-.2127 1.1997 0 2.0935 1.6952 3.7888 3.7886 3.7888 2.0912 0 3.7885-1.6953 3.7885-3.7888.0011-.4222-.0859-.8214-.2127-1.1997h.0147l-3.1201-13.0427c.2064-.0493.4044-.1299.5898-.2421l9.4275 15.3563.0136-.0136c.2305.4652.5197.9094.9073 1.2971 1.9216 1.9216 5.0364 1.9206 6.9569 0 1.9226-1.9185 1.9236-5.0335.0021-6.9551z" fill="#090a0b"/></svg>