<svg fill="none" height="47" viewBox="0 0 48 47" width="48" xmlns="http://www.w3.org/2000/svg"><path d="m39.311 23.4776c0-8.385-6.7665-15.19047-15.1125-15.19047-2.9027-.00451-5.7455.82483-8.1903 2.38937-2.4449 1.5645-4.3889 3.7984-5.6009 6.4359-1.21188 2.6375-1.64071 5.5676-1.23544 8.4417.40528 2.8742 1.62764 5.5715 3.52164 7.771 2.3409 2.7435 5.5837 4.562 9.1455 5.1285v-10.7055h-3.705v-4.29h3.705v-3.159c0-3.666 2.223-5.655 5.46-5.655 1.56 0 2.9055.117 3.2954.156v3.8415h-2.2424c-1.7745 0-2.145.8385-2.145 2.0865v2.73h4.2315l-.546 4.29h-3.666v10.764c3.6268-.5042 6.9482-2.3048 9.3501-5.0687 2.4018-2.7639 3.7215-6.3041 3.7149-9.9658" fill="#2a2e32"/></svg>