<svg fill="none" height="257" viewBox="0 0 626 257" width="626" xmlns="http://www.w3.org/2000/svg" xmlns:xlink="http://www.w3.org/1999/xlink"><linearGradient id="a"><stop offset="0" stop-color="#d9d9d9"/><stop offset=".640625" stop-color="#d9d9d9" stop-opacity=".25"/><stop offset="1" stop-color="#d9d9d9" stop-opacity="0"/></linearGradient><linearGradient id="b" gradientUnits="userSpaceOnUse" x1="75" x2="75" xlink:href="#a" y1="112" y2="257"/><linearGradient id="c" gradientUnits="userSpaceOnUse" x1="-.000001" x2="150" y1="257" y2="112"><stop offset="0" stop-color="#10b981"/><stop offset="1" stop-color="#d9f99d"/></linearGradient><linearGradient id="d" gradientUnits="userSpaceOnUse" x1="19" x2="134.663" y1="240" y2="131.92"><stop offset="0" stop-color="#d9f99d"/><stop offset="1" stop-color="#10b981"/></linearGradient><linearGradient id="e" gradientUnits="userSpaceOnUse" x1="234" x2="234" xlink:href="#a" y1="112" y2="257"/><linearGradient id="f" gradientUnits="userSpaceOnUse" x1="159" x2="309" y1="257" y2="112"><stop offset="0" stop-color="#f97316"/><stop offset="1" stop-color="#fef08a"/></linearGradient><linearGradient id="g"><stop offset="0" stop-color="#ddd6fe"/><stop offset="1" stop-color="#9333ea"/></linearGradient><linearGradient id="h" gradientUnits="userSpaceOnUse" x1="181" x2="296.663" xlink:href="#g" y1="240" y2="131.92"/><linearGradient id="i" gradientUnits="userSpaceOnUse" x1="181" x2="296.663" y1="240" y2="131.92"><stop offset="0" stop-color="#fef08a"/><stop offset=".588542" stop-color="#f97316"/><stop offset="1" stop-color="#f97316"/></linearGradient><linearGradient id="j" gradientUnits="userSpaceOnUse" x1="393" x2="393" xlink:href="#a" y1="112" y2="257"/><linearGradient id="k" gradientUnits="userSpaceOnUse" x1="318" x2="468" y1="257" y2="112"><stop offset="0" stop-color="#3b82f6"/><stop offset="1" stop-color="#e0f2fe"/></linearGradient><linearGradient id="l" gradientUnits="userSpaceOnUse" x1="392.568" x2="475.185" y1="207" y2="129.8"><stop offset="0" stop-color="#e0f2fe"/><stop offset="1" stop-color="#3b82f6"/></linearGradient><linearGradient id="m" gradientUnits="userSpaceOnUse" x1="552" x2="552" xlink:href="#a" y1="112" y2="257"/><linearGradient id="n" gradientUnits="userSpaceOnUse" x1="477" x2="627" y1="257" y2="112"><stop offset="0" stop-color="#9333ea"/><stop offset="1" stop-color="#ddd6fe"/></linearGradient><linearGradient id="o" gradientUnits="userSpaceOnUse" x1="499" x2="614.663" xlink:href="#g" y1="240" y2="131.92"/><clipPath id="p"><path d="m0 0h626v257h-626z"/></clipPath><clipPath id="q"><path d="m217 32h192v32h-192z"/></clipPath><mask id="r" height="145" maskUnits="userSpaceOnUse" width="150" x="0" y="112"><rect fill="url(#b)" height="145" rx="8" width="150" y="112"/></mask><mask id="s" height="145" maskUnits="userSpaceOnUse" width="150" x="159" y="112"><rect fill="url(#e)" height="145" rx="8" width="150" x="159" y="112"/></mask><mask id="t" height="145" maskUnits="userSpaceOnUse" width="150" x="318" y="112"><rect fill="url(#j)" height="145" rx="8" width="150" x="318" y="112"/></mask><mask id="u" height="145" maskUnits="userSpaceOnUse" width="150" x="477" y="112"><rect fill="url(#m)" height="145" rx="8" width="150" x="477" y="112"/></mask><g clip-path="url(#p)"><g clip-path="url(#q)"><path clip-rule="evenodd" d="m268.329 32-16.398 32h-15.371l6.836-13.2741h-.317c-5.611 7.3482-14.067 12.1679-26.079 13.2741v-13.0765s7.705-.4346 12.21-5.2149h-12.21v-13.7086h13.711v11.2988h.317l5.611-11.2988h10.392v11.2198h.316l5.769-11.2198z" fill="#146ef5" fill-rule="evenodd"/><g fill="#fff"><path d="m357.592 60.4841h4.425v-25.363h-4.425z"/><path clip-rule="evenodd" d="m333.251 60.2075c.948.3951 1.936.5926 2.924.5926 1.66 0 3.122-.3951 4.386-1.1852 1.304-.7901 2.292-1.8963 3.003-3.3185.712-1.4222 1.067-3.0025 1.067-4.8198 0-1.8172-.355-3.3975-1.106-4.8197s-1.739-2.4889-3.043-3.279-2.805-1.1852-4.465-1.1457c-1.067 0-2.055.1975-3.043.6321-.987.3951-1.778.9877-2.41 1.7383-.039.0395-.079.1185-.158.158v-9.6395h-4.426v25.3234h4.387v-2.3703c.118.158.237.2765.355.395.711.7507 1.541 1.3433 2.529 1.7383zm4.505-4.1086c-.712.4345-1.541.6716-2.49.6716-.909 0-1.778-.2371-2.529-.6716-.75-.4741-1.383-1.1062-1.817-1.8963-.435-.7901-.672-1.6988-.672-2.726 0-1.0271.198-1.9358.632-2.7259.435-.7901 1.067-1.4222 1.818-1.8963.751-.4345 1.62-.6716 2.529-.6716s1.738.1976 2.489.6321c.751.4346 1.304 1.0667 1.699 1.8568s.593 1.6988.593 2.7654c0 1.0272-.198 1.9358-.593 2.7655-.355.8296-.909 1.4617-1.659 1.8963z" fill-rule="evenodd"/><path d="m274.73 36.6616h5.058l4.505 16.4741 4.821-16.4741h4.188l5.216 16.158 4.347-16.158h4.623l-6.836 23.8222h-4.347l-5.295-15.8024-4.86 15.8024h-4.386z"/><path clip-rule="evenodd" d="m314.916 60.8789c-1.778 0-3.358-.395-4.741-1.1456-1.423-.7902-2.49-1.8963-3.319-3.3186-.791-1.4222-1.186-3.0419-1.186-4.8197s.395-3.358 1.225-4.7803c.83-1.4222 1.936-2.5284 3.319-3.3185 1.423-.7901 2.964-1.1852 4.702-1.1852 1.937 0 3.636.4346 5.098 1.3037 1.462.8692 2.568 2.0939 3.279 3.6741.751 1.5803.988 3.3975.791 5.4124h-13.87c.04.8296.237 1.5407.593 2.2123.395.7506.988 1.3037 1.699 1.6988.751.395 1.541.6321 2.45.6321.672 0 1.343-.1185 1.936-.3556.593-.237 1.107-.5531 1.502-.9481.434-.3951.711-.8692.909-1.3432h4.623c-.277 1.2246-.83 2.3308-1.699 3.3185-.83.9481-1.897 1.6987-3.162 2.2518-1.224.4741-2.607.7506-4.149.7111zm-4.07-12.6814c-.276.4345-.434.9481-.553 1.4617h9.207c-.079-.6716-.276-1.2642-.593-1.7778-.395-.6321-.908-1.1457-1.58-1.4617-.672-.3556-1.423-.5531-2.252-.5531-.909 0-1.7.1975-2.45.6321-.751.3951-1.344.9481-1.779 1.6988z" fill-rule="evenodd"/><path d="m347.911 42.6271c0-1.4618.316-2.726.988-3.8321.671-1.1457 1.58-2.0148 2.766-2.6469 1.185-.6321 2.608-.9482 4.188-.9877v3.9506c-.751 0-1.383.158-1.896.4741-.514.2765-.909.7111-1.186 1.2642-.276.5136-.395 1.1062-.435 1.7778h3.438v3.7531h-3.438v14.1037h-4.425v-14.1037h-2.845v-3.7531z"/><path clip-rule="evenodd" d="m373.24 60.8395c-1.818 0-3.399-.395-4.821-1.1851-1.423-.7902-2.529-1.8963-3.319-3.3186-.791-1.4222-1.186-3.0024-1.186-4.8197s.395-3.3975 1.186-4.8198c.79-1.4222 1.936-2.5284 3.319-3.3185 1.422-.7901 3.042-1.1852 4.821-1.1852 1.817 0 3.437.3951 4.86 1.1852 1.422.7901 2.568 1.8963 3.359 3.3185.79 1.4223 1.185 3.042 1.224 4.8198 0 1.7778-.434 3.3975-1.224 4.8197-.791 1.4223-1.897 2.4889-3.32 3.3186-1.462.7901-3.082 1.1851-4.899 1.1851zm0-4.0296c.948 0 1.778-.1975 2.528-.6321.751-.4346 1.304-1.0667 1.7-1.8568.395-.7901.592-1.6987.592-2.7259s-.197-1.9358-.592-2.7654c-.396-.7902-.949-1.4223-1.7-1.8568-.75-.4346-1.58-.6716-2.528-.6716-.949 0-1.779.237-2.49.6716-.711.4345-1.264 1.0271-1.699 1.8568-.395.7901-.593 1.6987-.593 2.7654 0 1.0272.198 1.9358.593 2.7259s.988 1.4222 1.699 1.8568c.711.3951 1.541.6321 2.49.6321z" fill-rule="evenodd"/><path d="m387.425 42.6272h-4.939l5.334 17.8173h4.307l3.517-11.3778 3.794 11.3778h4.228l5.334-17.8173h-4.465l-3.003 11.1012-3.359-11.1012h-4.307l-3.319 11.3383z"/></g></g><g mask="url(#r)"><path d="m0 112h150v145h-150z" fill="url(#c)"/><rect fill="url(#d)" height="112" rx="56" width="112" x="19" y="128"/></g><g mask="url(#s)"><path d="m159 112h150v145h-150z" fill="url(#f)"/><path d="m237 128 48.497 28v56l-48.497 28-48.497-28v-56z" fill="#d9d9d9"/><path d="m237 128 48.497 28v56l-48.497 28-48.497-28v-56z" fill="url(#h)"/><path d="m237 128 48.497 28v56l-48.497 28-48.497-28v-56z" fill="url(#i)"/></g><g mask="url(#t)"><path d="m318 112h150v145h-150z" fill="url(#k)"/><path d="m392.568 127h80v80h-80z" fill="#d9d9d9" transform="matrix(.70710678 .70710678 -.70710678 .70710678 204.783066 -240.390056)"/><path d="m392.568 127h80v80h-80z" fill="url(#l)" transform="matrix(.70710678 .70710678 -.70710678 .70710678 204.783066 -240.390056)"/></g><g mask="url(#u)"><path d="m477 112h150v145h-150z" fill="url(#n)"/><path d="m555 128 53.259 38.695-20.343 62.61h-65.832l-20.343-62.61z" fill="#d9d9d9"/><path d="m555 128 53.259 38.695-20.343 62.61h-65.832l-20.343-62.61z" fill="url(#o)"/></g></g></svg>