<svg fill="none" height="58" viewBox="0 0 155 58" width="155" xmlns="http://www.w3.org/2000/svg" xmlns:xlink="http://www.w3.org/1999/xlink"><clipPath id="a"><path d="m.555542.662354h154.444v57.2016h-154.444z"/></clipPath><g clip-path="url(#a)" fill="#fff"><path d="m20.4039 22.3714h7.8588v-7.708c.0004-1.5812-.6233-3.0988-1.7357-4.2234-.5507-.55715-1.2062-1.00005-1.9288-1.3032-.7227-.30314-1.4981-.46057-2.2818-.46322h-15.54068c-.78535.00589-1.56147.16973-2.28209.48176-.72277.29425-1.3787.73119-1.92852 1.28466-.5458.5621-.98183 1.2211-1.28568 1.9431-.307188.7267-.465655 1.5075-.46606 2.2963v15.5767c.003201.7819.155938 1.5558.44999 2.2803.30379.7259.74591 1.3858 1.30175 1.9431.54982.5535 1.20575.9904 1.92852 1.2847.72278.3014 1.4989.4543 2.28209.4496h7.66588v-7.8686c-.0021-.7816.1501-1.556.448-2.2787s.7355-1.3796 1.2879-1.9331c.5524-.5534 1.2086-.9925 1.9311-1.2921s1.497-.4538 2.2793-.4538"/><path d="m35.9292 22.3726h-7.6658v7.8847c-.0043 1.576-.6316 3.0864-1.7454 4.2024-1.1137 1.1159-2.6237 1.7468-4.2009 1.7552h-7.8748v7.7884c-.0021.7816.1501 1.556.448 2.2787s.7355 1.3796 1.2879 1.933c.5524.5535 1.2086.9926 1.9311 1.2922s1.497.4538 2.2793.4538h15.5246c.7814.0015 1.5555-.1508 2.278-.4484s1.3792-.7346 1.9326-1.2859c.5558-.5573.9979-1.2172 1.3017-1.9431.2941-.7245.4468-1.4985.45-2.2803v-15.5767c-.0032-.7818-.1559-1.5558-.45-2.2803-.3038-.7259-.7459-1.3858-1.3017-1.9431-.5534-.5513-1.2101-.9883-1.9326-1.2859s-1.4966-.45-2.278-.4484"/><path d="m41.8933 13.1548c.0043.8916-.2588 1.7642-.7553 2.5051-.4948.7231-1.1942 1.2823-2.0089 1.6058-.8103.3326-1.7013.417-2.5597.2426s-1.6456-.5998-2.2616-1.2221c-.6093-.6241-1.0247-1.4112-1.1958-2.2662-.1711-.8549-.0907-1.7411.2315-2.5514.2809-.6798.7256-1.2797 1.2945-1.74638.5688-.4667 1.2443-.78574 1.9663-.92875.722-.14302 1.4681-.10558 2.1722.10899.704.21456 1.344.5996 1.8633 1.12094.4224.4208.7565.9216.9828 1.4731s.3402 1.1425.335 1.7385"/><path d="m81.4761 28.2181v13.9066h-4.2909v-5.6847c-1.6071 5.1227-5.9785 6.054-9.0802 6.054-1.7453.0023-3.4727-.3505-5.0772-1.0368-1.6044-.6864-3.0521-1.692-4.255-2.9556s-2.1358-2.7586-2.7417-4.394c-.606-1.6355-.8723-3.3771-.7829-5.1187 0-8.0292 5.8499-13.4088 13.9175-13.4088 5.8499 0 10.7355 3.2117 12.0051 8.6715l-4.4999 1.9913c-1.1089-4.3197-3.3428-6.1825-7.7784-6.1825-5.5445 0-8.6141 2.5212-8.6141 8.9445 0 6.4234 2.4589 9.2497 8.8552 9.2497 4.0659 0 7.1194-2.0234 7.6016-5.8774h-7.4731v-4.1591z"/><path d="m97.2384 23.7705v4.4803c-.7952-.2707-1.6378-.3746-2.475-.3051-2.9731 0-5.0623 2.0233-5.0623 6.6482v7.5956h-4.8213v-18.3869h4.8052v5.1869c.4821-2.7621 1.8321-5.492 5.3195-5.492.7549-.041 1.5111.0514 2.2339.273z"/><path d="m113.074 33.0033c0-3.6613-1.527-5.2832-5.063-5.2832-3.535 0-4.966 1.6059-4.966 5.2832 0 3.6774 1.607 5.1869 4.966 5.1869s5.063-1.6058 5.063-5.1869zm4.58-9.2014v18.3226h-4.725v-3.9985c-.447 1.3295-1.318 2.4762-2.479 3.2649-1.16.7887-2.548 1.1761-3.949 1.103-5.207 0-8.2931-3.8059-8.2931-9.4906 0-5.6846 2.9731-9.635 8.0351-9.635 1.462-.0711 2.907.3377 4.114 1.1641s2.11 2.025 2.572 3.4125v-4.143z"/><path d="m128.612 27.9446v9.9402h4.821v4.1913h-3.889c-.756.0425-1.513-.0759-2.22-.3472s-1.348-.6894-1.881-1.2267c-.533-.5374-.946-1.1816-1.212-1.8902-.265-.7087-.377-1.4655-.328-2.2206v-8.4468h-3.504v-4.143h3.504v-5.492h4.725v5.4598h5.287v4.1752z"/><path d="m81.5547 28.2181v13.9066h-4.291v-5.6847c-1.6071 5.1227-6.0105 6.054-9.0962 6.054-1.7453.0023-3.4727-.3505-5.0772-1.0368-1.6044-.6864-3.0521-1.692-4.255-2.9556s-2.1358-2.7586-2.7417-4.394c-.606-1.6355-.8723-3.3771-.7829-5.1187 0-8.0292 5.8659-13.4088 13.9336-13.4088 5.8498 0 10.7194 3.2117 11.989 8.6715l-4.4999 1.9913c-1.125-4.3197-3.3589-6.1825-7.7945-6.1825-5.5445 0-8.5819 2.5212-8.5819 8.9445 0 6.4234 2.4589 9.2497 8.8712 9.2497 4.066 0 7.1195-2.0234 7.5855-5.8774h-7.473v-4.1591z"/><path d="m97.2405 23.7693v4.4803c-.775-.262-1.5948-.3658-2.4107-.3051-2.9731 0-5.0623 2.0234-5.0623 6.6482v7.5956h-4.8213v-18.3869h4.8213v5.1869c.466-2.7621 1.816-5.492 5.3195-5.492.7281-.0316 1.4563.0607 2.1535.273z"/><path d="m113.134 33.0027c0-3.6614-1.607-5.2833-5.063-5.2833-3.455 0-4.949 1.6059-4.949 5.2833 0 3.6773 1.607 5.1868 4.949 5.1868 3.343 0 5.063-1.6058 5.063-5.1868zm4.58-9.2015v18.3227h-4.741v-3.9986c-.442 1.3104-1.295 2.4432-2.433 3.2302-1.138.7869-2.5 1.1859-3.883 1.1377-5.223 0-8.3085-3.8058-8.3085-9.4905s2.9735-9.6351 8.0355-9.6351c1.447-.0577 2.874.358 4.063 1.184s2.076 2.0172 2.526 3.3927v-4.1431z"/><path d="m128.694 27.9446v9.9402h4.822v4.1913h-3.905c-.757.0422-1.514-.0761-2.222-.3473s-1.35-.6891-1.884-1.2261c-.535-.537-.949-1.181-1.216-1.8896-.268-.7087-.382-1.4658-.335-2.2217v-8.4468h-3.504v-4.143h3.504v-5.492h4.74v5.4598h5.272v4.1752z"/><path d="m150.513 33.0033c0-3.6613-1.607-5.2832-5.063-5.2832-3.455 0-4.949 1.6059-4.949 5.2832 0 3.6774 1.607 5.1869 4.949 5.1869 3.343 0 5.063-1.6058 5.063-5.1869zm4.58-9.2015v18.3227h-4.725v-3.9985c-.443 1.3131-1.298 2.4479-2.44 3.2351-1.141.7872-2.506 1.1845-3.892 1.1328-5.223 0-8.309-3.8059-8.309-9.4906s2.974-9.635 8.036-9.635c1.449-.056 2.876.3602 4.068 1.1857 1.191.8255 2.082 2.0156 2.537 3.3909v-4.1431z"/></g></svg>