<svg fill="none" height="47" viewBox="0 0 47 47" width="47" xmlns="http://www.w3.org/2000/svg"><path d="m32.9074 28.5727-2.068-2.0709 2.068-2.068c.6839-.6779 1.2272-1.4843 1.5986-2.3727.3715-.8885.5637-1.8416.5659-2.8046.0021-.9629-.1861-1.9169-.5536-2.8069-.3675-.8901-.9073-1.6989-1.5882-2.3798s-1.4897-1.2207-2.3798-1.5882c-.89-.3675-1.844-.5557-2.8069-.5536-.963.0022-1.9161.1944-2.8046.5659-.8884.3714-1.6948.9147-2.3727 1.5986l-2.068 2.0694-2.0695-2.0679 2.0709-2.068c1.92-1.92 4.5241-2.99866 7.2394-2.99866s5.3194 1.07866 7.2394 2.99866 2.9986 4.5241 2.9986 7.2394-1.0786 5.3193-2.9986 7.2393l-2.0694 2.068zm-4.136 4.136-2.0694 2.0679c-1.92 1.92-4.5241 2.9987-7.2394 2.9987s-5.3193-1.0787-7.2393-2.9987-2.99869-4.524-2.99869-7.2393 1.07869-5.3194 2.99869-7.2394l2.0694-2.068 2.068 2.0709-2.068 2.068c-.6839.6779-1.2272 1.4843-1.5986 2.3728-.3715.8884-.5638 1.8415-.5659 2.8045s.186 1.9169.5536 2.807c.3675.8901.9073 1.6988 1.5882 2.3797.6809.681 1.4897 1.2207 2.3797 1.5882.8901.3676 1.844.5557 2.807.5536s1.9161-.1944 2.8046-.5659c.8884-.3714 1.6948-.9147 2.3727-1.5986l2.068-2.0679 2.0694 2.0679zm-1.0354-15.5128 2.0694 2.0695-10.3413 10.3398-2.0694-2.0679 10.3413-10.3399z" fill="#2a2e32"/></svg>