<svg fill="none" height="75" viewBox="0 0 130 75" width="130" xmlns="http://www.w3.org/2000/svg"><path d="m56.5429 6.4011c2.5015-1.24341 5.1817-1.91965 7.9736-1.91965 2.2558 0 4.4223.43628 6.4548 1.24341 9.8273 3.88295 16.9968 16.40434 16.9968 31.23804 0 14.8338-7.1695 27.3552-16.9968 31.2381-2.0549.8072-4.2213 1.2434-6.4548 1.2434-2.7919 0-5.4944-.6762-7.9736-1.9196m0-61.1237c7.1472 4.5156 12.2395 16.4916 12.2395 30.5618 0 14.0703-5.0923 26.0463-12.2395 30.5619m0-61.1237c-1.9655-1.24341-4.0873-1.91965-6.2985-1.91965-2.9482 0-5.74 1.2216-8.2192 3.3594m14.5177 59.68395c-1.9655 1.2434-4.0873 1.9196-6.2985 1.9196-2.9482 0-5.74-1.1997-8.2192-3.3594m0-58.24415c4.4893 5.30085 7.5939 16.36075 7.5939 29.12205m-7.5939-29.12205c4.5116 5.32265 7.5939 16.36075 7.5939 29.12205m-7.5939-29.12205c-1.8315-2.1378-3.8865-3.3594-6.0529-3.3594-3.3056 0-6.3432 2.81404-8.7107 7.48235 1.9208 5.9553 3.1493 14.9428 3.1493 24.9991m19.2082 0c0 12.7614-3.0823 23.7995-7.5939 29.1221m7.5939-29.1221c0 12.7614-3.1046 23.8213-7.5939 29.1221m0 0c-1.8315 2.1378-3.8865 3.3594-6.0529 3.3594-3.3279 0-6.3432-2.814-8.7107-7.4823m3.1493-24.9992c0 10.0564-1.2285 19.0439-3.1493 24.9992m3.1493-24.9992c0-10.0563-1.2062-19.0438-3.127-24.9991-1.5188-4.66831-3.4619-7.48235-5.5837-7.48235-4.8244 0-8.733 14.55015-8.733 32.48145 0 17.9314 3.9086 32.4815 8.733 32.4815 2.1218 0 4.065-2.814 5.5614-7.4823m65.799-57.48065c-2.6579 0-5.2264.3054-7.7055.87257 12.4852 3.40303 21.7769 16.25168 21.7769 31.60888 0 15.3573-9.2694 28.2059-21.7769 31.609 2.4791.5671 5.0476.8725 7.7055.8725 18.3594 0 33.2564-14.5501 33.2564-32.4815 0-17.9313-14.875-32.48145-33.2564-32.48145zm14.0934 32.48145c0-15.3572-9.2909-28.20585-21.7984-31.60888-2.0995-.56717-4.3106-.87257-6.5665-.87257-2.7025 0-5.338.43628-7.8172 1.24341 9.805 3.88295 16.9969 16.40434 16.9969 31.23804 0 14.8338-7.1695 27.3552-16.9969 31.2381 2.4792.8072 5.0924 1.2434 7.8172 1.2434 2.2559 0 4.467-.3054 6.5665-.8725 12.5075-3.4031 21.7984-16.2517 21.7984-31.609zm-99.72536-32.48145c-2.09948 0-3.81926 14.55015-3.81926 32.48145 0 17.9314 1.71978 32.4815 3.81926 32.4815s3.81926-14.5501 3.81926-32.4815c0-17.9313-1.69745-32.48145-3.81926-32.48145z" stroke="#fff" stroke-linecap="round" stroke-linejoin="round" stroke-width="3.60906"/></svg>