<svg fill="none" height="245" viewBox="0 0 245 245" width="245" xmlns="http://www.w3.org/2000/svg"><path d="m1 61.75v-52.75c0-4.41828 3.58172-8 8-8h52.75m-60.75 60.75v60.75m0-60.75h60.75m-60.75 60.75v60.75m0-60.75h60.75m-60.75 60.75v52.75c0 4.418 3.58172 8 8 8h52.75m-60.75-60.75h60.75m0-182.25v60.75m0-60.75h60.75m-60.75 60.75v60.75m0-60.75h60.75m-60.75 60.75v60.75m0-60.75h60.75m-60.75 60.75v60.75m0-60.75h60.75m-60.75 60.75h60.75m0-243v60.75m0-60.75h60.75m-60.75 60.75v60.75m0-60.75h60.75m-60.75 60.75v60.75m0-60.75h60.75m-60.75 60.75v60.75m0-60.75h60.75m-60.75 60.75h60.75m0-243v60.75m0-60.75h52.75c4.418 0 8 3.58172 8 8v52.75m-60.75 0v60.75m0-60.75h60.75m-60.75 60.75v60.75m0-60.75h60.75m-60.75 60.75v60.75m0-60.75h60.75m-60.75 60.75h52.75c4.418 0 8-3.582 8-8v-52.75m0-121.5v60.75m0 0v60.75" opacity=".15" stroke="#e3e5e8"/></svg>