<svg fill="none" height="53" viewBox="0 0 242 53" width="242" xmlns="http://www.w3.org/2000/svg"><path clip-rule="evenodd" d="m57.6477 36.9379c2.0071 1.4202 4.1318 2.6817 6.3594 3.7624-7.2716 3.3502-13.8967 3.6751-16.0551 3.6835l-.2187-.0002c-.3341-.002-.5141-.0113-.5165-.0113 3.8671-1.9109 7.3843-4.431 10.4309-7.4344zm7.9504-11.0219c.7146.4981 1.4498.968 2.2071 1.4068-2.6997 5.1811-5.6625 8.3076-5.6625 8.3076 2.8305-2.3482 5.0978-5.0522 6.8741-7.642 2.5452 1.3283 5.2904 2.3201 8.1797 2.9115-2.8672 3.2184-6.2344 5.9728-9.9795 8.1356-2.6849-1.1326-5.2287-2.5379-7.599-4.1804 2.3644-2.6847 4.3818-5.6881 5.9801-8.9391zm30.7187-3.1463c2.019 0 3.5425.7986 4.6902 1.8179l-1.6772 2.735c-.6843-.509-1.4895-1.1203-2.8243-1.1203-1.609 0-2.5662 1.1715-2.5676 2.5126 0 1.3411.9586 2.5141 2.5676 2.5141 1.3348 0 2.14-.6114 2.8243-1.1218l1.6772 2.7349c-1.1477 1.0194-2.6712 1.818-4.6902 1.818-3.5765 0-6.2636-2.5638-6.2636-5.9452 0-3.3799 2.6871-5.9452 6.2636-5.9452zm9.7702 0v4.1958h4.163v-4.1958h3.817v11.8904h-3.817v-4.372h-4.163v4.372h-3.816v-11.8904zm13.878 0v11.8904h-3.792v-11.8904zm5.939 0v8.5678h5.436v3.3226h-9.269v-11.8904zm10.491 0v11.8904h-3.791v-11.8904zm12.064 0c2.361 0 4.366 1.4348 4.366 4.5285 0 2.7987-2.005 4.4593-4.366 4.4593h-2.429v2.9026h-3.737v-11.8904zm9.422 0v11.8904h-3.792v-11.8904zm8.274 0c2.361 0 4.365 1.4348 4.365 4.5285 0 2.7987-2.004 4.4593-4.365 4.4593h-2.43v2.9026h-3.738v-11.8904zm15.318 0v3.3226h-6.069v1.0494h4.811v3.0591h-4.811v1.1367h6.069v3.3226h-9.689v-11.8904zm8.336 0c2.346 0 4.102 1.3655 4.102 4.0573 0 1.4934-.811 2.6903-2.079 3.3032l-.116.054 2.817 3.6012v.8747h-3.713l-2.919-4.0904h-.608v4.0904h-3.713v-11.8904zm-120.6011-8.0772c5.6242.0222 10.8559 1.7196 15.2317 4.6252-1.3586 3.3058-3.1378 6.3893-5.2698 9.1866-3.0834-.4699-6.0066-1.4305-8.6885-2.8003 2.6631-4.4364 3.8107-8.0539 3.84-8.1471l.0006-.0018-2.7952-.6686c-.5749 2.9352-1.4983 5.6243-2.5467 7.9948-.7749-.4566-1.5277-.9473-2.2541-1.4706 1.1337-2.7662 1.9747-5.6837 2.482-8.7182zm78.6571 11.3998h-1.834v2.3426h1.834c.646 0 1.104-.5074 1.105-1.1713 0-.6474-.459-1.1713-1.105-1.1713zm17.695 0h-1.835v2.3426h1.835c.646 0 1.104-.5074 1.104-1.1713 0-.6474-.458-1.1713-1.104-1.1713zm23.624 0h-1.891v1.8187h1.891c.641 0 .912-.4728.91-.9094 0-.42-.269-.9093-.91-.9093zm-108.3012-22.31496s2.2629 4.64892-.3132 9.54386c0 0 1.7706 1.1659 2.1203 1.9186l.0264.0635-.2676.8286c-2.5547-1.2999-5.3214-2.2376-8.2342-2.748l-.3808-.0641.2191-.8524s1.8733-.3143 3.279 0c0 0 2.0133-1.5347 2.1044-6.60846l.0027-.20484z" fill="#fff" fill-rule="evenodd"/></svg>