<svg fill="none" height="519" viewBox="0 0 1277 519" width="1277" xmlns="http://www.w3.org/2000/svg" xmlns:xlink="http://www.w3.org/1999/xlink"><filter id="a" color-interpolation-filters="sRGB" filterUnits="userSpaceOnUse" height="1324.5" width="2914.91" x="-765.105" y="-689.561"><feFlood flood-opacity="0" result="BackgroundImageFix"/><feBlend in="SourceGraphic" in2="BackgroundImageFix" mode="normal" result="shape"/><feGaussianBlur result="effect1_foregroundBlur_2793_1198" stdDeviation="89.9343"/></filter><filter id="b" color-interpolation-filters="sRGB" filterUnits="userSpaceOnUse" height="1523.95" width="3745.28" x="-1630.62" y="-1175.91"><feFlood flood-opacity="0" result="BackgroundImageFix"/><feBlend in="SourceGraphic" in2="BackgroundImageFix" mode="normal" result="shape"/><feGaussianBlur result="effect1_foregroundBlur_2793_1198" stdDeviation="89.9343"/></filter><filter id="c" color-interpolation-filters="sRGB" filterUnits="userSpaceOnUse" height="1137.69" width="2735.83" x="-569.185" y="-785.382"><feFlood flood-opacity="0" result="BackgroundImageFix"/><feBlend in="SourceGraphic" in2="BackgroundImageFix" mode="normal" result="shape"/><feGaussianBlur result="effect1_foregroundBlur_2793_1198" stdDeviation="89.9343"/></filter><filter id="d" color-interpolation-filters="sRGB" filterUnits="userSpaceOnUse" height="1523.95" width="3745.93" x="-1703.65" y="-1299.55"><feFlood flood-opacity="0" result="BackgroundImageFix"/><feBlend in="SourceGraphic" in2="BackgroundImageFix" mode="normal" result="shape"/><feGaussianBlur result="effect1_foregroundBlur_2793_1198" stdDeviation="89.9343"/></filter><filter id="e" color-interpolation-filters="sRGB" filterUnits="userSpaceOnUse" height="1067.39" width="2045.77" x="-512.837" y="-618.363"><feFlood flood-opacity="0" result="BackgroundImageFix"/><feBlend in="SourceGraphic" in2="BackgroundImageFix" mode="normal" result="shape"/><feGaussianBlur result="effect1_foregroundBlur_2793_1198" stdDeviation="89.9343"/></filter><filter id="f" color-interpolation-filters="sRGB" filterUnits="userSpaceOnUse" height="1427.56" width="2760.48" x="-725.751" y="-1085.41"><feFlood flood-opacity="0" result="BackgroundImageFix"/><feBlend in="SourceGraphic" in2="BackgroundImageFix" mode="normal" result="shape"/><feGaussianBlur result="effect1_foregroundBlur_2793_1198" stdDeviation="89.9343"/></filter><filter id="g" color-interpolation-filters="sRGB" filterUnits="userSpaceOnUse" height="936.926" width="2084.1" x="-527.265" y="-692.233"><feFlood flood-opacity="0" result="BackgroundImageFix"/><feBlend in="SourceGraphic" in2="BackgroundImageFix" mode="normal" result="shape"/><feGaussianBlur result="effect1_foregroundBlur_2793_1198" stdDeviation="89.9343"/></filter><filter id="h" color-interpolation-filters="sRGB" filterUnits="userSpaceOnUse" height="1859.45" width="2776.26" x="-657.976" y="-1299.55"><feFlood flood-opacity="0" result="BackgroundImageFix"/><feBlend in="SourceGraphic" in2="BackgroundImageFix" mode="normal" result="shape"/><feGaussianBlur result="effect1_foregroundBlur_2793_1198" stdDeviation="89.9343"/></filter><linearGradient id="i"><stop offset="0" stop-color="#a282ff"/><stop offset="1" stop-color="#a282ff" stop-opacity="0"/></linearGradient><radialGradient id="j" cx="0" cy="0" gradientTransform="matrix(1733.21621981 738.21771166 -1120.6302234 2631.05916986 -307.753 -1044.57)" gradientUnits="userSpaceOnUse" r="1" xlink:href="#i"/><linearGradient id="k"><stop offset="0" stop-color="#ff279c"/><stop offset="1" stop-color="#ff279c" stop-opacity="0"/></linearGradient><radialGradient id="l" cx="0" cy="0" gradientTransform="matrix(1605.49325049 191.8055545 -191.79606452 1605.41381536 -341.109 -429.117)" gradientUnits="userSpaceOnUse" r="1" xlink:href="#k"/><linearGradient id="m"><stop offset="0" stop-color="#6f9fff"/><stop offset="1" stop-color="#ff6fce" stop-opacity="0"/></linearGradient><radialGradient id="n" cx="0" cy="0" gradientTransform="matrix(1221.95736185 488.76044462 -488.7715859 1221.98521633 -403.988 -396.338)" gradientUnits="userSpaceOnUse" r="1" xlink:href="#m"/><linearGradient id="o"><stop offset="0" stop-color="#0b3cff"/><stop offset="1" stop-color="#0b3cff" stop-opacity="0"/></linearGradient><radialGradient id="p" cx="0" cy="0" gradientTransform="matrix(784.30186174 36.18187631 -36.18123114 784.28787661 -110.752 -328.072)" gradientUnits="userSpaceOnUse" r="1" xlink:href="#o"/><linearGradient id="q"><stop offset="0" stop-color="#dcff93"/><stop offset="1" stop-color="#dcff93" stop-opacity="0"/></linearGradient><radialGradient id="r" cx="0" cy="0" gradientTransform="matrix(346.98012394 147.46732479 -147.47162736 346.99024757 -372.129 -412.945)" gradientUnits="userSpaceOnUse" r="1" xlink:href="#q"/><linearGradient id="s"><stop offset="0" stop-color="#fff"/><stop offset="1" stop-color="#fff" stop-opacity="0"/></linearGradient><radialGradient id="t" cx="0" cy="0" gradientTransform="matrix(661.25382659 143.54569253 -143.54208615 661.23721352 -360.392 -419.064)" gradientUnits="userSpaceOnUse" r="1" xlink:href="#s"/><radialGradient id="u" cx="0" cy="0" gradientTransform="matrix(-2017.55003117 1987.07570066 -3016.4286015 -3062.68936657 1443.18 -1842.21)" gradientUnits="userSpaceOnUse" r="1"><stop offset="0" stop-color="#82f7ff"/><stop offset="1" stop-color="#82d2ff" stop-opacity="0"/></radialGradient><radialGradient id="v" cx="0" cy="0" gradientTransform="matrix(-2139.87072612 1152.49074426 -1152.43384262 -2139.76507479 1828.8 -999.783)" gradientUnits="userSpaceOnUse" r="1" xlink:href="#k"/><radialGradient id="w" cx="0" cy="0" gradientTransform="matrix(-1439.88036068 1356.58995475 -1356.62424186 -1439.91675291 1934.79 -988.567)" gradientUnits="userSpaceOnUse" r="1" xlink:href="#m"/><radialGradient id="x" cx="0" cy="0" gradientTransform="matrix(-1077.02318609 482.56553206 -482.5573543 -1077.0049344 1562.26 -731.588)" gradientUnits="userSpaceOnUse" r="1"><stop offset="0" stop-color="#0b3cff" stop-opacity="0"/><stop offset="1" stop-color="#0b3cff"/></radialGradient><radialGradient id="y" cx="0" cy="0" gradientTransform="matrix(-404.08154941 397.35331863 -397.36383581 -404.09224468 1881.09 -994.249)" gradientUnits="userSpaceOnUse" r="1" xlink:href="#q"/><radialGradient id="z" cx="0" cy="0" gradientTransform="matrix(-845.79312444 564.94874551 -564.93763671 -845.7764933 1861.3 -996.343)" gradientUnits="userSpaceOnUse" r="1" xlink:href="#s"/><radialGradient id="A" cx="0" cy="0" gradientTransform="matrix(1605.49328396 191.80527429 -191.79578432 1605.41384883 -326.438 -523.292)" gradientUnits="userSpaceOnUse" r="1" xlink:href="#k"/><radialGradient id="B" cx="0" cy="0" gradientTransform="matrix(1221.95736185 488.76044462 -488.7715859 1221.98521633 -389.316 -490.513)" gradientUnits="userSpaceOnUse" r="1" xlink:href="#m"/><radialGradient id="C" cx="0" cy="0" gradientTransform="matrix(1135.92067746 280.95415464 -280.94935262 1135.9012625 -337.123 -504.929)" gradientUnits="userSpaceOnUse" r="1"><stop offset="0" stop-color="#ffcf54"/><stop offset="1" stop-color="#ffcf54" stop-opacity="0"/></radialGradient><radialGradient id="D" cx="0" cy="0" gradientTransform="matrix(661.25382659 143.54569253 -143.54208615 661.23721352 -345.72 -513.239)" gradientUnits="userSpaceOnUse" r="1" xlink:href="#s"/><radialGradient id="E" cx="0" cy="0" gradientTransform="matrix(-2017.55003117 1987.07570066 -3016.4286015 -3062.68936657 1370.8 -1965.85)" gradientUnits="userSpaceOnUse" r="1" xlink:href="#i"/><radialGradient id="F" cx="0" cy="0" gradientTransform="matrix(-2139.87072612 1152.49074426 -1152.43384262 -2139.76507479 1756.42 -1123.42)" gradientUnits="userSpaceOnUse" r="1"><stop offset="0" stop-color="#ff279c"/><stop offset=".0001" stop-color="#27ff64"/><stop offset="1" stop-color="#eeffea" stop-opacity="0"/></radialGradient><radialGradient id="G" cx="0" cy="0" gradientTransform="matrix(-1439.88036068 1356.58995475 -1356.62424186 -1439.91675291 1862.42 -1112.21)" gradientUnits="userSpaceOnUse" r="1" xlink:href="#m"/><radialGradient id="H" cx="0" cy="0" gradientTransform="matrix(-1434.00165885 1018.56467017 -1018.54150689 -1433.96904807 1781.48 -1103.62)" gradientUnits="userSpaceOnUse" r="1" xlink:href="#o"/><radialGradient id="I" cx="0" cy="0" gradientTransform="matrix(-845.80144001 564.9542999 -564.93763671 -845.7764933 1788.92 -1119.98)" gradientUnits="userSpaceOnUse" r="1" xlink:href="#s"/><radialGradient id="J" cx="0" cy="0" gradientTransform="matrix(1234.08439423 525.62568195 -797.90978547 1873.36358947 -264.448 -822.687)" gradientUnits="userSpaceOnUse" r="1" xlink:href="#i"/><radialGradient id="K" cx="0" cy="0" gradientTransform="matrix(470.82605408 102.20742668 -102.20488099 470.8143272 -301.928 -377.313)" gradientUnits="userSpaceOnUse" r="1" xlink:href="#s"/><radialGradient id="L" cx="0" cy="0" gradientTransform="matrix(-1436.54025113 1414.8418537 -2147.75925118 -2180.69786809 1504.82 -1508.02)" gradientUnits="userSpaceOnUse" r="1" xlink:href="#i"/><radialGradient id="M" cx="0" cy="0" gradientTransform="matrix(-602.22512764 402.2571484 -402.24715048 -602.21015961 1802.53 -905.75)" gradientUnits="userSpaceOnUse" r="1" xlink:href="#s"/><radialGradient id="N" cx="0" cy="0" gradientTransform="matrix(1733.21621981 738.21771166 -1120.6302234 2631.05916986 -293.081 -1138.75)" gradientUnits="userSpaceOnUse" r="1" xlink:href="#i"/><linearGradient id="O"><stop offset="0" stop-color="#27fff2"/><stop offset="1" stop-color="#277eff" stop-opacity="0"/></linearGradient><radialGradient id="P" cx="0" cy="0" gradientTransform="matrix(1605.49321701 191.80583471 -191.79634472 1605.41378188 -326.437 -523.291)" gradientUnits="userSpaceOnUse" r="1" xlink:href="#O"/><linearGradient id="Q"><stop offset="0" stop-color="#6f9fff"/><stop offset="1" stop-color="#6fcbff" stop-opacity="0"/></linearGradient><radialGradient id="R" cx="0" cy="0" gradientTransform="matrix(1221.95736185 488.76044462 -488.7715859 1221.98521633 -389.316 -490.511)" gradientUnits="userSpaceOnUse" r="1" xlink:href="#Q"/><linearGradient id="S"><stop offset="0" stop-color="#04fff0"/><stop offset="1" stop-color="#6254ff" stop-opacity="0"/></linearGradient><radialGradient id="T" cx="0" cy="0" gradientTransform="matrix(605.91999978 47.15344498 -47.15266911 605.91002992 1.35722 -312.735)" gradientUnits="userSpaceOnUse" r="1" xlink:href="#S"/><radialGradient id="U" cx="0" cy="0" gradientTransform="matrix(-2017.55003117 1987.07570066 -3016.4286015 -3062.68936657 1370.8 -1965.84)" gradientUnits="userSpaceOnUse" r="1" xlink:href="#i"/><radialGradient id="V" cx="0" cy="0" gradientTransform="matrix(-2139.87072612 1152.49074426 -1152.42910081 -2139.75627051 1756.42 -1123.42)" gradientUnits="userSpaceOnUse" r="1" xlink:href="#O"/><radialGradient id="W" cx="0" cy="0" gradientTransform="matrix(-1439.88036068 1356.58995475 -1356.62424186 -1439.91675291 1862.42 -1112.2)" gradientUnits="userSpaceOnUse" r="1" xlink:href="#Q"/><radialGradient id="X" cx="0" cy="0" gradientTransform="matrix(-821.48702341 399.6725587 -399.66555882 -821.47263585 1413.92 -648.393)" gradientUnits="userSpaceOnUse" r="1" xlink:href="#S"/><clipPath id="Y"><path d="m0 0h1277v519h-1277z"/></clipPath><g clip-path="url(#Y)" opacity=".8"><g filter="url(#a)"><path d="m409.651-193.64c-378.532 101.8107-672.201-107.278-771.72-224.549l-41.919 21.853-181.249 851.407c537.2613-280.077 1864.427-747.759 2362.337-908.501 68.42-7.523 113.52-13.326 186.86-51.559 28.38-14.796-46.1 6.115-186.86 51.559-81.76 8.987-196.83 20.43-433.18 92.571-434.172 132.523-461.103 39.955-934.269 167.219z" fill="url(#j)"/><path d="m409.651-193.64c-378.532 101.8107-672.201-107.278-771.72-224.549l-41.919 21.853-181.249 851.407c537.2613-280.077 1864.427-747.759 2362.337-908.501 68.42-7.523 113.52-13.326 186.86-51.559 28.38-14.796-46.1 6.115-186.86 51.559-81.76 8.987-196.83 20.43-433.18 92.571-434.172 132.523-461.103 39.955-934.269 167.219z" fill="url(#l)"/><path d="m409.651-193.64c-378.532 101.8107-672.201-107.278-771.72-224.549l-41.919 21.853-181.249 851.407c537.2613-280.077 1864.427-747.759 2362.337-908.501 68.42-7.523 113.52-13.326 186.86-51.559 28.38-14.796-46.1 6.115-186.86 51.559-81.76 8.987-196.83 20.43-433.18 92.571-434.172 132.523-461.103 39.955-934.269 167.219z" fill="url(#n)"/><path d="m409.651-193.64c-378.532 101.8107-672.201-107.278-771.72-224.549l-41.919 21.853-181.249 851.407c537.2613-280.077 1864.427-747.759 2362.337-908.501 68.42-7.523 113.52-13.326 186.86-51.559 28.38-14.796-46.1 6.115-186.86 51.559-81.76 8.987-196.83 20.43-433.18 92.571-434.172 132.523-461.103 39.955-934.269 167.219z" fill="url(#p)"/><path d="m409.651-193.64c-378.532 101.8107-672.201-107.278-771.72-224.549l-41.919 21.853-181.249 851.407c537.2613-280.077 1864.427-747.759 2362.337-908.501 68.42-7.523 113.52-13.326 186.86-51.559 28.38-14.796-46.1 6.115-186.86 51.559-81.76 8.987-196.83 20.43-433.18 92.571-434.172 132.523-461.103 39.955-934.269 167.219z" fill="url(#r)"/><path d="m409.651-193.64c-378.532 101.8107-672.201-107.278-771.72-224.549l-41.919 21.853-181.249 851.407c537.2613-280.077 1864.427-747.759 2362.337-908.501 68.42-7.523 113.52-13.326 186.86-51.559 28.38-14.796-46.1 6.115-186.86 51.559-81.76 8.987-196.83 20.43-433.18 92.571-434.172 132.523-461.103 39.955-934.269 167.219z" fill="url(#t)"/></g><g filter="url(#b)"><path d="m908.447-256.951c585.503-66.083 881.083-520.262 955.683-739.092l70.66 7.477-30.26 971.0837c-773.18-81.8055-2093.43 15.3283-2826.088 96.2254-267.882 51.7979-319.972 105.5649-515.382 84.8899-72.61-7.682 147.19-44.236 515.382-84.8899 104.113-20.1316 240.822-39.9656 431.208-55.0158 680.236-53.7735 666.921-198.0743 1398.797-280.6783z" fill="url(#u)"/><path d="m908.447-256.951c585.503-66.083 881.083-520.262 955.683-739.092l70.66 7.477-30.26 971.0837c-773.18-81.8055-2093.43 15.3283-2826.088 96.2254-267.882 51.7979-319.972 105.5649-515.382 84.8899-72.61-7.682 147.19-44.236 515.382-84.8899 104.113-20.1316 240.822-39.9656 431.208-55.0158 680.236-53.7735 666.921-198.0743 1398.797-280.6783z" fill="url(#v)"/><path d="m908.447-256.951c585.503-66.083 881.083-520.262 955.683-739.092l70.66 7.477-30.26 971.0837c-773.18-81.8055-2093.43 15.3283-2826.088 96.2254-267.882 51.7979-319.972 105.5649-515.382 84.8899-72.61-7.682 147.19-44.236 515.382-84.8899 104.113-20.1316 240.822-39.9656 431.208-55.0158 680.236-53.7735 666.921-198.0743 1398.797-280.6783z" fill="url(#w)"/><path d="m908.447-256.951c585.503-66.083 881.083-520.262 955.683-739.092l70.66 7.477-30.26 971.0837c-773.18-81.8055-2093.43 15.3283-2826.088 96.2254-267.882 51.7979-319.972 105.5649-515.382 84.8899-72.61-7.682 147.19-44.236 515.382-84.8899 104.113-20.1316 240.822-39.9656 431.208-55.0158 680.236-53.7735 666.921-198.0743 1398.797-280.6783z" fill="url(#x)"/><path d="m908.447-256.951c585.503-66.083 881.083-520.262 955.683-739.092l70.66 7.477-30.26 971.0837c-773.18-81.8055-2093.43 15.3283-2826.088 96.2254-267.882 51.7979-319.972 105.5649-515.382 84.8899-72.61-7.682 147.19-44.236 515.382-84.8899 104.113-20.1316 240.822-39.9656 431.208-55.0158 680.236-53.7735 666.921-198.0743 1398.797-280.6783z" fill="url(#y)"/><path d="m908.447-256.951c585.503-66.083 881.083-520.262 955.683-739.092l70.66 7.477-30.26 971.0837c-773.18-81.8055-2093.43 15.3283-2826.088 96.2254-267.882 51.7979-319.972 105.5649-515.382 84.8899-72.61-7.682 147.19-44.236 515.382-84.8899 104.113-20.1316 240.822-39.9656 431.208-55.0158 680.236-53.7735 666.921-198.0743 1398.797-280.6783z" fill="url(#z)"/></g><g filter="url(#c)"><path d="m424.323-287.817c-378.5328 101.812-672.202-107.277-771.72-224.548l-41.919 21.852 376.8328 662.949c503.0372-262.2359 1401.2032-588.524 1799.5432-719.527 71.1-7.792 116.56-12.973 191.57-52.075 34.78-18.13-44.18 3.606-191.57 52.075-81.47 8.929-196.61 21.287-428.47 92.056-434.17 132.522-461.102 39.955-934.267 167.218z" fill="url(#A)"/><path d="m424.323-287.817c-378.5328 101.812-672.202-107.277-771.72-224.548l-41.919 21.852 376.8328 662.949c503.0372-262.2359 1401.2032-588.524 1799.5432-719.527 71.1-7.792 116.56-12.973 191.57-52.075 34.78-18.13-44.18 3.606-191.57 52.075-81.47 8.929-196.61 21.287-428.47 92.056-434.17 132.522-461.102 39.955-934.267 167.218z" fill="url(#B)"/><path d="m424.323-287.817c-378.5328 101.812-672.202-107.277-771.72-224.548l-41.919 21.852 376.8328 662.949c503.0372-262.2359 1401.2032-588.524 1799.5432-719.527 71.1-7.792 116.56-12.973 191.57-52.075 34.78-18.13-44.18 3.606-191.57 52.075-81.47 8.929-196.61 21.287-428.47 92.056-434.17 132.522-461.102 39.955-934.267 167.218z" fill="url(#C)"/><path d="m424.323-287.817c-378.5328 101.812-672.202-107.277-771.72-224.548l-41.919 21.852 376.8328 662.949c503.0372-262.2359 1401.2032-588.524 1799.5432-719.527 71.1-7.792 116.56-12.973 191.57-52.075 34.78-18.13-44.18 3.606-191.57 52.075-81.47 8.929-196.61 21.287-428.47 92.056-434.17 132.522-461.102 39.955-934.267 167.218z" fill="url(#D)"/></g><g filter="url(#d)"><path d="m836.07-380.591c585.5-66.083 881.08-520.262 955.68-739.089l70.67 7.47-145.94 872.145c-462.08-48.89-1101.252-18.216-1689.8776 37.91-145.7084 42.374-308.3534 80.031-589.3304 102.2428-680.232 53.7735-675.242 168.6162-946.592 139.9059-130.74-13.8327 644.65-157.1667 1535.9224-242.1487 207.0476-60.213 379.8976-129.952 809.4676-178.436z" fill="url(#E)"/><path d="m836.07-380.591c585.5-66.083 881.08-520.262 955.68-739.089l70.67 7.47-145.94 872.145c-462.08-48.89-1101.252-18.216-1689.8776 37.91-145.7084 42.374-308.3534 80.031-589.3304 102.2428-680.232 53.7735-675.242 168.6162-946.592 139.9059-130.74-13.8327 644.65-157.1667 1535.9224-242.1487 207.0476-60.213 379.8976-129.952 809.4676-178.436z" fill="url(#F)"/><path d="m836.07-380.591c585.5-66.083 881.08-520.262 955.68-739.089l70.67 7.47-145.94 872.145c-462.08-48.89-1101.252-18.216-1689.8776 37.91-145.7084 42.374-308.3534 80.031-589.3304 102.2428-680.232 53.7735-675.242 168.6162-946.592 139.9059-130.74-13.8327 644.65-157.1667 1535.9224-242.1487 207.0476-60.213 379.8976-129.952 809.4676-178.436z" fill="url(#G)"/><path d="m836.07-380.591c585.5-66.083 881.08-520.262 955.68-739.089l70.67 7.47-145.94 872.145c-462.08-48.89-1101.252-18.216-1689.8776 37.91-145.7084 42.374-308.3534 80.031-589.3304 102.2428-680.232 53.7735-675.242 168.6162-946.592 139.9059-130.74-13.8327 644.65-157.1667 1535.9224-242.1487 207.0476-60.213 379.8976-129.952 809.4676-178.436z" fill="url(#H)"/><path d="m836.07-380.591c585.5-66.083 881.08-520.262 955.68-739.089l70.67 7.47-145.94 872.145c-462.08-48.89-1101.252-18.216-1689.8776 37.91-145.7084 42.374-308.3534 80.031-589.3304 102.2428-680.232 53.7735-675.242 168.6162-946.592 139.9059-130.74-13.8327 644.65-157.1667 1535.9224-242.1487 207.0476-60.213 379.8976-129.952 809.4676-178.436z" fill="url(#I)"/></g><g filter="url(#e)"><path d="m246.359-216.807c-269.5231 72.492-478.622-76.384-549.481-159.883l-29.847 15.559 328.57252 630.287 1357.45648-707.65c-114.61 59.749-132.34 8.265-441.482 102.624-309.14 94.359-328.316 28.448-665.219 119.063z" fill="url(#J)"/><path d="m246.359-216.807c-269.5231 72.492-478.622-76.384-549.481-159.883l-29.847 15.559 328.57252 630.287 1357.45648-707.65c-114.61 59.749-132.34 8.265-441.482 102.624-309.14 94.359-328.316 28.448-665.219 119.063z" fill="url(#K)"/></g><g filter="url(#f)"><path d="m1124.08-379.289c416.89-47.052 627.35-370.437 680.47-526.248l50.31 5.323-112.41 1062.504-2288.332-242.1142c193.209 20.4423 189.65-61.3278 673.992-99.6158s474.862-141.033 995.97-199.849z" fill="url(#L)"/><path d="m1124.08-379.289c416.89-47.052 627.35-370.437 680.47-526.248l50.31 5.323-112.41 1062.504-2288.332-242.1142c193.209 20.4423 189.65-61.3278 673.992-99.6158s474.862-141.033 995.97-199.849z" fill="url(#M)"/></g><g filter="url(#g)"><path d="m424.324-287.815c-378.5323 101.811-672.202-107.278-771.72-224.549l97.571 514.07621 273.8034 63.11249 265.3136-100.7032 1087.668-218.8625s-479.47-160.338-952.636-33.074z" fill="url(#N)"/><path d="m424.324-287.815c-378.5323 101.811-672.202-107.278-771.72-224.549l97.571 514.07621 273.8034 63.11249 265.3136-100.7032 1087.668-218.8625s-479.47-160.338-952.636-33.074z" fill="url(#P)"/><path d="m424.324-287.815c-378.5323 101.811-672.202-107.278-771.72-224.549l97.571 514.07621 273.8034 63.11249 265.3136-100.7032 1087.668-218.8625s-479.47-160.338-952.636-33.074z" fill="url(#R)"/><path d="m424.324-287.815c-378.5323 101.811-672.202-107.278-771.72-224.549l97.571 514.07621 273.8034 63.11249 265.3136-100.7032 1087.668-218.8625s-479.47-160.338-952.636-33.074z" fill="url(#T)"/></g><g filter="url(#h)"><path d="m836.068-380.587c585.502-66.083 881.082-520.262 955.682-739.093l146.66 772.743-233.88 726.973-548.94-333.6627-1633.697 143.9707s582.299-488.327 1314.175-570.931z" fill="url(#U)"/><path d="m836.068-380.587c585.502-66.083 881.082-520.262 955.682-739.093l146.66 772.743-233.88 726.973-548.94-333.6627-1633.697 143.9707s582.299-488.327 1314.175-570.931z" fill="url(#V)"/><path d="m836.068-380.587c585.502-66.083 881.082-520.262 955.682-739.093l146.66 772.743-233.88 726.973-548.94-333.6627-1633.697 143.9707s582.299-488.327 1314.175-570.931z" fill="url(#W)"/><path d="m836.068-380.587c585.502-66.083 881.082-520.262 955.682-739.093l146.66 772.743-233.88 726.973-548.94-333.6627-1633.697 143.9707s582.299-488.327 1314.175-570.931z" fill="url(#X)"/></g></g></svg>