<svg fill="none" height="24" viewBox="0 0 24 24" width="24" xmlns="http://www.w3.org/2000/svg"><path d="m20.5 16.7212-8.209-4.56c-.089-.0494-.1892-.0753-.291-.0753s-.202.0259-.291.0753l-8.209 4.56m.028-9.42797 8.18 4.54397c.0892.0496.1895.0756.2915.0756s.2023-.026.2915-.0756l8.209-4.55997m-8.5 13.72197v-17.99997m9 4.353v9.29397c.0001.1072-.0286.2123-.0829.3047-.0544.0923-.1324.1684-.2261.2203l-8.4 4.666c-.089.0494-.1892.0753-.291.0753s-.202-.0259-.291-.0753l-8.4-4.666c-.09368-.0519-.17175-.128-.22608-.2203-.05434-.0924-.08297-.1975-.08292-.3047v-9.29397c.00013-.10696.02884-.21193.08317-.30406s.1323-.16807.22583-.21994l8.4-4.667c.089-.04938.1892-.07529.291-.07529s.202.02591.291.07529l8.4 4.667c.0935.05187.1715.12781.2258.21994.0544.09213.0831.1971.0832.30406z" stroke="#fff" stroke-linecap="square" stroke-width="1.5"/></svg>