<svg fill="none" height="80" viewBox="0 0 80 80" width="80" xmlns="http://www.w3.org/2000/svg"><path d="m40 78.4468 33.3333-19.245v-10.3098m-33.3333 29.5548-33.33334-19.245v-10.3098m33.33334 29.5548v-9.9661m0-28.5239v-9.6225m0 9.6225 16.3279-9.4269m-16.3279 9.4269-16.3279-9.4269m16.3279-.1956 16.3279-9.6225m-16.3279 9.6225-16.3279-9.6225m16.3279 0v-9.6225m0 9.6225 7.9041-5.0591m-7.9041 5.0591-7.9041-5.0591m7.9041-4.5634 7.9041-5.05908m-7.9041 5.05908-7.9041-5.05908m15.8082 0-7.9041-4.56342-7.9041 4.56342m15.8082 0v9.62248m-15.8082-9.62248v9.62248m7.9041 33.9266v8.9352m0-8.9352 24.7433-14.7958m-24.7433 14.7958-24.7434-14.7958m24.7434 23.731 24.7433-14.7958m-24.7433 14.7958-24.7434-14.7958m24.7434 24.762 33.3333-19.5887m-33.3333 19.5887-33.33334-19.5887m66.66664 0-8.59-5.1733m-58.07664 5.1733 8.58994-5.1733m32.6475-28.066 8.4238 5.0591m0 0v9.8181m-24.232-14.8772-8.4238 5.0591m0 0v9.8181m32.6558 0 8.4154 4.2536m-41.0712-4.2536-8.4155 4.2536m49.4867 0v8.9352m-49.4867-8.9352v8.9352" stroke="#ff279c" stroke-linecap="round" stroke-linejoin="round" stroke-width="1.5"/></svg>