<svg fill="none" height="80" viewBox="0 0 80 80" width="80" xmlns="http://www.w3.org/2000/svg"><path d="m60.6786 17.2209c5.7324-.3769 10.0142.8743 11.7688 3.9134 4.0958 7.0941-7.1304 21.2434-25.0743 31.6033-10.2568 5.9218-20.4884 9.3236-28.1373 9.8267m41.4428-45.3434c0 .9838-.7976 1.7813-1.7813 1.7813-.9838 0-1.7814-.7975-1.7814-1.7813s.7976-1.7813 1.7814-1.7813c.9837 0 1.7813.7975 1.7813 1.7813zm-3.512.4235c-7.1196 1.1532-15.8888 4.3589-24.6256 9.4032-17.944 10.3599-29.17008 24.5092-25.0743 31.6033 1.36846 2.3702 4.2742 3.653 8.2065 3.924m3.5626-45.354c7.6489.503 17.8805 3.9049 28.1373 9.8267 17.9439 10.3599 29.17 24.5092 25.0742 31.6033-1.7546 3.039-6.0363 4.2903-11.7688 3.9134m-41.4427-45.3434c0 .9838-.7976 1.7813-1.7814 1.7813-.9837 0-1.7813-.7975-1.7813-1.7813s.7976-1.7813 1.7813-1.7813c.9838 0 1.7814.7975 1.7814 1.7813zm-3.5627-.0106c-3.9322.271-6.83798 1.5537-8.20644 3.924-4.09578 7.0941 7.13034 21.2434 25.07424 31.6033 8.7517 5.0528 17.4954 8.2716 24.6217 9.4198m3.5159.4069c0 .9838-.7975 1.7813-1.7813 1.7813s-1.7813-.7975-1.7813-1.7813.7975-1.7813 1.7813-1.7813 1.7813.7975 1.7813 1.7813zm-41.4427-.0236c0 .9838-.7975 1.7813-1.7813 1.7813s-1.7813-.7975-1.7813-1.7813.7975-1.7813 1.7813-1.7813 1.7813.7975 1.7813 1.7813zm35.5535-22.6481c0 20.7198-6.6406 37.5166-14.8321 37.5166-8.1916 0-14.8322-16.7968-14.8322-37.5166 0-20.7199 6.6406-37.51662 14.8322-37.51662 8.1915 0 14.8321 16.79672 14.8321 37.51662zm-5.453 0c0 5.1799-4.1992 9.3791-9.3792 9.3791s-9.3792-4.1992-9.3792-9.3791c0-5.18 4.1992-9.3792 9.3792-9.3792s9.3792 4.1992 9.3792 9.3792z" stroke="#6f9fff" stroke-linecap="round" stroke-linejoin="round" stroke-width="2"/></svg>