<svg fill="none" height="368" viewBox="0 0 564 368" width="564" xmlns="http://www.w3.org/2000/svg" xmlns:xlink="http://www.w3.org/1999/xlink"><linearGradient id="a" gradientUnits="userSpaceOnUse" x1="258.822" x2="375.13" y1="42.7808" y2="252.329"><stop offset="0" stop-color="#fff" stop-opacity=".4"/><stop offset="1" stop-color="#fff" stop-opacity=".08"/></linearGradient><g stroke="#fff"><path d="m14.5 344v-332" opacity=".2"/><path d="m103.5 344v-332" opacity=".2"/><path d="m192.5 344v-332" opacity=".2"/><path d="m281.5 344v-332" opacity=".2"/><path d="m116 40.5h332" opacity=".2"/><path d="m370.5 344v-332" opacity=".2"/><path d="m459.5 344v-332" opacity=".2"/><path d="m548.5 344v-332" opacity=".2"/></g><path clip-rule="evenodd" d="m255.797 196.211-97.908-138.1686c-4.77-6.7318.043-16.0424 8.294-16.0424h232.596c8.25 0 13.064 9.3106 8.293 16.0424l-95.366 134.5836v90.601c0 3.147-1.935 5.972-4.87 7.109l-40.661 15.751c-4.997 1.935-10.378-1.751-10.378-7.109z" fill="url(#a)" fill-rule="evenodd"/><path d="m277.823 138.26c33.782 0 17.625-50.7664 33.561-50.7664.808 0 1.689.1468 2.718.4402v-1.7607c-26.952-2.8611-17.772 36.7539-28.788 47.8319l-.661-1.688-23.427-46.1439h-9.473z" fill="#fff"/></svg>