<svg fill="none" height="24" viewBox="0 0 24 24" width="24" xmlns="http://www.w3.org/2000/svg"><path d="m20 12v-6.251c.0001-.07894-.0155-.15711-.0457-.23004s-.0745-.13918-.1303-.19496l-3.148-3.148c-.1124-.11255-.2649-.17586-.424-.176h-11.652c-.15913 0-.31174.06321-.42426.17574-.11253.11252-.17574.26513-.17574.42426v18.8c0 .1591.06321.3117.17574.4243.11252.1125.26513.1757.42426.1757h6.4m-3-12h8m-8-4h4m-4 8h3m5-11.5v2.9c0 .15913.0632.31174.1757.42426.1126.11253.2652.17574.4243.17574h2.9m-3.194 11.113.909-1.927c.0245-.0551.0645-.1019.1151-.1347.0506-.0329.1096-.0503.1699-.0503s.1193.0174.1699.0503c.0506.0328.0906.0796.1151.1347l.91 1.927 2.032.311c.261.04.365.376.177.568l-1.471 1.5.347 2.118c.044.272-.229.48-.462.351l-1.818-1-1.818 1c-.234.129-.506-.079-.462-.351l.347-2.118-1.47-1.5c-.19-.192-.085-.528.176-.568z" stroke="#fff" stroke-linecap="square" stroke-width="1.5"/></svg>