<svg fill="none" height="873" viewBox="0 0 378 873" width="378" xmlns="http://www.w3.org/2000/svg" xmlns:xlink="http://www.w3.org/1999/xlink"><radialGradient id="a" cx="0" cy="0" gradientTransform="matrix(176.52852655 -843.12700384 637.71800253 133.52130679 208.585 952.918)" gradientUnits="userSpaceOnUse" r="1"><stop offset="0" stop-color="#61b3ff"/><stop offset="1" stop-color="#61b3ff" stop-opacity="0"/></radialGradient><radialGradient id="b" cx="0" cy="0" gradientTransform="matrix(208.12910734 -1269.21847748 627.3067696 102.86707947 68.0156 1333.68)" gradientUnits="userSpaceOnUse" r="1"><stop offset="0" stop-color="#a282ff"/><stop offset="1" stop-color="#a282ff" stop-opacity="0"/></radialGradient><radialGradient id="c" cx="0" cy="0" gradientTransform="matrix(234.28174602 -852.19257189 1044.02533252 287.01972519 46.2219 1170.5)" gradientUnits="userSpaceOnUse" r="1"><stop offset="0" stop-color="#ff279c"/><stop offset="1" stop-color="#ff279c" stop-opacity="0"/></radialGradient><radialGradient id="d" cx="0" cy="0" gradientTransform="matrix(75.18936082 -1659.0570628 348.55122999 15.79652972 75.0986 1660.06)" gradientUnits="userSpaceOnUse" r="1"><stop offset="0" stop-color="#ff6fce"/><stop offset="1" stop-color="#ff6fce" stop-opacity="0"/></radialGradient><radialGradient id="e" cx="0" cy="0" gradientTransform="matrix(81.18180652 -489.55758531 246.63987762 40.89952117 17.3453 1224.89)" gradientUnits="userSpaceOnUse" r="1"><stop offset="0" stop-color="#ffcf54"/><stop offset="1" stop-color="#ffcf54" stop-opacity="0"/></radialGradient><radialGradient id="f" cx="0" cy="0" gradientTransform="matrix(36.50414562 -435.16258667 76.56777246 6.42298121 12.4417 1052.64)" gradientUnits="userSpaceOnUse" r="1"><stop offset="0" stop-color="#dcff93"/><stop offset="1" stop-color="#dcff93" stop-opacity="0"/></radialGradient><radialGradient id="g" cx="0" cy="0" gradientTransform="matrix(2.17983261 -1124.16788659 111.57179025 .21634476 90.899 1469.67)" gradientUnits="userSpaceOnUse" r="1"><stop offset="0" stop-color="#fff"/><stop offset="1" stop-color="#fff" stop-opacity="0"/></radialGradient><g stroke-linecap="round" stroke-linejoin="round" stroke-width="2"><path d="m292.907 218.047-17.691 44.456m17.691-44.456 17.238 44.456m-17.238-44.456h-35.382m35.382 0-53.074-133.6293-16.89 44.4893m-221.943 305.865h205.662m-205.662 0 88.4567 216.726h31.5533m-120.01-216.726 88.4567-216.725h32.0353m171.415 433.451-17.691-44.457m17.691 44.457 17.238-44.457m-17.238 44.457-53.074 130.848-16.89-43.934m69.964-86.914h-35.382m-50.863-216.726 50.863 127.813m-50.863-127.813 50.863-127.812m0 255.625 17.691-42.604m-17.691 42.604h-34.582m34.582-255.625 17.691 42.604m-17.691-42.604h-34.582m52.273 300.081 68.554-172.269m-68.554 172.269h-102.779m171.333-172.269c-3.538-4.449-47.177-116.7-68.554-172.269m68.554 172.269h-34.88m-33.674-172.269h-102.993m136.667 172.269-16.837-42.604m16.837 42.604-16.837 42.604m-16.837 42.605 16.837-42.605m-16.837 42.605-17.691-42.605m17.691-127.812 16.837 42.604m-16.837-42.604-17.691 42.604m34.528 0h-34.528m0 0-17.692 42.604 17.692 42.604m34.528 0h-34.528m-102.179-170.416 35.836 85.208m-35.836-85.208h67.597m-67.597 0 16.877-44.457m18.959 129.665h-35.836m35.836 0 31.761-85.208m16.89-305.96h-33.171l-85.17 217.047m118.341-217.047 88.457 217.047-18.145 44.456m-70.312-261.503-119.416 305.96m189.728-44.457 66.796 172.269-66.796 172.269m-189.728-300.081 34.929 85.208m-34.929-85.208h-35.3831m70.3121 85.208h-34.929m-35.3831-85.208 18.5701 42.604m-18.5701-42.604-31.8671 85.208h33.6249m-1.7578-85.208 36.4581-88.913m-1.075 174.121-16.813-42.604m16.813 42.604h-33.6253m16.8123-42.604-16.8123 42.604m104.3903 85.208-35.836 85.209m35.836-85.209h-35.836m35.836 0 31.761 85.209m-67.597 0 17.091 44.456m-17.091-44.456h67.597m-102.526 0 34.929-85.209m-34.929 85.209h-35.3831m35.3831 0 119.416 308.74m-84.487-393.949h-34.929m0 0-16.813 42.605m16.813-42.605h-33.6253m-1.7578 85.209 18.5701-42.604m-18.5701 42.604-31.8671-85.209h33.6249m-1.7578 85.209 35.9761 88.913m118.823 219.827h-33.171l-85.652-219.827m118.823 219.827 88.457-219.827-18.145-44.457m-52.62-388.994-34.582-89.14m34.582 89.14h-68.424m33.842-89.14-33.842 89.14m33.842 520.365 34.582-86.914m-34.582 86.914-33.415-86.914m67.997 0h-67.997m-17.091-44.457 17.091 44.457m-85.924-131.517-16.8123-42.605m85.4313-214.873 16.878-44.456" stroke="#ffee97"/><path d="m292.907 218.047-17.691 44.456m17.691-44.456 17.238 44.456m-17.238-44.456h-35.382m35.382 0-53.074-133.6293-16.89 44.4893m-221.943 305.865h205.662m-205.662 0 88.4567 216.726h31.5533m-120.01-216.726 88.4567-216.725h32.0353m171.415 433.451-17.691-44.457m17.691 44.457 17.238-44.457m-17.238 44.457-53.074 130.848-16.89-43.934m69.964-86.914h-35.382m-50.863-216.726 50.863 127.813m-50.863-127.813 50.863-127.812m0 255.625 17.691-42.604m-17.691 42.604h-34.582m34.582-255.625 17.691 42.604m-17.691-42.604h-34.582m52.273 300.081 68.554-172.269m-68.554 172.269h-102.779m171.333-172.269c-3.538-4.449-47.177-116.7-68.554-172.269m68.554 172.269h-34.88m-33.674-172.269h-102.993m136.667 172.269-16.837-42.604m16.837 42.604-16.837 42.604m-16.837 42.605 16.837-42.605m-16.837 42.605-17.691-42.605m17.691-127.812 16.837 42.604m-16.837-42.604-17.691 42.604m34.528 0h-34.528m0 0-17.692 42.604 17.692 42.604m34.528 0h-34.528m-102.179-170.416 35.836 85.208m-35.836-85.208h67.597m-67.597 0 16.877-44.457m18.959 129.665h-35.836m35.836 0 31.761-85.208m16.89-305.96h-33.171l-85.17 217.047m118.341-217.047 88.457 217.047-18.145 44.456m-70.312-261.503-119.416 305.96m189.728-44.457 66.796 172.269-66.796 172.269m-189.728-300.081 34.929 85.208m-34.929-85.208h-35.3831m70.3121 85.208h-34.929m-35.3831-85.208 18.5701 42.604m-18.5701-42.604-31.8671 85.208h33.6249m-1.7578-85.208 36.4581-88.913m-1.075 174.121-16.813-42.604m16.813 42.604h-33.6253m16.8123-42.604-16.8123 42.604m104.3903 85.208-35.836 85.209m35.836-85.209h-35.836m35.836 0 31.761 85.209m-67.597 0 17.091 44.456m-17.091-44.456h67.597m-102.526 0 34.929-85.209m-34.929 85.209h-35.3831m35.3831 0 119.416 308.74m-84.487-393.949h-34.929m0 0-16.813 42.605m16.813-42.605h-33.6253m-1.7578 85.209 18.5701-42.604m-18.5701 42.604-31.8671-85.209h33.6249m-1.7578 85.209 35.9761 88.913m118.823 219.827h-33.171l-85.652-219.827m118.823 219.827 88.457-219.827-18.145-44.457m-52.62-388.994-34.582-89.14m34.582 89.14h-68.424m33.842-89.14-33.842 89.14m33.842 520.365 34.582-86.914m-34.582 86.914-33.415-86.914m67.997 0h-67.997m-17.091-44.457 17.091 44.457m-85.924-131.517-16.8123-42.605m85.4313-214.873 16.878-44.456" stroke="url(#a)"/><path d="m292.907 218.047-17.691 44.456m17.691-44.456 17.238 44.456m-17.238-44.456h-35.382m35.382 0-53.074-133.6293-16.89 44.4893m-221.943 305.865h205.662m-205.662 0 88.4567 216.726h31.5533m-120.01-216.726 88.4567-216.725h32.0353m171.415 433.451-17.691-44.457m17.691 44.457 17.238-44.457m-17.238 44.457-53.074 130.848-16.89-43.934m69.964-86.914h-35.382m-50.863-216.726 50.863 127.813m-50.863-127.813 50.863-127.812m0 255.625 17.691-42.604m-17.691 42.604h-34.582m34.582-255.625 17.691 42.604m-17.691-42.604h-34.582m52.273 300.081 68.554-172.269m-68.554 172.269h-102.779m171.333-172.269c-3.538-4.449-47.177-116.7-68.554-172.269m68.554 172.269h-34.88m-33.674-172.269h-102.993m136.667 172.269-16.837-42.604m16.837 42.604-16.837 42.604m-16.837 42.605 16.837-42.605m-16.837 42.605-17.691-42.605m17.691-127.812 16.837 42.604m-16.837-42.604-17.691 42.604m34.528 0h-34.528m0 0-17.692 42.604 17.692 42.604m34.528 0h-34.528m-102.179-170.416 35.836 85.208m-35.836-85.208h67.597m-67.597 0 16.877-44.457m18.959 129.665h-35.836m35.836 0 31.761-85.208m16.89-305.96h-33.171l-85.17 217.047m118.341-217.047 88.457 217.047-18.145 44.456m-70.312-261.503-119.416 305.96m189.728-44.457 66.796 172.269-66.796 172.269m-189.728-300.081 34.929 85.208m-34.929-85.208h-35.3831m70.3121 85.208h-34.929m-35.3831-85.208 18.5701 42.604m-18.5701-42.604-31.8671 85.208h33.6249m-1.7578-85.208 36.4581-88.913m-1.075 174.121-16.813-42.604m16.813 42.604h-33.6253m16.8123-42.604-16.8123 42.604m104.3903 85.208-35.836 85.209m35.836-85.209h-35.836m35.836 0 31.761 85.209m-67.597 0 17.091 44.456m-17.091-44.456h67.597m-102.526 0 34.929-85.209m-34.929 85.209h-35.3831m35.3831 0 119.416 308.74m-84.487-393.949h-34.929m0 0-16.813 42.605m16.813-42.605h-33.6253m-1.7578 85.209 18.5701-42.604m-18.5701 42.604-31.8671-85.209h33.6249m-1.7578 85.209 35.9761 88.913m118.823 219.827h-33.171l-85.652-219.827m118.823 219.827 88.457-219.827-18.145-44.457m-52.62-388.994-34.582-89.14m34.582 89.14h-68.424m33.842-89.14-33.842 89.14m33.842 520.365 34.582-86.914m-34.582 86.914-33.415-86.914m67.997 0h-67.997m-17.091-44.457 17.091 44.457m-85.924-131.517-16.8123-42.605m85.4313-214.873 16.878-44.456" stroke="url(#b)"/><path d="m292.907 218.047-17.691 44.456m17.691-44.456 17.238 44.456m-17.238-44.456h-35.382m35.382 0-53.074-133.6293-16.89 44.4893m-221.943 305.865h205.662m-205.662 0 88.4567 216.726h31.5533m-120.01-216.726 88.4567-216.725h32.0353m171.415 433.451-17.691-44.457m17.691 44.457 17.238-44.457m-17.238 44.457-53.074 130.848-16.89-43.934m69.964-86.914h-35.382m-50.863-216.726 50.863 127.813m-50.863-127.813 50.863-127.812m0 255.625 17.691-42.604m-17.691 42.604h-34.582m34.582-255.625 17.691 42.604m-17.691-42.604h-34.582m52.273 300.081 68.554-172.269m-68.554 172.269h-102.779m171.333-172.269c-3.538-4.449-47.177-116.7-68.554-172.269m68.554 172.269h-34.88m-33.674-172.269h-102.993m136.667 172.269-16.837-42.604m16.837 42.604-16.837 42.604m-16.837 42.605 16.837-42.605m-16.837 42.605-17.691-42.605m17.691-127.812 16.837 42.604m-16.837-42.604-17.691 42.604m34.528 0h-34.528m0 0-17.692 42.604 17.692 42.604m34.528 0h-34.528m-102.179-170.416 35.836 85.208m-35.836-85.208h67.597m-67.597 0 16.877-44.457m18.959 129.665h-35.836m35.836 0 31.761-85.208m16.89-305.96h-33.171l-85.17 217.047m118.341-217.047 88.457 217.047-18.145 44.456m-70.312-261.503-119.416 305.96m189.728-44.457 66.796 172.269-66.796 172.269m-189.728-300.081 34.929 85.208m-34.929-85.208h-35.3831m70.3121 85.208h-34.929m-35.3831-85.208 18.5701 42.604m-18.5701-42.604-31.8671 85.208h33.6249m-1.7578-85.208 36.4581-88.913m-1.075 174.121-16.813-42.604m16.813 42.604h-33.6253m16.8123-42.604-16.8123 42.604m104.3903 85.208-35.836 85.209m35.836-85.209h-35.836m35.836 0 31.761 85.209m-67.597 0 17.091 44.456m-17.091-44.456h67.597m-102.526 0 34.929-85.209m-34.929 85.209h-35.3831m35.3831 0 119.416 308.74m-84.487-393.949h-34.929m0 0-16.813 42.605m16.813-42.605h-33.6253m-1.7578 85.209 18.5701-42.604m-18.5701 42.604-31.8671-85.209h33.6249m-1.7578 85.209 35.9761 88.913m118.823 219.827h-33.171l-85.652-219.827m118.823 219.827 88.457-219.827-18.145-44.457m-52.62-388.994-34.582-89.14m34.582 89.14h-68.424m33.842-89.14-33.842 89.14m33.842 520.365 34.582-86.914m-34.582 86.914-33.415-86.914m67.997 0h-67.997m-17.091-44.457 17.091 44.457m-85.924-131.517-16.8123-42.605m85.4313-214.873 16.878-44.456" stroke="url(#c)"/><path d="m292.907 218.047-17.691 44.456m17.691-44.456 17.238 44.456m-17.238-44.456h-35.382m35.382 0-53.074-133.6293-16.89 44.4893m-221.943 305.865h205.662m-205.662 0 88.4567 216.726h31.5533m-120.01-216.726 88.4567-216.725h32.0353m171.415 433.451-17.691-44.457m17.691 44.457 17.238-44.457m-17.238 44.457-53.074 130.848-16.89-43.934m69.964-86.914h-35.382m-50.863-216.726 50.863 127.813m-50.863-127.813 50.863-127.812m0 255.625 17.691-42.604m-17.691 42.604h-34.582m34.582-255.625 17.691 42.604m-17.691-42.604h-34.582m52.273 300.081 68.554-172.269m-68.554 172.269h-102.779m171.333-172.269c-3.538-4.449-47.177-116.7-68.554-172.269m68.554 172.269h-34.88m-33.674-172.269h-102.993m136.667 172.269-16.837-42.604m16.837 42.604-16.837 42.604m-16.837 42.605 16.837-42.605m-16.837 42.605-17.691-42.605m17.691-127.812 16.837 42.604m-16.837-42.604-17.691 42.604m34.528 0h-34.528m0 0-17.692 42.604 17.692 42.604m34.528 0h-34.528m-102.179-170.416 35.836 85.208m-35.836-85.208h67.597m-67.597 0 16.877-44.457m18.959 129.665h-35.836m35.836 0 31.761-85.208m16.89-305.96h-33.171l-85.17 217.047m118.341-217.047 88.457 217.047-18.145 44.456m-70.312-261.503-119.416 305.96m189.728-44.457 66.796 172.269-66.796 172.269m-189.728-300.081 34.929 85.208m-34.929-85.208h-35.3831m70.3121 85.208h-34.929m-35.3831-85.208 18.5701 42.604m-18.5701-42.604-31.8671 85.208h33.6249m-1.7578-85.208 36.4581-88.913m-1.075 174.121-16.813-42.604m16.813 42.604h-33.6253m16.8123-42.604-16.8123 42.604m104.3903 85.208-35.836 85.209m35.836-85.209h-35.836m35.836 0 31.761 85.209m-67.597 0 17.091 44.456m-17.091-44.456h67.597m-102.526 0 34.929-85.209m-34.929 85.209h-35.3831m35.3831 0 119.416 308.74m-84.487-393.949h-34.929m0 0-16.813 42.605m16.813-42.605h-33.6253m-1.7578 85.209 18.5701-42.604m-18.5701 42.604-31.8671-85.209h33.6249m-1.7578 85.209 35.9761 88.913m118.823 219.827h-33.171l-85.652-219.827m118.823 219.827 88.457-219.827-18.145-44.457m-52.62-388.994-34.582-89.14m34.582 89.14h-68.424m33.842-89.14-33.842 89.14m33.842 520.365 34.582-86.914m-34.582 86.914-33.415-86.914m67.997 0h-67.997m-17.091-44.457 17.091 44.457m-85.924-131.517-16.8123-42.605m85.4313-214.873 16.878-44.456" stroke="url(#d)"/><path d="m292.907 218.047-17.691 44.456m17.691-44.456 17.238 44.456m-17.238-44.456h-35.382m35.382 0-53.074-133.6293-16.89 44.4893m-221.943 305.865h205.662m-205.662 0 88.4567 216.726h31.5533m-120.01-216.726 88.4567-216.725h32.0353m171.415 433.451-17.691-44.457m17.691 44.457 17.238-44.457m-17.238 44.457-53.074 130.848-16.89-43.934m69.964-86.914h-35.382m-50.863-216.726 50.863 127.813m-50.863-127.813 50.863-127.812m0 255.625 17.691-42.604m-17.691 42.604h-34.582m34.582-255.625 17.691 42.604m-17.691-42.604h-34.582m52.273 300.081 68.554-172.269m-68.554 172.269h-102.779m171.333-172.269c-3.538-4.449-47.177-116.7-68.554-172.269m68.554 172.269h-34.88m-33.674-172.269h-102.993m136.667 172.269-16.837-42.604m16.837 42.604-16.837 42.604m-16.837 42.605 16.837-42.605m-16.837 42.605-17.691-42.605m17.691-127.812 16.837 42.604m-16.837-42.604-17.691 42.604m34.528 0h-34.528m0 0-17.692 42.604 17.692 42.604m34.528 0h-34.528m-102.179-170.416 35.836 85.208m-35.836-85.208h67.597m-67.597 0 16.877-44.457m18.959 129.665h-35.836m35.836 0 31.761-85.208m16.89-305.96h-33.171l-85.17 217.047m118.341-217.047 88.457 217.047-18.145 44.456m-70.312-261.503-119.416 305.96m189.728-44.457 66.796 172.269-66.796 172.269m-189.728-300.081 34.929 85.208m-34.929-85.208h-35.3831m70.3121 85.208h-34.929m-35.3831-85.208 18.5701 42.604m-18.5701-42.604-31.8671 85.208h33.6249m-1.7578-85.208 36.4581-88.913m-1.075 174.121-16.813-42.604m16.813 42.604h-33.6253m16.8123-42.604-16.8123 42.604m104.3903 85.208-35.836 85.209m35.836-85.209h-35.836m35.836 0 31.761 85.209m-67.597 0 17.091 44.456m-17.091-44.456h67.597m-102.526 0 34.929-85.209m-34.929 85.209h-35.3831m35.3831 0 119.416 308.74m-84.487-393.949h-34.929m0 0-16.813 42.605m16.813-42.605h-33.6253m-1.7578 85.209 18.5701-42.604m-18.5701 42.604-31.8671-85.209h33.6249m-1.7578 85.209 35.9761 88.913m118.823 219.827h-33.171l-85.652-219.827m118.823 219.827 88.457-219.827-18.145-44.457m-52.62-388.994-34.582-89.14m34.582 89.14h-68.424m33.842-89.14-33.842 89.14m33.842 520.365 34.582-86.914m-34.582 86.914-33.415-86.914m67.997 0h-67.997m-17.091-44.457 17.091 44.457m-85.924-131.517-16.8123-42.605m85.4313-214.873 16.878-44.456" stroke="url(#e)"/><path d="m292.907 218.047-17.691 44.456m17.691-44.456 17.238 44.456m-17.238-44.456h-35.382m35.382 0-53.074-133.6293-16.89 44.4893m-221.943 305.865h205.662m-205.662 0 88.4567 216.726h31.5533m-120.01-216.726 88.4567-216.725h32.0353m171.415 433.451-17.691-44.457m17.691 44.457 17.238-44.457m-17.238 44.457-53.074 130.848-16.89-43.934m69.964-86.914h-35.382m-50.863-216.726 50.863 127.813m-50.863-127.813 50.863-127.812m0 255.625 17.691-42.604m-17.691 42.604h-34.582m34.582-255.625 17.691 42.604m-17.691-42.604h-34.582m52.273 300.081 68.554-172.269m-68.554 172.269h-102.779m171.333-172.269c-3.538-4.449-47.177-116.7-68.554-172.269m68.554 172.269h-34.88m-33.674-172.269h-102.993m136.667 172.269-16.837-42.604m16.837 42.604-16.837 42.604m-16.837 42.605 16.837-42.605m-16.837 42.605-17.691-42.605m17.691-127.812 16.837 42.604m-16.837-42.604-17.691 42.604m34.528 0h-34.528m0 0-17.692 42.604 17.692 42.604m34.528 0h-34.528m-102.179-170.416 35.836 85.208m-35.836-85.208h67.597m-67.597 0 16.877-44.457m18.959 129.665h-35.836m35.836 0 31.761-85.208m16.89-305.96h-33.171l-85.17 217.047m118.341-217.047 88.457 217.047-18.145 44.456m-70.312-261.503-119.416 305.96m189.728-44.457 66.796 172.269-66.796 172.269m-189.728-300.081 34.929 85.208m-34.929-85.208h-35.3831m70.3121 85.208h-34.929m-35.3831-85.208 18.5701 42.604m-18.5701-42.604-31.8671 85.208h33.6249m-1.7578-85.208 36.4581-88.913m-1.075 174.121-16.813-42.604m16.813 42.604h-33.6253m16.8123-42.604-16.8123 42.604m104.3903 85.208-35.836 85.209m35.836-85.209h-35.836m35.836 0 31.761 85.209m-67.597 0 17.091 44.456m-17.091-44.456h67.597m-102.526 0 34.929-85.209m-34.929 85.209h-35.3831m35.3831 0 119.416 308.74m-84.487-393.949h-34.929m0 0-16.813 42.605m16.813-42.605h-33.6253m-1.7578 85.209 18.5701-42.604m-18.5701 42.604-31.8671-85.209h33.6249m-1.7578 85.209 35.9761 88.913m118.823 219.827h-33.171l-85.652-219.827m118.823 219.827 88.457-219.827-18.145-44.457m-52.62-388.994-34.582-89.14m34.582 89.14h-68.424m33.842-89.14-33.842 89.14m33.842 520.365 34.582-86.914m-34.582 86.914-33.415-86.914m67.997 0h-67.997m-17.091-44.457 17.091 44.457m-85.924-131.517-16.8123-42.605m85.4313-214.873 16.878-44.456" stroke="url(#f)"/><path d="m292.907 218.047-17.691 44.456m17.691-44.456 17.238 44.456m-17.238-44.456h-35.382m35.382 0-53.074-133.6293-16.89 44.4893m-221.943 305.865h205.662m-205.662 0 88.4567 216.726h31.5533m-120.01-216.726 88.4567-216.725h32.0353m171.415 433.451-17.691-44.457m17.691 44.457 17.238-44.457m-17.238 44.457-53.074 130.848-16.89-43.934m69.964-86.914h-35.382m-50.863-216.726 50.863 127.813m-50.863-127.813 50.863-127.812m0 255.625 17.691-42.604m-17.691 42.604h-34.582m34.582-255.625 17.691 42.604m-17.691-42.604h-34.582m52.273 300.081 68.554-172.269m-68.554 172.269h-102.779m171.333-172.269c-3.538-4.449-47.177-116.7-68.554-172.269m68.554 172.269h-34.88m-33.674-172.269h-102.993m136.667 172.269-16.837-42.604m16.837 42.604-16.837 42.604m-16.837 42.605 16.837-42.605m-16.837 42.605-17.691-42.605m17.691-127.812 16.837 42.604m-16.837-42.604-17.691 42.604m34.528 0h-34.528m0 0-17.692 42.604 17.692 42.604m34.528 0h-34.528m-102.179-170.416 35.836 85.208m-35.836-85.208h67.597m-67.597 0 16.877-44.457m18.959 129.665h-35.836m35.836 0 31.761-85.208m16.89-305.96h-33.171l-85.17 217.047m118.341-217.047 88.457 217.047-18.145 44.456m-70.312-261.503-119.416 305.96m189.728-44.457 66.796 172.269-66.796 172.269m-189.728-300.081 34.929 85.208m-34.929-85.208h-35.3831m70.3121 85.208h-34.929m-35.3831-85.208 18.5701 42.604m-18.5701-42.604-31.8671 85.208h33.6249m-1.7578-85.208 36.4581-88.913m-1.075 174.121-16.813-42.604m16.813 42.604h-33.6253m16.8123-42.604-16.8123 42.604m104.3903 85.208-35.836 85.209m35.836-85.209h-35.836m35.836 0 31.761 85.209m-67.597 0 17.091 44.456m-17.091-44.456h67.597m-102.526 0 34.929-85.209m-34.929 85.209h-35.3831m35.3831 0 119.416 308.74m-84.487-393.949h-34.929m0 0-16.813 42.605m16.813-42.605h-33.6253m-1.7578 85.209 18.5701-42.604m-18.5701 42.604-31.8671-85.209h33.6249m-1.7578 85.209 35.9761 88.913m118.823 219.827h-33.171l-85.652-219.827m118.823 219.827 88.457-219.827-18.145-44.457m-52.62-388.994-34.582-89.14m34.582 89.14h-68.424m33.842-89.14-33.842 89.14m33.842 520.365 34.582-86.914m-34.582 86.914-33.415-86.914m67.997 0h-67.997m-17.091-44.457 17.091 44.457m-85.924-131.517-16.8123-42.605m85.4313-214.873 16.878-44.456" stroke="url(#g)"/></g></svg>