<svg fill="none" height="24" viewBox="0 0 24 24" width="24" xmlns="http://www.w3.org/2000/svg"><path d="m3.2957 20.6025 6.364-6.364m0 0c-.13934-.1393-.24987-.3046-.32531-.4866-.07543-.182-.11427-.3771-.11432-.5741s.03871-.392.11405-.5741c.07535-.182.18581-.3474.32508-.4867.13926-.1394.30461-.2499.4866-.3253.182-.0755.377-.1143.574-.1143.197-.0001.3921.0387.5741.114.1821.0754.3475.1858.4868.3251.2814.2812.4395.6628.4396 1.0606.0001.3979-.1578.7795-.4391 1.0609s-.6628.4395-1.0606.4396c-.3979.0001-.77951-.1579-1.0609-.4391zm8.132-3.182 2.828-2.82902c.3749-.37506.5856-.88367.5856-1.414s-.2107-1.03895-.5856-1.414l-2.12-2.122c-.1857-.1858-.4062-.3332-.649-.43376-.2427-.10056-.5028-.15231-.7655-.15231s-.5229.05175-.7656.15231-.4632.24796-.6489.43376l-2.828 2.829m4.831 5.30202-1.905 5.715c-.0304.0916-.0825.1745-.1517.2417-.0693.0672-.1538.1167-.2463.1443l-11.678 3.471c-.10521.0312-.21698.033-.32313.0052-.10616-.0279-.20264-.0843-.27895-.1632-.0763-.0789-.12951-.1772-.15383-.2842-.02432-.1071-.01882-.2187.01591-.3228l3.792-11.37402c.02717-.08167.0716-.15653.13027-.21951.05866-.06298.13019-.1126.20973-.14549l5.387-2.218c.1095-.04523.23-.05702.3462-.03389.1162.02314.223.08016.3068.16389l4.404 4.40502c.079.0789.1344.1782.16.2868.0256.1087.0204.2223-.015.3282z" stroke="#fff" stroke-linecap="square" stroke-linejoin="round" stroke-width="1.5"/></svg>