<svg fill="none" height="320" viewBox="0 0 564 320" width="564" xmlns="http://www.w3.org/2000/svg" xmlns:xlink="http://www.w3.org/1999/xlink"><linearGradient id="a"><stop offset="0" stop-color="#fff"/><stop offset="1" stop-color="#fff" stop-opacity="0"/></linearGradient><linearGradient id="b" gradientUnits="userSpaceOnUse" x1="135.106" x2="135.106" xlink:href="#a" y1="61.468" y2="215.875"/><linearGradient id="c"><stop offset="0" stop-color="#fff" stop-opacity=".4"/><stop offset="1" stop-color="#fff" stop-opacity=".08"/></linearGradient><linearGradient id="d" gradientUnits="userSpaceOnUse" x1="111.639" x2="131.225" xlink:href="#c" y1="71.4034" y2="167.374"/><linearGradient id="e" gradientUnits="userSpaceOnUse" x1="9.79288" x2="164.521" xlink:href="#a" y1="182.063" y2="182.063"/><linearGradient id="f" gradientUnits="userSpaceOnUse" x1="9.72164" x2="87.0856" xlink:href="#a" y1="198.951" y2="198.951"/><linearGradient id="g" gradientUnits="userSpaceOnUse" x1="428.894" x2="428.894" xlink:href="#a" y1="95.7432" y2="250.151"/><linearGradient id="h" gradientUnits="userSpaceOnUse" x1="348.561" x2="386.314" xlink:href="#c" y1="105.962" y2="188.003"/><linearGradient id="i" gradientUnits="userSpaceOnUse" x1="474.649" x2="507.631" xlink:href="#c" y1="105.962" y2="192.857"/><linearGradient id="j" gradientUnits="userSpaceOnUse" x1="303.812" x2="555.031" xlink:href="#a" y1="216.302" y2="216.302"/><linearGradient id="k" gradientUnits="userSpaceOnUse" x1="303.688" x2="420.466" xlink:href="#a" y1="232.95" y2="232.95"/><linearGradient id="l" gradientUnits="userSpaceOnUse" x1="205.615" x2="205.615" xlink:href="#a" y1="142.835" y2="258.641"/><linearGradient id="m" gradientUnits="userSpaceOnUse" x1="205.616" x2="205.616" xlink:href="#a" y1="152.486" y2="248.99"/><path d="m0 26.8176h83.3009v34.6505h-83.3009z" fill="#0b3cff"/><path d="m9.88683 37.5677h1.60437l2.2968 9.8965h.0338l2.7021-9.8965h1.6889l2.7021 9.8965h.0338l2.2968-9.8965h1.6044l-2.9893 12.0751h-1.6888l-2.7866-10.3525h-.0337l-2.7866 10.3525h-1.6888zm19.12187 11.1294c1.7226 0 2.3644-1.1147 2.5164-1.7057h1.3511c-.4391 1.6043-1.672 2.8879-3.8168 2.8879-2.6177 0-4.2052-1.8409-4.2052-4.543 0-2.871 1.6213-4.5429 4.1377-4.5429 2.7021 0 4.0194 1.8408 4.0194 4.8976h-6.806c0 1.5537.9288 3.0061 2.8034 3.0061zm-.0168-6.7216c-1.6213 0-2.7866 1.1484-2.7866 2.5333h5.4549c0-1.3849-1.0471-2.5333-2.6683-2.5333zm9.6128-1.1821c2.1617 0 3.8843 1.7057 3.8843 4.5429s-1.7226 4.543-3.8843 4.543c-1.3848 0-2.1955-.6418-2.7021-1.3004h-.0338v1.0639h-1.351v-12.0751h1.351v4.5767h.0338c.5066-.7431 1.3173-1.351 2.7021-1.351zm-.1351 7.9037c1.7733 0 2.6684-1.672 2.6684-3.3608s-.8951-3.3608-2.6684-3.3608c-1.6044 0-2.6008 1.3342-2.6008 3.3608s.9964 3.3608 2.6008 3.3608zm9.0178-9.9472c-1.1484-.0845-1.6381.0844-1.6381 1.0639v1.216h1.6381v1.1822h-1.6381v7.4308h-1.3511v-7.4308h-1.1991v-1.1822h1.1991v-1.3511c0-1.7564.8782-2.2123 2.0266-2.2123.304 0 .6587.0337.9626.1013zm1.5364-1.1822h1.351v12.0751h-1.351zm7.1655 12.3116c-2.6346 0-4.2221-1.8578-4.2221-4.543s1.5875-4.5429 4.2221-4.5429c2.6177 0 4.2052 1.8577 4.2052 4.5429s-1.5875 4.543-4.2052 4.543zm0-1.1822c1.9252 0 2.8541-1.52 2.8541-3.3608s-.9289-3.3608-2.8541-3.3608c-1.9422 0-2.871 1.52-2.871 3.3608s.9288 3.3608 2.871 3.3608zm4.7121-7.6673h1.4861l1.9591 7.1437h.0338l1.9252-7.1437h1.4355l1.9422 7.1437h.0338l1.959-7.1437h1.4862l-2.7528 8.613h-1.4355l-1.9422-7.11h-.0337l-1.9084 7.11h-1.4355z" fill="#fff"/><path d="m0 61.468h270.213v154.407h-270.213z" fill="#fff" fill-opacity=".08"/><path d="m.489645 61.9577h269.234v153.428h-269.234z" stroke="url(#b)" stroke-opacity=".4" stroke-width=".97929"/><path d="m9.65039 71.1187h250.912v96.5046h-250.912z" fill="url(#d)"/><path d="m9.65039 177.273h154.407v9.65046h-154.407z" fill="url(#e)" opacity=".24"/><path d="m9.65039 194.162h77.2037v9.65046h-77.2037z" fill="url(#f)" opacity=".24"/><path d="m293.787 61.0928h71.3009v34.6505h-71.3009z" fill="#0b3cff"/><path d="m304.569 83.918v-12.0752h4.374c3.327 0 5.371 2.1617 5.371 6.046 0 3.8844-2.044 6.0292-5.371 6.0292zm1.52-10.7241v9.373h2.854c3.074 0 3.851-2.3137 3.851-4.6781 0-2.3643-.777-4.6949-3.851-4.6949zm13.656 9.7783c1.722 0 2.364-1.1146 2.516-1.7057h1.351c-.439 1.6044-1.672 2.8879-3.817 2.8879-2.617 0-4.205-1.8408-4.205-4.5429 0-2.8711 1.621-4.543 4.138-4.543 2.702 0 4.019 1.8408 4.019 4.8976h-6.806c0 1.5537.929 3.0061 2.804 3.0061zm-.017-6.7215c-1.621 0-2.787 1.1484-2.787 2.5332h5.455c0-1.3848-1.047-2.5332-2.668-2.5332zm9.022 2.5501c1.536.3716 3.276.6249 3.276 2.7528 0 1.5706-1.436 2.6008-3.395 2.6008-2.634 0-3.85-1.2497-3.935-3.1074h1.352c.084.9626.422 1.9252 2.583 1.9252 1.47 0 2.044-.7599 2.044-1.3342 0-1.2497-1.132-1.3172-2.364-1.6212-1.318-.3209-3.277-.4729-3.277-2.4995 0-1.3511 1.199-2.4488 3.226-2.4488 2.145 0 3.293 1.216 3.428 2.7021h-1.351c-.135-.6586-.456-1.5199-2.077-1.5199-1.216 0-1.875.4897-1.875 1.1653 0 1.0133 1.166 1.0977 2.365 1.3848zm5.598-5.1678c-.371 0-.844-.2871-.844-.8106 0-.5236.473-.8107.844-.8107.389 0 .845.2871.845.8107 0 .5235-.456.8106-.845.8106zm-.675 1.6719h1.351v8.6131h-1.351zm9.676 0h1.351v8.1402c0 2.2968-1.452 3.4621-3.817 3.4621-2.364 0-3.766-1.2497-3.901-2.719h1.351c.169.8782.879 1.5368 2.483 1.5368s2.533-.6924 2.533-2.2968v-1.3004h-.034c-.506.7431-1.317 1.3511-2.736 1.3511-2.127 0-3.85-1.368-3.85-4.2052 0-2.8373 1.723-4.2052 3.85-4.2052 1.419 0 2.23.6418 2.736 1.3004h.034zm-2.601 6.9918c1.605 0 2.601-.9964 2.601-3.023s-.996-3.023-2.601-3.023c-1.773 0-2.668 1.3342-2.668 3.023s.895 3.023 2.668 3.023zm10.196-7.2282c1.571 0 2.888.8613 2.888 2.8372v6.0123h-1.351v-5.6745c0-1.1146-.523-1.9928-1.874-1.9928-1.52 0-2.534.9626-2.534 2.2968v5.3705h-1.351v-8.6131h1.351v1.0302h.034c.456-.608 1.368-1.2666 2.837-1.2666z" fill="#fff"/><path d="m293.787 95.7432h270.213v154.407h-270.213z" fill="#fff" fill-opacity=".08"/><path d="m294.277 96.2328h269.234v153.428h-269.234z" stroke="url(#g)" stroke-opacity=".4" stroke-width=".97929"/><path d="m303.581 105.679h110.66v95.9704h-110.66z" fill="url(#h)"/><path d="m420.116 105.679h134.163v95.9704h-134.163z" fill="url(#i)"/><path d="m303.581 211.442h250.698v9.7929h-250.698z" fill="url(#j)" opacity=".24"/><path d="m303.581 228.09h116.536v9.7929h-116.536z" fill="url(#k)" opacity=".24"/><path d="m70.5088 142.835h270.213v115.806h-270.213z" fill="#fff" fill-opacity=".18"/><path d="m70.9984 143.325h269.234v114.826h-269.234z" stroke="url(#l)" stroke-opacity=".4" stroke-width=".97929"/><g stroke="#e3e5e8" stroke-width="1.20631"><path d="m130.221 152.486v96.504" opacity=".2"/><path d="m180.886 152.486v96.504" opacity=".2"/><path d="m231.551 152.486v96.504" opacity=".2"/><path d="m282.216 152.486v96.504" opacity=".2"/></g><path d="m331.072 152.486c-132.123 0-106.062 96.504-250.9123 96.504h250.9123z" fill="url(#m)" fill-opacity=".24"/><path d="m80.1597 248.99c144.8503 0 118.7893-96.504 250.9123-96.504" stroke="#fff" stroke-width="1.20631"/><path d="m70.5088 258.641h93.3009v34.6505h-93.3009z" fill="#0b3cff"/><path d="m81.2907 281.466v-12.075h2.0773l3.7829 10.032h.0338l3.783-10.032h2.0773v12.075h-1.52v-9.93h-.0338l-3.6478 9.93h-1.3511l-3.6479-9.93h-.0338v9.93zm19.2543-6.417c0-.676-.372-1.25-1.7567-1.25-1.6382 0-2.1786.473-2.263 1.723h-1.3511c.0844-1.655 1.1146-2.905 3.6141-2.905 1.6377 0 3.1077.642 3.1077 2.719v4.188c0 .676.118 1.047.979.946v.946c-.354.118-.54.135-.793.135-.811 0-1.301-.22-1.537-1.166h-.034c-.5405.811-1.5032 1.318-2.9218 1.318-1.7395 0-2.8372-.997-2.8372-2.449 0-1.959 1.4524-2.466 3.6816-2.888 1.4524-.27 2.1114-.456 2.1114-1.317zm-2.8207 5.472c1.6044 0 2.8207-.727 2.8207-2.382v-1.435c-.254.253-1.0812.49-1.9931.675-1.672.355-2.4488.777-2.4488 1.807 0 .845.5066 1.335 1.6212 1.335zm10.0957-7.904c.32 0 .557.017.793.051v1.351h-.033c-1.875-.304-3.175 1.013-3.175 2.854v4.593h-1.352v-8.613h1.352v1.706h.033c.456-1.132 1.149-1.942 2.382-1.942zm2.191-3.226h1.351v7.161l3.952-3.699h1.689l-3.361 3.192 3.716 5.421h-1.605l-3.057-4.627-1.334 1.233v3.394h-1.351zm11.585 11.13c1.723 0 2.365-1.115 2.517-1.706h1.351c-.439 1.604-1.672 2.888-3.817 2.888-2.618 0-4.205-1.841-4.205-4.543 0-2.871 1.621-4.543 4.137-4.543 2.703 0 4.02 1.841 4.02 4.897h-6.806c0 1.554.929 3.007 2.803 3.007zm-.017-6.722c-1.621 0-2.786 1.148-2.786 2.533h5.455c0-1.385-1.047-2.533-2.669-2.533zm9.111.236h-1.689v5.185c0 .98.54 1.149 1.689 1.064v1.182c-.304.068-.659.102-1.014.102-1.148 0-2.026-.456-2.026-2.213v-5.32h-1.267v-1.182h1.267v-2.871h1.351v2.871h1.689zm2.426-2.854c-.372 0-.845-.287-.845-.81 0-.524.473-.811.845-.811.388 0 .844.287.844.811 0 .523-.456.81-.844.81zm-.676 1.672h1.351v8.613h-1.351zm7.768-.236c1.571 0 2.888.861 2.888 2.837v6.012h-1.351v-5.674c0-1.115-.523-1.993-1.874-1.993-1.52 0-2.534.963-2.534 2.297v5.37h-1.351v-8.613h1.351v1.03h.034c.456-.608 1.368-1.266 2.837-1.266zm11 .236h1.351v8.14c0 2.297-1.452 3.463-3.817 3.463-2.364 0-3.766-1.25-3.901-2.719h1.351c.169.878.878 1.536 2.483 1.536 1.604 0 2.533-.692 2.533-2.296v-1.301h-.034c-.506.743-1.317 1.351-2.736 1.351-2.128 0-3.85-1.368-3.85-4.205s1.722-4.205 3.85-4.205c1.419 0 2.23.642 2.736 1.3h.034zm-2.601 6.992c1.605 0 2.601-.996 2.601-3.023s-.996-3.023-2.601-3.023c-1.773 0-2.668 1.334-2.668 3.023s.895 3.023 2.668 3.023z" fill="#fff"/></svg>