<svg fill="none" height="347" viewBox="0 0 596 347" width="596" xmlns="http://www.w3.org/2000/svg" xmlns:xlink="http://www.w3.org/1999/xlink"><linearGradient id="a"><stop offset="0" stop-color="#fff"/><stop offset="1" stop-color="#fff" stop-opacity="0"/></linearGradient><linearGradient id="b" gradientUnits="userSpaceOnUse" x1="144.5" x2="144.5" xlink:href="#a" y1="273" y2="364"/><linearGradient id="c" gradientUnits="userSpaceOnUse" x1="154.5" x2="105.5" xlink:href="#a" y1="273" y2="349"/><linearGradient id="d" gradientUnits="userSpaceOnUse" x1="411.5" x2="411.5" xlink:href="#a" y1="55" y2="364"/><clipPath id="e"><path d="m0 0h596v347h-596z"/></clipPath><g clip-path="url(#e)"><path d="m55.5 364v-81c4.5-2.167 16.2-10 45-10 36 0 37 34.5 75 34.5 30.4 0 51.333-22.667 58-34v90.5z" fill="url(#b)" opacity=".2"/><path d="m55.5 364v-81c4.5-2.167 16.2-10 45-10 36 0 37 34.5 75 34.5 30.4 0 51.333-22.667 58-34" opacity=".2" stroke="url(#c)"/><path d="m589.5 364v-309c-47.5 149.5-259.995 233.374-356 218.5v90.5z" fill="url(#d)"/><g stroke="#fff"><path d="m55.5 364v-332" opacity=".2"/><path d="m144.5 364v-332" opacity=".2"/><path d="m233.5 364v-332" opacity=".2"/><path d="m322.5 364v-332" opacity=".2"/><path d="m411.5 364v-332" opacity=".2"/><path d="m500.5 364v-332" opacity=".2"/><path d="m589.5 364v-332" opacity=".2"/></g><rect fill="#fff" height="72" rx="36" width="72" x="198" y="243"/><path d="m230.873 295c20.696 0 10.798-31.101 20.561-31.101.495 0 1.035.09 1.664.27v-1.079c-16.511-1.753-10.887 22.517-17.636 29.303l-.405-1.033-14.351-28.27h-5.804z" fill="#0e031e"/></g></svg>