<svg fill="none" height="47" viewBox="0 0 161 47" width="161" xmlns="http://www.w3.org/2000/svg" xmlns:xlink="http://www.w3.org/1999/xlink"><clipPath id="a"><path d="m.643066.395752h159.647v46.349h-159.647z"/></clipPath><g clip-path="url(#a)" fill="#fff"><path d="m17.933 7.8291v12.6712h-11.72646v-12.6712h-5.563535v30.248h5.565035v-12.2601h11.72346v12.2601h5.5666v-30.248zm23.3777 20.4713c0 1.2124-.4852 2.3751-1.3487 3.2324-.8636.8573-2.0349 1.339-3.2562 1.339s-2.3926-.4817-3.2562-1.339c-.8635-.8573-1.3487-2.02-1.3487-3.2324v-12.9568h-5.2789v12.9568c0 2.5997 1.0403 5.0929 2.892 6.9311 1.8518 1.8383 4.3633 2.871 6.982 2.871 2.6188 0 5.1302-1.0327 6.982-2.871 1.8517-1.8382 2.892-4.3314 2.892-6.9311v-12.9568h-5.2593zm39.1149-11.6216c0-2.6569 1.7697-3.4986 3.708-3.4986 1.5634 0 3.6267 1.1811 4.9777 2.6135l3.4565-4.0459c-1.726-2.31742-5.2262-3.9187-8.0923-3.9187-5.7277 0-9.8695 3.3297-9.8695 8.8497 0 10.2416 12.6091 6.9912 12.6091 12.7235 0 1.7673-1.729 3.3282-3.708 3.3282-3.1222 0-4.1343-1.5146-5.5681-3.1174l-3.8375 3.9606c2.4549 2.9903 5.4822 4.5093 9.1074 4.5093 5.4415 0 9.8182-3.37 9.8182-8.6388 0-11.369-12.6105-7.836-12.6105-12.7654m78.0164 16.566c-3.12 0-4.007-1.3396-4.007-3.391v-9.0829h4.85v-4.602h-4.85v-6.0717l-5.352 2.3847v18.5008c0 4.732 3.289 7.1168 7.798 7.1168.708.0119 1.416-.0449 2.112-.1675l1.306-4.7724c-.589.0403-1.266.0807-1.857.0807m-97.0279-17.7457c-2.6146 0-4.44.7536-6.2052 2.4715v-9.95609h-5.2864v18.45439c0 6.9075 5.0304 11.6411 10.6843 11.6411 6.2714 0 11.7882-4.8173 11.7882-11.3032 0-6.4051-5.077-11.3032-10.9809-11.3032m-.0332 17.3241c-.7878 0-1.568-.1541-2.2959-.4534s-1.3893-.738-1.9464-1.2911c-.5571-.553-.999-1.2096-1.3005-1.9322s-.4567-1.497-.4567-2.2792c0-.7821.1552-1.5566.4567-2.2792s.7434-1.3791 1.3005-1.9322c.5571-.553 1.2185-.9918 1.9464-1.2911s1.5081-.4533 2.2959-.4533c1.5912 0 3.1172.6275 4.2424 1.7444 1.1251 1.1169 1.7572 2.6318 1.7572 4.2114s-.6321 3.0945-1.7572 4.2114c-1.1252 1.117-2.6512 1.7445-4.2424 1.7445zm57.4461-6.296c0-6.4978-5.505-11.3032-11.789-11.3032-5.652 0-10.6839 4.7321-10.6839 11.6411v18.4648h5.2859v-9.9695c1.763 1.7149 3.591 2.4715 6.203 2.4715 5.904 0 10.982-4.8981 10.982-11.3047m-5.005-.0658c0 1.5796-.632 3.0945-1.757 4.2114-1.125 1.117-2.651 1.7444-4.242 1.7444s-3.117-.6274-4.243-1.7444c-1.125-1.1169-1.757-2.6318-1.757-4.2114s.632-3.0945 1.757-4.2114c1.126-1.117 2.652-1.7444 4.243-1.7444s3.117.6274 4.242 1.7444c1.125 1.1169 1.757 2.6318 1.757 4.2114z"/><path d="m135.9 14.9711v-5.2733c.702-.32568 1.296-.84259 1.714-1.49055.417-.64797.641-1.40033.644-2.16953v-.1211c0-2.24269-1.831-4.06077-4.09-4.06077h-.122c-1.085 0-2.126.42783-2.893 1.18937s-1.198 1.79442-1.198 2.8714v.1211c.004.7692.227 1.52156.645 2.16953.417.64796 1.012 1.16487 1.714 1.49055v5.2733c-2.018.3067-3.918 1.1371-5.508 2.4072l-14.569-11.26432c.104-.37229.159-.75504.165-1.13929.001-.905-.267-1.79019-.772-2.5436-.505-.75342-1.224-1.34122-2.066-1.689051-.841-.347829-1.768-.44006-2.662-.265028-.895.175033-1.717.609469-2.363 1.248349-.645.63888-1.086 1.45351-1.265 2.34084s-.089 1.8075.258 2.64411c.348.83662.938 1.55209 1.695 2.05592.757.50384 1.648.7734 2.56.77458.797-.00373 1.58-.2151 2.27-.613l14.345 11.08189c-1.289 1.9327-1.961 4.206-1.929 6.5235.031 2.3176.766 4.5719 2.107 6.4692l-4.363 4.3329c-.353-.112-.72-.1715-1.091-.1765-.748.0006-1.479.2214-2.101.6345s-1.107.9999-1.393 1.6863c-.286.6865-.361 1.4417-.215 2.1702.146.7286.507 1.3978 1.036 1.9231s1.203.883 1.937 1.0281 1.495.0709 2.186-.2131c.692-.284 1.283-.7651 1.699-1.3825s.639-1.3435.639-2.0863c-.005-.3676-.065-.7324-.178-1.0825l4.317-4.2865c1.407 1.0757 3.044 1.8174 4.785 2.1681s3.54.3012 5.258-.1448c1.719-.446 3.312-1.2765 4.658-2.4281 1.345-1.1515 2.407-2.5935 3.104-4.2154s1.011-3.3808.918-5.1418-.591-3.4775-1.456-5.0179-2.073-2.8639-3.533-3.8691c-1.459-1.0052-3.131-1.6653-4.887-1.93zm-1.79 17.3435c-.797.0218-1.591-.1154-2.335-.4034-.743-.288-1.421-.721-1.993-1.2734s-1.027-1.2131-1.337-1.9429c-.311-.7298-.47-1.514-.47-2.3062 0-.7923.159-1.5764.47-2.3063.31-.7298.765-1.3904 1.337-1.9428.572-.5525 1.25-.9855 1.993-1.2735.744-.288 1.538-.4252 2.335-.4034 1.547.0538 3.011.7011 4.086 1.8057 1.075 1.1045 1.676 2.5801 1.677 4.1159s-.599 3.012-1.673 4.1176c-1.073 1.1056-2.537 1.7544-4.084 1.8097"/></g></svg>