<svg fill="none" height="48" viewBox="0 0 236 48" width="236" xmlns="http://www.w3.org/2000/svg" xmlns:xlink="http://www.w3.org/1999/xlink"><clipPath id="a"><path d="m.018921.923828h235.607v46.349h-235.607z"/></clipPath><g clip-path="url(#a)" fill="#fff"><path d="m.36426 32.3857 2.97855-.476v-27.56704l-3.3238891-.43276.1726691-2.986072h20.80671l-.5181 8.352342-4.144-.12983-.259-5.23644h-6.43196v12.4203h2.80586l.6475-2.8562 2.8922.0865v8.5688h-2.8922l-.6907-2.9428h-2.80583v13.156h6.47513l.6043-5.7125 4.3599.1298.3454 8.6986h-21.152042z"/><path d="m23.3293 35.5029.1295-2.5534 2.3311-.476v-17.3971l-2.7196-.2597v-2.5965l6.8205-.9954.518 1.4714v.9954c1.6403-1.7311 3.626-2.7697 6.1729-2.7697 3.7124 0 6.4751 2.2503 6.4751 6.7078v14.8005l2.4605.4761-.1295 2.5533h-8.1154v-16.5316c0-2.3802-.8634-3.7218-3.0217-3.7218-.7339 0-1.2519.1299-1.8131.3462-.3453.303-.6906.7357-.9928 1.1252v15.8392l2.4605.476-.1727 2.5533h-10.4033z"/><path d="m153.738 35.5029.086-2.5534 2.331-.476v-17.3971l-2.719-.2597v-2.5965l6.82-.9954.518 1.4714v.9954c1.641-1.7311 3.626-2.7697 6.173-2.7697 3.713 0 6.475 2.2503 6.475 6.7078v14.8005l2.461.4761-.13 2.5533h-8.072v-16.5316c0-2.3802-.863-3.7218-3.022-3.7218-.734 0-1.252.1299-1.813.3462-.345.303-.69.7357-.993 1.1252v15.8392l2.461.476-.173 2.5533h-10.403z"/><path d="m58.3812 35.0233c-.9497.3895-2.6332.8222-4.8348.8222-2.8922 0-5.5685-1.2983-5.5685-5.5394v-15.2332l-2.7628-.4328.1296-3.0293 3.108-.1299 1.3382-4.63055 3.9714-.1731v4.97675h4.2736l-.3022 3.0294-3.9282.4327v15.2333c0 1.255.6906 2.0773 1.9856 2.0773h2.3311z"/><path d="m219.957 35.4995.086-2.51 2.202-.5193v-17.3971l-2.59-.2597v-2.5965l7.079-.9954.475 1.6878v.5626c1.856-1.3849 4.36-2.2937 7.382-2.2937l1.036.9088-.734 6.578-3.885-.1298-.389-3.5054c-.906.1298-1.769.3895-2.503.9088v16.5749l2.46.5193-.172 2.51h-10.447z"/><path d="m118.298 35.4995.13-2.51 2.201-.5193v-17.3971l-2.59-.2597v-2.5965l7.08-.9954.474 1.6878v.5626c1.857-1.3849 4.36-2.2937 7.382-2.2937l1.036.9088-.82 6.578-3.885-.1298-.389-3.5054c-.906.1298-1.77.3895-2.503.9088v16.5749l2.46.5193-.172 2.51h-10.404z"/><path d="m60.1078 35.4995.1295-2.51 2.2015-.5193v-17.3971l-2.59-.2597v-2.5965l7.0794-.9954.4748 1.6878v.5626c1.8562-1.3849 4.3599-2.2937 7.3385-2.2937l1.036.9088-.7338 6.578-3.8851-.1298-.3885-3.5054c-.9065.1298-1.7699.3895-2.5037.9088v16.5749l2.4605.5193-.1726 2.51h-10.4465z"/><path d="m82.4689 24.898c0 4.1545 1.813 7.357 5.3959 7.357 1.8562 0 3.3239-.3895 5.0506-1.2117l.9928 2.2936c-1.7699 1.4281-4.3599 2.51-7.5974 2.51-6.3025 0-9.9285-5.4528-9.9285-12.4636 0-5.9721 2.6332-12.5068 9.8421-12.5068 6.3025 0 8.6767 5.8423 8.6767 12.3337l-.6044 1.558zm-.0864-2.7697 7.2521-.3462c-.1295-2.8995-.7338-7.4868-3.5828-7.4868-.6907 0-1.1656.1298-2.0289.5626-1.1655 1.9907-1.6404 5.5826-1.6404 7.2704z"/><path d="m182.79 24.898c0 4.1545 1.813 7.357 5.396 7.357 1.856 0 3.324-.3895 5.05-1.2117l.993 2.2936c-1.77 1.4281-4.36 2.51-7.597 2.51-6.303 0-9.929-5.4528-9.929-12.4636 0-5.9721 2.633-12.5068 9.842-12.5068 6.303 0 8.677 5.8423 8.677 12.3337l-.604 1.558zm-.087-2.7697 7.253-.3462c-.13-2.8995-.734-7.4868-3.583-7.4868-.691 0-1.166.1298-2.029.5626-1.166 1.9907-1.641 5.5826-1.641 7.2704z"/><path d="m140.658 24.898c0 4.1545 1.813 7.357 5.396 7.357 1.856 0 3.324-.3895 5.05-1.2117l.993 2.2936c-1.77 1.4281-4.36 2.51-7.597 2.51-6.303 0-9.929-5.4528-9.929-12.4636 0-5.9721 2.633-12.5068 9.842-12.5068 6.303 0 8.677 5.8423 8.677 12.3337l-.604 1.558zm-.086-2.7697 7.252-.3462c-.13-2.8995-.734-7.4868-3.583-7.4868-.691 0-1.166.1298-2.029.5626-1.166 1.9907-1.684 5.5826-1.64 7.2704z"/><path d="m211.539 35.5015-.604-2.0773c-1.597 1.5147-3.151 2.4235-5.569 2.4235-3.712 0-7.036-1.8609-7.036-7.0108v-14.3677l-2.72-.2597v-2.2936l7.857-.9088.604 2.0772v15.0602c0 2.6399 1.079 4.0247 3.195 4.0247.604 0 1.381-.0865 2.072-.3462.388-.3895.777-.8655 1.079-1.3416v-16.0122l-2.806-.2597v-2.2936l7.943-.9088.604 2.0772v19.3879l2.461.476-.302 2.5533z"/><path d="m106.685 32.387c-1.252 0-2.244-.2164-3.021-.6492v-15.2765c.345-.5194.733-.9954 1.122-1.4282.734-.2596 1.381-.3462 2.158-.3462 3.238 0 3.799 3.289 3.799 9.1746 0 5.6692-.863 7.2272-1.079 7.8763-.907.4328-1.856.6492-2.979.6492zm9.67-9.5641c0-7.3137-2.159-11.901-7.555-11.901-3.582 0-5.266 2.0772-5.957 2.9428v-.8223l-.604-2.0772-7.0363.9953v2.51l2.7195.3462v29.5145l-2.331.4761-.1295 2.4667h10.4033l.173-2.4667-2.461-.4761v-9.3477c.993.5626 2.374.9088 3.885.9088 8.806 0 8.893-8.9582 8.893-13.0694z"/></g></svg>