<svg fill="none" height="35" viewBox="0 0 242 35" width="242" xmlns="http://www.w3.org/2000/svg" xmlns:xlink="http://www.w3.org/1999/xlink"><clipPath id="a"><path d="m.376984.880371h240.757v33.4743h-240.757z"/></clipPath><g clip-path="url(#a)" fill="#fff"><path d="m90.8749 13.9588v14.8164h-5.4895v-14.8164h-5.5461v-4.71515h16.5833v4.71515h-5.5461z"/><path d="m109.237 22.8902h-8.716c.17 1.6176 1.131 2.3429 2.519 2.3429 1.302 0 2.378-.28 3.849-1.0331l1.953 3.2089c-1.838 1.0593-3.736 1.6732-6.054 1.6732-4.472 0-6.9345-3.1253-6.9345-7.6177 0-5.0492 2.886-7.6441 6.7915-7.6441 3.905 0 6.622 2.6506 6.622 8.091 0 .4191 0 .7253-.028.9773zm-6.735-5.3584c-1.16 0-1.811.7809-1.981 2.2315h4.246c-.256-1.4784-.765-2.2315-2.265-2.2315z"/><path d="m118.713 29.0821c-4.357 0-6.961-2.7341-6.961-7.6719 0-4.4924 2.321-7.5899 7.074-7.5899 2.801 0 4.415 1.2836 5.717 3.3481l-3.509 2.6227c-.707-1.2835-1.189-1.8975-2.291-1.8975-1.304 0-1.953 1.2836-1.953 3.5986s.707 3.5151 2.094 3.5151c.961 0 1.64-.5305 2.575-1.8975l3.227 2.4836c-1.726 2.5114-3.34 3.4887-5.972 3.4887z"/><path d="m136.086 28.7744v-8.3152c0-1.8975-.651-2.3985-1.697-2.3985-1.047 0-1.727.5026-1.727 2.3428v8.3709h-5.093v-18.3315l5.093-2.00882v6.66822c.933-.6974 1.981-1.2835 3.736-1.2835 3.254 0 4.812 2.148 4.812 5.9986v8.957h-5.123z"/><path d="m153.402 29.081c-5.886 0-9.028-4.2976-9.028-10.072 0-6.277 3.736-10.07199 9.056-10.07199 4.869 0 6.793 2.06449 8.151 5.74809l-4.979 1.9254c-.709-1.814-1.387-2.9584-3.199-2.9584-2.291 0-3.282 2.2594-3.282 5.3569s.961 5.3569 3.339 5.3569c1.725 0 2.462-.9202 3.537-2.762l4.641 2.4279c-1.33 2.5671-3.539 5.0507-8.235 5.0507z"/><path d="m174.166 19.6484c-.65-.6975-1.384-1.2279-2.376-1.2279-1.245 0-2.01.5861-2.01 2.3707v7.9796h-5.093v-14.6494h5.093v1.0608c.876-.8366 1.868-1.367 3.169-1.367 1.075 0 1.812.2505 2.405.6139l-1.189 5.2177z"/><path d="m186.275 28.7748v-.9773c-.907.6974-1.981 1.2851-3.707 1.2851-3.254 0-4.812-2.148-4.812-6.0002v-8.9554h5.123v8.3152c0 1.8959.651 2.3985 1.697 2.3985s1.697-.5026 1.697-2.3444v-8.3693h5.123v14.6494h-5.123z"/><path d="m203.59 28.7759v-8.3152c0-1.8975-.651-2.3985-1.697-2.3985s-1.727.5026-1.727 2.3429v8.3708h-5.093v-14.6494h5.093v.9774c.933-.6975 1.981-1.2836 3.736-1.2836 3.254 0 4.812 2.148 4.812 5.9987v8.9569h-5.123z"/><path d="m218.639 29.0821c-4.357 0-6.961-2.7341-6.961-7.6719 0-4.4924 2.322-7.5899 7.074-7.5899 2.801 0 4.415 1.2836 5.717 3.3481l-3.509 2.6227c-.707-1.2835-1.188-1.8975-2.291-1.8975-1.304 0-1.953 1.2836-1.953 3.5986s.708 3.5151 2.094 3.5151c.962 0 1.641-.5305 2.575-1.8975l3.227 2.4836c-1.726 2.5114-3.339 3.4887-5.971 3.4887z"/><path d="m236.011 28.7744v-8.3152c0-1.8975-.65-2.3985-1.697-2.3985-1.046 0-1.726.5026-1.726 2.3428v8.3709h-5.093v-18.3315l5.093-2.00882v6.66822c.933-.6974 1.981-1.2835 3.736-1.2835 3.254 0 4.812 2.148 4.812 5.9986v8.957h-5.123z"/><path d="m.376984.880371v11.157529h11.316416v22.3167h11.3179v-22.3167h11.3164v-11.157529z"/><path d="m45.6441 23.1992v-11.1592h-11.3164v22.3167h33.9507v-11.1575z"/><path d="m68.2778.880127h-22.6344v11.157573h22.6344z"/></g></svg>