<svg fill="none" height="35" viewBox="0 0 127 35" width="127" xmlns="http://www.w3.org/2000/svg" xmlns:xlink="http://www.w3.org/1999/xlink"><clipPath id="a"><path d="m.313065.833252h126.172v33.4743h-126.172z"/></clipPath><g clip-path="url(#a)"><path d="m12.4593 3.95203h2.764c1.6832-.25118 3.4022-.03034 4.9703.63854 1.9672 1.19888 3.394 3.12895 3.9762 5.37848.4121 1.17885.4121 1.17885 1.4062.76135h.7758v-9.33253h-26.015099v1.64547h1.066789c.46358-.00325.92199.09874 1.34156.29849.41956.19975.78961.49218 1.08297.8558.99405 1.62091 1.16377 3.43829 1.16377 12.89357 0 10.0448-.21821 12.5007-1.16377 13.7532-.23344.322-.53566.5865-.88412.7736-.34845.1871-.73413.2921-1.12824.307-1.478959.2702-1.478959.2456-1.478959.9087-.081788.2218-.081788.4659 0 .6877h16.413999c.1087-.2169.1653-.4567.1653-.7 0-.2432-.0566-.483-.1653-.6999-.3975-.112-.8027-.1941-1.2122-.2456-.443-.0534-.881-.1437-1.3093-.2701-.6133-.4536-1.0992-1.0615-1.4096-1.7636s-.4346-1.474-.3603-2.2396c-.2424-1.6209-.3637-4.5926-.3637-7.0485v-1.9402h.9699c1.2082-.0374 2.4158.0948 3.5883.393.5616.3516 1.0398.8244 1.4002 1.3848s.5943 1.1945.6848 1.857l.2182.7613h1.479v-10.8797h-1.3577l-.2182 1.056c-.0918.6775-.3393 1.3238-.7225 1.8868s-.8914 1.0271-1.4838 1.355c-.5738.173-1.1783.2149-1.77.1228h-2.7882v-2.6524c0-2.7506.1455-8.54659.2425-9.45528zm113.4677 19.47547c-1.146-1.8684-2.933-3.2417-5.019-3.8558-1.598-.5061-3.076-1.3424-4.34-2.4559-.284-.2786-.497-.6234-.619-1.0044-.123-.381-.151-.7866-.084-1.1814.002-.7744.307-1.5163.849-2.063.367-.3893.831-.6704 1.344-.8131.512-.1428 1.053-.1418 1.565.0027 1.06.306 2.019.8967 2.774 1.7095.756.8128 1.28 1.8175 1.518 2.9076.388 1.1052.436 1.1052 1.139.8105l.437-.1719v-6.1153l-.316-.1473c-2.386-.8492-4.918-1.2001-7.443-1.0315-2.174.0558-4.249.9316-5.819 2.4559-.712.6751-1.269 1.4997-1.634 2.416-.364.9164-.526 1.9023-.475 2.8888.014 1.5082.605 2.9522 1.649 4.0277 1.153 1.1494 2.569 1.9929 4.121 2.4559 3.758 1.4982 4.849 2.456 4.849 4.1997.017.7353-.215 1.4543-.655 2.039-.441.5846-1.065 1.0001-1.769 1.1782-.847.1884-1.724.1884-2.57 0-1.109-.4357-2.098-1.1333-2.887-2.0346-.788-.9013-1.353-1.9804-1.647-3.1474l-.315-.7859h-.437c-.208.0157-.413.0655-.606.1474h-.242v6.9748h.412c1.638.552 3.328.9306 5.043 1.1298h2.425c1.051.0781 2.108-.0215 3.127-.2948 1.294-.2418 2.503-.8224 3.507-1.6841s1.767-1.9745 2.215-3.2277c.289-.7.438-1.4515.436-2.2103.096-1.0691-.088-2.1448-.533-3.1191zm-22.839-12.6971c-1.453-.6179-3.018-.91763-4.5935-.87953-1.5753.03809-3.1248.41313-4.5469 1.10053-1.3367.6623-2.5215 1.6012-3.4778 2.7561-.9564 1.1548-1.663 2.5-2.0744 3.9486-.5244 1.5803-.7466 3.2473-.6546 4.9119-.0174.9056.0557 1.8107.2182 2.7015.3915 2.1902 1.4354 4.2066 2.9913 5.7783 1.556 1.5717 3.5495 2.6234 5.7128 3.0139 1.4087.1798 2.8341.1798 4.2429 0 1.462-.261 2.861-.8029 4.122-1.5964 1.043-.5922 1.925-1.4357 2.57-2.4559-.042-.1601-.115-.31-.215-.4408-.1-.1309-.225-.2399-.367-.3205-.277.1015-.538.242-.776.4175-1.206.805-2.63 1.2086-4.073 1.1543-.958.0656-1.919-.0855-2.8118-.4423-.8932-.3568-1.6968-.9104-2.3527-1.6207-.5074-.4774-.9262-1.043-1.2365-1.67-.7534-1.5268-1.1594-3.2053-1.188-4.9119v-.9578h13.432v-.4912c.029-.4907.029-.9828 0-1.4735-.005-1.7342-.463-3.4361-1.327-4.9329-.865-1.4968-2.105-2.7352-3.595-3.5892zm-6.7644 8.4975h-1.6971v-1.449c.5576-3.7085 1.9396-5.9188 3.6367-5.9188 1.6972 0 2.4248 2.1858 2.7398 6.189v1.1297h-1.4548zm-34.8646-9.30796c-.8378-.03292-1.6706.14426-2.4246.51576-1.6386.8061-2.9622 2.1468-3.758 3.8067l-.3152.5894v-4.91186h-.1212c-.2909 0-9.2617 1.81736-9.5526 1.94016-.291.1228-.194.1474-.194.5894 0 .4421 0 .5158.194.5403l.9456.1965c.2648.0066.5247.0741.7599.1975s.4397.2994.5978.5147c.6061.8105.7273 2.2349.7273 8.3011.1198 2.7309.0062 5.4671-.3394 8.1782-.0814.4088-.286.7819-.5856 1.0679-.2997.2859-.6796.4706-1.0873.5284l-.8243.172h-.3152v.6876c-.088.2291-.088.4832 0 .7122h13.5531v-.7122c.047-.235.047-.4772 0-.7122-.8161-.0322-1.6275-.1391-2.4246-.3193-.434-.2299-.7891-.5877-1.0185-1.0261-.2293-.4384-.3223-.9369-.2665-1.4298-.1939-1.4244-.2909-5.5995-.2424-8.7922s0-3.3892.2667-3.6102c.8113-.6301 1.8152-.9517 2.8367-.9087.9628.0213 1.9081.2649 2.7639.7122.2967.1669.615.2909.9456.3684 0 0 2.4245-5.9433 2.4245-6.2135-.3102-.3652-.7055-.6463-1.15-.8178-.4445-.17154-.9242-.2281-1.3957-.16456zm-16.3413 10.31486c-.0847-1.755-.5821-3.4641-1.4508-4.9849-.8688-1.5208-2.0838-2.8093-3.5438-3.7582-1.7349-.9481-3.6653-1.4709-5.6359-1.52631-1.9706-.05545-3.9266.35801-5.7108 1.20711-2.5228 1.3475-4.4275 3.6381-5.3097 6.3854-.9113 3.0758-.9113 6.3549 0 9.4307.4777 1.681 1.3705 3.2109 2.5942 4.4452 1.524 1.5064 3.4892 2.4715 5.6007 2.7507 1.3553.1148 2.7178.1148 4.0732 0 .4987-.0769.9926-.1835 1.4789-.3193 1.9735-.5592 3.7489-1.6761 5.1186-3.2201s2.277-3.4512 2.6157-5.4984c.242-1.6253.2989-3.2734.1697-4.9119zm-10.0861 12.2797c-2.4245.7367-4.2429-1.6455-4.849-6.6556-.2226-2.623-.2226-5.2605 0-7.8835.4849-4.0277 1.7214-6.0662 3.6368-6.0662.3864-.0242.773.0456 1.1273.2037s.6661.3998.9093.705c1.6244 1.6455 2.4245 4.9119 2.4245 9.8237.2017 2.7799-.2296 5.5695-1.2607 8.1537-.4553.7537-1.1598 1.3194-1.9882 1.5964zm43.6415-22.1034c-.6841-.0892-1.3767-.0892-2.0609 0-1.3132-.0011-2.6113.2837-3.8065.835l-.7516.3193v-5.32935c.1314-1.79856.1314-3.60449 0-5.403042-.2909 0-9.5526 1.792822-9.6981 1.866502-.0715.18132-.0715.38354 0 .56486 0 .51575 0 .49119 1.0911.73678.3063.06959.6005.1855.8728.34383.4733.45081.7883 1.04583.8971 1.69459.276 1.86902.3654 3.76146.2667 5.64863v21.563l.6546.1474c.9698.221 3.7095.6876 4.6066.7859 1.7913.1443 3.5911.1443 5.3824 0 1.9883-.2057 3.8835-.9571 5.4814-2.1732 1.5978-1.2161 2.8378-2.8508 3.5864-4.728.4462-1.2048.7553-2.4572.9213-3.733.1443-1.7281.0873-3.4674-.1697-5.182-.2601-1.9219-1.0976-3.7164-2.3987-5.1398-1.3012-1.4235-3.0031-2.4071-4.8749-2.8174zm-6.3523 21.6858c0-.3192-.2424-11.0762-.1939-15.374v-3.3647l.7031-.1719c.4744-.0688.9561-.0688 1.4305 0 .5246-.054 1.0523.0667 1.5032.3438.9054.633 1.6573 1.4658 2.199 2.4357.5418.9699.8593 2.0517.9286 3.1639.1766 1.7883.1766 3.5901 0 5.3784-.1451 2.5993-1.1338 5.0772-2.8125 7.0485-.4764.4584-1.0747.7658-1.7214.8842-.4893.0862-.9896.0862-1.4789 0-.4607 0-.4607-.1474-.4607-.3439z" fill="#fff"/></g></svg>