<svg fill="none" height="63" viewBox="0 0 73 63" width="73" xmlns="http://www.w3.org/2000/svg" xmlns:xlink="http://www.w3.org/1999/xlink"><clipPath id="a"><path d="m.350204.624023h72.0984v61.7987h-72.0984z"/></clipPath><g clip-path="url(#a)" fill="#fff"><path d="m18.0949.749756h-16.91985v6.020564h3.11165v13.17248h-3.11165v5.6604h16.91985v-5.6604h-3.1116v-13.17248h3.1116z"/><path clip-rule="evenodd" d="m25.8912 57.0196c-.243.3383-.5287.6756-.8568 1.012-3.5031 3.6434-8.4717 3.8984-11.1338 3.8984h-.0056c-1.709 0-7.0253 0-10.62665-3.7443-2.07278-2.177-2.537195-4.4611-3.035107-6.9118l-.037625-.1852 9.668132-1.0601v.1436c0 .8265.00101 1.5778.24465 2.3272l.001.003c.2679.8992.7648 1.555 1.4216 1.9875.6583.4334 1.4854.6477 2.4198.6477 1.6196 0 2.7484-.6145 3.4751-1.5273.7302-.917 1.0636-2.1469 1.0636-3.3866 0-1.4451-.3832-2.6718-1.1531-3.5356-.7677-.8615-1.9343-1.3784-3.5362-1.3784-1.2576 0-2.0584.3029-2.6103.6965-.5257.375-.8353.8382-1.1029 1.2385l-.08845.132-8.08292-1.0029 1.78071-17.7875h23.69746l-.33 3.0933.0047-.0054-.0079.0779c2.3248-2.4676 5.6075-3.934 9.9287-3.8837 5.231.0511 8.5599 2.4177 10.5983 5.6144 2.3385-3.4266 6.0721-5.5655 11.2827-5.5142 5.392.0779 8.757 2.5606 10.7735 5.8568 2.0116 3.2884 2.6787 7.3794 2.7039 10.6854 0 4.0557-.9191 8.4323-3.171 11.7982-2.2561 3.3722-5.8462 5.7237-11.1609 5.7237-4.5693 0-8.3655-1.9995-10.8057-5.6548l-.0373.0566-.0108-.0173c-2.2423 3.2439-5.7961 5.5153-10.9771 5.5153-4.2465 0-7.8593-1.7198-10.2937-4.9129zm-1.4776-21.4351-.0251.0536h.0516c-.6458 1.4076-1.1573 2.9481-1.4532 4.5802-1.9091-1.1028-4.2494-1.701-6.8279-1.701-1.7173 0-3.7927.3097-5.2176.8836l-.0104.0053c-.07.0359-.1442.0724-.2209.1102-.1677.0826-.3474.1711-.5201.2709l.4145-4.2028zm7.9281 5.1754c.1941-1.7075.5307-3.2544 1.0941-4.2597.829-1.399 2.1405-1.9423 3.1506-1.9423 1.063 0 1.8694.4438 2.4687 1.1328.6025.6925.997 1.6351 1.22 2.6259.4482 1.9911.5489 5.5282.5489 6.9697 0 2.3134-.1635 4.7782-.8024 6.6608-.3192.9405-.7541 1.7264-1.3379 2.276-.5808.5468-1.3146.8655-2.2478.8655-.9932 0-1.826-.3712-2.4863-1.0481-.6624-.6792-1.1556-1.6712-1.4533-2.9162-.3481-1.6837-.3984-3.4726-.3984-5.2205 0-1.5931.0501-3.44.2438-5.1439zm21.8811.1002c.1941-1.7075.5307-3.2543 1.094-4.2597.8291-1.399 2.1406-1.9423 3.1507-1.9423 1.063 0 1.8694.4439 2.4687 1.1328.6024.6925.997 1.6351 1.22 2.6259.4481 1.9911.5489 5.5282.5489 6.9698 0 2.3133-.1635 4.7781-.8024 6.6608-.3193.9405-.7541 1.7263-1.3379 2.276-.5808.5468-1.3146.8654-2.2479.8654-.9931 0-1.8259-.3712-2.4862-1.0481-.6624-.6792-1.1557-1.6712-1.4533-2.9162-.3481-1.6836-.3984-3.4726-.3984-5.2204 0-1.5932.0501-3.4401.2438-5.144z" fill-rule="evenodd"/><path d="m29.2867 6.5132h-10.546v5.6089h2.3589v7.8211h-2.3589v5.5575h13.3064v-5.6089h-2.5094v-4.5023c0-1.8847 1.3983-3.2674 3.2338-3.2674.7585 0 1.4031.1883 1.8558.5681.4492.3768.7256.9555.7256 1.7731v5.4799h-2.409v5.6604h13.0052v-4.7638c.6332 1.1741 1.5206 2.1403 2.5813 2.9086 2.1856 1.5829 5.1001 2.3207 8.0303 2.3207 1.8647 0 4.1094-.232 6.0369-1.2103 1.9337-.9815 3.5408-2.7109 4.1264-5.683l.1887-.7739h-7.3189v.1288c0 .9709-.3387 1.667-.8594 2.122-.5234.4574-1.2436.6822-2.0231.6822-.7339 0-1.2889-.1597-1.711-.4285-.4219-.2686-.7207-.6524-.9322-1.117-.4261-.9361-.4903-2.183-.4903-3.4199v-.0515c0-1.2629.0643-2.5094.4902-3.4389.2113-.4611.5099-.84.9316-1.1048.4221-.2649.9773-.4216 1.7117-.4216.5699 0 1.013.1272 1.3603.3417.3475.2147.6075.522.8029.895.3936.7512.5187 1.7552.5689 2.7574l.0068.1365 7.2898-.8008-.0137-.1277c-.4581-4.2529-2.997-6.24285-5.4214-7.15621-1.2094-.45563-2.3903-.64395-3.2713-.71536-.4408-.03573-.8074-.04228-1.0663-.0382-.1293.00204-.2323.00674-.3046.01187-.036.00254-.0654.00527-.0872.00798-.0106.00132-.0214.00288-.031.00478l-.0014.00029c-2.9243.00296-5.8314.74093-8.0127 2.32069-2.1904 1.58636-3.6417 4.01736-3.6417 7.37886 0 1.3585.2371 2.565.6641 3.6252h-1.7116v-6.9722c0-2.2988-.8303-3.88333-2.1785-4.88862-1.3419-1.00061-3.1801-1.41485-5.1773-1.41485-1.4418 0-2.702.19448-3.8451.67246-1.144.47833-2.1644 1.23676-3.129 2.35591l-.0095.01464c-.0499.07672-.1287.16944-.2151.26346z"/><path d="m69.0584 19.3276c-1.7095 0-3.0898 1.4199-3.0898 3.1646 0 1.7448 1.3803 3.1647 3.0898 3.1647s3.0898-1.4199 3.0898-3.1647c0-1.7447-1.3803-3.1646-3.0898-3.1646z"/></g></svg>