<svg fill="none" height="115" viewBox="0 0 115 115" width="115" xmlns="http://www.w3.org/2000/svg"><path clip-rule="evenodd" d="m56.667 100.26c23.9975 0 43.442-19.4444 43.442-43.442 0-23.9801-19.4445-43.4423-43.442-43.4423-23.9976 0-43.4423 19.4448-43.4423 43.4423 0 23.9976 19.4447 43.442 43.4423 43.442zm7.5763-50.5315h11.2255v-3.0757h-7.4199c.2085-1.1642.921-1.8246 2.3806-2.5544l1.3728-.6951c2.4328-1.2511 3.736-2.6586 3.736-4.9698 0-1.4423-.556-2.5891-1.6855-3.4232-1.0948-.8341-2.4328-1.2338-3.9793-1.2338-1.2338 0-2.3633.3128-3.3885.9557-1.0079.643-1.7725 1.4423-2.2417 2.4502l2.1548 2.1547c.8341-1.6855 2.0331-2.5196 3.6318-2.5196 1.338 0 2.1721.6951 2.1721 1.6508 0 .7993-.3997 1.477-1.9462 2.259l-.8689.4344c-1.9115.9731-3.2321 2.0679-3.9967 3.319-.7646 1.2338-1.1469 2.8151-1.1469 4.7265zm-2.0504 3.5449h12.2854l6.1515 10.6347-6.1341 10.6347-6.1514-10.6347h-12.2855zm-19.2537 3.5623c0 7.8196 6.36 14.1796 14.1796 14.1796 3.5275 0 6.7596-1.3033 9.2271-3.4233l5.3869 9.314c-4.101 2.9889-9.1576 4.7613-14.614 4.7613-13.7278 0-24.8316-11.1212-24.8316-24.8316 0-13.693 11.1212-24.8143 24.8316-24.8143 1.6682 0 3.2842.1564 4.8655.4692l-4.8655 10.1655c-7.8196 0-14.1796 6.36-14.1796 14.1796z" fill="#fff" fill-rule="evenodd"/></svg>