<svg fill="none" height="196" viewBox="0 0 413 196" width="413" xmlns="http://www.w3.org/2000/svg" xmlns:xlink="http://www.w3.org/1999/xlink"><filter id="a" color-interpolation-filters="sRGB" filterUnits="userSpaceOnUse" height="430.617" width="910.189" x="-141.134" y="22.7068"><feFlood flood-opacity="0" result="BackgroundImageFix"/><feBlend in="SourceGraphic" in2="BackgroundImageFix" mode="normal" result="shape"/><feGaussianBlur result="effect1_foregroundBlur_3142_792" stdDeviation="23.9577"/></filter><filter id="b" color-interpolation-filters="sRGB" filterUnits="userSpaceOnUse" height="430.635" width="910.102" x="-129.99" y="-8.32173"><feFlood flood-opacity="0" result="BackgroundImageFix"/><feBlend in="SourceGraphic" in2="BackgroundImageFix" mode="normal" result="shape"/><feGaussianBlur result="effect1_foregroundBlur_3142_792" stdDeviation="23.9577"/></filter><filter id="c" color-interpolation-filters="sRGB" filterUnits="userSpaceOnUse" height="344.867" width="686.257" x="-124.474" y="35.2418"><feFlood flood-opacity="0" result="BackgroundImageFix"/><feBlend in="SourceGraphic" in2="BackgroundImageFix" mode="normal" result="shape"/><feGaussianBlur result="effect1_foregroundBlur_3142_792" stdDeviation="26.6197"/></filter><filter id="d" color-interpolation-filters="sRGB" filterUnits="userSpaceOnUse" height="299.332" width="654.855" x="-102.142" y="-8.32124"><feFlood flood-opacity="0" result="BackgroundImageFix"/><feBlend in="SourceGraphic" in2="BackgroundImageFix" mode="normal" result="shape"/><feGaussianBlur result="effect1_foregroundBlur_3142_792" stdDeviation="23.9577"/></filter><linearGradient id="e"><stop offset="0" stop-color="#a282ff"/><stop offset="1" stop-color="#a282ff" stop-opacity="0"/></linearGradient><radialGradient id="f" cx="0" cy="0" gradientTransform="matrix(543.18889199 362.15513074 -548.61136947 822.85069746 -18.491 -138.398)" gradientUnits="userSpaceOnUse" r="1" xlink:href="#e"/><linearGradient id="g"><stop offset="0" stop-color="#ff279c"/><stop offset="1" stop-color="#ff279c" stop-opacity="0"/></linearGradient><radialGradient id="h" cx="0" cy="0" gradientTransform="matrix(534.97729073 168.53706717 -167.83815593 532.75877793 -69.6612 68.2659)" gradientUnits="userSpaceOnUse" r="1" xlink:href="#g"/><linearGradient id="i"><stop offset="0" stop-color="#6f9fff"/><stop offset="1" stop-color="#ff6fce" stop-opacity="0"/></linearGradient><radialGradient id="j" cx="0" cy="0" gradientTransform="matrix(385.0098551 244.57228503 -244.02053719 384.14128425 -93.2187 75.3353)" gradientUnits="userSpaceOnUse" r="1" xlink:href="#i"/><linearGradient id="k"><stop offset="0" stop-color="#ffcf54"/><stop offset="1" stop-color="#ffcf54" stop-opacity="0"/></linearGradient><radialGradient id="l" cx="0" cy="0" gradientTransform="matrix(265.06103627 62.81752512 -62.53872354 263.88462194 2.3432 117.393)" gradientUnits="userSpaceOnUse" r="1" xlink:href="#k"/><linearGradient id="m"><stop offset="0" stop-color="#dcff93"/><stop offset="1" stop-color="#dcff93" stop-opacity="0"/></linearGradient><radialGradient id="n" cx="0" cy="0" gradientTransform="matrix(108.76438674 72.39320337 -72.24360087 108.53962221 -81.2829 71.7535)" gradientUnits="userSpaceOnUse" r="1" xlink:href="#m"/><linearGradient id="o"><stop offset="0" stop-color="#fff"/><stop offset="1" stop-color="#fff" stop-opacity="0"/></linearGradient><radialGradient id="p" cx="0" cy="0" gradientTransform="matrix(216.16641278 91.3144908 -90.98878732 215.39538344 -76.8854 70.4339)" gradientUnits="userSpaceOnUse" r="1" xlink:href="#o"/><radialGradient id="q" cx="0" cy="0" gradientTransform="matrix(543.09411306 362.11521698 -548.7212161 822.9625495 -7.3248 -169.452)" gradientUnits="userSpaceOnUse" r="1" xlink:href="#e"/><radialGradient id="r" cx="0" cy="0" gradientTransform="matrix(534.90878478 168.48161974 -167.83240604 532.84760973 -58.5179 37.2361)" gradientUnits="userSpaceOnUse" r="1" xlink:href="#g"/><radialGradient id="s" cx="0" cy="0" gradientTransform="matrix(384.94394934 244.543621 -244.06799499 384.1952512 -82.0742 44.3092)" gradientUnits="userSpaceOnUse" r="1" xlink:href="#i"/><radialGradient id="t" cx="0" cy="0" gradientTransform="matrix(369.05935814 168.48884702 -167.97428659 367.93226074 -63.3486 42.779)" gradientUnits="userSpaceOnUse" r="1" xlink:href="#k"/><radialGradient id="u" cx="0" cy="0" gradientTransform="matrix(108.74558984 72.38534828 -72.25790343 108.55412755 -70.139 40.7255)" gradientUnits="userSpaceOnUse" r="1" xlink:href="#m"/><radialGradient id="v" cx="0" cy="0" gradientTransform="matrix(216.13579973 91.29444643 -90.99678014 215.43108718 -65.7418 39.4052)" gradientUnits="userSpaceOnUse" r="1" xlink:href="#o"/><radialGradient id="w" cx="0" cy="0" gradientTransform="matrix(386.69393783 257.83332176 -390.70067643 585.96608866 -18.0112 -60.364)" gradientUnits="userSpaceOnUse" r="1" xlink:href="#e"/><radialGradient id="x" cx="0" cy="0" gradientTransform="matrix(153.89263949 65.00331435 -64.79164054 153.39151056 -59.6052 88.347)" gradientUnits="userSpaceOnUse" r="1" xlink:href="#o"/><radialGradient id="y" cx="0" cy="0" gradientTransform="matrix(543.09411306 362.11521698 -548.7212161 822.9625495 -7.32666 -169.452)" gradientUnits="userSpaceOnUse" r="1" xlink:href="#e"/><radialGradient id="z" cx="0" cy="0" gradientTransform="matrix(534.90783098 168.48131931 -167.83210561 532.84665593 -58.5197 37.2362)" gradientUnits="userSpaceOnUse" r="1"><stop offset="0" stop-color="#27fff2"/><stop offset="1" stop-color="#277eff" stop-opacity="0"/></radialGradient><radialGradient id="A" cx="0" cy="0" gradientTransform="matrix(384.94394934 244.543621 -244.06799499 384.1952512 -82.0762 44.3094)" gradientUnits="userSpaceOnUse" r="1"><stop offset="0" stop-color="#6f9fff"/><stop offset="1" stop-color="#6fcbff" stop-opacity="0"/></radialGradient><radialGradient id="B" cx="0" cy="0" gradientTransform="matrix(203.50887119 55.02295159 -54.80162369 202.69026386 39.6028 129.793)" gradientUnits="userSpaceOnUse" r="1" xlink:href="#k"/><clipPath id="C"><path d="m0 0h413v196h-413z" transform="matrix(1 0 0 -1 0 196)"/></clipPath><g clip-path="url(#C)"><g filter="url(#a)"><path d="m171.077 196.539c-135.6406 10.149-222.244-79.716-248.5907-125.9166l-15.7051 4.7129 100.09156 330.0727 714.26624-214.343s-64.121-8.039-220.718 8.945c-156.596 16.984-159.793-16.158-329.344-3.471z" fill="url(#f)"/><path d="m171.077 196.539c-135.6406 10.149-222.244-79.716-248.5907-125.9166l-15.7051 4.7129 100.09156 330.0727 714.26624-214.343s-64.121-8.039-220.718 8.945c-156.596 16.984-159.793-16.158-329.344-3.471z" fill="url(#h)"/><path d="m171.077 196.539c-135.6406 10.149-222.244-79.716-248.5907-125.9166l-15.7051 4.7129 100.09156 330.0727 714.26624-214.343s-64.121-8.039-220.718 8.945c-156.596 16.984-159.793-16.158-329.344-3.471z" fill="url(#j)"/><path d="m171.077 196.539c-135.6406 10.149-222.244-79.716-248.5907-125.9166l-15.7051 4.7129 100.09156 330.0727 714.26624-214.343s-64.121-8.039-220.718 8.945c-156.596 16.984-159.793-16.158-329.344-3.471z" fill="url(#l)"/><path d="m171.077 196.539c-135.6406 10.149-222.244-79.716-248.5907-125.9166l-15.7051 4.7129 100.09156 330.0727 714.26624-214.343s-64.121-8.039-220.718 8.945c-156.596 16.984-159.793-16.158-329.344-3.471z" fill="url(#n)"/><path d="m171.077 196.539c-135.6406 10.149-222.244-79.716-248.5907-125.9166l-15.7051 4.7129 100.09156 330.0727 714.26624-214.343s-64.121-8.039-220.718 8.945c-156.596 16.984-159.793-16.158-329.344-3.471z" fill="url(#p)"/></g><g filter="url(#b)"><path d="m182.183 165.489c-135.6306 10.168-222.2147-79.6936-248.5529-125.8952l-15.7043 4.7154 100.0391 330.0888 714.2321-214.455c-60.304 18.107-64.114-8.032-220.699 8.974-156.586 17.006-159.777-16.139-329.315-3.428z" fill="url(#q)"/><path d="m182.183 165.489c-135.6306 10.168-222.2147-79.6936-248.5529-125.8952l-15.7043 4.7154 100.0391 330.0888 714.2321-214.455c-60.304 18.107-64.114-8.032-220.699 8.974-156.586 17.006-159.777-16.139-329.315-3.428z" fill="url(#r)"/><path d="m182.183 165.489c-135.6306 10.168-222.2147-79.6936-248.5529-125.8952l-15.7043 4.7154 100.0391 330.0888 714.2321-214.455c-60.304 18.107-64.114-8.032-220.699 8.974-156.586 17.006-159.777-16.139-329.315-3.428z" fill="url(#s)"/><path d="m182.183 165.489c-135.6306 10.168-222.2147-79.6936-248.5529-125.8952l-15.7043 4.7154 100.0391 330.0888 714.2321-214.455c-60.304 18.107-64.114-8.032-220.699 8.974-156.586 17.006-159.777-16.139-329.315-3.428z" fill="url(#t)"/><path d="m182.183 165.489c-135.6306 10.168-222.2147-79.6936-248.5529-125.8952l-15.7043 4.7154 100.0391 330.0888 714.2321-214.455c-60.304 18.107-64.114-8.032-220.699 8.974-156.586 17.006-159.777-16.139-329.315-3.428z" fill="url(#u)"/><path d="m182.183 165.489c-135.6306 10.168-222.2147-79.6936-248.5529-125.8952l-15.7043 4.7154 100.0391 330.0888 714.2321-214.455c-60.304 18.107-64.114-8.032-220.699 8.974-156.586 17.006-159.777-16.139-329.315-3.428z" fill="url(#v)"/></g><g filter="url(#c)"><path d="m116.922 178.121c-96.5716 7.24-158.2212-56.743-176.9746-89.6397l-11.1818 3.3574 71.22997525 235.0303 508.54842475-152.697s-45.651-5.718-157.143 6.39c-111.492 12.109-113.765-11.491-234.479-2.441z" fill="url(#w)"/><path d="m116.922 178.121c-96.5716 7.24-158.2212-56.743-176.9746-89.6397l-11.1818 3.3574 71.22997525 235.0303 508.54842475-152.697s-45.651-5.718-157.143 6.39c-111.492 12.109-113.765-11.491-234.479-2.441z" fill="url(#x)"/></g><g filter="url(#d)"><path d="m182.181 165.489-236.4071-125.8949v203.5009l559.0241-5.031z" fill="url(#y)"/><path d="m182.181 165.489-236.4071-125.8949v203.5009l559.0241-5.031z" fill="url(#z)"/><path d="m182.181 165.489-236.4071-125.8949v203.5009l559.0241-5.031z" fill="url(#A)"/><path d="m182.181 165.489-236.4071-125.8949v203.5009l559.0241-5.031z" fill="url(#B)"/></g></g></svg>