<svg fill="none" height="172" viewBox="0 0 191 172" width="191" xmlns="http://www.w3.org/2000/svg" xmlns:xlink="http://www.w3.org/1999/xlink"><clipPath id="a"><path d="m0 50.8896h191v63.6667h-191z"/></clipPath><path d="m1.7306 24.6992v-14.6319h5.93464c2.88546 0 4.82956 1.5552 4.82956 4.1542 0 2.1078-1.0027 3.2743-2.61942 3.6836v.0409c3.25382.6344 2.06692 6.3849 2.82412 6.6304v.1228h-1.9851c-.6344-.6139.7572-5.9142-2.94684-5.9142h-4.19518v5.9142zm1.84178-12.9948v5.4435h3.66311c1.51436 0 3.41751-.1842 3.41751-2.7218 0-2.5375-1.90315-2.7217-3.41751-2.7217zm15.40822 11.8488c2.0873 0 2.865-1.3506 3.0491-2.0669h1.6372c-.5321 1.9441-2.026 3.4994-4.625 3.4994-3.1719 0-5.0956-2.2306-5.0956-5.5049 0-3.4789 1.9646-5.5049 5.0138-5.5049 3.2743 0 4.8705 2.2306 4.8705 5.9347h-8.2471c0 1.8827 1.1255 3.6426 3.3971 3.6426zm-.0205-8.1448c-1.9646 0-3.3766 1.3916-3.3766 3.0697h6.6099c0-1.6781-1.2687-3.0697-3.2333-3.0697zm5.4115-1.146h1.7804l2.8855 8.7997h.0204l2.8855-8.7997h1.7804l-3.745 10.4368h-1.8622zm11.7452-2.0259c-.4502 0-1.0232-.3479-1.0232-.9823s.573-.9823 1.0232-.9823c.4707 0 1.0232.3479 1.0232.9823s-.5525.9823-1.0232.9823zm-.8185 2.0259h1.6371v10.4368h-1.6371zm8.7374 9.2908c2.0874 0 2.865-1.3506 3.0492-2.0669h1.6371c-.532 1.9441-2.0259 3.4994-4.6249 3.4994-3.172 0-5.0956-2.2306-5.0956-5.5049 0-3.4789 1.9646-5.5049 5.0137-5.5049 3.2743 0 4.8705 2.2306 4.8705 5.9347h-8.2471c0 1.8827 1.1256 3.6426 3.3971 3.6426zm-.0205-8.1448c-1.9645 0-3.3766 1.3916-3.3766 3.0697h6.61c0-1.6781-1.2688-3.0697-3.2334-3.0697zm5.4525-1.146h1.8009l2.3738 8.6564h.0409l2.333-8.6564h1.7394l2.3534 8.6564h.041l2.3738-8.6564h1.8009l-3.3357 10.4368h-1.7395l-2.3534-8.6154h-.0409l-2.3125 8.6154h-1.7394zm20.5177 9.2908c2.0873 0 2.865-1.3506 3.0492-2.0669h1.6371c-.5321 1.9441-2.026 3.4994-4.6249 3.4994-3.172 0-5.0956-2.2306-5.0956-5.5049 0-3.4789 1.9645-5.5049 5.0137-5.5049 3.2743 0 4.8705 2.2306 4.8705 5.9347h-8.2471c0 1.8827 1.1256 3.6426 3.3971 3.6426zm-.0205-8.1448c-1.9645 0-3.3766 1.3916-3.3766 3.0697h6.61c0-1.6781-1.2688-3.0697-3.2334-3.0697zm14.1245-5.3411h1.6372v14.6319h-1.6372v-1.2892h-.0409c-.6139.7981-1.5962 1.5757-3.2743 1.5757-2.6194 0-4.7068-2.0669-4.7068-5.5049s2.0874-5.5049 4.7068-5.5049c1.6781 0 2.6604.7367 3.2743 1.6372h.0409zm-3.1515 13.4859c1.9441 0 3.1515-1.6167 3.1515-4.0724s-1.2074-4.0724-3.1515-4.0724c-2.1487 0-3.2333 2.026-3.2333 4.0724 0 2.0465 1.0846 4.0724 3.2333 4.0724zm16.0631 1.4325c-3.1925 0-5.1161-2.2511-5.1161-5.5049s1.9236-5.5049 5.1161-5.5049c3.172 0 5.096 2.2511 5.096 5.5049s-1.924 5.5049-5.096 5.5049zm0-1.4325c2.3329 0 3.458-1.8418 3.458-4.0724s-1.1251-4.0724-3.458-4.0724c-2.3534 0-3.479 1.8418-3.479 4.0724s1.1256 4.0724 3.479 4.0724zm12.069-9.5773c1.904 0 3.5 1.0437 3.5 3.438v7.2853h-1.637v-6.876c0-1.3506-.635-2.4148-2.272-2.4148-1.842 0-3.07 1.1665-3.07 2.7832v6.5076h-1.637v-10.4368h1.637v1.2484h.041c.553-.7368 1.658-1.5349 3.438-1.5349z" fill="#d6e3ff"/><g clip-path="url(#a)"><path d="m49.6951 50.8896h8.6955v54.5714h-8.6955zm39.13 37.1632c0 8.3516-6.9934 9.0174-9.0738 9.0174-5.1978 0-6.1435-4.8853-6.1435-7.8321v-20.8856h-8.6955v20.8419c0 5.1734 1.6174 9.4431 4.4521 12.2896 2.5043 2.517 6.2565 3.892 10.3216 3.892 2.8826 0 6.9652-.902 9.1391-2.895v2.98h8.6955v-37.1085h-8.6955zm26.0869-32.7974h-8.696v13.0971h-6.5215v8.7314h6.5215v28.3771h8.696v-28.3771h6.521v-8.7314h-6.521zm33.906 39.1102c-1.894 1.7092-4.394 2.6566-7.137 2.6566-6.048 0-10.489-4.4596-10.489-10.5825 0-6.123 4.3-10.3948 10.489-10.3948 2.696 0 5.243.9015 7.185 2.6107l1.319 1.1394 5.863-5.8849-1.467-1.3294c-3.45-3.128-8.031-4.8831-12.902-4.8831-10.87 0-18.763 7.8758-18.763 18.6962 0 10.7746 8.083 18.9322 18.763 18.9322 4.963 0 9.591-1.755 12.997-4.934l1.418-1.3289-5.954-5.8806zm38.267-22.7781c-2.505-2.5147-5.439-3.8899-9.504-3.8899-2.883 0-6.148.9016-8.322 2.8923v-19.7003h-8.696v54.5714h8.696v-20.4424c0-8.3516 5.909-9.0152 7.989-9.0152 5.198 0 5.054 4.8874 5.054 7.8299v21.6277h8.696v-21.5818c0-5.1734-1.076-9.4431-3.913-12.2917z" fill="#fff"/><path d="m141.397 80.223c1.667 0 3.266.6651 4.445 1.849s1.842 2.7896 1.842 4.4638c0 1.6743-.663 3.28-1.842 4.4639s-2.778 1.849-4.445 1.849c-1.668 0-3.267-.6651-4.446-1.849s-1.841-2.7896-1.841-4.4639c0-1.6742.662-3.2799 1.841-4.4638s2.778-1.849 4.446-1.849z" fill="#ff3d2e"/><path d="m37.5235 91.7545c-3.3065 3.4162-7.7978 5.2672-12.5238 5.2672-9.6868 0-16.73023-7.64-16.73023-18.1264 0-10.5345 7.04343-18.1745 16.73023-18.1745 4.6804 0 9.1216 1.8489 12.4781 5.2192l1.3218 1.3294 5.8129-5.837-1.276-1.3293c-4.8196-4.9835-11.3412-7.6859-18.3368-7.6859-14.2716 0-24.9997 11.388-24.9997 26.5239 0 15.0901 10.776 26.4319 24.9997 26.4319 7.0434 0 13.5651-2.75 18.3846-7.7335l1.2761-1.3294-5.7652-5.9308z" fill="#fff"/></g><g fill="#ff3d2e"><path d="m15.0789 141.842 4.4316 8.979 9.9094 1.44-7.1705 6.99 1.6927 9.869-8.8632-4.66-8.86314 4.66 1.69272-9.869-7.170464-6.99 9.909384-1.44z"/><path d="m55.2894 141.842 4.4316 8.979 9.9093 1.44-7.1704 6.99 1.6927 9.869-8.8632-4.66-8.8632 4.66 1.6927-9.869-7.1704-6.99 9.9093-1.44z"/><path d="m95.5 141.842 4.4316 8.979 9.9094 1.44-7.171 6.99 1.693 9.869-8.863-4.66-8.8632 4.66 1.6927-9.869-7.1705-6.99 9.9094-1.44z"/><path d="m135.711 141.842 4.431 8.979 9.91 1.44-7.171 6.99 1.693 9.869-8.863-4.66-8.863 4.66 1.692-9.869-7.17-6.99 9.909-1.44z"/><path d="m175.921 141.842 4.432 8.979 9.909 1.44-7.171 6.99 1.693 9.869-8.863-4.66-8.863 4.66 1.693-9.869-7.171-6.99 9.909-1.44z"/></g></svg>