<svg fill="none" height="59" viewBox="0 0 184 59" width="184" xmlns="http://www.w3.org/2000/svg"><g fill="#fff"><path d="m168.137 45.7095c.096.001.192-.0178.281-.0551s.169-.0923.236-.1617c.066-.0693.118-.1516.151-.2415.033-.09.048-.1858.042-.2815 0-.5246-.319-.7753-.973-.7753h-1.056v2.7469h.397v-1.1974h.489l.011.0146.758 1.1828h.424l-.815-1.2242zm-.46-.2752h-.461v-.9286h.584c.302 0 .646.049.646.4413 0 .4512-.348.4873-.771.4873"/><path d="m13.3271 15.6742h5.8656v21.2197h10.859v5.3761h-16.7246z"/><path d="m32.6448 24.2373h5.6349v18.0228h-5.6349zm2.8175-8.9601c.6465.0002 1.2784.1907 1.8159.5475s.9564.8638 1.2037 1.4571c.2473.5932.3119 1.2459.1857 1.8757-.1261.6297-.4375 1.2081-.8947 1.6621-.4572.4539-1.0396.7631-1.6737.8883s-1.2913.0609-1.8886-.1848c-.5972-.2458-1.1077-.6619-1.4669-1.1958-.3591-.5338-.5508-1.1615-.5508-1.8036 0-.4263.0845-.8486.2489-1.2425.1643-.3939.4051-.7518.7087-1.0533s.664-.5406 1.0607-.7037c.3966-.1631.8218-.247 1.2511-.247z"/><path d="m61.8513 15.6702h5.6349v15.8944l6.3862-7.3354h6.9087l-7.3958 8.3439 7.2402 9.6946h-7.0823l-5.9818-8.9088h-.074v8.9076h-5.6349z"/><path d="m41.4043 24.2391h5.4113v2.463h.0768c.5405-.9197 1.3224-1.6763 2.2621-2.1891.9398-.5127 2.0021-.7624 3.0735-.7222 5.7142 0 6.766 3.7338 6.766 8.5846v9.8835h-5.6349v-8.7625c0-2.0916-.0387-4.7802-2.9349-4.7802-2.9289 0-3.3809 2.2776-3.3809 4.6281v8.9123h-5.6349z"/><path d="m92.6477 31.1524c.0108-.454-.0714-.9055-.2414-1.3271-.1701-.4215-.4246-.8044-.748-1.1255-.3235-.321-.7092-.5735-1.1338-.7421s-.8792-.2499-1.3364-.2389c-.9846-.0608-1.9538.265-2.6986.9073-.7449.6423-1.2058 1.5496-1.2834 2.5263zm4.7732 7.9866c-.9363 1.1277-2.1135 2.0345-3.4463 2.6547-1.3327.6202-2.7876.9382-4.2594.9311-5.6349 0-10.1464-3.7356-10.1464-9.5204 0-5.7847 4.5109-9.5185 10.1464-9.5185 5.2669 0 8.5698 3.7309 8.5698 9.5185v1.7548h-13.0789c.1628.9951.6823 1.8983 1.4627 2.5431s1.7691.9877 2.784.9657c.8021-.0049 1.5901-.209 2.2925-.5937.7023-.3847 1.2967-.9377 1.7289-1.6087z"/><path d="m110.03 28.5938c-2.817 0-4.508 1.8684-4.508 4.5908s1.69 4.5926 4.508 4.5926 4.512-1.8655 4.512-4.5926-1.691-4.5908-4.512-4.5908zm9.7 13.6628h-5.188v-2.3901h-.077c-.65.8694-1.494 1.5778-2.466 2.07-.972.4923-2.045.755-3.136.7679-5.414 0-8.9802-3.8808-8.9802-9.3688 0-5.0403 3.1562-9.6684 8.3442-9.6684 2.332 0 4.51.6337 5.788 2.3902h.074v-10.389h5.64z"/><path d="m157.771 42.2671h-5.635v-8.7642c0-2.0899-.038-4.7803-2.931-4.7803-2.935 0-3.384 2.2771-3.384 4.6281v8.9158h-5.635v-18.0227h5.41v2.463h.076c.541-.9193 1.323-1.6756 2.263-2.1883s2.002-.7625 3.074-.723c5.711 0 6.764 3.7309 6.764 8.5846zm-23.943-20.4869c-.646.0001-1.279-.1903-1.816-.547-.538-.3568-.957-.8639-1.205-1.4573s-.313-1.2464-.187-1.8764c.127-.63.438-1.2088.895-1.663.457-.4543 1.04-.7637 1.674-.8892.635-.1254 1.292-.0612 1.89.1845.597.2457 1.108.6619 1.467 1.1959.36.534.552 1.1619.552 1.8042 0 .4265-.085.8488-.249 1.2429-.164.394-.405.7521-.709 1.0537-.303.3017-.664.5409-1.06.7042-.397.1633-.822.2474-1.252.2475zm2.818 20.4869h-5.641v-18.0233h5.641zm23.934-32.1794h-32.407c-.735-.0082-1.444.2739-1.97.7844s-.827 1.2076-.836 1.9381v32.3187c.009.7308.309 1.4284.835 1.9394.527.511 1.236.7937 1.971.7859h32.407c.737.0092 1.448-.2727 1.977-.7837.528-.511.83-1.2093.841-1.9416v-32.3211c-.011-.7319-.314-1.4298-.842-1.9403-.528-.5104-1.239-.7917-1.976-.7821"/><path d="m167.725 42.9707c-.685.0066-1.34.2825-1.822.7674-.481.485-.749 1.1395-.746 1.8204s.278 1.3328.764 1.8132c.486.4803 1.144.7499 1.829.7499.686 0 1.344-.2696 1.829-.7499.486-.4804.761-1.1323.764-1.8132.004-.6809-.265-1.3354-.746-1.8204-.481-.4849-1.136-.7608-1.822-.7674zm0 4.8561c-.449.0074-.891-.1178-1.269-.3597s-.676-.5898-.855-.9995c-.179-.4098-.231-.8631-.151-1.3025.081-.4395.29-.8454.603-1.1665s.714-.5428 1.154-.6372c.439-.0945.897-.0573 1.316.1067.418.1641.778.4476 1.034.8148s.397.8016.404 1.2482v.0379c.013.5859-.21 1.1527-.618 1.5759s-.969.668-1.558.6807h-.059"/></g></svg>