<svg fill="none" height="59" viewBox="0 0 183 59" width="183" xmlns="http://www.w3.org/2000/svg"><g fill="#fff"><path d="m91.1532 40.1853c.2791-.726.4193-1.9126.4193-3.5594v-6.9387c0-1.5982-.1402-2.7664-.4193-3.5053-.2794-.7384-.7717-1.108-1.4763-1.108-.6807 0-1.1612.3696-1.4402 1.108-.2795.7389-.4193 1.9071-.4193 3.5053v6.9387c0 1.6468.1335 2.8334.4012 3.5594.2669.7268.7529 1.0897 1.4583 1.0897.7046 0 1.1969-.3629 1.4763-1.0897zm-5.6506 3.4875c-1.0092-.6774-1.7264-1.7313-2.1511-3.1605-.4255-1.4284-.6379-3.3296-.6379-5.7029v-3.2331c0-2.3974.2426-4.3229.729-5.7758.4859-1.453 1.2451-2.5122 2.2787-3.1784 1.0327-.6658 2.3878-.999 4.0651-.999 1.6526 0 2.977.3393 3.9737 1.0171.9963.678 1.7256 1.7379 2.1877 3.1785.4612 1.4411.6924 3.3602.6924 5.7576v3.2331c0 2.3733-.2249 4.2808-.6744 5.7214-.4499 1.4409-1.1792 2.4944-2.1876 3.16-1.0089.666-2.3757.9992-4.1013.9992-1.7747 0-3.1663-.3394-4.1743-1.0172z"/><path d="m163.575 25.4902c-.255.3148-.426.8296-.511 1.5437-.085.7145-.127 1.7981-.127 3.2511v1.5984h3.682v-1.5984c0-1.4285-.049-2.5122-.146-3.2511-.097-.7385-.273-1.2588-.528-1.5618-.256-.3028-.651-.4544-1.185-.4544-.535 0-.93.1579-1.185.4725zm-.638 9.3721v1.1262c0 1.4291.042 2.5006.127 3.2147.085.7145.261 1.2353.529 1.5623.267.3266.68.4904 1.24.4904.753 0 1.27-.2907 1.549-.8722.279-.5811.431-1.5496.455-2.9061l4.339.2544c.025.1944.037.4606.037.799 0 2.0589-.565 3.5968-1.696 4.6139-1.129 1.0167-2.728 1.5255-4.794 1.5255-2.479 0-4.217-.7747-5.213-2.325-.997-1.5492-1.495-3.9469-1.495-7.1924v-3.8871c0-3.342.516-5.7814 1.549-7.3198 1.033-1.5377 2.802-2.3066 5.305-2.3066 1.725 0 3.05.3149 3.974.9444.923.6301 1.574 1.6109 1.95 2.9424.377 1.3321.566 3.1729.566 5.5217v3.8143z"/><path d="m73.2514 34.4452-5.7241-20.5971h4.9947l2.0051 9.3359c.5108 2.3012.8872 4.2627 1.1302 5.8848h.146c.17-1.1623.5468-3.1116 1.1301-5.8484l2.0781-9.3723h4.9947l-5.7966 20.5971v9.8813h-4.9582z"/><path d="m112.885 22.0587v22.2679h-3.938l-.437-2.7244h-.109c-1.07 2.0583-2.674 3.0873-4.813 3.0873-1.483 0-2.576-.4838-3.281-1.4528-.7052-.9681-1.0572-2.4822-1.0572-4.5407v-16.6373h5.0312v16.3466c0 .9935.109 1.7016.328 2.1249.219.4244.583.6359 1.094.6359.437 0 .857-.1328 1.257-.3999.402-.2662.699-.6046.894-1.0165v-17.691z"/><path d="m138.692 22.0587v22.2679h-3.938l-.437-2.7244h-.109c-1.071 2.0583-2.674 3.0873-4.813 3.0873-1.483 0-2.576-.4838-3.281-1.4528-.705-.9681-1.057-2.4822-1.057-4.5407v-16.6373h5.031v16.3466c0 .9935.109 1.7016.328 2.1249.219.4244.583.6359 1.094.6359.437 0 .857-.1328 1.257-.3999.402-.2662.699-.6046.894-1.0165v-17.691z"/><path d="m126.556 17.8811h-4.994v26.4454h-4.922v-26.4454h-4.995v-4.0324h14.911z"/><path d="m150.732 34.7014c0 1.6227-.068 2.8942-.201 3.8141-.134.9209-.359 1.5746-.675 1.9617-.316.3876-.742.5811-1.276.5811-.413 0-.796-.0964-1.148-.2907-.353-.1936-.638-.484-.857-.8719v-12.6413c.17-.605.462-1.1017.875-1.4895.413-.3867.862-.581 1.349-.581.51 0 .905.2 1.185.5993.279.3995.474 1.0716.583 2.0164.11.9442.165 2.2883.165 4.0319zm4.611-9.0831c-.304-1.4042-.796-2.4213-1.477-3.0514-.68-.6292-1.616-.9442-2.807-.9442-.923 0-1.786.2605-2.588.7808-.802.5209-1.422 1.2051-1.86 2.0526h-.036v-11.7335h-4.849v31.6035h4.156l.511-2.1065h.109c.389.7505.972 1.3439 1.75 1.7799.778.4357 1.641.6538 2.589.6538 1.701 0 2.952-.7812 3.755-2.343.802-1.5623 1.203-4.0017 1.203-7.3198v-3.5236c0-2.4941-.152-4.4436-.456-5.8486z"/><path d="m61.4189 16.8768c-.5863-2.1854-2.3136-3.9068-4.5071-4.4908-3.976-1.0616-19.9183-1.0616-19.9183-1.0616s-15.9422 0-19.9181 1.0616c-2.1933.584-3.9209 2.3054-4.5071 4.4908-1.0654 3.9615-1.0654 12.2265-1.0654 12.2265s0 8.2653 1.0654 12.2266c.5862 2.1853 2.3138 3.9068 4.5071 4.4907 3.9759 1.0618 19.9181 1.0618 19.9181 1.0618s15.9423 0 19.9183-1.0618c2.1935-.5839 3.9208-2.3054 4.5071-4.4907 1.065-3.9613 1.065-12.2266 1.065-12.2266s0-8.265-1.065-12.2265z"/></g><path d="m31.8955 36.7229v-15.2391l13.2449 7.6197z" fill="#0e031e"/></svg>