<svg fill="none" height="832" viewBox="0 0 448 832" width="448" xmlns="http://www.w3.org/2000/svg" xmlns:xlink="http://www.w3.org/1999/xlink"><filter id="a" color-interpolation-filters="sRGB" filterUnits="userSpaceOnUse" height="1556.1" width="2920.54" x="-1891.36" y="-209.615"><feFlood flood-opacity="0" result="BackgroundImageFix"/><feBlend in="SourceGraphic" in2="BackgroundImageFix" mode="normal" result="shape"/><feGaussianBlur result="effect1_foregroundBlur_3217_2203" stdDeviation="92.6034"/></filter><filter id="b" color-interpolation-filters="sRGB" filterUnits="userSpaceOnUse" height="1813.76" width="3802.26" x="-1861.74" y="-701.038"><feFlood flood-opacity="0" result="BackgroundImageFix"/><feBlend in="SourceGraphic" in2="BackgroundImageFix" mode="normal" result="shape"/><feGaussianBlur result="effect1_foregroundBlur_3217_2203" stdDeviation="92.6034"/></filter><filter id="c" color-interpolation-filters="sRGB" filterUnits="userSpaceOnUse" height="1321.8" width="2801.56" x="-1901.35" y="-309.269"><feFlood flood-opacity="0" result="BackgroundImageFix"/><feBlend in="SourceGraphic" in2="BackgroundImageFix" mode="normal" result="shape"/><feGaussianBlur result="effect1_foregroundBlur_3217_2203" stdDeviation="92.6034"/></filter><filter id="d" color-interpolation-filters="sRGB" filterUnits="userSpaceOnUse" height="1813.76" width="3759.91" x="-1734.9" y="-822.469"><feFlood flood-opacity="0" result="BackgroundImageFix"/><feBlend in="SourceGraphic" in2="BackgroundImageFix" mode="normal" result="shape"/><feGaussianBlur result="effect1_foregroundBlur_3217_2203" stdDeviation="92.6034"/></filter><filter id="e" color-interpolation-filters="sRGB" filterUnits="userSpaceOnUse" height="1200.72" width="2095.79" x="-1263.32" y="-89.4964"><feFlood flood-opacity="0" result="BackgroundImageFix"/><feBlend in="SourceGraphic" in2="BackgroundImageFix" mode="normal" result="shape"/><feGaussianBlur result="effect1_foregroundBlur_3217_2203" stdDeviation="92.6034"/></filter><filter id="f" color-interpolation-filters="sRGB" filterUnits="userSpaceOnUse" height="1471.65" width="2772.95" x="-1743.33" y="-603.553"><feFlood flood-opacity="0" result="BackgroundImageFix"/><feBlend in="SourceGraphic" in2="BackgroundImageFix" mode="normal" result="shape"/><feGaussianBlur result="effect1_foregroundBlur_3217_2203" stdDeviation="92.6034"/></filter><filter id="g" color-interpolation-filters="sRGB" filterUnits="userSpaceOnUse" height="934.735" width="2160.73" x="-1301.9" y="-35.4933"><feFlood flood-opacity="0" result="BackgroundImageFix"/><feBlend in="SourceGraphic" in2="BackgroundImageFix" mode="normal" result="shape"/><feGaussianBlur result="effect1_foregroundBlur_3217_2203" stdDeviation="92.6034"/></filter><filter id="h" color-interpolation-filters="sRGB" filterUnits="userSpaceOnUse" height="1917.04" width="2810.77" x="-1871.38" y="-822.466"><feFlood flood-opacity="0" result="BackgroundImageFix"/><feBlend in="SourceGraphic" in2="BackgroundImageFix" mode="normal" result="shape"/><feGaussianBlur result="effect1_foregroundBlur_3217_2203" stdDeviation="92.6034"/></filter><linearGradient id="i"><stop offset="0" stop-color="#a282ff"/><stop offset="1" stop-color="#a282ff" stop-opacity="0"/></linearGradient><radialGradient id="j" cx="0" cy="0" gradientTransform="matrix(-1836.11520831 625.67258683 -949.78349517 -2787.25959356 673.559 -399.808)" gradientUnits="userSpaceOnUse" r="1" xlink:href="#i"/><linearGradient id="k"><stop offset="0" stop-color="#ff279c"/><stop offset="1" stop-color="#ff279c" stop-opacity="0"/></linearGradient><radialGradient id="l" cx="0" cy="0" gradientTransform="matrix(-1663.23842262 74.36369768 -74.35967778 -1663.14851244 660.812 234.715)" gradientUnits="userSpaceOnUse" r="1" xlink:href="#k"/><linearGradient id="m"><stop offset="0" stop-color="#6f9fff"/><stop offset="1" stop-color="#ff6fce" stop-opacity="0"/></linearGradient><radialGradient id="n" cx="0" cy="0" gradientTransform="matrix(-1292.08528092 408.55849817 -408.56754281 -1292.11388502 722.875 273.176)" gradientUnits="userSpaceOnUse" r="1" xlink:href="#m"/><linearGradient id="o"><stop offset="0" stop-color="#0b3cff"/><stop offset="1" stop-color="#0b3cff" stop-opacity="0"/></linearGradient><radialGradient id="p" cx="0" cy="0" gradientTransform="matrix(-808.11705719 -22.74213798 22.74174415 -808.10306274 416.555 320.88)" gradientUnits="userSpaceOnUse" r="1" xlink:href="#o"/><linearGradient id="q"><stop offset="0" stop-color="#dcff93"/><stop offset="1" stop-color="#dcff93" stop-opacity="0"/></linearGradient><radialGradient id="r" cx="0" cy="0" gradientTransform="matrix(-367.55696366 124.92619146 -124.92940949 -367.56643173 691.429 253.689)" gradientUnits="userSpaceOnUse" r="1" xlink:href="#q"/><linearGradient id="s"><stop offset="0" stop-color="#fff"/><stop offset="1" stop-color="#fff" stop-opacity="0"/></linearGradient><radialGradient id="t" cx="0" cy="0" gradientTransform="matrix(-689.96486275 96.90683842 -96.90433486 -689.94703771 679.844 246.51)" gradientUnits="userSpaceOnUse" r="1" xlink:href="#s"/><radialGradient id="u" cx="0" cy="0" gradientTransform="matrix(1919.96504184 2194.47955345 -3331.26906251 2914.54989176 -1063.46 -1352.56)" gradientUnits="userSpaceOnUse" r="1"><stop offset="0" stop-color="#82f7ff"/><stop offset="1" stop-color="#82d2ff" stop-opacity="0"/></radialGradient><radialGradient id="v" cx="0" cy="0" gradientTransform="matrix(2109.29077536 1346.84790878 -1346.77794601 2109.18120706 -1523.76 -516.973)" gradientUnits="userSpaceOnUse" r="1" xlink:href="#k"/><radialGradient id="w" cx="0" cy="0" gradientTransform="matrix(1374.93695902 1502.96951357 -1502.99902697 1374.96395827 -1633.46 -513.551)" gradientUnits="userSpaceOnUse" r="1" xlink:href="#m"/><radialGradient id="x" cx="0" cy="0" gradientTransform="matrix(1069.08555202 577.76788666 -577.75362337 1069.05915963 -1270.55 -221.226)" gradientUnits="userSpaceOnUse" r="1"><stop offset="0" stop-color="#0b3cff" stop-opacity="0"/><stop offset="1" stop-color="#0b3cff"/></radialGradient><radialGradient id="y" cx="0" cy="0" gradientTransform="matrix(384.5824459 438.8782369 -438.89027046 384.59299073 -1577.88 -515.285)" gradientUnits="userSpaceOnUse" r="1" xlink:href="#q"/><radialGradient id="z" cx="0" cy="0" gradientTransform="matrix(825.35230857 644.71063496 -644.69216735 825.32866651 -1557.4 -515.923)" gradientUnits="userSpaceOnUse" r="1" xlink:href="#s"/><radialGradient id="A" cx="0" cy="0" gradientTransform="matrix(-1663.23842262 74.36369768 -74.35967778 -1663.14851244 652.941 136.891)" gradientUnits="userSpaceOnUse" r="1" xlink:href="#k"/><radialGradient id="B" cx="0" cy="0" gradientTransform="matrix(-1292.08528092 408.55849817 -408.56754281 -1292.11388502 715.004 175.352)" gradientUnits="userSpaceOnUse" r="1" xlink:href="#m"/><radialGradient id="C" cx="0" cy="0" gradientTransform="matrix(-1187.8599981 201.74325718 -201.73990839 -1187.84028045 662.51 156.563)" gradientUnits="userSpaceOnUse" r="1"><stop offset="0" stop-color="#ffcf54"/><stop offset="1" stop-color="#ffcf54" stop-opacity="0"/></radialGradient><radialGradient id="D" cx="0" cy="0" gradientTransform="matrix(-689.96486275 96.90683842 -96.90433486 -689.94703771 671.973 148.686)" gradientUnits="userSpaceOnUse" r="1" xlink:href="#s"/><radialGradient id="E" cx="0" cy="0" gradientTransform="matrix(1919.96504184 2194.47955345 -3331.26906251 2914.54989176 -979.693 -1473.99)" gradientUnits="userSpaceOnUse" r="1" xlink:href="#i"/><radialGradient id="F" cx="0" cy="0" gradientTransform="matrix(2109.29077536 1346.84790878 -1346.77794601 2109.18120706 -1440 -638.403)" gradientUnits="userSpaceOnUse" r="1"><stop offset="0" stop-color="#ff279c"/><stop offset=".0001" stop-color="#27ff64"/><stop offset="1" stop-color="#eeffea" stop-opacity="0"/></radialGradient><radialGradient id="G" cx="0" cy="0" gradientTransform="matrix(1374.93433584 1502.97191329 -1503.00142673 1374.96133504 -1549.69 -634.981)" gradientUnits="userSpaceOnUse" r="1" xlink:href="#m"/><radialGradient id="H" cx="0" cy="0" gradientTransform="matrix(1394.70746201 1155.4146322 -1155.39549363 1394.68435974 -1467.24 -619.987)" gradientUnits="userSpaceOnUse" r="1" xlink:href="#o"/><radialGradient id="I" cx="0" cy="0" gradientTransform="matrix(825.35230857 644.71063496 -644.69216735 825.32866651 -1473.64 -637.353)" gradientUnits="userSpaceOnUse" r="1" xlink:href="#s"/><radialGradient id="J" cx="0" cy="0" gradientTransform="matrix(-1307.35143611 445.49162886 -676.26723985 -1984.59160605 612.149 -175.275)" gradientUnits="userSpaceOnUse" r="1" xlink:href="#i"/><radialGradient id="K" cx="0" cy="0" gradientTransform="matrix(-491.26909972 68.99965177 -68.99784365 -491.25622607 616.624 284.917)" gradientUnits="userSpaceOnUse" r="1" xlink:href="#s"/><radialGradient id="L" cx="0" cy="0" gradientTransform="matrix(1367.05867383 1562.51923483 -2371.9378101 2075.22447391 -1152.27 -1014.12)" gradientUnits="userSpaceOnUse" r="1" xlink:href="#i"/><radialGradient id="M" cx="0" cy="0" gradientTransform="matrix(587.66840188 459.04768738 -459.03599122 587.65342857 -1503.97 -418.412)" gradientUnits="userSpaceOnUse" r="1" xlink:href="#s"/><radialGradient id="N" cx="0" cy="0" gradientTransform="matrix(-1836.11520831 625.67258683 -949.78349517 -2787.25959356 665.688 -497.631)" gradientUnits="userSpaceOnUse" r="1" xlink:href="#i"/><linearGradient id="O"><stop offset="0" stop-color="#27fff2"/><stop offset="1" stop-color="#277eff" stop-opacity="0"/></linearGradient><radialGradient id="P" cx="0" cy="0" gradientTransform="matrix(-1663.23842262 74.36369768 -74.35967778 -1663.14851244 652.94 136.893)" gradientUnits="userSpaceOnUse" r="1" xlink:href="#O"/><linearGradient id="Q"><stop offset="0" stop-color="#6f9fff"/><stop offset="1" stop-color="#6fcbff" stop-opacity="0"/></linearGradient><radialGradient id="R" cx="0" cy="0" gradientTransform="matrix(-1292.08528092 408.55849817 -408.56754281 -1292.11388502 715.003 175.354)" gradientUnits="userSpaceOnUse" r="1" xlink:href="#Q"/><linearGradient id="S"><stop offset="0" stop-color="#04fff0"/><stop offset="1" stop-color="#6254ff" stop-opacity="0"/></linearGradient><radialGradient id="T" cx="0" cy="0" gradientTransform="matrix(-625.785301 2.15164522 -2.1516074 -625.77430106 300.268 328.068)" gradientUnits="userSpaceOnUse" r="1" xlink:href="#S"/><radialGradient id="U" cx="0" cy="0" gradientTransform="matrix(1919.97162649 2194.48707956 -3331.26906251 2914.54989176 -979.693 -1473.99)" gradientUnits="userSpaceOnUse" r="1" xlink:href="#i"/><radialGradient id="V" cx="0" cy="0" gradientTransform="matrix(2109.28842466 1346.85159019 -1346.78162723 2109.17885649 -1440 -638.401)" gradientUnits="userSpaceOnUse" r="1" xlink:href="#O"/><radialGradient id="W" cx="0" cy="0" gradientTransform="matrix(1374.93695902 1502.96951357 -1502.99902697 1374.96395827 -1549.69 -634.979)" gradientUnits="userSpaceOnUse" r="1" xlink:href="#Q"/><radialGradient id="X" cx="0" cy="0" gradientTransform="matrix(813.02030805 473.12643227 -473.11838475 813.00647919 -1124.58 -124.47)" gradientUnits="userSpaceOnUse" r="1" xlink:href="#S"/><clipPath id="Y"><path d="m0 0h448v832h-448z"/></clipPath><g clip-path="url(#Y)"><path d="m0 0h448v832h-448z" fill="#0e031e"/><g filter="url(#a)"><path d="m-128.083 419.18c380.918 133.451 698.437-58.825 809.582-171.644l41.376 25.641 121.096 888.103c-530.294-328.624-1857.371-910.208-2356.361-1113.2875-69.7-12.9499-115.56-22.3522-187.95-67.213-28.01-17.3606 46.87 9.80006 187.95 67.213 83.26 15.4723 200.54 36.009 437.73 128.1355 435.706 169.235 470.429 76.239 946.577 243.052z" fill="url(#j)"/><path d="m-128.083 419.18c380.918 133.451 698.437-58.825 809.582-171.644l41.376 25.641 121.096 888.103c-530.294-328.624-1857.371-910.208-2356.361-1113.2875-69.7-12.9499-115.56-22.3522-187.95-67.213-28.01-17.3606 46.87 9.80006 187.95 67.213 83.26 15.4723 200.54 36.009 437.73 128.1355 435.706 169.235 470.429 76.239 946.577 243.052z" fill="url(#l)"/><path d="m-128.083 419.18c380.918 133.451 698.437-58.825 809.582-171.644l41.376 25.641 121.096 888.103c-530.294-328.624-1857.371-910.208-2356.361-1113.2875-69.7-12.9499-115.56-22.3522-187.95-67.213-28.01-17.3606 46.87 9.80006 187.95 67.213 83.26 15.4723 200.54 36.009 437.73 128.1355 435.706 169.235 470.429 76.239 946.577 243.052z" fill="url(#n)"/><path d="m-128.083 419.18c380.918 133.451 698.437-58.825 809.582-171.644l41.376 25.641 121.096 888.103c-530.294-328.624-1857.371-910.208-2356.361-1113.2875-69.7-12.9499-115.56-22.3522-187.95-67.213-28.01-17.3606 46.87 9.80006 187.95 67.213 83.26 15.4723 200.54 36.009 437.73 128.1355 435.706 169.235 470.429 76.239 946.577 243.052z" fill="url(#p)"/><path d="m-128.083 419.18c380.918 133.451 698.437-58.825 809.582-171.644l41.376 25.641 121.096 888.103c-530.294-328.624-1857.371-910.208-2356.361-1113.2875-69.7-12.9499-115.56-22.3522-187.95-67.213-28.01-17.3606 46.87 9.80006 187.95 67.213 83.26 15.4723 200.54 36.009 437.73 128.1355 435.706 169.235 470.429 76.239 946.577 243.052z" fill="url(#r)"/><path d="m-128.083 419.18c380.918 133.451 698.437-58.825 809.582-171.644l41.376 25.641 121.096 888.103c-530.294-328.624-1857.371-910.208-2356.361-1113.2875-69.7-12.9499-115.56-22.3522-187.95-67.213-28.01-17.3606 46.87 9.80006 187.95 67.213 83.26 15.4723 200.54 36.009 437.73 128.1355 435.706 169.235 470.429 76.239 946.577 243.052z" fill="url(#t)"/></g><g filter="url(#b)"><path d="m-635.432 316.08c-596.168-112.569-864.998-601.511-924.898-831.911l-73.13 2.281-43.08 999.461c800.184-24.958 2148.454 175.604 2894.6 314.622 271.11 73.644 320.5 132.833 522.73 126.525 75.15-2.343-147.76-56.663-522.73-126.525-105.37-28.623-244.234-59.429-438.581-89.422-694.3891-107.163-669.697-254.321-1414.911-395.031z" fill="url(#u)"/><path d="m-635.432 316.08c-596.168-112.569-864.998-601.511-924.898-831.911l-73.13 2.281-43.08 999.461c800.184-24.958 2148.454 175.604 2894.6 314.622 271.11 73.644 320.5 132.833 522.73 126.525 75.15-2.343-147.76-56.663-522.73-126.525-105.37-28.623-244.234-59.429-438.581-89.422-694.3891-107.163-669.697-254.321-1414.911-395.031z" fill="url(#v)"/><path d="m-635.432 316.08c-596.168-112.569-864.998-601.511-924.898-831.911l-73.13 2.281-43.08 999.461c800.184-24.958 2148.454 175.604 2894.6 314.622 271.11 73.644 320.5 132.833 522.73 126.525 75.15-2.343-147.76-56.663-522.73-126.525-105.37-28.623-244.234-59.429-438.581-89.422-694.3891-107.163-669.697-254.321-1414.911-395.031z" fill="url(#w)"/><path d="m-635.432 316.08c-596.168-112.569-864.998-601.511-924.898-831.911l-73.13 2.281-43.08 999.461c800.184-24.958 2148.454 175.604 2894.6 314.622 271.11 73.644 320.5 132.833 522.73 126.525 75.15-2.343-147.76-56.663-522.73-126.525-105.37-28.623-244.234-59.429-438.581-89.422-694.3891-107.163-669.697-254.321-1414.911-395.031z" fill="url(#x)"/><path d="m-635.432 316.08c-596.168-112.569-864.998-601.511-924.898-831.911l-73.13 2.281-43.08 999.461c800.184-24.958 2148.454 175.604 2894.6 314.622 271.11 73.644 320.5 132.833 522.73 126.525 75.15-2.343-147.76-56.663-522.73-126.525-105.37-28.623-244.234-59.429-438.581-89.422-694.3891-107.163-669.697-254.321-1414.911-395.031z" fill="url(#y)"/><path d="m-635.432 316.08c-596.168-112.569-864.998-601.511-924.898-831.911l-73.13 2.281-43.08 999.461c800.184-24.958 2148.454 175.604 2894.6 314.622 271.11 73.644 320.5 132.833 522.73 126.525 75.15-2.343-147.76-56.663-522.73-126.525-105.37-28.623-244.234-59.429-438.581-89.422-694.3891-107.163-669.697-254.321-1414.911-395.031z" fill="url(#z)"/></g><g filter="url(#c)"><path d="m-135.954 321.356c380.919 133.45 698.438-58.825 809.582-171.644l41.376 25.64-437.574 651.967c-496.514-307.689-1393.87-711.324-1792.91-876.2629-72.41-13.43-118.69-22.2217-192.73-68.1021-34.33-21.273 45.1 7.078 192.73 68.1021 82.99 15.3907 200.27 36.8729 432.95 127.247 435.705 169.2349 470.428 76.2389 946.576 243.0529z" fill="url(#A)"/><path d="m-135.954 321.356c380.919 133.45 698.438-58.825 809.582-171.644l41.376 25.64-437.574 651.967c-496.514-307.689-1393.87-711.324-1792.91-876.2629-72.41-13.43-118.69-22.2217-192.73-68.1021-34.33-21.273 45.1 7.078 192.73 68.1021 82.99 15.3907 200.27 36.8729 432.95 127.247 435.705 169.2349 470.428 76.2389 946.576 243.0529z" fill="url(#B)"/><path d="m-135.954 321.356c380.919 133.45 698.438-58.825 809.582-171.644l41.376 25.64-437.574 651.967c-496.514-307.689-1393.87-711.324-1792.91-876.2629-72.41-13.43-118.69-22.2217-192.73-68.1021-34.33-21.273 45.1 7.078 192.73 68.1021 82.99 15.3907 200.27 36.8729 432.95 127.247 435.705 169.2349 470.428 76.2389 946.576 243.0529z" fill="url(#C)"/><path d="m-135.954 321.356c380.919 133.45 698.438-58.825 809.582-171.644l41.376 25.64-437.574 651.967c-496.514-307.689-1393.87-711.324-1792.91-876.2629-72.41-13.43-118.69-22.2217-192.73-68.1021-34.33-21.273 45.1 7.078 192.73 68.1021 82.99 15.3907 200.27 36.8729 432.95 127.247 435.705 169.2349 470.428 76.2389 946.576 243.0529z" fill="url(#D)"/></g><g filter="url(#d)"><path d="m-551.668 194.649c-596.172-112.569-865.002-601.511-924.892-831.911l-73.13 2.281 83.25 906.695c478.216-14.916 1132.201 65.392 1732.341 167.974 146.384 54.639 310.519 105.727 597.342 149.992 694.387 107.163 680.487 224.706 961.317 215.947 135.3-4.22-649.95-210.613-1558.659-365.939-208.0074-77.64-380.171-162.45-817.569-245.039z" fill="url(#E)"/><path d="m-551.668 194.649c-596.172-112.569-865.002-601.511-924.892-831.911l-73.13 2.281 83.25 906.695c478.216-14.916 1132.201 65.392 1732.341 167.974 146.384 54.639 310.519 105.727 597.342 149.992 694.387 107.163 680.487 224.706 961.317 215.947 135.3-4.22-649.95-210.613-1558.659-365.939-208.0074-77.64-380.171-162.45-817.569-245.039z" fill="url(#F)"/><path d="m-551.668 194.649c-596.172-112.569-865.002-601.511-924.892-831.911l-73.13 2.281 83.25 906.695c478.216-14.916 1132.201 65.392 1732.341 167.974 146.384 54.639 310.519 105.727 597.342 149.992 694.387 107.163 680.487 224.706 961.317 215.947 135.3-4.22-649.95-210.613-1558.659-365.939-208.0074-77.64-380.171-162.45-817.569-245.039z" fill="url(#G)"/><path d="m-551.668 194.649c-596.172-112.569-865.002-601.511-924.892-831.911l-73.13 2.281 83.25 906.695c478.216-14.916 1132.201 65.392 1732.341 167.974 146.384 54.639 310.519 105.727 597.342 149.992 694.387 107.163 680.487 224.706 961.317 215.947 135.3-4.22-649.95-210.613-1558.659-365.939-208.0074-77.64-380.171-162.45-817.569-245.039z" fill="url(#H)"/><path d="m-551.668 194.649c-596.172-112.569-865.002-601.511-924.892-831.911l-73.13 2.281 83.25 906.695c478.216-14.916 1132.201 65.392 1732.341 167.974 146.384 54.639 310.519 105.727 597.342 149.992 694.387 107.163 680.487 224.706 961.317 215.947 135.3-4.22-649.95-210.613-1558.659-365.939-208.0074-77.64-380.171-162.45-817.569-245.039z" fill="url(#I)"/></g><g filter="url(#e)"><path d="m41.3639 407.861c271.2221 95.02 497.3021-41.884 576.4391-122.214l29.46 18.257-385.523 622.114-1339.85-830.3077c113.123 70.1047 135.259 18.5937 445.491 139.0927s334.956 54.284 673.9829 173.058z" fill="url(#J)"/><path d="m41.3639 407.861c271.2221 95.02 497.3021-41.884 576.4391-122.214l29.46 18.257-385.523 622.114-1339.85-830.3077c113.123 70.1047 135.259 18.5937 445.491 139.0927s334.956 54.284 673.9829 173.058z" fill="url(#K)"/></g><g filter="url(#f)"><path d="m-847.511 173.991c-424.489-80.151-615.899-428.288-658.539-592.338l-52.08 1.624 34.3 1099.609 2368.242-73.865c-199.957 6.236-190.058-77.457-684.477-153.759-494.419-76.303-476.838-181.082-1007.446-281.271z" fill="url(#L)"/><path d="m-847.511 173.991c-424.489-80.151-615.899-428.288-658.539-592.338l-52.08 1.624 34.3 1099.609 2368.242-73.865c-199.957 6.236-190.058-77.457-684.477-153.759-494.419-76.303-476.838-181.082-1007.446-281.271z" fill="url(#M)"/></g><g filter="url(#g)"><path d="m-135.955 321.357c380.918 133.451 698.437-58.825 809.582-171.644l-139.447 520.425-285.973 43.897-264.7453-123.667-1100.1517-307.797s504.587-128.027 980.735 38.786z" fill="url(#N)"/><path d="m-135.955 321.357c380.918 133.451 698.437-58.825 809.582-171.644l-139.447 520.425-285.973 43.897-264.7453-123.667-1100.1517-307.797s504.587-128.027 980.735 38.786z" fill="url(#P)"/><path d="m-135.955 321.357c380.918 133.451 698.437-58.825 809.582-171.644l-139.447 520.425-285.973 43.897-264.7453-123.667-1100.1517-307.797s504.587-128.027 980.735 38.786z" fill="url(#R)"/><path d="m-135.955 321.357c380.918 133.451 698.437-58.825 809.582-171.644l-139.447 520.425-285.973 43.897-264.7453-123.667-1100.1517-307.797s504.587-128.027 980.735 38.786z" fill="url(#T)"/></g><g filter="url(#h)"><path d="m-551.667 194.652c-596.173-112.5687-865.003-601.511-924.893-831.911l-209.61 782.284 184.64 764.346 589.158-300.699 1666.556 272.593s-560.638-545.902-1305.851-686.613z" fill="url(#U)"/><path d="m-551.667 194.652c-596.173-112.5687-865.003-601.511-924.893-831.911l-209.61 782.284 184.64 764.346 589.158-300.699 1666.556 272.593s-560.638-545.902-1305.851-686.613z" fill="url(#V)"/><path d="m-551.667 194.652c-596.173-112.5687-865.003-601.511-924.893-831.911l-209.61 782.284 184.64 764.346 589.158-300.699 1666.556 272.593s-560.638-545.902-1305.851-686.613z" fill="url(#W)"/><path d="m-551.667 194.652c-596.173-112.5687-865.003-601.511-924.893-831.911l-209.61 782.284 184.64 764.346 589.158-300.699 1666.556 272.593s-560.638-545.902-1305.851-686.613z" fill="url(#X)"/></g></g></svg>