<svg fill="none" height="140" viewBox="0 0 916 140" width="916" xmlns="http://www.w3.org/2000/svg" xmlns:xlink="http://www.w3.org/1999/xlink"><filter id="a" color-interpolation-filters="sRGB" filterUnits="userSpaceOnUse" height="803.776" width="2084.43" x="-837.171" y="-311.47"><feFlood flood-opacity="0" result="BackgroundImageFix"/><feBlend in="SourceGraphic" in2="BackgroundImageFix" mode="normal" result="shape"/><feGaussianBlur result="effect1_foregroundBlur_3195_2152" stdDeviation="61.4651"/></filter><filter id="b" color-interpolation-filters="sRGB" filterUnits="userSpaceOnUse" height="908.07" width="2665.41" x="-874.667" y="-415.763"><feFlood flood-opacity="0" result="BackgroundImageFix"/><feBlend in="SourceGraphic" in2="BackgroundImageFix" mode="normal" result="shape"/><feGaussianBlur result="effect1_foregroundBlur_3195_2152" stdDeviation="61.4651"/></filter><filter id="c" color-interpolation-filters="sRGB" filterUnits="userSpaceOnUse" height="748.357" width="1855.88" x="-860.673" y="-372.836"><feFlood flood-opacity="0" result="BackgroundImageFix"/><feBlend in="SourceGraphic" in2="BackgroundImageFix" mode="normal" result="shape"/><feGaussianBlur result="effect1_foregroundBlur_3195_2152" stdDeviation="61.4651"/></filter><filter id="d" color-interpolation-filters="sRGB" filterUnits="userSpaceOnUse" height="826.892" width="2665.74" x="-841.825" y="-508.006"><feFlood flood-opacity="0" result="BackgroundImageFix"/><feBlend in="SourceGraphic" in2="BackgroundImageFix" mode="normal" result="shape"/><feGaussianBlur result="effect1_foregroundBlur_3195_2152" stdDeviation="61.4651"/></filter><filter id="e" color-interpolation-filters="sRGB" filterUnits="userSpaceOnUse" height="717.588" width="1387.82" x="-413.955" y="-276.094"><feFlood flood-opacity="0" result="BackgroundImageFix"/><feBlend in="SourceGraphic" in2="BackgroundImageFix" mode="normal" result="shape"/><feGaussianBlur result="effect1_foregroundBlur_3195_2152" stdDeviation="61.4651"/></filter><filter id="f" color-interpolation-filters="sRGB" filterUnits="userSpaceOnUse" height="954.946" width="1962.41" x="-809.735" y="-362.587"><feFlood flood-opacity="0" result="BackgroundImageFix"/><feBlend in="SourceGraphic" in2="BackgroundImageFix" mode="normal" result="shape"/><feGaussianBlur result="effect1_foregroundBlur_3195_2152" stdDeviation="61.4651"/></filter><filter id="g" color-interpolation-filters="sRGB" filterUnits="userSpaceOnUse" height="680.746" width="1370.86" x="-406.586" y="-372.835"><feFlood flood-opacity="0" result="BackgroundImageFix"/><feBlend in="SourceGraphic" in2="BackgroundImageFix" mode="normal" result="shape"/><feGaussianBlur result="effect1_foregroundBlur_3195_2152" stdDeviation="61.4651"/></filter><filter id="h" color-interpolation-filters="sRGB" filterUnits="userSpaceOnUse" height="1241.74" width="1936.92" x="-795.328" y="-508.005"><feFlood flood-opacity="0" result="BackgroundImageFix"/><feBlend in="SourceGraphic" in2="BackgroundImageFix" mode="normal" result="shape"/><feGaussianBlur result="effect1_foregroundBlur_3195_2152" stdDeviation="61.4651"/></filter><linearGradient id="i"><stop offset="0" stop-color="#a282ff"/><stop offset="1" stop-color="#a282ff" stop-opacity="0"/></linearGradient><radialGradient id="j" cx="0" cy="0" gradientTransform="matrix(-1069.70487178 716.56471319 -1087.75606493 -1623.82816311 746.898 -602.207)" gradientUnits="userSpaceOnUse" r="1" xlink:href="#i"/><linearGradient id="k"><stop offset="0" stop-color="#ff279c"/><stop offset="1" stop-color="#ff279c" stop-opacity="0"/></linearGradient><radialGradient id="l" cx="0" cy="0" gradientTransform="matrix(-1053.5754282 333.40444207 -333.38633981 -1053.51822411 847.73 -193.206)" gradientUnits="userSpaceOnUse" r="1" xlink:href="#k"/><linearGradient id="m"><stop offset="0" stop-color="#6f9fff"/><stop offset="1" stop-color="#ff6fce" stop-opacity="0"/></linearGradient><radialGradient id="n" cx="0" cy="0" gradientTransform="matrix(-758.20523589 483.90485162 -483.91507345 -758.22125195 894.128 -179.21)" gradientUnits="userSpaceOnUse" r="1" xlink:href="#m"/><linearGradient id="o"><stop offset="0" stop-color="#0b3cff"/><stop offset="1" stop-color="#0b3cff" stop-opacity="0"/></linearGradient><radialGradient id="p" cx="0" cy="0" gradientTransform="matrix(-522.01465137 124.245902 -124.24358656 -522.00492313 705.932 -96.002)" gradientUnits="userSpaceOnUse" r="1" xlink:href="#o"/><linearGradient id="q"><stop offset="0" stop-color="#dcff93"/><stop offset="1" stop-color="#dcff93" stop-opacity="0"/></linearGradient><radialGradient id="r" cx="0" cy="0" gradientTransform="matrix(-214.1897921 143.23603548 -143.2399267 -214.1956109 870.619 -186.301)" gradientUnits="userSpaceOnUse" r="1" xlink:href="#q"/><linearGradient id="s"><stop offset="0" stop-color="#fff"/><stop offset="1" stop-color="#fff" stop-opacity="0"/></linearGradient><radialGradient id="t" cx="0" cy="0" gradientTransform="matrix(-425.70875958 180.65880535 -180.65411754 -425.69771312 861.959 -188.914)" gradientUnits="userSpaceOnUse" r="1" xlink:href="#s"/><radialGradient id="u" cx="0" cy="0" gradientTransform="matrix(1607.94101671 1077.11778542 -1635.08613616 2440.88631694 -530.427 -914.644)" gradientUnits="userSpaceOnUse" r="1"><stop offset="0" stop-color="#82f7ff"/><stop offset="1" stop-color="#82d2ff" stop-opacity="0"/></radialGradient><radialGradient id="v" cx="0" cy="0" gradientTransform="matrix(1583.69965404 501.1472995 -501.12316381 1583.62338171 -681.994 -299.847)" gradientUnits="userSpaceOnUse" r="1" xlink:href="#k"/><radialGradient id="w" cx="0" cy="0" gradientTransform="matrix(1139.70729684 727.39705803 -727.4131979 1139.73258527 -751.738 -278.808)" gradientUnits="userSpaceOnUse" r="1" xlink:href="#m"/><radialGradient id="x" cx="0" cy="0" gradientTransform="matrix(784.67366736 186.76486979 -186.76162813 784.66004783 -468.849 -153.734)" gradientUnits="userSpaceOnUse" r="1"><stop offset="0" stop-color="#0b3cff" stop-opacity="0"/><stop offset="1" stop-color="#0b3cff"/></radialGradient><radialGradient id="y" cx="0" cy="0" gradientTransform="matrix(321.9614901 215.30990673 -215.31602158 321.97063387 -716.401 -289.468)" gradientUnits="userSpaceOnUse" r="1" xlink:href="#q"/><radialGradient id="z" cx="0" cy="0" gradientTransform="matrix(639.91270423 271.55565336 -271.54862176 639.89613448 -703.382 -293.395)" gradientUnits="userSpaceOnUse" r="1" xlink:href="#s"/><radialGradient id="A" cx="0" cy="0" gradientTransform="matrix(-1053.5754282 333.40444207 -333.38633981 -1053.51822411 825.879 -254.572)" gradientUnits="userSpaceOnUse" r="1" xlink:href="#k"/><radialGradient id="B" cx="0" cy="0" gradientTransform="matrix(-758.20523589 483.90485162 -483.91507345 -758.22125195 872.277 -240.575)" gradientUnits="userSpaceOnUse" r="1" xlink:href="#m"/><radialGradient id="C" cx="0" cy="0" gradientTransform="matrix(-726.91661888 333.40711164 -333.40127505 -726.90389355 835.394 -243.603)" gradientUnits="userSpaceOnUse" r="1"><stop offset="0" stop-color="#ffcf54"/><stop offset="1" stop-color="#ffcf54" stop-opacity="0"/></radialGradient><radialGradient id="D" cx="0" cy="0" gradientTransform="matrix(-425.70875958 180.65880535 -180.65411754 -425.69771312 840.107 -250.279)" gradientUnits="userSpaceOnUse" r="1" xlink:href="#s"/><radialGradient id="E" cx="0" cy="0" gradientTransform="matrix(1607.94101671 1077.11778542 -1635.08613616 2440.88631694 -497.584 -1006.89)" gradientUnits="userSpaceOnUse" r="1" xlink:href="#i"/><radialGradient id="F" cx="0" cy="0" gradientTransform="matrix(1583.69965404 501.1472995 -501.12316381 1583.62338171 -649.151 -392.089)" gradientUnits="userSpaceOnUse" r="1"><stop offset="0" stop-color="#ff279c"/><stop offset=".0001" stop-color="#27ff64"/><stop offset="1" stop-color="#eeffea" stop-opacity="0"/></radialGradient><radialGradient id="G" cx="0" cy="0" gradientTransform="matrix(1139.70602729 727.39904719 -727.40980713 1139.72288623 -718.894 -371.05)" gradientUnits="userSpaceOnUse" r="1" xlink:href="#m"/><radialGradient id="H" cx="0" cy="0" gradientTransform="matrix(1092.6764989 501.17322918 -501.16489109 1092.6583199 -663.453 -375.602)" gradientUnits="userSpaceOnUse" r="1" xlink:href="#o"/><radialGradient id="I" cx="0" cy="0" gradientTransform="matrix(639.91270423 271.55565336 -271.54862176 639.89613448 -670.539 -385.637)" gradientUnits="userSpaceOnUse" r="1" xlink:href="#s"/><radialGradient id="J" cx="0" cy="0" gradientTransform="matrix(-761.64950928 510.20723245 -774.50631633 -1156.20147707 746.099 -447.703)" gradientUnits="userSpaceOnUse" r="1" xlink:href="#i"/><radialGradient id="K" cx="0" cy="0" gradientTransform="matrix(-303.11322361 128.6327134 -128.62958819 -303.1058593 828.025 -153.429)" gradientUnits="userSpaceOnUse" r="1" xlink:href="#s"/><radialGradient id="L" cx="0" cy="0" gradientTransform="matrix(1144.88437862 766.92821046 -1164.21129325 1737.95578893 -529.227 -682.398)" gradientUnits="userSpaceOnUse" r="1" xlink:href="#i"/><radialGradient id="M" cx="0" cy="0" gradientTransform="matrix(455.63130741 193.35333798 -193.3482596 455.61934037 -652.375 -240.057)" gradientUnits="userSpaceOnUse" r="1" xlink:href="#s"/><radialGradient id="N" cx="0" cy="0" gradientTransform="matrix(-1069.70487178 716.56471319 -1087.75606493 -1623.82816311 725.047 -663.572)" gradientUnits="userSpaceOnUse" r="1" xlink:href="#i"/><linearGradient id="O"><stop offset="0" stop-color="#27fff2"/><stop offset="1" stop-color="#277eff" stop-opacity="0"/></linearGradient><radialGradient id="P" cx="0" cy="0" gradientTransform="matrix(-1053.5754282 333.40444207 -333.38633981 -1053.51822411 825.879 -254.571)" gradientUnits="userSpaceOnUse" r="1" xlink:href="#O"/><linearGradient id="Q"><stop offset="0" stop-color="#6f9fff"/><stop offset="1" stop-color="#6fcbff" stop-opacity="0"/></linearGradient><radialGradient id="R" cx="0" cy="0" gradientTransform="matrix(-758.20523589 483.90485162 -483.91507345 -758.22125195 872.277 -240.574)" gradientUnits="userSpaceOnUse" r="1" xlink:href="#Q"/><linearGradient id="S"><stop offset="0" stop-color="#04fff0"/><stop offset="1" stop-color="#6254ff" stop-opacity="0"/></linearGradient><radialGradient id="T" cx="0" cy="0" gradientTransform="matrix(-400.83977789 108.88322041 -108.8811233 -400.83205765 632.613 -71.417)" gradientUnits="userSpaceOnUse" r="1" xlink:href="#S"/><radialGradient id="U" cx="0" cy="0" gradientTransform="matrix(1607.94101671 1077.11778542 -1635.08613616 2440.88631694 -497.583 -1006.89)" gradientUnits="userSpaceOnUse" r="1" xlink:href="#i"/><radialGradient id="V" cx="0" cy="0" gradientTransform="matrix(1583.69877937 501.15006357 -501.12592776 1583.62250708 -649.151 -392.088)" gradientUnits="userSpaceOnUse" r="1" xlink:href="#O"/><radialGradient id="W" cx="0" cy="0" gradientTransform="matrix(1139.70729684 727.39705803 -727.4131979 1139.73258527 -718.894 -371.049)" gradientUnits="userSpaceOnUse" r="1" xlink:href="#Q"/><radialGradient id="X" cx="0" cy="0" gradientTransform="matrix(602.52905602 163.66625704 -163.66337357 602.51844067 -358.639 -116.778)" gradientUnits="userSpaceOnUse" r="1" xlink:href="#S"/><clipPath id="Y"><path d="m0 0h916v140h-916z"/></clipPath><g clip-path="url(#Y)"><path d="m0 0h916v140h-916z" fill="#0e031e"/><g filter="url(#a)"><path d="m373.636 60.5843c267.143 20.121 437.683-157.6989 489.56-249.1243l30.932 9.331 230.202 548.585c-396.438-119.59-1347.175-264.482-1701.982-308.96-46.906 3.6697-77.924 5.5202-132.043-10.8053-20.943-6.3177 31.735-1.7691 132.043 10.8053 56.042-4.3844 134.762-11.3656 302.656 6.9533 308.4169 33.6517 314.7033-31.9362 648.632-6.785z" fill="url(#j)"/><path d="m373.636 60.5843c267.143 20.121 437.683-157.6989 489.56-249.1243l30.932 9.331 230.202 548.585c-396.438-119.59-1347.175-264.482-1701.982-308.96-46.906 3.6697-77.924 5.5202-132.043-10.8053-20.943-6.3177 31.735-1.7691 132.043 10.8053 56.042-4.3844 134.762-11.3656 302.656 6.9533 308.4169 33.6517 314.7033-31.9362 648.632-6.785z" fill="url(#l)"/><path d="m373.636 60.5843c267.143 20.121 437.683-157.6989 489.56-249.1243l30.932 9.331 230.202 548.585c-396.438-119.59-1347.175-264.482-1701.982-308.96-46.906 3.6697-77.924 5.5202-132.043-10.8053-20.943-6.3177 31.735-1.7691 132.043 10.8053 56.042-4.3844 134.762-11.3656 302.656 6.9533 308.4169 33.6517 314.7033-31.9362 648.632-6.785z" fill="url(#n)"/><path d="m373.636 60.5843c267.143 20.121 437.683-157.6989 489.56-249.1243l30.932 9.331 230.202 548.585c-396.438-119.59-1347.175-264.482-1701.982-308.96-46.906 3.6697-77.924 5.5202-132.043-10.8053-20.943-6.3177 31.735-1.7691 132.043 10.8053 56.042-4.3844 134.762-11.3656 302.656 6.9533 308.4169 33.6517 314.7033-31.9362 648.632-6.785z" fill="url(#p)"/><path d="m373.636 60.5843c267.143 20.121 437.683-157.6989 489.56-249.1243l30.932 9.331 230.202 548.585c-396.438-119.59-1347.175-264.482-1701.982-308.96-46.906 3.6697-77.924 5.5202-132.043-10.8053-20.943-6.3177 31.735-1.7691 132.043 10.8053 56.042-4.3844 134.762-11.3656 302.656 6.9533 308.4169 33.6517 314.7033-31.9362 648.632-6.785z" fill="url(#r)"/><path d="m373.636 60.5843c267.143 20.121 437.683-157.6989 489.56-249.1243l30.932 9.331 230.202 548.585c-396.438-119.59-1347.175-264.482-1701.982-308.96-46.906 3.6697-77.924 5.5202-132.043-10.8053-20.943-6.3177 31.735-1.7691 132.043 10.8053 56.042-4.3844 134.762-11.3656 302.656 6.9533 308.4169 33.6517 314.7033-31.9362 648.632-6.785z" fill="url(#t)"/></g><g filter="url(#b)"><path d="m30.6485 81.6414c-401.5605 30.2456-657.9105-237.0474-735.8895-374.4744l-46.496 14.026 144.078 648.184c508.7316-153.465 1407.601-256.498 1909.859-295.5503 186.47.6409 228.3 30.1043 356.88-8.6813 47.77-14.4112-104.47-10.9442-356.88 8.6813-72.47-.2492-166.8 3.8556-296.55 18.0131-463.601 50.5842-473.051-48.0051-975.0015-10.1984z" fill="url(#u)"/><path d="m30.6485 81.6414c-401.5605 30.2456-657.9105-237.0474-735.8895-374.4744l-46.496 14.026 144.078 648.184c508.7316-153.465 1407.601-256.498 1909.859-295.5503 186.47.6409 228.3 30.1043 356.88-8.6813 47.77-14.4112-104.47-10.9442-356.88 8.6813-72.47-.2492-166.8 3.8556-296.55 18.0131-463.601 50.5842-473.051-48.0051-975.0015-10.1984z" fill="url(#v)"/><path d="m30.6485 81.6414c-401.5605 30.2456-657.9105-237.0474-735.8895-374.4744l-46.496 14.026 144.078 648.184c508.7316-153.465 1407.601-256.498 1909.859-295.5503 186.47.6409 228.3 30.1043 356.88-8.6813 47.77-14.4112-104.47-10.9442-356.88 8.6813-72.47-.2492-166.8 3.8556-296.55 18.0131-463.601 50.5842-473.051-48.0051-975.0015-10.1984z" fill="url(#w)"/><path d="m30.6485 81.6414c-401.5605 30.2456-657.9105-237.0474-735.8895-374.4744l-46.496 14.026 144.078 648.184c508.7316-153.465 1407.601-256.498 1909.859-295.5503 186.47.6409 228.3 30.1043 356.88-8.6813 47.77-14.4112-104.47-10.9442-356.88 8.6813-72.47-.2492-166.8 3.8556-296.55 18.0131-463.601 50.5842-473.051-48.0051-975.0015-10.1984z" fill="url(#x)"/><path d="m30.6485 81.6414c-401.5605 30.2456-657.9105-237.0474-735.8895-374.4744l-46.496 14.026 144.078 648.184c508.7316-153.465 1407.601-256.498 1909.859-295.5503 186.47.6409 228.3 30.1043 356.88-8.6813 47.77-14.4112-104.47-10.9442-356.88 8.6813-72.47-.2492-166.8 3.8556-296.55 18.0131-463.601 50.5842-473.051-48.0051-975.0015-10.1984z" fill="url(#y)"/><path d="m30.6485 81.6414c-401.5605 30.2456-657.9105-237.0474-735.8895-374.4744l-46.496 14.026 144.078 648.184c508.7316-153.465 1407.601-256.498 1909.859-295.5503 186.47.6409 228.3 30.1043 356.88-8.6813 47.77-14.4112-104.47-10.9442-356.88 8.6813-72.47-.2492-166.8 3.8556-296.55 18.0131-463.601 50.5842-473.051-48.0051-975.0015-10.1984z" fill="url(#z)"/></g><g filter="url(#c)"><path d="m351.785-.781862c267.143 20.120962 437.683-157.699138 489.56-249.124138l30.932 9.331-168.54 493.166c-371.188-111.973-1015.847-216.5981-1300.017-253.79436-48.732 3.82901-79.918 6.14406-135.267-10.55254-25.662-7.7412 30.129-3.2094 135.267 10.55254 55.846-4.38797 134.733-10.76414 299.432 7.20625 308.4174 33.65141 314.7038-31.93599 648.633-6.784752z" fill="url(#A)"/><path d="m351.785-.781862c267.143 20.120962 437.683-157.699138 489.56-249.124138l30.932 9.331-168.54 493.166c-371.188-111.973-1015.847-216.5981-1300.017-253.79436-48.732 3.82901-79.918 6.14406-135.267-10.55254-25.662-7.7412 30.129-3.2094 135.267 10.55254 55.846-4.38797 134.733-10.76414 299.432 7.20625 308.4174 33.65141 314.7038-31.93599 648.633-6.784752z" fill="url(#B)"/><path d="m351.785-.781862c267.143 20.120962 437.683-157.699138 489.56-249.124138l30.932 9.331-168.54 493.166c-371.188-111.973-1015.847-216.5981-1300.017-253.79436-48.732 3.82901-79.918 6.14406-135.267-10.55254-25.662-7.7412 30.129-3.2094 135.267 10.55254 55.846-4.38797 134.733-10.76414 299.432 7.20625 308.4174 33.65141 314.7038-31.93599 648.633-6.784752z" fill="url(#C)"/><path d="m351.785-.781862c267.143 20.120962 437.683-157.699138 489.56-249.124138l30.932 9.331-168.54 493.166c-371.188-111.973-1015.847-216.5981-1300.017-253.79436-48.732 3.82901-79.918 6.14406-135.267-10.55254-25.662-7.7412 30.129-3.2094 135.267 10.55254 55.846-4.38797 134.733-10.76414 299.432 7.20625 308.4174 33.65141 314.7038-31.93599 648.633-6.784752z" fill="url(#D)"/></g><g filter="url(#d)"><path d="m63.4909-10.6017c-401.5609 30.2453-657.9099-237.0473-735.8899-374.4743l-46.495 14.026 209.139 567.005c304.034-91.715 737.119-152.5752 1139.508-189.90483 103.238 9.88333 217.246 14.44053 408.737-6.453416 463.61-50.583754 474.88 27.165146 653.43-26.694354 86.02-25.9497-452.89-23.3752-1062.167 33.14777-146.697-14.04396-271.646-38.84217-566.2621-16.65187z" fill="url(#E)"/><path d="m63.4909-10.6017c-401.5609 30.2453-657.9099-237.0473-735.8899-374.4743l-46.495 14.026 209.139 567.005c304.034-91.715 737.119-152.5752 1139.508-189.90483 103.238 9.88333 217.246 14.44053 408.737-6.453416 463.61-50.583754 474.88 27.165146 653.43-26.694354 86.02-25.9497-452.89-23.3752-1062.167 33.14777-146.697-14.04396-271.646-38.84217-566.2621-16.65187z" fill="url(#F)"/><path d="m63.4909-10.6017c-401.5609 30.2453-657.9099-237.0473-735.8899-374.4743l-46.495 14.026 209.139 567.005c304.034-91.715 737.119-152.5752 1139.508-189.90483 103.238 9.88333 217.246 14.44053 408.737-6.453416 463.61-50.583754 474.88 27.165146 653.43-26.694354 86.02-25.9497-452.89-23.3752-1062.167 33.14777-146.697-14.04396-271.646-38.84217-566.2621-16.65187z" fill="url(#G)"/><path d="m63.4909-10.6017c-401.5609 30.2453-657.9099-237.0473-735.8899-374.4743l-46.495 14.026 209.139 567.005c304.034-91.715 737.119-152.5752 1139.508-189.90483 103.238 9.88333 217.246 14.44053 408.737-6.453416 463.61-50.583754 474.88 27.165146 653.43-26.694354 86.02-25.9497-452.89-23.3752-1062.167 33.14777-146.697-14.04396-271.646-38.84217-566.2621-16.65187z" fill="url(#H)"/><path d="m63.4909-10.6017c-401.5609 30.2453-657.9099-237.0473-735.8899-374.4743l-46.495 14.026 209.139 567.005c304.034-91.715 737.119-152.5752 1139.508-189.90483 103.238 9.88333 217.246 14.44053 408.737-6.453416 463.61-50.583754 474.88 27.165146 653.43-26.694354 86.02-25.9497-452.89-23.3752-1062.167 33.14777-146.697-14.04396-271.646-38.84217-566.2621-16.65187z" fill="url(#I)"/></g><g filter="url(#e)"><path d="m480.329 24.218c190.212 14.3266 311.639-112.2849 348.577-177.381l22.024 6.643-140.297 465.085-1001.658-302.1606c84.572 25.5122 89.915-11.31599 309.5145 12.6445 219.5995 23.9605 224.0755-22.73906 461.8395-4.8309z" fill="url(#J)"/><path d="m480.329 24.218c190.212 14.3266 311.639-112.2849 348.577-177.381l22.024 6.643-140.297 465.085-1001.658-302.1606c84.572 25.5122 89.915-11.31599 309.5145 12.6445 219.5995 23.9605 224.0755-22.73906 461.8395-4.8309z" fill="url(#K)"/></g><g filter="url(#f)"><path d="m-129.73 26.9766c-285.92 21.5353-468.446-168.7826-523.969-266.6336l-33.106 9.987 210.891 699.099 1505.654-454.1978c-127.123 38.3491-135.154-17.00979-465.248 19.0069-330.095 36.0167-336.823-34.1805422-694.222-7.2615z" fill="url(#L)"/><path d="m-129.73 26.9766c-285.92 21.5353-468.446-168.7826-523.969-266.6336l-33.106 9.987 210.891 699.099 1505.654-454.1978c-127.123 38.3491-135.154-17.00979-465.248 19.0069-330.095 36.0167-336.823-34.1805422-694.222-7.2615z" fill="url(#M)"/></g><g filter="url(#g)"><path d="m351.784-.780875c267.144 20.120975 437.683-157.699125 489.56-249.124125v357.615l-175.804 77.271-190.98-33.806-758.216-8.342s301.5114-168.7651 635.44-143.613875z" fill="url(#N)"/><path d="m351.784-.780875c267.144 20.120975 437.683-157.699125 489.56-249.124125v357.615l-175.804 77.271-190.98-33.806-758.216-8.342s301.5114-168.7651 635.44-143.613875z" fill="url(#P)"/><path d="m351.784-.780875c267.144 20.120975 437.683-157.699125 489.56-249.124125v357.615l-175.804 77.271-190.98-33.806-758.216-8.342s301.5114-168.7651 635.44-143.613875z" fill="url(#R)"/><path d="m351.784-.780875c267.144 20.120975 437.683-157.699125 489.56-249.124125v357.615l-175.804 77.271-190.98-33.806-758.216-8.342s301.5114-168.7651 635.44-143.613875z" fill="url(#T)"/></g><g filter="url(#h)"><path d="m63.4923-10.5999c-401.5603 30.2453-657.9103-237.0471-735.8893-374.4751v537.555l249.69 458.324 326.0659-293.998 1115.3011-111.531s-453.217-253.6815-955.1677-215.8749z" fill="url(#U)"/><path d="m63.4923-10.5999c-401.5603 30.2453-657.9103-237.0471-735.8893-374.4751v537.555l249.69 458.324 326.0659-293.998 1115.3011-111.531s-453.217-253.6815-955.1677-215.8749z" fill="url(#V)"/><path d="m63.4923-10.5999c-401.5603 30.2453-657.9103-237.0471-735.8893-374.4751v537.555l249.69 458.324 326.0659-293.998 1115.3011-111.531s-453.217-253.6815-955.1677-215.8749z" fill="url(#W)"/><path d="m63.4923-10.5999c-401.5603 30.2453-657.9103-237.0471-735.8893-374.4751v537.555l249.69 458.324 326.0659-293.998 1115.3011-111.531s-453.217-253.6815-955.1677-215.8749z" fill="url(#X)"/></g></g></svg>