<svg fill="none" height="59" viewBox="0 0 183 59" width="183" xmlns="http://www.w3.org/2000/svg"><path d="m22.5422 44.4194h-5.9846v-15.3396h-4.0768v-4.9943h4.0767v-3.5538c0-4.2112 1.8031-7.2315 7.7714-7.2315 1.2623 0 3.2441.2617 3.2441.2617v4.6374h-2.0815c-2.1209 0-2.949.6633-2.949 2.4972v3.389h4.9511l-.4409 4.9943h-4.5104zm13.7317-20.733c-.0872 0-.177.0033-.2657.0056-5.5493 0-8.0882 4.2919-8.0882 10.3843 0 7.6749 3.2933 10.7466 8.1315 10.7466 2.7681 0 4.5868-1.198 5.6922-3.4336v3.0322h5.6921v-20.3339h-5.6921v3.1271c-.9026-2.0119-2.7721-3.5045-5.4698-3.5283zm1.4473 4.8048c2.3307 0 3.7296 1.6716 3.7296 4.5148l.0054 2.904c0 1.9164-1.1554 4.1584-3.735 4.1584-3.9658 0-3.8598-4.403-3.8598-5.8694 0-4.9329 2.1129-5.7078 3.8598-5.7078zm12.0134 5.7644c0-2.4709-.115-10.556 10.1296-10.556 4.1124 0 5.8296 1.3445 5.8296 1.3445l-1.3802 4.4015s-1.7149-.971-3.9495-.971c-2.8622 0-4.6885 1.706-4.6885 4.7076l.0032 2.1524c0 2.8842 1.7621 4.8095 4.6911 4.8095 2.0358 0 3.9121-.9801 3.9121-.9801l1.3767 4.3095s-1.5701 1.353-5.7657 1.353c-9.7545 0-10.1582-7.2539-10.1582-10.5709zm49.3344-10.5636c5.549 0 8.128 4.2919 8.128 10.3843 0 7.6749-3.293 10.7466-8.1313 10.7466-2.7681 0-4.8144-1.1978-5.9198-3.4336v3.0322l-5.6205-.0023v-30.5007l5.9675-.5351v13.5558c.8613-2.3716 3.6917-3.2472 5.5761-3.2472zm-1.673 4.7992c-2.3307 0-3.9031 1.6716-3.9031 4.5148l-.0055 2.904c-.0035 1.9164 1.0888 4.1584 3.9086 4.1584 3.966 0 3.86-4.403 3.86-5.8694 0-4.9329-2.113-5.7078-3.86-5.7078zm-21.348-4.7824c-6.2941 0-9.617 3.5284-9.617 9.7989v1.165c0 8.1385 4.6664 10.2338 10.2296 10.2338 5.4074 0 7.8549-1.5551 7.8549-1.5551l-1.1166-4.1414s-2.8791 1.2596-6.0228 1.2596c-3.2591 0-4.6607-.8541-5.0199-4.0744h12.6364v-3.3224c0-6.8018-3.7292-9.3642-8.9448-9.3642zm.1517 4.1469c2.1787 0 3.5904 1.3737 3.5129 4.5595h-7.3455c.1274-3.3531 1.6499-4.5595 3.8326-4.5595zm42.8963-4.1748c-6.463 0-9.866 3.7451-9.866 10.4567 0 9.2085 5.866 10.6908 9.877 10.6908 5.873 0 9.78-3.2508 9.78-10.6072 0-7.6568-4.393-10.5403-9.791-10.5403zm-.081 4.827c2.842 0 3.968 2.1871 3.968 4.6766v2.1404c0 3.0159-1.575 4.7603-3.979 4.7603-2.247 0-3.827-1.6317-3.827-4.7603v-2.1404c0-3.3366 1.88-4.6766 3.838-4.6766zm21.76-4.827c-6.463 0-9.866 3.7451-9.866 10.4567 0 9.2085 5.865 10.6908 9.877 10.6908 5.872 0 9.78-3.2508 9.78-10.6072 0-7.6568-4.394-10.5403-9.791-10.5403zm-.081 4.827c2.842 0 3.968 2.1871 3.968 4.6766v2.1404c0 3.0159-1.576 4.7603-3.979 4.7603-2.248 0-3.827-1.6317-3.827-4.7603v-2.1404c0-3.3366 1.879-4.6766 3.838-4.6766zm12.127 15.9115v-30.5009l5.985-.5351v20.4436l5.937-9.7415h6.321l-6.194 10.0893 6.432 10.2446h-6.338l-6.158-9.9474v9.9474z" fill="#fff"/></svg>