<svg fill="none" height="59" viewBox="0 0 184 59" width="184" xmlns="http://www.w3.org/2000/svg"><g fill="#fff"><path d="m36.4121 22.4361v4.974h12.0037c-.3187 2.7516-1.2747 4.8682-2.7619 6.244-1.6996 1.6933-4.4616 3.5982-9.2418 3.5982-7.3298 0-13.0661-5.9265-13.0661-13.2288s5.6301-13.2288 13.0661-13.2288c3.9304 0 6.9048 1.5875 9.0293 3.5983l3.5056-3.4925c-2.9744-2.85738-7.0111-5.07982-12.5349-5.07982-10.0917 0-18.59 8.14892-18.59 18.20282s8.4983 18.2029 18.59 18.2029c5.4176 0 9.5605-1.7991 12.7473-5.0799 3.2931-3.2807 4.3554-7.9373 4.3554-11.6413 0-1.1642-.1062-2.2225-.2125-3.0691z"/><path d="m68.3867 18.3087c-6.4799 0-11.8976 4.974-11.8976 11.7472 0 6.7731 5.3114 11.7472 11.8976 11.7472 6.5861 0 11.8975-4.8682 11.8975-11.6414 0-6.879-5.3114-11.853-11.8975-11.853zm0 18.9437c-3.6118 0-6.6924-2.9633-6.6924-7.0907 0-4.2332 3.0806-7.0906 6.6924-7.0906 3.6117 0 6.6924 2.8574 6.6924 7.0906 0 4.1274-3.0807 7.0907-6.6924 7.0907z"/><path d="m126.493 20.9544h-.212c-1.169-1.3757-3.399-2.6457-6.267-2.6457-5.949 0-11.048 5.0799-11.048 11.7472 0 6.5615 5.099 11.7472 11.048 11.7472 2.868 0 5.098-1.27 6.267-2.6458h.212v1.6933c0 4.4449-2.443 6.879-6.267 6.879-3.187 0-5.099-2.2225-5.949-4.2332l-4.461 1.9049c1.274 3.0691 4.78 6.9848 10.516 6.9848 6.055 0 11.26-3.5982 11.26-12.2763v-21.1661h-4.886v2.0107zm-5.948 16.298c-3.612 0-6.268-3.0691-6.268-7.0907 0-4.1274 2.762-7.0906 6.268-7.0906 3.505 0 6.267 3.069 6.267 7.1964.106 4.0216-2.656 6.9849-6.267 6.9849z"/><path d="m94.8375 18.3087c-6.4799 0-11.8976 4.974-11.8976 11.7472 0 6.7731 5.3114 11.7472 11.8976 11.7472 6.5865 0 11.8975-4.8682 11.8975-11.6414 0-6.879-5.311-11.853-11.8975-11.853zm0 18.9437c-3.6118 0-6.6924-2.9633-6.6924-7.0907 0-4.2332 3.0806-7.0906 6.6924-7.0906 3.6117 0 6.6925 2.8574 6.6925 7.0906 0 4.1274-3.0808 7.0907-6.6925 7.0907z"/><path d="m135.523 6.34982h5.099v35.55908h-5.099z"/><path d="m156.344 37.2524c-2.656 0-4.462-1.1642-5.737-3.5983l15.828-6.4556-.531-1.3758c-.956-2.6458-4.037-7.514-10.092-7.514s-11.154 4.7624-11.154 11.7472c0 6.5615 4.993 11.7472 11.686 11.7472 5.417 0 8.498-3.2808 9.879-5.1857l-4.037-2.6458c-1.381 2.0108-3.187 3.2808-5.842 3.2808zm-.319-14.4988c2.124 0 3.93 1.0583 4.461 2.5399l-10.622 4.4449c-.107-4.8682 3.505-6.9848 6.161-6.9848z"/></g></svg>