<svg fill="none" height="59" viewBox="0 0 183 59" width="183" xmlns="http://www.w3.org/2000/svg"><path clip-rule="evenodd" d="m17.5777 6.12879c-3.3378 1.41523-7.015 5.37791-8.20304 10.30291-1.47089 6.2837 4.63894 8.9443 5.14814 8.0951.5657-1.0189-1.0749-1.3586-1.4709-4.6419-.396-4.1891 1.584-8.9443 4.0166-10.98225.4526-.39627.4526.16983.4526 1.13215l-.1131 21.0021c0 4.4722-.1697 5.8874-.5092 7.3027-.3394 1.4152-.8486 2.3775-.4526 2.7738.4526.3963 2.4327-.5661 3.5641-2.1511 1.3012-1.9814 1.9801-4.3024 1.9235-6.6233.1131-3.0003.1131-7.7555.1131-10.4162 0-2.4908.0566-9.7368-.0565-14.09573-.0566-1.1888-2.9984-2.32099-4.4127-1.69828zm119.0853 21.00211c-.056 1.8681-.452 3.7362-1.301 5.4345-1.245 2.4908-3.79 3.2833-4.922-.3397-.566-1.9247-.622-5.208-.17-7.9253.453-2.7738 1.641-4.8684 3.678-4.6986 2.036.2265 2.941 2.7739 2.715 7.5291zm-33.547 14.492c-.057 3.8494-.623 7.246-1.924 8.265-1.8669 1.4152-4.3561.3396-3.8469-2.4908.4526-2.4909 2.6023-5.0383 5.8269-8.2084zm-.51-14.5486c-.056 1.8681-.509 3.7362-1.301 5.4911-1.244 2.4908-3.8467 3.2833-4.9216-.3397-.7355-2.4342-.5658-5.6043-.1698-7.6422.4526-2.6041 1.6407-4.9817 3.6773-4.9817 1.9801.0566 2.9981 2.2078 2.7151 7.4725zm-19.4606 0c-.0566 1.9247-.4526 3.7928-1.2446 5.4911-1.3012 2.4908-3.7904 3.2267-4.9218-.3397-.7921-2.5474-.5092-6.1138-.1698-7.9819.5092-2.8305 1.7538-4.8118 3.6773-4.642 1.98.2265 2.9417 2.7739 2.6589 7.4725zm89.1016 2.604c-.452 0-.735.5095-.905 1.3586-.622 2.9437-1.301 3.623-2.15 3.623-.961 0-1.81-1.4718-2.036-4.3589-.17-2.321-.17-6.5101.113-10.6992.056-.8491-.226-1.6983-2.489-2.5474-.962-.3396-2.433-.9057-3.168.8491-1.415 3.34-2.433 6.7932-2.999 10.3596 0 .1132-.113.1132-.169-.1132-.114-1.2455-.396-3.5664-.396-8.3782 0-.9624-.227-1.7549-1.245-2.3776-.679-.4529-2.716-1.1888-3.508-.2831-.622.7359-1.357 2.7173-2.149 5.0383l-1.075 3.1701v-7.0762c0-.7359-.509-.9624-.679-1.019-.849-.283-1.697-.4528-2.602-.5094-.679 0-.849.3962-.849.9623 0 .0566-.113 6.7365-.113 11.4351v.6227c-.396 2.1512-1.641 5.0383-3.055 5.0383-1.358 0-2.037-1.2454-2.037-6.7932 0-3.2267.113-4.6419.17-7.0195.057-1.3587.113-2.3776.113-2.6041 0-.7359-1.244-1.0756-1.867-1.2454-.565-.1132-1.075-.1698-1.471-.1698-.565.0566-.961.3963-.961.9057v.7926c-.623-.9624-1.584-1.7549-2.659-2.1512-2.093-.6227-4.243-.0566-5.884 2.2078-1.414 2.0379-2.263 4.4155-2.432 6.8497-.227 2.1512-.17 4.3589.226 6.2271-.453 2.0945-1.414 2.9436-2.376 2.9436-1.415 0-2.489-2.3775-2.376-6.3968.113-2.6607.622-4.5288 1.188-7.246.226-1.1888.056-1.7549-.453-2.321-.452-.5095-1.471-.7925-2.885-.4529-1.018.2265-2.489.5095-3.79.6793 0 0 .056-.283.169-.8491.34-2.9437-2.885-2.7173-3.903-1.7549-.622.5661-1.018 1.2454-1.188 2.4342-.226 1.8681 1.301 2.7739 1.301 2.7739-1.018 3.7928-2.659 7.3026-4.922 10.4727v-1.019c0-4.8684.057-8.7178.057-10.0764.056-1.3587.113-2.3776.113-2.6041 0-.5095-.34-.7359-.962-.9623-.566-.2265-1.244-.3963-1.923-.4529-.849-.0566-1.415.3963-1.415.9623v.736c-.622-1.019-1.584-1.7549-2.6586-2.1512-2.0931-.6227-4.2429-.0566-5.8835 2.2078-1.3577 2.0379-2.2063 4.4155-2.4326 6.8497-.2263 2.2644-.1698 4.1891.1131 5.8874-.3394 1.6417-1.3012 3.34-2.376 3.34-1.3578 0-2.1498-1.1888-2.1498-6.7932 0-3.2267.1131-4.6419.1697-7.0195.0566-1.3587.1132-2.3776.1132-2.6041 0-.7359-1.2446-1.0756-1.8669-1.2454s-1.1315-.1698-1.5275-.1698c-.5091.0566-.9052.5095-.9052.8491v.7926c-.6223-1.019-1.584-1.7549-2.6589-2.1512-2.0932-.6227-4.2429-.0566-5.8835 2.2078-1.0749 1.4718-1.9801 3.1701-2.4326 6.7931-.1132.9624-.1698 1.9813-.1698 2.9437-.4526 2.604-2.3194 5.6609-3.9035 5.6609-.9051 0-1.8103-1.7549-1.8103-5.4911 0-4.9816.3394-12.1144.3394-12.7937l2.3761-.0566c.9617 0 1.8669 0 3.1681-.0566.6788-.0566 1.3011-2.3776.6222-2.6607-.2828-.1132-2.4891-.2264-3.3377-.283-.7355 0-2.7155-.1698-2.7155-.1698s.1697-4.75524.2263-5.20811c.0565-.45288-.5092-.62271-.8486-.79254-.7355-.28304-1.4709-.50948-2.2064-.6227-1.0748-.22644-1.584 0-1.6971.90575-.1698 1.41524-.2263 5.5477-.2263 5.5477-.792 0-3.5641-.1698-4.3561-.1698-.7355 0-1.584 3.2267-.5092 3.2833l4.639.1133-.0566 9.6236v.6793c-.7354 3.9626-3.3943 6.1138-3.3943 6.1138.5657-2.604-.6223-4.5854-2.7155-6.227-.792-.6227-2.3195-1.7549-4.0733-3.0569 0 0 1.0183-.9624 1.8669-2.9437.6223-1.4153.6789-3.0003-.9051-3.34-2.5458-.6227-4.639 1.2454-5.2613 3.2834-.5091 1.302-.2263 2.8304.7355 3.8494l.2263.283c-.5658 1.0756-1.3578 2.6041-2.0367 3.7363-1.8669 3.1701-3.2246 5.7175-4.2995 5.7175-.8486 0-.8486-2.5474-.8486-4.9816 0-2.0946.1698-5.2081.2829-8.4348.0566-1.0756-.5092-1.6983-1.4143-2.2078-.7355-.5095-1.5275-.8491-2.3761-1.019-1.0183 0-3.9035.1699-6.6755 8.0952-.3395 1.019-1.0183 2.8305-1.0183 2.8305l.0565-9.5104c0-.2265-.1131-.4529-.396-.5661-.8486-.4529-1.8103-.7359-2.772-.7925-.5092 0-.7921.2264-.7921.7359l-.1131 14.9449c0 1.1322.0566 2.4342.1697 3.0569.1132.5661.2829 1.0189.5092 1.302.2263.283.4525.5095.9051.5661.396.1132 2.6024.3396 2.7155-.4529.1697-1.019.1697-2.0945 1.3012-6.1138 1.7537-6.2271 4.0732-9.3406 5.2047-10.4161.1697-.2265.396-.2265.396.1132l-.3395 7.6989c-.2828 7.8121 1.1315 9.2273 3.1681 9.2273 1.5275 0 3.7338-1.5285 6.1098-5.4345l3.9036-6.5101 2.3194 2.0945c1.8669 1.7549 2.4892 3.3966 2.0367 4.9817-.2829 1.1888-1.4709 2.4908-3.5641 1.2454-.6223-.3397-.8486-.6227-1.4709-1.019-.3394-.2264-.8486-.283-1.1315-.0566-.792.5661-1.2446 1.3586-1.4709 2.2644-.2262.9057.6789 1.3586 1.5841 1.7549.792.3396 2.5458.6793 3.6206.7359 4.2996.1698 7.6939-2.0379 10.07-7.7555.4525 4.925 2.2629 7.6989 5.3744 7.6989 2.0931 0 4.2429-2.7173 5.1481-5.3779.2828 1.0756.6788 2.0379 1.188 2.8305 2.4326 3.8494 7.1281 3.0003 9.5042-.2831.7354-1.0189.8486-1.3586.8486-1.3586.1697 2.2644 1.98 4.0759 4.2429 4.1891 1.5841 0 3.2247-.7359 4.4127-3.34.1131.2831.2829.5661.4526.7926 2.4326 3.8494 7.1284 3.0003 9.5044-.2831l.283-.3962.056 2.0379-2.15 1.9813c-3.6768 3.34-6.4488 5.8874-6.6185 8.8311-.2829 3.7928 2.772 5.1515 5.0915 5.3779 2.376.1132 4.582-1.0756 5.884-3.0569 1.131-1.6417 1.866-5.2647 1.81-8.8311l-.113-5.1514c3.451-4.0193 6.166-8.6613 7.863-13.6995 0 0 1.358 0 2.772-.0566.453-.0566.623.0566.51.3962-.114.3963-1.811 7.0196-.227 11.4351 1.075 3.0003 3.508 3.9627 4.922 3.9627 1.641 0 3.281-1.2454 4.13-3.1701l.339.6227c2.433 3.8494 7.128 3.0003 9.505-.2831.509-.7359.848-1.3586.848-1.3586.509 3.1701 2.998 4.1891 4.413 4.1891 1.471 0 2.885-.6227 4.016-3.2834.057 1.1888.114 2.1512.227 2.4909.056.1698.509.4528.792.5094 1.357.5095 2.715.2831 3.224.1699.34-.0566.623-.3397.679-1.0756.113-1.9247.057-5.1515.623-7.5857.961-4.0758 1.866-5.6043 2.319-6.3968.226-.4529.509-.5095.509-.0566 0 .9057.057 3.6796.453 7.3026.283 2.7172.679 4.3023.961 4.8118.849 1.4718 1.867 1.5284 2.659 1.5284.51 0 1.641-.1698 1.528-1.0756-.057-.4528.056-3.2267 1.018-7.1894.622-2.604 1.641-4.925 2.037-5.8307.17-.2831.226-.0566.226 0-.113 1.7549-.283 7.6423.453 10.8124.961 4.3023 3.847 4.8118 4.865 4.8118 2.15 0 3.847-1.6417 4.469-5.8874.17-.9624-.056-1.7549-.679-1.7549z" fill="#fff" fill-rule="evenodd"/></svg>