<svg fill="none" height="106" viewBox="0 0 106 106" width="106" xmlns="http://www.w3.org/2000/svg"><path d="m45.5736 65.7436h-14.6831l-7.3481 12.7201 7.3481 12.72h14.6831m14.8135-25.4401-7.348 12.7201 7.348 12.72m-7.348-12.7853h-29.4967m14.67-25.3749-7.335-12.7201h-14.6961l-7.34805 12.7201 7.34805 12.7201m29.4445.0913h-14.6962l-7.348 12.7201m7.4002-12.7462-14.7483-25.5315m29.327.0131 7.3481-12.7201-7.3481-12.7201h-14.6961l-7.3481 12.7201m14.6439 25.5315-7.348-12.7201h-14.6961m14.7483.0391 14.7483-25.5315m14.657 25.388h14.6961l7.348-12.7201-7.348-12.72h-14.6961m-14.8006 25.4401 7.3481-12.7201-7.3481-12.72m7.335 12.7853h29.4967m-14.67 25.3749 7.348 12.7201h14.6962l7.335-12.7201-7.335-12.7201m-29.4445-.0913h14.6961l7.335-12.7201m-7.4002 12.7462 14.7483 25.5315m-29.327-.0131-7.348 12.7201 7.348 12.7201h14.6961l7.3481-12.7201m-14.6439-25.5315 7.348 12.7201h14.6962m-14.7484-.0391-14.7483 25.5314m-14.5917-25.3879-7.3481 12.7201 7.3481 12.72h14.6831l7.348-12.72-7.348-12.7201zm-7.3872-12.681h-14.6961l-7.3481 12.7201 7.3481 12.7201h14.6961l7.335-12.7201zm7.2828-12.7331-7.3481-12.7201h-14.6961l-7.348 12.7201 7.348 12.7201h14.6961zm14.6831-.0522 7.348-12.7201-7.348-12.72h-14.6962l-7.348 12.72 7.348 12.7201zm7.3872 12.681h14.6961l7.335-12.7201-7.335-12.7201h-14.6961l-7.3481 12.7201zm-7.2959 12.7331 7.3481 12.7201h14.6961l7.3481-12.7201-7.3481-12.7201h-14.6961z" stroke="#fce48f" stroke-linecap="round" stroke-linejoin="round"/></svg>