<svg fill="none" height="104" viewBox="0 0 104 104" width="104" xmlns="http://www.w3.org/2000/svg"><path d="m78.8817 22.3904c7.4521-.49 13.0184 1.1367 15.2994 5.0874 5.3245 9.2224-9.2694 27.6165-32.5965 41.0844-13.3339 7.6983-26.635 12.1207-36.5785 12.7746m53.8756-58.9464c0 1.279-1.0368 2.3157-2.3158 2.3157-1.2789 0-2.3157-1.0367-2.3157-2.3157 0-1.2789 1.0368-2.3157 2.3157-2.3157 1.279 0 2.3158 1.0368 2.3158 2.3157zm-4.5656.5505c-9.2555 1.4993-20.6554 5.6667-32.0133 12.2242-23.3271 13.4679-37.92109 31.862-32.59657 41.0843 1.77897 3.0813 5.55647 4.7489 10.66837 5.1012m4.6314-58.9602c9.9436.654 23.2447 5.0764 36.5785 12.7747 23.3271 13.4679 37.9211 31.862 32.5966 41.0843-2.281 3.9508-7.8473 5.5775-15.2995 5.0874m-53.8756-58.9464c0 1.279-1.0368 2.3158-2.3157 2.3158s-2.3157-1.0368-2.3157-2.3158c0-1.2789 1.0368-2.3157 2.3157-2.3157s2.3157 1.0368 2.3157 2.3157zm-4.6314-.0137c-5.112.3522-8.8894 2.0198-10.66842 5.1011-5.32452 9.2224 9.26942 27.6165 32.59652 41.0844 11.3773 6.5686 22.7441 10.7531 32.0082 12.2457m4.5707.5289c0 1.279-1.0368 2.3158-2.3157 2.3158s-2.3157-1.0368-2.3157-2.3158c0-1.2789 1.0368-2.3157 2.3157-2.3157s2.3157 1.0368 2.3157 2.3157zm-53.8755-.0306c0 1.2789-1.0368 2.3157-2.3157 2.3157-1.279 0-2.3158-1.0368-2.3158-2.3157s1.0368-2.3157 2.3158-2.3157c1.2789 0 2.3157 1.0368 2.3157 2.3157zm46.2195-29.4426c0 26.9359-8.6327 48.7714-19.2817 48.7714-10.6491 0-19.2818-21.8355-19.2818-48.7714 0-26.9358 8.6327-48.77156 19.2818-48.77156 10.649 0 19.2817 21.83576 19.2817 48.77156zm-7.089 0c0 6.734-5.4589 12.1929-12.1929 12.1929-6.7339 0-12.1929-5.4589-12.1929-12.1929.0001-6.7339 5.459-12.1929 12.1929-12.1929 6.734 0 12.1929 5.459 12.1929 12.1929z" stroke="#89cce2" stroke-linecap="round" stroke-linejoin="round"/></svg>