<svg fill="none" height="104" viewBox="0 0 104 104" width="104" xmlns="http://www.w3.org/2000/svg"><path d="m95.1678 8.84155-32.3779 32.31695h-21.6956l-32.34474-32.31695zm0 0-32.3282 32.26715v21.7104l32.2951 32.2838m.0331-86.26135-.0331 86.26135m-9.9038-76.3508h-66.5775m60.3503 6.2148h-54.1232m49.8669 4.2592h-45.6106m42.5136 3.0991h-39.4165m37.0482 2.3533h-34.6799m32.825 1.8562h-30.9701m29.4795 1.4915h-27.989m26.7469 1.2264h-25.5048m24.478 1.0275h-23.4512m3.0474.8784-25.9023-32.31695m28.0718 32.31695-19.4267-32.31695m21.5963 32.31695-12.9512-32.31695m15.1207 32.31695-6.4755-32.31695m8.6451 32.31695v-32.31695m2.1696 32.31695 6.4756-32.31695m-4.3061 32.31695 12.9512-32.31695m-10.7816 32.31695 19.4267-32.31695m-17.2571 32.31695 25.9023-32.31695m-77.83939 86.26135 32.27849-32.2672v-21.7104l-32.19568-32.28375h-.09937zm0 0h86.45139m-86.45139 0 32.37789-32.317h21.6956l32.3779 32.317m-76.5641-76.4337v66.6226m6.2106-60.3912v54.1764m4.2563-49.9172v45.6414m3.097-42.5257v39.4266m2.3517-37.0733v34.7034m1.8549-32.8473v30.9911m1.4906-29.4995v28.008m1.2255-26.765v25.5386m1.0268-24.5111v23.467m.8778-3.0494-32.29505 25.9199m32.29505-28.0909-32.29505 19.4399m32.29505-21.6109-32.29505 12.9599m32.29505-15.131-32.29505 6.48m32.29505-8.651h-32.29505m32.29505-2.171-32.29505-6.48m32.29505 4.3089-32.29505-12.9599m32.29505 10.7889-32.29505-19.4399m32.29505 17.2689-32.29505-25.9199m9.95345 67.8158h66.5775m-60.3503-6.2147h54.1232m-49.8669-4.2593h45.6106m-42.5136-3.0991h39.4166m-37.0483-2.3533h34.6799m-32.825-1.8396h30.9702m-29.4796-1.4915h27.989m-26.7469-1.243h25.5214m-24.4946-1.0275h23.4512m-3.0473-.8784 25.9022 32.317m-28.0718-32.317 19.4267 32.317m-21.5963-32.317 12.9512 32.317m-15.1207-32.317 6.4755 32.317m-8.6451-32.317v32.317m-2.1696-32.317-6.4755 32.317m4.306-32.317-12.9512 32.317m10.7816-32.317-19.4267 32.317m17.2571-32.317-25.9023 32.317m67.9025-9.8277v-66.6226m-6.2106 60.3912v-54.1598m-4.2563 49.9006v-45.6414m-3.0971 42.5423v-39.4432m-2.3517 37.0733v-34.7034m-1.8549 32.8473v-30.9911m-1.4905 29.4995v-28.008m-1.2256 26.7651v-25.5221m-1.0268 24.4945v-23.467m-.8778 3.0494 32.2951-25.9198m-32.2951 28.0908 32.2951-19.4399m-32.2951 21.611 32.2951-12.96m-32.2951 15.131 32.2951-6.48m-32.2951 8.651h32.2951m-32.2951 2.1711 32.2951 6.4799m-32.2951-4.3089 32.2951 12.9599m-32.2951-10.7889 32.2951 19.4399m-32.2951-17.2688 32.2951 25.9198" stroke="#dcff93" stroke-linecap="round" stroke-linejoin="round"/></svg>