<svg fill="none" height="104" viewBox="0 0 104 104" width="104" xmlns="http://www.w3.org/2000/svg"><path d="m58.934 64.419 4.1738-.3565m0 0 4.1738-.3565m-4.1738.3565.3514 4.2319m-.3514-4.2319-.3514-4.232m.3514 4.232-2.7029 3.2445m2.7029-3.2445 2.7029-3.2446m-2.7029 3.2446 3.1998 2.7403m-3.1998-2.7403-3.1998-2.7404m-22.6426-21.6508 4.1739-.3565m0 0 4.1738-.3565m-4.1738.3565.3513 4.232m-.3513-4.232-.3514-4.232m.3514 4.232-2.7029 3.2446m2.7029-3.2446 2.7029-3.2446m-2.7029 3.2446 3.1998 2.7404m-3.1998-2.7404-3.1998-2.7404m57.5324-16.2122c5.1881 7.3792-10.2041 27.526-34.3787 44.9991s-47.9775 25.6558-53.16522 18.2766c-5.18776-7.3791 10.20412-27.5259 34.37872-44.999s47.9775-25.6559 53.1652-18.2767zm-9.5668-10.40836c6.8947 5.76626-2.8303 29.26546-21.7213 52.48696s-39.7945 37.3718-46.6892 31.6055c-6.8947-5.7662 2.8303-29.2654 21.7213-52.4869s39.7945-37.37179 46.6892-31.60556z" stroke="#ffcf54" stroke-linecap="round" stroke-linejoin="round"/></svg>