<svg fill="none" height="64" viewBox="0 0 232 64" width="232" xmlns="http://www.w3.org/2000/svg"><path clip-rule="evenodd" d="m16.4271 52.2644c3.1608 2.2384 6.5069 4.2267 10.015 5.93-11.4517 5.2802-21.88516 5.7923-25.28421 5.8056l-.344523-.0003c-.52615-.0032-.8095462-.0179-.813367-.0179 6.0901-3.0117 11.6291-6.9837 16.4271-11.7174zm12.5205-17.3716c1.1254.785 2.2832 1.5257 3.4758 2.2173-4.2515 8.1659-8.9175 13.0936-8.9175 13.0936 4.4576-3.701 8.0283-7.9627 10.8256-12.0445 4.0083 2.0934 8.3316 3.6565 12.8818 4.5888-4.5155 5.0725-9.8183 9.4136-15.7162 12.8225-4.2283-1.785-8.2343-4-11.9671-6.5888 3.7235-4.2313 6.9006-8.965 9.4176-14.0889zm48.377-4.9589c3.1797 0 5.579 1.2586 7.386 2.8653l-2.6408 4.3105c-1.0777-.8022-2.3459-1.7657-4.4478-1.7657-2.534 0-4.0414 1.8464-4.0437 3.9601 0 2.1138 1.5097 3.9625 4.0437 3.9625 2.1019 0 3.3701-.9635 4.4478-1.768l2.6408 4.3105c-1.807 1.6067-4.2063 2.8652-7.386 2.8652-5.6323 0-9.8641-4.0408-9.8641-9.3702 0-5.327 4.2318-9.3702 9.8641-9.3702zm15.3867 0v6.6131h6.5564v-6.6131h6.0103v18.7404h-6.0103v-6.8906h-6.5564v6.8906h-6.0103v-18.7404zm21.8557 0v18.7404h-5.972v-18.7404zm9.353 0v13.5037h8.56v5.2367h-14.596v-18.7404zm16.522 0v18.7404h-5.971v-18.7404zm18.999 0c3.718 0 6.876 2.2613 6.876 7.1374 0 4.4111-3.158 7.0283-6.876 7.0283h-3.826v4.5747h-5.885v-18.7404zm14.837 0v18.7404h-5.971v-18.7404zm13.03 0c3.718 0 6.874 2.2613 6.874 7.1374 0 4.4111-3.156 7.0283-6.874 7.0283h-3.827v4.5747h-5.885v-18.7404zm24.125 0v5.2368h-9.558v1.6539h7.576v4.8215h-7.576v1.7915h9.558v5.2367h-15.26v-18.7404zm13.127 0c3.695 0 6.46 2.1522 6.46 6.3948 0 2.3536-1.278 4.2401-3.273 5.206l-.184.0853 4.437 5.6758v1.3785h-5.848l-4.597-6.4469h-.957v6.4469h-5.848v-18.7404zm-189.9275-12.7305c8.8573.035 17.0963 2.7103 23.9876 7.2898-2.1397 5.2103-4.9416 10.0702-8.2992 14.4791-4.8559-.7407-9.4594-2.2547-13.6831-4.4136 4.194-6.9922 6.0013-12.6938 6.0475-12.8407l.001-.0029-4.4021-1.0537c-.9054 4.6262-2.3596 8.8645-4.0106 12.6005-1.2204-.7196-2.406-1.493-3.5499-2.3177 1.7854-4.3599 3.1099-8.9581 3.9088-13.7408zm123.8725 17.9673h-2.888v3.6921h2.888c1.017 0 1.738-.7996 1.741-1.846 0-1.0204-.724-1.8461-1.741-1.8461zm27.867 0h-2.891v3.6921h2.891c1.017 0 1.738-.7996 1.738-1.846 0-1.0204-.721-1.8461-1.738-1.8461zm37.203 0h-2.977v2.8664h2.977c1.011 0 1.437-.7451 1.434-1.4332 0-.662-.423-1.4332-1.434-1.4332zm-170.5564-35.1707s3.5637 7.32716-.4933 15.0422c0 0 2.7885 1.8374 3.3392 3.0238l.0417.1-.4215 1.3061c-4.0233-2.0488-8.3805-3.5268-12.9676-4.3312l-.5996-.1011.345-1.3434s2.9501-.4954 5.1638 0c0 0 3.1707-2.4188 3.3142-10.41559l.0041-.32284z" fill="#fff" fill-rule="evenodd"/></svg>