<svg fill="none" height="64" viewBox="0 0 191 64" width="191" xmlns="http://www.w3.org/2000/svg" xmlns:xlink="http://www.w3.org/1999/xlink"><clipPath id="a"><path d="m0 0h190.4v64h-190.4z"/></clipPath><g clip-path="url(#a)" fill="#fff"><path d="m82.924 30.4609c0 2.0964-2.0536 2.5242-5.4335 3.166-5.4763 1.0696-9.0274 2.567-9.0274 7.3588 0 3.6793 2.7382 6.2464 7.1877 6.2464 3.3799 0 5.8613-1.3263 7.2304-3.2516h.0856c.4278 2.1392 1.5402 2.9949 3.936 2.9949.8557 0 1.583-.0856 2.6098-.4707v-2.1391c-1.7541.1711-2.0964-.6418-2.0964-2.182v-10.3964c0-5.8186-3.5938-7.6583-8.4283-7.6583-6.5887 0-9.284 3.2944-9.498 7.4872h4.364c.2139-2.8237 1.5402-3.9361 5.134-3.9361 2.9948 0 3.9361 1.1979 3.9361 2.7809zm-6.2892 13.2201c-2.4387 0-3.6366-1.1123-3.6366-3.1232 0-2.2247 1.6258-3.2943 5.3479-4.1072 2.0964-.4278 3.8506-.9412 4.5779-1.4546v3.2943c0 3.551-2.567 5.3907-6.2892 5.3907zm30.8642-27.681v11.3805h-.085c-1.155-1.6686-3.295-3.2516-6.674-3.2516-5.6051 0-9.7551 4.364-9.7551 11.5516s4.15 11.5516 9.7551 11.5516c3.379 0 5.519-1.6686 6.674-3.166h.085v2.5242h4.493v-30.5903zm-5.989 27.5527c-3.9364 0-6.0328-3.5938-6.0328-7.8722s2.0964-7.8722 6.0328-7.8722c3.679 0 5.947 2.9949 5.947 7.8722 0 4.8345-2.268 7.8722-5.947 7.8722zm24.62 3.6794c-6.846 0-10.996-4.749-10.996-11.5516s4.15-11.5516 10.996-11.5516c6.845 0 10.995 4.749 10.995 11.5516s-4.15 11.5516-10.995 11.5516zm0-3.6794c4.278 0 6.503-3.3799 6.503-7.8722 0-4.5351-2.225-7.8722-6.503-7.8722-4.279 0-6.503 3.3371-6.503 7.8722 0 4.4923 2.224 7.8722 6.503 7.8722zm25.865-19.4238c-3.765 0-6.032 1.7114-7.187 3.4227h-.086v-2.8237h-4.492v21.8624h4.492v-13.3057c0-3.2515 2.225-5.3479 5.69-5.3479 3.081 0 4.321 1.8825 4.321 4.8345v13.8191h4.536v-15.1026c0-5.0057-3.209-7.3588-7.274-7.3588zm13.906-3.0804c1.326 0 2.567-.8556 2.567-2.3959 0-1.5402-1.241-2.3531-2.567-2.3531-1.241 0-2.525.8129-2.525 2.3531 0 1.5403 1.284 2.3959 2.525 2.3959zm-2.225 3.6794v21.8624h4.492v-21.8624zm18.515 8.6423c-3.166-.7273-5.605-.8985-5.605-3.1232 0-1.5402 1.455-2.567 4.15-2.567 3.508 0 4.364 1.7541 4.663 3.4654h4.364c-.299-3.8077-3.123-7.0165-9.07-7.0165-5.476 0-8.642 2.8665-8.642 6.4604 0 4.9629 4.706 5.6474 8.172 6.4603 3.208.7701 5.818.984 5.818 3.7221 0 1.3691-1.326 2.9093-4.449 2.9093-4.621 0-5.648-2.0108-5.862-4.3639h-4.364c.214 4.6206 3.252 7.915 10.311 7.915 5.305 0 8.899-2.6098 8.899-6.8026 0-5.2196-4.364-6.1181-8.385-7.0593z"/><path d="m32.8 30.4788c0-6.8547-6.2368-12.4114-6.2368-12.4114s-6.2368 5.5567-6.2368 12.4114c0 6.8546 6.2368 12.4113 6.2368 12.4113s6.2368-5.5567 6.2368-12.4113z"/><path d="m13.9452 34.2289c6.0765 3.4273 7.8839 11.4822 7.8839 11.4822s-8.0442 2.4982-14.12061-.9291c-6.07646-3.4273-7.884027-11.4822-7.884027-11.4822s8.044327-2.4982 14.120737.9291z"/><path d="m39.1847 34.2289c-6.0765 3.4273-7.8839 11.4822-7.8839 11.4822s8.0442 2.4982 14.1207-.9291c6.0763-3.4273 7.8839-11.4822 7.8839-11.4822s-8.0443-2.4982-14.1207.9291z"/></g></svg>