<svg fill="none" height="124" viewBox="0 0 124 124" width="124" xmlns="http://www.w3.org/2000/svg"><path d="m97.8436 62c0-28.5347-8.0137-51.6666-17.8992-51.6666-3.2603 0-6.3169 2.516-8.9497 6.9121m26.8489 44.7545c0 28.5348-8.0137 51.667-17.8992 51.667m17.8992-51.667c0-28.5347-7.9121-51.6666-17.6722-51.6666h-36.0177m53.6899 51.6666c0 28.5348-7.9121 51.667-17.6721 51.667h-36.2723m36.0452 0c-3.2603 0-6.3169-2.516-8.9497-6.912m8.9497 6.912h-17.8993m0-51.667c0-19.1239 3.5995-35.8211 8.9496-44.7545m-8.9496 44.7545c0-19.1239-3.5995-35.8211-8.9496-44.7545m8.9496 44.7545c0 19.124 3.5996 35.8212 8.9496 44.755m-8.9496-44.755c0 19.124-3.5995 35.8212-8.9496 44.755m8.9496 6.912c3.2602 0 6.3169-2.516 8.9496-6.912m-8.9496 6.912c-3.2602 0-6.3169-2.516-8.9496-6.912m8.9496 6.912h-17.8993m0 0c-9.8854 0-17.8992-23.1322-17.8992-51.667m17.8992 51.667c3.2603 0 6.3169-2.516 8.9497-6.912m-26.8489-44.755c0-28.5347 8.0137-51.6666 17.8992-51.6666h.0079m-17.9071 51.6666c0 28.5348 7.9121 51.667 17.6721 51.667m-17.6721-51.667c0-28.5347 7.9121-51.6666 17.6721-51.6666m-.0195 0h.2545m0 0c3.2573.004 6.3111 2.5195 8.9418 6.9121m0 0c2.6327-4.3961 5.6894-6.9121 8.9496-6.9121s6.3169 2.516 8.9496 6.9121m-17.8992 0c-5.3501 8.9334-8.9496 25.6306-8.9496 44.7545 0 19.124 3.5995 35.8212 8.9496 44.755m17.8992-89.5095c5.3501 8.9334 8.9497 25.6306 8.9497 44.7545 0 19.124-3.5996 35.8212-8.9497 44.755" stroke="#fce48f" stroke-linecap="round" stroke-linejoin="round"/></svg>