<svg fill="none" height="105" viewBox="0 0 104 105" width="104" xmlns="http://www.w3.org/2000/svg"><path d="m20.5584 26.1314v6.5332m0-6.5332-13.33623 6.0918v6.0919m13.33623-12.1837 8.4786 4.2525m67.7407 40.421v-6.445l-20.8433-10.4541m20.8433 16.8991-12.2763 6.1802-8.567-4.2869m20.8433-1.8933-20.8433-10.43-12.5413-6.2757-42.8347-21.4346m0 0-13.33623 5.6505m0 0 21.81483 10.916m5.9555-15.8601v-4.4144m0 4.4144 12.2382 6.1381m-12.2382-6.1381-5.9555-2.9871m5.9555-1.4273 23.6314-12.0072v12.0072m-23.6314 0 12.2382 6.2684m11.3932 9.9985-11.3932-5.7144m11.3932 5.7144v-16.2669m0 16.2669 4.7692 2.392m-28.4006-4.4446v36.2862l12.2382-5.4672m-12.2382-30.819-5.9555 3.0018v3.0584m5.9555-6.0602 12.2382 6.0918v9.0724m16.1624-.3319-5.4758 2.6486v3.0308m5.4758-5.6794v15.6269m0-15.6269 12.5413 6.2684v8.4266m-12.5413.9319 12.5413 5.827m-12.5413-5.827-34.3561 15.4504m46.8974-9.6234-34.9743 15.8918-11.9231-6.2684m46.8974-9.6234v-6.7589m-46.8974 16.3823c0-.5266 0-25.118 0-39.8494m0 39.8494v-39.8494m18.1937 24.7588 10.6866-4.7741v-5.5332m-10.6866 10.3073v-15.6548m16.1624-51.09731 12.5413 7.06301v39.605m-12.5413-46.66801-34.3561 17.48101v5.6651m34.3561-23.14611v40.37771m-16.1624-12.3905v4.2841m0-4.2841 11.3932-6.2684m-11.3932 29.3785 10.6866 5.3475m5.4758-16.0671 12.5413 6.2903" stroke="#dcff93" stroke-linecap="round" stroke-linejoin="round"/></svg>