<svg fill="none" height="105" viewBox="0 0 104 105" width="104" xmlns="http://www.w3.org/2000/svg"><path d="m52.0089 8.68237 37.5277 21.66663v43.3334l-37.5277 21.6666m0-86.66663-37.5278 21.66663v43.3334l37.5278 21.6666m0-86.66663-.043 35.91993m.043 50.7467-.0944-43.3499m.0514-7.3968 37.5278 21.6666-37.5278 21.6667-37.5277-21.6667zm-.0514 7.3968-37.5278-21.6667m37.5278 21.6667 37.5278-21.6667m-37.4764 5.8774 37.5278 21.6667-37.5278 21.6666-37.5277-21.6666zm0-8.952 37.5278 21.6667-37.5278 21.6666-37.5277-21.6666zm0-9.3438 37.5278 21.6667-37.5278 21.6667-37.5277-21.6667z" stroke="#fce48f" stroke-linecap="round" stroke-linejoin="round"/></svg>