<svg fill="none" height="105" viewBox="0 0 104 105" width="104" xmlns="http://www.w3.org/2000/svg"><path d="m41.0968 62.8759c6.7709 2.991 14.6823 3.171 21.809.0231m-21.809-.0231c.8648-7.7115 4.9623-14.4432 10.9032-18.8036m-10.9032 18.8036c-.1126 1.0034-.1704 2.0234-.1704 3.057 0 14.9574 12.1048 27.0827 27.0368 27.0827s27.0368-12.1253 27.0368-27.0827-12.1048-27.0828-27.0368-27.0828c-5.9708 0-11.4896 1.9388-15.9632 5.2222m-10.9032 18.8036c-5.0704-2.2399-9.5014-6.0561-12.4844-11.2316-7.466-12.9535-3.0354-29.5171 9.8961-36.9958 12.9315-7.47865 29.467-3.0405 36.933 9.913s3.0353 29.517-9.8962 36.9957c-.8649.5003-1.746.9472-2.6395 1.3418m0 0c-.8592-7.7211-4.9589-14.4619-10.9058-18.8267m10.9058 18.8267c.1109.996.1678 2.0083.1678 3.0339 0 14.9574-12.1048 27.0827-27.0368 27.0827s-27.0368-12.1253-27.0368-27.0827 12.1048-27.0828 27.0368-27.0828c5.9709 0 11.4896 1.9388 15.9632 5.2222m-6.4505 6.71 8.5914-4.9643m-11.1038 9.6064 13.1207-7.5816m-14.4328 11.53 16.1899-9.3551m-16.7689 12.88 18.2782-10.5619m-14.8841 11.7909 16.1487-9.3313m-12.0857 10.1738 13.1008-7.5701m-7.859 7.7314 8.6118-4.9762" stroke="#a88cf9" stroke-linecap="round" stroke-linejoin="round"/></svg>