<svg fill="none" height="53" viewBox="0 0 243 53" width="243" xmlns="http://www.w3.org/2000/svg"><g clip-rule="evenodd" fill="#fff" fill-rule="evenodd"><path d="m65.1198 28.656c-1.9449 3.4317-4.2772 5.3614-9.321 5.9182-5.5579.6197-10.1511-2.9846-11.9655-5.6751 2.3138.8124 4.7789 1.1123 7.222.8785 4.53-.4118 7.1152-2.1885 8.9692-5.0986.2806-.4353 1.0395-1.8001-.2886-2.259-1.2175-.4197-2.3362-.4314-3.2058.8354-1.4113 2.0668-3.0636 2.8591-6.5223 3.2356-4.6092.4902-10.1433-2.5375-10.7836-1.906-1.1464 1.1294 2.5733 13.5465 16.2821 13.3936 4.9371-.055 8.4039-1.7257 11.6493-5.8831.7905-1.0079.5454-2.2315-.3203-3.3807-.5336-.71-1.2925-.7609-1.6997-.0432"/><path d="m68.7242 21.2082c1.8381-4.7535.0632-7.746-.6167-7.6048-.5534.1216-1.5812 3.2474-3.0438 5.0672-4.9174-2.2355-8.0047-.2039-7.9335.8746.0593.8982 4.1071.251 7.9058 3.5298 4.036 3.471 4.1546 7.2321 5.3089 7.2165.9249 0 2.8895-3.6592-1.6207-9.0833z"/><path d="m81.2094 21.6436h-4.957v-2.918h13.3648v2.918h-4.953v13.2485h-3.4548z"/><path d="m91.161 21.5769h3.3166v-2.8513h-3.3166zm.0475 13.3349h3.2256v-11.8406h-3.2256z"/><path d="m107.812 30.6093c-.063 1.2736-.597 2.4798-1.498 3.3885-.87.8368-2.172 1.2551-3.906 1.2551-.899.0153-1.792-.1446-2.6285-.4707-.6979-.2706-1.3192-.7053-1.8104-1.2668-.4845-.5731-.8415-1.2414-1.0476-1.961-.2374-.8316-.3533-1.6928-.3438-2.5571-.0125-.8735.121-1.7428.3952-2.5728.2455-.7362.6411-1.4144 1.1621-1.9924.5191-.5578 1.1563-.9945 1.866-1.2786 1.503-.546 3.143-.5942 4.676-.1373.561.1797 1.081.4676 1.53.8472.414.3593.745.8035.968 1.3021.238.5281.394 1.0886.463 1.6629l-3.249.4315c-.048-.5234-.23-1.0258-.53-1.459-.176-.2001-.398-.3553-.647-.4522-.249-.097-.518-.1329-.784-.1048-.428-.0159-.852.0902-1.221.3059-.324.2068-.589.4915-.771.8276-.196.368-.33.7655-.396 1.1766-.0765.4602-.1148.9259-.1142 1.3923-.001.4782.0374.9557.1142 1.4277.07.4176.203.8224.396 1.2.177.3363.44.6204.763.8236.369.2168.793.3231 1.221.306.273.0174.547-.0218.804-.115.258-.0931.493-.2383.69-.4263.385-.4353.606-.9898.625-1.5688z"/><path d="m109.78 18.7256h3.159v8.4677l4.629-4.1221h3.735l-4.38 4.075 4.724 7.7459h-3.479l-3.549-5.9811-1.68 1.4944v4.4867h-3.159z"/><path d="m133.073 31.2013c-.131 1.1762-.713 2.2573-1.625 3.02-.864.6876-2.127 1.0314-3.787 1.0314-2 0-3.502-.5438-4.506-1.6315s-1.508-2.6265-1.51-4.6162c-.015-.9066.133-1.8085.439-2.6631.271-.7307.69-1.3982 1.233-1.9609.528-.5503 1.172-.9787 1.885-1.2551.782-.2859 1.61-.4268 2.443-.4157 1.845 0 3.231.5229 4.159 1.5688.929 1.0432 1.395 2.4434 1.395 4.2121v1.2669h-8.329c-.019.8017.238 1.586.728 2.2238.264.2754.588.4888.946.6244.358.1357.743.1904 1.125.1599 1.277 0 2.028-.5295 2.261-1.5687zm-2.973-3.5298c.047-.69-.17-1.3721-.609-1.9101-.251-.2433-.553-.4297-.884-.5461s-.683-.1603-1.033-.1284c-.387-.0087-.771.0608-1.13.2039-.308.1271-.587.3153-.819.553-.223.2368-.399.5137-.517.8158-.125.3223-.194.6631-.206 1.0079z"/><path d="m136.048 25.538h-1.89v-2.467h1.89v-3.1376h3.225v3.1376h2.768v2.467h-2.768v5.4594c0 .6158.131 1.0353.396 1.255.285.2285.645.3457 1.012.3295.219-.0001.438-.012.656-.0353.222-.0217.442-.0638.656-.1255l.463 2.3532c-.425.1323-.86.2268-1.301.2823-.402.0524-.808.0785-1.213.0785-1.321 0-2.297-.3098-2.937-.9255-.641-.6159-.957-1.663-.957-3.1377z"/><path d="m147.798 29.6129c.079.9963.395 1.7217.98 2.1767s1.428.6786 2.546.6786c.459.0089.917-.0479 1.36-.1687.327-.0935.632-.2479.901-.455.219-.177.389-.4065.494-.6667.101-.2684.152-.5528.15-.8393-.01-.4383-.183-.8574-.486-1.1766-.319-.3687-.91-.6301-1.775-.7844l-2.143-.3922c-.761-.1272-1.508-.3241-2.233-.5883-.594-.2139-1.144-.5329-1.624-.9413-.443-.3954-.785-.8885-1-1.4394-.244-.6357-.361-1.3124-.344-1.9923-.014-.7065.148-1.4055.47-2.0355.315-.5869.766-1.091 1.316-1.4708.613-.4152 1.296-.7181 2.016-.8942.844-.2115 1.711-.3143 2.582-.3059 1.012-.0328 2.023.0997 2.992.3922.713.2215 1.373.5874 1.937 1.0746.479.4267.854.9566 1.095 1.5492.237.5889.396 1.2059.475 1.8355l-3.25.3922c-.097-.7266-.446-1.3968-.988-1.8943-.486-.3922-1.218-.5883-2.202-.5883-.484-.0095-.967.0392-1.439.1451-.324.0781-.631.2108-.91.3922-.212.1334-.381.3256-.485.553-.091.2067-.138.4296-.138.6549-.021.2522.017.5055.107.742.09.2366.231.4505.415.6268.519.3757 1.125.617 1.762.7021l2.261.4314c1.779.3451 3.085.9073 3.917 1.6864.833.7792 1.247 1.8996 1.242 3.3611.01.6742-.124 1.3428-.395 1.9611-.272.6047-.677 1.141-1.186 1.5688-.583.4732-1.255.8264-1.977 1.0393-.911.2721-1.859.4043-2.811.3922-2.244 0-3.958-.4707-5.138-1.4119-1.181-.9413-1.823-2.365-1.925-4.2711z"/><path d="m159.647 23.071h3.131v1.5689c.415-.6107.979-1.1072 1.639-1.4432.661-.3361 1.398-.5007 2.139-.4786 1.677 0 2.929.5582 3.76 1.6747.83 1.1164 1.244 2.6486 1.241 4.5965.01.8653-.11 1.7271-.356 2.5572-.211.7209-.564 1.3938-1.035 1.9806-.447.5368-1.011.966-1.649 1.255-.688.3205-1.441.4815-2.202.4706-.61-.0021-1.214-.1096-1.786-.3177-.662-.2639-1.239-.7019-1.668-1.2667v5.6163h-3.226zm3.202 6.0007c-.017.6202.048 1.24.194 1.8434.108.423.328.81.636 1.1216.263.2502.583.4332.932.5334.313.083.635.1251.957.1255.348-.0002.692-.0695 1.013-.2039.33-.1424.62-.3649.841-.6472.261-.3405.453-.728.566-1.1413.147-.5536.217-1.1254.205-1.6982.013-.5876-.052-1.1746-.194-1.7452-.105-.4125-.289-.8013-.541-1.1453-.212-.2782-.495-.496-.818-.6314-.319-.1295-.66-.1948-1.004-.1922-.352-.0079-.703.0451-1.036.1569-.311.1177-.599.286-.854.4981-.315.2996-.549.6732-.68 1.0864-.16.5449-.233 1.1112-.217 1.6786z"/><path d="m173.657 21.5769h3.332v-2.8513h-3.317zm.043 13.3349h3.229v-11.8406h-3.229z"/><path d="m190.292 30.6092c-.058 1.2725-.587 2.4791-1.486 3.3885-.87.8368-2.173 1.2551-3.91 1.2551-.898.0153-1.79-.1447-2.625-.4706-.698-.2706-1.319-.7054-1.81-1.2668-.484-.5732-.842-1.2414-1.048-1.961-.238-.8317-.354-1.6928-.344-2.5571-.013-.8735.121-1.7428.395-2.5729.246-.7361.641-1.4143 1.163-1.9924.527-.5583 1.174-.9925 1.893-1.2707 1.494-.5425 3.124-.5934 4.648-.1451.562.1787 1.083.4667 1.53.8471.415.3593.745.8036.969 1.3021.236.5288.391 1.0891.463 1.663l-3.262.4314c-.048-.5233-.23-1.0257-.529-1.459-.177-.2001-.399-.3552-.647-.4522-.25-.0969-.519-.1329-.784-.1047-.429-.016-.852.0902-1.222.3059-.33.2042-.603.4891-.791.8276-.197.3672-.331.7651-.395 1.1765-.076.4602-.115.9259-.115 1.3923-.001.4782.038.9557.115 1.4277.067.4181.201.8231.395 1.2001.177.3363.441.6204.763.8236.368.2162.791.3225 1.218.3059.274.018.549-.0209.806-.1141.258-.0932.494-.2386.692-.4271.385-.4353.606-.9898.625-1.5688z"/><path d="m202.827 31.2015c-.134 1.1752-.715 2.2551-1.625 3.02-.868.6876-2.133 1.0315-3.79 1.0315-1.995 0-3.498-.5438-4.507-1.6316-1.009-1.0877-1.512-2.6264-1.51-4.6162-.015-.9065.134-1.8083.44-2.663.271-.7307.69-1.3982 1.233-1.961.535-.545 1.184-.9668 1.901-1.2354.782-.2853 1.61-.4262 2.443-.4158 1.845 0 3.231.523 4.158 1.5688.929 1.0433 1.396 2.4434 1.396 4.2123v1.2667h-8.344c-.019.8059.243 1.5933.738 2.2317.265.2755.59.4888.949.6245s.744.1904 1.126.1599c1.273 0 2.029-.5295 2.258-1.5688zm-2.972-3.5298c.046-.6905-.173-1.3726-.613-1.91-.249-.2419-.548-.4278-.876-.5449-.329-.117-.678-.1626-1.025-.1336-.386-.0087-.769.0608-1.127.2039-.309.1252-.587.3137-.818.553-.224.2368-.399.5138-.518.8158-.128.3217-.199.6626-.209 1.008z"/></g></svg>