<svg fill="none" height="53" viewBox="0 0 243 53" width="243" xmlns="http://www.w3.org/2000/svg"><path d="m81.6866 21.6754h5.3924v-5.289c.0003-1.085-.4276-2.1263-1.1909-2.898-.3779-.3823-.8277-.6862-1.3235-.8942-.4959-.208-1.028-.316-1.5657-.3178h-10.6636c-.5389.004-1.0714.1164-1.5659.3305-.4959.2019-.946.5018-1.3233.8815-.3745.3858-.6737.8379-.8822 1.3333-.2107.4987-.3195 1.0344-.3198 1.5757v10.6883c.0022.5364.107 1.0675.3088 1.5647.2085.498.5118.9509.8932 1.3332.3773.3798.8274.6796 1.3233.8816.496.2068 1.0285.3117 1.5659.3085h5.2601v-5.3993c-.0014-.5363.103-1.0676.3074-1.5635s.5047-.9467.8838-1.3264c.379-.3798.8293-.6811 1.325-.8867.4958-.2055 1.0272-.3113 1.564-.3113" fill="#fff"/><path d="m92.3394 21.6763h-5.2601v5.4102c-.0029 1.0814-.4333 2.1179-1.1976 2.8836-.7642.7657-1.8003 1.1986-2.8825 1.2044h-5.4035v5.3442c-.0014.5363.103 1.0676.3074 1.5635s.5047.9467.8838 1.3264c.379.3798.8293.6811 1.325.8866.4958.2056 1.0272.3114 1.564.3114h10.6525c.5362.0011 1.0674-.1034 1.5631-.3076.4958-.2042.9464-.5041 1.3261-.8824.3814-.3824.6848-.8352.8932-1.3333.2018-.4971.3066-1.0282.3088-1.5646v-10.6883c-.0022-.5365-.107-1.0676-.3088-1.5647-.2084-.4981-.5118-.9509-.8932-1.3333-.3797-.3783-.8303-.6781-1.3261-.8823-.4957-.2042-1.0269-.3088-1.5631-.3077" fill="#fff"/><path d="m87.0761 27.0865v-5.4102h-5.3924c-.5368 0-1.0682.1058-1.564.3114-.4957.2055-.946.5068-1.325.8866-.379.3797-.6794.8305-.8838 1.3264s-.3088 1.0272-.3074 1.5636v5.4102h5.3925c1.0822-.0058 2.1183-.4387 2.8825-1.2044.7643-.7657 1.1947-1.8022 1.1976-2.8836z" fill="#0e031e"/><g fill="#fff"><path d="m96.4294 15.3518c.0029.6119-.1776 1.2106-.5183 1.719-.3394.4962-.8194.8799-1.3784 1.1019-.556.2282-1.1674.2861-1.7564.1664s-1.1292-.4116-1.5519-.8386c-.4181-.4282-.7031-.9683-.8205-1.5549-.1174-.5867-.0622-1.1948.1589-1.7507.1928-.4665.4979-.8781.8882-1.1984.3903-.3202.8538-.5391 1.3492-.6372.4954-.0982 1.0074-.0725 1.4905.0747.4831.1473.9223.4115 1.2786.7692.2898.2887.5191.6324.6744 1.0108.1552.3784.2334.784.2298 1.1929"/><path d="m123.59 25.6875v9.5423h-2.944v-3.9007c-1.103 3.515-4.102 4.1541-6.23 4.1541-1.198.0016-2.383-.2405-3.484-.7115s-2.095-1.161-2.92-2.028-1.465-1.8929-1.881-3.0151-.599-2.3172-.537-3.5122c0-5.5095 4.014-9.2008 9.549-9.2008 4.014 0 7.367 2.2038 8.238 5.9502l-3.088 1.3663c-.761-2.964-2.293-4.2422-5.337-4.2422-3.805 0-5.911 1.7299-5.911 6.1375 0 4.4075 1.687 6.3468 6.076 6.3468 2.79 0 4.886-1.3883 5.216-4.0329h-5.127v-2.8538z"/><path d="m134.408 22.6342v3.0743c-.546-.1858-1.124-.257-1.698-.2094-2.04 0-3.474 1.3884-3.474 4.5618v5.2119h-3.308v-12.6165h3.297v3.5591c.331-1.8953 1.257-3.7685 3.65-3.7685.518-.0281 1.037.0353 1.533.1873z"/><path d="m145.271 28.971c0-2.5123-1.048-3.6252-3.474-3.6252s-3.407 1.1019-3.407 3.6252 1.102 3.5591 3.407 3.5591 3.474-1.1019 3.474-3.5591zm3.143-6.3138v12.5725h-3.243v-2.7437c-.306.9123-.904 1.6991-1.7 2.2403-.797.5412-1.749.807-2.711.7568-3.572 0-5.69-2.6114-5.69-6.5121s2.04-6.6113 5.514-6.6113c1.003-.0488 1.994.2317 2.823.7988.828.5671 1.448 1.3894 1.764 2.3416v-2.8429z"/><path d="m155.934 25.5005v6.8206h3.308v2.8759h-2.669c-.518.0292-1.037-.052-1.522-.2382-.486-.1861-.926-.473-1.291-.8417-.366-.3687-.65-.8108-.832-1.297-.182-.4863-.259-1.0056-.225-1.5237v-5.7959h-2.404v-2.8429h2.404v-3.7684h3.242v3.7464h3.628v2.8649z"/><path d="m123.644 25.6875v9.5423h-2.944v-3.9007c-1.103 3.515-4.124 4.1541-6.241 4.1541-1.198.0016-2.383-.2405-3.484-.7115s-2.095-1.161-2.92-2.028-1.465-1.8929-1.881-3.0151-.599-2.3172-.537-3.5122c0-5.5095 4.025-9.2008 9.56-9.2008 4.014 0 7.356 2.2038 8.227 5.9502l-3.088 1.3663c-.772-2.964-2.305-4.2422-5.348-4.2422-3.805 0-5.889 1.7299-5.889 6.1375 0 4.4075 1.687 6.3468 6.087 6.3468 2.79 0 4.886-1.3883 5.205-4.0329h-5.127v-2.8538z"/><path d="m134.409 22.6348v3.0743c-.532-.1798-1.095-.251-1.654-.2094-2.041 0-3.474 1.3884-3.474 4.5618v5.212h-3.308v-12.6166h3.308v3.5591c.32-1.8953 1.246-3.7685 3.65-3.7685.5-.0217.999.0417 1.478.1873z"/><path d="m145.313 28.9699c0-2.5123-1.103-3.6252-3.473-3.6252-2.371 0-3.397 1.1019-3.397 3.6252s1.103 3.5591 3.397 3.5591c2.293 0 3.473-1.1019 3.473-3.5591zm3.143-6.3138v12.5725h-3.253v-2.7437c-.303.8992-.889 1.6765-1.67 2.2165-.78.5399-1.715.8137-2.664.7806-3.584 0-5.701-2.6114-5.701-6.5121s2.04-6.6113 5.514-6.6113c.993-.0396 1.971.2457 2.787.8124.816.5668 1.425 1.3842 1.734 2.328v-2.8429z"/><path d="m155.989 25.4995v6.8207h3.308v2.8759h-2.679c-.52.029-1.039-.0523-1.525-.2383-.485-.1861-.926-.4728-1.293-.8413-.366-.3685-.651-.8104-.834-1.2966-.184-.4863-.262-1.0058-.23-1.5245v-5.7959h-2.404v-2.8429h2.404v-3.7684h3.253v3.7464h3.617v2.8649z"/><path d="m170.966 28.9717c0-2.5123-1.103-3.6252-3.474-3.6252s-3.397 1.1018-3.397 3.6252c0 2.5233 1.103 3.559 3.397 3.559s3.474-1.1018 3.474-3.559zm3.142-6.3138v12.5725h-3.242v-2.7437c-.303.901-.891 1.6796-1.674 2.2198-.783.5401-1.72.8128-2.67.7773-3.584 0-5.702-2.6115-5.702-6.5121 0-3.9007 2.04-6.6113 5.514-6.6113.994-.0384 1.974.2471 2.791.8136.818.5664 1.429 1.383 1.741 2.3267v-2.8428z"/></g></svg>