<svg fill="none" height="53" viewBox="0 0 243 53" width="243" xmlns="http://www.w3.org/2000/svg"><path d="m76.6024 14.3867v18.7526h11.0949v-3.6563h-7.0642v-11.1383c0-2.1506-1.8203-3.958-4.0307-3.958zm17.0756 5.9807h-3.8574v12.7737h3.8565zm27.822 7.2685c0 1.2473-.563 2.409-2.167 2.409-1.474 0-1.993-1.1185-1.993-2.3658v-7.3126h-3.857v8.3879c0 2.7098 1.69 4.7307 4.506 4.7307 1.387 0 2.774-.5584 3.684-1.8489v1.5481h3.64v-12.7737h-3.857v7.2253zm11.095-7.2685h-3.857v12.7737h3.857zm42.643 4.8586-1.039-.2153c-1.127-.2575-1.604-.4728-1.604-1.1185 0-.6448.651-.9033 1.43-.9033.737 0 1.474.2162 1.474 1.2906h3.9c-.216-2.8819-2.426-4.2147-5.374-4.2147-2.946 0-5.373 1.4625-5.373 4.0859 0 2.6233 1.993 3.4834 4.29 3.9571l1.257.2576c.953.2161 1.473.4737 1.473 1.1617 0 .7313-.649 1.0753-1.603 1.0753-.997 0-1.777-.4305-1.777-1.5913h-4.031c.174 3.1826 2.601 4.4731 5.938 4.4731 3.12 0 5.504-1.4193 5.504-4.3011-.044-2.5378-1.95-3.3979-4.465-3.9571zm9.968 0c.477-1.2473 1.517-2.0651 3.034-2.0651 1.516 0 2.6.7745 2.99 2.0651zm9.794 1.376c0-3.6563-2.556-6.5381-6.717-6.5381-3.987 0-6.89 3.0115-6.89 6.7101 0 3.6996 2.73 6.7093 6.847 6.7093 3.423 0 5.764-1.7624 6.544-4.4722h-3.728c-.563.9456-1.43 1.4193-2.773 1.4193-1.734 0-2.903-1.0753-3.207-2.6666h9.924zm-36.403 3.6555c-.908-.0017-1.778-.3602-2.419-.9971-.642-.6369-1.003-1.5001-1.005-2.4008.002-.9006.363-1.7637 1.005-2.4005.642-.6369 1.511-.9955 2.419-.9974.907.0017 1.777.3602 2.419.9971.641.6369 1.003 1.5001 1.004 2.4008-.043 1.8921-1.56 3.3979-3.423 3.3979zm3.553-9.1616c-1.04-.6448-2.253-.9888-3.553-.9888-3.771 0-6.848 3.0529-6.848 6.7957 0 3.7419 3.077 6.7957 6.848 6.7957 1.3 0 2.513-.344 3.553-.9897v.4728h3.684v-12.7737h-3.684zm-18.981 9.1625c-.908-.0017-1.777-.3602-2.419-.9971s-1.003-1.5001-1.005-2.4008c.002-.9006.363-1.7637 1.005-2.4005.642-.6369 1.511-.9955 2.419-.9974.907.0017 1.777.3602 2.419.9971.642.6368 1.003 1.5001 1.005 2.4008-.002.9007-.363 1.7639-1.005 2.4008s-1.512.9954-2.419.9971zm.434-10.1495c-1.4-.0832-2.792.2619-3.988.9888v-4.818c.001-.4802-.094-.9558-.279-1.3995s-.457-.8469-.799-1.1864-.748-.6087-1.195-.7923c-.448-.1835-.927-.2777-1.411-.2772v20.5159h3.684v-.4728c1.04.6448 2.254.9888 3.554.9888 3.943 0 7.108-3.3114 6.804-7.2676-.216-3.3555-2.99-6.0644-6.37-6.2797zm-51.8759-5.7222c-.2967-.0022-.5907.0542-.8652.1659-.2744.1116-.5238.2763-.7335.4845-.2097.2081-.3757.4556-.4882.728s-.1693.5642-.1671.8586c-.0021.2943.0548.5861.1674.8583.1125.2723.2785.5197.4882.7277.2097.2081.459.3727.7334.4843s.5684.168.865.1658c.2964.0019.5902-.0546.8645-.1663.2742-.1117.5233-.2763.7329-.4844.2096-.208.3755-.4553.4881-.7274.1125-.2722.1695-.5638.1675-.858 0-1.205-.9963-2.237-2.253-2.237zm38.9169 0c-.297-.0021-.591.0544-.865.1661s-.523.2765-.733.4846c-.21.2082-.376.4556-.488.7279-.113.2723-.169.5641-.167.8584-.002.2942.055.5859.167.8581.113.2722.279.5196.488.7276.21.2081.459.3727.733.4844.275.1116.568.1681.865.166.296.0021.59-.0544.865-.166.274-.1117.523-.2763.733-.4843.21-.2081.376-.4554.488-.7276.113-.2722.17-.5639.168-.8582 0-1.205-.997-2.237-2.254-2.237zm-27.475 15.8717c-.907-.0019-1.777-.3605-2.418-.9974-.642-.6368-1.0033-1.4999-1.0052-2.4005.0017-.9007.3632-1.764 1.0042-2.4008.642-.6369 1.512-.9954 2.419-.9971.908.0017 1.778.3602 2.419.9971.642.6368 1.003 1.5001 1.005 2.4008-.002.9007-.363 1.7639-1.005 2.4008-.641.6369-1.511.9954-2.419.9971zm3.51-9.8919v.7745c-1.201-.7555-2.611-1.1169-4.03-1.033-3.424.2152-6.198 2.9251-6.4139 6.2797-.2596 3.9571 2.9037 7.2685 6.8039 7.2685 1.186-.0083 2.351-.3193 3.381-.9033v5.4197c.002 1.0143.409 1.9865 1.132 2.7037.723.7173 1.702 1.1213 2.724 1.1237v-21.6326zm-48.8427-10.3665c5.7638 0 9.7946 2.0641 9.7946 3.9139s-4.0308 3.9139-9.7937 3.9139c-5.7638 0-9.7955-2.0641-9.7955-3.9139.0009-1.8498 3.9872-3.9139 9.7946-3.9139zm.2178 21.0752c-3.1197.7312-6.37 1.5057-8.4507 2.8818-1.0399-.6448-1.6034-1.3761-1.6034-2.065 0-3.0962 5.2004-4.2579 10.2274-5.3764 3.6405-.8168 7.3246-1.6337 9.4044-3.3114v2.7098c0 2.8818-4.8538 4.0436-9.5777 5.1612zm-.1724-6.1933c-3.8148.8601-7.7148 1.7201-9.8817 3.5699v-.6025c0-5.3764 5.9372-6.7525 11.701-8.0853 4.1605-.9897 6.1976-1.4625 7.9308-2.8395v3.0115c0 2.7521-4.9826 3.8707-9.7501 4.9459zm9.7501 4.3867c-2.0372 1.7201-5.6777 2.5811-9.1875 3.3979-2.5571.6034-5.1577 1.2049-6.978 2.1073 1.6469.6034 3.8565.9906 6.3709.9906 5.7203 0 9.7946-2.0226 9.7946-3.9147z" fill="#fff"/></svg>