<svg fill="none" height="53" viewBox="0 0 242 53" width="242" xmlns="http://www.w3.org/2000/svg" xmlns:xlink="http://www.w3.org/1999/xlink"><clipPath id="a"><path d="m0 0h22.9767v22.8312h-22.9767z" transform="matrix(.96592583 .25881905 -.25881905 .96592583 52.9082 12)"/></clipPath><clipPath id="b"><path d="m0 0h25.1443v27.8804h-25.1443z" transform="matrix(.96592583 .25881905 -.25881905 .96592583 52.5156 9.28101)"/></clipPath><mask id="c" height="34" maskUnits="userSpaceOnUse" width="32" x="45" y="9"><g clip-path="url(#b)" fill="none"><path d="m50.2769 17.9491c2.6689 2.6606 6.5735 3.6159 10.1093 2.4633 5.1437-1.6763 6.5786-6.8555 6.6657-7.189" stroke="#0e0b1c" stroke-miterlimit="10" stroke-width=".654424"/><path d="m71.8961 33.8852c-2.6689-2.6606-6.5734-3.6159-10.1093-2.4633-5.1437 1.6763-6.5786 6.8555-6.6657 7.1889" stroke="#0e0b1c" stroke-miterlimit="10" stroke-width=".654424"/><path d="m49.0092 31.6979c3.6053-1.1022 6.3323-4.1102 7.0519-7.7924 1.0474-5.358-2.7479-9.0909-2.9927-9.3247" stroke="#0e0b1c" stroke-miterlimit="10" stroke-width=".654424"/><path d="m68.3688 36.9967c-2.5712-2.7571-3.4288-6.7256-2.2109-10.2743 1.7719-5.1639 6.9252-6.499 7.2541-6.579" stroke="#0e0b1c" stroke-miterlimit="10" stroke-width=".654424"/><path d="m74.3626 24.5192c-3.6655.8746-7.4937-.3489-9.9061-3.1794-3.5131-4.1164-2.0343-9.2838-1.9352-9.6118" stroke="#0e0b1c" stroke-miterlimit="10" stroke-width=".654424"/><path d="m47.8986 27.2142c3.6656-.8747 7.4937.3488 9.9062 3.1793 3.5131 4.1164 2.0342 9.2838 1.9351 9.6118" stroke="#0e0b1c" stroke-miterlimit="10" stroke-width=".654424"/><path d="m60.2358 28.6224c1.4454.3873 2.9352-.4855 3.3274-1.9494.3923-1.4639-.4615-2.9646-1.907-3.3519-1.4454-.3873-2.9351.4855-3.3274 1.9494-.3922 1.4639.4616 2.9646 1.907 3.3519z" stroke="#0e0b1c" stroke-miterlimit="10" stroke-width=".654424"/></g></mask><g clip-path="url(#a)"><path d="m50.6102 23.0888c2.3395-8.7311 4.6887-10.1074 13.3097-7.7974s9.9673 4.6765 7.6278 13.4076c-2.3395 8.7312-4.6886 10.1074-13.3096 7.7974-8.6211-2.31-9.9674-4.6764-7.6279-13.4076z" fill="#fff"/><g mask="url(#c)"><ellipse cx="61.0784" cy="25.8937" fill="#0e031e" rx="10.1878" ry="10.3179" transform="matrix(.96592583 .25881905 -.25881905 .96592583 8.782979 -14.925947)"/></g></g><g fill="#fff"><path d="m91.3166 35.3076c-1.0495 0-1.999-.05-2.8485-.175-.8496-.1249-1.5992-.2998-2.2488-.5497-1.2993-.4997-2.2988-1.2243-2.9485-2.2238-.6746-.9745-1.0994-2.1988-1.2493-3.6731h3.0484c.1749 1.4743.7746 2.5237 1.799 3.1734 1.0245.6496 2.5237.9495 4.4976.9495 1.7741 0 3.0734-.2499 3.898-.7996.8246-.5247 1.2493-1.2244 1.2493-2.1239 0-.3748-.0749-.6996-.1749-.9745-.1249-.2748-.2998-.4997-.5247-.6996-.4748-.3498-1.1744-.6247-2.1239-.7996-.9495-.1499-2.1488-.2998-3.5981-.4248-.7496-.0749-1.4242-.1749-2.0739-.2748-.6496-.1-1.2493-.2499-1.774-.4248-1.0995-.2998-1.949-.7996-2.5487-1.4742-.5997-.6497-.8745-1.5992-.8745-2.8235 0-.4998.0499-.9995.1999-1.4492.1499-.4498.3498-.8496.6496-1.2494.5497-.7996 1.3993-1.4242 2.5487-1.874 1.1244-.4498 2.5236-.6746 4.2227-.6746 2.6736 0 4.7225.4997 6.1718 1.4742 1.4492.9995 2.2988 2.4487 2.5486 4.3477h-2.9734c-.1749-1.1994-.7496-2.0489-1.7241-2.5986-.9995-.5498-2.3487-.8246-4.0728-.8246-1.6742 0-2.8735.2748-3.6231.7746-.7496.4997-1.0994 1.1744-1.0994 1.9989 0 .3249.0499.5997.1499.8496.0999.2498.2498.4747.4497.6246.3998.3499 1.0245.6247 1.8741.7996.8495.1749 1.9489.3249 3.2982.4498.8246.0749 1.5992.1749 2.2988.2998.6996.125 1.3493.2499 1.949.3998 1.1743.3248 2.0739.8246 2.6985 1.4992.6247.6997.9495 1.6492.9495 2.8985 0 1.6741-.6496 3.0234-1.9739 4.0479-1.3243 1.0244-3.3483 1.5242-6.0468 1.5242z"/><path d="m104.401 27.8115v7.0463h-2.848v-14.2675h2.424l.25 3.1983c.424-1.0994 1.124-1.9739 2.073-2.6736.95-.6746 2.124-1.0244 3.549-1.0244 1.549 0 2.773.3498 3.673 1.0494.899.6997 1.524 1.6242 1.874 2.7736.424-1.1494 1.124-2.0739 2.099-2.7736.974-.6996 2.198-1.0494 3.648-1.0494 2.074 0 3.623.6247 4.647 1.824 1.025 1.2244 1.549 2.8485 1.549 4.8725v8.0707h-2.848v-7.546c0-1.4493-.325-2.6236-.975-3.5232-.649-.8745-1.749-1.3243-3.323-1.3243-1.424 0-2.499.4748-3.198 1.3743-.725.9245-1.075 2.0989-1.075 3.5481v7.4711h-2.823v-7.7209c0-.4248-.05-.8246-.1-1.2244-.05-.3748-.15-.7496-.275-1.1244-.25-.6996-.675-1.2493-1.274-1.6741-.6-.4248-1.449-.6497-2.499-.6497-1.474 0-2.599.4998-3.373 1.4493-.8.9745-1.175 2.2738-1.175 3.8979z"/><path d="m135.627 33.1837c1.025 0 1.974-.1499 2.824-.4498.849-.2998 1.574-.7246 2.174-1.2493.599-.4998 1.074-1.0745 1.399-1.6991.325-.5997.5-1.2244.5-1.8491v-.7745c-.275.2998-.75.5497-1.4.7246-.649.1749-1.574.2998-2.723.3998-1.425.1249-2.499.2748-3.224.4247-.749.15-1.324.3748-1.749.6247-.35.2249-.599.4748-.749.7746-.175.2998-.25.6247-.25.9995 0 .6246.25 1.1244.749 1.4992.5.3998 1.3.5747 2.449.5747zm7.246 1.6741-.275-3.773c-.199.3998-.424.7746-.699 1.1244s-.575.6996-.925.9995c-.699.6496-1.574 1.1494-2.598 1.5242-1.05.3748-2.224.5497-3.573.5497-1.824 0-3.174-.3249-4.073-1.0245-.9-.6746-1.35-1.6241-1.35-2.8735 0-.7496.15-1.4242.5-1.9989.325-.5497.825-1.0245 1.474-1.3993.2-.1249.425-.2498.675-.3498.25-.0999.5-.2249.775-.3248.524-.1499 1.199-.2999 2.024-.4498.824-.1249 1.899-.2499 3.198-.3498 1.599-.1249 2.723-.2998 3.423-.5247.675-.1999 1.025-.6247 1.025-1.2494v-.025c0-.1998-.05-.4247-.1-.6246-.075-.1999-.175-.3998-.325-.5997-.275-.3748-.725-.6747-1.375-.8995-.649-.2249-1.524-.3498-2.623-.3498-1.824 0-3.148.2998-3.973.8745s-1.299 1.3993-1.399 2.4737h-2.924c.175-1.7741.95-3.1234 2.349-4.0729 1.374-.9495 3.298-1.4242 5.772-1.4242 2.524 0 4.373.4498 5.547 1.2993 1.174.8745 1.774 2.1739 1.774 3.8979v9.57z"/><path d="m151.04 34.8578h-2.849v-14.2675h2.424l.35 4.0979c.35-1.2994 1.024-2.3238 1.999-3.0734.949-.7496 2.274-1.1244 3.973-1.1244h1.299v2.7985h-1.474c-.725 0-1.374.075-1.949.1749-.575.1-1.075.2499-1.474.4498-.85.4497-1.425 1.0994-1.774 1.9739-.35.8996-.525 2.024-.525 3.4232z"/><path d="m171.069 32.3091v2.5487h-2.274c-.75 0-1.424-.05-1.999-.1499-.6-.1-1.1-.2249-1.524-.4248-.85-.3748-1.45-1.0245-1.799-1.949-.35-.8995-.525-2.1488-.525-3.748v-5.5471h-3.423v-2.3237h1.024c.45 0 .775-.025 1.025-.05.574-.025.949-.1249 1.149-.3248s.325-.5997.4-1.1994c.05-.3248.075-.7246.1-1.2244.025-.4997.05-.8995.05-1.2243h2.348v3.8979h7.492v2.4487h-7.492v5.1223c0 .5997.025 1.1244.075 1.5742s.125.7996.25 1.0994c.2.5997.575.9995 1.125 1.1994.549.1999 1.349.2748 2.398.2748z"/><path d="m175.961 34.8578h-2.848v-14.2675h2.424l.349 4.0979c.35-1.2994 1.025-2.3238 1.999-3.0734.95-.7496 2.274-1.1244 3.973-1.1244h1.3v2.7985h-1.475c-.724 0-1.374.075-1.949.1749-.574.1-1.074.2499-1.474.4498-.849.4497-1.424 1.0994-1.774 1.9739-.35.8996-.525 2.024-.525 3.4232z"/><path d="m187.971 34.8578h-2.849v-14.2675h2.424l.35 4.0979c.349-1.2994 1.024-2.3238 1.999-3.0734.949-.7496 2.273-1.1244 3.972-1.1244h1.3v2.7985h-1.474c-.725 0-1.375.075-1.949.1749-.575.1-1.075.2499-1.475.4498-.849.4497-1.424 1.0994-1.774 1.9739-.35.8996-.524 2.024-.524 3.4232z"/></g></svg>