<svg fill="none" height="53" viewBox="0 0 242 53" width="242" xmlns="http://www.w3.org/2000/svg" xmlns:xlink="http://www.w3.org/1999/xlink"><clipPath id="a"><path d="m59.75 9h122v34.5487h-122z"/></clipPath><mask id="b" height="29" maskUnits="userSpaceOnUse" width="123" x="59" y="12"><path d="m181.748 12.249h-122.0195v28.0505h122.0195z" fill="#fff"/></mask><g clip-path="url(#a)"><g fill="#fff" mask="url(#b)"><path d="m160.895 21.645c-3.698 0-6.745 2.7094-6.745 6.8875 0 4.178 2.991 6.9721 6.745 6.9721 2.455 0 4.769-1.1861 5.926-3.3866l-2.201-1.1002c-.733 1.2135-2.117 1.9191-3.612 1.9191-2.061 0-3.726-1.1002-4.092-3.2458h10.414c.028-.4232.055-.8189.055-1.1861 0-4.1493-2.794-6.8588-6.49-6.8588zm-3.951 5.8146c.395-2.2016 2.003-3.2458 3.98-3.2458 1.976 0 3.442 1.186 3.725 3.2458z"/><path d="m122.064 23.9599c-.847-1.496-2.653-2.3149-4.572-2.3149-3.726 0-6.519 2.992-6.519 6.9149s2.962 6.9435 6.406 6.9435c2.032 0 3.837-1.0442 4.685-2.5688v2.2302h2.766v-13.1812h-2.766zm-4.205 8.9473c-2.315 0-4.092-1.9764-4.092-4.3473 0-2.371 1.779-4.3187 4.036-4.3187 2.117 0 4.233 1.7785 4.233 4.3187s-1.976 4.3473-4.176 4.3473z"/><path d="m176.472 21.645c-1.412 0-3.529.7343-4.29 2.3709v-2.0323h-2.766v13.1812h2.766v-7.0841c0-2.7381 2.088-3.7263 3.81-3.7263 1.723 0 2.992 1.2982 2.992 3.4438v7.3666h2.765v-7.5359c0-3.7536-1.946-5.9839-5.277-5.9839z"/><path d="m134.706 21.645c-1.411 0-3.528.7343-4.289 2.3709v-2.0323h-2.767v13.1812h2.767v-7.0841c0-2.7381 2.088-3.7263 3.81-3.7263s2.991 1.2982 2.991 3.4438v7.3666h2.767v-7.5359c0-3.7536-1.948-5.9839-5.278-5.9839z"/><path d="m105.838 30.6205-8.0712-13.4352h-3.2453v17.9804h2.8222v-13.4638l8.1553 13.4638h3.161v-17.9804h-2.822z"/><path d="m149.409 27.6289-2.878-.5364c-1.1-.1978-1.609-.7056-1.609-1.496 0-1.0441.903-1.6092 2.426-1.6092 1.411 0 2.427.6771 2.484 1.6938h2.653c0-2.8512-2.653-4.0361-5.108-4.0361-3.048 0-5.221 1.6092-5.221 4.0361 0 1.9765 1.157 3.2745 3.668 3.7537l2.653.5078c1.27.254 1.694.7057 1.694 1.44 0 1.1574-.904 1.7785-2.709 1.7785-1.806 0-2.936-.8189-3.048-2.0324h-2.568c.113 2.8227 2.399 4.3747 5.587 4.3747s5.502-1.7213 5.502-4.3473c0-1.9191-1.1-3.0766-3.527-3.5283z"/><path d="m86.6473 27.0922c-1.3169-.8653-2.7566-1.6271-4.3179-2.2863-.64-.2634-1.0869-.6257-1.3408-1.087s-.3158-1.0394-.1836-1.7356c.4136-2.0324.5459-3.9801.3946-5.8433-.1514-1.8631-.8463-3.0205-2.0881-3.4711l-.4517-.1693c-1.317-.4887-2.6148-.2634-3.8949.6771-1.28.9417-2.423 2.2016-3.4288 3.7822-.8521 1.3387-1.6126 2.7178-2.2835 4.1375-.5364-.0953-1.0417-.1764-1.5125-.2431-2.2394-.2825-4.0069-.3052-5.3059-.0703-1.2979.2359-2.0416.7104-2.2299 1.4256l-.2253.8189c-.1883.6591.1502 1.3875 1.0154 2.1874.8653.7998 1.7782 1.4816 2.7376 2.0466.9595.5829 1.6269 1.2755 2.0035 2.0742.3766.7997.5172 1.8296.4231 3.0909-.1323 1.6938-.0096 3.2696.3671 4.7274.3766 1.4579 1.1668 2.3853 2.3705 2.7798l.677.2253c1.0726.3577 2.1965.0239 3.3728-1.0024 1.1751-1.0263 2.3288-2.545 3.4574-4.5583.4482-.7844.8963-1.6689 1.3456-2.6523.9988.1526 1.9677.2623 2.9021.3231 2.1727.1406 3.9318.056 5.2774-.2539 1.3443-.3099 2.1119-.7855 2.3002-1.4257l.2538-.9309c.2253-.8464-.3205-1.7034-1.6363-2.5688zm-12.3615-9.9485c1.1669-1.8536 2.3992-2.9586 3.697-3.3162.9404.2635 1.4862 1.1718 1.6364 2.7238s.0942 3.1183-.1693 4.7001c-.1322.7533-.4373 1.2659-.9177 1.5377-.4802.273-1.0964.3064-1.8485.0989-1.6113-.4625-3.2178-.8701-4.8197-1.2242.7116-1.577 1.5172-3.0837 2.4218-4.5189zm-.2538 11.2765c-1.373-.3576-2.3098-1.0108-2.808-1.9621-.4981-.95-.4851-2.0836.0429-3.4008.0084-.0191.0168-.0382.0239-.0584.025.0059.0489.0108.0738.0155 1.6841.3671 3.3729.8046 5.0653 1.3124.7151.2074 1.2038.5602 1.4671 1.0585.2634.4982.273 1.0967.0287 1.7927-.2289.676-.4732 1.3303-.7307 1.9693-1.0535-.2157-2.1083-.4565-3.1642-.7271zm-7.7326-3.768c-1.0154.4422-2.0976.2491-3.2453-.5781-.5828-.3958-1.0726-.8368-1.4671-1.3267 1.1668-.5269 3.0105-.6771 5.5312-.4518.4029.0394.8403.0954 1.3086.1669-.5518 1.0823-1.2597 1.813-2.1262 2.1897zm8.7206 8.9616c-.9785 1.6748-1.9761 2.9728-2.9915 3.8955-1.0154.9214-1.9188 1.3363-2.709 1.242-.5458-.7712-.8605-1.6938-.9451-2.7666s-.0334-2.2016.155-3.3865c.131-.8655.6208-1.4209 1.4671-1.6652.8461-.2444 1.9844-.1884 3.4145.1692.9034.2289 1.783.4255 2.6411.59-.3444.6938-.6877 1.3363-1.0321 1.9216zm6.0533-3.7966c-.8212-.1156-1.6424-.2479-2.4648-.397.2146-.5602.4208-1.1276.6162-1.7057.2634-.7343.6496-1.2183 1.1573-1.4531s1.1-.2014 1.7781.099c2.5959 1.1479 4.0821 2.2207 4.4587 3.2172-1.3551.4899-3.2037.5698-5.5455.2396z"/></g></g></svg>