<svg fill="none" height="30" viewBox="0 0 59 30" width="59" xmlns="http://www.w3.org/2000/svg"><g fill="#fff"><path d="m16.2671 3.52959c-.7978-.7333-1.7452-1.29061-2.8452-1.67487-1.0999-.38131-2.2967-.58077-3.58731-.59837l-8.5386.00586h-.885834v5.83418h6.145094l3.17961-.00294c.89174 0 1.61034.26106 2.15294.77731.5427.51918.8125 1.30235.8125 2.35534v9.6474c0 .877-.2669 1.6103-.8007 2.1999-.5339.5896-1.2554.8858-2.16474.8858h-3.17961v-10.8294h-6.145094v15.5314 1.1381h1.519404v-.0059h7.9285c1.29064-.0147 2.48154-.2141 3.57564-.5984 1.0911-.3842 2.0356-.9445 2.8334-1.6866.7979-.7421 1.4227-1.6514 1.8773-2.7249.4547-1.0765.6805-2.3231.6805-3.7428v-10.07856c0-1.40208-.2288-2.64283-.6805-3.71932-.4546-1.07649-1.0794-1.97992-1.8773-2.71323z"/><path d="m32.5206 1.26807h-5.2886-6.1187v5.99256h5.7139l-.0205 20.19817v1.3405h.6893s.0176.0058.0293.0058h4.6873s.0205-.0058.0293-.0058h.6805v-.8272c0-.0205.0059-.0323.0059-.0528l.0205-20.65867h5.6905v-5.99256z"/><path d="m47.2645 8.36663c.1437-.35785.3461-.6717.6071-.94156.264-.26985.5779-.48398.9416-.64531.3666-.15839.7802-.23759 1.2407-.23759.4606 0 .8507.088 1.2173.26106.3667.17599.6747.40478.9299.69224.2552.28745.4487.61011.5837.96503.1349.35785.2024.72744.2024 1.10875l.0469 2.05325h5.9662v-2.2703c0-1.08236-.179-2.13832-.5368-3.17375-.3579-1.03249-.8976-1.95645-1.6221-2.76896-.7245-.80956-1.6426-1.46367-2.7572-1.95645-1.1146-.492783-2.4346-.739173-3.9599-.739173-1.3668 0-2.6164.214124-3.7457.645303-1.1293.42825-2.0972 1.02663-2.898 1.78927-.8037.76263-1.4285 1.66607-1.8743 2.70736-.4459 1.04129-.6688 2.16765-.6688 3.37614v11.53636c0 1.3199.2435 2.5108.7274 3.5668.484 1.0589 1.144 1.9535 1.98 2.6839.8359.7303 1.8098 1.2935 2.9214 1.6836 1.1147.3902 2.2997.5838 3.5551.5838s2.4287-.1936 3.5199-.5838c1.0882-.3901 2.0415-.9503 2.8511-1.6836.8125-.7304 1.3375-1.3728 1.8068-2.4229s.6981-2.3993.6981-3.7369v-2.6457h-5.9661l-.044 2.2849c0 .3989-.0675.7803-.2024 1.1469-.135.3667-.2376.6013-.4928.8858-.2552.2875-.5661.5134-.9298.6806-.3667.1672-.7803.2493-1.2408.2493s-.8829-.0821-1.2642-.2493-.7069-.3931-.9797-.6806c-.2699-.2874-.4781-.613-.6218-.9796-.1438-.3667-.2142-.748-.2142-1.144v-10.91744c0-.39599.0704-.77437.2142-1.13222z"/></g></svg>