<svg fill="none" height="53" viewBox="0 0 243 53" width="243" xmlns="http://www.w3.org/2000/svg" xmlns:xlink="http://www.w3.org/1999/xlink"><clipPath id="a"><path d="m60.75 6h121v40h-121z"/></clipPath><g clip-path="url(#a)" fill="#fff"><path d="m118.243 39.3533h6.579v-.0042h3.622v-14.5432h-7.244v7.2989h-2.957c-1.936.0008-3.794-.7674-5.164-2.1357s-2.141-3.2248-2.142-5.1611c.001-1.9366.772-3.7933 2.142-5.1618 1.37-1.3686 3.227-2.1369 5.164-2.1361v-7.2496c-8.044 0-14.563 6.5109-14.563 14.5454 0 8.0344 6.519 14.5474 14.563 14.5474z"/><path clip-rule="evenodd" d="m102.13 39.3491c-3.859.0016-7.561-1.5297-10.2914-4.2572-2.7305-2.7275-4.2658-6.4278-4.2683-10.2872.0028-3.8591 1.5382-7.5592 4.2686-10.2865 2.7305-2.7272 6.4323-4.2584 10.2911-4.2567v7.2496c-4.0342 0-7.3027 3.2643-7.3027 7.2947 0 4.0303 3.2685 7.2947 7.3027 7.2947z" fill-rule="evenodd"/><path d="m70.9513 10.2615h-6.5791v.0042h-3.6222v14.5443h7.2444v-7.3h2.9569c1.9365-.0008 3.7941.7675 5.1642 2.1361 1.3702 1.3685 2.1406 3.2252 2.142 5.1618-.0016 1.9364-.7722 3.7928-2.1423 5.1611s-3.2276 2.1365-5.1639 2.1357v7.2496c8.0439 0 14.5632-6.5109 14.5632-14.5454 0-8.0344-6.5193-14.5474-14.5632-14.5474zm65.1967 0h2.843c2.347 0 3.855 1.7366 3.855 4.1164s-1.508 4.1048-3.855 4.1048h-2.843zm2.785 7.3356c1.726 0 2.785-1.2875 2.785-3.2308s-1.059-3.2203-2.785-3.2203h-1.726v6.4501zm4.937-7.3356h1.163v1.2875h-1.163zm.058 2.299h1.036v5.9212h-1.036zm2.256 6.1289h1.059c.184.6894.702 1.0231 1.611 1.0231.863 0 1.647-.425 1.647-1.6442v-.7702c-.461.7471-1.151 1.0692-1.934 1.0692-1.427 0-2.59-1.2644-2.59-3.001 0-1.725 1.163-2.9548 2.59-2.9548.783 0 1.541.3672 1.934 1.0346v-.8856h1.035v5.4836c0 1.851-1.323 2.5173-2.716 2.5173-1.485.001-2.475-.7009-2.635-1.873zm2.6-1.1846c1.07 0 1.772-.8972 1.772-2.1385 0-1.2529-.702-2.0923-1.772-2.0923-1.059 0-1.749.8394-1.749 2.0923 0 1.2424.69 2.1385 1.749 2.1385zm4.04-7.2433h1.162v1.2875h-1.162zm.058 2.299h1.035v5.9212h-1.035zm2.818 4.5413v-3.6903h-.943v-.851h.678c.161 0 .265-.1028.265-.2529v-1.7009h1.024v1.9548h1.301v.851h-1.301v3.5299c0 .5057.137.6893.61.6893h.84v.851h-1.138c-.91.0011-1.335-.3893-1.335-1.3788zm3.073-.2182c0-1.3798 1.186-1.6904 2.152-1.8163l1.278-.1721c.473-.0693.564-.3327.564-.6097 0-.575-.391-1.0461-1.278-1.0461s-1.393.4145-1.484 1.1374h-1.035c.127-1.1846 1.081-1.9664 2.497-1.9664 1.576 0 2.324.7818 2.324 2.1154v2.874c0 .127.103.2298.242.2298h.369v.851h-.702c-.564 0-.875-.299-.875-.724v-.15c-.518.7701-1.336 1.023-2.072 1.023-1.207.0021-1.978-.6988-1.978-1.745zm2.245.9202c1.058 0 1.749-.7817 1.749-1.9422v-.4145c-.195.1028-.403.1375-.598.1721l-1.047.1605c-.899.1375-1.278.4596-1.278 1.0577.001.6097.461.9664 1.174.9664zm4.303-7.5423h1.036v8.2202h-1.036zm-29.599 14.7678c0-2.5645 1.531-4.2654 3.718-4.2654 1.911 0 3.107 1.1847 3.349 2.9548h-1.117c-.208-1.0808-.898-2.0461-2.232-2.0461-1.634 0-2.612 1.4375-2.612 3.3462s1.013 3.3567 2.612 3.3567c1.392 0 2.152-1 2.314-2.0818h1.116c-.334 2.001-1.634 2.9894-3.429 2.9894-2.222.0011-3.718-1.6893-3.718-4.2528zm8.137 1.8971v-3.7134h1.035v3.6442c0 1.0346.588 1.5645 1.439 1.5645.84 0 1.599-.7356 1.599-1.7943v-3.4144h1.036v5.9211h-1.036v-.9202c-.391.7125-1.128 1.0692-1.969 1.0692-1.23 0-2.104-.8163-2.104-2.3567z"/><path d="m150.27 23.2131h1.035v.9202c.368-.7251.933-.9895 1.623-.9895h.334v.9769h-.414c-.944 0-1.542.5866-1.542 1.8048v3.2077h-1.035v-5.9201z"/><path d="m154.137 23.2131h1.035v.9202c.369-.7251.933-.9895 1.624-.9895h.333v.9769h-.414c-.943 0-1.542.5866-1.542 1.8048v3.2077h-1.035v-5.9201z"/><path d="m157.427 26.1794c0-1.7817 1.094-3.1164 2.831-3.1164 1.474 0 2.762.8279 2.625 3.3798h-4.385c.069 1.0808.575 2.0125 1.76 2.0125.864 0 1.3-.4365 1.508-1.0807h1.047c-.287 1.15-1.173 1.9086-2.555 1.9086-1.738 0-2.832-1.3221-2.832-3.1048zm4.443-.5173c-.069-1.2067-.621-1.7702-1.611-1.7702-1.081 0-1.61.7818-1.737 1.7702zm1.99-2.4491h1.035v.8972c.392-.6548 1.14-1.0472 2.002-1.0472 1.289 0 2.187.8048 2.187 2.3798v3.6914h-1.036v-3.6337c0-1.0346-.587-1.575-1.461-1.575-.921 0-1.692.7471-1.692 1.7943v3.4144h-1.035zm6.144 2.9664c0-1.7702 1.117-3.1164 2.854-3.1164 1.359 0 2.348.8279 2.544 2.1846h-1.047c-.172-.8279-.748-1.3336-1.508-1.3336-1.231 0-1.772 1.0692-1.772 2.2539 0 1.1846.541 2.2643 1.772 2.2643.771 0 1.288-.4249 1.508-1.2423h1.035c-.218 1.2528-1.138 2.0923-2.543 2.0923-1.725.001-2.843-1.3326-2.843-3.1028zm7.193 4.0587c.369 0 .541-.0693.679-.425l.299-.7932-2.393-5.8058h1.115l1.784 4.4962 1.657-4.4962h1.082l-2.659 6.9558c-.288.7586-.725.9202-1.426.9202h-1.163v-.851h1.025zm-41.474 5.4437c0-2.5644 1.565-4.2654 3.786-4.2654 1.921 0 3.095 1.1847 3.337 2.9433h-1.116c-.161-1.0577-.943-2.0346-2.221-2.0346-1.669 0-2.682 1.4376-2.682 3.3463 0 1.9086 1.035 3.3567 2.669 3.3567 1.163 0 2.29-.6674 2.428-2.5519h-2.646v-.8846h3.66v4.1961h-.978v-1.2874c-.518.874-1.37 1.4375-2.67 1.4375-2.002-.0011-3.567-1.6904-3.567-4.2549zm8.643-1.8173h1.035v.9202c.369-.724.933-.9895 1.624-.9895h.333v.9769h-.414c-.943 0-1.542.5866-1.542 1.8048v3.2077h-1.035v-5.9201zm3.291 2.9663c0-1.7701 1.059-3.1164 2.854-3.1164 1.796 0 2.855 1.3452 2.855 3.1164s-1.059 3.1039-2.855 3.1039c-1.795 0-2.854-1.3337-2.854-3.1039zm2.853 2.2529c1.289 0 1.784-1.1154 1.784-2.2644 0-1.1616-.495-2.2539-1.784-2.2539-1.301 0-1.783 1.0923-1.783 2.2539 0 1.15.482 2.2644 1.783 2.2644zm3.775-1.5047v-3.7135h1.035v3.6442c0 1.0346.588 1.5645 1.439 1.5645.84 0 1.599-.7355 1.599-1.7943v-3.4144h1.036v5.9212h-1.036v-.9202c-.391.7124-1.128 1.0692-1.968 1.0692-1.23 0-2.105-.8164-2.105-2.3567zm6.41-3.7145h1.036v.8971c.21-.3315.503-.6023.85-.7858s.736-.2732 1.129-.2603c1.438 0 2.589 1.2644 2.589 3.1269s-1.151 3.0923-2.589 3.0923c-.828 0-1.554-.3568-1.979-1.0347v2.8394h-1.036zm2.762 5.2087c1.128 0 1.772-.9318 1.772-2.2298s-.645-2.2644-1.772-2.2644c-1.117 0-1.773.9654-1.773 2.2539 0 1.2886.656 2.2403 1.773 2.2403z"/></g></svg>