<svg fill="none" height="53" viewBox="0 0 242 53" width="242" xmlns="http://www.w3.org/2000/svg"><g fill="#fff"><g clip-rule="evenodd" fill-rule="evenodd"><path d="m90.3705 23.7675c.9848.1168 1.8064.2142 1.814.7315.015 1.084-1.2456 2.1121-3.0152 2.778-4.8871 1.8383-6.6615 2.5312-6.803 5.8722-.013.3074-.017.6379-.0209.9673-.0134 1.1207-.0267 2.2281-.3947 2.3666-.4747.1781-1.9826-1.0305-2.2876-3.006-.4676-3.0242.9408-6.8921 5.7177-7.982-2.3792-1.3225-3.2476-3.5897-3.8043-5.3362-.68.6055-2.1132 1.8436-2.9782 2.5071-.2545.9157-.5958 1.8982-.948 2.912-.8084 2.3276-1.6743 4.8205-1.6799 7.0502-.0101 3.8249 3.482 6.9965 5.5829 8.1482.3774.2066.3178.7774-.0744.9532-.9708.435-2.4703.8397-4.5483.9647-7.453.4496-13.7265-3.311-15.213-11.2081-1.2535-6.7207 1.904-11.6929 7.1461-16.3739 2.0199-1.804 3.3658-3.6481 4.2208-5.0775.1534-.25685.5186-.27568.7516-.09026 1.8363 1.46456 4.2074 5.06496 4.6264 8.23506.6309-.5278 2.2442-1.8775 3.3-2.877.9026-.8547 1.596-.5008 1.8367.4635 1.1358 4.5506 2.537 7.195 5.4924 7.8116.4229.0883.8653.1408 1.2789.1898zm-20.3848-4.5333c-3.4635 3.0059-4.6112 6.1354-4.6269 9.9052-.0267 6.3518 5.3899 10.0749 9.1426 10.0749-2.7228-2.7394-2.83-7.6575-2.0193-10.8141.1826-.7108.5025-1.5174.8508-2.3955 1.1989-3.0223 2.7338-6.8918.162-10.6167-.6382 1.0319-2.1834 2.6955-3.5092 3.8462z"/><path d="m96.7911 18.7194h6.2699c1.389 0 2.532.1633 3.433.4897.9.3259 1.607.7533 2.119 1.2806.512.5272.867 1.1135 1.065 1.7577.199.6441.298 1.2767.298 1.8953 0 1.1555-.207 2.1266-.619 2.9131-.414.7867-1.108 1.4482-2.083 1.9837l3.594 7.6083h-3.99l-2.974-6.7294h-3.469v6.7294h-3.6439zm6.5189 8.0854c.578 0 1.057-.0628 1.437-.1889.38-.125.681-.3013.905-.5267.223-.2261.375-.4984.458-.8161.082-.3177.124-.6698.124-1.0546 0-.3183-.05-.6234-.149-.9165-.099-.2926-.268-.5524-.508-.7784s-.57-.4018-.991-.5273-.954-.1888-1.599-.1888h-2.552v4.9973z"/><path d="m123.708 32.5547c-.232 1.4733-.814 2.5907-1.748 3.3521-.933.7616-2.292 1.1426-4.076 1.1426-2.149 0-3.763-.6027-4.846-1.808-1.082-1.2052-1.623-2.9127-1.623-5.1223 0-1.1049.157-2.088.471-2.9504.314-.8619.756-1.5944 1.326-2.1971.57-.6026 1.251-1.0584 2.045-1.3685.793-.3095 1.668-.4645 2.627-.4645 1.982 0 3.473.5776 4.473 1.7326s1.5 2.7113 1.5 4.6704v1.4061h-8.972c.033 1.0547.297 1.8793.793 2.4733.495.5944 1.239.8914 2.23.8914 1.371 0 2.181-.5857 2.429-1.7577zm-3.197-3.9171c0-.9039-.22-1.607-.657-2.1092-.438-.5022-1.12-.7533-2.045-.7533-.463 0-.867.0754-1.214.226-.347.1507-.641.3554-.88.6147-.239.2603-.426.5616-.557.9045-.133.3428-.208.7156-.224 1.1173z"/><path d="m130.014 38.2798c-.124-.2009-.22-.4689-.285-.8036h-3.52c.083.7195.252 1.3512.508 1.8953.256.5442.624.9962 1.103 1.3564.479.3598 1.086.6278 1.821.8036.736.1753 1.624.2636 2.665.2636 1.123 0 2.078-.155 2.862-.4645.785-.3105 1.421-.7659 1.909-1.3685.487-.6027.842-1.3357 1.066-2.1971.223-.8624.334-1.8455.334-2.9504v-11.2742h-3.37v1.4815c-.546-.72-1.145-1.2135-1.797-1.4815-.653-.2676-1.326-.4018-2.021-.4018-.875 0-1.664.1632-2.366.4897-.702.3263-1.293.7783-1.772 1.3558s-.847 1.2676-1.103 2.0717c-.256.8034-.384 1.6823-.384 2.6365 0 2.0087.45 3.6076 1.351 4.7959.9 1.1888 2.259 1.7827 4.076 1.7827.843 0 1.599-.1631 2.268-.4896.67-.3264 1.219-.8074 1.648-1.4437v.4017c0 .5524-.021 1.0884-.062 1.607-.041.5187-.148.9793-.322 1.381-.173.4018-.442.7239-.805.9667-.364.2425-.868.3641-1.512.3641-.413 0-.764-.0212-1.053-.0627-.29-.042-.537-.1217-.744-.2386-.207-.1173-.372-.2762-.495-.477zm4.758-10.5461c.174.4857.26 1.1217.26 1.9083v.3515c0 .6365-.074 1.1764-.223 1.6196-.149.4438-.355.8035-.62 1.0793-.264.2767-.582.4775-.954.6026-.371.126-.772.1888-1.202.1888-.776 0-1.425-.2893-1.945-.8663-.52-.5775-.781-1.5607-.781-2.9503 0-.653.075-1.2135.223-1.6829.149-.4679.351-.8533.607-1.1546s.554-.5185.893-.6528c.339-.1338.697-.2009 1.078-.2009.347 0 .694.042 1.041.1255.347.084.66.255.941.5143.281.2598.509.6326.682 1.1179z"/></g><path d="m141.972 18.7194h11.624v3.2141h-7.931v4.2185h7.459v3.214h-7.459v7.2818h-3.693z"/><path clip-rule="evenodd" d="m156.594 35.241c1.14 1.2052 2.751 1.8079 4.833 1.8079.991 0 1.891-.1593 2.701-.4771.81-.3177 1.5-.7779 2.069-1.3805.57-.6027 1.008-1.3352 1.315-2.1976.305-.8615.458-1.8369.458-2.9253 0-1.0711-.149-2.0377-.447-2.9001-.297-.8621-.731-1.5902-1.3-2.1846-.571-.5939-1.261-1.0503-2.07-1.3685-.81-.3177-1.719-.4766-2.726-.4766-.991 0-1.892.1589-2.702.4766-.809.3182-1.499.7746-2.069 1.3685-.57.5944-1.008 1.3225-1.313 2.1846-.306.8624-.459 1.829-.459 2.9001 0 2.2435.57 3.9673 1.71 5.1726zm7.051-2.0836c-.488.7195-1.227 1.0792-2.218 1.0792-1.008 0-1.752-.3554-2.231-1.0672-.479-.7113-.718-1.7451-.718-3.101 0-1.3391.243-2.3604.731-3.0634.487-.7031 1.227-1.0546 2.218-1.0546s1.73.3515 2.218 1.0546c.487.703.731 1.7243.731 3.0634 0 1.3395-.244 2.369-.731 3.089z" fill-rule="evenodd"/><path d="m172.728 29.9178-4.239-6.3778h4.09l2.206 3.7408 2.478-3.7408h3.619l-4.189 6.1769 4.511 6.9304h-4.015l-2.627-4.2687-2.752 4.2687h-3.766z"/></g></svg>