<svg fill="none" height="53" viewBox="0 0 243 53" width="243" xmlns="http://www.w3.org/2000/svg" xmlns:xlink="http://www.w3.org/1999/xlink"><clipPath id="a"><path d="m62 6h119v40h-119z"/></clipPath><g clip-path="url(#a)" fill="#fff"><path d="m113.827 25.0381c0 1.3102-1.283 1.5776-3.396 1.9787-3.423.6685-5.642 1.6044-5.642 4.5992 0 2.2997 1.711 3.904 4.492 3.904 2.113 0 3.664-.8289 4.519-2.0322h.054c.267 1.337.962 1.8718 2.46 1.8718.535 0 .989-.0535 1.631-.2941v-1.337c-1.096.1069-1.31-.4011-1.31-1.3637v-6.4978c0-3.6366-2.246-4.7864-5.268-4.7864-4.118 0-5.802 2.0589-5.936 4.6794h2.727c.134-1.7648.963-2.46 3.209-2.46 1.872 0 2.46.7487 2.46 1.7381zm-3.931 8.2625c-1.524 0-2.273-.6952-2.273-1.952 0-1.3904 1.017-2.0589 3.343-2.567 1.31-.2674 2.407-.5882 2.861-.9091v2.0589c0 2.2194-1.604 3.3692-3.931 3.3692zm19.291-17.3006v7.1128h-.054c-.722-1.0428-2.059-2.0322-4.171-2.0322-3.503 0-6.097 2.7274-6.097 7.2197s2.594 7.2197 6.097 7.2197c2.112 0 3.449-1.0428 4.171-1.9787h.054v1.5776h2.807v-19.1189zm-3.744 17.2204c-2.46 0-3.77-2.2461-3.77-4.9201s1.31-4.9201 3.77-4.9201c2.3 0 3.717 1.8718 3.717 4.9201 0 3.0216-1.417 4.9201-3.717 4.9201zm15.388 2.2996c-4.279 0-6.872-2.9681-6.872-7.2197s2.593-7.2197 6.872-7.2197c4.278 0 6.872 2.9681 6.872 7.2197s-2.594 7.2197-6.872 7.2197zm0-2.2996c2.674 0 4.064-2.1124 4.064-4.9201 0-2.8344-1.39-4.9201-4.064-4.9201s-4.065 2.0857-4.065 4.9201c0 2.8077 1.391 4.9201 4.065 4.9201zm16.166-12.1398c-2.353 0-3.771 1.0696-4.493 2.1392h-.053v-1.7649h-2.808v13.664h2.808v-8.316c0-2.0322 1.39-3.3425 3.556-3.3425 1.926 0 2.701 1.1766 2.701 3.0216v8.6369h2.834v-9.4391c0-3.1285-2.005-4.5992-4.545-4.5992zm8.691-1.9253c.828 0 1.604-.5348 1.604-1.4974 0-.9627-.776-1.4707-1.604-1.4707-.776 0-1.578.508-1.578 1.4707 0 .9626.802 1.4974 1.578 1.4974zm-1.391 2.2996v13.664h2.808v-13.664zm11.572 5.4015c-1.979-.4546-3.503-.5616-3.503-1.952 0-.9627.909-1.6044 2.594-1.6044 2.192 0 2.727 1.0963 2.914 2.1659h2.728c-.187-2.3798-1.952-4.3853-5.669-4.3853-3.423 0-5.402 1.7916-5.402 4.0377 0 3.1018 2.942 3.5296 5.108 4.0377 2.005.4813 3.636.615 3.636 2.3263 0 .8557-.829 1.8183-2.781 1.8183-2.888 0-3.529-1.2567-3.663-2.7274h-2.727c.133 2.8879 2.032 4.9468 6.444 4.9468 3.316 0 5.562-1.6311 5.562-4.2516 0-3.2622-2.728-3.8238-5.241-4.412z"/><path d="m82.4991 25.0494c0-4.2842-3.898-7.7572-3.898-7.7572s-3.898 3.473-3.898 7.7572c0 4.2841 3.898 7.757 3.898 7.757s3.898-3.4729 3.898-7.757z"/><path d="m70.7161 27.3929c3.7978 2.1421 4.9274 7.1764 4.9274 7.1764s-5.0276 1.5614-8.8254-.5807c-3.7977-2.142-4.9275-7.1764-4.9275-7.1764s5.0277-1.5613 8.8255.5807z"/><path d="m86.49 27.3929c-3.7979 2.1421-4.9275 7.1764-4.9275 7.1764s5.0276 1.5614 8.8254-.5807c3.7978-2.142 4.9275-7.1764 4.9275-7.1764s-5.0277-1.5613-8.8254.5807z"/></g></svg>