<svg fill="none" height="53" viewBox="0 0 242 53" width="242" xmlns="http://www.w3.org/2000/svg"><path clip-rule="evenodd" d="m103.952 37.8091v-9.6926-.7677l-.022-1.3008.054-14.7147c-2.168.6717-4.7024 1.2049-7.4311 1.4181v.2666c1.0785.5118 1.7904 1.0343 2.114 1.5567.3133.5061.3131 1.6223.3128 3.2808v.1633 17.7643s0 .0533.0107.0746v.4799h-.0107s0 .0853.0107.1172v.0006c0 .9701 0 1.9509.0109 2.9211 0 .4264.3451.757.7657.757h4.174c.251 0 .504-.0035.758-.007.511-.0071 1.025-.0143 1.529.007l.032-.2239c-.026-.0065-.053-.014-.08-.0216v-.0001c-.06-.0172-.122-.0349-.19-.0423-1.477-.1919-1.952-.6291-2.06-2.0259zm-15.5839-18.6165c-.1618.0213-.3883.1493-.4314.2879-.0324.1173.0647.3945.2265.4478.3128.1067 1.2727.1919 1.2727.1919.2264.032.4423.0427.6148.0427.2923 0 .5508.0106.7928.0205h.0001c.6331.026 1.1533.0473 1.8711-.1378 2.4591-.6291 2.9662-3.8173 2.0925-5.6833-.7981-1.706-2.416-2.1432-4.077-2.2178-2.416-.1067-4.8536-.096-7.2696 0-.8628.0319-1.7904.3305-2.5562.7357-1.7365.9063-2.1895 2.5377-2.1571 4.3504.0216 1.5568.4314 1.898 2.0061 1.6741.1438-.0201.2879-.0407.4323-.0614.7003-.1005 1.4067-.2018 2.1131-.2372.507-.0213.9168.2133.906.8424-.0215.5971-.3667.853-.9167.8317-.3452-.0142-.6904-.0569-1.0356-.0995-.1725-.0214-.3451-.0427-.5176-.0605-.1989-.0199-.3977-.0451-.5966-.0703-.4375-.0555-.875-.1109-1.3125-.1109-.8197 0-1.1217.4691-.9383 1.2689.302 1.2582 1.208 1.9406 2.3297 2.3777 1.3373.515 2.5093.9345 3.7377 1.3743l.0001.0001h.0001c.6539.2341 1.3239.474 2.0432.737.2697.0959.9276.4371 1.2404.6077 0 0 .6471.4265 1.0247.6825.3882.2665.453.9063.4637 1.3647 0 .5576.002 1.1156.004 1.6739.0084 2.3454.0168 4.695-.1226 7.0376-.1619 2.6445-1.8228 2.847-3.7103 2.5379-.6903-.1067-1.0678-.5545-1.2835-1.1303-.1079-.2986-.1618-.6078-.1726-.9276l-.151-6.0353c-.0368-.2153-.0622-.4326-.0875-.6489-.0561-.4798-.1115-.954-.29-1.3876-.2588-.6292-.6471-1.2796-1.1756-1.6848-.5285-.4051-1.2619-.6611-1.9414-.7463-1.3483-.1601-2.6425.0852-3.7966.9063 1.3159.1812 1.5747 1.1089 1.7041 2.1112.0471.3334.0485.6782.05 1.0218.0005.129.001.2577.004.3857v4.0839c.0215 2.9429 1.9306 4.4677 4.5084 4.6277 2.4376.1386 4.8967.1386 7.345 0 2.2866-.128 4.2496-1.3116 4.4761-3.828.1847-2.0758.1329-4.1776.0814-6.2664-.0057-.2288-.0113-.4574-.0167-.6858-.0215-1.1516-.7442-1.9726-1.8228-2.3885-1.0785-.4158-2.1895-.7783-3.3004-1.1089l-1.8875-.5865c-.2833-.126-.5711-.2439-.8587-.3618-.5885-.2411-1.1757-.4817-1.7191-.7898-.852-.4798-1.2619-1.3008-1.3698-2.2711-.0647-.5225.0432-.7997.658-.8957 1.0678-.1706 1.4453-.6611 1.4021-1.6101-.0323-.8423-.3667-1.2475-1.2835-1.4181-.604-.1067-.906-.3519-.7981-.981.0511-.32.0882-.6443.1253-.968.0802-.7013.1603-1.4004.3816-2.0496.3775-1.1196 1.4669-1.4928 2.9877-1.2902 1.0678.1493 1.7688.7571 1.8767 1.898.1078 1.0876.0971 2.1965.0323 3.2841-.0431.6931-.3882 1.2476-1.208 1.3435zm74.4549 18.6261c.097 1.3968.55 1.834 1.941 2.0259l-.011.0213c.055.0068.106.0223.158.0382.029.009.059.0181.09.0258l-.032.224c-.474-.0213-.953-.0143-1.434-.0072-.241.0036-.482.0072-.723.0072h-3.948c-.399 0-.722-.3306-.722-.7571 0-.9704 0-1.9513-.022-2.9216v-2.8044-.0853c.017-3.6316.027-4.6366.031-5.0091v-.0004c.001-.1095.001-.1643.001-.2152 0-3.0602-1.046-4.585-3.16-4.585-1.628 0-3.106.9276-4.422 2.7936v1.5674 9.6925c.108 1.3968.583 1.834 2.06 2.0259.068.0075.13.0252.191.0426.026.0075.053.015.079.0215l-.032.2238c-.505-.0213-1.018-.0142-1.529-.007-.254.0035-.507.007-.758.007h-4.174c-.421 0-.766-.3305-.766-.757-.011-.9703-.011-1.9513-.011-2.9216-.01-.032-.01-.1173-.01-.1173h.01v-.4798c-.01-.0214-.01-.0747-.01-.0747v-17.7642c0-1.4928 0-2.5591-.195-3.1669-.032-.1066-.086-.2026-.129-.2772-.324-.5225-1.035-1.045-2.114-1.5568v-.2666c.048 0 .094-.0053.14-.0106.046-.0054.092-.0107.14-.0107 2.621-.2239 5.07-.7464 7.162-1.3968l-.054 13.9577c1.834-2.6764 4.099-4.0093 6.795-4.0093 1.456 0 2.74.4478 3.818 1.3542 1.09.9063 1.64 2.2925 1.64 4.1905v6.7708zm-20.455-14.0488c-.004-.0609-.006-.1231-.009-.1857-.005-.1235-.009-.2485-.024-.3687-.226-2.0686-1.294-3.4228-2.998-3.6893-3.009-.4692-6.029-.4585-9.039.032-1.412.2345-2.599 1.0236-2.858 2.4737-.259 1.4289-.323 2.9216-.226 4.3611.108 1.5461 1.229 2.3565 2.707 2.6337.626.1166 1.258.1934 1.925.2745.31.0376.627.0761.955.1201 4.594.4798 4.422 2.8683 4.422 2.8683.108 2.1219.065 4.2437 0 6.3657-.032 1.0129-.69 1.5354-1.726 1.6101-.093.0054-.188.008-.286.0107-.094.0027-.19.0053-.285.0106-2.125.0213-2.686-.4798-2.772-2.6018-.033-.8381-.03-1.6801-.028-2.5213.002-.5607.004-1.1211-.005-1.6798-.011-1.1196-.388-1.6421-1.305-1.9406-.518-.1707-1.078-.0853-1.531.2025l-2.697 1.7701c-.29.1936-.565.4113-.843.6304v.0001c-.135.1067-.27.2138-.408.3185l.065.1919c.103.0071.207.0187.312.0304.213.0239.427.0478.637.0335.518-.0212.712.192.733.6932.018.488.091.9691.163 1.4488v.0005c.018.1176.036.2351.053.3527.237 1.6527 1.111 2.751 2.761 3.0602 3.02.5544 6.072.4692 9.114.0746 1.65-.2132 2.75-1.2048 2.955-2.8576.195-1.5674.248-3.1562.216-4.7343-.032-1.4075-.777-2.4844-2.189-2.8576-.809-.2165-1.643-.3337-2.475-.4504v-.0001c-.356-.0499-.711-.0998-1.063-.1573-.572-.0959-1.154-.1919-1.888-.3092-1.564-.3092-2.017-1.1516-2.017-1.1516-.248-.3519-.485-.8104-.485-1.2155 0-1.8767.054-3.764.151-5.6407.032-.7357.529-1.2156 1.273-1.2902.722-.0746 1.456-.1279 2.168-.0213.96.1386 1.37.6504 1.445 1.6207.065.8851.108 1.77.097 2.6551-.011.917.194 1.6953.874 2.2392.41.3198.938.4478 1.456.3518l3.635-.6291v-.2025c-.913-.2365-.923-.8757-.933-1.516-.003-.1393-.005-.2787-.017-.4141zm-19.324 11.8146c0 .6718 0 1.3542.032 2.0366l.021.0214c.076 1.5567.529 2.0365 2.071 2.2284.068.0075.13.0252.191.0425.026.0076.053.0151.079.0216l-.032.2238c-.461-.02-.928-.0148-1.395-.0096-2.013.0226-4.022.0452-5.519-1.963l-.039.0647c-.184.3067-.316.5262-.457.7457-.583.8743-1.359 1.4608-2.449 1.4608-.207 0-.414.0007-.622.0014-1.175.0041-2.354.0082-3.509-.1187-2.329-.2559-3.548-1.5781-3.656-4.0092-.086-2.1539-.065-4.3184-.021-6.4723.032-1.5995 1.175-2.943 2.793-3.1989.84-.1345 1.704-.134 2.565-.1335.3.0002.599.0004.897-.0051l3.969.0533v-3.1562c0-.4904 0-.981-.032-1.4715-.14-2.1858-1.111-2.9322-3.322-2.5697-1.208.1919-1.704.7037-1.769 1.9193-.032.3413-.032.6718-.032 1.0023.011.0426.011.0747.011.1173.014.114.019.2279.024.3418.002.0567.004.1134.008.1701.009.1214.011.246.012.3705.008.5863.015 1.1689.851 1.3887v.192l-2.438.4265c-2.059.4666-2.327.427-2.754.3637l-.007-.0011c-.539-.0854-.809-.3092-.852-.8744-.039-.5126-.033-1.0365-.026-1.5552.002-.1935.004-.3862.004-.5774.011-2.2925 1.424-3.0495 3.096-3.3161 2.966-.4691 5.954-.5011 8.941-.064 1.726.2453 2.869 1.3542 3.107 3.0923.14 1.0662.248 2.1432.248 3.2201.023 2.3773.018 4.7601.014 7.1406-.002.9507-.003 1.901-.003 2.8505zm-8.78 4.521c.528.064 1.1.0747 1.629 0 1.445-.2132 2.523-1.7274 2.318-3.0709-.14-.8743-.237-1.7593-.258-2.6443-.031-1.2621-.024-2.5295-.017-3.7948.003-.5412.006-1.0821.006-1.622.075-1.6847-.453-1.77-.992-1.802-4.088-.2772-4.164.1386-4.164 1.3969-.013 1.9464-.006 3.8928.002 5.8393.005 1.1671.009 2.3342.009 3.5013 0 .1919.011.3838.032.5651.141.9703.594 1.5248 1.435 1.6314z" fill="#fff" fill-rule="evenodd"/></svg>