<svg fill="none" height="53" viewBox="0 0 243 53" width="243" xmlns="http://www.w3.org/2000/svg"><g fill="#fff"><path d="m108.267 14.5296c-.798-.7333-1.745-1.2906-2.845-1.6749-1.1-.3813-2.297-.5808-3.587-.5984l-8.539.0059h-.8858v5.8342h6.1451l3.1797-.0029c.892 0 1.61.261 2.153.7773.542.5191.812 1.3023.812 2.3553v9.6474c0 .877-.267 1.6103-.8 2.1999-.534.5896-1.256.8858-2.165.8858h-3.1797v-10.8294h-6.1451v15.5314 1.1381h1.5194v-.0059h7.9284c1.291-.0147 2.482-.2141 3.576-.5984 1.091-.3842 2.035-.9445 2.833-1.6866s1.423-1.6514 1.877-2.7249c.455-1.0765.681-2.3231.681-3.7428v-10.0786c0-1.402-.229-2.6428-.681-3.7193-.454-1.0765-1.079-1.9799-1.877-2.7132z"/><path d="m124.521 12.2681h-5.289-6.119v5.9925h5.714l-.02 20.1982v1.3405h.689s.018.0058.029.0058h4.688s.02-.0058.029-.0058h.68v-.8272c0-.0205.006-.0323.006-.0528l.021-20.6587h5.69v-5.9925z"/><path d="m139.264 19.3666c.144-.3578.347-.6717.608-.9415.264-.2699.577-.484.941-.6453.367-.1584.78-.2376 1.241-.2376.46 0 .851.088 1.217.261.367.176.675.4048.93.6923.255.2874.449.6101.584.965.135.3579.202.7274.202 1.1088l.047 2.0532h5.966v-2.2703c0-1.0824-.179-2.1383-.537-3.1737-.357-1.0325-.897-1.9565-1.622-2.769-.724-.8096-1.642-1.4637-2.757-1.9565-1.114-.4927-2.434-.7391-3.96-.7391-1.367 0-2.616.2141-3.745.6453-1.13.4282-2.098 1.0266-2.898 1.7892-.804.7627-1.429 1.6661-1.875 2.7074s-.668 2.1676-.668 3.3761v11.5364c0 1.3199.243 2.5108.727 3.5668.484 1.0589 1.144 1.9535 1.98 2.6839.836.7303 1.81 1.2935 2.921 1.6836 1.115.3902 2.3.5838 3.555.5838 1.256 0 2.429-.1936 3.52-.5838 1.088-.3901 2.042-.9503 2.851-1.6836.813-.7304 1.338-1.3728 1.807-2.4229.47-1.0501.698-2.3993.698-3.7369v-2.6457h-5.966l-.044 2.2849c0 .3989-.067.7803-.202 1.1469-.135.3667-.238.6013-.493.8858-.255.2875-.566.5134-.93.6806-.366.1672-.78.2493-1.241.2493-.46 0-.882-.0821-1.264-.2493-.381-.1672-.707-.3931-.98-.6806-.269-.2874-.478-.613-.621-.9796-.144-.3667-.214-.748-.214-1.144v-10.9174c0-.396.07-.7744.214-1.1323z"/></g></svg>