<svg fill="none" height="558" viewBox="0 0 243 558" width="243" xmlns="http://www.w3.org/2000/svg" xmlns:xlink="http://www.w3.org/1999/xlink"><linearGradient id="a" gradientUnits="userSpaceOnUse" x1="1.75488" x2="401.056" y1="557" y2="395.939"><stop offset="0" stop-color="#d9f99d"/><stop offset="1" stop-color="#10b981"/></linearGradient><path d="m188.108 139.659-11.294 28.4m11.294-28.4 11.004 28.4m-11.004-28.4h-22.588m22.588 0-33.883-85.3683-10.782 28.4218m-141.68812 195.3995h131.29412m-131.29412 0 56.47062 138.453h20.1436m-76.61422-138.453 56.47062-138.453h20.4515m109.431 276.906-11.294-28.4m11.294 28.4 11.004-28.4m-11.004 28.4-33.883 83.592-10.782-28.067m44.665-55.525h-22.588m-32.471-138.453 32.471 81.652m-32.471-81.652 32.471-81.652m0 163.304 11.294-27.217m-11.294 27.217h-22.077m22.077-163.304 11.294 27.217m-11.294-27.217h-22.077m33.371 191.705 43.764-110.053m-43.764 110.053h-65.614m109.378-110.053c-2.258-2.842-30.117-74.553-43.764-110.053m43.764 110.053h-22.267m-21.497-110.053h-65.75m87.247 110.053-10.749-27.217m10.749 27.217-10.749 27.217m-10.748 27.218 10.748-27.218m-10.748 27.218-11.294-27.218m11.294-81.652 10.748 27.218m-10.748-27.218-11.294 27.218m22.042 0h-22.042m0 0-11.295 27.217 11.295 27.217m22.042 0h-22.042m-65.231-108.869 22.878 54.435m-22.878-54.435h43.154m-43.154 0 10.775-28.401m12.103 82.836h-22.878m22.878 0 20.276-54.435m10.782-195.46h-21.176l-54.372 138.659m75.548-138.659 56.471 138.659-11.584 28.4m-44.887-167.059-76.2348 195.46m121.1218-28.401 42.643 110.053-42.643 110.053m-121.1218-191.705 22.2988 54.435m-22.2988-54.435h-22.5883m44.8871 54.435h-22.2988m-22.5883-54.435 11.8552 27.217m-11.8552-27.217-20.3439 54.435h21.4661m-1.1222-54.435 23.2751-56.801m-.6868 111.236-10.7331-27.218m10.7331 27.218h-21.4661m10.733-27.218-10.733 27.218m66.6429 54.434-22.878 54.435m22.878-54.435h-22.878m22.878 0 20.276 54.435m-43.154 0 10.911 28.401m-10.911-28.401h43.154m-65.4528 0 22.2988-54.435m-22.2988 54.435h-22.5883m22.5883 0 76.2348 197.236m-53.936-251.671h-22.2988m0 0-10.7331 27.218m10.7331-27.218h-21.4661m-1.1222 54.435 11.8552-27.217m-11.8552 27.217-20.3439-54.435h21.4661m-1.1222 54.435 22.9672 56.801m75.8559 140.435h-21.176l-54.6799-140.435m75.8559 140.435 56.471-140.435-11.584-28.4m-33.592-248.506-22.077-56.9465m22.077 56.9465h-43.682m21.605-56.9465-21.605 56.9465m21.605 332.431 22.077-55.525m-22.077 55.525-21.332-55.525m43.409 0h-43.409m-10.911-28.4 10.911 28.4m-54.8539-84.018-10.733-27.218m54.5399-137.27 10.774-28.4" stroke="url(#a)" stroke-linecap="round" stroke-linejoin="round" stroke-width="2"/></svg>