<svg width="24" height="24" viewBox="0 0 24 24" fill="none" xmlns="http://www.w3.org/2000/svg">
    <path
        d="M14.25 9.75V21M21 9.75H3M20.4 3H3.6C3.44087 3 3.28826 3.06321 3.17574 3.17574C3.06321 3.28826 3 3.44087 3 3.6V20.4C3 20.5591 3.06321 20.7117 3.17574 20.8243C3.28826 20.9368 3.44087 21 3.6 21H20.4C20.5591 21 20.7117 20.9368 20.8243 20.8243C20.9368 20.7117 21 20.5591 21 20.4V3.6C21 3.44087 20.9368 3.28826 20.8243 3.17574C20.7117 3.06321 20.5591 3 20.4 3V3Z"
        stroke="white" stroke-width="1.5" stroke-linecap="square" />
</svg>