<?xml version="1.0" encoding="UTF-8"?><svg id="a" xmlns="http://www.w3.org/2000/svg" viewBox="0 0 249.78 70.42"><defs><style>.d{fill:#2300ea;fill-rule:evenodd;stroke-width:0px;}</style></defs><g id="b"><path id="c" class="d" d="M222.51,44.65h-10.76c.11,2.75.71,5.02,1.85,6.84,1.14,1.83,2.68,3.34,4.45,4.45,1.77,1.11,3.7,1.91,5.98,2.39,2.28.48,4.68.76,7.06.76s4.59-.31,6.84-.76c2.25-.45,4.23-1.17,5.98-2.28,1.75-1.11,3.15-2.63,4.24-4.45,1.09-1.83,1.63-4.04,1.63-6.74,0-1.91-.35-3.59-1.09-4.89-.74-1.3-1.72-2.39-2.93-3.26-1.22-.87-2.57-1.53-4.13-2.06-1.56-.53-3.25-.93-4.89-1.3-1.59-.37-3.14-.77-4.67-1.09-1.54-.32-2.83-.69-4.02-1.09-1.19-.4-2.19-.89-2.93-1.52-.74-.64-1.09-1.49-1.09-2.5,0-.85.23-1.45.65-1.96.42-.5.91-.93,1.52-1.2.61-.26,1.21-.46,1.96-.54.74-.08,1.43-.11,2.06-.11,2.01,0,3.84.43,5.32,1.2,1.48.77,2.23,2.17,2.39,4.35h10.76c-.21-2.54-.87-4.63-1.96-6.3-1.09-1.67-2.38-3.01-4.02-4.02-1.64-1.01-3.56-1.64-5.65-2.06-2.09-.42-4.29-.65-6.52-.65s-4.4.15-6.52.54c-2.12.4-3.96,1.08-5.65,2.06-1.69.98-3.1,2.33-4.13,4.02-1.03,1.69-1.52,3.87-1.52,6.52,0,1.8.35,3.32,1.09,4.56.74,1.24,1.72,2.33,2.93,3.15,1.22.82,2.68,1.45,4.24,1.96,1.56.5,3.14.93,4.78,1.3,4.02.85,7.09,1.65,9.34,2.5,2.25.85,3.48,2.22,3.48,3.91,0,1.01-.28,1.84-.76,2.5-.48.66-1.13,1.12-1.85,1.52-.71.4-1.41.68-2.28.87s-1.7.33-2.5.33c-1.11,0-2.23-.17-3.26-.43-1.03-.26-1.92-.64-2.72-1.2-.79-.56-1.45-1.3-1.96-2.17-.5-.87-.76-1.93-.76-3.15ZM194.37,1.3v56.71h11.3V1.3h-11.3ZM176.88,33.03h-18.36c.05-.79.25-1.6.54-2.61.29-1.01.81-2.03,1.52-2.93.71-.9,1.63-1.67,2.82-2.28,1.19-.61,2.76-.87,4.56-.87,2.75,0,4.73.8,6.08,2.28,1.35,1.48,2.3,3.55,2.82,6.41ZM158.51,40.2h29.66c.21-3.18-.02-6.21-.76-9.13-.74-2.91-2.03-5.44-3.69-7.71-1.67-2.28-3.71-4.19-6.3-5.54-2.59-1.35-5.63-1.96-9.13-1.96-3.12,0-6.02.52-8.58,1.63-2.57,1.11-4.77,2.63-6.63,4.56-1.85,1.93-3.34,4.2-4.35,6.84-1.01,2.65-1.41,5.51-1.41,8.58s.43,6.15,1.41,8.8c.98,2.65,2.44,4.94,4.24,6.84,1.8,1.91,3.92,3.31,6.52,4.35,2.59,1.03,5.57,1.63,8.8,1.63,4.66,0,8.56-1.14,11.84-3.26,3.28-2.12,5.69-5.61,7.28-10.54h-9.89c-.37,1.27-1.4,2.45-3.04,3.59-1.64,1.14-3.59,1.74-5.87,1.74-3.18,0-5.58-.86-7.28-2.5s-2.67-4.28-2.82-7.93ZM111.04,37.48c-.03-1.74.2-3.33.54-4.89.34-1.56.94-2.88,1.74-4.13.79-1.24,1.77-2.3,3.04-3.04,1.27-.74,2.82-1.09,4.67-1.09,1.75,0,3.32.4,4.56,1.2,1.24.79,2.19,1.88,2.93,3.15.74,1.27,1.29,2.65,1.63,4.24.34,1.59.54,3.19.54,4.78,0,1.69-.2,3.33-.54,4.89-.34,1.56-.86,2.94-1.63,4.13-.77,1.19-1.8,2.11-3.04,2.82-1.24.71-2.82,1.09-4.67,1.09s-3.43-.35-4.67-1.09c-1.24-.74-2.17-1.8-2.93-3.04-.77-1.24-1.31-2.57-1.63-4.13-.32-1.56-.54-3.25-.54-4.89ZM141.6,70.42l-.04-53.47h-10.76v5.21h-.11c-1.27-2.28-3.07-3.91-5.32-4.89-2.25-.98-4.63-1.41-7.17-1.41-3.12,0-5.85.63-8.15,1.85-2.3,1.22-4.22,2.85-5.76,4.89-1.54,2.04-2.63,4.31-3.37,6.95-.74,2.65-1.2,5.45-1.2,8.26,0,3.97.63,7.27,1.74,10,1.11,2.73,2.54,4.96,4.24,6.63,1.69,1.67,3.5,2.87,5.54,3.59,2.04.71,4.07,1.09,5.98,1.09,2.54,0,5.01-.57,7.39-1.52,2.38-.95,4.22-2.56,5.54-4.78h.11l-.08,17.61h11.42ZM72.9,16.95v41.07h11.19v-18.47c0-1.85.28-3.63.65-5.21.37-1.59.97-2.94,1.85-4.13.87-1.19,2.05-2.14,3.48-2.82,1.43-.69,3.15-1.09,5.21-1.09.69,0,1.43.03,2.17.11.74.08,1.32.22,1.85.33v-10.54c-.9-.26-1.76-.33-2.5-.33-1.43,0-2.8.23-4.13.65-1.32.42-2.53.97-3.69,1.74-1.16.77-2.14,1.74-3.04,2.82-.9,1.09-1.64,2.21-2.17,3.48h-.22v-7.61h-10.65ZM64.75,10.65V1.3h-11.3v9.34h11.3ZM53.46,16.95v41.07h11.3V16.95h-11.3ZM12.06,39.22H0c-.05,3.49.63,6.48,1.96,9.02,1.32,2.54,3.07,4.66,5.32,6.3,2.25,1.64,4.88,2.82,7.82,3.59,2.94.77,6,1.2,9.13,1.2,3.87,0,7.17-.51,10.1-1.41,2.94-.9,5.4-2.08,7.39-3.69,1.99-1.61,3.56-3.53,4.56-5.76s1.52-4.68,1.52-7.28c0-3.18-.71-5.78-2.06-7.82-1.35-2.04-2.93-3.67-4.78-4.89-1.85-1.22-3.77-2.05-5.65-2.61-1.88-.56-3.29-.98-4.35-1.2-3.55-.9-6.49-1.59-8.69-2.17-2.2-.58-3.86-1.26-5.11-1.85-1.24-.58-2.08-1.16-2.5-1.85-.42-.69-.65-1.6-.65-2.72,0-1.22.23-2.25.76-3.04.53-.79,1.24-1.43,2.06-1.96.82-.53,1.71-.87,2.72-1.09,1.01-.21,2.04-.33,3.04-.33,1.54,0,2.94.06,4.24.33,1.3.26,2.47.78,3.48,1.41,1.01.64,1.78,1.5,2.39,2.61.61,1.11.98,2.54,1.09,4.24h12.06c0-3.28-.6-6.06-1.85-8.37-1.24-2.3-2.88-4.28-5-5.76-2.12-1.48-4.55-2.49-7.28-3.15-2.73-.66-5.62-.98-8.58-.98-2.54,0-5.06.29-7.61.98-2.54.69-4.83,1.72-6.84,3.15-2.01,1.43-3.64,3.29-4.89,5.43-1.24,2.14-1.85,4.69-1.85,7.61,0,2.59.43,4.8,1.41,6.63.98,1.83,2.32,3.35,3.91,4.56,1.59,1.22,3.42,2.17,5.43,2.93,2.01.77,4.07,1.43,6.19,1.96,2.06.58,4.07,1.15,6.08,1.63,2.01.48,3.84.99,5.43,1.63,1.59.64,2.82,1.44,3.8,2.39.98.95,1.52,2.16,1.52,3.69,0,1.43-.45,2.66-1.2,3.59-.74.93-1.6,1.64-2.72,2.17-1.11.53-2.31.9-3.59,1.09-1.27.19-2.47.22-3.59.22-1.64,0-3.24-.15-4.78-.54-1.54-.4-2.88-1.03-4.02-1.85-1.14-.82-2.03-1.94-2.72-3.26-.69-1.32-1.09-2.87-1.09-4.78Z"/></g></svg>