<svg width="128" height="128" viewBox="0 0 128 128" fill="none" xmlns="http://www.w3.org/2000/svg">
<path d="M109.247 109.25L18.7436 18.7457" stroke="#090A0B" stroke-width="8"/>
<path d="M18.7461 109.25L109.25 18.7452" stroke="#090A0B" stroke-width="8"/>
<path d="M63.9961 127.988L63.9961 -0.00488853" stroke="#090A0B" stroke-width="8"/>
<path d="M0.00878906 63.9976L128 63.9976" stroke="#090A0B" stroke-width="8"/>
<path d="M63.9966 95.9964C46.3249 95.9964 31.9991 81.6704 31.9991 63.9983C31.9991 46.3262 46.3249 32.0002 63.9966 32.0002C81.6683 32.0002 95.9941 46.3262 95.9941 63.9983C95.9941 81.6704 81.6683 95.9964 63.9966 95.9964Z" stroke="#090A0B" stroke-width="8"/>
<path d="M63.9956 123.995C30.861 123.995 4 97.1338 4 63.9985C4 30.8633 30.861 4.00195 63.9956 4.00195C97.1302 4.00195 123.991 30.8633 123.991 63.9985C123.991 97.1338 97.1302 123.995 63.9956 123.995Z" stroke="#090A0B" stroke-width="8"/>
</svg>
