<svg id="eVh1qoFPRBX1" xmlns="http://www.w3.org/2000/svg" xmlns:xlink="http://www.w3.org/1999/xlink" viewBox="0 0 2292 1050" shape-rendering="geometricPrecision" text-rendering="geometricPrecision">
<style><![CDATA[
#eVh1qoFPRBX3 {animation: eVh1qoFPRBX3_c_o 4000ms linear infinite alternate-reverse forwards}@keyframes eVh1qoFPRBX3_c_o { 0% {opacity: 0;animation-timing-function: cubic-bezier(0.6,0.6,0,1)} 35% {opacity: 1} 100% {opacity: 1}} #eVh1qoFPRBX4 {animation: eVh1qoFPRBX4_c_o 4000ms linear infinite alternate-reverse forwards}@keyframes eVh1qoFPRBX4_c_o { 0% {opacity: 0} 5% {opacity: 0;animation-timing-function: cubic-bezier(0.6,0.6,0,1)} 40% {opacity: 1} 100% {opacity: 1}} #eVh1qoFPRBX5 {animation-name: eVh1qoFPRBX5_f_o, eVh1qoFPRBX5_s_o;animation-duration: 4000ms;animation-fill-mode: forwards;animation-timing-function: linear;animation-direction: alternate-reverse;animation-iteration-count: infinite;}@keyframes eVh1qoFPRBX5_f_o { 0% {fill-opacity: 0} 17.5% {fill-opacity: 0;animation-timing-function: cubic-bezier(0.6,0.6,0,1)} 32.5% {fill-opacity: 0.98} 100% {fill-opacity: 0.98}}@keyframes eVh1qoFPRBX5_s_o { 0% {stroke-opacity: 0} 17.5% {stroke-opacity: 0;animation-timing-function: cubic-bezier(0.6,0.6,0,1)} 32.5% {stroke-opacity: 0.1} 100% {stroke-opacity: 0.1}} #eVh1qoFPRBX6_to {animation: eVh1qoFPRBX6_to__to 4000ms linear infinite alternate-reverse forwards}@keyframes eVh1qoFPRBX6_to__to { 0% {transform: translate(435.919511px,286.999998px)} 15% {transform: translate(435.919511px,286.999998px);animation-timing-function: cubic-bezier(0.6,0.6,0,1)} 40% {transform: translate(435.91951px,252.662498px)} 100% {transform: translate(435.91951px,252.662498px)}} #eVh1qoFPRBX6 {animation-name: eVh1qoFPRBX6_f_o, eVh1qoFPRBX6_s_o;animation-duration: 4000ms;animation-fill-mode: forwards;animation-timing-function: linear;animation-direction: alternate-reverse;animation-iteration-count: infinite;}@keyframes eVh1qoFPRBX6_f_o { 0% {fill-opacity: 0} 20% {fill-opacity: 0;animation-timing-function: cubic-bezier(0.6,0.6,0,1)} 42.5% {fill-opacity: 0.98} 100% {fill-opacity: 0.98}}@keyframes eVh1qoFPRBX6_s_o { 0% {stroke-opacity: 0} 20% {stroke-opacity: 0;animation-timing-function: cubic-bezier(0.6,0.6,0,1)} 42.5% {stroke-opacity: 0.1} 100% {stroke-opacity: 0.1}} #eVh1qoFPRBX7_to {animation: eVh1qoFPRBX7_to__to 4000ms linear infinite alternate-reverse forwards}@keyframes eVh1qoFPRBX7_to__to { 0% {transform: translate(435.919511px,246.999998px)} 17.5% {transform: translate(435.919511px,246.999998px);animation-timing-function: cubic-bezier(0.6,0.6,0,1)} 42.5% {transform: translate(435.91951px,212.662498px)} 100% {transform: translate(435.91951px,212.662498px)}} #eVh1qoFPRBX7 {animation-name: eVh1qoFPRBX7_f_o, eVh1qoFPRBX7_s_o;animation-duration: 4000ms;animation-fill-mode: forwards;animation-timing-function: linear;animation-direction: alternate-reverse;animation-iteration-count: infinite;}@keyframes eVh1qoFPRBX7_f_o { 0% {fill-opacity: 0} 22.5% {fill-opacity: 0;animation-timing-function: cubic-bezier(0.6,0.6,0,1)} 45% {fill-opacity: 0.98} 100% {fill-opacity: 0.98}}@keyframes eVh1qoFPRBX7_s_o { 0% {stroke-opacity: 0} 22.5% {stroke-opacity: 0;animation-timing-function: cubic-bezier(0.6,0.6,0,1)} 45% {stroke-opacity: 0.1} 100% {stroke-opacity: 0.1}} #eVh1qoFPRBX8_to {animation: eVh1qoFPRBX8_to__to 4000ms linear infinite alternate-reverse forwards}@keyframes eVh1qoFPRBX8_to__to { 0% {transform: translate(435.919511px,216.999998px)} 20% {transform: translate(435.919511px,216.999998px);animation-timing-function: cubic-bezier(0.6,0.6,0,1)} 45% {transform: translate(435.91951px,172.662498px)} 100% {transform: translate(435.91951px,172.662498px)}} #eVh1qoFPRBX8 {animation-name: eVh1qoFPRBX8_f_o, eVh1qoFPRBX8_s_o;animation-duration: 4000ms;animation-fill-mode: forwards;animation-timing-function: linear;animation-direction: alternate-reverse;animation-iteration-count: infinite;}@keyframes eVh1qoFPRBX8_f_o { 0% {fill-opacity: 0} 25% {fill-opacity: 0;animation-timing-function: cubic-bezier(0.6,0.6,0,1)} 47.5% {fill-opacity: 0.98} 100% {fill-opacity: 0.98}}@keyframes eVh1qoFPRBX8_s_o { 0% {stroke-opacity: 0} 25% {stroke-opacity: 0;animation-timing-function: cubic-bezier(0.6,0.6,0,1)} 47.5% {stroke-opacity: 0.1} 100% {stroke-opacity: 0.1}} #eVh1qoFPRBX9_to {animation: eVh1qoFPRBX9_to__to 4000ms linear infinite alternate-reverse forwards}@keyframes eVh1qoFPRBX9_to__to { 0% {transform: translate(435.91951px,172.662498px)} 22.5% {transform: translate(435.91951px,172.662498px);animation-timing-function: cubic-bezier(0.6,0.6,0,1)} 47.5% {transform: translate(435.91951px,132.662498px)} 100% {transform: translate(435.91951px,132.662498px)}} #eVh1qoFPRBX9 {animation-name: eVh1qoFPRBX9_f_o, eVh1qoFPRBX9_s_o;animation-duration: 4000ms;animation-fill-mode: forwards;animation-timing-function: linear;animation-direction: alternate-reverse;animation-iteration-count: infinite;}@keyframes eVh1qoFPRBX9_f_o { 0% {fill-opacity: 0} 27.5% {fill-opacity: 0;animation-timing-function: cubic-bezier(0.6,0.6,0,1)} 50% {fill-opacity: 0.98} 100% {fill-opacity: 0.98}}@keyframes eVh1qoFPRBX9_s_o { 0% {stroke-opacity: 0} 27.5% {stroke-opacity: 0;animation-timing-function: cubic-bezier(0.6,0.6,0,1)} 50% {stroke-opacity: 0.1} 100% {stroke-opacity: 0.1}} #eVh1qoFPRBX10 {animation-name: eVh1qoFPRBX10_f_o, eVh1qoFPRBX10_s_o;animation-duration: 4000ms;animation-fill-mode: forwards;animation-timing-function: linear;animation-direction: alternate-reverse;animation-iteration-count: infinite;}@keyframes eVh1qoFPRBX10_f_o { 0% {fill-opacity: 0} 25% {fill-opacity: 0;animation-timing-function: cubic-bezier(0.6,0.6,0,1)} 40% {fill-opacity: 0.98} 100% {fill-opacity: 0.98}}@keyframes eVh1qoFPRBX10_s_o { 0% {stroke-opacity: 0} 25% {stroke-opacity: 0;animation-timing-function: cubic-bezier(0.6,0.6,0,1)} 40% {stroke-opacity: 0.1} 100% {stroke-opacity: 0.1}} #eVh1qoFPRBX11_to {animation: eVh1qoFPRBX11_to__to 4000ms linear infinite alternate-reverse forwards}@keyframes eVh1qoFPRBX11_to__to { 0% {transform: translate(657.18051px,491.634444px)} 20% {transform: translate(657.18051px,491.634444px);animation-timing-function: cubic-bezier(0.6,0.6,0,1)} 42.5% {transform: translate(657.18051px,461.634444px)} 100% {transform: translate(657.18051px,461.634444px)}} #eVh1qoFPRBX11 {animation-name: eVh1qoFPRBX11_f_o, eVh1qoFPRBX11_s_o;animation-duration: 4000ms;animation-fill-mode: forwards;animation-timing-function: linear;animation-direction: alternate-reverse;animation-iteration-count: infinite;}@keyframes eVh1qoFPRBX11_f_o { 0% {fill-opacity: 0} 25% {fill-opacity: 0;animation-timing-function: cubic-bezier(0.6,0.6,0,1)} 47.5% {fill-opacity: 0.98} 100% {fill-opacity: 0.98}}@keyframes eVh1qoFPRBX11_s_o { 0% {stroke-opacity: 0} 25% {stroke-opacity: 0;animation-timing-function: cubic-bezier(0.6,0.6,0,1)} 47.5% {stroke-opacity: 0.1} 100% {stroke-opacity: 0.1}} #eVh1qoFPRBX12_to {animation: eVh1qoFPRBX12_to__to 4000ms linear infinite alternate-reverse forwards}@keyframes eVh1qoFPRBX12_to__to { 0% {transform: translate(657.18051px,451.634444px)} 27.5% {transform: translate(657.18051px,451.634444px);animation-timing-function: cubic-bezier(0.6,0.6,0,1)} 50% {transform: translate(657.18051px,421.634444px)} 100% {transform: translate(657.18051px,421.634444px)}} #eVh1qoFPRBX12 {animation-name: eVh1qoFPRBX12_f_o, eVh1qoFPRBX12_s_o;animation-duration: 4000ms;animation-fill-mode: forwards;animation-timing-function: linear;animation-direction: alternate-reverse;animation-iteration-count: infinite;}@keyframes eVh1qoFPRBX12_f_o { 0% {fill-opacity: 0} 30% {fill-opacity: 0;animation-timing-function: cubic-bezier(0.6,0.6,0,1)} 52.5% {fill-opacity: 0.98} 100% {fill-opacity: 0.98}}@keyframes eVh1qoFPRBX12_s_o { 0% {stroke-opacity: 0} 30% {stroke-opacity: 0;animation-timing-function: cubic-bezier(0.6,0.6,0,1)} 52.5% {stroke-opacity: 0.1} 100% {stroke-opacity: 0.1}}
]]></style>
<defs><linearGradient id="eVh1qoFPRBX3-stroke" x1="437.5" y1="141.493906" x2="437.5" y2="821.974193" spreadMethod="pad" gradientUnits="userSpaceOnUse" gradientTransform="translate(0 0)"><stop id="eVh1qoFPRBX3-stroke-0" offset="0%" stop-color="rgba(255,255,255,0)"/><stop id="eVh1qoFPRBX3-stroke-1" offset="15.696151%" stop-color="#fff"/><stop id="eVh1qoFPRBX3-stroke-2" offset="53.7237%" stop-color="#fff"/><stop id="eVh1qoFPRBX3-stroke-3" offset="100%" stop-color="rgba(255,255,255,0)"/></linearGradient><linearGradient id="eVh1qoFPRBX4-stroke" x1="437.5" y1="175.630752" x2="437.5" y2="806.842763" spreadMethod="pad" gradientUnits="userSpaceOnUse" gradientTransform="translate(0 0)"><stop id="eVh1qoFPRBX4-stroke-0" offset="0%" stop-color="rgba(255,255,255,0)"/><stop id="eVh1qoFPRBX4-stroke-1" offset="4.717239%" stop-color="#fff"/><stop id="eVh1qoFPRBX4-stroke-2" offset="53.7237%" stop-color="#fff"/><stop id="eVh1qoFPRBX4-stroke-3" offset="100%" stop-color="rgba(255,255,255,0)"/></linearGradient><linearGradient id="eVh1qoFPRBX5-fill" x1="435.919" y1="52" x2="435.919" y2="213" spreadMethod="pad" gradientUnits="userSpaceOnUse" gradientTransform="translate(0 0)"><stop id="eVh1qoFPRBX5-fill-0" offset="22.3602%" stop-color="#090a0b"/><stop id="eVh1qoFPRBX5-fill-1" offset="100%" stop-color="#222426"/></linearGradient><linearGradient id="eVh1qoFPRBX6-fill" x1="435.919" y1="52" x2="435.919" y2="213" spreadMethod="pad" gradientUnits="userSpaceOnUse" gradientTransform="translate(0 0)"><stop id="eVh1qoFPRBX6-fill-0" offset="22.3602%" stop-color="#090a0b"/><stop id="eVh1qoFPRBX6-fill-1" offset="100%" stop-color="#222426"/></linearGradient><linearGradient id="eVh1qoFPRBX7-fill" x1="435.919" y1="52" x2="435.919" y2="213" spreadMethod="pad" gradientUnits="userSpaceOnUse" gradientTransform="translate(0 0)"><stop id="eVh1qoFPRBX7-fill-0" offset="22.3602%" stop-color="#090a0b"/><stop id="eVh1qoFPRBX7-fill-1" offset="100%" stop-color="#222426"/></linearGradient><linearGradient id="eVh1qoFPRBX8-fill" x1="435.919" y1="52" x2="435.919" y2="213" spreadMethod="pad" gradientUnits="userSpaceOnUse" gradientTransform="translate(0 0)"><stop id="eVh1qoFPRBX8-fill-0" offset="22.3602%" stop-color="#090a0b"/><stop id="eVh1qoFPRBX8-fill-1" offset="100%" stop-color="#222426"/></linearGradient><linearGradient id="eVh1qoFPRBX9-fill" x1="435.919" y1="52" x2="435.919" y2="213" spreadMethod="pad" gradientUnits="userSpaceOnUse" gradientTransform="translate(0 0)"><stop id="eVh1qoFPRBX9-fill-0" offset="22.3602%" stop-color="#090a0b"/><stop id="eVh1qoFPRBX9-fill-1" offset="100%" stop-color="#222426"/></linearGradient><linearGradient id="eVh1qoFPRBX10-fill" x1="435.919" y1="52" x2="435.919" y2="213" spreadMethod="pad" gradientUnits="userSpaceOnUse" gradientTransform="translate(0 0)"><stop id="eVh1qoFPRBX10-fill-0" offset="22.3602%" stop-color="#090a0b"/><stop id="eVh1qoFPRBX10-fill-1" offset="100%" stop-color="#222426"/></linearGradient><linearGradient id="eVh1qoFPRBX11-fill" x1="435.919" y1="52" x2="435.919" y2="213" spreadMethod="pad" gradientUnits="userSpaceOnUse" gradientTransform="translate(0 0)"><stop id="eVh1qoFPRBX11-fill-0" offset="22.3602%" stop-color="#090a0b"/><stop id="eVh1qoFPRBX11-fill-1" offset="100%" stop-color="#222426"/></linearGradient><linearGradient id="eVh1qoFPRBX12-fill" x1="435.919" y1="52" x2="435.919" y2="213" spreadMethod="pad" gradientUnits="userSpaceOnUse" gradientTransform="translate(0 0)"><stop id="eVh1qoFPRBX12-fill-0" offset="22.3602%" stop-color="#090a0b"/><stop id="eVh1qoFPRBX12-fill-1" offset="100%" stop-color="#222426"/></linearGradient></defs><rect width="2292" height="1050" rx="0" ry="0" fill="#090a0b"/><path id="eVh1qoFPRBX3" d="M579.739,286.081L437.5,207L292.1,289.244m287.639-3.163l-145.4,82.244m145.4-82.244v174.39l-66.378,37.546M434.339,368.325L292.1,289.244m142.239,79.081v344.791M292.1,289.244v252.355l69.539,38.662m72.7,132.855l79.022,43.934m-79.022-43.934l-72.7,41.122m0-173.977L219.4,501.18L74,583.424m287.639-3.163l-145.4,82.244m145.4-82.244v173.977m-145.4-91.733L74,583.424m142.239,79.081L219.4,915.563M74,583.424v249.895l145.4,82.244M579.739,793.779L431.178,874.441m148.561-80.662L513.361,757.05m66.378,36.729v169.232m0-169.232v75.917m-148.561,4.745L288.939,795.36m142.239,79.081v175.559M288.939,795.36l72.7-41.122m-72.7,41.122v79.081M801,494.854L658.761,415.773l-145.4,82.244M801,494.854L655.6,577.098M801,494.854v338.465L655.6,915.563m0-338.465L513.361,498.017M655.6,577.098v338.465M513.361,498.017v259.033M655.6,915.563l-75.861-45.867m0,0v93.315m0,0L431.178,1050m0,0L288.939,963.011v-88.57M219.4,915.563l69.539-41.122" fill="none" stroke="url(#eVh1qoFPRBX3-stroke)" stroke-opacity="0.2" stroke-linecap="round" stroke-linejoin="round"/><path id="eVh1qoFPRBX4" d="M579.739,286.081L437.5,207L292.1,289.244m287.639-3.163l-145.4,82.244m145.4-82.244v174.39l-66.378,37.546M434.339,368.325L292.1,289.244m142.239,79.081v344.791M292.1,289.244v252.355l69.539,38.662m72.7,132.855l79.022,43.934m-79.022-43.934l-72.7,41.122m0-173.977L219.4,501.18L74,583.424m287.639-3.163l-145.4,82.244m145.4-82.244v173.977m-145.4-91.733L74,583.424m142.239,79.081L219.4,915.563M74,583.424v249.895l145.4,82.244M579.739,793.779L431.178,874.441m148.561-80.662L513.361,757.05m66.378,36.729v169.232m0-169.232v75.917m-148.561,4.745L288.939,795.36m142.239,79.081v175.559M288.939,795.36l72.7-41.122m-72.7,41.122v79.081M801,494.854L658.761,415.773l-145.4,82.244M801,494.854L655.6,577.098M801,494.854v338.465L655.6,915.563m0-338.465L513.361,498.017M655.6,577.098v338.465M513.361,498.017v259.033M655.6,915.563l-75.861-45.867m0,0v93.315m0,0L431.178,1050m0,0L288.939,963.011v-88.57M219.4,915.563l69.539-41.122" transform="translate(1417-207)" fill="none" stroke="url(#eVh1qoFPRBX4-stroke)" stroke-opacity="0.2" stroke-linecap="round" stroke-linejoin="round"/><path id="eVh1qoFPRBX5" d="M437.5,52l142.239,79.081-145.4,82.244L292.1,134.244L437.5,52Z" transform="translate(0 155)" fill="url(#eVh1qoFPRBX5-fill)" fill-opacity="0.98" stroke="#fff" stroke-opacity="0.1"/><g id="eVh1qoFPRBX6_to" transform="translate(435.91951,252.662498)"><path id="eVh1qoFPRBX6" d="M437.5,52l142.239,79.081-145.4,82.244L292.1,134.244L437.5,52Z" transform="translate(-435.91951,-132.662498)" fill="url(#eVh1qoFPRBX6-fill)" fill-opacity="0.98" stroke="#fff" stroke-opacity="0.1"/></g><g id="eVh1qoFPRBX7_to" transform="translate(435.91951,212.662498)"><path id="eVh1qoFPRBX7" d="M437.5,52l142.239,79.081-145.4,82.244L292.1,134.244L437.5,52Z" transform="translate(-435.91951,-132.662498)" fill="url(#eVh1qoFPRBX7-fill)" fill-opacity="0.98" stroke="#fff" stroke-opacity="0.1"/></g><g id="eVh1qoFPRBX8_to" transform="translate(435.91951,172.662498)"><path id="eVh1qoFPRBX8" d="M437.5,52l142.239,79.081-145.4,82.244L292.1,134.244L437.5,52Z" transform="translate(-435.91951,-132.662498)" fill="url(#eVh1qoFPRBX8-fill)" fill-opacity="0.98" stroke="#fff" stroke-opacity="0.1"/></g><g id="eVh1qoFPRBX9_to" transform="translate(435.91951,132.662498)"><path id="eVh1qoFPRBX9" d="M437.5,52l142.239,79.081-145.4,82.244L292.1,134.244L437.5,52Z" transform="translate(-435.91951,-132.662498)" fill="url(#eVh1qoFPRBX9-fill)" fill-opacity="0.98" stroke="#fff" stroke-opacity="0.1"/></g><path id="eVh1qoFPRBX10" d="M437.5,52l142.239,79.081-145.4,82.244L292.1,134.244L437.5,52Z" transform="translate(221.261 363.971946)" fill="url(#eVh1qoFPRBX10-fill)" fill-opacity="0.98" stroke="#fff" stroke-opacity="0.1"/><g id="eVh1qoFPRBX11_to" transform="translate(657.18051,461.634444)"><path id="eVh1qoFPRBX11" d="M437.5,52l142.239,79.081-145.4,82.244L292.1,134.244L437.5,52Z" transform="translate(-435.91951,-132.662498)" fill="url(#eVh1qoFPRBX11-fill)" fill-opacity="0.98" stroke="#fff" stroke-opacity="0.1"/></g><g id="eVh1qoFPRBX12_to" transform="translate(657.18051,421.634444)"><path id="eVh1qoFPRBX12" d="M437.5,52l142.239,79.081-145.4,82.244L292.1,134.244L437.5,52Z" transform="translate(-435.91951,-132.662498)" fill="url(#eVh1qoFPRBX12-fill)" fill-opacity="0.98" stroke="#fff" stroke-opacity="0.1"/></g></svg>
