<?xml version="1.0" encoding="utf-8"?>
<!-- Generator: Adobe Illustrator 28.1.0, SVG Export Plug-In . SVG Version: 6.00 Build 0)  -->
<svg version="1.1" id="Layer_1" xmlns="http://www.w3.org/2000/svg" xmlns:xlink="http://www.w3.org/1999/xlink" x="0px" y="0px"
	 viewBox="0 0 188 80" style="enable-background:new 0 0 188 80;" xml:space="preserve">
<style type="text/css">
	.st0{fill:#FFFFFF;}
	.st1{clip-path:url(#SVGID_00000041990330502120959370000007340610903874023332_);}
	.st2{fill:#090A0B;}
</style>
<rect class="st0" width="187.5" height="80"/>
<g>
	<defs>
		<rect id="SVGID_1_" x="1.2" y="21" width="155.8" height="38.8"/>
	</defs>
	<clipPath id="SVGID_00000043455774288424956560000003310777730664961675_">
		<use xlink:href="#SVGID_1_"  style="overflow:visible;"/>
	</clipPath>
	<g style="clip-path:url(#SVGID_00000043455774288424956560000003310777730664961675_);">
		<path class="st2" d="M34.8,37.9c0-4.3,0-8.7,0-13c0-0.8,0.2-1.1,1.1-1.1C40,23.9,44,23.7,48,24c6.1,0.5,10.9,5,12.1,11
			c1.3,6.1-1.4,12.2-6.7,15.2c-2.4,1.3-4.9,1.9-7.6,1.9c-3.3,0-6.7,0-10,0c-0.8,0-1-0.3-1-1.1C34.9,46.7,34.8,42.3,34.8,37.9
			L34.8,37.9z M41.2,37.9c0,2.4,0,4.8,0,7.2c0,0.7,0.2,1,0.9,1c1.3-0.1,2.7,0,4,0c3.9,0,7.1-3,7.7-7c0.6-3.9-1.7-7.8-5.4-8.8
			c-2-0.5-4.1-0.3-6.1-0.5c-0.8-0.1-1.1,0.2-1.1,1.1C41.2,33.2,41.2,35.6,41.2,37.9L41.2,37.9z"/>
		<path class="st2" d="M85.2,51.9c2.2,0,4,0,5.9,0.5c2.6,0.7,4.1,2.6,4.9,5.2c0.2,0.6-0.1,0.8-0.6,0.9c-1.6,0.4-3.2,0.9-4.8,1.3
			c-0.2,0.1-0.7-0.2-0.8-0.4c-0.6-1.3-1.6-1.7-3-1.7c-2.5,0-5.1,0-7.6-0.1c-2.5-0.2-4.5-1.3-5.3-3.8c-0.8-2.6-0.1-4.9,1.9-6.8
			c0.3-0.3,0.7-0.5,0.2-1c-2.4-2.8-2.9-6.1-1.6-9.5c1.4-3.5,4.2-5.2,7.8-5.7c1.7-0.2,3.4,0,5,0.5c0.3,0.1,0.8,0,0.9-0.2
			c1.1-2.4,3.1-3.1,5.5-3.2c1.7-0.1,1.7-0.1,1.7,1.7c0,0.9,0,1.9,0,2.8c0,0.8-0.2,1.1-1.1,1.1c-0.6,0-1.3,0.2-1.9,0.5
			c-0.2,0.1-0.3,0.8-0.2,1.1c1.8,3.3,1.9,6.6-0.1,9.8c-2.1,3.3-5.5,4.5-9.3,4.3c-0.5,0-1-0.1-1.4-0.2c-0.9-0.2-1.4,0.1-1.6,0.9
			c-0.2,0.8,0.1,1.4,0.8,1.7c0.4,0.2,0.8,0.2,1.2,0.2C83,51.9,84.1,51.9,85.2,51.9C85.3,51.8,85.2,51.9,85.2,51.9z M87.5,39.9
			c0-2-1.6-3.5-3.8-3.5c-2,0-3.7,1.6-3.7,3.5c0,2,1.7,3.5,3.7,3.5C85.9,43.4,87.5,41.9,87.5,39.9L87.5,39.9z"/>
		<path class="st2" d="M140.1,50.4c-1.1,0.6-1.9,1.2-2.9,1.6c-4.4,1.7-9.3-0.1-11.8-4.3c-2.4-4.1-2-9.8,1-13.5
			c3.5-4.3,9.9-4.5,13.2-1.6c0.1,0.1,0.3,0.2,0.5,0.3c0.1-0.1,0.2-0.2,0.2-0.2c0.1-1,0.7-1.4,1.6-1.4c1.2,0,2.4,0,3.6,0
			c0.6,0,0.9,0.2,0.9,0.8c0,6.4,0,12.9,0,19.3c0,0.6-0.2,0.8-0.8,0.8c-1.5,0-2.9,0-4.4,0c-0.7,0-0.9-0.3-0.9-0.9
			C140.2,51,140.2,50.7,140.1,50.4L140.1,50.4z M135.1,36.5c-2.9,0-5,2.2-5,5.1c0,2.9,2.2,5.1,5,5.1c2.9,0,5.1-2.2,5.1-5.2
			C140.2,38.7,138,36.5,135.1,36.5L135.1,36.5z"/>
		<path class="st2" d="M121.8,46.2c0,1.7,0,3.4,0,5.1c0,0.2-0.3,0.5-0.5,0.6c-2.2,1-6.9,1.1-9.1-1.3c-1.3-1.4-1.8-3.1-1.8-4.9
			c0-2.6,0-5.3,0-7.9c0-0.8-0.2-1.1-1-1.1c-2.2,0-2.2,0-2.2-2.2c0-0.8,0-1.6,0-2.5c0-0.6,0.2-0.8,0.8-0.8c0.5,0,1.1,0,1.6,0
			c0.5,0,0.8-0.2,0.8-0.8c0-1.2,0-2.4,0-3.6c0-0.6,0.2-0.9,0.8-0.9c1.5,0,2.9,0,4.4,0c0.6,0,0.8,0.2,0.8,0.8c0,1.2,0,2.3,0,3.5
			c0,0.7,0.2,0.9,0.9,0.9c1.2,0,2.4,0,3.6,0c0.7,0,0.9,0.3,0.9,0.9c0,1.2,0,2.5,0,3.7c0,0.7-0.3,0.9-0.9,0.9c-1.2,0-2.4,0-3.6,0
			c-0.7,0-0.9,0.3-0.9,0.9c0,2.2,0,4.4,0,6.7c0,1.6,0.9,2.6,2.6,2.5C120,46.7,120.8,46.4,121.8,46.2z"/>
		<path class="st2" d="M157,37.4c0,4.5,0,9.1,0,13.6c0,0.9-0.3,1.1-1.1,1.1c-1.4-0.1-2.7,0-4.1,0c-0.7,0-0.9-0.2-0.9-0.9
			c0-9.2,0-18.5,0-27.7c0-0.7,0.2-1,0.9-1c1.4,0,2.7,0.1,4.1,0c0.8,0,1,0.3,1,1.1C157,28.2,157,32.8,157,37.4L157,37.4z"/>
		<path class="st2" d="M103.9,41.6c0,3.2,0,6.3,0,9.5c0,0.8-0.2,1-1,1c-1.4,0-2.8,0-4.2,0c-0.6,0-0.9-0.2-0.9-0.8
			c0-6.4,0-12.8,0-19.2c0-0.6,0.2-0.9,0.8-0.9c1.4,0,2.8,0,4.2,0c0.7,0,1,0.2,1,1C103.9,35.3,103.9,38.5,103.9,41.6L103.9,41.6z"/>
		<path class="st2" d="M70.1,41.6c0,3.2,0,6.3,0,9.5c0,0.7-0.2,1-1,1c-1.4,0-2.8,0-4.2,0c-0.6,0-0.9-0.2-0.9-0.8
			c0-6.4,0-12.8,0-19.2c0-0.7,0.3-0.9,0.9-0.9c1.4,0,2.7,0,4.1,0c0.7,0,1,0.2,1,1C70.1,35.3,70.1,38.5,70.1,41.6z"/>
		<path class="st2" d="M104.7,24.9c0,2.1-1.6,3.7-3.7,3.7c-2.1,0-3.7-1.6-3.7-3.7c0-2.1,1.6-3.7,3.8-3.6
			C103.2,21.2,104.7,22.8,104.7,24.9z"/>
		<path class="st2" d="M70.8,24.8c0,2.1-1.6,3.7-3.8,3.7c-2.1,0-3.7-1.6-3.7-3.7c0-2.1,1.6-3.7,3.8-3.7
			C69.3,21.2,70.8,22.8,70.8,24.8L70.8,24.8z"/>
	</g>
</g>
</svg>
