<svg width="104" height="104" viewBox="0 0 104 104" fill="none" xmlns="http://www.w3.org/2000/svg">
    <path
        d="M8.66675 10.6202L23.3146 2.08057L55.7299 20.7497M8.66675 10.6202L41.082 28.9194M8.66675 10.6202V48.0319L15.7466 51.9629M23.3146 101.981L8.66675 93.4411V56.1649M23.3146 101.981V64.7046M23.3146 101.981L55.7299 83.2506V74.7909M95.3334 43.5588V60.367L63.0538 79.0187M95.3334 43.5588L63.0538 62.4002M95.3334 43.5588L63.0538 24.9678L55.7299 28.904M41.082 28.9194V45.9987M41.082 28.9194L55.7299 20.7497M41.082 45.9987L38.0982 44.3369M41.082 45.9987L48.1347 41.7967M8.66675 56.1649L23.3146 64.7046M8.66675 56.1649L15.7466 51.9629M23.3146 64.7046L38.0982 56.1649M38.0982 56.1649V76.6329L55.7299 66.3312M38.0982 56.1649L30.5733 51.9629M38.0982 56.1649V59.8248L41.082 58.062L48.1347 62.0434M55.7299 66.3312L48.1347 62.0434M55.7299 66.3312V74.7909M63.0538 79.0187V62.4002M63.0538 79.0187L55.7299 74.7909M63.0538 62.4002L48.1347 53.8953M48.1347 53.8953L51.4056 51.9629M48.1347 53.8953V62.0434M48.1347 32.9859L65.6308 43.5588L51.4056 51.9629M48.1347 32.9859V41.7967M48.1347 32.9859L55.7299 28.904M55.7299 20.7497V28.904M51.4056 51.9629L48.1347 50.0732V41.7967M23.3146 56.1649V36.1036L38.0982 44.3369M23.3146 56.1649L30.5733 51.9629M23.3146 56.1649L15.7466 51.9629M30.5733 51.9629L38.0982 47.6068V44.3369"
        stroke="#27FFF2" stroke-linecap="round" stroke-linejoin="round" />
</svg>