<svg width="104" height="105" viewBox="0 0 104 105" fill="none" xmlns="http://www.w3.org/2000/svg">
    <path
        d="M52.0089 8.68237L89.5366 30.349V73.6824L52.0089 95.349M52.0089 8.68237L14.4811 30.349V73.6824L52.0089 95.349M52.0089 8.68237L51.9659 44.6023M52.0089 95.349L51.9145 51.9991M51.9659 44.6023L89.4937 66.2689L51.9659 87.9356L14.4382 66.2689L51.9659 44.6023ZM51.9145 51.9991L14.3867 30.3324M51.9145 51.9991L89.4423 30.3324M51.9659 36.2098L89.4937 57.8765L51.9659 79.5431L14.4382 57.8765L51.9659 36.2098ZM51.9659 27.2578L89.4937 48.9245L51.9659 70.5911L14.4382 48.9245L51.9659 27.2578ZM51.9659 17.914L89.4937 39.5807L51.9659 61.2474L14.4382 39.5807L51.9659 17.914Z"
        stroke="#FCE48F" stroke-linecap="round" stroke-linejoin="round" />
</svg>