<svg fill="none" height="1080" viewBox="0 0 1920 1080" width="1920" xmlns="http://www.w3.org/2000/svg" xmlns:xlink="http://www.w3.org/1999/xlink"><linearGradient id="a"><stop offset="0" stop-color="#e3e5e8"/><stop offset="1" stop-color="#e3e5e8" stop-opacity=".4"/></linearGradient><linearGradient id="b" gradientUnits="userSpaceOnUse" x1="674.513" x2="2274.29" xlink:href="#a" y1="355.225" y2="355.251"/><linearGradient id="c" gradientUnits="userSpaceOnUse" x1="1474.4" x2="2274.29" xlink:href="#a" y1="264.005" y2="264.011"/><linearGradient id="d" gradientUnits="userSpaceOnUse" x1="1188.18" x2="1188.18" xlink:href="#a" y1="1006.89" y2="355.226"/><linearGradient id="e" gradientUnits="userSpaceOnUse" x1="651.667" x2="0" xlink:href="#a" y1=".000864" y2="-.003423"/><linearGradient id="f" gradientUnits="userSpaceOnUse" x1="1761" x2="2274" xlink:href="#a" y1="559.999" y2="560.002"/><linearGradient id="g" gradientUnits="userSpaceOnUse" x1="2274.29" x2="674.508" xlink:href="#a" y1="764.105" y2="764.08"/><linearGradient id="h" gradientUnits="userSpaceOnUse" x1="799.889" x2="0" xlink:href="#a" y1=".000864" y2="-.005594"/><linearGradient id="i" gradientUnits="userSpaceOnUse" x1="1474.39" x2="1474.39" xlink:href="#a" y1="437" y2="115"/><linearGradient id="j" gradientUnits="userSpaceOnUse" x1="1474.39" x2="1474.39" xlink:href="#a" y1="682.335" y2="1006.89"/><linearGradient id="k" gradientUnits="userSpaceOnUse" x1="1426.92" x2="1553.07" y1="314.998" y2="752.992"><stop offset="0" stop-color="#0b3cff"/><stop offset="1" stop-color="#0b8aff"/></linearGradient><clipPath id="l"><path d="m0 0h1920v1080h-1920z"/></clipPath><clipPath id="m"><path d="m92 92h160.742v40h-160.742z"/></clipPath><clipPath id="n"><path d="m674.508 115h1599.78v851h-1599.78z"/></clipPath><clipPath id="o"><path d="m1272.02 315h485.936v449h-485.936z"/></clipPath><g clip-path="url(#l)"><path d="m0 0h1920v1080h-1920z" fill="#090a0b"/><path d="m86.1 385.5h11.9v29.6h33.8v-29.6h11.9v71.5h-11.9v-31.7h-33.8v31.7h-11.9zm90.701 73c-16 0-25.7-11.1-25.7-27s9.7-27 25.7-27 25.7 11.1 25.7 27-9.7 27-25.7 27zm0-8.6c10 0 15.2-7.9 15.2-18.4 0-10.6-5.2-18.4-15.2-18.4s-15.2 7.8-15.2 18.4c0 10.5 5.2 18.4 15.2 18.4zm24.887-44h11.1l10.4 38.8h.2l10.4-38.8h10.3l10.5 38.8h.2l10.3-38.8h11.1l-15.6 51.1h-10.6l-11-39h-.2l-10.9 39h-10.5zm114.743 51.1v-61.4h-22.9v-10.1h57.6v10.1h-22.8v61.4zm51.393 1.5c-16 0-25.7-11.1-25.7-27s9.7-27 25.7-27 25.7 11.1 25.7 27-9.7 27-25.7 27zm0-8.6c10 0 15.2-7.9 15.2-18.4 0-10.6-5.2-18.4-15.2-18.4s-15.2 7.8-15.2 18.4c0 10.5 5.2 18.4 15.2 18.4zm103-46.4c0 8.8-5.2 12.9-11.1 14.9v.2c7.5 1.3 13.9 6.8 13.9 17.5 0 13.8-9.5 20.9-24.3 20.9h-32.4v-71.5h30.7c14.7 0 23.2 6.5 23.2 18zm-42 11.6h18.4c8.5 0 11.7-3.4 11.7-9.7s-3.9-9.8-11-9.8h-19.1zm0 8.9v22.9h19.6c10.2 0 13.3-4.8 13.3-11.5 0-7.3-4.5-11.4-12-11.4zm83.932-18.1h10.5v51.1h-10.5v-6.6h-.2c-2.7 4-8 8-16.8 8-9.5 0-17-5.5-17-17.2v-35.3h10.6v32.3c0 6.9 2.9 11.3 10.1 11.3 8.1 0 13.3-4.9 13.3-12.5zm24.402-8.6c-2.9 0-5.9-2-5.9-5.6s3-5.5 5.9-5.5c3.1 0 6 1.9 6 5.5s-2.9 5.6-6 5.6zm-5.2 8.6h10.5v51.1h-10.5zm18.594-20.4h10.6v71.5h-10.6zm54.696 0h10.5v71.5h-10.5v-5.9h-.2c-2.7 3.5-7.7 7.4-15.6 7.4-13.1 0-22.8-10.2-22.8-27s9.7-27 22.8-27c7.9 0 12.9 3.7 15.6 7.6h.2zm-14 64.4c8.6 0 13.9-7.1 13.9-18.4 0-11.4-5.3-18.4-13.9-18.4-9.2 0-14.1 8.4-14.1 18.4s4.9 18.4 14.1 18.4zm-505.148 127.1v-71.5h27.8c19.7 0 31.8 12.8 31.8 35.8s-11.7 35.7-31.5 35.7zm11.9-61.4v51.3h15.3c16 0 20.5-11.9 20.5-25.6s-4.5-25.7-20.5-25.7zm84.259 23.7c0-3.7-2.2-6.5-9.2-6.5-8.4 0-11.5 2.6-12 9.2h-10.2c.5-9.8 6.8-17.5 22.2-17.5 11.3 0 19.7 4.3 19.7 17.9v24.3c0 3.6.8 5.5 4.9 5.1v5c-2.4.9-4.1 1.1-6.1 1.1-5.6 0-8.2-2-9.2-7h-.2c-3.2 4.5-9 7.6-16.9 7.6-10.4 0-16.8-6-16.8-14.6 0-11.2 8.3-14.7 21.1-17.2 7.9-1.5 12.7-2.5 12.7-7.4zm-14.7 30.9c8.7 0 14.7-4.3 14.7-12.6v-7.7c-1.7 1.2-5.8 2.4-10.7 3.4-8.7 1.9-12.5 4.4-12.5 9.6 0 4.7 2.8 7.3 8.5 7.3zm57.665-35.7h-9.6v27.7c0 5.8 2.8 6.5 9.6 6.1v8.6c-2.1.5-4.4.8-7.2.8-8.4 0-13-3.8-13-14.6v-28.6h-7.4v-8.6h7.4v-16.1h10.6v16.1h9.6zm36.824 4.8c0-3.7-2.2-6.5-9.2-6.5-8.4 0-11.5 2.6-12 9.2h-10.2c.5-9.8 6.8-17.5 22.2-17.5 11.3 0 19.7 4.3 19.7 17.9v24.3c0 3.6.8 5.5 4.9 5.1v5c-2.4.9-4.1 1.1-6.1 1.1-5.6 0-8.2-2-9.2-7h-.2c-3.2 4.5-9 7.6-16.9 7.6-10.4 0-16.8-6-16.8-14.6 0-11.2 8.3-14.7 21.1-17.2 7.9-1.5 12.7-2.5 12.7-7.4zm-14.7 30.9c8.7 0 14.7-4.3 14.7-12.6v-7.7c-1.7 1.2-5.8 2.4-10.7 3.4-8.7 1.9-12.5 4.4-12.5 9.6 0 4.7 2.8 7.3 8.5 7.3zm32.842-23.5h26.9v9.8h-26.9zm34.582 30.3v-71.5h27.8c19.7 0 31.8 12.8 31.8 35.8s-11.7 35.7-31.5 35.7zm11.9-61.4v51.3h15.3c16 0 20.5-11.9 20.5-25.6s-4.5-25.7-20.5-25.7zm78.441 9.1c1.8 0 3.1.1 4.6.3v9.9h-.2c-10.1-1.7-18.2 5.1-18.2 16v26.1h-10.5v-51.1h10.5v9.6h.2c2.7-6.4 6.9-10.8 13.6-10.8zm15.244-7.4c-2.9 0-5.9-2-5.9-5.6s3-5.5 5.9-5.5c3.1 0 6 1.9 6 5.5s-2.9 5.6-6 5.6zm-5.2 8.6h10.5v51.1h-10.5zm14.175 0h11.1l12.9 40h.1l12.9-40h11.1l-18.1 51.1h-11.9zm72.475 44c8.7 0 12.2-5.4 13.1-8.5h10.5c-2.6 9.7-10.2 17.1-23.3 17.1-15.9 0-25.6-11-25.6-27 0-16.6 9.7-27 25.1-27 16.5 0 24.6 11.5 24.6 29.7h-39.2c0 8.6 5.5 15.7 14.8 15.7zm-.2-37.1c-8.5 0-14.6 5.7-14.6 13.6h28.7c0-7.9-5.6-13.6-14.1-13.6zm57.299-8.3c9.5 0 17 5.5 17 17.2v35.3h-10.6v-32.3c0-6.9-2.9-11.3-10.1-11.3-8.1 0-13.3 4.9-13.3 12.5v31.1h-10.5v-51.1h10.5v6.6h.2c2.7-4 8-8 16.8-8zm42.745 52.5v-71.5h27.8c19.7 0 31.8 12.8 31.8 35.8s-11.7 35.7-31.5 35.7zm11.9-61.4v51.3h15.3c16 0 20.5-11.9 20.5-25.6s-4.5-25.7-20.5-25.7zm60.04 1.7c-2.9 0-5.9-2-5.9-5.6s3-5.5 5.9-5.5c3.1 0 6 1.9 6 5.5s-2.9 5.6-6 5.6zm-5.2 8.6h10.5v51.1h-10.5zm54.575 0h10.5v47.6c0 14.7-8.9 21.2-23.4 21.2-14.7 0-22.8-7.7-23.9-16.3h10.6c1 4.5 4.6 7.9 12.9 7.9 8.8 0 13.3-4 13.3-13.2v-6.2h-.2c-2.7 3.8-7.4 7.6-15.5 7.6-12.8 0-22.4-8.9-22.4-25 0-16.2 9.6-25 22.4-25 8.1 0 12.8 3.8 15.5 7.4h.2zm-13.7 40c8.5 0 13.6-5.6 13.6-16.4s-5.1-16.4-13.6-16.4c-9.2 0-13.9 6.9-13.9 16.4 0 9.4 4.7 16.4 13.9 16.4zm38.06-48.6c-2.9 0-5.9-2-5.9-5.6s3-5.5 5.9-5.5c3.1 0 6 1.9 6 5.5s-2.9 5.6-6 5.6zm-5.2 8.6h10.5v51.1h-10.5zm43.575 8.6h-9.6v27.7c0 5.8 2.8 6.5 9.6 6.1v8.6c-2.1.5-4.4.8-7.2.8-8.4 0-13-3.8-13-14.6v-28.6h-7.4v-8.6h7.4v-16.1h10.6v16.1h9.6zm36.824 4.8c0-3.7-2.2-6.5-9.2-6.5-8.4 0-11.5 2.6-12 9.2h-10.2c.5-9.8 6.8-17.5 22.2-17.5 11.3 0 19.7 4.3 19.7 17.9v24.3c0 3.6.8 5.5 4.9 5.1v5c-2.4.9-4.1 1.1-6.1 1.1-5.6 0-8.2-2-9.2-7h-.2c-3.2 4.5-9 7.6-16.9 7.6-10.4 0-16.8-6-16.8-14.6 0-11.2 8.3-14.7 21.1-17.2 7.9-1.5 12.7-2.5 12.7-7.4zm-14.7 30.9c8.7 0 14.7-4.3 14.7-12.6v-7.7c-1.7 1.2-5.8 2.4-10.7 3.4-8.7 1.9-12.5 4.4-12.5 9.6 0 4.7 2.8 7.3 8.5 7.3zm34.441-64.7h10.6v71.5h-10.6zm-756.166 191.5v-71.5h15.4l20 55h.2l19.9-55h15.4v71.5h-11.6v-54.2h-.2l-18.9 54.2h-9.5l-18.9-54.2h-.2v54.2zm111.101-37.7c0-3.7-2.2-6.5-9.2-6.5-8.4 0-11.5 2.6-12 9.2h-10.2c.5-9.8 6.8-17.5 22.2-17.5 11.3 0 19.7 4.3 19.7 17.9v24.3c0 3.6.8 5.5 4.9 5.1v5c-2.4.9-4.1 1.1-6.1 1.1-5.6 0-8.2-2-9.2-7h-.2c-3.2 4.5-9 7.6-16.9 7.6-10.4 0-16.8-6-16.8-14.6 0-11.2 8.3-14.7 21.1-17.2 7.9-1.5 12.7-2.5 12.7-7.4zm-14.7 30.9c8.7 0 14.7-4.3 14.7-12.6v-7.7c-1.7 1.2-5.8 2.4-10.7 3.4-8.7 1.9-12.5 4.4-12.5 9.6 0 4.7 2.8 7.3 8.5 7.3zm58.541-45.5c1.8 0 3.1.1 4.6.3v9.9h-.2c-10.1-1.7-18.2 5.1-18.2 16v26.1h-10.5v-51.1h10.5v9.6h.2c2.7-6.4 6.9-10.8 13.6-10.8zm9.345-19.2h10.5v40.9l20.8-20.5h12.9l-19.4 19 21.5 32.1h-12.6l-16.1-25.2-7.1 6.7v18.5h-10.5zm68.451 64.4c8.7 0 12.2-5.4 13.1-8.5h10.5c-2.6 9.7-10.2 17.1-23.3 17.1-15.9 0-25.6-11-25.6-27 0-16.6 9.7-27 25.1-27 16.5 0 24.6 11.5 24.6 29.7h-39.2c0 8.6 5.5 15.7 14.8 15.7zm-.2-37.1c-8.5 0-14.6 5.7-14.6 13.6h28.7c0-7.9-5.6-13.6-14.1-13.6zm53.223 1.7h-9.6v27.7c0 5.8 2.8 6.5 9.6 6.1v8.6c-2.1.5-4.4.8-7.2.8-8.4 0-13-3.8-13-14.6v-28.6h-7.4v-8.6h7.4v-16.1h10.6v16.1h9.6zm11.531-17.2c-2.9 0-5.9-2-5.9-5.6s3-5.5 5.9-5.5c3.1 0 6 1.9 6 5.5s-2.9 5.6-6 5.6zm-5.2 8.6h10.5v51.1h-10.5zm46.675-1.4c9.5 0 17 5.5 17 17.2v35.3h-10.6v-32.3c0-6.9-2.9-11.3-10.1-11.3-8.1 0-13.3 4.9-13.3 12.5v31.1h-10.5v-51.1h10.5v6.6h.2c2.7-4 8-8 16.8-8zm60.002 1.4h10.5v47.6c0 14.7-8.9 21.2-23.4 21.2-14.7 0-22.8-7.7-23.9-16.3h10.6c1 4.5 4.6 7.9 12.9 7.9 8.8 0 13.3-4 13.3-13.2v-6.2h-.2c-2.7 3.8-7.4 7.6-15.5 7.6-12.8 0-22.4-8.9-22.4-25 0-16.2 9.6-25 22.4-25 8.1 0 12.8 3.8 15.5 7.4h.2zm-13.7 40c8.5 0 13.6-5.6 13.6-16.4s-5.1-16.4-13.6-16.4c-9.2 0-13.9 6.9-13.9 16.4 0 9.4 4.7 16.4 13.9 16.4zm77.402-31.5c15.3 3.9 26.9 7.2 26.9 23.2 0 11.4-8.6 20.9-26.6 20.9-17.5 0-30.8-9.1-31.5-25.3h11.9c.6 9.1 6.8 15.1 19.6 15.1 10.6 0 14.7-4.7 14.7-10.2 0-8.5-6.1-10.1-20.2-13.6-11.2-2.8-23.3-7.1-23.3-20.7 0-12.7 9.8-19.8 25.4-19.8 15.7 0 27.1 8.2 28.1 22.9h-11.9c-1.1-8.3-6.3-12.7-16.2-12.7-8.5 0-13.6 3.2-13.6 8.5 0 7.8 6.7 9.2 16.7 11.7zm57.188.1h-9.6v27.7c0 5.8 2.8 6.5 9.6 6.1v8.6c-2.1.5-4.4.8-7.2.8-8.4 0-13-3.8-13-14.6v-28.6h-7.4v-8.6h7.4v-16.1h10.6v16.1h9.6zm29.932-9.8c1.8 0 3.1.1 4.6.3v9.9h-.2c-10.1-1.7-18.2 5.1-18.2 16v26.1h-10.5v-51.1h10.5v9.6h.2c2.7-6.4 6.9-10.8 13.6-10.8zm38.486 14.6c0-3.7-2.2-6.5-9.2-6.5-8.4 0-11.5 2.6-12 9.2h-10.2c.5-9.8 6.8-17.5 22.2-17.5 11.3 0 19.7 4.3 19.7 17.9v24.3c0 3.6.8 5.5 4.9 5.1v5c-2.4.9-4.1 1.1-6.1 1.1-5.6 0-8.2-2-9.2-7h-.2c-3.2 4.5-9 7.6-16.9 7.6-10.4 0-16.8-6-16.8-14.6 0-11.2 8.3-14.7 21.1-17.2 7.9-1.5 12.7-2.5 12.7-7.4zm-14.7 30.9c8.7 0 14.7-4.3 14.7-12.6v-7.7c-1.7 1.2-5.8 2.4-10.7 3.4-8.7 1.9-12.5 4.4-12.5 9.6 0 4.7 2.8 7.3 8.5 7.3zm57.665-35.7h-9.6v27.7c0 5.8 2.8 6.5 9.6 6.1v8.6c-2.1.5-4.4.8-7.2.8-8.4 0-13-3.8-13-14.6v-28.6h-7.4v-8.6h7.4v-16.1h10.6v16.1h9.6zm27.743 35.4c8.7 0 12.2-5.4 13.1-8.5h10.5c-2.6 9.7-10.2 17.1-23.3 17.1-15.9 0-25.6-11-25.6-27 0-16.6 9.7-27 25.1-27 16.5 0 24.6 11.5 24.6 29.7h-39.2c0 8.6 5.5 15.7 14.8 15.7zm-.2-37.1c-8.5 0-14.6 5.7-14.6 13.6h28.7c0-7.9-5.6-13.6-14.1-13.6zm65.199-6.9h10.5v47.6c0 14.7-8.9 21.2-23.4 21.2-14.7 0-22.8-7.7-23.9-16.3h10.6c1 4.5 4.6 7.9 12.9 7.9 8.8 0 13.3-4 13.3-13.2v-6.2h-.2c-2.7 3.8-7.4 7.6-15.5 7.6-12.8 0-22.4-8.9-22.4-25 0-16.2 9.6-25 22.4-25 8.1 0 12.8 3.8 15.5 7.4h.2zm-13.7 40c8.5 0 13.6-5.6 13.6-16.4s-5.1-16.4-13.6-16.4c-9.2 0-13.9 6.9-13.9 16.4 0 9.4 4.7 16.4 13.9 16.4zm77.26-40-20.4 54.3c-2.9 7.9-6.2 14.2-16 14.2-3 0-5.5-.5-7.5-1v-8h.9c4.4.6 7.7.3 10-2.5 1.9-2.3 3.3-6.3 1.4-11.1l-18.5-45.9h11.3l14.3 39.1h.2l13.1-39.1z" fill="#fff"/><g clip-path="url(#m)" fill="#f9fafb"><path d="m126.731 109.463c0-4.484.018-8.968-.017-13.4519-.008-.861.239-1.1568 1.121-1.1398 4.167.081 8.353-.1244 12.5.2054 6.259.4973 11.197 5.1523 12.495 11.3043 1.325 6.281-1.432 12.602-6.865 15.724-2.425 1.392-5.061 1.984-7.84 1.988-3.45.005-6.897-.021-10.347.017-.838.009-1.068-.29-1.063-1.099.032-4.516.016-9.03.017-13.546zm6.56-.032c0 2.478.019 4.955-.012 7.431-.009.71.176 1.025.95.995 1.377-.053 2.758-.004 4.137-.019 4.03-.046 7.329-3.045 7.917-7.182.573-4.032-1.748-8.081-5.543-9.044-2.023-.514-4.216-.352-6.33-.529-.852-.072-1.161.211-1.14 1.104.057 2.413.019 4.829.019 7.242z"/><path d="m178.72 123.827c2.31-.015 4.104.04 6.054.524 2.722.676 4.254 2.723 5.042 5.36.18.603-.134.782-.615.914-1.661.458-3.316.948-4.989 1.366-.222.054-.682-.17-.774-.377-.597-1.349-1.697-1.756-3.046-1.773-2.602-.032-5.212.044-7.806-.126-2.566-.168-4.603-1.375-5.426-3.947-.861-2.694-.149-5.074 1.909-7.022.335-.318.678-.507.218-1.042-2.513-2.914-3.005-6.262-1.63-9.765 1.402-3.566 4.305-5.343 8.017-5.865 1.765-.248 3.499-.034 5.207.477.272.081.829-.019.91-.194 1.127-2.4457 3.19-3.2106 5.673-3.2935 1.788-.0584 1.788-.0697 1.788 1.7445 0 .972-.045 1.948.013 2.917.051.849-.224 1.155-1.115 1.149-.644-.004-1.336.235-1.914.543-.215.113-.352.828-.205 1.094 1.874 3.397 1.98 6.807-.123 10.08-2.217 3.451-5.633 4.597-9.586 4.427-.499-.021-.997-.107-1.49-.198-.946-.171-1.428.087-1.69.976-.243.822.077 1.438.821 1.775.385.175.846.234 1.276.245 1.16.032 2.321.011 3.481.011.008-.068-.007.068 0 0zm2.28-12.355c-.015-2.054-1.699-3.61-3.892-3.597-2.101.013-3.78 1.626-3.78 3.631 0 2.053 1.705 3.66 3.866 3.642 2.19-.019 3.821-1.596 3.806-3.678z"/><path d="m235.351 122.335c-1.093.603-1.994 1.249-2.998 1.63-4.58 1.739-9.635-.123-12.201-4.422-2.494-4.179-2.074-10.114.984-13.891 3.632-4.486 10.168-4.663 13.568-1.692.132.115.315.175.488.269.083-.103.177-.165.187-.239.124-.992.688-1.489 1.69-1.49 1.223 0 2.447.024 3.67-.01.631-.017.916.181.914.85-.012 6.651-.012 13.301.002 19.95 0 .628-.253.82-.844.81-1.506-.024-3.011-.032-4.516.002-.718.017-.963-.28-.893-.957.024-.235-.029-.48-.053-.812zm-5.18-14.313c-2.967.004-5.203 2.265-5.207 5.264-.004 2.986 2.259 5.298 5.194 5.304 2.992.005 5.262-2.301 5.253-5.34-.009-2.995-2.251-5.232-5.24-5.23z"/><path d="m216.473 118.043c0 1.794.017 3.512-.023 5.226-.006.217-.26.526-.477.626-2.306 1.068-7.082 1.125-9.341-1.351-1.328-1.455-1.822-3.186-1.833-5.091-.017-2.728-.024-5.456.011-8.184.01-.784-.177-1.127-1.045-1.112-2.263.042-2.265.006-2.265-2.287 0-.846.013-1.694-.005-2.539-.015-.594.218-.871.834-.839.564.03 1.129-.002 1.692.013.56.015.789-.239.782-.795-.017-1.222.009-2.4452-.017-3.6679-.013-.6331.203-.9081.872-.8931 1.504.0339 3.011.0245 4.514 0 .609-.0094.843.2431.829.8422-.024 1.1907.019 2.3828-.022 3.5738-.023.686.211.965.915.944 1.221-.038 2.446.021 3.669-.022.71-.027.945.258.93.936-.028 1.285-.039 2.572.004 3.856.025.724-.281.927-.949.907-1.223-.034-2.448.022-3.669-.023-.738-.028-.904.317-.898.965.02 2.289-.008 4.578.013 6.867.015 1.692.949 2.64 2.655 2.574.883-.034 1.757-.319 2.824-.526z"/><path d="m107.973 92.0154c2.858 3.1671 5.041 6.5941 6.336 10.5016 2.244 6.773 2.792 13.727 1.838 20.798-.184 1.366-.444 2.726-.557 4.098-.081.991-.688.921-1.376.938-.836.023-.781-.52-.774-1.072.123-7.529-1.752-14.52-5.712-20.926-.922-1.488-2.009-2.877-3.052-4.288-.392-.53-.494-1.001-.223-1.641 1.097-2.5982 2.137-5.2189 3.203-7.8302.068-.1658.17-.3165.317-.584z"/><path d="m95.6132 92c2.1723 2.4492 3.9621 4.9644 5.2258 7.8131 3.147 7.0939 3.874 14.5369 3.092 22.1809-.181 1.777-.529 3.536-.669 5.315-.084 1.087-.712 1.057-1.475 1.042-.859-.019-.708-.637-.701-1.146.113-7.905-1.9648-15.178-6.3094-21.785-.7913-1.204-1.7238-2.314-2.5133-3.517-.2204-.336-.341-.924-.2034-1.28 1.0682-2.7768 2.2118-5.5256 3.3366-8.2801.0358-.0848.0998-.1601.2167-.3429z"/><path d="m252.723 108.968c0 4.672-.02 9.346.019 14.019.008.887-.282 1.155-1.136 1.123-1.409-.055-2.822-.038-4.233-.004-.703.017-.914-.256-.914-.944.017-9.535.017-19.07 0-28.6054 0-.7328.234-1.0079.976-.9853 1.409.0433 2.824.0584 4.233 0 .844-.0339 1.076.2826 1.072 1.0927-.028 4.7667-.015 9.535-.015 14.302z"/><path d="m197.994 113.29c0 3.261-.023 6.522.015 9.783.01.784-.235 1.059-1.019 1.035-1.441-.045-2.885-.03-4.326-.006-.631.011-.891-.198-.891-.87.017-6.617.015-13.234 0-19.851 0-.636.205-.908.87-.893 1.442.034 2.887.046 4.326 0 .771-.024 1.048.225 1.038 1.02-.036 3.261-.015 6.522-.015 9.784z"/><path d="m163.087 113.286c0 3.259-.021 6.519.015 9.778.007.767-.204 1.07-1.002 1.044-1.44-.049-2.883-.032-4.324-.006-.635.012-.899-.211-.897-.87.013-6.613.013-13.226 0-19.839 0-.707.283-.923.961-.904 1.409.037 2.82.043 4.229-.002.773-.027 1.044.23 1.035 1.021-.036 3.259-.015 6.519-.017 9.778z"/><path d="m198.77 96.0187c-.013 2.1459-1.66 3.7775-3.832 3.7926-2.197.0151-3.853-1.6429-3.851-3.8548.002-2.2137 1.641-3.7869 3.913-3.7548 2.191.0301 3.783 1.6428 3.77 3.817z"/><path d="m163.852 95.9622c.005 2.1836-1.679 3.851-3.882 3.8453-2.161-.0056-3.809-1.6353-3.835-3.7925-.027-2.1742 1.654-3.8284 3.881-3.8152 2.208.0132 3.832 1.6071 3.837 3.7643z"/></g><g clip-path="url(#n)"><g stroke-width="2.55556"><circle cx="1474.4" cy="549.449" opacity=".2" r="284.944" stroke="#e3e5e8"/><circle cx="1474.4" cy="549.447" opacity=".2" r="366.722" stroke="#e3e5e8"/><path d="m2274.29 356.503h-1599.777" opacity=".2" stroke="url(#b)"/><path d="m2274.29 265.283h-799.89" opacity=".2" stroke="url(#c)"/><path d="m1189.46 355.226v651.664" opacity=".2" stroke="url(#d)"/><path d="m0-1.27778h651.667" opacity=".2" stroke="url(#e)" transform="matrix(.00000001 1 1 -.00000001 1678.84 112.44)"/><path d="m2274 561.278h-513" opacity=".2" stroke="url(#f)"/><path d="m674.508 762.827h1599.782" opacity=".2" stroke="url(#g)"/><path d="m0-1.27778h799.889" opacity=".2" stroke="url(#h)" transform="matrix(1 .00000009 .00000009 -1 674.508 832.33)"/><path d="m1475.67 115v322" opacity=".2" stroke="url(#i)"/><path d="m1473.12 1006.89v-324.555" opacity=".2" stroke="url(#j)"/></g><g clip-path="url(#o)"><path d="m1476.32 355.374c20.17 0 39.58 2.926 57.93 8.344 2.93.87 5.89 1.819 8.9 2.847 5.29 1.827 7.5 7.994 4.82 12.911l-2.48 4.561c-3.36 6.16-10.74 8.823-17.44 6.773-16.36-4.999-33.7-7.675-51.69-7.675h-.04c-24.36 0-47.58 4.943-68.69 13.88-3.44 1.464-6.85 3.006-10.13 4.667-17.08 8.542-32.58 19.773-45.95 33.139l-.08.079c-4.43 4.429-8.66 9.135-12.57 14.039-3.96 4.943-7.68 10.084-11.12 15.423-17.75 27.523-27.99 60.227-27.99 95.304v.04c0 24.36 4.94 47.573 13.88 68.69 1.46 3.441 3 6.842 4.66 10.124 8.54 17.044 19.78 32.586 33.18 45.952l.08.079c4.43 4.429 9.14 8.661 14.04 12.615 4.94 3.955 10.08 7.672 15.42 11.112 27.49 17.638 60.19 27.88 95.27 27.88h.04c24.36 0 47.57-4.943 68.69-13.881 3.44-1.463 6.84-3.005 10.12-4.666 17.08-8.539 32.58-19.765 45.94-33.125.01-.009.02-.014.03-.014.02 0 .03-.005.04-.014l.1-.105c4.43-4.429 8.62-9.095 12.58-13.999 3.95-4.943 7.67-10.084 11.11-15.423 15.59-24.264 25.41-52.609 27.47-83.067.47-6.938 5.48-12.861 12.35-13.92l11.68-1.798c2.17-.335 4.14 1.315 4.14 3.52v.04c0 28.196-5.73 55.087-16.06 79.486-1.66 3.955-3.48 7.87-5.41 11.745-9.89 19.773-22.9 37.727-38.36 53.189l-.08.079c-5.14 5.141-10.6 10.045-16.26 14.592-5.69 4.588-11.66 8.898-17.83 12.853-31.8 20.445-69.64 32.308-110.25 32.308-28.2 0-55.09-5.734-79.49-16.055-3.95-1.661-7.87-3.48-11.75-5.418-19.75-9.875-37.68-22.868-53.13-38.309-.04-.033-.07-.07-.09-.109-.03-.04-.06-.076-.09-.11-5.13-5.126-9.97-10.527-14.55-16.203-4.58-5.694-8.89-11.666-12.85-17.835-20.52-31.794-32.39-69.639-32.39-110.253v-.039c0-28.196 5.74-55.048 16.06-79.487 1.66-3.954 3.48-7.869 5.42-11.745 9.88-19.773 22.89-37.726 38.36-53.189l.08-.079c5.14-5.141 10.59-10.005 16.25-14.592 5.69-4.587 11.67-8.898 17.83-12.852 31.84-20.445 69.68-32.309 110.3-32.309zm56.38 188.952c-16.26 2.51-28.36-14.699-20.49-29.15l79.43-145.86c9.23-16.968 34.8-12.113 37.18 7.061l7.66 61.819c.81 6.567 4.84 12.298 10.75 15.288l55.55 28.134c17.24 8.729 13.15 34.431-5.95 37.378zm-56.38-49.317h.04c4.05 0 6.3 4.382 4.36 7.94l-7.37 13.557c-2.38 4.36-6.69 7.209-11.26 9.138-.05.017-.09.035-.13.053-.71.316-1.42.632-2.13.988-3.56 1.78-6.81 4.113-9.61 6.921l-.08.079c-.91.909-1.74 1.858-2.57 2.847-.83 1.028-1.62 2.096-2.34 3.243-3.67 5.734-5.81 12.575-5.81 19.891v.04c0 5.101 1.03 9.926 2.93 14.355.31.751.63 1.463.99 2.135 1.78 3.559 4.11 6.802 6.92 9.61l.08.079c.91.909 1.85 1.779 2.84 2.57 1.03.831 2.1 1.622 3.25 2.334 5.73 3.677 12.57 5.813 19.89 5.813 5.1 0 9.92-1.028 14.35-2.887.75-.316 1.43-.633 2.14-.989 3.56-1.779 6.8-4.112 9.61-6.92l.08-.079c.51-.514.98-1.028 1.42-1.503.89-.972 2.03-1.694 3.33-1.895l23.48-3.629c3.63-.561 6.6 2.826 5.14 6.196-.51 1.226-1.1 2.492-1.7 3.718-3.11 6.265-7.21 11.902-12.09 16.794-.03.035-.07.066-.11.093-.04.025-.07.054-.11.086-1.6 1.565-3.25 3.091-5.01 4.5-1.82 1.463-3.68 2.808-5.65 4.073-10.09 6.446-22.03 10.203-34.88 10.203-8.94 0-17.44-1.819-25.15-5.102-1.23-.514-2.5-1.107-3.72-1.7-6.29-3.124-11.94-7.237-16.85-12.141l-.12-.118c-1.58-1.582-3.12-3.282-4.54-5.062-1.47-1.819-2.81-3.678-4.08-5.655-6.44-10.045-10.2-22.027-10.2-34.879v-.04c0-8.937 1.82-17.439 5.1-25.151.52-1.226 1.11-2.491 1.7-3.717 3.13-6.248 7.24-11.943 12.14-16.807 1.62-1.621 3.36-3.163 5.18-4.627 1.82-1.463 3.68-2.807 5.66-4.073 10.04-6.525 22.02-10.282 34.88-10.282zm0-70.391c12.1 0 23.8 1.582 34.92 4.588 1.81.474 3.59.988 5.37 1.581 1.51.501 2.2 2.227 1.44 3.619l-6.64 12.214c-3.18 5.839-9.97 8.591-16.51 7.448-6.04-1.055-12.27-1.61-18.62-1.61-14.79 0-28.91 3.006-41.76 8.424-2.02.87-4.08 1.819-6.17 2.847l-.16.079c-10.32 5.18-19.65 11.982-27.76 20.089l-.08.079c-2.69 2.689-5.22 5.536-7.63 8.502-2.41 3.006-4.67 6.13-6.76 9.373-10.72 16.688-16.93 36.579-16.93 57.894v.04c0 14.79 3.01 28.908 8.42 41.76.87 2.096 1.82 4.152 2.85 6.169 5.18 10.361 12.02 19.773 20.17 27.919 2.73 2.729 5.61 5.299 8.58 7.712 3.01 2.412 6.13 4.666 9.37 6.762 16.69 10.638 36.58 16.846 57.9 16.846h.04c14.79 0 28.9-3.005 41.76-8.423 2.09-.87 4.15-1.819 6.17-2.847 10.36-5.181 19.77-12.022 27.91-20.168 2.73-2.729 5.34-5.616 7.72-8.582 2.41-3.005 4.66-6.129 6.76-9.372 6.99-10.872 12.05-23.061 14.74-36.127 1.31-6.358 6.15-11.585 12.56-12.576 8.92-1.377 16.89 5.797 15.31 14.678-1.78 9.978-4.65 19.582-8.48 28.686-1.11 2.61-2.3 5.22-3.6 7.751-6.53 13.09-15.15 24.953-25.35 35.156l-.08.079c-3.4 3.401-7 6.604-10.72 9.649-3.75 3.045-7.71 5.893-11.78 8.503-21.04 13.485-46.07 21.354-72.88 21.354-18.63 0-36.43-3.796-52.56-10.598-2.61-1.107-5.22-2.294-7.75-3.599-13.07-6.514-24.92-15.117-35.11-25.298-.03-.033-.06-.07-.09-.11-.02-.039-.05-.076-.09-.109-3.38-3.386-6.56-6.929-9.56-10.667-3.04-3.757-5.89-7.711-8.5-11.784-13.52-21.039-21.35-46.031-21.35-72.883v-.039c0-18.626 3.79-36.422 10.64-52.556 1.1-2.61 2.29-5.22 3.59-7.751 6.53-13.09 15.15-24.953 25.35-35.156l.08-.079c3.4-3.401 6.96-6.604 10.72-9.61 3.76-3.045 7.71-5.892 11.78-8.502 20.92-13.525 45.96-21.355 72.77-21.355z" fill="url(#k)"/></g></g></g></svg>