<svg fill="none" height="1080" viewBox="0 0 1920 1080" width="1920" xmlns="http://www.w3.org/2000/svg" xmlns:xlink="http://www.w3.org/1999/xlink"><linearGradient id="a"><stop offset="0" stop-color="#e3e5e8"/><stop offset="1" stop-color="#e3e5e8" stop-opacity=".4"/></linearGradient><linearGradient id="b" gradientUnits="userSpaceOnUse" x1="634.513" x2="2234.29" xlink:href="#a" y1="332.225" y2="332.251"/><linearGradient id="c" gradientUnits="userSpaceOnUse" x1="1442.4" x2="2242.29" xlink:href="#a" y1="251.005" y2="251.011"/><linearGradient id="d" gradientUnits="userSpaceOnUse" x1="1148.18" x2="1148.18" xlink:href="#a" y1="982.892" y2="331.226"/><linearGradient id="e" gradientUnits="userSpaceOnUse" x1="651.667" x2="0" xlink:href="#a" y1=".000864" y2="-.003423"/><linearGradient id="f" gradientUnits="userSpaceOnUse" x1="1721" x2="2234" xlink:href="#a" y1="536.999" y2="537.002"/><linearGradient id="g" gradientUnits="userSpaceOnUse" x1="2234.29" x2="634.508" xlink:href="#a" y1="742.105" y2="742.08"/><linearGradient id="h" gradientUnits="userSpaceOnUse" x1="799.889" x2="0" xlink:href="#a" y1=".000864" y2="-.005594"/><linearGradient id="i" gradientUnits="userSpaceOnUse" x1="1443" x2="1443" xlink:href="#a" y1="422" y2="100"/><linearGradient id="j" gradientUnits="userSpaceOnUse" x1="1443" x2="1443" xlink:href="#a" y1="670.335" y2="994.89"/><linearGradient id="k" gradientUnits="userSpaceOnUse" x1="1362" x2="1551.88" y1="475" y2="581.936"><stop offset="0" stop-color="#141f49" stop-opacity=".54"/><stop offset="1" stop-color="#0e142c" stop-opacity=".23"/></linearGradient><linearGradient id="l" gradientUnits="userSpaceOnUse" x1="1522" x2="1362" xlink:href="#a" y1="475.138" y2="475.138"/><linearGradient id="m"><stop offset="0" stop-color="#0b3cff"/><stop offset="1" stop-color="#0b8aff"/></linearGradient><linearGradient id="n" gradientUnits="userSpaceOnUse" x1="1482.39" x2="1522.29" xlink:href="#m" y1="1059.83" y2="453.733"/><linearGradient id="o" gradientUnits="userSpaceOnUse" x1="1518.82" x2="1802.28" xlink:href="#m" y1="374.432" y2="371.571"/><linearGradient id="p" gradientUnits="userSpaceOnUse" x1="1421.78" x2="1685.34" xlink:href="#m" y1="585.433" y2="646.384"/><linearGradient id="q" gradientUnits="userSpaceOnUse" x1="1382.77" x2="1404.12" xlink:href="#m" y1="541.558" y2="720.543"/><clipPath id="r"><path d="m0 0h1920v1080h-1920z"/></clipPath><clipPath id="s"><path d="m635 103h1599v874h-1599z"/></clipPath><g clip-path="url(#r)"><path d="m0 0h1920v1080h-1920z" fill="#090a0b"/><path d="m81 385.5h12.2l12.2 55.4h.2l14.4-55.4h12.2l14.5 55.4h.2l12.2-55.4h12.2l-17.9 71.5h-12.5l-14.7-56h-.2l-14.6 56h-12.6zm121.488 19c9.7 0 17.2 5.5 17.2 17.2v35.3h-10.6v-32.3c0-6.9-2.9-11.3-10.2-11.3-7.7 0-13.2 4.9-13.2 12.5v31.1h-10.5v-71.5h10.5v27h.2c2.7-4 8-8 16.6-8zm55.701 14.8c0-3.7-2.2-6.5-9.2-6.5-8.4 0-11.5 2.6-12 9.2h-10.2c.5-9.8 6.8-17.5 22.2-17.5 11.3 0 19.7 4.3 19.7 17.9v24.3c0 3.6.8 5.5 4.9 5.1v5c-2.4.9-4.1 1.1-6.1 1.1-5.6 0-8.2-2-9.2-7h-.2c-3.2 4.5-9 7.6-16.9 7.6-10.4 0-16.8-6-16.8-14.6 0-11.2 8.3-14.7 21.1-17.2 7.9-1.5 12.7-2.5 12.7-7.4zm-14.7 30.9c8.7 0 14.7-4.3 14.7-12.6v-7.7c-1.7 1.2-5.8 2.4-10.7 3.4-8.7 1.9-12.5 4.4-12.5 9.6 0 4.7 2.8 7.3 8.5 7.3zm57.665-35.7h-9.6v27.7c0 5.8 2.8 6.5 9.6 6.1v8.6c-2.1.5-4.4.8-7.2.8-8.4 0-13-3.8-13-14.6v-28.6h-7.4v-8.6h7.4v-16.1h10.6v16.1h9.6zm23.774 42.5v-71.5h27.8c19.7 0 31.8 12.8 31.8 35.8s-11.7 35.7-31.5 35.7zm11.9-61.4v51.3h15.3c16 0 20.5-11.9 20.5-25.6s-4.5-25.7-20.5-25.7zm60.041 1.7c-2.9 0-5.9-2-5.9-5.6s3-5.5 5.9-5.5c3.1 0 6 1.9 6 5.5s-2.9 5.6-6 5.6zm-5.2 8.6h10.5v51.1h-10.5zm54.575 0h10.5v47.6c0 14.7-8.9 21.2-23.4 21.2-14.7 0-22.8-7.7-23.9-16.3h10.6c1 4.5 4.6 7.9 12.9 7.9 8.8 0 13.3-4 13.3-13.2v-6.2h-.2c-2.7 3.8-7.4 7.6-15.5 7.6-12.8 0-22.4-8.9-22.4-25 0-16.2 9.6-25 22.4-25 8.1 0 12.8 3.8 15.5 7.4h.2zm-13.7 40c8.5 0 13.6-5.6 13.6-16.4s-5.1-16.4-13.6-16.4c-9.2 0-13.9 6.9-13.9 16.4 0 9.4 4.7 16.4 13.9 16.4zm38.059-48.6c-2.9 0-5.9-2-5.9-5.6s3-5.5 5.9-5.5c3.1 0 6 1.9 6 5.5s-2.9 5.6-6 5.6zm-5.2 8.6h10.5v51.1h-10.5zm43.575 8.6h-9.6v27.7c0 5.8 2.8 6.5 9.6 6.1v8.6c-2.1.5-4.4.8-7.2.8-8.4 0-13-3.8-13-14.6v-28.6h-7.4v-8.6h7.4v-16.1h10.6v16.1h9.6zm36.824 4.8c0-3.7-2.2-6.5-9.2-6.5-8.4 0-11.5 2.6-12 9.2h-10.2c.5-9.8 6.8-17.5 22.2-17.5 11.3 0 19.7 4.3 19.7 17.9v24.3c0 3.6.8 5.5 4.9 5.1v5c-2.4.9-4.1 1.1-6.1 1.1-5.6 0-8.2-2-9.2-7h-.2c-3.2 4.5-9 7.6-16.9 7.6-10.4 0-16.8-6-16.8-14.6 0-11.2 8.3-14.7 21.1-17.2 7.9-1.5 12.7-2.5 12.7-7.4zm-14.7 30.9c8.7 0 14.7-4.3 14.7-12.6v-7.7c-1.7 1.2-5.8 2.4-10.7 3.4-8.7 1.9-12.5 4.4-12.5 9.6 0 4.7 2.8 7.3 8.5 7.3zm34.442-64.7h10.6v71.5h-10.6zm36.939 71.5v-71.5h15.4l20 55h.2l19.9-55h15.4v71.5h-11.6v-54.2h-.2l-18.9 54.2h-9.5l-18.9-54.2h-.2v54.2zm111.101-37.7c0-3.7-2.2-6.5-9.2-6.5-8.4 0-11.5 2.6-12 9.2h-10.2c.5-9.8 6.8-17.5 22.2-17.5 11.3 0 19.7 4.3 19.7 17.9v24.3c0 3.6.8 5.5 4.9 5.1v5c-2.4.9-4.1 1.1-6.1 1.1-5.6 0-8.2-2-9.2-7h-.2c-3.2 4.5-9 7.6-16.9 7.6-10.4 0-16.8-6-16.8-14.6 0-11.2 8.3-14.7 21.1-17.2 7.9-1.5 12.7-2.5 12.7-7.4zm-14.7 30.9c8.7 0 14.7-4.3 14.7-12.6v-7.7c-1.7 1.2-5.8 2.4-10.7 3.4-8.7 1.9-12.5 4.4-12.5 9.6 0 4.7 2.8 7.3 8.5 7.3zm58.541-45.5c1.8 0 3.1.1 4.6.3v9.9h-.2c-10.1-1.7-18.2 5.1-18.2 16v26.1h-10.5v-51.1h10.5v9.6h.2c2.7-6.4 6.9-10.8 13.6-10.8zm9.345-19.2h10.5v40.9l20.8-20.5h12.9l-19.4 19 21.5 32.1h-12.6l-16.1-25.2-7.1 6.7v18.5h-10.5zm68.451 64.4c8.7 0 12.2-5.4 13.1-8.5h10.5c-2.6 9.7-10.2 17.1-23.3 17.1-15.9 0-25.6-11-25.6-27 0-16.6 9.7-27 25.1-27 16.5 0 24.6 11.5 24.6 29.7h-39.2c0 8.6 5.5 15.7 14.8 15.7zm-.2-37.1c-8.5 0-14.6 5.7-14.6 13.6h28.7c0-7.9-5.6-13.6-14.1-13.6zm53.223 1.7h-9.6v27.7c0 5.8 2.8 6.5 9.6 6.1v8.6c-2.1.5-4.4.8-7.2.8-8.4 0-13-3.8-13-14.6v-28.6h-7.4v-8.6h7.4v-16.1h10.6v16.1h9.6zm11.531-17.2c-2.9 0-5.9-2-5.9-5.6s3-5.5 5.9-5.5c3.1 0 6 1.9 6 5.5s-2.9 5.6-6 5.6zm-5.2 8.6h10.5v51.1h-10.5zm46.675-1.4c9.5 0 17 5.5 17 17.2v35.3h-10.6v-32.3c0-6.9-2.9-11.3-10.1-11.3-8.1 0-13.3 4.9-13.3 12.5v31.1h-10.5v-51.1h10.5v6.6h.2c2.7-4 8-8 16.8-8zm60 1.4h10.5v47.6c0 14.7-8.9 21.2-23.398 21.2-14.7 0-22.8-7.7-23.9-16.3h10.6c1 4.5 4.6 7.9 12.9 7.9 8.8 0 13.298-4 13.298-13.2v-6.2h-.2c-2.698 3.8-7.398 7.6-15.498 7.6-12.8 0-22.4-8.9-22.4-25 0-16.2 9.6-25 22.4-25 8.1 0 12.8 3.8 15.498 7.4h.2zm-13.698 40c8.5 0 13.598-5.6 13.598-16.4s-5.098-16.4-13.598-16.4c-9.2 0-13.9 6.9-13.9 16.4 0 9.4 4.7 16.4 13.9 16.4zm-901.452 131.1v-71.5h27.8c19.7 0 31.8 12.8 31.8 35.8s-11.7 35.7-31.5 35.7zm11.9-61.4v51.3h15.3c16 0 20.5-11.9 20.5-25.6s-4.5-25.7-20.5-25.7zm84.259 23.7c0-3.7-2.2-6.5-9.2-6.5-8.4 0-11.5 2.6-12 9.2h-10.2c.5-9.8 6.8-17.5 22.2-17.5 11.3 0 19.7 4.3 19.7 17.9v24.3c0 3.6.8 5.5 4.9 5.1v5c-2.4.9-4.1 1.1-6.1 1.1-5.6 0-8.2-2-9.2-7h-.2c-3.2 4.5-9 7.6-16.9 7.6-10.4 0-16.8-6-16.8-14.6 0-11.2 8.3-14.7 21.1-17.2 7.9-1.5 12.7-2.5 12.7-7.4zm-14.7 30.9c8.7 0 14.7-4.3 14.7-12.6v-7.7c-1.7 1.2-5.8 2.4-10.7 3.4-8.7 1.9-12.5 4.4-12.5 9.6 0 4.7 2.8 7.3 8.5 7.3zm57.665-35.7h-9.6v27.7c0 5.8 2.8 6.5 9.6 6.1v8.6c-2.1.5-4.4.8-7.2.8-8.4 0-13-3.8-13-14.6v-28.6h-7.4v-8.6h7.4v-16.1h10.6v16.1h9.6zm36.824 4.8c0-3.7-2.2-6.5-9.2-6.5-8.4 0-11.5 2.6-12 9.2h-10.2c.5-9.8 6.8-17.5 22.2-17.5 11.3 0 19.7 4.3 19.7 17.9v24.3c0 3.6.8 5.5 4.9 5.1v5c-2.4.9-4.1 1.1-6.1 1.1-5.6 0-8.2-2-9.2-7h-.2c-3.2 4.5-9 7.6-16.9 7.6-10.4 0-16.8-6-16.8-14.6 0-11.2 8.3-14.7 21.1-17.2 7.9-1.5 12.7-2.5 12.7-7.4zm-14.7 30.9c8.7 0 14.7-4.3 14.7-12.6v-7.7c-1.7 1.2-5.8 2.4-10.7 3.4-8.7 1.9-12.5 4.4-12.5 9.6 0 4.7 2.8 7.3 8.5 7.3zm79.485-35.8c15.3 3.9 26.9 7.2 26.9 23.2 0 11.4-8.6 20.9-26.6 20.9-17.5 0-30.8-9.1-31.5-25.3h11.9c.6 9.1 6.8 15.1 19.6 15.1 10.6 0 14.7-4.7 14.7-10.2 0-8.5-6.1-10.1-20.2-13.6-11.2-2.8-23.3-7.1-23.3-20.7 0-12.7 9.8-19.8 25.4-19.8 15.7 0 27.1 8.2 28.1 22.9h-11.9c-1.1-8.3-6.3-12.7-16.2-12.7-8.5 0-13.6 3.2-13.6 8.5 0 7.8 6.7 9.2 16.7 11.7zm60.381-9.9c9.7 0 17.2 5.5 17.2 17.2v35.3h-10.6v-32.3c0-6.9-2.9-11.3-10.2-11.3-7.7 0-13.2 4.9-13.2 12.5v31.1h-10.5v-71.5h10.5v27h.2c2.7-4 8-8 16.6-8zm47.802 54c-16 0-25.7-11.1-25.7-27s9.7-27 25.7-27 25.7 11.1 25.7 27-9.7 27-25.7 27zm0-8.6c10 0 15.2-7.9 15.2-18.4 0-10.6-5.2-18.4-15.2-18.4s-15.2 7.8-15.2 18.4c0 10.5 5.2 18.4 15.2 18.4zm64.557-44h10.5v51.1h-10.5v-6.6h-.2c-2.7 4-8 8-16.8 8-9.5 0-17-5.5-17-17.2v-35.3h10.6v32.3c0 6.9 2.9 11.3 10.1 11.3 8.1 0 13.3-4.9 13.3-12.5zm18.701-20.4h10.6v71.5h-10.6zm54.696 0h10.5v71.5h-10.5v-5.9h-.2c-2.7 3.5-7.7 7.4-15.6 7.4-13.1 0-22.8-10.2-22.8-27s9.7-27 22.8-27c7.9 0 12.9 3.7 15.6 7.6h.2zm-14 64.4c8.6 0 13.9-7.1 13.9-18.4 0-11.4-5.3-18.4-13.9-18.4-9.2 0-14.1 8.4-14.1 18.4s4.9 18.4 14.1 18.4zm45.289-64.4h12.7l18.5 33.2h.2l18.6-33.2h12.7l-25.4 43.1v28.4h-11.9v-28.4zm77.839 73c-16 0-25.7-11.1-25.7-27s9.7-27 25.7-27 25.7 11.1 25.7 27-9.7 27-25.7 27zm0-8.6c10 0 15.2-7.9 15.2-18.4 0-10.6-5.2-18.4-15.2-18.4s-15.2 7.8-15.2 18.4c0 10.5 5.2 18.4 15.2 18.4zm64.557-44h10.5v51.1h-10.5v-6.6h-.2c-2.7 4-8 8-16.8 8-9.5 0-17-5.5-17-17.2v-35.3h10.6v32.3c0 6.9 2.9 11.3 10.1 11.3 8.1 0 13.3-4.9 13.3-12.5zm-648.655 130.5h30.9v10.2h-30.9v30.4h-11.9v-71.5h50v10.1h-38.1zm62.102 42.1c-16 0-25.7-11.1-25.7-27s9.7-27 25.7-27 25.7 11.1 25.7 27-9.7 27-25.7 27zm0-8.6c10 0 15.2-7.9 15.2-18.4 0-10.6-5.2-18.4-15.2-18.4s-15.2 7.8-15.2 18.4c0 10.5 5.2 18.4 15.2 18.4zm66.157-25.3c-.4-5.2-3.7-11.5-12.7-11.5-10.3 0-14.7 8.8-14.7 18.4s4.3 18.4 14.7 18.4c9 0 12.3-6.2 12.7-11.9h10.5c-.8 11.8-9.9 20.5-23.2 20.5-15.3 0-25.2-11-25.2-27s9.9-27 25.1-27c13.3 0 22 8.5 23.3 20.1zm49.036-18.7h10.5v51.1h-10.5v-6.6h-.2c-2.7 4-8 8-16.8 8-9.5 0-17-5.5-17-17.2v-35.3h10.6v32.3c0 6.9 2.9 11.3 10.1 11.3 8.1 0 13.3-4.9 13.3-12.5zm40.602 20.2c9.4 2.2 19.6 4.3 19.6 16.5 0 9.8-8.4 15.9-20.8 15.9-16.5 0-23.6-7.7-24.1-18.5h10.2c.5 5.5 2.9 10.2 13.7 10.2 7.3 0 10.4-3.6 10.4-6.8 0-6.4-6.1-6.9-13.6-8.7-8.1-1.9-19.1-3.5-19.1-15.1 0-8.4 7.4-15.1 20.2-15.1 13.9 0 20.5 7.5 21.2 16.4h-10.2c-.7-4-2.7-8.1-10.9-8.1-6.3 0-9.7 2.4-9.7 6 0 5.2 5.7 5.6 13.1 7.3zm75.173 32.4c-21.6 0-35.1-15.8-35.1-37.3s13.5-37.2 35.1-37.2c21.5 0 35.1 15.7 35.1 37.2s-13.6 37.3-35.1 37.3zm0-10.2c16.4 0 23.2-12.6 23.2-27.1 0-14.4-6.8-27-23.2-27s-23.3 12.6-23.3 27c0 14.5 6.9 27.1 23.3 27.1zm68.953-43.8c9.5 0 17 5.5 17 17.2v35.3h-10.6v-32.3c0-6.9-2.9-11.3-10.1-11.3-8.1 0-13.3 4.9-13.3 12.5v31.1h-10.5v-51.1h10.5v6.6h.2c2.7-4 8-8 16.8-8zm31.532 3.9h-11.6c0-13.9 8.2-24.4 25.4-24.4 12.7 0 22.3 7.7 22.3 18.7 0 8.6-4.7 12.5-10.7 16.8s-10.2 7.5-10.2 17.6h-10.3c0-10.7 3.7-16.1 9.9-21.3 4.8-4.2 9.7-6 9.7-12.9 0-5-4.1-9-11-9-8.1 0-13.5 3.9-13.5 14.5zm10.1 49.4c-3.7 0-6.5-2.5-6.5-6.5 0-3.9 2.8-6.5 6.5-6.5 3.6 0 6.4 2.6 6.4 6.5 0 4-2.8 6.5-6.4 6.5z" fill="#fff"/><g clip-path="url(#s)"><g stroke-width="2.55556"><circle cx="1443.44" cy="537.444" opacity=".2" r="203.167" stroke="#e3e5e8"/><path d="m2234.29 333.503h-1599.777" opacity=".2" stroke="url(#b)"/><path d="m2242.29 252.283h-799.89" opacity=".2" stroke="url(#c)"/><path d="m1149.46 331.226v651.666" opacity=".2" stroke="url(#d)"/><path d="m0-1.27778h651.667" opacity=".2" stroke="url(#e)" transform="matrix(.00000001 1 1 -.00000001 1663.84 90.4399)"/><path d="m2234 538.278h-513" opacity=".2" stroke="url(#f)"/><path d="m634.508 740.827h1599.782" opacity=".2" stroke="url(#g)"/><path d="m0-1.27778h799.889" opacity=".2" stroke="url(#h)" transform="matrix(1 .00000009 .00000009 -1 642.508 820.33)"/><path d="m1444.28 100v322" opacity=".2" stroke="url(#i)"/><path d="m1441.72 994.89v-324.555" opacity=".2" stroke="url(#j)"/></g><g opacity=".2"><path d="m1434.2 544.52h-29.28v-15.68h29.28v-30.24h15.68v30.24h29.28v15.68h-29.28v30.24h-15.68z" fill="url(#k)"/><path d="m1434.2 544.52h1.28v-1.278h-1.28zm-29.28 0h-1.28v1.278h1.28zm0-15.68v-1.278h-1.28v1.278zm29.28 0v1.278h1.28v-1.278zm0-30.24v-1.278h-1.28v1.278zm15.68 0h1.28v-1.278h-1.28zm0 30.24h-1.28v1.278h1.28zm29.28 0h1.28v-1.278h-1.28zm0 15.68v1.278h1.28v-1.278zm-29.28 0v-1.278h-1.28v1.278zm0 30.24v1.278h1.28v-1.278zm-15.68 0h-1.28v1.278h1.28zm0-31.518h-29.28v2.556h29.28zm-28 1.278v-15.68h-2.56v15.68zm-1.28-14.402h29.28v-2.556h-29.28zm30.56-1.278v-30.24h-2.56v30.24zm-1.28-28.962h15.68v-2.556h-15.68zm14.4-1.278v30.24h2.56v-30.24zm1.28 31.518h29.28v-2.556h-29.28zm28-1.278v15.68h2.56v-15.68zm1.28 14.402h-29.28v2.556h29.28zm-30.56 1.278v30.24h2.56v-30.24zm1.28 28.962h-15.68v2.556h15.68zm-14.4 1.278v-30.24h-2.56v30.24z" fill="url(#l)"/></g><path d="m1809.72 536.997c0 202.535-164.19 366.722-366.72 366.722-202.54 0-366.72-164.187-366.72-366.722s164.18-366.722 366.72-366.722c202.53 0 366.72 164.187 366.72 366.722z" opacity=".2" stroke="#e3e5e8" stroke-width="2.55556"/><path clip-rule="evenodd" d="m1272.13 911.588-10.97-4.98.71-7.337-4.55-2.063-2.35 31.323 4.69 2.132 22.08-22.37-4.55-2.063zm-11.45-.716 8.52 3.872-10.01 10.767-.07-.034zm34.21 2.358-8.99 23.68 8.83 3.352-1.48 3.895-22.21-8.431 1.48-3.895 8.79 3.337 8.99-23.679zm25.08 15.731-11.51-3.545-.23-7.366-4.77-1.469 1.65 31.368 4.92 1.517 19.05-24.995-4.77-1.468zm-11.45.747 8.95 2.755-8.56 11.954-.08-.025zm43.69.3-6.85 28.688-11.15-2.662c-7.91-1.886-11.54-8.18-9.33-17.409 2.2-9.228 8.11-13.203 16.05-11.308zm-10.65 23.496 4.91-20.583-6.14-1.465c-6.42-1.532-9.37 2.812-10.68 8.309s-.65 10.742 5.77 12.274zm23.14-7.927c-1.24 7.613.33 14.348 2.64 18.945l3.74.611c-1.76-5.345-2.93-11.261-1.7-18.793 1.2-7.369 4.2-12.648 7.56-17.156l-3.74-.611c-3.64 3.627-7.3 9.635-8.5 17.004zm15.26 8.718c.2 3.011 1.72 6.794 7.13 7.401 6.32.709 9.41-4.299 10.06-10.079.65-5.821-1.25-11.389-7.57-12.098-5.45-.612-7.94 2.72-8.67 6.249l-4.88-.547c1.4-6.527 6.44-10.735 13.9-9.897 8.44.948 13.05 7.982 12.06 16.836-.99 8.814-7.04 14.651-15.49 13.703-7.42-.833-11.4-6.053-11.42-12.116zm43.2-8.975-12.03-.511-2.1-7.067-4.98-.211 9.54 29.925 5.15.219 12.09-29.007-4.98-.211zm-10.89 3.625 9.36.397-5.25 13.732-.08-.003zm25.72 8.988c.61 2.955 2.65 6.49 8.09 6.343 6.35-.172 8.72-5.559 8.57-11.373-.16-5.856-2.82-11.107-9.17-10.935-5.48.148-7.49 3.792-7.72 7.389l-4.91.132c.48-6.657 4.89-11.521 12.39-11.724 8.5-.23 14.03 6.1 14.27 15.006.24 8.866-4.94 15.485-13.44 15.714-7.46.202-12.12-4.418-12.99-10.419zm24.94 11.107 3.78-.292c2.68-4.386 4.82-10.964 4.23-18.655-.58-7.444-3.71-13.739-7.04-17.66l-3.78.292c2.98 4.776 5.51 10.29 6.09 17.734.59 7.608-1.08 13.405-3.28 18.581zm33.42-35.113 3.7 25.057 9.34-1.378.61 4.122-23.51 3.465-.6-4.122 9.3-1.371-3.69-25.057zm10.96 6.53c1.36 6.459 6.32 6.805 12.83 7.078l.42.016c4.01.146 6.67.244 7.31 3.287.45 2.14-1.33 3.865-4.76 4.587-4 .842-6.47-.492-7.62-3.749l-4.81 1.012c1.66 5.848 6.96 8.189 13.29 6.855 6.3-1.327 9.65-5.026 8.57-10.152-1.15-5.489-6.4-6.197-11.16-6.375-5.99-.214-8.59-.341-9.31-3.772-.47-2.22.79-4.466 5.06-5.367 5.17-1.088 8.18.807 9.2 4.429l4.8-1.012c-1.66-6.479-7.8-9.022-14.86-7.534-7.27 1.53-9.93 6.096-8.96 10.697zm37.3-17.58c8.57-2.429 15.7 2.325 18.12 10.858s-1.18 16.281-9.75 18.71c-8.53 2.417-15.69-2.286-18.11-10.819s1.2-16.333 9.74-18.749zm1.14 4.048c-6.51 1.843-7.79 7.609-6.16 13.363 1.62 5.716 5.74 9.952 12.24 8.108 6.51-1.843 7.84-7.62 6.22-13.335-1.63-5.755-5.79-9.98-12.3-8.136zm34.8 12.264c-5.12 1.856-8.16-.858-9.68-3.467l-4.61 1.672c2.71 5.424 8.59 8.337 15.61 5.793 7.99-2.895 10.82-10.811 7.8-19.149-3.03-8.377-10.28-12.638-18.27-9.743-7.06 2.558-9.71 8.564-8.07 15.033l4.62-1.673c-.91-3.486-.16-7.577 5-9.446 5.97-2.165 10.15 1.98 12.15 7.487 1.98 5.469 1.42 11.329-4.55 13.493zm35.83-43.431 12.6 26.67-4.97 2.343-21.46-14.36-.08.035 9.46 20.031-4.44 2.096-12.59-26.671 4.92-2.324 21.47 14.267.08-.035-9.43-19.956zm35.26-2.563c-4.34-7.734-12.39-10.692-20.15-6.33-7.74 4.34-9.44 12.77-5.1 20.504 4.34 7.733 12.4 10.635 20.14 6.294 7.77-4.361 9.45-12.734 5.11-20.468zm-20.97 11.771c-2.93-5.216-3.02-11.121 2.87-14.432 5.9-3.312 10.93-.172 13.86 5.043 2.9 5.18 2.97 11.106-2.93 14.417s-10.89.152-13.8-5.028zm34.93-3.378-4.16 2.605-15.65-25 4.16-2.604zm13.7-14.086-14.37-20.857-4.04 2.785 14.37 20.857-7.74 5.336 2.36 3.431 19.57-13.481-2.37-3.431zm16.09-6.524-3.93 2.945-17.69-23.595 3.93-2.945zm-9.92-19.214c4.19 5.102 8.75 3.118 14.65.358l.38-.18c3.63-1.723 6.03-2.864 8.01-.459 1.38 1.69.6 4.045-2.11 6.269-3.16 2.591-5.97 2.548-8.49.19l-3.8 3.114c4.17 4.425 9.95 4.057 14.95-.052 4.98-4.082 6.25-8.911 2.92-12.96-3.56-4.337-8.54-2.541-12.84-.503-5.42 2.574-7.78 3.66-10 .949-1.44-1.753-1.37-4.325 2.01-7.099 4.09-3.35 7.63-3.059 10.21-.314l3.79-3.114c-4.46-4.983-11.08-4.404-16.67.176-5.73 4.71-5.99 9.99-3.01 13.625zm38.77-4.607-3.66 3.277-19.69-21.96 3.66-3.277zm-8.18-33.621c-5.86 5.741-5.34 11.172-.84 15.772l13.59 13.887 3.48-3.404-13.59-13.887c-3.12-3.185-2.94-6.187.31-9.361 3.21-3.144 6.22-3.257 9.33-.073l13.59 13.887 3.51-3.433-13.59-13.887c-4.5-4.599-9.92-5.242-15.79.499zm21.14.864c-3.05-2.715-4.94-5.995-5.52-9.38l-4.65.271-.24-4.076 4.83-.282c.4-2.623 1.63-5.236 3.71-7.578 5.92-6.656 14.49-6.483 21.12-.587 6.62 5.896 7.76 14.362 1.84 21.018-5.9 6.625-14.47 6.51-21.09.614zm1.27-18.248c-1.31 1.479-2.07 3.013-2.39 4.551l5.65-.329.24 4.077-5.63.298c.66 2.183 2.15 4.229 4.12 5.984 4.44 3.949 10.19 5.309 14.68.255 4.5-5.053 2.51-10.635-1.93-14.584-4.47-3.976-10.24-5.305-14.74-.252zm35.71-8.09c-3.33 4.308-7.35 3.647-10.03 2.255l-3 3.883c5.19 3.129 11.72 2.44 16.28-3.467 5.2-6.723 3.36-14.926-3.66-20.35-7.05-5.45-15.45-5.168-20.65 1.555-4.59 5.939-3.61 12.431 1.24 17.015l3-3.884c-2.64-2.456-4.19-6.315-.83-10.656 3.88-5.026 9.63-3.762 14.26-.179 4.61 3.557 7.28 8.802 3.39 13.828zm-1.68-29.707 6.69-10.018-4.47-5.86 2.77-4.151 18.5 25.399-2.86 4.288-30.53-7.388 2.77-4.151zm9.33-6.618-5.2 7.788 14.16 3.899.05-.069zm37.11-26.926-25.88-14.151-2.35 4.307 9.99 5.463-3.47 6.333c-2.37 4.347-6.79 2.102-9.82.557-1.32-.668-2.37-1.206-2.9-1.024l-2.47 4.524.25.138c.39-.368 1.58.19 3.17.932 3.33 1.552 8.38 3.911 11.35.285l.07.04c-.9 3.363.19 6.357 3.81 8.336 4.71 2.573 9.3.619 12.21-4.701zm-14.55-2.363 8.54 4.671-3.19 5.827c-1.44 2.642-3.49 5.096-7.22 3.057-3.76-2.058-2.76-5.086-1.32-7.728zm12.94-22.28-6.15 13.018-3.81-1.797 6.15-13.018-8.09-3.822-7.19 15.219-3.77-1.778 9.28-19.658 26.67 12.592-9.1 19.285-3.77-1.779 7.01-14.846zm25.61-30.594-27.49-10.671-1.73 4.461 20.84 8.089-.03.077-23.66-.821-1.42 3.653 18.02 15.357-.03.077-20.84-8.089-1.73 4.461 27.49 10.671 2.3-5.922-18.18-15.862.03-.076 24.13.517zm-22.82-27.927c2.56-8.535 10.4-11.999 18.9-9.453 8.49 2.546 13.1 9.739 10.54 18.274-2.54 8.496-10.36 12.011-18.85 9.465-8.5-2.546-13.13-9.791-10.59-18.286zm4.03 1.208c-1.94 6.48 2.24 10.659 7.97 12.376 5.69 1.705 11.47.51 13.41-5.97 1.94-6.481-2.22-10.699-7.91-12.404-5.73-1.717-11.52-.483-13.47 5.998zm28.71-24.166-24.7-5.596-1.08 4.787 24.7 5.597-2.08 9.172 4.06.921 5.25-23.173-4.06-.92zm-3.49-22.851c-2.6 5.97-4.72 10.474-11.23 9.411-4.64-.757-7.94-4.889-6.74-12.217 1.16-7.125 5.75-11.935 12.39-11.144l-.79 4.844c-3.75-.36-6.6 1.766-7.45 6.977-.7 4.316.94 6.297 3.18 6.662 3.46.565 4.51-1.812 6.87-7.32 1.89-4.374 4.44-9.015 9.98-8.112 5.17.844 7.41 5.305 6.37 11.656-1.04 6.392-5.13 10.488-11.19 9.919l.79-4.844c3.46.103 5.59-1.722 6.25-5.752.57-3.461-.4-5.75-2.56-6.102-3.07-.5-4.12 1.945-5.7 5.636zm-14.47-29.169c-.82 8.167 3.06 11.999 9.46 12.643l19.33 1.944.49-4.843-19.33-1.944c-4.43-.446-6.22-2.865-5.77-7.379.45-4.474 2.69-6.488 7.12-6.042l19.33 1.944.49-4.884-19.33-1.944c-6.4-.644-10.97 2.337-11.79 10.505zm28.29-26.582c-.16 5.442-3.81 7.269-6.8 7.714l-.15 4.906c6.04-.515 10.92-4.904 11.15-12.366.27-8.494-6.04-14.054-14.9-14.328-8.91-.275-15.55 4.885-15.81 13.379-.23 7.504 4.37 12.186 10.99 13.05l.15-4.906c-3.58-.441-7.1-2.654-6.93-8.138.19-6.349 5.59-8.7 11.44-8.519 5.82.179 11.06 2.859 10.86 9.208z" fill="url(#n)" fill-rule="evenodd"/><path d="m1728.17 537.222c0 157.371-127.58 284.945-284.95 284.945s-284.94-127.574-284.94-284.945c0-157.37 127.57-284.944 284.94-284.944s284.95 127.574 284.95 284.944z" opacity=".2" stroke="#e3e5e8" stroke-width="2.55556"/><g clip-rule="evenodd" fill-rule="evenodd"><path d="m1586.19 235c5.01 2.141 5.38 6.203 4.71 9.145l4.51 1.93c1.72-5.813-.58-11.959-7.45-14.895-7.81-3.342-15.29.504-18.78 8.658-3.5 8.192-1.12 16.255 6.7 19.597 6.9 2.953 12.94.375 16.15-5.471l-4.51-1.931c-1.71 3.17-5.06 5.643-10.1 3.485-5.84-2.498-6.06-8.38-3.76-13.766 2.29-5.347 6.69-9.25 12.53-6.752zm10.14 16.501c-4.35 7.732-2.69 16.142 5.08 20.506 7.73 4.344 15.82 1.41 20.16-6.322 4.35-7.732 2.63-16.126-5.1-20.47-7.77-4.364-15.8-1.446-20.14 6.286zm20.96 11.78c-2.93 5.214-7.92 8.372-13.82 5.058-5.89-3.314-5.83-9.239-2.9-14.454 2.91-5.178 7.94-8.316 13.83-5.002 5.9 3.314 5.8 9.219 2.89 14.398zm-.97 16.693 17.02-24.092 4.48 3.165-1.93 25.757.06.047 12.78-18.094 4.01 2.832-17.01 24.091-4.45-3.141 1.85-25.712-.07-.048-12.73 18.026zm42.85-5.076-3.95-3.385-11.57 28.935 4.04 3.466 26.84-15.824-3.94-3.386-21.41 13.421-.03-.026zm12.35 27.477 10.04 10.317-3.01 2.934-10.05-10.317-6.41 6.243 11.74 12.061-2.99 2.906-15.16-15.579 21.14-20.57 14.87 15.283-2.98 2.906-11.45-11.766zm24.11 7.748-22.88 18.615 3.1 3.808 8.83-7.186 4.56 5.599c3.12 3.843-.62 7.08-3.2 9.309-1.11.963-2.01 1.738-2.04 2.292l3.25 4 .23-.182c-.2-.495.77-1.39 2.06-2.582 2.69-2.494 6.79-6.285 4.55-10.403l.06-.052c2.78 2.103 5.96 2.225 9.16-.379 4.16-3.384 4.09-8.377.26-13.08zm-7.68 12.581 7.55-6.144 4.19 5.152c1.9 2.335 3.4 5.158.1 7.839-3.33 2.708-5.75.641-7.65-1.695zm21.21 25.047c2.18 6.137 3.72 10.868-1.76 14.547-3.9 2.622-9.14 1.862-13.27-4.303-4.03-5.993-3.97-12.64 1.42-16.605l2.73 4.075c-2.98 2.298-3.6 5.801-.66 10.185 2.44 3.63 4.99 3.953 6.87 2.688 2.91-1.954 2.06-4.411.01-10.045-1.61-4.479-2.92-9.612 1.74-12.739 4.34-2.921 9.03-1.197 12.62 4.145 3.61 5.377 3.42 11.166-1.38 14.889l-2.74-4.075c2.59-2.285 2.9-5.078.62-8.468-1.95-2.911-4.22-3.922-6.03-2.703-2.59 1.734-1.68 4.237-.31 8.014zm20.75 10.915-2.48-4.237-25.46 14.893 2.48 4.237zm-18.5 29.372c-3.93-7.997-.54-15.869 7.42-19.779 7.97-3.91 16.23-1.767 20.16 6.23 3.91 7.96.57 15.851-7.39 19.761s-16.28 1.748-20.19-6.212zm3.78-1.855c2.98 6.072 8.88 6.298 14.25 3.661 5.33-2.619 8.76-7.428 5.78-13.5-2.99-6.072-8.91-6.335-14.24-3.716-5.37 2.637-8.78 7.483-5.79 13.555zm31.68 6.707-27.66 10.248 1.71 4.603 20.69-7.668.03.077-16.06 20.162 1.89 5.105 27.65-10.247-1.7-4.603-20.77 7.696-.03-.077 16.16-20.151zm-15.99 44.393 28.76-6.536 2.54 11.182c1.8 7.925-2.24 13.962-11.49 16.064-9.25 2.103-15.43-1.442-17.24-9.407zm25.79-.826-20.64 4.689 1.4 6.155c1.46 6.436 6.66 7.158 12.17 5.906 5.51-1.253 9.93-4.16 8.47-10.596zm-12.72 30.035 1.54 11.947-6.61 3.261.64 4.95 27.87-14.477-.66-5.114-30.63-7.003.64 4.951zm5.42 10.117-1.19-9.287 14.42 2.846.01.082zm-9.63 18.859 25.31-.882-.33-9.44 4.17-.145.82 23.745-4.16.145-.33-9.399-25.31.882zm7.14 21.366-.66 12.026-7.1 2.003-.27 4.984 30.04-9.158.29-5.149-28.85-12.464-.27 4.983zm3.49 10.935.52-9.35 13.66 5.426-.01.082z" fill="url(#o)"/><path d="m1541.49 325.552 10.8 5.332-.94 7.311 4.47 2.209 3.37-31.231-4.62-2.282-22.79 21.644 4.48 2.209zm11.42 1.086-8.39-4.145 10.35-10.438.07.036zm12.23 20.483c6.93 4.404 12.1 2.655 15.55-2.776l10.42-16.396-4.1-2.611-10.43 16.396c-2.39 3.76-5.35 4.271-9.18 1.836-3.8-2.412-4.59-5.313-2.2-9.072l10.42-16.397-4.14-2.633-10.42 16.396c-3.46 5.431-2.85 10.853 4.08 15.257zm13.13 7.868 18.56-22.923 8.92 7.216c6.31 5.113 6.87 12.358.9 19.731-5.97 7.374-13.02 8.409-19.37 3.27zm19.76-16.596-13.32 16.447 4.91 3.971c5.13 4.153 9.66 1.506 13.21-2.886 3.56-4.393 5.23-9.408.1-13.561zm24.93 16.169-3.56-3.38-20.31 21.382 3.56 3.381zm-2.3 14.883 9.7 10.631-3.1 2.837-9.71-10.631-6.61 6.036 11.35 12.428-3.08 2.809-14.66-16.053 21.78-19.887 14.38 15.749-3.07 2.809-11.07-12.124zm23.89 8.578-23.78 17.439 2.9 3.959 17.8-13.049.05.066-9.92 23.794 3.22 4.391 23.78-17.439-2.9-3.958-17.86 13.097-.05-.066 10.01-23.81zm18.26 46.606c2.32-1.931 4.49-5.386 1.81-10.124-3.14-5.527-9.01-5.094-14.07-2.227-5.09 2.888-8.48 7.7-5.35 13.227 2.7 4.774 6.86 4.835 10.15 3.353l2.42 4.271c-6.11 2.7-12.47 1.09-16.17-5.442-4.19-7.394-1.2-15.252 6.55-19.644 7.72-4.371 16-2.898 20.19 4.496 3.68 6.496 1.79 12.782-3.11 16.361zm9.68 26.148-5.69-13.225 7.35-3.162 6.49 15.081 3.83-1.647-8.43-19.59-27.09 11.656 8.59 19.969 3.82-1.647-6.65-15.46 8.23-3.537 5.68 13.224zm6.64 19.828 3.76 13.896-4.06 1.099-3.76-13.895-8.64 2.339 4.4 16.245-4.03 1.089-5.68-20.983 28.47-7.709 5.57 20.585-4.02 1.089-4.29-15.847zm17.34 18.838-29.14 4.546.76 4.85 21.8-3.401.02.081-19.75 16.566.83 5.38 29.15-4.546-.76-4.85-21.89 3.415-.01-.082 19.84-16.538zm-4.26 50.381c3.48-.871 5.48-3.668 5.32-8.038-.23-6.307-5.93-8.699-11.45-8.497-5.57.204-11.1 2.429-10.85 9.148.17 4.658 3.52 8.251 8.22 8.12l-.31-8.327 3.96-.145.49 13.315-13.68.501 26.71 12.438-.42 5.138-30.29 8.319.41-4.974 7.15-1.805 1-12.003-6.75-2.964.39-4.667-.1-2.797 4-1.22-.01-.082c-3.04-1.871-4.83-4.571-4.99-9.023-.31-8.533 5.98-13.551 14.89-13.877 8.86-.324 15.53 4.798 15.84 13.29.28 7.667-3.73 11.942-9.35 13.055zm-10.56 24.217.77-9.331 13.51 5.804-.01.082zm3.83 33.452c3.58-.042 6.18-2.3 7.03-6.588 1.24-6.189-3.76-9.835-9.18-10.917-5.46-1.09-11.35-.206-12.67 6.388-.91 4.571 1.52 8.841 6.12 9.802l1.63-8.171 3.88.775-2.6 13.066-15.17-3.028.66-3.317 4.17-.26.02-.081c-2.53-2.523-3.64-5.564-2.77-9.933 1.67-8.374 8.96-11.799 17.69-10.055 8.7 1.736 14 8.262 12.34 16.595-1.5 7.524-6.39 10.754-12.11 10.538zm-10.93 26.134 4.42-13.702 7.61 2.457-5.04 15.625 3.97 1.279 6.55-20.297-28.07-9.054-6.68 20.689 3.97 1.279 5.16-16.017 8.52 2.748-4.42 13.701zm-18.39.385 26.75 12.44-2.68 5.76-24.05-2.09-.04.075 17.11 17.013-2.68 5.759-26.74-12.44 2.02-4.339 20.27 9.431.03-.075-16.98-16.499 1.65-3.553 23.56 2.361.04-.074-20.27-9.431zm-8.83 53.416 7.59-12.237 6.8 4.215-8.65 13.955 3.54 2.195 11.24-18.128-25.08-15.535-11.45 18.478 3.55 2.195 8.86-14.306 7.61 4.715-7.58 12.237zm-17.5-4.966 23.27 18.12-3.37 4.329-25.64-3.13-.05.065 17.48 13.61-3.02 3.873-23.27-18.121 3.35-4.296 25.59 3.046.06-.065-17.42-13.558zm-3.11 43.15-18.16-17.65-3.42 3.52 18.16 17.651-6.55 6.745 2.98 2.903 16.56-17.04-2.99-2.904zm-36.87.221 17.79 23.526-9.15 6.916c-6.48 4.901-13.65 3.699-19.37-3.868-5.72-7.568-5.03-14.658 1.48-19.583zm11.36 23.163-12.76-16.879-5.04 3.806c-5.26 3.98-3.78 9.015-.37 13.523s7.87 7.337 13.14 3.356zm-32.45.547-10.35 6.165-5.62-4.764-4.29 2.555 24.38 19.805 4.43-2.639-5.78-30.891-4.28 2.555zm-7.13 8.998 8.05-4.793 3.13 14.363-.07.042zm-20.92-1.611 10.6 23.004 8.58-3.952 1.74 3.784-21.58 9.941-1.74-3.784 8.54-3.935-10.6-23.004zm-16.8 14.657-11.41 3.861-4.5-5.836-4.73 1.6 19.69 24.472 4.89-1.653.82-31.415-4.73 1.6zm-8.85 7.306 8.87-3.002.05 14.701-.08.027z" fill="url(#p)"/><path d="m1614.31 555.305.77-4.973-30.27 2.75-.79 5.137 21.91 9.481-.01.081-23.76 2.464-.79 5.095 28.02 11.803.77-4.973-21.81-8.465.01-.081 23.5-2.42.77-4.973-21.68-9.362.01-.082zm-24.89 49.823 4.95-13.516 7.52 2.756-5.66 15.413 3.91 1.435 7.35-20.022-27.69-10.157-7.49 20.409 3.91 1.435 5.8-15.801 8.4 3.083-4.95 13.516zm-9.64 28.127c-3.15-1.791-3.57-4.491-3.08-7.015l-.07-.041c-2 2.427-5.27 3.604-9.11 1.426-4.95-2.808-5.57-7.662-2.56-12.972l6.6-11.625 25.65 14.551-6.25 11.015c-2.99 5.275-7.05 7.002-11.18 4.661zm4.39-17.43-3.74 6.602c-1.73 3.05-1.17 4.89 1.09 6.172 2.27 1.282 4.31.595 5.76-1.952l3.89-6.854zm-3.19-1.811-8.22-4.661-3.99 7.033c-2.07 3.659-.98 5.748 1.42 7.112 2.62 1.486 5.01.705 6.53-1.986zm-29.82 32.822c5.12 4.157 9.19 1.297 14.42-2.592l.33-.253c3.21-2.417 5.34-4.018 7.76-2.059 1.69 1.377 1.39 3.842-.81 6.566-2.58 3.172-5.34 3.695-8.28 1.891l-3.09 3.813c4.97 3.499 10.56 1.976 14.63-3.055 4.06-4.998 4.33-9.983.26-13.282-4.36-3.533-8.88-.773-12.69 2.089-4.78 3.608-6.88 5.147-9.6 2.939-1.77-1.429-2.21-3.963.55-7.36 3.32-4.101 6.86-4.529 9.93-2.357l3.09-3.814c-5.37-3.984-11.74-2.086-16.29 3.522-4.68 5.767-3.87 10.991-.21 13.952zm12.55 17.181-3.5 3.441-20.68-21.035 3.51-3.441zm-15.96 8.834-15.69-19.889-3.85 3.039 15.68 19.889-7.38 5.823 2.58 3.272 18.65-14.712-2.58-3.271zm-23.15 6.665-12.56 7.035-2.05-3.671 12.56-7.035-4.38-7.81-14.68 8.224-2.04-3.635 18.97-10.622 14.41 25.732-18.61 10.421-2.03-3.635 14.32-8.022zm-32.64 23.463-7.27-24.261-4.7 1.409 7.27 24.262-9.01 2.699 1.2 3.991 22.76-6.82-1.2-3.991zm-22.36-19.985 3.76 29.253-12.48 1.604c-6.01.772-10.29-1.797-10.98-7.116-.52-4.091 1.26-6.732 4.51-7.982l-.01-.081c-4.68-.272-5.74-5.749-6.44-9.353-.34-1.722-.59-3.017-1.11-3.111l-.04-.286 5.12-.657c.45.318.64 1.488.87 2.942.53 3.367 1.31 8.256 6.22 7.625l7.16-.92-1.45-11.292zm-1.64 25.747-1.24-9.656-6.59.846c-2.98.384-6.02 1.356-5.47 5.611.54 4.214 3.73 4.429 6.71 4.045zm-39.41.418 12.04.455 2.13 7.057 4.98.188-9.68-29.881-5.15-.194-11.96 29.063 4.99.188zm10.87-3.676-9.35-.353 5.18-13.757.08.003zm-26.57-5.65-12.49-2.525.83-4.125 12.5 2.526 2.48-12.292 4.81.973-5.84 28.909-20.22-4.086.83-4.084 15.4 3.114zm-35.37-10.315 11.98 4.345-2.92 8.066-14.78-5.357-1.42 3.917 19.39 7.03 10.05-27.728-4.61-1.673-4.28 11.789-11.98-4.344zm-11.55 8.477-4.41-2.164 13-26.473 4.41 2.164zm-18.23-14.42c-4.56-2.978-4.22-7.043-3.05-9.823l-4.11-2.685c-2.7 5.426-1.5 11.879 4.75 15.962 7.12 4.648 15.15 2.159 20-5.266 4.87-7.459 3.92-15.814-3.19-20.461-6.28-4.106-12.68-2.617-16.86 2.582l4.11 2.685c2.24-2.824 5.96-4.678 10.55-1.677 5.32 3.474 4.52 9.305 1.31 14.209-3.18 4.869-8.19 7.948-13.51 4.474zm-4.54-35.769-21.56 20.132-7.83-8.381c-5.54-5.938-5.09-13.19 1.84-19.666 6.94-6.476 14.06-6.525 19.63-.556zm-21.86 13.701 15.46-14.444-4.31-4.613c-4.5-4.823-9.36-2.829-13.49 1.028-4.13 3.858-6.48 8.593-1.97 13.416zm-3.31-32.107-6.61-10.074 4.52-5.823-2.73-4.174-18.75 25.207 2.83 4.312 30.61-7.094-2.73-4.175zm-9.3-6.731 5.14 7.831-14.22 3.744-.05-.069zm1.49-20.603-23.18 10.201 3.8 8.646-3.81 1.678-9.57-21.748 3.81-1.678 3.79 8.609 23.18-10.201zm-13.87-16.469-3.02-11.661 6.15-4.063-1.25-4.832-25.84 17.856 1.29 4.992 31.27 3.108-1.25-4.832zm-6.64-9.359 2.35 9.065-14.67-1.017-.02-.08z" fill="url(#q)"/></g></g></g></svg>