<svg fill="none" height="1080" viewBox="0 0 1920 1080" width="1920" xmlns="http://www.w3.org/2000/svg" xmlns:xlink="http://www.w3.org/1999/xlink"><linearGradient id="a"><stop offset="0" stop-color="#e3e5e8"/><stop offset="1" stop-color="#e3e5e8" stop-opacity=".4"/></linearGradient><linearGradient id="b" gradientUnits="userSpaceOnUse" x1="487.72" x2="487.721" xlink:href="#a" y1="1251" y2="899"/><linearGradient id="c" gradientUnits="userSpaceOnUse" x1="418.72" x2="418.72" xlink:href="#a" y1="1180" y2="976"/><linearGradient id="d" gradientUnits="userSpaceOnUse" x1="162.72" x2="162.72" xlink:href="#a" y1="1209" y2="1005"/><linearGradient id="e" gradientUnits="userSpaceOnUse" x1="1468" x2="1468" xlink:href="#a" y1="1228" y2="873"/><linearGradient id="f" gradientUnits="userSpaceOnUse" x1="1550" x2="2063" xlink:href="#a" y1="807.72" y2="807.723"/><linearGradient id="g" gradientUnits="userSpaceOnUse" x1="1140" x2="1140" xlink:href="#a" y1="810" y2="1281"/><linearGradient id="h" gradientUnits="userSpaceOnUse" x1="1948" x2="418" xlink:href="#a" y1="979.001" y2="978.977"/><linearGradient id="i" gradientUnits="userSpaceOnUse" x1="1140" x2="1040" xlink:href="#a" y1="812.001" y2="812.001"/><linearGradient id="j" gradientUnits="userSpaceOnUse" x1="417" x2="-95" xlink:href="#a" y1="835.001" y2="834.998"/><linearGradient id="k" gradientUnits="userSpaceOnUse" x1="799.889" x2="0" xlink:href="#a" y1=".000864" y2="-.005594"/><linearGradient id="l" gradientUnits="userSpaceOnUse" x1="959.72" x2="959.72" xlink:href="#a" y1="1008" y2="884"/><linearGradient id="m"><stop offset="0" stop-color="#bec9e7" stop-opacity=".61"/><stop offset="1" stop-color="#2962ff" stop-opacity="0"/></linearGradient><radialGradient id="n" cx="0" cy="0" gradientTransform="matrix(0 34.7143 -41.6571 0 960 772)" gradientUnits="userSpaceOnUse" r="1" xlink:href="#m"/><linearGradient id="o"><stop offset="0" stop-color="#0b3cff" stop-opacity=".16"/><stop offset="1" stop-color="#0b8aff" stop-opacity="0"/></linearGradient><linearGradient id="p" gradientUnits="userSpaceOnUse" x1="948.4" x2="963.421" xlink:href="#o" y1="784" y2="839.067"/><radialGradient id="q" cx="0" cy="0" gradientTransform="matrix(0 34.7143 -41.6571 0 1469 769)" gradientUnits="userSpaceOnUse" r="1" xlink:href="#m"/><linearGradient id="r" gradientUnits="userSpaceOnUse" x1="1457.4" x2="1472.42" xlink:href="#o" y1="781" y2="836.067"/><radialGradient id="s" cx="0" cy="0" gradientTransform="matrix(0 34.7143 -41.6571 0 489 795)" gradientUnits="userSpaceOnUse" r="1" xlink:href="#m"/><linearGradient id="t" gradientUnits="userSpaceOnUse" x1="477.4" x2="492.421" xlink:href="#o" y1="807" y2="862.067"/><linearGradient id="u" gradientUnits="userSpaceOnUse" x1="1433.28" x2="1433.28" xlink:href="#a" y1="-171" y2="181"/><linearGradient id="v" gradientUnits="userSpaceOnUse" x1="1502.28" x2="1502.28" xlink:href="#a" y1="-100" y2="104"/><linearGradient id="w" gradientUnits="userSpaceOnUse" x1="1758.28" x2="1758.28" xlink:href="#a" y1="-129" y2="75"/><linearGradient id="x" gradientUnits="userSpaceOnUse" x1="450.72" x2="450.721" xlink:href="#a" y1="-148" y2="134"/><linearGradient id="y" gradientUnits="userSpaceOnUse" x1="78" x2="-142" xlink:href="#a" y1="272.28" y2="272.28"/><linearGradient id="z" gradientUnits="userSpaceOnUse" x1="782.28" x2="782.279" xlink:href="#a" y1="-201" y2="196"/><linearGradient id="A" gradientUnits="userSpaceOnUse" x1="-27" x2="1503" xlink:href="#a" y1="100.999" y2="101.023"/><linearGradient id="B" gradientUnits="userSpaceOnUse" x1="1825" x2="2016" xlink:href="#a" y1="244.999" y2="245"/><linearGradient id="C" gradientUnits="userSpaceOnUse" x1="961.28" x2="961.28" xlink:href="#a" y1="72" y2="196"/><linearGradient id="D" gradientUnits="userSpaceOnUse" x1="1397.53" x2="1043.98" y1="433.998" y2="903.356"><stop offset="0" stop-color="#0b3cff"/><stop offset="1" stop-color="#3f65fd"/></linearGradient><clipPath id="E"><path d="m1 554h1919v526h-1919z"/></clipPath><clipPath id="F"><path d="m0 0h1919v526h-1919z" transform="matrix(-1 0 0 -1 1920 526)"/></clipPath><path d="m0 0h1920v1080h-1920z" fill="#090a0b"/><g clip-path="url(#E)"><path d="m490.061 897.939c-.586-.585-1.536-.585-2.122 0l-9.546 9.546c-.585.586-.585 1.536 0 2.122.586.585 1.536.585 2.122 0l8.485-8.486 8.485 8.486c.586.585 1.536.585 2.122 0 .585-.586.585-1.536 0-2.122zm-2.561 1.061v352h3v-352z" fill="url(#b)" opacity=".2"/><path d="m420 976v204" opacity=".2" stroke="url(#c)" stroke-width="3"/><path d="m164 1005v204" opacity=".2" stroke="url(#d)" stroke-width="3"/><path d="m1470.34 871.939c-.59-.585-1.54-.585-2.12 0l-9.55 9.546c-.58.586-.58 1.536 0 2.122.59.585 1.54.585 2.12 0l8.49-8.486 8.48 8.486c.59.585 1.54.585 2.12 0 .59-.586.59-1.536 0-2.122zm-2.56 1.061v355h3v-355z" fill="url(#e)" opacity=".2"/><path d="m1548.94 807.939c-.59.586-.59 1.536 0 2.122l9.55 9.546c.58.585 1.53.585 2.12 0 .58-.586.58-1.536 0-2.122l-8.49-8.485 8.49-8.485c.58-.586.58-1.536 0-2.122-.59-.585-1.54-.585-2.12 0zm514.06-.439h-513v3h513z" fill="url(#f)" opacity=".2"/><path d="m1138.5 1281v-471" opacity=".2" stroke="url(#g)" stroke-width="3"/><path d="m418 977.5h1530" opacity=".2" stroke="url(#h)" stroke-width="3"/><path d="m1038.94 810.939c-.59.586-.59 1.536 0 2.122l9.55 9.546c.58.585 1.53.585 2.12 0 .58-.586.58-1.536 0-2.122l-8.49-8.485 8.49-8.485c.58-.586.58-1.536 0-2.122-.59-.585-1.54-.585-2.12 0zm1.06 2.561h100v-3h-100z" fill="url(#i)" opacity=".2"/><path d="m418.061 836.061c.585-.586.585-1.536 0-2.122l-9.546-9.546c-.586-.585-1.536-.585-2.122 0-.585.586-.585 1.536 0 2.122l8.486 8.485-8.486 8.485c-.585.586-.585 1.536 0 2.122.586.585 1.536.585 2.122 0zm-513.061.439h512v-3h-512z" fill="url(#j)" opacity=".2"/><path d="m0-1.5h799.889" opacity=".2" stroke="url(#k)" stroke-width="3" transform="matrix(1 .00000009 .00000009 -1 162 1005.33)"/><path d="m962.061 882.939c-.586-.585-1.536-.585-2.122 0l-9.546 9.546c-.585.586-.585 1.536 0 2.122.586.585 1.536.585 2.122 0l8.485-8.486 8.485 8.486c.586.585 1.536.585 2.122 0 .585-.586.585-1.536 0-2.122zm-2.561 1.061v124h3v-124z" fill="url(#l)" opacity=".2"/><rect fill="#090a0b" height="79.68" rx="7.84" width="95.68" x="912.16" y="772.16"/><rect height="79.68" rx="7.84" stroke="url(#n)" stroke-width=".32" width="95.68" x="912.16" y="772.16"/><rect fill="url(#p)" height="56" rx="8" width="64" x="928" y="784"/><path d="m952.424 802.648h3.808l3.712 5.76h.064l3.712-5.76h3.808l-5.504 8 6.112 8.352h-3.904l-4.224-6.144h-.064l-4.16 6.144h-3.936l6.112-8.352z" fill="#3f65fd"/><rect fill="#090a0b" height="79.68" rx="7.84" width="95.68" x="1421.16" y="769.16"/><rect height="79.68" rx="7.84" stroke="url(#q)" stroke-width=".32" width="95.68" x="1421.16" y="769.16"/><rect fill="url(#r)" height="56" rx="8" width="64" x="1437" y="781"/><path d="m1461.42 799.648h3.81l3.71 5.76h.07l3.71-5.76h3.81l-5.51 8 6.12 8.352h-3.91l-4.22-6.144h-.07l-4.16 6.144h-3.93l6.11-8.352z" fill="#3f65fd"/><rect fill="#090a0b" height="79.68" rx="7.84" width="95.68" x="441.16" y="795.16"/><rect height="79.68" rx="7.84" stroke="url(#s)" stroke-width=".32" width="95.68" x="441.16" y="795.16"/><rect fill="url(#t)" height="56" rx="8" width="64" x="457" y="807"/><path d="m481.424 825.648h3.808l3.712 5.76h.064l3.712-5.76h3.808l-5.504 8 6.112 8.352h-3.904l-4.224-6.144h-.064l-4.16 6.144h-3.936l6.112-8.352z" fill="#3f65fd"/></g><g clip-path="url(#F)"><g stroke-width="3"><path d="m1432 181v-352" opacity=".2" stroke="url(#u)"/><path d="m1501 104v-204" opacity=".2" stroke="url(#v)"/><path d="m1757 75v-204" opacity=".2" stroke="url(#w)"/><path d="m452 134v-282" opacity=".2" stroke="url(#x)"/><path d="m-142 271h220" opacity=".2" stroke="url(#y)"/><path d="m779.5 196v-397" opacity=".2" stroke="url(#z)"/><path d="m1503 102.5h-1530" opacity=".2" stroke="url(#A)"/><path d="m2016 245h-191" opacity=".2" stroke="url(#B)"/><path d="m0-1.5h799.889" opacity=".2" stroke="url(#k)" transform="matrix(-1 -.00000009 -.00000009 1 1759 74.6699)"/></g><path d="m958.939 197.061c.586.585 1.536.585 2.122 0l9.546-9.546c.585-.586.585-1.536 0-2.122-.586-.585-1.536-.585-2.122 0l-8.485 8.486-8.485-8.486c-.586-.585-1.536-.585-2.122 0-.585.586-.585 1.536 0 2.122zm2.561-1.061v-124h-3v124z" fill="url(#C)" opacity=".2"/></g><path d="m690.088 517v-61.4h-22.9v-10.1h57.6v10.1h-22.8v61.4zm67.021-52.5c9.7 0 17.2 5.5 17.2 17.2v35.3h-10.6v-32.3c0-6.9-2.9-11.3-10.2-11.3-7.7 0-13.2 4.9-13.2 12.5v31.1h-10.5v-71.5h10.5v27h.2c2.7-4 8-8 16.6-8zm47.401 45.4c8.7 0 12.2-5.4 13.1-8.5h10.5c-2.6 9.7-10.2 17.1-23.3 17.1-15.9 0-25.6-11-25.6-27 0-16.6 9.7-27 25.1-27 16.5 0 24.6 11.5 24.6 29.7h-39.2c0 8.6 5.5 15.7 14.8 15.7zm-.2-37.1c-8.5 0-14.6 5.7-14.6 13.6h28.7c0-7.9-5.6-13.6-14.1-13.6zm101.842-9.3c0 8.8-5.2 12.9-11.1 14.9v.2c7.5 1.3 13.9 6.8 13.9 17.5 0 13.8-9.5 20.9-24.3 20.9h-32.4v-71.5h30.7c14.7 0 23.2 6.5 23.2 18zm-42 11.6h18.4c8.5 0 11.7-3.4 11.7-9.7s-3.9-9.8-11-9.8h-19.1zm0 8.9v22.9h19.6c10.2 0 13.3-4.8 13.3-11.5 0-7.3-4.5-11.4-12-11.4zm72.932 25.9c8.7 0 12.2-5.4 13.1-8.5h10.5c-2.6 9.7-10.2 17.1-23.3 17.1-15.9 0-25.6-11-25.6-27 0-16.6 9.7-27 25.1-27 16.5 0 24.6 11.5 24.6 29.7h-39.2c0 8.6 5.5 15.7 14.8 15.7zm-.2-37.1c-8.5 0-14.6 5.7-14.6 13.6h28.7c0-7.9-5.6-13.6-14.1-13.6zm51.9 13.3c9.4 2.2 19.596 4.3 19.596 16.5 0 9.8-8.396 15.9-20.796 15.9-16.5 0-23.6-7.7-24.1-18.5h10.2c.5 5.5 2.9 10.2 13.7 10.2 7.3 0 10.4-3.6 10.4-6.8 0-6.4-6.1-6.9-13.6-8.7-8.1-1.9-19.1-3.5-19.1-15.1 0-8.4 7.4-15.1 20.2-15.1 13.9 0 20.496 7.5 21.196 16.4h-10.196c-.7-4-2.7-8.1-10.9-8.1-6.3 0-9.7 2.4-9.7 6 0 5.2 5.7 5.6 13.1 7.3zm47.856-11.6h-9.6v27.7c0 5.8 2.8 6.5 9.6 6.1v8.6c-2.1.5-4.4.8-7.2.8-8.4 0-13-3.8-13-14.6v-28.6h-7.4v-8.6h7.4v-16.1h10.6v16.1h9.6zm22.68-29h10.5v40.9l20.8-20.5h12.9l-19.4 19 21.5 32.1h-12.6l-16.1-25.2-7.1 6.7v18.5h-10.5zm68.45 64.4c8.7 0 12.2-5.4 13.1-8.5h10.5c-2.6 9.7-10.2 17.1-23.3 17.1-15.9 0-25.6-11-25.6-27 0-16.6 9.7-27 25.1-27 16.5 0 24.6 11.5 24.6 29.7h-39.2c0 8.6 5.5 15.7 14.8 15.7zm-.2-37.1c-8.5 0-14.6 5.7-14.6 13.6h28.7c0-7.9-5.6-13.6-14.1-13.6zm56.3-8.3c13 0 22.7 10.2 22.7 27s-9.7 27-22.7 27c-8 0-13-3.8-15.7-7.6h-.2v23.5h-10.6v-68.5h10.6v6h.2c2.7-3.6 7.7-7.4 15.7-7.4zm-2 45.4c9.2 0 14.1-8.4 14.1-18.4s-4.9-18.4-14.1-18.4c-8.5 0-13.8 7-13.8 18.4 0 11.3 5.3 18.4 13.8 18.4zm53.27-35.4h-9.6v27.7c0 5.8 2.8 6.5 9.6 6.1v8.6c-2.1.5-4.4.8-7.2.8-8.4 0-13-3.8-13-14.6v-28.6h-7.4v-8.6h7.4v-16.1h10.6v16.1h9.6z" fill="#fff"/><path d="m469.862 637v-71.5h27.8c19.7 0 31.8 12.8 31.8 35.8s-11.7 35.7-31.5 35.7zm11.9-61.4v51.3h15.3c16 0 20.5-11.9 20.5-25.6s-4.5-25.7-20.5-25.7zm60.04 1.7c-2.9 0-5.9-2-5.9-5.6s3-5.5 5.9-5.5c3.1 0 6 1.9 6 5.5s-2.9 5.6-6 5.6zm-5.2 8.6h10.5v51.1h-10.5zm54.575 0h10.5v47.6c0 14.7-8.9 21.2-23.4 21.2-14.7 0-22.8-7.7-23.9-16.3h10.6c1 4.5 4.6 7.9 12.9 7.9 8.8 0 13.3-4 13.3-13.2v-6.2h-.2c-2.7 3.8-7.4 7.6-15.5 7.6-12.8 0-22.4-8.9-22.4-25 0-16.2 9.6-25 22.4-25 8.1 0 12.8 3.8 15.5 7.4h.2zm-13.7 40c8.5 0 13.6-5.6 13.6-16.4s-5.1-16.4-13.6-16.4c-9.2 0-13.9 6.9-13.9 16.4 0 9.4 4.7 16.4 13.9 16.4zm38.06-48.6c-2.9 0-5.9-2-5.9-5.6s3-5.5 5.9-5.5c3.1 0 6 1.9 6 5.5s-2.9 5.6-6 5.6zm-5.2 8.6h10.5v51.1h-10.5zm43.575 8.6h-9.6v27.7c0 5.8 2.8 6.5 9.6 6.1v8.6c-2.1.5-4.4.8-7.2.8-8.4 0-13-3.8-13-14.6v-28.6h-7.4v-8.6h7.4v-16.1h10.6v16.1h9.6zm36.824 4.8c0-3.7-2.2-6.5-9.2-6.5-8.4 0-11.5 2.6-12 9.2h-10.2c.5-9.8 6.8-17.5 22.2-17.5 11.3 0 19.7 4.3 19.7 17.9v24.3c0 3.6.8 5.5 4.9 5.1v5c-2.4.9-4.1 1.1-6.1 1.1-5.6 0-8.2-2-9.2-7h-.2c-3.2 4.5-9 7.6-16.9 7.6-10.4 0-16.8-6-16.8-14.6 0-11.2 8.3-14.7 21.1-17.2 7.9-1.5 12.7-2.5 12.7-7.4zm-14.7 30.9c8.7 0 14.7-4.3 14.7-12.6v-7.7c-1.7 1.2-5.8 2.4-10.7 3.4-8.7 1.9-12.5 4.4-12.5 9.6 0 4.7 2.8 7.3 8.5 7.3zm34.441-64.7h10.6v71.5h-10.6zm36.939 71.5v-71.5h15.4l20 55h.2l19.9-55h15.4v71.5h-11.6v-54.2h-.2l-18.9 54.2h-9.5l-18.9-54.2h-.2v54.2zm111.101-37.7c0-3.7-2.2-6.5-9.2-6.5-8.4 0-11.5 2.6-12 9.2h-10.2c.5-9.8 6.8-17.5 22.2-17.5 11.3 0 19.7 4.3 19.7 17.9v24.3c0 3.6.8 5.5 4.9 5.1v5c-2.4.9-4.1 1.1-6.1 1.1-5.6 0-8.2-2-9.2-7h-.2c-3.2 4.5-9 7.6-16.9 7.6-10.4 0-16.8-6-16.8-14.6 0-11.2 8.3-14.7 21.1-17.2 7.9-1.5 12.7-2.5 12.7-7.4zm-14.7 30.9c8.7 0 14.7-4.3 14.7-12.6v-7.7c-1.7 1.2-5.8 2.4-10.7 3.4-8.7 1.9-12.5 4.4-12.5 9.6 0 4.7 2.8 7.3 8.5 7.3zm58.542-45.5c1.8 0 3.1.1 4.6.3v9.9h-.2c-10.1-1.7-18.2 5.1-18.2 16v26.1h-10.5v-51.1h10.5v9.6h.2c2.7-6.4 6.9-10.8 13.6-10.8zm9.344-19.2h10.5v40.9l20.8-20.5h12.9l-19.4 19 21.5 32.1h-12.6l-16.1-25.2-7.1 6.7v18.5h-10.5zm68.452 64.4c8.7 0 12.2-5.4 13.1-8.5h10.495c-2.6 9.7-10.195 17.1-23.295 17.1-15.9 0-25.6-11-25.6-27 0-16.6 9.7-27 25.1-27 16.5 0 24.595 11.5 24.595 29.7h-39.195c0 8.6 5.5 15.7 14.8 15.7zm-.2-37.1c-8.5 0-14.6 5.7-14.6 13.6h28.7c0-7.9-5.6-13.6-14.1-13.6zm53.225 1.7h-9.6v27.7c0 5.8 2.8 6.5 9.6 6.1v8.6c-2.1.5-4.4.8-7.2.8-8.4 0-13-3.8-13-14.6v-28.6h-7.4v-8.6h7.4v-16.1h10.6v16.1h9.6zm11.53-17.2c-2.9 0-5.9-2-5.9-5.6s3-5.5 5.9-5.5c3.1 0 6 1.9 6 5.5s-2.9 5.6-6 5.6zm-5.2 8.6h10.5v51.1h-10.5zm46.67-1.4c9.5 0 17 5.5 17 17.2v35.3h-10.6v-32.3c0-6.9-2.9-11.3-10.1-11.3-8.1 0-13.3 4.9-13.3 12.5v31.1h-10.5v-51.1h10.5v6.6h.2c2.7-4 8-8 16.8-8zm60.01 1.4h10.5v47.6c0 14.7-8.9 21.2-23.4 21.2-14.7 0-22.8-7.7-23.9-16.3h10.6c1 4.5 4.6 7.9 12.9 7.9 8.8 0 13.3-4 13.3-13.2v-6.2h-.2c-2.7 3.8-7.4 7.6-15.5 7.6-12.8 0-22.4-8.9-22.4-25 0-16.2 9.6-25 22.4-25 8.1 0 12.8 3.8 15.5 7.4h.2zm-13.7 40c8.5 0 13.6-5.6 13.6-16.4s-5.1-16.4-13.6-16.4c-9.2 0-13.9 6.9-13.9 16.4 0 9.4 4.7 16.4 13.9 16.4zm77.4-31.5c15.3 3.9 26.9 7.2 26.9 23.2 0 11.4-8.6 20.9-26.6 20.9-17.5 0-30.8-9.1-31.5-25.3h11.9c.6 9.1 6.8 15.1 19.6 15.1 10.6 0 14.7-4.7 14.7-10.2 0-8.5-6.1-10.1-20.2-13.6-11.2-2.8-23.3-7.1-23.3-20.7 0-12.7 9.8-19.8 25.4-19.8 15.7 0 27.1 8.2 28.1 22.9h-11.9c-1.1-8.3-6.3-12.7-16.2-12.7-8.5 0-13.6 3.2-13.6 8.5 0 7.8 6.7 9.2 16.7 11.7zm55.87 35.5c8.7 0 12.2-5.4 13.1-8.5h10.5c-2.6 9.7-10.2 17.1-23.3 17.1-15.9 0-25.6-11-25.6-27 0-16.6 9.7-27 25.1-27 16.5 0 24.6 11.5 24.6 29.7h-39.2c0 8.6 5.5 15.7 14.8 15.7zm-.2-37.1c-8.5 0-14.6 5.7-14.6 13.6h28.7c0-7.9-5.6-13.6-14.1-13.6zm65 11.8c-.4-5.2-3.7-11.5-12.7-11.5-10.3 0-14.7 8.8-14.7 18.4s4.3 18.4 14.7 18.4c9 0 12.3-6.2 12.7-11.9h10.5c-.8 11.8-9.9 20.5-23.2 20.5-15.3 0-25.2-11-25.2-27s9.9-27 25.1-27c13.3 0 22 8.5 23.3 20.1zm39.74-19.9c1.8 0 3.1.1 4.6.3v9.9h-.2c-10.1-1.7-18.2 5.1-18.2 16v26.1h-10.5v-51.1h10.5v9.6h.2c2.7-6.4 6.9-10.8 13.6-10.8zm30.28 45.2c8.7 0 12.2-5.4 13.1-8.5h10.5c-2.6 9.7-10.2 17.1-23.3 17.1-15.9 0-25.6-11-25.6-27 0-16.6 9.7-27 25.1-27 16.5 0 24.6 11.5 24.6 29.7h-39.2c0 8.6 5.5 15.7 14.8 15.7zm-.2-37.1c-8.5 0-14.6 5.7-14.6 13.6h28.7c0-7.9-5.6-13.6-14.1-13.6zm53.23 1.7h-9.6v27.7c0 5.8 2.8 6.5 9.6 6.1v8.6c-2.1.5-4.4.8-7.2.8-8.4 0-13-3.8-13-14.6v-28.6h-7.4v-8.6h7.4v-16.1h10.6v16.1h9.6z" fill="url(#D)"/></svg>