<svg fill="none" height="1080" viewBox="0 0 1920 1080" width="1920" xmlns="http://www.w3.org/2000/svg" xmlns:xlink="http://www.w3.org/1999/xlink"><linearGradient id="a"><stop offset="0" stop-color="#e3e5e8"/><stop offset="1" stop-color="#e3e5e8" stop-opacity=".4"/></linearGradient><linearGradient id="b" gradientUnits="userSpaceOnUse" x1="487.72" x2="487.721" xlink:href="#a" y1="1251" y2="899"/><linearGradient id="c" gradientUnits="userSpaceOnUse" x1="418.72" x2="418.72" xlink:href="#a" y1="1180" y2="976"/><linearGradient id="d" gradientUnits="userSpaceOnUse" x1="162.72" x2="162.72" xlink:href="#a" y1="1209" y2="1005"/><linearGradient id="e" gradientUnits="userSpaceOnUse" x1="1468" x2="1468" xlink:href="#a" y1="1228" y2="873"/><linearGradient id="f" gradientUnits="userSpaceOnUse" x1="1550" x2="2063" xlink:href="#a" y1="807.72" y2="807.723"/><linearGradient id="g" gradientUnits="userSpaceOnUse" x1="1140" x2="1140" xlink:href="#a" y1="810" y2="1281"/><linearGradient id="h" gradientUnits="userSpaceOnUse" x1="1948" x2="418" xlink:href="#a" y1="979.001" y2="978.977"/><linearGradient id="i" gradientUnits="userSpaceOnUse" x1="1140" x2="1040" xlink:href="#a" y1="812.001" y2="812.001"/><linearGradient id="j" gradientUnits="userSpaceOnUse" x1="417" x2="-95" xlink:href="#a" y1="835.001" y2="834.998"/><linearGradient id="k" gradientUnits="userSpaceOnUse" x1="799.889" x2="0" xlink:href="#a" y1=".000864" y2="-.005594"/><linearGradient id="l" gradientUnits="userSpaceOnUse" x1="959.72" x2="959.72" xlink:href="#a" y1="1008" y2="884"/><linearGradient id="m"><stop offset="0" stop-color="#bec9e7" stop-opacity=".61"/><stop offset="1" stop-color="#2962ff" stop-opacity="0"/></linearGradient><radialGradient id="n" cx="0" cy="0" gradientTransform="matrix(0 34.7143 -41.6571 0 960 772)" gradientUnits="userSpaceOnUse" r="1" xlink:href="#m"/><linearGradient id="o"><stop offset="0" stop-color="#0b3cff" stop-opacity=".16"/><stop offset="1" stop-color="#0b8aff" stop-opacity="0"/></linearGradient><linearGradient id="p" gradientUnits="userSpaceOnUse" x1="948.4" x2="963.421" xlink:href="#o" y1="784" y2="839.067"/><radialGradient id="q" cx="0" cy="0" gradientTransform="matrix(0 34.7143 -41.6571 0 1469 769)" gradientUnits="userSpaceOnUse" r="1" xlink:href="#m"/><linearGradient id="r" gradientUnits="userSpaceOnUse" x1="1457.4" x2="1472.42" xlink:href="#o" y1="781" y2="836.067"/><radialGradient id="s" cx="0" cy="0" gradientTransform="matrix(0 34.7143 -41.6571 0 489 795)" gradientUnits="userSpaceOnUse" r="1" xlink:href="#m"/><linearGradient id="t" gradientUnits="userSpaceOnUse" x1="477.4" x2="492.421" xlink:href="#o" y1="807" y2="862.067"/><linearGradient id="u" gradientUnits="userSpaceOnUse" x1="1433.28" x2="1433.28" xlink:href="#a" y1="-171" y2="181"/><linearGradient id="v" gradientUnits="userSpaceOnUse" x1="1502.28" x2="1502.28" xlink:href="#a" y1="-100" y2="104"/><linearGradient id="w" gradientUnits="userSpaceOnUse" x1="1758.28" x2="1758.28" xlink:href="#a" y1="-129" y2="75"/><linearGradient id="x" gradientUnits="userSpaceOnUse" x1="450.72" x2="450.721" xlink:href="#a" y1="-148" y2="134"/><linearGradient id="y" gradientUnits="userSpaceOnUse" x1="78" x2="-142" xlink:href="#a" y1="272.28" y2="272.28"/><linearGradient id="z" gradientUnits="userSpaceOnUse" x1="782.28" x2="782.279" xlink:href="#a" y1="-201" y2="196"/><linearGradient id="A" gradientUnits="userSpaceOnUse" x1="-27" x2="1503" xlink:href="#a" y1="100.999" y2="101.023"/><linearGradient id="B" gradientUnits="userSpaceOnUse" x1="1825" x2="2016" xlink:href="#a" y1="244.999" y2="245"/><linearGradient id="C" gradientUnits="userSpaceOnUse" x1="961.28" x2="961.28" xlink:href="#a" y1="72" y2="196"/><radialGradient id="D" cx="0" cy="0" gradientTransform="matrix(0 38.1857 -150.573 0 959.5 284)" gradientUnits="userSpaceOnUse" r="1" xlink:href="#m"/><linearGradient id="E" gradientUnits="userSpaceOnUse" x1="902.406" x2="906.672" xlink:href="#o" y1="296" y2="363.346"/><clipPath id="F"><path d="m1 554h1919v526h-1919z"/></clipPath><clipPath id="G"><path d="m0 0h1919v526h-1919z" transform="matrix(-1 0 0 -1 1920 526)"/></clipPath><path d="m0 0h1920v1080h-1920z" fill="#090a0b"/><g clip-path="url(#F)"><path d="m490.061 897.939c-.586-.585-1.536-.585-2.122 0l-9.546 9.546c-.585.586-.585 1.536 0 2.122.586.585 1.536.585 2.122 0l8.485-8.486 8.485 8.486c.586.585 1.536.585 2.122 0 .585-.586.585-1.536 0-2.122zm-2.561 1.061v352h3v-352z" fill="url(#b)" opacity=".2"/><path d="m420 976v204" opacity=".2" stroke="url(#c)" stroke-width="3"/><path d="m164 1005v204" opacity=".2" stroke="url(#d)" stroke-width="3"/><path d="m1470.34 871.939c-.59-.585-1.54-.585-2.12 0l-9.55 9.546c-.58.586-.58 1.536 0 2.122.59.585 1.54.585 2.12 0l8.49-8.486 8.48 8.486c.59.585 1.54.585 2.12 0 .59-.586.59-1.536 0-2.122zm-2.56 1.061v355h3v-355z" fill="url(#e)" opacity=".2"/><path d="m1548.94 807.939c-.59.586-.59 1.536 0 2.122l9.55 9.546c.58.585 1.53.585 2.12 0 .58-.586.58-1.536 0-2.122l-8.49-8.485 8.49-8.485c.58-.586.58-1.536 0-2.122-.59-.585-1.54-.585-2.12 0zm514.06-.439h-513v3h513z" fill="url(#f)" opacity=".2"/><path d="m1138.5 1281v-471" opacity=".2" stroke="url(#g)" stroke-width="3"/><path d="m418 977.5h1530" opacity=".2" stroke="url(#h)" stroke-width="3"/><path d="m1038.94 810.939c-.59.586-.59 1.536 0 2.122l9.55 9.546c.58.585 1.53.585 2.12 0 .58-.586.58-1.536 0-2.122l-8.49-8.485 8.49-8.485c.58-.586.58-1.536 0-2.122-.59-.585-1.54-.585-2.12 0zm1.06 2.561h100v-3h-100z" fill="url(#i)" opacity=".2"/><path d="m418.061 836.061c.585-.586.585-1.536 0-2.122l-9.546-9.546c-.586-.585-1.536-.585-2.122 0-.585.586-.585 1.536 0 2.122l8.486 8.485-8.486 8.485c-.585.586-.585 1.536 0 2.122.586.585 1.536.585 2.122 0zm-513.061.439h512v-3h-512z" fill="url(#j)" opacity=".2"/><path d="m0-1.5h799.889" opacity=".2" stroke="url(#k)" stroke-width="3" transform="matrix(1 .00000009 .00000009 -1 162 1005.33)"/><path d="m962.061 882.939c-.586-.585-1.536-.585-2.122 0l-9.546 9.546c-.585.586-.585 1.536 0 2.122.586.585 1.536.585 2.122 0l8.485-8.486 8.485 8.486c.586.585 1.536.585 2.122 0 .585-.586.585-1.536 0-2.122zm-2.561 1.061v124h3v-124z" fill="url(#l)" opacity=".2"/><rect fill="#090a0b" height="79.68" rx="7.84" width="95.68" x="912.16" y="772.16"/><rect height="79.68" rx="7.84" stroke="url(#n)" stroke-width=".32" width="95.68" x="912.16" y="772.16"/><rect fill="url(#p)" height="56" rx="8" width="64" x="928" y="784"/><path d="m952.424 802.648h3.808l3.712 5.76h.064l3.712-5.76h3.808l-5.504 8 6.112 8.352h-3.904l-4.224-6.144h-.064l-4.16 6.144h-3.936l6.112-8.352z" fill="#3f65fd"/><rect fill="#090a0b" height="79.68" rx="7.84" width="95.68" x="1421.16" y="769.16"/><rect height="79.68" rx="7.84" stroke="url(#q)" stroke-width=".32" width="95.68" x="1421.16" y="769.16"/><rect fill="url(#r)" height="56" rx="8" width="64" x="1437" y="781"/><path d="m1461.42 799.648h3.81l3.71 5.76h.07l3.71-5.76h3.81l-5.51 8 6.12 8.352h-3.91l-4.22-6.144h-.07l-4.16 6.144h-3.93l6.11-8.352z" fill="#3f65fd"/><rect fill="#090a0b" height="79.68" rx="7.84" width="95.68" x="441.16" y="795.16"/><rect height="79.68" rx="7.84" stroke="url(#s)" stroke-width=".32" width="95.68" x="441.16" y="795.16"/><rect fill="url(#t)" height="56" rx="8" width="64" x="457" y="807"/><path d="m481.424 825.648h3.808l3.712 5.76h.064l3.712-5.76h3.808l-5.504 8 6.112 8.352h-3.904l-4.224-6.144h-.064l-4.16 6.144h-3.936l6.112-8.352z" fill="#3f65fd"/></g><g clip-path="url(#G)"><g stroke-width="3"><path d="m1432 181v-352" opacity=".2" stroke="url(#u)"/><path d="m1501 104v-204" opacity=".2" stroke="url(#v)"/><path d="m1757 75v-204" opacity=".2" stroke="url(#w)"/><path d="m452 134v-282" opacity=".2" stroke="url(#x)"/><path d="m-142 271h220" opacity=".2" stroke="url(#y)"/><path d="m779.5 196v-397" opacity=".2" stroke="url(#z)"/><path d="m1503 102.5h-1530" opacity=".2" stroke="url(#A)"/><path d="m2016 245h-191" opacity=".2" stroke="url(#B)"/><path d="m0-1.5h799.889" opacity=".2" stroke="url(#k)" transform="matrix(-1 -.00000009 -.00000009 1 1759 74.6699)"/></g><path d="m958.939 197.061c.586.585 1.536.585 2.122 0l9.546-9.546c.585-.586.585-1.536 0-2.122-.586-.585-1.536-.585-2.122 0l-8.485 8.486-8.485-8.486c-.586-.585-1.536-.585-2.122 0-.585.586-.585 1.536 0 2.122zm2.561-1.061v-124h-3v124z" fill="url(#C)" opacity=".2"/></g><rect fill="#090a0b" height="87.68" rx="7.84" width="346.68" x="786.16" y="284.16"/><rect height="87.68" rx="7.84" stroke="url(#D)" stroke-width=".32" width="346.68" x="786.16" y="284.16"/><rect fill="url(#E)" height="64" rx="8" width="315" x="802" y="296"/><path d="m820.148 340v-22.88h4.928l6.4 17.6h.064l6.368-17.6h4.928v22.88h-3.712v-17.344h-.064l-6.048 17.344h-3.04l-6.048-17.344h-.064v17.344zm35.872-12.064c0-1.184-.704-2.08-2.944-2.08-2.688 0-3.68.832-3.84 2.944h-3.264c.16-3.136 2.176-5.6 7.104-5.6 3.616 0 6.304 1.376 6.304 5.728v7.776c0 1.152.256 1.76 1.568 1.632v1.6c-.768.288-1.312.352-1.952.352-1.792 0-2.624-.64-2.944-2.24h-.064c-1.024 1.44-2.88 2.432-5.408 2.432-3.328 0-5.376-1.92-5.376-4.672 0-3.584 2.656-4.704 6.752-5.504 2.528-.48 4.064-.8 4.064-2.368zm-4.704 9.888c2.784 0 4.704-1.376 4.704-4.032v-2.464c-.544.384-1.856.768-3.424 1.088-2.784.608-4 1.408-4 3.072 0 1.504.896 2.336 2.72 2.336zm19.054-14.56c.576 0 .992.032 1.472.096v3.168h-.064c-3.232-.544-5.824 1.632-5.824 5.12v8.352h-3.36v-16.352h3.36v3.072h.064c.864-2.048 2.208-3.456 4.352-3.456zm3.31-6.144h3.36v13.088l6.656-6.56h4.128l-6.208 6.08 6.88 10.272h-4.032l-5.152-8.064-2.272 2.144v5.92h-3.36zm22.224 20.608c2.784 0 3.904-1.728 4.192-2.72h3.36c-.832 3.104-3.264 5.472-7.456 5.472-5.088 0-8.192-3.52-8.192-8.64 0-5.312 3.104-8.64 8.032-8.64 5.28 0 7.872 3.68 7.872 9.504h-12.544c0 2.752 1.76 5.024 4.736 5.024zm-.064-11.872c-2.72 0-4.672 1.824-4.672 4.352h9.184c0-2.528-1.792-4.352-4.512-4.352zm17.352.544h-3.072v8.864c0 1.856.896 2.08 3.072 1.952v2.752c-.672.16-1.408.256-2.304.256-2.688 0-4.16-1.216-4.16-4.672v-9.152h-2.368v-2.752h2.368v-5.152h3.392v5.152h3.072zm4.01-5.504c-.928 0-1.888-.64-1.888-1.792s.96-1.76 1.888-1.76c.992 0 1.92.608 1.92 1.76s-.928 1.792-1.92 1.792zm-1.664 2.752h3.36v16.352h-3.36zm15.256-.448c3.04 0 5.44 1.76 5.44 5.504v11.296h-3.392v-10.336c0-2.208-.928-3.616-3.232-3.616-2.592 0-4.256 1.568-4.256 4v9.952h-3.36v-16.352h3.36v2.112h.064c.864-1.28 2.56-2.56 5.376-2.56zm19.52.448h3.36v15.232c0 4.704-2.848 6.784-7.488 6.784-4.704 0-7.296-2.464-7.648-5.216h3.392c.32 1.44 1.472 2.528 4.128 2.528 2.816 0 4.256-1.28 4.256-4.224v-1.984h-.064c-.864 1.216-2.368 2.432-4.96 2.432-4.096 0-7.168-2.848-7.168-8 0-5.184 3.072-8 7.168-8 2.592 0 4.096 1.216 4.96 2.368h.064zm-4.384 12.8c2.72 0 4.352-1.792 4.352-5.248s-1.632-5.248-4.352-5.248c-2.944 0-4.448 2.208-4.448 5.248 0 3.008 1.504 5.248 4.448 5.248zm25.409-10.08c4.896 1.248 8.608 2.304 8.608 7.424 0 3.648-2.752 6.688-8.512 6.688-5.6 0-9.856-2.912-10.08-8.096h3.808c.192 2.912 2.176 4.832 6.272 4.832 3.392 0 4.704-1.504 4.704-3.264 0-2.72-1.952-3.232-6.464-4.352-3.584-.896-7.456-2.272-7.456-6.624 0-4.064 3.136-6.336 8.128-6.336 5.024 0 8.672 2.624 8.992 7.328h-3.808c-.352-2.656-2.016-4.064-5.184-4.064-2.72 0-4.352 1.024-4.352 2.72 0 2.496 2.144 2.944 5.344 3.744zm18.62.032h-3.072v8.864c0 1.856.896 2.08 3.072 1.952v2.752c-.672.16-1.408.256-2.304.256-2.688 0-4.16-1.216-4.16-4.672v-9.152h-2.368v-2.752h2.368v-5.152h3.392v5.152h3.072zm9.898-3.136c.573 0 .993.032 1.473.096v3.168h-.06c-3.237-.544-5.829 1.632-5.829 5.12v8.352h-3.36v-16.352h3.36v3.072h.064c.864-2.048 2.208-3.456 4.352-3.456zm12.633 4.672c0-1.184-.7-2.08-2.94-2.08-2.69 0-3.68.832-3.84 2.944h-3.27c.16-3.136 2.18-5.6 7.11-5.6 3.61 0 6.3 1.376 6.3 5.728v7.776c0 1.152.26 1.76 1.57 1.632v1.6c-.77.288-1.31.352-1.95.352-1.79 0-2.63-.64-2.95-2.24h-.06c-1.02 1.44-2.88 2.432-5.41 2.432-3.33 0-5.37-1.92-5.37-4.672 0-3.584 2.65-4.704 6.75-5.504 2.53-.48 4.06-.8 4.06-2.368zm-4.7 9.888c2.78 0 4.7-1.376 4.7-4.032v-2.464c-.54.384-1.85.768-3.42 1.088-2.79.608-4 1.408-4 3.072 0 1.504.89 2.336 2.72 2.336zm18.77-11.424h-3.07v8.864c0 1.856.9 2.08 3.07 1.952v2.752c-.67.16-1.41.256-2.3.256-2.69 0-4.16-1.216-4.16-4.672v-9.152h-2.37v-2.752h2.37v-5.152h3.39v5.152h3.07zm9.2 11.328c2.78 0 3.9-1.728 4.19-2.72h3.36c-.83 3.104-3.26 5.472-7.45 5.472-5.09 0-8.2-3.52-8.2-8.64 0-5.312 3.11-8.64 8.04-8.64 5.28 0 7.87 3.68 7.87 9.504h-12.55c0 2.752 1.76 5.024 4.74 5.024zm-.06-11.872c-2.72 0-4.68 1.824-4.68 4.352h9.19c0-2.528-1.79-4.352-4.51-4.352zm21.18-2.208h3.36v15.232c0 4.704-2.85 6.784-7.49 6.784-4.7 0-7.29-2.464-7.65-5.216h3.4c.32 1.44 1.47 2.528 4.12 2.528 2.82 0 4.26-1.28 4.26-4.224v-1.984h-.06c-.87 1.216-2.37 2.432-4.96 2.432-4.1 0-7.17-2.848-7.17-8 0-5.184 3.07-8 7.17-8 2.59 0 4.09 1.216 4.96 2.368h.06zm-4.38 12.8c2.72 0 4.35-1.792 4.35-5.248s-1.63-5.248-4.35-5.248c-2.95 0-4.45 2.208-4.45 5.248 0 3.008 1.5 5.248 4.45 5.248zm12.49-15.552c-.92 0-1.88-.64-1.88-1.792s.96-1.76 1.88-1.76c1 0 1.92.608 1.92 1.76s-.92 1.792-1.92 1.792zm-1.66 2.752h3.36v16.352h-3.36zm13.69 14.08c2.78 0 3.9-1.728 4.19-2.72h3.36c-.83 3.104-3.26 5.472-7.46 5.472-5.08 0-8.19-3.52-8.19-8.64 0-5.312 3.11-8.64 8.03-8.64 5.28 0 7.88 3.68 7.88 9.504h-12.55c0 2.752 1.76 5.024 4.74 5.024zm-.07-11.872c-2.72 0-4.67 1.824-4.67 4.352h9.19c0-2.528-1.8-4.352-4.52-4.352zm16.93 4.256c3.01.704 6.27 1.376 6.27 5.28 0 3.136-2.68 5.088-6.65 5.088-5.28 0-7.55-2.464-7.71-5.92h3.26c.16 1.76.93 3.264 4.38 3.264 2.34 0 3.33-1.152 3.33-2.176 0-2.048-1.95-2.208-4.35-2.784-2.59-.608-6.11-1.12-6.11-4.832 0-2.688 2.37-4.832 6.46-4.832 4.45 0 6.56 2.4 6.79 5.248h-3.27c-.22-1.28-.86-2.592-3.49-2.592-2.01 0-3.1.768-3.1 1.92 0 1.664 1.82 1.792 4.19 2.336z" fill="#3f65fd"/><path d="m537.191 445.5h11.9v71.5h-11.9zm77.514 19c10.3 0 15.6 6.2 15.6 17.2v35.3h-10.6v-32.3c0-6.9-1.4-11.3-8.6-11.3-7.1 0-11.5 4.9-11.5 12.5v31.1h-10.6v-32.3c0-6.9-1.4-11.3-8.7-11.3-7 0-11.5 4.9-11.5 12.5v31.1h-10.5v-51.1h10.5v6.6h.2c2.7-4 7.5-8 15.2-8 7.2 0 11.5 3.3 13.6 8.8h.2c3.8-4.9 8.8-8.8 16.7-8.8zm49.838 0c13 0 22.7 10.2 22.7 27s-9.7 27-22.7 27c-8 0-13-3.8-15.7-7.6h-.2v23.5h-10.6v-68.5h10.6v6h.2c2.7-3.6 7.7-7.4 15.7-7.4zm-2 45.4c9.2 0 14.1-8.4 14.1-18.4s-4.9-18.4-14.1-18.4c-8.5 0-13.8 7-13.8 18.4 0 11.3 5.3 18.4 13.8 18.4zm53.336 8.6c-16 0-25.7-11.1-25.7-27s9.7-27 25.7-27 25.7 11.1 25.7 27-9.7 27-25.7 27zm0-8.6c10 0 15.2-7.9 15.2-18.4 0-10.6-5.2-18.4-15.2-18.4s-15.2 7.8-15.2 18.4c0 10.5 5.2 18.4 15.2 18.4zm55.257-45.2c1.8 0 3.1.1 4.6.3v9.9h-.2c-10.1-1.7-18.2 5.1-18.2 16v26.1h-10.5v-51.1h10.5v9.6h.2c2.7-6.4 6.9-10.8 13.6-10.8zm34.037 9.8h-9.6v27.7c0 5.8 2.8 6.5 9.6 6.1v8.6c-2.1.5-4.4.8-7.2.8-8.4 0-13-3.8-13-14.6v-28.6h-7.4v-8.6h7.4v-16.1h10.6v16.1h9.6zm36.825 4.8c0-3.7-2.2-6.5-9.2-6.5-8.4 0-11.5 2.6-12 9.2h-10.2c.5-9.8 6.8-17.5 22.2-17.5 11.3 0 19.7 4.3 19.7 17.9v24.3c0 3.6.8 5.5 4.9 5.1v5c-2.4.9-4.1 1.1-6.1 1.1-5.6 0-8.2-2-9.2-7h-.2c-3.2 4.5-9 7.6-16.9 7.6-10.4 0-16.8-6-16.8-14.6 0-11.2 8.3-14.7 21.1-17.2 7.9-1.5 12.7-2.5 12.7-7.4zm-14.7 30.9c8.7 0 14.7-4.3 14.7-12.6v-7.7c-1.7 1.2-5.8 2.4-10.7 3.4-8.7 1.9-12.5 4.4-12.5 9.6 0 4.7 2.8 7.3 8.5 7.3zm61.741-45.7c9.5 0 17 5.5 17 17.2v35.3h-10.6v-32.3c0-6.9-2.9-11.3-10.1-11.3-8.1 0-13.3 4.9-13.3 12.5v31.1h-10.5v-51.1h10.5v6.6h.2c2.7-4 8-8 16.8-8zm59.802 20.1c-.4-5.2-3.7-11.5-12.7-11.5-10.3 0-14.7 8.8-14.7 18.4s4.3 18.4 14.7 18.4c9 0 12.3-6.2 12.7-11.9h10.5c-.8 11.8-9.9 20.5-23.2 20.5-15.3 0-25.2-11-25.2-27s9.9-27 25.1-27c13.3 0 22 8.5 23.3 20.1zm38.036 25.3c8.7 0 12.2-5.4 13.1-8.5h10.503c-2.6 9.7-10.2 17.1-23.303 17.1-15.9 0-25.6-11-25.6-27 0-16.6 9.7-27 25.1-27 16.503 0 24.603 11.5 24.603 29.7h-39.203c0 8.6 5.5 15.7 14.8 15.7zm-.2-37.1c-8.5 0-14.6 5.7-14.6 13.6h28.703c0-7.9-5.603-13.6-14.103-13.6zm69.843 45.7c-16 0-25.7-11.1-25.7-27s9.7-27 25.7-27 25.7 11.1 25.7 27-9.7 27-25.7 27zm0-8.6c10 0 15.2-7.9 15.2-18.4 0-10.6-5.2-18.4-15.2-18.4s-15.2 7.8-15.2 18.4c0 10.5 5.2 18.4 15.2 18.4zm54.08-55.8c-6.8-.3-9.4.4-9.4 6.2v5.6h9.4v8.6h-9.4v42.5h-10.6v-42.5h-7.3v-8.6h7.3v-6.5c0-10.8 4.6-14.6 13-14.6 2.6 0 4.9.3 7 .7zm23.1 62.9v-71.5h27.8c19.7 0 31.8 12.8 31.8 35.8s-11.7 35.7-31.5 35.7zm11.9-61.4v51.3h15.3c16 0 20.5-11.9 20.5-25.6s-4.5-25.7-20.5-25.7zm60.04 1.7c-2.9 0-5.9-2-5.9-5.6s3-5.5 5.9-5.5c3.1 0 6 1.9 6 5.5s-2.9 5.6-6 5.6zm-5.2 8.6h10.5v51.1h-10.5zm54.57 0h10.5v47.6c0 14.7-8.9 21.2-23.4 21.2-14.7 0-22.8-7.7-23.9-16.3h10.6c1 4.5 4.6 7.9 12.9 7.9 8.8 0 13.3-4 13.3-13.2v-6.2h-.2c-2.7 3.8-7.4 7.6-15.5 7.6-12.8 0-22.4-8.9-22.4-25 0-16.2 9.6-25 22.4-25 8.1 0 12.8 3.8 15.5 7.4h.2zm-13.7 40c8.5 0 13.6-5.6 13.6-16.4s-5.1-16.4-13.6-16.4c-9.2 0-13.9 6.9-13.9 16.4 0 9.4 4.7 16.4 13.9 16.4zm38.06-48.6c-2.9 0-5.9-2-5.9-5.6s3-5.5 5.9-5.5c3.1 0 6 1.9 6 5.5s-2.9 5.6-6 5.6zm-5.2 8.6h10.5v51.1h-10.5zm43.58 8.6h-9.6v27.7c0 5.8 2.8 6.5 9.6 6.1v8.6c-2.1.5-4.4.8-7.2.8-8.4 0-13-3.8-13-14.6v-28.6h-7.4v-8.6h7.4v-16.1h10.6v16.1h9.6zm36.82 4.8c0-3.7-2.2-6.5-9.2-6.5-8.4 0-11.5 2.6-12 9.2h-10.2c.5-9.8 6.8-17.5 22.2-17.5 11.3 0 19.7 4.3 19.7 17.9v24.3c0 3.6.8 5.5 4.9 5.1v5c-2.4.9-4.1 1.1-6.1 1.1-5.6 0-8.2-2-9.2-7h-.2c-3.2 4.5-9 7.6-16.9 7.6-10.4 0-16.8-6-16.8-14.6 0-11.2 8.3-14.7 21.1-17.2 7.9-1.5 12.7-2.5 12.7-7.4zm-14.7 30.9c8.7 0 14.7-4.3 14.7-12.6v-7.7c-1.7 1.2-5.8 2.4-10.7 3.4-8.7 1.9-12.5 4.4-12.5 9.6 0 4.7 2.8 7.3 8.5 7.3zm34.44-64.7h10.6v71.5h-10.6zm-793.907 191.5v-71.5h15.4l20 55h.2l19.9-55h15.4v71.5h-11.6v-54.2h-.2l-18.9 54.2h-9.5l-18.9-54.2h-.2v54.2zm111.101-37.7c0-3.7-2.2-6.5-9.2-6.5-8.4 0-11.5 2.6-12 9.2h-10.2c.5-9.8 6.8-17.5 22.2-17.5 11.3 0 19.7 4.3 19.7 17.9v24.3c0 3.6.8 5.5 4.9 5.1v5c-2.4.9-4.1 1.1-6.1 1.1-5.6 0-8.2-2-9.2-7h-.2c-3.2 4.5-9 7.6-16.9 7.6-10.4 0-16.8-6-16.8-14.6 0-11.2 8.3-14.7 21.1-17.2 7.9-1.5 12.7-2.5 12.7-7.4zm-14.7 30.9c8.7 0 14.7-4.3 14.7-12.6v-7.7c-1.7 1.2-5.8 2.4-10.7 3.4-8.7 1.9-12.5 4.4-12.5 9.6 0 4.7 2.8 7.3 8.5 7.3zm58.541-45.5c1.8 0 3.1.1 4.6.3v9.9h-.2c-10.1-1.7-18.2 5.1-18.2 16v26.1h-10.5v-51.1h10.5v9.6h.2c2.7-6.4 6.9-10.8 13.6-10.8zm9.344-19.2h10.5v40.9l20.8-20.5h12.9l-19.4 19 21.5 32.1h-12.6l-16.1-25.2-7.1 6.7v18.5h-10.5zm68.452 64.4c8.7 0 12.2-5.4 13.1-8.5h10.5c-2.6 9.7-10.2 17.1-23.3 17.1-15.9 0-25.6-11-25.6-27 0-16.6 9.7-27 25.1-27 16.5 0 24.6 11.5 24.6 29.7h-39.2c0 8.6 5.5 15.7 14.8 15.7zm-.2-37.1c-8.5 0-14.6 5.7-14.6 13.6h28.7c0-7.9-5.6-13.6-14.1-13.6zm53.223 1.7h-9.6v27.7c0 5.8 2.8 6.5 9.6 6.1v8.6c-2.1.5-4.4.8-7.2.8-8.4 0-13-3.8-13-14.6v-28.6h-7.4v-8.6h7.4v-16.1h10.6v16.1h9.6zm11.531-17.2c-2.9 0-5.9-2-5.9-5.6s3-5.5 5.9-5.5c3.1 0 6 1.9 6 5.5s-2.9 5.6-6 5.6zm-5.2 8.6h10.5v51.1h-10.5zm46.675-1.4c9.5 0 17 5.5 17 17.2v35.3h-10.6v-32.3c0-6.9-2.9-11.3-10.1-11.3-8.1 0-13.3 4.9-13.3 12.5v31.1h-10.5v-51.1h10.5v6.6h.2c2.7-4 8-8 16.8-8zm60.001 1.4h10.5v47.6c0 14.7-8.9 21.2-23.4 21.2-14.7 0-22.8-7.7-23.9-16.3h10.6c1 4.5 4.6 7.9 12.9 7.9 8.8 0 13.3-4 13.3-13.2v-6.2h-.2c-2.7 3.8-7.4 7.6-15.5 7.6-12.8 0-22.4-8.9-22.4-25 0-16.2 9.6-25 22.4-25 8.1 0 12.8 3.8 15.5 7.4h.2zm-13.7 40c8.5 0 13.6-5.6 13.6-16.4s-5.1-16.4-13.6-16.4c-9.2 0-13.9 6.9-13.9 16.4 0 9.4 4.7 16.4 13.9 16.4zm55.099-48.6c-2.9 0-5.9-2-5.9-5.6s3-5.5 5.9-5.5c3.1 0 6 1.9 6 5.5s-2.9 5.6-6 5.6zm-5.2 8.6h10.5v51.1h-10.5zm46.68-1.4c9.5 0 17 5.5 17 17.2v35.3h-10.6v-32.3c0-6.9-2.9-11.3-10.1-11.3-8.1 0-13.3 4.9-13.3 12.5v31.1h-10.5v-51.1h10.5v6.6h.2c2.7-4 8-8 16.8-8zm42.74 52.5v-71.5h27.8c19.7 0 31.8 12.8 31.8 35.8s-11.7 35.7-31.5 35.7zm11.9-61.4v51.3h15.3c16 0 20.5-11.9 20.5-25.6s-4.5-25.7-20.5-25.7zm87.74 10.3h10.5v51.1h-10.5v-6.6h-.2c-2.7 4-8 8-16.8 8-9.5 0-17-5.5-17-17.2v-35.3h10.6v32.3c0 6.9 2.9 11.3 10.1 11.3 8.1 0 13.3-4.9 13.3-12.5zm44.81-1.4c13.1 0 22.8 10.2 22.8 27s-9.7 27-22.8 27c-7.9 0-12.9-3.9-15.6-7.4h-.2v5.9h-10.5v-71.5h10.5v26.6h.2c2.7-3.9 7.7-7.6 15.6-7.6zm-1.8 45.4c9.2 0 14.1-8.4 14.1-18.4s-4.9-18.4-14.1-18.4c-8.6 0-13.9 7-13.9 18.4 0 11.3 5.3 18.4 13.9 18.4zm60.84-30.6c0-3.7-2.2-6.5-9.2-6.5-8.4 0-11.5 2.6-12 9.2h-10.2c.5-9.8 6.8-17.5 22.2-17.5 11.3 0 19.7 4.3 19.7 17.9v24.3c0 3.6.8 5.5 4.9 5.1v5c-2.4.9-4.1 1.1-6.1 1.1-5.6 0-8.2-2-9.2-7h-.2c-3.2 4.5-9 7.6-16.9 7.6-10.4 0-16.8-6-16.8-14.6 0-11.2 8.3-14.7 21.1-17.2 7.9-1.5 12.7-2.5 12.7-7.4zm-14.7 30.9c8.7 0 14.7-4.3 14.7-12.6v-7.7c-1.7 1.2-5.8 2.4-10.7 3.4-8.7 1.9-12.5 4.4-12.5 9.6 0 4.7 2.8 7.3 8.5 7.3zm40.14-52.9c-2.9 0-5.9-2-5.9-5.6s3-5.5 5.9-5.5c3.1 0 6 1.9 6 5.5s-2.9 5.6-6 5.6zm-5.2 8.6h10.5v51.1h-10.5z" fill="#fff"/></svg>