<svg fill="none" height="1080" viewBox="0 0 1920 1080" width="1920" xmlns="http://www.w3.org/2000/svg" xmlns:xlink="http://www.w3.org/1999/xlink"><linearGradient id="a"><stop offset="0" stop-color="#e3e5e8"/><stop offset="1" stop-color="#e3e5e8" stop-opacity=".4"/></linearGradient><linearGradient id="b" gradientUnits="userSpaceOnUse" x1="1132.45" x2="0" xlink:href="#a" y1=".000864" y2="-.012082"/><linearGradient id="c" gradientUnits="userSpaceOnUse" x1="1920" x2="1078" xlink:href="#a" y1="791.001" y2="790.994"/><linearGradient id="d" gradientUnits="userSpaceOnUse" x1="1335" x2="1920" xlink:href="#a" y1="251.999" y2="252.003"/><linearGradient id="e" gradientUnits="userSpaceOnUse" x1="1888" x2="1887.99" xlink:href="#a" y1="140" y2="967"/><linearGradient id="f" gradientUnits="userSpaceOnUse" x1="179" x2="-0" xlink:href="#a" y1=".000864" y2=".000541"/><linearGradient id="g" gradientUnits="userSpaceOnUse" x1="1200" x2="1200" xlink:href="#a" y1="672" y2="851"/><linearGradient id="h"><stop offset="0" stop-color="#0b3cff" stop-opacity=".08"/><stop offset="1" stop-color="#0b8aff" stop-opacity="0"/></linearGradient><linearGradient id="i" gradientUnits="userSpaceOnUse" x1="1576.04" x2="1568.7" xlink:href="#h" y1="455" y2="599.206"/><linearGradient id="j"><stop offset="0" stop-color="#0b3cff" stop-opacity=".16"/><stop offset="1" stop-color="#0b8aff" stop-opacity="0"/></linearGradient><linearGradient id="k" gradientUnits="userSpaceOnUse" x1="1271.42" x2="1275.82" xlink:href="#j" y1="475" y2="580.467"/><linearGradient id="l"><stop offset="0" stop-color="#0b3cff"/><stop offset="1" stop-color="#0b8aff"/></linearGradient><linearGradient id="m" gradientUnits="userSpaceOnUse" x1="1335.95" x2="1337.65" xlink:href="#l" y1="501" y2="548.482"/><linearGradient id="n" gradientUnits="userSpaceOnUse" x1="1127.4" x2="1142.42" xlink:href="#j" y1="704" y2="759.067"/><linearGradient id="o" gradientUnits="userSpaceOnUse" x1="1385.4" x2="1400.42" xlink:href="#j" y1="286" y2="341.067"/><linearGradient id="p" gradientUnits="userSpaceOnUse" x1="1688.41" x2="1682.1" xlink:href="#h" y1="674" y2="798.059"/><linearGradient id="q" gradientUnits="userSpaceOnUse" x1="1426.27" x2="1430.05" xlink:href="#j" y1="691" y2="781.702"/><linearGradient id="r" gradientUnits="userSpaceOnUse" x1="1505.53" x2="1507.4" xlink:href="#l" y1="715" y2="751.883"/><linearGradient id="s" gradientUnits="userSpaceOnUse" x1="1762.88" x2="1752.57" xlink:href="#h" y1="255" y2="378.519"/><linearGradient id="t" gradientUnits="userSpaceOnUse" x1="1603.27" x2="1609.44" xlink:href="#j" y1="272" y2="362.438"/><linearGradient id="u" gradientUnits="userSpaceOnUse" x1="1635.57" x2="1637.47" xlink:href="#l" y1="296" y2="332.88"/><clipPath id="v"><path d="m788 140h1132v799.194h-1132z"/></clipPath><path d="m0 0h1920v1080h-1920z" fill="#090a0b"/><g clip-path="url(#v)"><g stroke-opacity=".3" stroke-width="2.68354"><path d="m0-1.34177h1132.45" stroke="url(#b)" transform="matrix(1 0 0 -1 788 373.747)"/><path d="m1078 789.658h842" stroke="url(#c)"/><path d="m0-1.34177h1132.45" stroke="url(#b)" transform="matrix(1 0 0 -1 788 672)"/><path d="m1920 253.342h-585" stroke="url(#d)"/><path d="m1886.66 967v-827" stroke="url(#e)"/><path d="m0-1.34177h179" stroke="url(#f)" transform="matrix(.00000004 1 1 -.00000004 1464 195)"/><path d="m1198.66 851v-179" stroke="url(#g)"/></g><rect fill="#141f49" fill-opacity=".54" height="136" rx="21.4683" width="799" x="1008" y="455"/><rect fill="url(#i)" height="136" rx="21.4683" width="799" x="1008" y="455"/><rect fill="url(#k)" height="100" rx="10.7342" width="748" x="1033" y="475"/><path d="m1211.61 509.506h5.03l5.03 22.853h.09l5.94-22.853h5.03l5.98 22.853h.08l5.04-22.853h5.03l-7.39 29.494h-5.15l-6.07-23.1h-.08l-6.02 23.1h-5.2zm44.21 12.169h14.4v4.207h-14.4v8.952h16.83v4.166h-21.73v-29.494h21.32v4.166h-16.42zm42.25-4.744c0 3.63-2.15 5.321-4.58 6.146v.083c3.09.536 5.73 2.805 5.73 7.219 0 5.692-3.92 8.621-10.02 8.621h-13.37v-29.494h12.67c6.06 0 9.57 2.681 9.57 7.425zm-17.33 4.785h7.59c3.51 0 4.83-1.402 4.83-4.001s-1.61-4.043-4.54-4.043h-7.88zm0 3.671v9.447h8.09c4.2 0 5.48-1.98 5.48-4.744 0-3.011-1.85-4.703-4.95-4.703zm32.39-3.96c6.32 1.609 11.1 2.97 11.1 9.57 0 4.703-3.55 8.622-10.97 8.622-7.22 0-12.71-3.754-13-10.437h4.91c.25 3.754 2.81 6.229 8.09 6.229 4.37 0 6.06-1.939 6.06-4.207 0-3.507-2.51-4.167-8.33-5.61-4.62-1.155-9.61-2.929-9.61-8.539 0-5.239 4.04-8.168 10.48-8.168 6.47 0 11.17 3.383 11.59 9.447h-4.91c-.46-3.424-2.6-5.239-6.68-5.239-3.51 0-5.61 1.32-5.61 3.506 0 3.218 2.76 3.795 6.88 4.826zm14.19-11.921h4.91v29.494h-4.91zm15.99 29.494v-25.328h-9.45v-4.166h23.76v4.166h-9.4v25.328zm21.75-17.325h14.39v4.207h-14.39v8.952h16.83v4.166h-21.74v-29.494h21.32v4.166h-16.41zm44.19 10.354h-12.04l-2.39 6.971h-4.99l10.84-29.494h5.16l10.81 29.494h-4.99zm-10.68-4.084h9.36l-4.62-13.943h-.08zm20.05 11.055v-29.494h5.49l13.28 22.151h.08v-22.151h4.91v29.494h-5.44l-13.33-22.069h-.08v22.069zm45.02-6.971h-12.05l-2.39 6.971h-4.99l10.85-29.494h5.15l10.81 29.494h-4.99zm-10.69-4.084h9.37l-4.62-13.943h-.08zm20.06-18.439h4.9v25.328h14.73v4.166h-19.63zm15.59 0h5.24l7.63 13.695h.09l7.67-13.695h5.24l-10.48 17.779v11.715h-4.91v-11.715zm36.07 29.494v-25.328h-9.45v-4.166h23.76v4.166h-9.4v25.328zm16.92-29.494h4.91v29.494h-4.91zm29.91 10.148c-.54-2.97-2.48-6.559-7.92-6.559-6.35 0-8.87 5.321-8.87 11.137 0 5.858 2.52 11.179 8.87 11.179 5.49 0 7.59-3.589 7.92-7.177h4.91c-.66 6.641-5.2 11.385-12.71 11.385-8.49 0-13.86-6.477-13.86-15.387 0-8.868 5.37-15.345 13.86-15.345 7.47 0 12.01 4.744 12.71 10.767zm18.89 1.773c6.32 1.609 11.1 2.97 11.1 9.57 0 4.703-3.55 8.622-10.97 8.622-7.22 0-12.71-3.754-13-10.437h4.91c.25 3.754 2.81 6.229 8.09 6.229 4.37 0 6.06-1.939 6.06-4.207 0-3.507-2.51-4.167-8.33-5.61-4.62-1.155-9.61-2.929-9.61-8.539 0-5.239 4.04-8.168 10.48-8.168 6.47 0 11.17 3.383 11.59 9.447h-4.91c-.46-3.424-2.6-5.239-6.68-5.239-3.51 0-5.61 1.32-5.61 3.506 0 3.218 2.76 3.795 6.88 4.826z" fill="url(#m)"/><rect fill="url(#n)" height="56" rx="8" width="64" x="1107" y="704"/><path d="m1131.42 722.648h3.81l3.71 5.76h.07l3.71-5.76h3.81l-5.51 8 6.12 8.352h-3.91l-4.22-6.144h-.07l-4.16 6.144h-3.93l6.11-8.352z" fill="#3f65fd"/><rect fill="url(#o)" height="56" rx="8" width="64" x="1365" y="286"/><path d="m1389.42 304.648h3.81l3.71 5.76h.07l3.71-5.76h3.81l-5.51 8 6.12 8.352h-3.91l-4.22-6.144h-.07l-4.16 6.144h-3.93l6.11-8.352z" fill="#3f65fd"/><rect fill="#141f49" fill-opacity=".54" height="117" rx="21.4683" width="687" x="1200" y="674"/><rect fill="url(#p)" height="117" rx="21.4683" width="687" x="1200" y="674"/><rect fill="url(#q)" height="86" rx="10.7342" width="644" x="1221" y="691"/><path d="m1455.33 728.953c-.42-2.31-1.93-5.101-6.16-5.101-4.95 0-6.9 4.138-6.9 8.662 0 4.556 1.95 8.695 6.9 8.695 4.26 0 5.9-2.792 6.16-5.583h3.81c-.51 5.166-4.04 8.855-9.88 8.855-6.61 0-10.78-5.037-10.78-11.967 0-6.898 4.17-11.935 10.78-11.935 5.81 0 9.34 3.69 9.88 8.374zm6 15.047v-22.94h9.78c4.72 0 7.77 2.407 7.77 6.577 0 3.209-1.64 5.07-4.27 5.711v.064c5.29.995 3.37 9.978 4.59 10.363v.225h-4.01c-1.06-.963 1.09-8.855-4.43-8.855h-5.61v8.855zm3.82-19.699v7.571h5.16c2.34 0 4.78-.449 4.78-3.785 0-3.305-2.44-3.786-4.78-3.786zm16.21 19.699v-22.94h4.95l6.41 17.646h.07l6.38-17.646h4.94v22.94h-3.72v-17.389h-.06l-6.07 17.389h-3.05l-6.06-17.389h-.06v17.389zm40.19-13.668c4.91 1.252 8.63 2.31 8.63 7.444 0 3.657-2.76 6.705-8.54 6.705-5.61 0-9.88-2.919-10.1-8.117h3.82c.19 2.92 2.18 4.845 6.28 4.845 3.41 0 4.72-1.508 4.72-3.273 0-2.727-1.96-3.24-6.48-4.363-3.59-.898-7.48-2.278-7.48-6.641 0-4.075 3.15-6.353 8.15-6.353 5.04 0 8.7 2.631 9.02 7.347h-3.82c-.35-2.663-2.02-4.074-5.2-4.074-2.72 0-4.36 1.026-4.36 2.727 0 2.502 2.15 2.951 5.36 3.753zm7.85-9.272h4.08l5.93 10.652h.07l5.97-10.652h4.07l-8.15 13.828v9.112h-3.82v-9.112zm29.31 9.272c4.91 1.252 8.63 2.31 8.63 7.444 0 3.657-2.76 6.705-8.54 6.705-5.61 0-9.88-2.919-10.1-8.117h3.82c.19 2.92 2.18 4.845 6.28 4.845 3.41 0 4.72-1.508 4.72-3.273 0-2.727-1.96-3.24-6.48-4.363-3.59-.898-7.48-2.278-7.48-6.641 0-4.075 3.15-6.353 8.15-6.353 5.04 0 8.7 2.631 9.02 7.347h-3.82c-.35-2.663-2.02-4.074-5.2-4.074-2.72 0-4.36 1.026-4.36 2.727 0 2.502 2.15 2.951 5.36 3.753zm15.96 13.668v-19.699h-7.34v-3.241h18.48v3.241h-7.32v19.699zm16.92-13.475h11.19v3.272h-11.19v6.963h13.09v3.24h-16.91v-22.94h16.59v3.241h-12.77zm15.56 13.475v-22.94h4.94l6.42 17.646h.06l6.38-17.646h4.95v22.94h-3.73v-17.389h-.06l-6.06 17.389h-3.05l-6.07-17.389h-.06v17.389zm34.81-13.668c4.91 1.252 8.63 2.31 8.63 7.444 0 3.657-2.76 6.705-8.54 6.705-5.61 0-9.88-2.919-10.1-8.117h3.82c.19 2.92 2.18 4.845 6.28 4.845 3.41 0 4.72-1.508 4.72-3.273 0-2.727-1.96-3.24-6.48-4.363-3.59-.898-7.48-2.278-7.48-6.641 0-4.075 3.15-6.353 8.15-6.353 5.04 0 8.7 2.631 9.02 7.347h-3.82c-.35-2.663-2.02-4.074-5.2-4.074-2.72 0-4.36 1.026-4.36 2.727 0 2.502 2.15 2.951 5.36 3.753z" fill="url(#r)"/><rect fill="#141f49" fill-opacity=".54" height="117" rx="21.4683" width="419" x="1465" y="255"/><rect fill="url(#s)" height="117" rx="21.4683" width="419" x="1465" y="255"/><rect fill="url(#t)" height="86" rx="10.7342" width="393" x="1478" y="272"/><path d="m1578.93 311.332c4.91 1.252 8.63 2.31 8.63 7.444 0 3.657-2.76 6.705-8.54 6.705-5.61 0-9.88-2.919-10.1-8.117h3.82c.19 2.92 2.18 4.845 6.28 4.845 3.41 0 4.72-1.508 4.72-3.273 0-2.727-1.96-3.24-6.48-4.363-3.59-.898-7.48-2.278-7.48-6.641 0-4.075 3.15-6.353 8.15-6.353 5.04 0 8.7 2.631 9.02 7.347h-3.82c-.35-2.663-2.02-4.074-5.2-4.074-2.72 0-4.36 1.026-4.36 2.727 0 2.502 2.15 2.951 5.36 3.753zm21.36 14.149c-6.93 0-11.26-5.069-11.26-11.967s4.33-11.935 11.26-11.935c6.9 0 11.26 5.037 11.26 11.935s-4.36 11.967-11.26 11.967zm0-3.272c5.26 0 7.44-4.043 7.44-8.695 0-4.62-2.18-8.662-7.44-8.662s-7.48 4.042-7.48 8.662c0 4.652 2.22 8.695 7.48 8.695zm29.63-12.256c-.42-2.31-1.93-5.101-6.16-5.101-4.94 0-6.9 4.138-6.9 8.662 0 4.556 1.96 8.695 6.9 8.695 4.27 0 5.9-2.792 6.16-5.583h3.82c-.52 5.166-4.04 8.855-9.88 8.855-6.61 0-10.78-5.037-10.78-11.967 0-6.898 4.17-11.935 10.78-11.935 5.8 0 9.33 3.69 9.88 8.374zm6.07-7.893h3.81v22.94h-3.81zm20.38 17.518h-9.37l-1.86 5.422h-3.89l8.44-22.94h4.01l8.41 22.94h-3.88zm-8.31-3.176h7.28l-3.59-10.845h-.07zm15.59-14.342h3.82v19.7h11.45v3.24h-15.27zm22.72 22.94v-22.94h4.94l6.42 17.646h.06l6.38-17.646h4.94v22.94h-3.72v-17.389h-.06l-6.06 17.389h-3.05l-6.07-17.389h-.06v17.389zm29.84-13.475h11.19v3.272h-11.19v6.963h13.09v3.24h-16.91v-22.94h16.59v3.241h-12.77zm15.56 13.475v-22.94h8.92c6.32 0 10.2 4.107 10.2 11.486s-3.75 11.454-10.11 11.454zm3.82-19.699v16.459h4.9c5.14 0 6.58-3.818 6.58-8.214 0-4.395-1.44-8.245-6.58-8.245zm17.78-3.241h3.82v22.94h-3.82zm20.38 17.518h-9.37l-1.86 5.422h-3.88l8.44-22.94h4.01l8.41 22.94h-3.89zm-8.31-3.176h7.29l-3.6-10.845h-.06z" fill="url(#u)"/></g><path d="m86.1 397v-71.5h27.8c19.7 0 31.8 12.8 31.8 35.8s-11.7 35.7-31.5 35.7zm11.9-61.4v51.3h15.3c16 0 20.5-11.9 20.5-25.6s-4.5-25.7-20.5-25.7zm84.259 23.7c0-3.7-2.2-6.5-9.2-6.5-8.4 0-11.5 2.6-12 9.2h-10.2c.5-9.8 6.8-17.5 22.2-17.5 11.3 0 19.7 4.3 19.7 17.9v24.3c0 3.6.8 5.5 4.9 5.1v5c-2.4.9-4.1 1.1-6.1 1.1-5.6 0-8.2-2-9.2-7h-.2c-3.2 4.5-9 7.6-16.9 7.6-10.4 0-16.8-6-16.8-14.6 0-11.2 8.3-14.7 21.1-17.2 7.9-1.5 12.7-2.5 12.7-7.4zm-14.7 30.9c8.7 0 14.7-4.3 14.7-12.6v-7.7c-1.7 1.2-5.8 2.4-10.7 3.4-8.7 1.9-12.5 4.4-12.5 9.6 0 4.7 2.8 7.3 8.5 7.3zm57.665-35.7h-9.6v27.7c0 5.8 2.8 6.5 9.6 6.1v8.6c-2.1.5-4.4.8-7.2.8-8.4 0-13-3.8-13-14.6v-28.6h-7.4v-8.6h7.4v-16.1h10.6v16.1h9.6zm36.824 4.8c0-3.7-2.2-6.5-9.2-6.5-8.4 0-11.5 2.6-12 9.2h-10.2c.5-9.8 6.8-17.5 22.2-17.5 11.3 0 19.7 4.3 19.7 17.9v24.3c0 3.6.8 5.5 4.9 5.1v5c-2.4.9-4.1 1.1-6.1 1.1-5.6 0-8.2-2-9.2-7h-.2c-3.2 4.5-9 7.6-16.9 7.6-10.4 0-16.8-6-16.8-14.6 0-11.2 8.3-14.7 21.1-17.2 7.9-1.5 12.7-2.5 12.7-7.4zm-14.7 30.9c8.7 0 14.7-4.3 14.7-12.6v-7.7c-1.7 1.2-5.8 2.4-10.7 3.4-8.7 1.9-12.5 4.4-12.5 9.6 0 4.7 2.8 7.3 8.5 7.3zm32.842-23.5h26.9v9.8h-26.9zm34.582 30.3v-71.5h27.8c19.7 0 31.8 12.8 31.8 35.8s-11.7 35.7-31.5 35.7zm11.9-61.4v51.3h15.3c16 0 20.5-11.9 20.5-25.6s-4.5-25.7-20.5-25.7zm78.441 9.1c1.8 0 3.1.1 4.6.3v9.9h-.2c-10.1-1.7-18.2 5.1-18.2 16v26.1h-10.5v-51.1h10.5v9.6h.2c2.7-6.4 6.9-10.8 13.6-10.8zm15.244-7.4c-2.9 0-5.9-2-5.9-5.6s3-5.5 5.9-5.5c3.1 0 6 1.9 6 5.5s-2.9 5.6-6 5.6zm-5.2 8.6h10.5v51.1h-10.5zm14.175 0h11.1l12.9 40h.1l12.9-40h11.1l-18.1 51.1h-11.9zm72.475 44c8.7 0 12.2-5.4 13.1-8.5h10.5c-2.6 9.7-10.2 17.1-23.3 17.1-15.9 0-25.6-11-25.6-27 0-16.6 9.7-27 25.1-27 16.5 0 24.6 11.5 24.6 29.7h-39.2c0 8.6 5.5 15.7 14.8 15.7zm-.2-37.1c-8.5 0-14.6 5.7-14.6 13.6h28.7c0-7.9-5.6-13.6-14.1-13.6zm57.299-8.3c9.5 0 17 5.5 17 17.2v35.3h-10.6v-32.3c0-6.9-2.9-11.3-10.1-11.3-8.1 0-13.3 4.9-13.3 12.5v31.1h-10.5v-51.1h10.5v6.6h.2c2.7-4 8-8 16.8-8zm42.745 52.5v-71.5h27.8c19.7 0 31.8 12.8 31.8 35.8s-11.7 35.7-31.5 35.7zm11.9-61.4v51.3h15.3c16 0 20.5-11.9 20.5-25.6s-4.5-25.7-20.5-25.7zm60.04 1.7c-2.9 0-5.9-2-5.9-5.6s3-5.5 5.9-5.5c3.1 0 6 1.9 6 5.5s-2.9 5.6-6 5.6zm-5.2 8.6h10.5v51.1h-10.5zm54.575 0h10.5v47.6c0 14.7-8.9 21.2-23.4 21.2-14.7 0-22.8-7.7-23.9-16.3h10.6c1 4.5 4.6 7.9 12.9 7.9 8.8 0 13.3-4 13.3-13.2v-6.2h-.2c-2.7 3.8-7.4 7.6-15.5 7.6-12.8 0-22.4-8.9-22.4-25 0-16.2 9.6-25 22.4-25 8.1 0 12.8 3.8 15.5 7.4h.2zm-13.7 40c8.5 0 13.6-5.6 13.6-16.4s-5.1-16.4-13.6-16.4c-9.2 0-13.9 6.9-13.9 16.4 0 9.4 4.7 16.4 13.9 16.4zm38.06-48.6c-2.9 0-5.9-2-5.9-5.6s3-5.5 5.9-5.5c3.1 0 6 1.9 6 5.5s-2.9 5.6-6 5.6zm-5.2 8.6h10.5v51.1h-10.5zm43.575 8.6h-9.6v27.7c0 5.8 2.8 6.5 9.6 6.1v8.6c-2.1.5-4.4.8-7.2.8-8.4 0-13-3.8-13-14.6v-28.6h-7.4v-8.6h7.4v-16.1h10.6v16.1h9.6zm36.824 4.8c0-3.7-2.2-6.5-9.2-6.5-8.4 0-11.5 2.6-12 9.2h-10.2c.5-9.8 6.8-17.5 22.2-17.5 11.3 0 19.7 4.3 19.7 17.9v24.3c0 3.6.8 5.5 4.9 5.1v5c-2.4.9-4.1 1.1-6.1 1.1-5.6 0-8.2-2-9.2-7h-.2c-3.2 4.5-9 7.6-16.9 7.6-10.4 0-16.8-6-16.8-14.6 0-11.2 8.3-14.7 21.1-17.2 7.9-1.5 12.7-2.5 12.7-7.4zm-14.7 30.9c8.7 0 14.7-4.3 14.7-12.6v-7.7c-1.7 1.2-5.8 2.4-10.7 3.4-8.7 1.9-12.5 4.4-12.5 9.6 0 4.7 2.8 7.3 8.5 7.3zm34.441-64.7h10.6v71.5h-10.6zm-756.166 191.5v-71.5h15.4l20 55h.2l19.9-55h15.4v71.5h-11.6v-54.2h-.2l-18.9 54.2h-9.5l-18.9-54.2h-.2v54.2zm111.101-37.7c0-3.7-2.2-6.5-9.2-6.5-8.4 0-11.5 2.6-12 9.2h-10.2c.5-9.8 6.8-17.5 22.2-17.5 11.3 0 19.7 4.3 19.7 17.9v24.3c0 3.6.8 5.5 4.9 5.1v5c-2.4.9-4.1 1.1-6.1 1.1-5.6 0-8.2-2-9.2-7h-.2c-3.2 4.5-9 7.6-16.9 7.6-10.4 0-16.8-6-16.8-14.6 0-11.2 8.3-14.7 21.1-17.2 7.9-1.5 12.7-2.5 12.7-7.4zm-14.7 30.9c8.7 0 14.7-4.3 14.7-12.6v-7.7c-1.7 1.2-5.8 2.4-10.7 3.4-8.7 1.9-12.5 4.4-12.5 9.6 0 4.7 2.8 7.3 8.5 7.3zm58.541-45.5c1.8 0 3.1.1 4.6.3v9.9h-.2c-10.1-1.7-18.2 5.1-18.2 16v26.1h-10.5v-51.1h10.5v9.6h.2c2.7-6.4 6.9-10.8 13.6-10.8zm9.345-19.2h10.5v40.9l20.8-20.5h12.9l-19.4 19 21.5 32.1h-12.6l-16.1-25.2-7.1 6.7v18.5h-10.5zm68.451 64.4c8.7 0 12.2-5.4 13.1-8.5h10.5c-2.6 9.7-10.2 17.1-23.3 17.1-15.9 0-25.6-11-25.6-27 0-16.6 9.7-27 25.1-27 16.5 0 24.6 11.5 24.6 29.7h-39.2c0 8.6 5.5 15.7 14.8 15.7zm-.2-37.1c-8.5 0-14.6 5.7-14.6 13.6h28.7c0-7.9-5.6-13.6-14.1-13.6zm53.223 1.7h-9.6v27.7c0 5.8 2.8 6.5 9.6 6.1v8.6c-2.1.5-4.4.8-7.2.8-8.4 0-13-3.8-13-14.6v-28.6h-7.4v-8.6h7.4v-16.1h10.6v16.1h9.6zm11.531-17.2c-2.9 0-5.9-2-5.9-5.6s3-5.5 5.9-5.5c3.1 0 6 1.9 6 5.5s-2.9 5.6-6 5.6zm-5.2 8.6h10.5v51.1h-10.5zm46.675-1.4c9.5 0 17 5.5 17 17.2v35.3h-10.6v-32.3c0-6.9-2.9-11.3-10.1-11.3-8.1 0-13.3 4.9-13.3 12.5v31.1h-10.5v-51.1h10.5v6.6h.2c2.7-4 8-8 16.8-8zm60.002 1.4h10.5v47.6c0 14.7-8.9 21.2-23.4 21.2-14.7 0-22.8-7.7-23.9-16.3h10.6c1 4.5 4.6 7.9 12.9 7.9 8.8 0 13.3-4 13.3-13.2v-6.2h-.2c-2.7 3.8-7.4 7.6-15.5 7.6-12.8 0-22.4-8.9-22.4-25 0-16.2 9.6-25 22.4-25 8.1 0 12.8 3.8 15.5 7.4h.2zm-13.7 40c8.5 0 13.6-5.6 13.6-16.4s-5.1-16.4-13.6-16.4c-9.2 0-13.9 6.9-13.9 16.4 0 9.4 4.7 16.4 13.9 16.4zm77.402-31.5c15.3 3.9 26.9 7.2 26.9 23.2 0 11.4-8.6 20.9-26.6 20.9-17.5 0-30.8-9.1-31.5-25.3h11.9c.6 9.1 6.8 15.1 19.6 15.1 10.6 0 14.7-4.7 14.7-10.2 0-8.5-6.1-10.1-20.2-13.6-11.2-2.8-23.3-7.1-23.3-20.7 0-12.7 9.8-19.8 25.4-19.8 15.7 0 27.1 8.2 28.1 22.9h-11.9c-1.1-8.3-6.3-12.7-16.2-12.7-8.5 0-13.6 3.2-13.6 8.5 0 7.8 6.7 9.2 16.7 11.7zm57.188.1h-9.6v27.7c0 5.8 2.8 6.5 9.6 6.1v8.6c-2.1.5-4.4.8-7.2.8-8.4 0-13-3.8-13-14.6v-28.6h-7.4v-8.6h7.4v-16.1h10.6v16.1h9.6zm29.932-9.8c1.8 0 3.1.1 4.6.3v9.9h-.2c-10.1-1.7-18.2 5.1-18.2 16v26.1h-10.5v-51.1h10.5v9.6h.2c2.7-6.4 6.9-10.8 13.6-10.8zm38.486 14.6c0-3.7-2.2-6.5-9.2-6.5-8.4 0-11.5 2.6-12 9.2h-10.2c.5-9.8 6.8-17.5 22.2-17.5 11.3 0 19.7 4.3 19.7 17.9v24.3c0 3.6.8 5.5 4.9 5.1v5c-2.4.9-4.1 1.1-6.1 1.1-5.6 0-8.2-2-9.2-7h-.2c-3.2 4.5-9 7.6-16.9 7.6-10.4 0-16.8-6-16.8-14.6 0-11.2 8.3-14.7 21.1-17.2 7.9-1.5 12.7-2.5 12.7-7.4zm-14.7 30.9c8.7 0 14.7-4.3 14.7-12.6v-7.7c-1.7 1.2-5.8 2.4-10.7 3.4-8.7 1.9-12.5 4.4-12.5 9.6 0 4.7 2.8 7.3 8.5 7.3zm57.665-35.7h-9.6v27.7c0 5.8 2.8 6.5 9.6 6.1v8.6c-2.1.5-4.4.8-7.2.8-8.4 0-13-3.8-13-14.6v-28.6h-7.4v-8.6h7.4v-16.1h10.6v16.1h9.6zm27.743 35.4c8.7 0 12.2-5.4 13.1-8.5h10.5c-2.6 9.7-10.2 17.1-23.3 17.1-15.9 0-25.6-11-25.6-27 0-16.6 9.7-27 25.1-27 16.5 0 24.6 11.5 24.6 29.7h-39.2c0 8.6 5.5 15.7 14.8 15.7zm-.2-37.1c-8.5 0-14.6 5.7-14.6 13.6h28.7c0-7.9-5.6-13.6-14.1-13.6zm65.199-6.9h10.5v47.6c0 14.7-8.9 21.2-23.4 21.2-14.7 0-22.8-7.7-23.9-16.3h10.6c1 4.5 4.6 7.9 12.9 7.9 8.8 0 13.3-4 13.3-13.2v-6.2h-.2c-2.7 3.8-7.4 7.6-15.5 7.6-12.8 0-22.4-8.9-22.4-25 0-16.2 9.6-25 22.4-25 8.1 0 12.8 3.8 15.5 7.4h.2zm-13.7 40c8.5 0 13.6-5.6 13.6-16.4s-5.1-16.4-13.6-16.4c-9.2 0-13.9 6.9-13.9 16.4 0 9.4 4.7 16.4 13.9 16.4zm38.06-48.6c-2.9 0-5.9-2-5.9-5.6s3-5.5 5.9-5.5c3.1 0 6 1.9 6 5.5s-2.9 5.6-6 5.6zm-5.2 8.6h10.5v51.1h-10.5zm41.775 44c8.7 0 12.2-5.4 13.1-8.5h10.5c-2.6 9.7-10.2 17.1-23.3 17.1-15.9 0-25.6-11-25.6-27 0-16.6 9.7-27 25.1-27 16.5 0 24.6 11.5 24.6 29.7h-39.2c0 8.6 5.5 15.7 14.8 15.7zm-.2-37.1c-8.5 0-14.6 5.7-14.6 13.6h28.7c0-7.9-5.6-13.6-14.1-13.6zm51.899 13.3c9.4 2.2 19.6 4.3 19.6 16.5 0 9.8-8.4 15.9-20.8 15.9-16.5 0-23.6-7.7-24.1-18.5h10.2c.5 5.5 2.9 10.2 13.7 10.2 7.3 0 10.4-3.6 10.4-6.8 0-6.4-6.1-6.9-13.6-8.7-8.1-1.9-19.1-3.5-19.1-15.1 0-8.4 7.4-15.1 20.2-15.1 13.9 0 20.5 7.5 21.2 16.4h-10.2c-.7-4-2.7-8.1-10.9-8.1-6.3 0-9.7 2.4-9.7 6 0 5.2 5.7 5.6 13.1 7.3zm30.626 1c-3.7 0-6.5-2.5-6.5-6.5 0-3.9 2.8-6.5 6.5-6.5 3.6 0 6.4 2.6 6.4 6.5 0 4-2.8 6.5-6.4 6.5zm0 30.7c-3.7 0-6.5-2.5-6.5-6.5 0-3.9 2.8-6.5 6.5-6.5 3.6 0 6.4 2.6 6.4 6.5 0 4-2.8 6.5-6.4 6.5zm-817.244 72.3c-1.3-7.2-6-15.9-19.2-15.9-15.4 0-21.5 12.9-21.5 27 0 14.2 6.1 27.1 21.5 27.1 13.3 0 18.4-8.7 19.2-17.4h11.9c-1.6 16.1-12.6 27.6-30.8 27.6-20.6 0-33.6-15.7-33.6-37.3 0-21.5 13-37.2 33.6-37.2 18.1 0 29.1 11.5 30.8 26.1zm40.901 48.4c-16 0-25.7-11.1-25.7-27s9.7-27 25.7-27 25.7 11.1 25.7 27-9.7 27-25.7 27zm0-8.6c10 0 15.2-7.9 15.2-18.4 0-10.6-5.2-18.4-15.2-18.4s-15.2 7.8-15.2 18.4c0 10.5 5.2 18.4 15.2 18.4zm31.157-64.4h10.6v71.5h-10.6zm18.215 0h10.6v71.5h-10.6zm41.396 64.4c8.7 0 12.2-5.4 13.1-8.5h10.5c-2.6 9.7-10.2 17.1-23.3 17.1-15.9 0-25.6-11-25.6-27 0-16.6 9.7-27 25.1-27 16.5 0 24.6 11.5 24.6 29.7h-39.2c0 8.6 5.5 15.7 14.8 15.7zm-.2-37.1c-8.5 0-14.6 5.7-14.6 13.6h28.7c0-7.9-5.6-13.6-14.1-13.6zm64.999 11.8c-.4-5.2-3.7-11.5-12.7-11.5-10.3 0-14.7 8.8-14.7 18.4s4.3 18.4 14.7 18.4c9 0 12.3-6.2 12.7-11.9h10.5c-.8 11.8-9.9 20.5-23.2 20.5-15.3 0-25.2-11-25.2-27s9.9-27 25.1-27c13.3 0 22 8.5 23.3 20.1zm39.837-10.1h-9.6v27.7c0 5.8 2.8 6.5 9.6 6.1v8.6c-2.1.5-4.4.8-7.2.8-8.4 0-13-3.8-13-14.6v-28.6h-7.4v-8.6h7.4v-16.1h10.6v16.1h9.6zm11.531-17.2c-2.9 0-5.9-2-5.9-5.6s3-5.5 5.9-5.5c3.1 0 6 1.9 6 5.5s-2.9 5.6-6 5.6zm-5.2 8.6h10.5v51.1h-10.5zm46.675-1.4c9.5 0 17 5.5 17 17.2v35.3h-10.6v-32.3c0-6.9-2.9-11.3-10.1-11.3-8.1 0-13.3 4.9-13.3 12.5v31.1h-10.5v-51.1h10.5v6.6h.2c2.7-4 8-8 16.8-8zm60.002 1.4h10.5v47.6c0 14.7-8.9 21.2-23.4 21.2-14.7 0-22.8-7.7-23.9-16.3h10.6c1 4.5 4.6 7.9 12.9 7.9 8.8 0 13.3-4 13.3-13.2v-6.2h-.2c-2.7 3.8-7.4 7.6-15.5 7.6-12.8 0-22.4-8.9-22.4-25 0-16.2 9.6-25 22.4-25 8.1 0 12.8 3.8 15.5 7.4h.2zm-13.7 40c8.5 0 13.6-5.6 13.6-16.4s-5.1-16.4-13.6-16.4c-9.2 0-13.9 6.9-13.9 16.4 0 9.4 4.7 16.4 13.9 16.4zm80.102-26.6c0-3.7-2.2-6.5-9.2-6.5-8.4 0-11.5 2.6-12 9.2h-10.2c.5-9.8 6.8-17.5 22.2-17.5 11.3 0 19.7 4.3 19.7 17.9v24.3c0 3.6.8 5.5 4.9 5.1v5c-2.4.9-4.1 1.1-6.1 1.1-5.6 0-8.2-2-9.2-7h-.2c-3.2 4.5-9 7.6-16.9 7.6-10.4 0-16.8-6-16.8-14.6 0-11.2 8.3-14.7 21.1-17.2 7.9-1.5 12.7-2.5 12.7-7.4zm-14.7 30.9c8.7 0 14.7-4.3 14.7-12.6v-7.7c-1.7 1.2-5.8 2.4-10.7 3.4-8.7 1.9-12.5 4.4-12.5 9.6 0 4.7 2.8 7.3 8.5 7.3zm61.741-45.7c9.5 0 17 5.5 17 17.2v35.3h-10.6v-32.3c0-6.9-2.9-11.3-10.1-11.3-8.1 0-13.3 4.9-13.3 12.5v31.1h-10.5v-51.1h10.5v6.6h.2c2.7-4 8-8 16.8-8zm60.502-19h10.5v71.5h-10.5v-5.9h-.2c-2.7 3.5-7.7 7.4-15.6 7.4-13.1 0-22.8-10.2-22.8-27s9.7-27 22.8-27c7.9 0 12.9 3.7 15.6 7.6h.2zm-14 64.4c8.6 0 13.9-7.1 13.9-18.4 0-11.4-5.3-18.4-13.9-18.4-9.2 0-14.1 8.4-14.1 18.4s4.9 18.4 14.1 18.4zm-559.058 55.6h11.9v61.4h35.7v10.1h-47.6zm73.797 64.4c8.7 0 12.2-5.4 13.1-8.5h10.5c-2.6 9.7-10.2 17.1-23.3 17.1-15.9 0-25.6-11-25.6-27 0-16.6 9.7-27 25.1-27 16.5 0 24.6 11.5 24.6 29.7h-39.2c0 8.6 5.5 15.7 14.8 15.7zm-.2-37.1c-8.5 0-14.6 5.7-14.6 13.6h28.7c0-7.9-5.6-13.6-14.1-13.6zm23.627-6.9h11.1l12.9 40h.1l12.9-40h11.1l-18.1 51.1h-11.9zm72.475 44c8.7 0 12.2-5.4 13.1-8.5h10.5c-2.6 9.7-10.2 17.1-23.3 17.1-15.9 0-25.6-11-25.6-27 0-16.6 9.7-27 25.1-27 16.5 0 24.6 11.5 24.6 29.7h-39.2c0 8.6 5.5 15.7 14.8 15.7zm-.2-37.1c-8.5 0-14.6 5.7-14.6 13.6h28.7c0-7.9-5.6-13.6-14.1-13.6zm54.099-8.1c1.8 0 3.1.1 4.6.3v9.9h-.2c-10.1-1.7-18.2 5.1-18.2 16v26.1h-10.5v-51.1h10.5v9.6h.2c2.7-6.4 6.9-10.8 13.6-10.8zm38.487 14.6c0-3.7-2.2-6.5-9.2-6.5-8.4 0-11.5 2.6-12 9.2h-10.2c.5-9.8 6.8-17.5 22.2-17.5 11.3 0 19.7 4.3 19.7 17.9v24.3c0 3.6.8 5.5 4.9 5.1v5c-2.4.9-4.1 1.1-6.1 1.1-5.6 0-8.2-2-9.2-7h-.2c-3.2 4.5-9 7.6-16.9 7.6-10.4 0-16.8-6-16.8-14.6 0-11.2 8.3-14.7 21.1-17.2 7.9-1.5 12.7-2.5 12.7-7.4zm-14.7 30.9c8.7 0 14.7-4.3 14.7-12.6v-7.7c-1.7 1.2-5.8 2.4-10.7 3.4-8.7 1.9-12.5 4.4-12.5 9.6 0 4.7 2.8 7.3 8.5 7.3zm69.642-44.3h10.5v47.6c0 14.7-8.9 21.2-23.4 21.2-14.7 0-22.8-7.7-23.9-16.3h10.6c1 4.5 4.6 7.9 12.9 7.9 8.8 0 13.3-4 13.3-13.2v-6.2h-.2c-2.7 3.8-7.4 7.6-15.5 7.6-12.8 0-22.4-8.9-22.4-25 0-16.2 9.6-25 22.4-25 8.1 0 12.8 3.8 15.5 7.4h.2zm-13.7 40c8.5 0 13.6-5.6 13.6-16.4s-5.1-16.4-13.6-16.4c-9.2 0-13.9 6.9-13.9 16.4 0 9.4 4.7 16.4 13.9 16.4zm38.059-48.6c-2.9 0-5.9-2-5.9-5.6s3-5.5 5.9-5.5c3.1 0 6 1.9 6 5.5s-2.9 5.6-6 5.6zm-5.2 8.6h10.5v51.1h-10.5zm46.675-1.4c9.5 0 17 5.5 17 17.2v35.3h-10.6v-32.3c0-6.9-2.9-11.3-10.1-11.3-8.1 0-13.3 4.9-13.3 12.5v31.1h-10.5v-51.1h10.5v6.6h.2c2.7-4 8-8 16.8-8zm60.002 1.4h10.5v47.6c0 14.7-8.9 21.2-23.4 21.2-14.7 0-22.8-7.7-23.9-16.3h10.6c1 4.5 4.6 7.9 12.9 7.9 8.8 0 13.3-4 13.3-13.2v-6.2h-.2c-2.7 3.8-7.4 7.6-15.5 7.6-12.8 0-22.4-8.9-22.4-25 0-16.2 9.6-25 22.4-25 8.1 0 12.8 3.8 15.5 7.4h.2zm-13.7 40c8.5 0 13.6-5.6 13.6-16.4s-5.1-16.4-13.6-16.4c-9.2 0-13.9 6.9-13.9 16.4 0 9.4 4.7 16.4 13.9 16.4zm50.302 11.1v-71.5h27.8c19.7 0 31.8 12.8 31.8 35.8s-11.7 35.7-31.5 35.7zm11.9-61.4v51.3h15.3c16 0 20.5-11.9 20.5-25.6s-4.5-25.7-20.5-25.7zm84.259 23.7c0-3.7-2.2-6.5-9.2-6.5-8.4 0-11.5 2.6-12 9.2h-10.2c.5-9.8 6.8-17.5 22.2-17.5 11.3 0 19.7 4.3 19.7 17.9v24.3c0 3.6.8 5.5 4.9 5.1v5c-2.4.9-4.1 1.1-6.1 1.1-5.6 0-8.2-2-9.2-7h-.2c-3.2 4.5-9 7.6-16.9 7.6-10.4 0-16.8-6-16.8-14.6 0-11.2 8.3-14.7 21.1-17.2 7.9-1.5 12.7-2.5 12.7-7.4zm-14.7 30.9c8.7 0 14.7-4.3 14.7-12.6v-7.7c-1.7 1.2-5.8 2.4-10.7 3.4-8.7 1.9-12.5 4.4-12.5 9.6 0 4.7 2.8 7.3 8.5 7.3zm57.665-35.7h-9.6v27.7c0 5.8 2.8 6.5 9.6 6.1v8.6c-2.1.5-4.4.8-7.2.8-8.4 0-13-3.8-13-14.6v-28.6h-7.4v-8.6h7.4v-16.1h10.6v16.1h9.6zm36.824 4.8c0-3.7-2.2-6.5-9.2-6.5-8.4 0-11.5 2.6-12 9.2h-10.2c.5-9.8 6.8-17.5 22.2-17.5 11.3 0 19.7 4.3 19.7 17.9v24.3c0 3.6.8 5.5 4.9 5.1v5c-2.4.9-4.1 1.1-6.1 1.1-5.6 0-8.2-2-9.2-7h-.2c-3.2 4.5-9 7.6-16.9 7.6-10.4 0-16.8-6-16.8-14.6 0-11.2 8.3-14.7 21.1-17.2 7.9-1.5 12.7-2.5 12.7-7.4zm-14.7 30.9c8.7 0 14.7-4.3 14.7-12.6v-7.7c-1.7 1.2-5.8 2.4-10.7 3.4-8.7 1.9-12.5 4.4-12.5 9.6 0 4.7 2.8 7.3 8.5 7.3z" fill="#fff"/></svg>