<?xml version="1.0" encoding="UTF-8"?><svg id="a" xmlns="http://www.w3.org/2000/svg" xmlns:xlink="http://www.w3.org/1999/xlink" viewBox="0 0 626 371"><defs><clipPath id="b"><rect y="2" width="626" height="333" style="fill:none; stroke-width:0px;"/></clipPath><linearGradient id="c" x1=".05" y1="241.45" x2="626.05" y2="241.45" gradientTransform="translate(0 338) scale(1 -1)" gradientUnits="userSpaceOnUse"><stop offset="0" stop-color="#e3e5e8"/><stop offset="1" stop-color="#e3e5e8" stop-opacity=".4"/></linearGradient><linearGradient id="d" x1="313.02" y1="272.48" x2="626.02" y2="272.48" gradientTransform="translate(0 338) scale(1 -1)" gradientUnits="userSpaceOnUse"><stop offset="0" stop-color="#e3e5e8"/><stop offset="1" stop-color="#e3e5e8" stop-opacity=".4"/></linearGradient><linearGradient id="e" x1="201.5" y1="-13" x2="201.5" y2="242" gradientTransform="translate(0 338) scale(1 -1)" gradientUnits="userSpaceOnUse"><stop offset="0" stop-color="#e3e5e8"/><stop offset="1" stop-color="#e3e5e8" stop-opacity=".4"/></linearGradient><linearGradient id="f" x1="326" y1="407.5" x2="71" y2="407.5" gradientTransform="translate(800 -70) rotate(90)" gradientUnits="userSpaceOnUse"><stop offset="0" stop-color="#e3e5e8"/><stop offset="1" stop-color="#e3e5e8" stop-opacity=".4"/></linearGradient><linearGradient id="g" x1="361.03" y1="161.47" x2="626.03" y2="161.47" gradientTransform="translate(0 338) scale(1 -1)" gradientUnits="userSpaceOnUse"><stop offset="0" stop-color="#e3e5e8"/><stop offset="1" stop-color="#e3e5e8" stop-opacity=".4"/></linearGradient><linearGradient id="h" x1="488.5" y1="162" x2="488.5" y2="-13" gradientTransform="translate(0 338) scale(1 -1)" gradientUnits="userSpaceOnUse"><stop offset="0" stop-color="#e3e5e8"/><stop offset="1" stop-color="#e3e5e8" stop-opacity=".4"/></linearGradient><linearGradient id="i" x1="626" y1="82.5" x2="0" y2="82.5" gradientTransform="translate(0 338) scale(1 -1)" gradientUnits="userSpaceOnUse"><stop offset="0" stop-color="#e3e5e8"/><stop offset="1" stop-color="#e3e5e8" stop-opacity=".4"/></linearGradient><linearGradient id="j" x1="313" y1="102.5" x2="0" y2="102.5" gradientTransform="translate(0 185)" gradientUnits="userSpaceOnUse"><stop offset="0" stop-color="#e3e5e8"/><stop offset="1" stop-color="#e3e5e8" stop-opacity=".4"/></linearGradient><linearGradient id="k" x1="313.5" y1="210" x2="313.5" y2="336" gradientTransform="translate(0 338) scale(1 -1)" gradientUnits="userSpaceOnUse"><stop offset="0" stop-color="#e3e5e8"/><stop offset="1" stop-color="#e3e5e8" stop-opacity=".4"/></linearGradient><linearGradient id="l" x1="312.5" y1="114" x2="312.5" y2="-13" gradientTransform="translate(0 338) scale(1 -1)" gradientUnits="userSpaceOnUse"><stop offset="0" stop-color="#e3e5e8"/><stop offset="1" stop-color="#e3e5e8" stop-opacity=".4"/></linearGradient><linearGradient id="o" x1="126" y1="112" x2="126" y2="17" gradientTransform="translate(0 338) scale(1 -1)" gradientUnits="userSpaceOnUse"><stop offset="0" stop-color="#d9d9d9"/><stop offset=".64" stop-color="#d9d9d9" stop-opacity=".25"/><stop offset="1" stop-color="#d9d9d9" stop-opacity="0"/></linearGradient><mask id="m" x="51" y="226" width="150" height="145" maskUnits="userSpaceOnUse"><g id="n"><rect x="51" y="226" width="150" height="95" rx="8" ry="8" style="fill:url(#o); stroke-width:0px;"/></g></mask><linearGradient id="p" x1="51" y1="-33" x2="201" y2="112" gradientTransform="translate(0 338) scale(1 -1)" gradientUnits="userSpaceOnUse"><stop offset="0" stop-color="#10b981"/><stop offset="1" stop-color="#d9f99d"/></linearGradient><linearGradient id="q" x1="68.17" y1="-14.04" x2="183.83" y2="94.04" gradientTransform="translate(0 338) scale(1 -1)" gradientUnits="userSpaceOnUse"><stop offset="0" stop-color="#d9f99d"/><stop offset="1" stop-color="#10b981"/></linearGradient><linearGradient id="t" x1="450.41" y1="273" x2="450.41" y2="162" gradientTransform="translate(0 338) scale(1 -1)" gradientUnits="userSpaceOnUse"><stop offset="0" stop-color="#d9d9d9"/><stop offset="1" stop-color="#d9d9d9" stop-opacity=".24"/></linearGradient><mask id="r" x="393" y="65" width="114.83" height="111" maskUnits="userSpaceOnUse"><g id="s"><rect x="393" y="65" width="114.83" height="111" rx="6.12" ry="6.12" style="fill:url(#t); stroke-width:0px;"/></g></mask><linearGradient id="u" x1="393" y1="162" x2="507.83" y2="273" gradientTransform="translate(0 338) scale(1 -1)" gradientUnits="userSpaceOnUse"><stop offset="0" stop-color="#f97316"/><stop offset="1" stop-color="#fef08a"/></linearGradient><linearGradient id="v" x1="408.44" y1="176.51" x2="496.98" y2="259.25" gradientTransform="translate(0 338) scale(1 -1)" gradientUnits="userSpaceOnUse"><stop offset="0" stop-color="#ddd6fe"/><stop offset="1" stop-color="#9333ea"/></linearGradient><linearGradient id="w" x1="408.44" y1="176.51" x2="496.98" y2="259.25" gradientTransform="translate(0 338) scale(1 -1)" gradientUnits="userSpaceOnUse"><stop offset="0" stop-color="#fef08a"/><stop offset=".59" stop-color="#f97316"/><stop offset="1" stop-color="#f97316"/></linearGradient><linearGradient id="z" x1="538.5" y1="112" x2="538.5" y2="17" gradientTransform="translate(0 338) scale(1 -1)" gradientUnits="userSpaceOnUse"><stop offset="0" stop-color="#d9d9d9"/><stop offset=".64" stop-color="#d9d9d9" stop-opacity=".25"/><stop offset="1" stop-color="#d9d9d9" stop-opacity="0"/></linearGradient><mask id="x" x="489" y="226" width="99.31" height="96" maskUnits="userSpaceOnUse"><g id="y"><rect x="489" y="226" width="99" height="95" rx="5.3" ry="5.3" style="fill:url(#z); stroke-width:0px;"/></g></mask><linearGradient id="aa" x1="489" y1="16" x2="588.31" y2="112" gradientTransform="translate(0 338) scale(1 -1)" gradientUnits="userSpaceOnUse"><stop offset="0" stop-color="#3b82f6"/><stop offset="1" stop-color="#e0f2fe"/></linearGradient><linearGradient id="ab" x1="-28.53" y1="116.76" x2="26.16" y2="167.87" gradientTransform="translate(396.06 274.57) rotate(90) scale(1 -1)" gradientUnits="userSpaceOnUse"><stop offset="0" stop-color="#e0f2fe"/><stop offset="1" stop-color="#3b82f6"/></linearGradient><linearGradient id="ae" x1="151.5" y1="336" x2="151.5" y2="242" gradientTransform="translate(0 338) scale(1 -1)" gradientUnits="userSpaceOnUse"><stop offset="0" stop-color="#d9d9d9" stop-opacity="0"/><stop offset=".5" stop-color="#d9d9d9" stop-opacity=".25"/><stop offset="1" stop-color="#d9d9d9"/></linearGradient><mask id="ac" x="102" y="0" width="99.31" height="96" maskUnits="userSpaceOnUse"><g id="ad"><rect x="102" y="2" width="99" height="94" rx="5.3" ry="5.3" style="fill:url(#ae); stroke-width:0px;"/></g></mask><linearGradient id="af" x1="102" y1="242" x2="201.31" y2="338" gradientTransform="translate(0 338) scale(1 -1)" gradientUnits="userSpaceOnUse"><stop offset="0" stop-color="#9333ea"/><stop offset="1" stop-color="#ddd6fe"/></linearGradient><linearGradient id="ag" x1="116.84" y1="252.96" x2="193.41" y2="324.52" gradientTransform="translate(0 338) scale(1 -1)" gradientUnits="userSpaceOnUse"><stop offset="0" stop-color="#ddd6fe"/><stop offset="1" stop-color="#9333ea"/></linearGradient></defs><g style="clip-path:url(#b);"><path d="M313,124h0c26.51,0,48,21.49,48,48h0c0,26.51-21.49,48-48,48h0c-26.51,0-48-21.49-48-48h0c0-26.51,21.49-48,48-48Z" style="stroke-width:0px;"/><circle cx="313" cy="172" r="79.5" style="fill:none; isolation:isolate; opacity:.2; stroke:#e3e5e8;"/><circle cx="313" cy="172" r="111.5" style="fill:none; isolation:isolate; opacity:.2; stroke:#e3e5e8;"/><circle cx="313" cy="172" r="143.5" style="fill:none; isolation:isolate; opacity:.2; stroke:#e3e5e8;"/><line x1="626" y1="96.5" y2="96.5" style="fill:none; isolation:isolate; opacity:.2; stroke:url(#c);"/><line x1="626" y1="65.5" x2="313" y2="65.5" style="fill:none; isolation:isolate; opacity:.2; stroke:url(#d);"/><line x1="201.5" y1="96" x2="201.5" y2="351" style="fill:none; isolation:isolate; opacity:.2; stroke:url(#e);"/><line x1="392.5" y1="1" x2="392.5" y2="256" style="fill:none; isolation:isolate; opacity:.2; stroke:url(#f);"/><line x1="626" y1="176.5" x2="361" y2="176.5" style="fill:none; isolation:isolate; opacity:.2; stroke:url(#g);"/><line x1="488.5" y1="351" x2="488.5" y2="176" style="fill:none; isolation:isolate; opacity:.2; stroke:url(#h);"/><line y1="255.5" x2="626" y2="255.5" style="fill:none; isolation:isolate; opacity:.2; stroke:url(#i);"/><line y1="287.5" x2="313" y2="287.5" style="fill:none; isolation:isolate; opacity:.2; stroke:url(#j);"/><line x1="313.5" y1="2" x2="313.5" y2="128" style="fill:none; isolation:isolate; opacity:.2; stroke:url(#k);"/><line x1="312.5" y1="351" x2="312.5" y2="224" style="fill:none; isolation:isolate; opacity:.2; stroke:url(#l);"/><g style="mask:url(#m);"><rect x="51" y="226" width="150" height="145" style="fill:url(#p); stroke-width:0px;"/><path d="M126,242h0c30.93,0,56,25.07,56,56h0c0,30.93-25.07,56-56,56h0c-30.93,0-56-25.07-56-56h0c0-30.93,25.07-56,56-56Z" style="fill:url(#q); stroke-width:0px;"/></g><rect x="393" y="65" width="114.83" height="111" rx="6.12" ry="6.12" style="fill:#fff; stroke-width:0px;"/><g style="mask:url(#r);"><rect x="393" y="65" width="114.83" height="111" rx="6.12" ry="6.12" style="fill:url(#u); stroke-width:0px;"/><path d="M452.71,77.25l37.13,21.43v42.87l-37.13,21.43-37.12-21.43v-42.87l37.12-21.43Z" style="fill:#d9d9d9; stroke-width:0px;"/><path d="M452.71,77.25l37.13,21.43v42.87l-37.13,21.43-37.12-21.43v-42.87l37.12-21.43Z" style="fill:url(#v); stroke-width:0px;"/><path d="M452.71,77.25l37.13,21.43v42.87l-37.13,21.43-37.12-21.43v-42.87l37.12-21.43Z" style="fill:url(#w); stroke-width:0px;"/></g><g style="mask:url(#x);"><rect x="489" y="226" width="99.31" height="96" style="fill:url(#aa); stroke-width:0px;"/><rect x="511.89" y="246.9" width="52.97" height="52.97" transform="translate(-35.63 460.76) rotate(-45)" style="fill:#d9d9d9; stroke-width:0px;"/><rect x="511.89" y="246.9" width="52.97" height="52.97" transform="translate(-35.63 460.76) rotate(-45)" style="fill:url(#ab); stroke-width:0px;"/></g><rect x="102" width="99.31" height="96" rx="5.3" ry="5.3" style="fill:#fff; stroke-width:0px;"/><g style="mask:url(#ac);"><rect x="102" width="99.31" height="96" style="fill:url(#af); stroke-width:0px;"/><path d="M153.64,10.59l35.26,25.62-13.47,41.45h-43.59l-13.47-41.45,35.26-25.62Z" style="fill:#d9d9d9; stroke-width:0px;"/><path d="M153.64,10.59l35.26,25.62-13.47,41.45h-43.59l-13.47-41.45,35.26-25.62Z" style="fill:url(#ag); stroke-width:0px;"/></g><path d="M313.78,145.62c-1.68,3.14-3.37,6.27-5.06,9.41.12.08,2.5,1.67,2.36,4.29-.07,1.35-.78,2.29-1.09,2.66-.8.78-2.41,2.09-4.7,2.39-.56.07-3.82.49-4.6-1.19-.55-1.19.49-2.71.67-2.96-2.13-1.73-4.26-3.46-6.39-5.2l2.53,9.69-.07,10.25,1.68,3.02v8c.39.96,1.09,2.34,2.32,3.72.93,1.04,1.89,1.76,2.64,2.25.15-5.85.3-11.7.45-17.55.47-1.32,1.7-2.2,3.02-2.18,1.53.02,2.89,1.24,3.09,2.88l.28,20.85,2.74,1.83,3.09-1.76-.35-20.85c.16-1.58,1.46-2.81,3.02-2.88,1.61-.08,3.06,1.11,3.3,2.74v17.25c.82-.46,2.03-1.28,3.16-2.65,1.33-1.62,1.91-3.25,2.18-4.21,0-2.48.28-5.66.26-8.07l1.5-2.39s.26-10.79.25-11.87c.2-1.31,1.6-6.91,2-8.07-2.11,1.66-4.21,3.32-6.32,4.98,1.17,2.03,1.02,2.83.74,3.19-1.29,1.7-8.96-.59-8.96-.59.05-.03-1.07-2.41-1.26-3.73-.12-.87.18-2.11,1.97-3.79-1.47-3.16-2.95-6.32-4.42-9.48h0s0,0,0,0Z" style="fill:#fff; stroke-width:0px;"/></g></svg>