<svg width="160" height="160" viewBox="0 0 160 160" fill="none" xmlns="http://www.w3.org/2000/svg">
<path d="M69.8995 14.1238L71.0947 13.9467L72.3001 13.7962L73.0411 13.7137L74.2374 13.5921L75.4429 13.4969L76.6565 13.428L77.3461 13.3906L78.5476 13.349L79.7558 13.3334L80.4091 13.3373L81.6029 13.3475L82.8021 13.383L84.0058 13.4442L85.7836 13.5714L86.9734 13.6808L88.1661 13.8152L89.3608 13.9742L89.8627 14.0482L91.0364 14.2281L92.2112 14.4319L93.386 14.6595L94.5602 14.9103L95.7336 15.1847L96.1164 15.2771L97.2651 15.569L98.4115 15.8833L99.5551 16.2203L100.695 16.5797L101.831 16.9606L102.963 17.3637L104.089 17.7879L104.299 17.8684L105.397 18.3052L106.487 18.7623L107.571 19.2402L108.648 19.7379L109.716 20.2557L110.777 20.7928L111.827 21.3491L112.868 21.9245L113.899 22.5186L114.919 23.131L115.928 23.7614L116.924 24.4096L117.908 25.0753L118.88 25.7578L119.838 26.4567L120.781 27.1721L121.711 27.9033L122.625 28.6501L122.796 28.7947L123.714 29.5727L124.615 30.3657L125.5 31.1732L126.367 31.9951L127.217 32.8306L128.048 33.6795L128.861 34.5414L129.126 34.8305L129.935 35.7221L130.724 36.6262L131.493 37.5422L132.241 38.4696L132.968 39.4077L133.274 39.8093L133.993 40.7758L134.689 41.7525L135.362 42.7388L136.334 44.2291L136.972 45.2511L137.585 46.2813L138.173 47.3189L138.491 47.8866L139.064 48.9497L139.61 50.0194L140.439 51.7321L140.94 52.8312L141.414 53.9352L141.7 54.6213L142.153 55.7471L142.578 56.8771M69.8995 14.1238L69.131 14.2511L67.9293 14.458L66.7395 14.6924L65.9475 14.865L64.7537 15.13L63.5729 15.4225L62.761 15.6413L61.5792 15.9655L60.412 16.317L59.5846 16.5825L58.4186 16.9663L57.269 17.3778L56.4299 17.6902L55.2841 18.1343L54.1558 18.6059L53.3091 18.965L52.1873 19.4698L51.348 19.8697L50.2342 20.4076L49.1408 20.9733L48.3009 21.4189L47.218 22.0177L46.3903 22.503L45.3196 23.1347L44.2717 23.7942L43.4499 24.3231L42.4167 25.0155L41.6119 25.5818L40.5949 26.3065L39.6029 27.0584L38.81 27.6661L37.8367 28.4498L37.0654 29.0923L36.1125 29.9077L35.3645 30.5834L34.4335 31.4302L33.5302 32.3029L32.8024 33.0151L31.9233 33.9178L31.2227 34.6604L30.3688 35.5926M69.8995 14.1238L68.7154 14.3279L67.5426 14.5589L66.3825 14.8165L65.2352 15.1008L64.1016 15.4117L62.9827 15.749L61.8786 16.1129L60.79 16.5029L59.718 16.9187L58.6626 17.3608L57.6252 17.8285L56.6062 18.3216L55.6059 18.8403L54.6252 19.3842L53.6647 19.953L52.7251 20.5465L51.8068 21.1644L50.9104 21.8063L50.0367 22.4721L49.186 23.1614L48.3593 23.8739L47.5569 24.6094L46.7793 25.3673L46.0274 26.1472L45.3012 26.949L44.6012 27.7724L43.9283 28.6164L43.2831 29.4809L42.6659 30.3657L42.077 31.2698L41.5172 32.1932L40.9865 33.1353L40.4854 34.0953L40.0146 35.0728L39.5742 36.0676L39.1648 37.0786L38.7868 38.1057L38.4406 39.1481L38.1262 40.2053L37.8438 41.2766L37.5941 42.3613L37.3773 43.459L37.1931 44.5689L37.0428 45.6904L36.9256 46.8227L36.8421 47.9654L36.7927 49.1173L36.7771 50.2782L36.7953 51.4473L36.8481 52.6235L36.9346 53.8065L37.0558 54.9952L37.2113 56.1892L37.4011 57.3876L37.6253 58.5893L37.8835 59.7941L38.1758 61.0006L38.5024 62.2086L38.8628 63.4171L39.257 64.6253L39.6849 65.8322L40.1466 67.037L40.6412 68.2393L41.1687 69.4379L41.7289 70.6322L42.3214 71.8212L42.9457 73.0042L43.602 74.1804L44.2899 75.3489L45.0084 76.5093L45.7575 77.66L46.5367 78.801L47.3452 79.931L48.1829 81.0497L49.0492 82.1556L49.9433 83.2488L50.865 84.3278L51.8137 85.392L52.7884 86.4407L53.789 87.4735L54.8142 88.4893L55.8636 89.4875L56.9365 90.4676L58.0324 91.4284L59.1504 92.3696L60.2898 93.2902L61.4498 94.1901L62.6297 95.0681L63.8283 95.924L65.0451 96.7573L66.2792 97.5671L67.5298 98.3527L68.796 99.1137L70.0771 99.8497L71.372 100.56L72.6796 101.244L73.9994 101.902L75.3305 102.533L76.6716 103.137L78.0221 103.713L79.3807 104.26L80.7468 104.779L82.1196 105.269L83.4976 105.73L84.8804 106.161L86.2666 106.563L87.6554 106.935L89.0461 107.276L90.4374 107.587L91.8284 107.868L93.2183 108.117L94.6059 108.337L95.9907 108.524L97.3715 108.682L98.7472 108.808L100.117 108.903L101.48 108.966L102.836 108.999L104.183 109L105.52 108.971L106.848 108.91L108.163 108.82L109.467 108.698L110.759 108.546L112.036 108.363L113.298 108.151L114.546 107.908L115.777 107.636L116.991 107.334L118.188 107.003L119.367 106.644L120.526 106.256L121.665 105.839L122.784 105.395L123.882 104.924L124.958 104.425L126.012 103.9L127.043 103.348L128.05 102.771L129.033 102.168L129.991 101.54L130.924 100.888L131.831 100.212L132.712 99.5128L133.566 98.7903L134.393 98.0458L135.192 97.2794L135.964 96.4917L136.707 95.6831L137.421 94.8544L138.106 94.0061L138.762 93.1388L139.388 92.2532L139.984 91.3499L140.55 90.4293L141.085 89.4923L141.59 88.5392L142.064 87.5707L142.506 86.5878L142.918 85.5907L143.298 84.5803L143.646 83.5572L143.963 82.5218L144.249 81.4751L144.502 80.4177L144.724 79.35L144.914 78.2727L145.072 77.1867L145.199 76.0926L145.293 74.991L145.356 73.8825L145.388 72.7678L145.387 71.6477L145.356 70.5225L145.292 69.3931L145.198 68.2602L145.073 67.1246L144.917 65.9863L144.73 64.8467L144.512 63.7062L144.264 62.5651L143.986 61.4244L143.678 60.2847L143.341 59.1462L142.974 58.0102L142.578 56.8771M30.3688 35.5926L29.6968 36.3638L28.8697 37.3246L28.0734 38.31L27.429 39.1116L26.6614 40.1245L26.0487 40.9507L25.3112 41.9897L24.7318 42.8391L24.0258 43.9037L23.4807 44.7741L22.8064 45.8627L22.166 46.9734L21.656 47.8642L21.049 48.9974L20.576 49.9049L20.0037 51.059L19.5684 51.9812L19.0315 53.1549L18.6351 54.0899L18.1345 55.2823L17.67 56.4931L17.3133 57.4369L16.8859 58.6638L16.5698 59.6153L16.1799 60.8569L15.9044 61.8138L15.5525 63.0682L15.2381 64.3385L15.0043 65.2945L14.7284 66.575L14.536 67.5313L14.2988 68.8206L14.1479 69.7748L13.9495 71.0715L13.7892 72.3804L13.6805 73.3233L13.559 74.6367M30.3688 35.5926L29.5452 36.55L28.7521 37.5315L27.9905 38.5371L27.2606 39.5662L26.5631 40.618L25.8986 41.6925L25.2675 42.7885L24.6704 43.9057L24.1077 45.0437L23.5799 46.2014L23.0876 47.3788L22.6316 48.5748L22.2116 49.7887L21.8282 51.0202L21.4823 52.2681L21.1736 53.5319L20.9026 54.811L20.6696 56.1045L20.4752 57.4117L20.3194 58.7316L20.2028 60.0637L20.1253 61.4071L20.087 62.761L20.0882 64.1246L20.129 65.4966L20.2096 66.8766L20.3299 68.264L20.4905 69.657L20.6909 71.0554L20.9312 72.4583L21.2116 73.8644L21.5317 75.273L21.8912 76.6833L22.2907 78.0942L22.7297 79.5048L23.2082 80.914L23.7257 82.3209L24.2822 83.7247L24.8773 85.1245L25.5104 86.519L26.1818 87.9074L26.8906 89.2889L27.6366 90.6623L28.4195 92.0267L29.2391 93.3812L30.0943 94.7249L30.9851 96.0567L31.9104 97.3758L32.8701 98.6812L33.8633 99.9719L34.8897 101.247L35.9484 102.506L37.0389 103.747L38.1604 104.97L39.3119 106.174L40.493 107.357L41.7026 108.521L42.9402 109.662L44.2049 110.78L45.4955 111.875L46.8116 112.946L48.1521 113.993L49.5159 115.013L50.9021 116.007L52.3098 116.974L53.7383 117.914L55.1861 118.825L56.6526 119.706L58.1364 120.558L59.6367 121.379L61.1523 122.17L62.6824 122.929L64.2255 123.657L65.7808 124.351L67.3469 125.013L68.9233 125.642L70.5084 126.236L72.1009 126.797L73.7002 127.322L75.3049 127.813L76.9138 128.269L78.5259 128.689L80.14 129.074L81.7549 129.423L83.3698 129.735L84.983 130.011L86.5943 130.251L88.2015 130.455L89.8042 130.622L91.4013 130.752L92.9912 130.845L94.5732 130.902L96.1464 130.923L97.7094 130.907L99.2613 130.854L100.801 130.766L102.328 130.641L103.84 130.48L105.337 130.284L106.818 130.052L108.283 129.785L109.728 129.483L111.156 129.146L112.563 128.775L113.95 128.37L115.315 127.932L116.658 127.46L117.977 126.956L119.273 126.419L120.544 125.85L121.789 125.25L123.008 124.62L124.2 123.959L125.365 123.268L126.502 122.548L127.609 121.799L128.687 121.022L129.735 120.218L130.753 119.386L131.739 118.529L132.694 117.646L133.617 116.738L134.507 115.805L135.365 114.849L136.188 113.87L136.978 112.869L137.734 111.847L138.456 110.803L139.143 109.74L139.795 108.657L140.411 107.555L140.993 106.436L141.538 105.299L142.047 104.146L142.52 102.977L142.957 101.794M13.559 74.6367L13.4921 75.5723L13.4092 76.8882L13.3644 78.2138L13.3388 79.1309L13.332 80.4565L13.3471 81.3609L13.378 82.6845L13.4472 84.0152L13.5014 84.8938L13.6076 86.2199L13.8437 88.4L14.0236 89.7239L14.1535 90.552L14.3689 91.8665L14.6209 93.1839L14.7855 93.9752L15.0715 95.2804L15.3936 96.5864L15.5902 97.3375L15.9447 98.629L16.3348 99.9195M13.559 74.6367L13.4757 75.9605L13.4306 77.2946L13.424 78.6375L13.4558 79.9885L13.5268 81.3473L13.6363 82.7125L13.785 84.0832L13.9726 85.4589L14.199 86.8383L14.4646 88.2209L14.7688 89.6054L15.1116 90.991L15.4933 92.377L15.9135 93.7621L16.3721 95.1457L16.869 96.5268L17.4039 97.9043L17.9762 99.2775L18.5857 100.645L19.2327 102.007L19.9161 103.361L20.636 104.707L21.3916 106.044L22.1831 107.371L23.0097 108.687L23.8706 109.99L24.7653 111.282L25.6938 112.559L26.6549 113.821L27.6484 115.068L28.6737 116.299L29.7298 117.512L30.8164 118.707L31.9324 119.883L33.0771 121.039L34.25 122.174L35.4503 123.288L36.6767 124.379L37.9293 125.447L39.2062 126.491L40.5073 127.511L41.8313 128.505L43.1775 129.473L44.5447 130.414L45.9321 131.328L47.3387 132.214L48.7638 133.07L50.2059 133.898L51.6644 134.695L53.138 135.462L54.6258 136.198L56.1267 136.903L57.6397 137.576L59.1635 138.216L60.6976 138.823L62.2401 139.397L63.7906 139.937L65.3479 140.444L66.9103 140.916L68.4776 141.353L70.0483 141.756L71.6209 142.124L73.1949 142.456L74.769 142.753L76.3419 143.014L77.9128 143.239L79.4807 143.429L81.0442 143.582L82.6024 143.7L84.1543 143.782L85.6988 143.828L87.2346 143.838L88.7609 143.812L90.2771 143.75L91.7814 143.653L93.2734 143.521L94.7518 143.353L96.2158 143.15L97.6641 142.913L99.0966 142.641L100.511 142.334L101.908 141.994L103.286 141.62L104.644 141.213L105.982 140.773L107.297 140.301L108.591 139.796L109.861 139.26L111.108 138.693L112.33 138.094L113.526 137.466L114.697 136.808L115.841 136.121L116.958 135.405M16.3348 99.9195L16.5613 100.626L16.9818 101.9L17.4376 103.17L17.6901 103.83L18.1742 105.081L18.6921 106.328L19.2437 107.569L19.5122 108.161L20.0891 109.38L20.6986 110.592L21.6183 112.317L22.2823 113.495L22.9775 114.665L23.7034 115.824L23.9838 116.27L24.7281 117.401L25.5016 118.52L26.3038 119.627L26.5797 119.996L27.3969 121.072L28.2414 122.135L29.1126 123.184L30.0101 124.217L30.9329 125.235L31.1662 125.488L32.0981 126.473L33.0538 127.44L34.0328 128.39L35.0345 129.321L36.0583 130.233L37.1034 131.126L38.1693 131.999L38.3058 132.107L39.3719 132.944L40.4567 133.759L41.5597 134.553L42.68 135.325L43.8171 136.074L44.9697 136.8L46.1374 137.503L47.3193 138.18L48.5145 138.834L49.7225 139.462L50.9422 140.065L52.1729 140.642L53.4135 141.193L54.6632 141.717L54.8261 141.784L56.1073 142.29L57.3959 142.768L58.6915 143.218L59.9929 143.64L61.2991 144.033L62.6095 144.397L63.9231 144.732L64.2596 144.813L65.5981 145.124L66.9381 145.405L68.2783 145.656L69.6183 145.877L70.9568 146.066L71.4142 146.129L72.772 146.291L74.127 146.422L75.4775 146.523L76.005 146.551L77.3711 146.621L78.7311 146.66L80.0844 146.667L80.6761 146.657L82.0407 146.632L83.3966 146.575L84.7425 146.486L85.392 146.434L86.7456 146.312L88.0869 146.158L89.4158 145.973L90.1167 145.874L91.449 145.654L92.7665 145.402L93.4958 145.257M16.3348 99.9195L16.7608 101.208L17.2219 102.494L17.7182 103.777L18.2492 105.055L18.8147 106.328L19.4146 107.595L20.0485 108.854L20.7159 110.106L21.4166 111.349L22.1504 112.583L22.9163 113.806L23.7142 115.018L24.5437 116.217L25.4037 117.404L26.2945 118.577L27.215 119.735L28.1648 120.877L29.1435 122.004L30.15 123.113L31.1838 124.204L32.2445 125.277L33.3308 126.331L34.4426 127.364L35.5788 128.376L36.7388 129.366L37.9218 130.335L39.127 131.28L40.3534 132.201L41.6003 133.099L42.8668 133.971L44.1519 134.818L45.4553 135.639L46.7754 136.433L48.1113 137.199L49.4629 137.938L50.8281 138.648L52.2069 139.33L53.5977 139.982L54.9998 140.605L56.4124 141.197L57.8343 141.759L59.2642 142.29L60.7018 142.79L62.1456 143.258L63.5948 143.695L65.0482 144.099L66.5051 144.471L67.9639 144.811L69.4245 145.117L70.885 145.391L72.345 145.631L73.8033 145.839L75.259 146.013L76.7107 146.154L78.158 146.261L79.5995 146.335L81.0345 146.376L82.4618 146.384L83.8804 146.357L85.2899 146.299L86.6888 146.207L88.0764 146.082L89.4519 145.924L90.8142 145.734L92.1624 145.511L93.4958 145.257M93.4958 145.257L94.8136 144.97L96.1147 144.652L96.8684 144.46L98.1666 144.107L99.4467 143.722L100.22 143.482L101.494 143.062L102.747 142.611L103.536 142.324L104.781 141.837L105.569 141.506L106.803 140.985L108.013 140.433L108.81 140.055L110.006 139.469L111.178 138.853L111.978 138.428L113.134 137.778L113.924 137.311L115.061 136.629L116.172 135.917L116.958 135.405M116.958 135.405L118.047 134.661L118.821 134.11L119.887 133.334L120.924 132.531L121.686 131.937L122.698 131.104L123.442 130.472L124.428 129.61L125.152 128.943L126.109 128.051L127.035 127.135L127.74 126.431L128.636 125.488L129.316 124.751L130.181 123.783L130.834 123.014L131.667 122.021L132.466 121.005L133.093 120.206L133.858 119.168L134.455 118.341L135.186 117.281L135.751 116.429L136.448 115.349L136.98 114.473L137.641 113.374L138.265 112.258L138.763 111.36L139.351 110.227L139.814 109.31L140.364 108.162L140.791 107.227L141.304 106.066L141.694 105.115L142.169 103.942L142.608 102.754L142.957 101.794M142.957 101.794L143.358 100.596L143.669 99.6253L144.032 98.4196L144.303 97.4395L144.628 96.2276L144.916 95.004L145.146 94.024L145.396 92.7962L145.585 91.8124L145.798 90.5821L145.947 89.5963L146.123 88.3654L146.263 87.1257L146.369 86.1496L146.474 84.9116L146.539 83.9383L146.607 82.7035L146.64 81.4621L146.665 80.5052L146.663 79.2692L146.647 78.3206L146.611 77.0914L146.541 75.8577L146.485 74.932L146.382 73.7076L146.287 72.795L146.152 71.5811L145.985 70.3649L145.853 69.4818L145.655 68.2781L145.425 67.0738L145.257 66.2236L144.999 65.0337L144.709 63.8442L144.508 63.0302L144.191 61.8574L143.843 60.686L143.612 59.9114L143.24 58.7587L142.838 57.6089L142.578 56.8771M47.2185 22.0178L46.1572 22.6441L45.1186 23.2977L44.1031 23.9782L43.1113 24.6851L42.1439 25.4183L41.2018 26.1779L40.2858 26.9627L39.3959 27.773L38.533 28.6082L37.6979 29.4678L36.8908 30.3516L36.1125 31.2591L35.3636 32.1896L34.6448 33.1427L33.9564 34.1182L33.2992 35.1153L32.6732 36.134L32.0796 37.173L31.5183 38.2321L30.9899 39.3108L30.495 40.4085L30.0339 41.5247L29.6074 42.6584L29.2155 43.8091L28.8586 44.9765L28.537 46.1595L28.2513 47.3575L28.0013 48.57L27.7879 49.7961L27.6108 51.0352L27.4709 52.2865L27.3682 53.5492L27.3026 54.8226L27.2743 56.1059L27.2836 57.3984L27.3307 58.699L27.4156 60.007L27.5385 61.3218L27.6991 62.6425L27.898 63.9678L28.1347 65.2976L28.4091 66.6303L28.7215 67.9655L29.0714 69.3024L29.459 70.6396L29.8841 71.9765L30.3466 73.3123L30.8463 74.6461L31.3826 75.9767L31.9559 77.3037L32.5651 78.6256L33.2104 79.9421L33.8911 81.2518L34.6071 82.5539L35.3582 83.8477L36.1437 85.1319L36.9632 86.4061L37.8159 87.6691L38.7016 88.9201L39.6195 90.1584L40.5693 91.3828L41.5506 92.5924L42.5622 93.7868L43.6039 94.9644L44.6748 96.125L45.7742 97.2675L46.9013 98.3913L48.0556 99.4955L49.2361 100.579L50.4421 101.642L51.6728 102.682L52.9273 103.7L54.2049 104.694L55.5045 105.664L56.8252 106.609L58.1662 107.529L59.5266 108.423L60.9054 109.29L62.3016 110.129L63.7145 110.94L65.1426 111.723L66.585 112.477L68.0413 113.201L69.5098 113.895L70.9897 114.558L72.4797 115.19L73.9794 115.791L75.4871 116.36L77.0021 116.897L78.5234 117.401L80.0495 117.872L81.5798 118.31L83.1127 118.715L84.6479 119.086L86.1837 119.423L87.7191 119.726L89.2534 119.994L90.7852 120.228L92.3136 120.429L93.8374 120.594L95.3558 120.725L96.8678 120.821L98.372 120.883L99.8674 120.91L101.354 120.902L102.829 120.86L104.293 120.784L105.745 120.673L107.183 120.529L108.606 120.351L110.015 120.139L111.407 119.894L112.782 119.615L114.139 119.304L115.477 118.96L116.796 118.585L118.094 118.177L119.371 117.738L120.626 117.267L121.859 116.766L123.067 116.235L124.252 115.674L125.411 115.083L126.545 114.464L127.654 113.816L128.734 113.14L129.788 112.437L130.814 111.708L131.811 110.951L132.779 110.17L133.718 109.363L134.626 108.532L135.504 107.677L136.351 106.798L137.167 105.898L137.951 104.975L138.702 104.031L139.422 103.066L140.108 102.081L140.762 101.077L141.382 100.054L141.968 99.0134L142.521 97.9556L143.04 96.8812L143.524 95.7909L143.974 94.6855L144.39 93.5657L144.771 92.4326L145.117 91.2861L145.429 90.1275L145.705 88.9575L145.947 87.7765L146.153 86.5856L146.325 85.3853L146.462 84.1762L146.565 82.9594L146.632 81.7356L146.665 80.5053M19.0312 53.1549L18.53 54.3484L18.0652 55.5603L17.6367 56.7906L17.2454 58.0383L16.8913 59.3029L16.5749 60.5831L16.2962 61.8789L16.0562 63.1889L15.8547 64.5128L15.6924 65.8494L15.5692 67.1985L15.4855 68.5587L15.4412 69.929L15.437 71.3093L15.4725 72.6981L15.548 74.0948L15.6637 75.4986L15.8198 76.9083L16.0162 78.3234L16.2528 79.7425L16.5298 81.165L16.8467 82.5901L17.2037 84.0163L17.6007 85.443L18.0377 86.8695L18.5142 88.2946L19.0303 89.7171L19.5859 91.1362L20.1802 92.551L20.8129 93.9605L21.4843 95.3637L22.1935 96.7598L22.9403 98.1475L23.7244 99.526L24.5453 100.894L25.4023 102.252L26.2953 103.597L27.223 104.929L28.1855 106.247L29.1821 107.55L30.2119 108.837L31.2746 110.108L32.3694 111.36L33.4953 112.594L34.6517 113.809L35.8381 115.003L37.0535 116.176L38.2969 117.327L39.5677 118.455L40.865 119.559L42.188 120.639L43.5356 121.693L44.907 122.721L46.3009 123.722L47.7169 124.696L49.1536 125.642L50.6099 126.558L52.0852 127.445L53.5783 128.302L55.088 129.128L56.6135 129.923L58.1532 130.686L59.7066 131.416L61.2721 132.114L62.849 132.778L64.4361 133.408L66.032 134.004L67.6361 134.565L69.2465 135.091L70.8629 135.582L72.4834 136.037L74.1074 136.456L75.7334 136.84L77.3605 137.186L78.9877 137.496L80.6134 137.769L82.2371 138.006L83.8568 138.206L85.4723 138.368L87.0818 138.494L88.6848 138.582L90.2799 138.634L91.8656 138.648L93.4416 138.626L95.0066 138.566L96.5593 138.47L98.0988 138.338L99.6243 138.169L101.134 137.964L102.629 137.724L104.106 137.448L105.564 137.136L107.005 136.789L108.425 136.408L109.824 135.992L111.202 135.543L112.557 135.06L113.889 134.544L115.197 133.995L116.48 133.414L117.738 132.802L118.969 132.159L120.173 131.485L121.35 130.78L122.498 130.047L123.617 129.284L124.707 128.493L125.766 127.675L126.795 126.829L127.792 125.957L128.757 125.059L129.691 124.136L130.591 123.188L131.459 122.217L132.293 121.223L133.092 120.206M116.129 31.4736L115.637 31.0561L115.138 30.6471L114.63 30.2463L114.113 29.8546L113.589 29.4715L113.058 29.0976L112.519 28.7331L111.973 28.378L111.421 28.0325L110.862 27.6972L110.298 27.3721L109.728 27.057L109.153 26.7526L108.572 26.4587L107.987 26.1758L107.398 25.9037L106.804 25.6427L106.207 25.3933L105.607 25.1549L105.003 24.9285L104.397 24.7136L103.789 24.5104L103.178 24.3191L102.566 24.14L101.953 23.973L101.338 23.8186L100.724 23.6763L100.108 23.5465L99.4934 23.4292L98.8788 23.3246L98.265 23.2325L97.6523 23.1531L97.0411 23.0865L96.4315 23.0329L95.8246 22.9921L95.2199 22.9643L94.6183 22.9496L94.0198 22.9476L93.4248 22.9587L92.834 22.9828L92.2471 23.0199L91.6651 23.0698L91.0879 23.133L90.5162 23.2089L89.95 23.2979L89.3896 23.3997L88.8357 23.5142L88.2883 23.6414L87.7477 23.7817L87.2148 23.9345L86.6893 24.1L86.1714 24.278L85.6621 24.4685L85.1612 24.6711L84.6689 24.8859L84.1859 25.113L83.7123 25.3522L83.2486 25.603L82.7946 25.866L82.3511 26.1404L81.918 26.4261L81.4961 26.7234L81.0849 27.0318L80.6851 27.3512L80.2969 27.6814L79.9206 28.0223L79.5565 28.3735L79.2046 28.7351L78.8655 29.107L78.5392 29.4885L78.2256 29.8796L77.9254 30.2803L77.6385 30.6902L77.3653 31.1091L77.1059 31.5368L76.8607 31.9729L76.6295 32.4174L76.4124 32.8697L76.2101 33.33L76.0222 33.7973L75.8491 34.2721L75.6908 34.7539L75.5475 35.2422L75.4195 35.7371L75.3065 36.2376L75.2092 36.7444L75.1269 37.2562L75.0602 37.7732L75.0089 38.2953L74.9734 38.8219L74.9535 39.3524L74.9493 39.887L74.9606 40.4252L74.9879 40.9665L75.0307 41.5107L75.0892 42.0577L75.1635 42.6067L75.2535 43.1577L75.359 43.7101L75.4805 44.2639L75.6173 44.8183L75.7694 45.3732L75.9371 45.9284L76.1198 46.4836L76.3179 47.038L76.5313 47.5915L76.7597 48.1439L77.0026 48.6946L77.2606 49.2436L77.533 49.7901L77.8199 50.334L78.1209 50.875L78.4362 51.4124L78.7654 51.9463L79.1082 52.4764L79.4646 53.0018L79.834 53.5225L80.2168 54.0383L80.6121 54.5487L81.0202 55.0535L81.4407 55.5521L81.8729 56.0444L82.3173 56.5301L82.773 57.0088L83.2401 57.4802L83.718 57.9439L84.2063 58.3999L84.7052 58.8474L85.2143 59.2867L85.7327 59.717L86.2608 60.1384L86.7977 60.5505L87.3434 60.9527L87.8973 61.3452L88.4591 61.7279L89.0286 62.1L89.6055 62.4613L90.1893 62.8122L90.7795 63.1518L91.3757 63.48L91.9778 63.7968L92.5854 64.1021L93.1977 64.3954L93.8147 64.6766L94.4355 64.9456L95.0607 65.2021L95.6887 65.4461L96.32 65.6774L96.9537 65.8956L97.5896 66.1011L98.2272 66.2932L98.8663 66.4724L99.5061 66.6382L100.147 66.7901L100.787 66.9287L101.427 67.0537L102.067 67.165L102.705 67.2625L103.342 67.3464L103.977 67.4164L104.609 67.4723L105.239 67.5145L105.866 67.5426L106.489 67.557L107.108 67.5573L107.723 67.5437L108.333 67.5162L108.938 67.4751L109.538 67.4201L110.132 67.3513L110.719 67.2685L111.3 67.1724L111.874 67.0627L112.441 66.9394L113 66.8028L113.551 66.6532L114.094 66.4902L114.629 66.3142L115.154 66.1252L115.67 65.9234L116.177 65.7091L116.673 65.4821L117.16 65.2431L117.636 64.9918L118.101 64.7284L118.555 64.4535L118.998 64.1667L119.43 63.8685L119.85 63.5591L120.257 63.2388L120.653 62.9077L121.036 62.5659L121.406 62.2139L121.764 61.8517L122.108 61.4796L122.439 61.0981L122.757 60.707L123.061 60.3065L123.351 59.8975L123.627 59.4797L123.89 59.0538L124.138 58.6195L124.371 58.1774L124.59 57.7279L124.795 57.2713L124.985 56.8076L125.16 56.3371L125.321 55.8604L125.466 55.3775L125.596 54.8888L125.712 54.3948L125.812 53.8955L125.897 53.3912L125.968 52.8825L126.023 52.3692L126.062 51.8522L126.087 51.3316L126.097 50.8076L126.091 50.2807L126.07 49.751L126.034 49.2187L125.983 48.6844L125.918 48.1485L125.837 47.6111L125.741 47.0723L125.631 46.533L125.506 45.993L125.366 45.4528L125.212 44.9129L125.043 44.3733L124.86 43.8342L124.663 43.2966L124.452 42.76L124.227 42.2252L123.988 41.6924L123.736 41.1618L123.47 40.6338L123.191 40.1089L122.899 39.5868L122.594 39.0685L122.276 38.5535L121.946 38.043L121.604 37.5365L121.249 37.0349L120.882 36.538L120.504 36.0463L120.114 35.5602L119.713 35.0795L119.301 34.6051L118.878 34.1369L118.444 33.6752L118.001 33.2203L117.547 32.7725L117.084 32.3318L116.611 31.8987L116.129 31.4736ZM110.076 35.1893L110.354 35.4081L110.639 35.6196L110.917 35.8335L111.174 36.06L111.403 36.3063L111.613 36.5668L111.818 36.8323L112.035 37.0945L112.272 37.3467L112.518 37.5939L112.757 37.8422L112.971 38.0984L113.15 38.3676L113.307 38.6462L113.457 38.9294L113.62 39.2111L113.807 39.4883L114.005 39.7618L114.195 40.0353L114.358 40.3119L114.481 40.5939L114.578 40.8807L114.668 41.1704L114.771 41.4615L114.901 41.7528L115.043 42.0431L115.177 42.3319L115.282 42.6184L115.344 42.9027L115.377 43.1867L115.402 43.4721L115.442 43.7617L115.509 44.0562L115.59 44.3524L115.663 44.6457L115.705 44.9317L115.703 45.2075L115.671 45.4776L115.631 45.7483L115.605 46.0249L115.607 46.3117L115.623 46.6028L115.631 46.8896L115.61 47.1642L115.544 47.421L115.448 47.667L115.343 47.9119L115.252 48.1653L115.188 48.4334L115.138 48.7083L115.08 48.9779L114.995 49.2304L114.867 49.4583L114.71 49.6705L114.545 49.88L114.391 50.1002L114.264 50.3394L114.149 50.5874L114.028 50.8295L113.881 51.0503L113.696 51.2402L113.484 51.4099L113.264 51.5757L113.054 51.754L112.867 51.9549L112.691 52.1664L112.511 52.3713L112.309 52.5515L112.072 52.6958L111.813 52.8163L111.547 52.9316L111.288 53.0603L111.048 53.215L110.819 53.382L110.585 53.5415L110.334 53.6739L110.057 53.7666L109.76 53.8326L109.457 53.8924L109.16 53.9667L108.876 54.0684L108.601 54.1838L108.323 54.2918L108.033 54.3711L107.725 54.408L107.403 54.4165L107.074 54.4182L106.75 54.4343L106.433 54.4794L106.123 54.5386L105.812 54.5905L105.494 54.6134L105.167 54.5928L104.831 54.5432L104.492 54.4859L104.152 54.4434L103.815 54.4292L103.482 54.4298L103.149 54.4236L102.816 54.3887L102.483 54.3113L102.147 54.205L101.809 54.0911L101.468 53.9908L101.125 53.9182L100.781 53.8601L100.44 53.7958L100.105 53.7045L99.7786 53.573L99.4565 53.414L99.1338 53.2474L98.8052 53.0935L98.4681 52.9653L98.1276 52.8506L97.7916 52.7307L97.4681 52.5867L97.1617 52.4061L96.866 52.2004L96.5714 51.9878L96.2686 51.786L95.9511 51.6072L95.6276 51.4408L95.3101 51.2702L95.0104 51.0792L94.7366 50.8567L94.4792 50.6126L94.2244 50.3621L93.9591 50.1206L93.6739 49.8984L93.3802 49.6867L93.0936 49.4722L92.83 49.2417L92.5995 48.9864L92.3904 48.7134L92.1858 48.4351L91.9684 48.1633L91.727 47.9065L91.4747 47.6585L91.2301 47.4091L91.0127 47.1484L90.8345 46.87L90.6824 46.579L90.536 46.2839L90.3751 45.9928L90.1867 45.7117L89.9855 45.4371L89.7925 45.1627L89.6299 44.8824L89.511 44.5922L89.4214 44.2946L89.3385 43.9941L89.2406 43.6951L89.1123 43.4012L88.9699 43.111L88.8362 42.8228L88.7341 42.5342L88.679 42.2434L88.6552 41.9509L88.6393 41.6568L88.6075 41.3617L88.5445 41.0664L88.4659 40.7725L88.3958 40.4817L88.3584 40.196L88.3689 39.9163L88.4117 39.6399L88.4628 39.3636L88.498 39.0838L88.502 38.7987L88.49 38.5127L88.486 38.231L88.5139 37.9592L88.5893 37.7013L88.6966 37.4516L88.8124 37.2036L88.9134 36.9499L88.9835 36.6864L89.0383 36.4191L89.1001 36.1572L89.1918 35.9104L89.3286 35.6836L89.496 35.4702L89.6716 35.2596L89.8337 35.0417L89.967 34.8092L90.0857 34.5712L90.2105 34.3396L90.362 34.1265L90.5547 33.9397L90.7755 33.7702L91.0039 33.605L91.2204 33.4304L91.4114 33.2382L91.5891 33.0384L91.7715 32.8454L91.9767 32.6742L92.2176 32.5342L92.4826 32.4149L92.755 32.3007L93.0175 32.1763L93.2587 32.0311L93.4877 31.877L93.7204 31.7299L93.9713 31.6069L94.2508 31.5184L94.5502 31.4532L94.8558 31.394L95.1543 31.3237L95.4358 31.2313L95.7076 31.1282L95.9815 31.0326L96.2681 30.9621L96.5757 30.9283L96.898 30.9193L97.2252 30.917L97.5479 30.9031L97.8591 30.8663L98.1634 30.8184L98.4676 30.7773L98.7791 30.7617L99.1032 30.7835L99.436 30.8306L99.7729 30.8847L100.108 30.9278L100.437 30.9476L100.762 30.9564L101.085 30.9714L101.41 31.0114L101.738 31.0876L102.069 31.1885L102.403 31.2968L102.737 31.3949L103.072 31.4708L103.405 31.5354L103.735 31.6063L104.061 31.6998L104.381 31.8274L104.699 31.9784L105.017 32.1366L105.339 32.2857L105.667 32.4146L105.996 32.5331L106.32 32.6566L106.635 32.8004L106.935 32.9747L107.227 33.1699L107.518 33.372L107.816 33.5664L108.124 33.7436L108.437 33.9117L108.744 34.0834L109.036 34.2722L109.305 34.4864L109.561 34.7186L109.814 34.9566L110.076 35.1893ZM120.58 29.3573L119.877 28.7615L119.163 28.1774L118.436 27.6057L117.698 27.0463L116.95 26.4993L116.19 25.9656L115.42 25.4449L114.641 24.9382L113.852 24.445L113.055 23.966L112.248 23.5015L111.434 23.0514L110.613 22.6164L109.784 22.1963L108.948 21.7919L108.106 21.4027L107.259 21.0295L106.406 20.6724L105.548 20.3311L104.686 20.0066L103.82 19.6985L102.95 19.4074L102.078 19.1331L101.203 18.8757L100.326 18.6357L99.4474 18.4132L98.568 18.2083L97.6878 18.0209L96.8076 17.8512L95.9279 17.6995L95.0491 17.5658L94.1717 17.4501L93.296 17.3529L92.4228 17.2738L91.5525 17.2129L90.6853 17.1707L89.8221 17.1466L88.9631 17.1409L88.109 17.1539L87.2602 17.1854L86.4172 17.2356L85.5803 17.3042L84.7503 17.3912L83.9274 17.4969L83.1124 17.621L82.3054 17.7633L81.5069 17.9243L80.7177 18.1034L79.9379 18.301L79.1683 18.5166L78.4093 18.7505L77.661 19.0024L76.924 19.272L76.1993 19.5594L75.4865 19.8646L74.7864 20.1871L74.0997 20.527L73.4263 20.8841L72.7671 21.2585L72.1224 21.6493L71.4924 22.0572L70.8775 22.4812L70.2782 22.9216L69.6951 23.3779L69.1284 23.8501L68.5782 24.3376L68.0455 24.8407L67.5299 25.3588L67.0325 25.8913L66.5529 26.4386L66.0918 27.0001L65.6497 27.5751L65.2266 28.1641L64.8231 28.7661L64.4391 29.3811L64.0751 30.0086L63.7314 30.6483L63.4082 31.2999L63.1057 31.9628L62.8242 32.6371L62.564 33.3218L62.3251 34.0171L62.108 34.7222L61.9125 35.437L61.7391 36.1606L61.5876 36.893L61.4585 37.6338L61.3518 38.3821L61.2675 39.1379L61.2059 39.9006L61.167 40.6696L61.1511 41.4447L61.1577 42.2253L61.1875 43.0109L61.24 43.8008L61.3152 44.595L61.4136 45.3925L61.5351 46.1932L61.6792 46.9964L61.8461 47.8016L62.0359 48.6085L62.2485 49.4163L62.4834 50.2246L62.7408 51.0327L63.0209 51.8404L63.3228 52.647L63.6472 53.452L63.9934 54.2549L64.3611 55.0553L64.7504 55.8525L65.1608 56.6459L65.5924 57.4352L66.045 58.22L66.5177 58.9991L67.0109 59.7729L67.5243 60.5401L68.0572 61.3005L68.6091 62.0539L69.1803 62.7995L69.77 63.5367L70.3778 64.2651L71.0038 64.9844L71.6471 65.6939L72.3074 66.3931L72.9848 67.0818L73.678 67.7592L74.3869 68.4252L75.1113 69.0791L75.8505 69.7204L76.6042 70.3488L77.3718 70.9638L78.1525 71.5652L78.9464 72.1525L79.7523 72.725L80.5704 73.2828L81.3996 73.8256L82.2393 74.3521L83.0894 74.8629L83.9492 75.3575L84.8178 75.8353L85.695 76.2959L86.58 76.7394L87.4725 77.1654L88.3715 77.5735L89.2767 77.9635L90.1876 78.3351L91.103 78.688L92.023 79.0221L92.9466 79.3373L93.8731 79.6332L94.8025 79.9098L95.7332 80.1666L96.6654 80.4038L97.5984 80.6209L98.5312 80.8182L99.4633 80.9953L100.394 81.1523L101.323 81.2889L102.25 81.4054L103.174 81.5012L104.094 81.5769L105.01 81.6316L105.921 81.6662L106.826 81.6803L107.726 81.6738L108.619 81.6469L109.505 81.5999L110.384 81.5324L111.254 81.4448L112.115 81.3368L112.966 81.209L113.809 81.0611L114.64 80.8936L115.461 80.7062L116.27 80.4996L117.068 80.2734L117.853 80.0283L118.625 79.7641L119.383 79.4813L120.129 79.1797L120.859 78.86L121.576 78.5222L122.277 78.1667L122.962 77.7938L123.632 77.4032L124.286 76.9959L124.922 76.5716L125.542 76.1312L126.144 75.6746L126.729 75.2024L127.296 74.7146L127.845 74.2116L128.375 73.694L128.886 73.1621L129.377 72.6159L129.85 72.0561L130.303 71.4828L130.735 70.8969L131.148 70.2983L131.541 69.6876L131.913 69.0652L132.264 68.4314L132.594 67.7866L132.904 67.1311L133.192 66.4659L133.459 65.7908L133.705 65.1063L133.929 64.4133L134.132 63.7116L134.313 63.0022L134.472 62.2848L134.61 61.5607L134.726 60.8297L134.82 60.0928L134.893 59.35L134.944 58.602L134.973 57.849L134.98 57.0917L134.966 56.3301L134.93 55.5652L134.872 54.7974L134.793 54.0267L134.693 53.2541L134.571 52.4795L134.428 51.7038L134.264 50.9272L134.079 50.1504L133.874 49.3732L133.647 48.5969L133.401 47.8215L133.134 47.0474L132.847 46.2751L132.54 45.5051L132.213 44.7375L131.867 43.9734L131.502 43.2127L131.118 42.4557L130.715 41.7035L130.293 40.9558L129.853 40.2133L129.396 39.4764L128.92 38.7454L128.427 38.021L127.917 37.3034L127.39 36.5928L126.847 35.8899L126.288 35.1947L125.712 34.5079L125.121 33.83L124.515 33.1611L123.894 32.5016L123.259 31.8517L122.609 31.2123L121.946 30.5831L121.269 29.9647L120.58 29.3573ZM123.307 29.2822L122.427 28.5365L121.533 27.8058L120.623 27.0905L119.7 26.3904L118.763 25.7065L117.812 25.0385L116.849 24.3875L115.874 23.7532L114.887 23.1364L113.889 22.537L112.881 21.956L111.862 21.3928L110.834 20.8484L109.797 20.3229L108.752 19.8164L107.698 19.3292L106.638 18.8618L105.57 18.4146L104.497 17.9875L103.418 17.5808L102.333 17.1945L101.245 16.8294L100.152 16.4851L99.0568 16.1622L97.9584 15.861L96.8576 15.5815L95.7555 15.3236L94.6525 15.0881L93.5492 14.8744L92.4459 14.6831L91.3438 14.5141L90.2427 14.3679L89.144 14.2443L88.0478 14.1437L86.955 14.0658L85.8659 14.0108L84.7814 13.979L83.7019 13.9702L82.6279 13.9844L81.5603 14.0218L80.4993 14.0825L79.446 14.1664L78.4009 14.2735L77.3643 14.4036L76.3368 14.5572L75.3192 14.7338L74.3118 14.9333L73.3158 15.1558L72.3311 15.4015L71.3586 15.6699L70.3989 15.9613L69.4529 16.2753L68.5201 16.6118L67.6021 16.9706L66.6992 17.3518L65.8116 17.7551L64.9404 18.1802L64.0857 18.6272L63.2483 19.0957L62.4285 19.5854L61.6271 20.0964L60.8442 20.6281L60.0806 21.1805L59.3369 21.7533L58.6135 22.3463L57.9107 22.9587L57.2293 23.591L56.5696 24.2424L55.9319 24.9126L55.3167 25.6011L54.7245 26.3079L54.1559 27.0324L53.611 27.7744L53.0906 28.5334L52.5946 29.3088L52.1238 30.1007L51.6783 30.9082L51.2583 31.7307L50.8644 32.5685L50.4967 33.4202L50.1559 34.286L49.842 35.1652L49.5554 36.0574L49.2963 36.9621L49.0648 37.8784L48.8613 38.8061L48.686 39.7445L48.5387 40.6931L48.4204 41.6513L48.3304 42.6187L48.2694 43.5945L48.2373 44.5783L48.2342 45.5694L48.2603 46.567L48.3154 47.5709L48.3997 48.5799L48.5131 49.594L48.6559 50.6123L48.8281 51.6338L49.0293 52.6584L49.2597 53.6852L49.5191 54.7135L49.8074 55.7429L50.1244 56.7723L50.47 57.8011L50.8443 58.8291L51.247 59.855L51.6777 60.8785L52.1366 61.8988L52.6227 62.9155L53.1363 63.9276L53.6771 64.9343L54.2447 65.9353L54.8386 66.9296L55.4589 67.9167L56.1048 68.8962L56.7759 69.867L57.4719 70.8283L58.1927 71.7801L58.9373 72.721L59.7055 73.651L60.4969 74.5692L61.311 75.4748L62.1473 76.3673L63.0048 77.2462L63.8834 78.1109L64.7823 78.9606L65.7012 79.795L66.6393 80.613L67.5959 81.4148L68.5706 82.199L69.5624 82.9657L70.5709 83.7142L71.5956 84.444L72.6353 85.1545L73.6898 85.8452L74.7579 86.5158L75.8393 87.1657L76.933 87.7943L78.0385 88.4017L79.1548 88.987L80.2814 89.5499L81.4173 90.0904L82.5617 90.6076L83.7141 91.1013L84.8736 91.5715L86.0393 92.0173L87.2104 92.4391L88.3863 92.8362L89.566 93.2086L90.7487 93.5558L91.9337 93.8777L93.1204 94.1745L94.3074 94.4452L95.4947 94.6903L96.6808 94.9094L97.8653 95.1024L99.0472 95.2696L100.226 95.4105L101.401 95.525L102.57 95.6134L103.734 95.6752L104.892 95.7109L106.043 95.7203L107.186 95.7033L108.32 95.6602L109.445 95.5913L110.559 95.4961L111.663 95.3751L112.756 95.2283L113.836 95.0556L114.903 94.8578L115.957 94.6348L116.997 94.3868L118.022 94.1138L119.031 93.8162L120.024 93.4943L121 93.1485L121.96 92.7786L122.901 92.3852L123.825 91.9689L124.729 91.5296L125.613 91.0679L126.478 90.5841L127.323 90.0782L128.146 89.551L128.948 89.0029L129.728 88.434L130.486 87.8451L131.221 87.2363L131.933 86.6082L132.622 85.9614L133.286 85.296L133.927 84.6124L134.544 83.9114L135.135 83.1935L135.701 82.4592L136.242 81.7087L136.758 80.9426L137.247 80.1615L137.711 79.3662L138.148 78.5567L138.559 77.7337L138.943 76.8976L139.301 76.0496L139.631 75.1894L139.935 74.3181L140.211 73.4358L140.461 72.5436L140.683 71.6418L140.877 70.7308L141.044 69.8111L141.184 68.8838L141.297 67.949L141.382 67.0072L141.44 66.0595L141.471 65.1057L141.474 64.1472L141.45 63.1839L141.399 62.2165L141.321 61.2458L141.216 60.2722L141.084 59.2964L140.926 58.3186L140.742 57.3399L140.531 56.3604L140.294 55.3809L140.031 54.4017L139.742 53.4236L139.428 52.4469L139.089 51.4725L138.725 50.5007L138.336 49.5319L137.922 48.5672L137.485 47.6063L137.023 46.6504L136.538 45.6995L136.03 44.7545L135.498 43.8158L134.944 42.8837L134.368 41.9591L133.769 41.0423L133.149 40.1336L132.508 39.2337L131.846 38.3429L131.164 37.4618L130.462 36.5908L129.739 35.7306L128.998 34.8812L128.238 34.0434L127.459 33.2178L126.663 32.4041L125.849 31.6034L125.018 30.8161L124.17 30.042L123.307 29.2822Z" stroke="#FCE48F" stroke-linecap="round" stroke-linejoin="round"/>
</svg>
