<svg width="245" height="245" viewBox="0 0 245 245" fill="none" xmlns="http://www.w3.org/2000/svg">
<path opacity="0.15" d="M1 61.75V9C1 4.58172 4.58172 1 9 1H61.75M1 61.75V122.5M1 61.75H61.75M1 122.5V183.25M1 122.5H61.75M1 183.25V236C1 240.418 4.58172 244 9 244H61.75M1 183.25H61.75M61.75 1V61.75M61.75 1H122.5M61.75 61.75V122.5M61.75 61.75H122.5M61.75 122.5V183.25M61.75 122.5H122.5M61.75 183.25V244M61.75 183.25H122.5M61.75 244H122.5M122.5 1V61.75M122.5 1H183.25M122.5 61.75V122.5M122.5 61.75H183.25M122.5 122.5V183.25M122.5 122.5H183.25M122.5 183.25V244M122.5 183.25H183.25M122.5 244H183.25M183.25 1V61.75M183.25 1H236C240.418 1 244 4.58172 244 9V61.75M183.25 61.75V122.5M183.25 61.75H244M183.25 122.5V183.25M183.25 122.5H244M183.25 183.25V244M183.25 183.25H244M183.25 244H236C240.418 244 244 240.418 244 236V183.25M244 61.75V122.5M244 122.5V183.25" stroke="#E3E5E8"/>
</svg>
