<svg width="422" height="221" viewBox="0 0 422 221" fill="none" xmlns="http://www.w3.org/2000/svg">
<g clip-path="url(#clip0_314_946)">
<line y1="-0.5" x2="422" y2="-0.5" transform="matrix(1 0 0 -1 0 64)" stroke="url(#paint0_linear_314_946)" stroke-opacity="0.3"/>
<rect x="83" y="32" width="256" height="215" rx="8" fill="#0E142C"/>
<rect x="83" y="32" width="256" height="215" rx="8" fill="url(#paint1_linear_314_946)"/>
<circle cx="211" cy="49" r="10" fill="url(#paint2_linear_314_946)"/>
<rect x="91" y="64" width="240" height="157" rx="4" fill="url(#paint3_linear_314_946)"/>
<line x1="422" y1="32.5" y2="32.5" stroke="url(#paint4_linear_314_946)" stroke-opacity="0.3"/>
<line x1="82.5" y1="247" x2="82.5" y2="1.9312e-08" stroke="url(#paint5_linear_314_946)" stroke-opacity="0.3"/>
<line x1="338.5" y1="247" x2="338.5" y2="1.9312e-08" stroke="url(#paint6_linear_314_946)" stroke-opacity="0.3"/>
<line x1="370.5" y1="247" x2="370.5" y2="32" stroke="url(#paint7_linear_314_946)" stroke-opacity="0.3"/>
<line x1="50.5" y1="247" x2="50.5" y2="64" stroke="url(#paint8_linear_314_946)" stroke-opacity="0.3"/>
</g>
<defs>
<linearGradient id="paint0_linear_314_946" x1="422" y1="0.000864337" x2="3.97604e-09" y2="-0.000933348" gradientUnits="userSpaceOnUse">
<stop stop-color="#E3E5E8"/>
<stop offset="1" stop-color="#E3E5E8" stop-opacity="0.4"/>
</linearGradient>
<linearGradient id="paint1_linear_314_946" x1="265" y1="32" x2="211" y2="247" gradientUnits="userSpaceOnUse">
<stop stop-color="#700BFF" stop-opacity="0.08"/>
<stop offset="1" stop-color="#0B8AFF" stop-opacity="0"/>
</linearGradient>
<linearGradient id="paint2_linear_314_946" x1="207.375" y1="39" x2="213.379" y2="58.2585" gradientUnits="userSpaceOnUse">
<stop stop-color="#700BFF" stop-opacity="0.24"/>
<stop offset="1" stop-color="#0B8AFF" stop-opacity="0.04"/>
</linearGradient>
<linearGradient id="paint3_linear_314_946" x1="167.5" y1="64" x2="199.976" y2="223.248" gradientUnits="userSpaceOnUse">
<stop stop-color="#700BFF" stop-opacity="0.16"/>
<stop offset="1" stop-color="#0B8AFF" stop-opacity="0"/>
</linearGradient>
<linearGradient id="paint4_linear_314_946" x1="3.68202e-09" y1="31.9991" x2="422" y2="32.0009" gradientUnits="userSpaceOnUse">
<stop stop-color="#E3E5E8"/>
<stop offset="1" stop-color="#E3E5E8" stop-opacity="0.4"/>
</linearGradient>
<linearGradient id="paint5_linear_314_946" x1="83.0009" y1="2.12172e-09" x2="83.0002" y2="247" gradientUnits="userSpaceOnUse">
<stop stop-color="#E3E5E8"/>
<stop offset="1" stop-color="#E3E5E8" stop-opacity="0.4"/>
</linearGradient>
<linearGradient id="paint6_linear_314_946" x1="339.001" y1="2.12172e-09" x2="339" y2="247" gradientUnits="userSpaceOnUse">
<stop stop-color="#E3E5E8"/>
<stop offset="1" stop-color="#E3E5E8" stop-opacity="0.4"/>
</linearGradient>
<linearGradient id="paint7_linear_314_946" x1="371.001" y1="32" x2="371" y2="247" gradientUnits="userSpaceOnUse">
<stop stop-color="#E3E5E8"/>
<stop offset="1" stop-color="#E3E5E8" stop-opacity="0.4"/>
</linearGradient>
<linearGradient id="paint8_linear_314_946" x1="51.0009" y1="64" x2="51.0005" y2="247" gradientUnits="userSpaceOnUse">
<stop stop-color="#E3E5E8"/>
<stop offset="1" stop-color="#E3E5E8" stop-opacity="0.4"/>
</linearGradient>
<clipPath id="clip0_314_946">
<rect width="422" height="221" fill="white"/>
</clipPath>
</defs>
</svg>
