<svg width="626" height="333" viewBox="0 0 626 333" fill="none" xmlns="http://www.w3.org/2000/svg">
    <g clip-path="url(#clip0_314_961)">
        <rect x="265" y="122" width="96" height="96" rx="48" fill="black" />
        <path
            d="M308.831 191.333C336.425 191.333 323.228 149.866 336.245 149.866C336.905 149.866 337.625 149.986 338.464 150.225V148.787C316.449 146.45 323.948 178.809 314.95 187.858L314.41 186.48L295.274 148.787H287.536L308.831 191.333Z"
            fill="white" />
        <circle opacity="0.2" cx="313" cy="170" r="79.5" stroke="#E3E5E8" />
        <circle opacity="0.2" cx="313" cy="170" r="111.5" stroke="#E3E5E8" />
        <circle opacity="0.2" cx="313" cy="170" r="143.5" stroke="#E3E5E8" />
        <line opacity="0.2" x1="626" y1="94.5" y2="94.5" stroke="url(#paint0_linear_314_961)" />
        <line opacity="0.2" x1="626" y1="63.5" x2="313" y2="63.5" stroke="url(#paint1_linear_314_961)" />
        <line opacity="0.2" x1="201.5" y1="94" x2="201.5" y2="349" stroke="url(#paint2_linear_314_961)" />
        <line opacity="0.2" y1="-0.5" x2="255" y2="-0.5" transform="matrix(1.19249e-08 1 1 -1.19249e-08 393 -1)"
            stroke="url(#paint3_linear_314_961)" />
        <line opacity="0.2" x1="626" y1="174.5" x2="361" y2="174.5" stroke="url(#paint4_linear_314_961)" />
        <line opacity="0.2" x1="488.5" y1="349" x2="488.5" y2="174" stroke="url(#paint5_linear_314_961)" />
        <line opacity="0.2" y1="253.5" x2="626" y2="253.5" stroke="url(#paint6_linear_314_961)" />
        <line opacity="0.2" y1="-0.5" x2="313" y2="-0.5" transform="matrix(1 8.74228e-08 8.74228e-08 -1 0 285)"
            stroke="url(#paint7_linear_314_961)" />
        <line opacity="0.2" x1="313.5" y1="-2.18557e-08" x2="313.5" y2="126" stroke="url(#paint8_linear_314_961)" />
        <line opacity="0.2" x1="312.5" y1="349" x2="312.5" y2="222" stroke="url(#paint9_linear_314_961)" />
        <mask id="mask0_314_961" style="mask-type:alpha" maskUnits="userSpaceOnUse" x="51" y="224" width="150"
            height="95">
            <rect x="51" y="224" width="150" height="95" rx="8" fill="url(#paint10_linear_314_961)" />
        </mask>
        <g mask="url(#mask0_314_961)">
            <rect x="51" y="224" width="150" height="145" fill="url(#paint11_linear_314_961)" />
            <rect x="70" y="240" width="112" height="112" rx="56" fill="url(#paint12_linear_314_961)" />
        </g>
        <rect x="393" y="63" width="114.827" height="111" rx="6.12" fill="white" />
        <mask id="mask1_314_961" style="mask-type:alpha" maskUnits="userSpaceOnUse" x="393" y="63" width="115"
            height="111">
            <rect x="393" y="63" width="114.828" height="111" rx="6.12414" fill="url(#paint13_linear_314_961)" />
        </mask>
        <g mask="url(#mask1_314_961)">
            <rect x="393" y="63" width="114.828" height="111" rx="6.12" fill="url(#paint14_linear_314_961)" />
            <path d="M452.71 75.2485L489.836 96.683V139.552L452.71 160.986L415.585 139.552V96.683L452.71 75.2485Z"
                fill="#D9D9D9" />
            <path d="M452.71 75.2485L489.836 96.683V139.552L452.71 160.986L415.585 139.552V96.683L452.71 75.2485Z"
                fill="url(#paint15_linear_314_961)" />
            <path d="M452.71 75.2485L489.836 96.683V139.552L452.71 160.986L415.585 139.552V96.683L452.71 75.2485Z"
                fill="url(#paint16_linear_314_961)" />
        </g>
        <mask id="mask2_314_961" style="mask-type:alpha" maskUnits="userSpaceOnUse" x="489" y="224" width="99"
            height="95">
            <rect x="489" y="224" width="99" height="95" rx="5.29655" fill="url(#paint17_linear_314_961)" />
        </mask>
        <g mask="url(#mask2_314_961)">
            <rect x="489" y="224" width="99.3101" height="96" fill="url(#paint18_linear_314_961)" />
            <rect width="52.9654" height="52.9654"
                transform="matrix(0.707106 0.707108 -0.707106 0.707108 538.369 233.931)" fill="#D9D9D9" />
            <rect width="52.9654" height="52.9654"
                transform="matrix(0.707106 0.707108 -0.707106 0.707108 538.369 233.931)"
                fill="url(#paint19_linear_314_961)" />
        </g>
        <rect x="102" y="-2" width="99.3103" height="96" rx="5.29655" fill="white" />
        <mask id="mask3_314_961" style="mask-type:alpha" maskUnits="userSpaceOnUse" x="102" y="0" width="99"
            height="94">
            <rect x="102" width="99" height="94" rx="5.29655" fill="url(#paint20_linear_314_961)" />
        </mask>
        <g mask="url(#mask3_314_961)">
            <rect x="102" y="-2" width="99.3103" height="96" fill="url(#paint21_linear_314_961)" />
            <path d="M153.642 8.59302L188.903 34.2118L175.434 75.6639H131.849L118.38 34.2118L153.642 8.59302Z"
                fill="#D9D9D9" />
            <path d="M153.642 8.59302L188.903 34.2118L175.434 75.6639H131.849L118.38 34.2118L153.642 8.59302Z"
                fill="url(#paint22_linear_314_961)" />
        </g>
    </g>
    <defs>
        <linearGradient id="paint0_linear_314_961" x1="5.46195e-09" y1="93.9991" x2="626" y2="94.0031"
            gradientUnits="userSpaceOnUse">
            <stop stop-color="#E3E5E8" />
            <stop offset="1" stop-color="#E3E5E8" stop-opacity="0.4" />
        </linearGradient>
        <linearGradient id="paint1_linear_314_961" x1="313" y1="62.9992" x2="626" y2="63.0001"
            gradientUnits="userSpaceOnUse">
            <stop stop-color="#E3E5E8" />
            <stop offset="1" stop-color="#E3E5E8" stop-opacity="0.4" />
        </linearGradient>
        <linearGradient id="paint2_linear_314_961" x1="200.999" y1="349" x2="201" y2="94"
            gradientUnits="userSpaceOnUse">
            <stop stop-color="#E3E5E8" />
            <stop offset="1" stop-color="#E3E5E8" stop-opacity="0.4" />
        </linearGradient>
        <linearGradient id="paint3_linear_314_961" x1="255" y1="0.000864337" x2="-5.35281e-10" y2="0.000207936"
            gradientUnits="userSpaceOnUse">
            <stop stop-color="#E3E5E8" />
            <stop offset="1" stop-color="#E3E5E8" stop-opacity="0.4" />
        </linearGradient>
        <linearGradient id="paint4_linear_314_961" x1="361" y1="173.999" x2="626" y2="174"
            gradientUnits="userSpaceOnUse">
            <stop stop-color="#E3E5E8" />
            <stop offset="1" stop-color="#E3E5E8" stop-opacity="0.4" />
        </linearGradient>
        <linearGradient id="paint5_linear_314_961" x1="489.001" y1="174" x2="489.001" y2="349"
            gradientUnits="userSpaceOnUse">
            <stop stop-color="#E3E5E8" />
            <stop offset="1" stop-color="#E3E5E8" stop-opacity="0.4" />
        </linearGradient>
        <linearGradient id="paint6_linear_314_961" x1="626" y1="254.001" x2="1.95358e-08" y2="253.997"
            gradientUnits="userSpaceOnUse">
            <stop stop-color="#E3E5E8" />
            <stop offset="1" stop-color="#E3E5E8" stop-opacity="0.4" />
        </linearGradient>
        <linearGradient id="paint7_linear_314_961" x1="313" y1="0.000864337" x2="3.93749e-10" y2="-0.00012462"
            gradientUnits="userSpaceOnUse">
            <stop stop-color="#E3E5E8" />
            <stop offset="1" stop-color="#E3E5E8" stop-opacity="0.4" />
        </linearGradient>
        <linearGradient id="paint8_linear_314_961" x1="312.999" y1="126" x2="312.999" y2="-8.6475e-10"
            gradientUnits="userSpaceOnUse">
            <stop stop-color="#E3E5E8" />
            <stop offset="1" stop-color="#E3E5E8" stop-opacity="0.4" />
        </linearGradient>
        <linearGradient id="paint9_linear_314_961" x1="313.001" y1="222" x2="313.001" y2="349"
            gradientUnits="userSpaceOnUse">
            <stop stop-color="#E3E5E8" />
            <stop offset="1" stop-color="#E3E5E8" stop-opacity="0.4" />
        </linearGradient>
        <linearGradient id="paint10_linear_314_961" x1="126" y1="224" x2="126" y2="319" gradientUnits="userSpaceOnUse">
            <stop stop-color="#D9D9D9" />
            <stop offset="0.640625" stop-color="#D9D9D9" stop-opacity="0.25" />
            <stop offset="1" stop-color="#D9D9D9" stop-opacity="0" />
        </linearGradient>
        <linearGradient id="paint11_linear_314_961" x1="51" y1="369" x2="201" y2="224" gradientUnits="userSpaceOnUse">
            <stop stop-color="#10B981" />
            <stop offset="1" stop-color="#D9F99D" />
        </linearGradient>
        <linearGradient id="paint12_linear_314_961" x1="70" y1="352" x2="185.663" y2="243.92"
            gradientUnits="userSpaceOnUse">
            <stop stop-color="#D9F99D" />
            <stop offset="1" stop-color="#10B981" />
        </linearGradient>
        <linearGradient id="paint13_linear_314_961" x1="450.414" y1="63" x2="450.414" y2="174"
            gradientUnits="userSpaceOnUse">
            <stop stop-color="#D9D9D9" />
            <stop offset="1" stop-color="#D9D9D9" stop-opacity="0.24" />
        </linearGradient>
        <linearGradient id="paint14_linear_314_961" x1="393" y1="174" x2="507.828" y2="63"
            gradientUnits="userSpaceOnUse">
            <stop stop-color="#F97316" />
            <stop offset="1" stop-color="#FEF08A" />
        </linearGradient>
        <linearGradient id="paint15_linear_314_961" x1="409.841" y1="160.986" x2="498.383" y2="78.2491"
            gradientUnits="userSpaceOnUse">
            <stop stop-color="#DDD6FE" />
            <stop offset="1" stop-color="#9333EA" />
        </linearGradient>
        <linearGradient id="paint16_linear_314_961" x1="409.841" y1="160.986" x2="498.383" y2="78.2491"
            gradientUnits="userSpaceOnUse">
            <stop stop-color="#FEF08A" />
            <stop offset="0.588542" stop-color="#F97316" />
            <stop offset="1" stop-color="#F97316" />
        </linearGradient>
        <linearGradient id="paint17_linear_314_961" x1="538.5" y1="224" x2="538.5" y2="319"
            gradientUnits="userSpaceOnUse">
            <stop stop-color="#D9D9D9" />
            <stop offset="0.640625" stop-color="#D9D9D9" stop-opacity="0.25" />
            <stop offset="1" stop-color="#D9D9D9" stop-opacity="0" />
        </linearGradient>
        <linearGradient id="paint18_linear_314_961" x1="489" y1="320" x2="588.31" y2="224"
            gradientUnits="userSpaceOnUse">
            <stop stop-color="#3B82F6" />
            <stop offset="1" stop-color="#E0F2FE" />
        </linearGradient>
        <linearGradient id="paint19_linear_314_961" x1="-1.97312e-07" y1="52.9654" x2="54.6976" y2="1.85362"
            gradientUnits="userSpaceOnUse">
            <stop stop-color="#E0F2FE" />
            <stop offset="1" stop-color="#3B82F6" />
        </linearGradient>
        <linearGradient id="paint20_linear_314_961" x1="151.5" y1="0" x2="151.5" y2="94" gradientUnits="userSpaceOnUse">
            <stop stop-color="#D9D9D9" stop-opacity="0" />
            <stop offset="0.5" stop-color="#D9D9D9" stop-opacity="0.25" />
            <stop offset="1" stop-color="#D9D9D9" />
        </linearGradient>
        <linearGradient id="paint21_linear_314_961" x1="102" y1="94" x2="201.31" y2="-2" gradientUnits="userSpaceOnUse">
            <stop stop-color="#9333EA" />
            <stop offset="1" stop-color="#DDD6FE" />
        </linearGradient>
        <linearGradient id="paint22_linear_314_961" x1="116.566" y1="82.7447" x2="193.143" y2="11.1881"
            gradientUnits="userSpaceOnUse">
            <stop stop-color="#DDD6FE" />
            <stop offset="1" stop-color="#9333EA" />
        </linearGradient>
        <clipPath id="clip0_314_961">
            <rect width="626" height="333" fill="white" />
        </clipPath>
    </defs>
</svg>