<svg width="564" height="368" viewBox="0 0 564 368" fill="none" xmlns="http://www.w3.org/2000/svg">
<line opacity="0.2" x1="14.5" y1="344" x2="14.5" y2="12" stroke="white"/>
<line opacity="0.2" x1="103.5" y1="344" x2="103.5" y2="12" stroke="white"/>
<line opacity="0.2" x1="192.5" y1="344" x2="192.5" y2="12" stroke="white"/>
<line opacity="0.2" x1="281.5" y1="344" x2="281.5" y2="12" stroke="white"/>
<line opacity="0.2" x1="116" y1="40.5" x2="448" y2="40.5" stroke="white"/>
<line opacity="0.2" x1="370.5" y1="344" x2="370.5" y2="12" stroke="white"/>
<line opacity="0.2" x1="459.5" y1="344" x2="459.5" y2="12" stroke="white"/>
<line opacity="0.2" x1="548.5" y1="344" x2="548.5" y2="12" stroke="white"/>
<path fill-rule="evenodd" clip-rule="evenodd" d="M255.797 196.211L157.889 58.0424C153.119 51.3106 157.932 42 166.183 42L398.779 42C407.029 42 411.843 51.3106 407.072 58.0424L311.706 192.626V283.227C311.706 286.374 309.771 289.199 306.836 290.336L266.175 306.087C261.178 308.022 255.797 304.336 255.797 298.978V196.211Z" fill="url(#paint0_linear_3122_281)"/>
<path d="M277.823 138.26C311.605 138.26 295.448 87.4936 311.384 87.4936C312.192 87.4936 313.073 87.6404 314.102 87.9338V86.1731C287.15 83.312 296.33 122.927 285.314 134.005L284.653 132.317L261.226 86.1731H251.753L277.823 138.26Z" fill="white"/>
<defs>
<linearGradient id="paint0_linear_3122_281" x1="258.822" y1="42.7808" x2="375.13" y2="252.329" gradientUnits="userSpaceOnUse">
<stop stop-color="white" stop-opacity="0.4"/>
<stop offset="1" stop-color="white" stop-opacity="0.08"/>
</linearGradient>
</defs>
</svg>
