<svg width="80" height="80" viewBox="0 0 80 80" fill="none" xmlns="http://www.w3.org/2000/svg">
<path d="M40 78.4468L73.3333 59.2018V48.892M40 78.4468L6.66666 59.2018V48.892M40 78.4468V68.4807M40 39.9568V30.3343M40 39.9568L56.3279 30.5299M40 39.9568L23.6721 30.5299M40 30.3343L56.3279 20.7118M40 30.3343L23.6721 20.7118M40 20.7118V11.0893M40 20.7118L47.9041 15.6527M40 20.7118L32.0959 15.6527M40 11.0893L47.9041 6.03022M40 11.0893L32.0959 6.03022M47.9041 6.03022L40 1.4668L32.0959 6.03022M47.9041 6.03022V15.6527M32.0959 6.03022V15.6527M40 49.5793V58.5145M40 49.5793L64.7433 34.7835M40 49.5793L15.2566 34.7835M40 58.5145L64.7433 43.7187M40 58.5145L15.2566 43.7187M40 68.4807L73.3333 48.892M40 68.4807L6.66666 48.892M73.3333 48.892L64.7433 43.7187M6.66666 48.892L15.2566 43.7187M47.9041 15.6527L56.3279 20.7118M56.3279 20.7118V30.5299M32.0959 15.6527L23.6721 20.7118M23.6721 20.7118V30.5299M56.3279 30.5299L64.7433 34.7835M23.6721 30.5299L15.2566 34.7835M64.7433 34.7835V43.7187M15.2566 34.7835V43.7187" stroke="#FF279C" stroke-width="1.5" stroke-linecap="round" stroke-linejoin="round"/>
</svg>
