<svg width="378" height="873" viewBox="0 0 378 873" fill="none" xmlns="http://www.w3.org/2000/svg">
<path d="M292.907 218.047L275.216 262.503M292.907 218.047L310.145 262.503M292.907 218.047H257.525M292.907 218.047L239.833 84.4177L222.943 128.907M1 434.772H206.662M1 434.772L89.4567 651.498H121.01M1 434.772L89.4567 218.047L121.492 218.047M292.907 651.498L275.216 607.041M292.907 651.498L310.145 607.041M292.907 651.498L239.833 782.346L222.943 738.412M292.907 651.498H257.525M206.662 434.772L257.525 562.585M206.662 434.772L257.525 306.96M257.525 562.585L275.216 519.981M257.525 562.585H222.943M257.525 306.96L275.216 349.564M257.525 306.96H222.943M275.216 607.041L343.77 434.772M275.216 607.041H172.437M343.77 434.772C340.232 430.323 296.593 318.072 275.216 262.503M343.77 434.772H308.89M275.216 262.503L172.223 262.503M308.89 434.772L292.053 392.168M308.89 434.772L292.053 477.376M275.216 519.981L292.053 477.376M275.216 519.981L257.525 477.376M275.216 349.564L292.053 392.168M275.216 349.564L257.525 392.168M292.053 392.168H257.525M257.525 392.168L239.833 434.772L257.525 477.376M292.053 477.376H257.525M155.346 306.96L191.182 392.168M155.346 306.96H222.943M155.346 306.96L172.223 262.503M191.182 392.168H155.346M191.182 392.168L222.943 306.96M239.833 1L206.662 1L121.492 218.047M239.833 1L328.29 218.047L310.145 262.503M239.833 1L120.417 306.96M310.145 262.503L376.941 434.772L310.145 607.041M120.417 306.96L155.346 392.168M120.417 306.96H85.0339M155.346 392.168H120.417M85.0339 306.96L103.604 349.564M85.0339 306.96L53.1668 392.168H86.7917M85.0339 306.96L121.492 218.047M120.417 392.168L103.604 349.564M120.417 392.168H86.7917M103.604 349.564L86.7917 392.168M191.182 477.376L155.346 562.585M191.182 477.376H155.346M191.182 477.376L222.943 562.585M155.346 562.585L172.437 607.041M155.346 562.585H222.943M120.417 562.585L155.346 477.376M120.417 562.585H85.0339M120.417 562.585L239.833 871.325M155.346 477.376H120.417M120.417 477.376L103.604 519.981M120.417 477.376L86.7917 477.376M85.0339 562.585L103.604 519.981M85.0339 562.585L53.1668 477.376H86.7917M85.0339 562.585L121.01 651.498M239.833 871.325H206.662L121.01 651.498M239.833 871.325L328.29 651.498L310.145 607.041M257.525 218.047L222.943 128.907M257.525 218.047H189.101M222.943 128.907L189.101 218.047M222.943 738.412L257.525 651.498M222.943 738.412L189.528 651.498M257.525 651.498H189.528M172.437 607.041L189.528 651.498M103.604 519.981L86.7917 477.376M172.223 262.503L189.101 218.047" stroke="#FFEE97" stroke-width="2" stroke-linecap="round" stroke-linejoin="round"/>
<path d="M292.907 218.047L275.216 262.503M292.907 218.047L310.145 262.503M292.907 218.047H257.525M292.907 218.047L239.833 84.4177L222.943 128.907M1 434.772H206.662M1 434.772L89.4567 651.498H121.01M1 434.772L89.4567 218.047L121.492 218.047M292.907 651.498L275.216 607.041M292.907 651.498L310.145 607.041M292.907 651.498L239.833 782.346L222.943 738.412M292.907 651.498H257.525M206.662 434.772L257.525 562.585M206.662 434.772L257.525 306.96M257.525 562.585L275.216 519.981M257.525 562.585H222.943M257.525 306.96L275.216 349.564M257.525 306.96H222.943M275.216 607.041L343.77 434.772M275.216 607.041H172.437M343.77 434.772C340.232 430.323 296.593 318.072 275.216 262.503M343.77 434.772H308.89M275.216 262.503L172.223 262.503M308.89 434.772L292.053 392.168M308.89 434.772L292.053 477.376M275.216 519.981L292.053 477.376M275.216 519.981L257.525 477.376M275.216 349.564L292.053 392.168M275.216 349.564L257.525 392.168M292.053 392.168H257.525M257.525 392.168L239.833 434.772L257.525 477.376M292.053 477.376H257.525M155.346 306.96L191.182 392.168M155.346 306.96H222.943M155.346 306.96L172.223 262.503M191.182 392.168H155.346M191.182 392.168L222.943 306.96M239.833 1L206.662 1L121.492 218.047M239.833 1L328.29 218.047L310.145 262.503M239.833 1L120.417 306.96M310.145 262.503L376.941 434.772L310.145 607.041M120.417 306.96L155.346 392.168M120.417 306.96H85.0339M155.346 392.168H120.417M85.0339 306.96L103.604 349.564M85.0339 306.96L53.1668 392.168H86.7917M85.0339 306.96L121.492 218.047M120.417 392.168L103.604 349.564M120.417 392.168H86.7917M103.604 349.564L86.7917 392.168M191.182 477.376L155.346 562.585M191.182 477.376H155.346M191.182 477.376L222.943 562.585M155.346 562.585L172.437 607.041M155.346 562.585H222.943M120.417 562.585L155.346 477.376M120.417 562.585H85.0339M120.417 562.585L239.833 871.325M155.346 477.376H120.417M120.417 477.376L103.604 519.981M120.417 477.376L86.7917 477.376M85.0339 562.585L103.604 519.981M85.0339 562.585L53.1668 477.376H86.7917M85.0339 562.585L121.01 651.498M239.833 871.325H206.662L121.01 651.498M239.833 871.325L328.29 651.498L310.145 607.041M257.525 218.047L222.943 128.907M257.525 218.047H189.101M222.943 128.907L189.101 218.047M222.943 738.412L257.525 651.498M222.943 738.412L189.528 651.498M257.525 651.498H189.528M172.437 607.041L189.528 651.498M103.604 519.981L86.7917 477.376M172.223 262.503L189.101 218.047" stroke="url(#paint0_radial_2534_13255)" stroke-width="2" stroke-linecap="round" stroke-linejoin="round"/>
<path d="M292.907 218.047L275.216 262.503M292.907 218.047L310.145 262.503M292.907 218.047H257.525M292.907 218.047L239.833 84.4177L222.943 128.907M1 434.772H206.662M1 434.772L89.4567 651.498H121.01M1 434.772L89.4567 218.047L121.492 218.047M292.907 651.498L275.216 607.041M292.907 651.498L310.145 607.041M292.907 651.498L239.833 782.346L222.943 738.412M292.907 651.498H257.525M206.662 434.772L257.525 562.585M206.662 434.772L257.525 306.96M257.525 562.585L275.216 519.981M257.525 562.585H222.943M257.525 306.96L275.216 349.564M257.525 306.96H222.943M275.216 607.041L343.77 434.772M275.216 607.041H172.437M343.77 434.772C340.232 430.323 296.593 318.072 275.216 262.503M343.77 434.772H308.89M275.216 262.503L172.223 262.503M308.89 434.772L292.053 392.168M308.89 434.772L292.053 477.376M275.216 519.981L292.053 477.376M275.216 519.981L257.525 477.376M275.216 349.564L292.053 392.168M275.216 349.564L257.525 392.168M292.053 392.168H257.525M257.525 392.168L239.833 434.772L257.525 477.376M292.053 477.376H257.525M155.346 306.96L191.182 392.168M155.346 306.96H222.943M155.346 306.96L172.223 262.503M191.182 392.168H155.346M191.182 392.168L222.943 306.96M239.833 1L206.662 1L121.492 218.047M239.833 1L328.29 218.047L310.145 262.503M239.833 1L120.417 306.96M310.145 262.503L376.941 434.772L310.145 607.041M120.417 306.96L155.346 392.168M120.417 306.96H85.0339M155.346 392.168H120.417M85.0339 306.96L103.604 349.564M85.0339 306.96L53.1668 392.168H86.7917M85.0339 306.96L121.492 218.047M120.417 392.168L103.604 349.564M120.417 392.168H86.7917M103.604 349.564L86.7917 392.168M191.182 477.376L155.346 562.585M191.182 477.376H155.346M191.182 477.376L222.943 562.585M155.346 562.585L172.437 607.041M155.346 562.585H222.943M120.417 562.585L155.346 477.376M120.417 562.585H85.0339M120.417 562.585L239.833 871.325M155.346 477.376H120.417M120.417 477.376L103.604 519.981M120.417 477.376L86.7917 477.376M85.0339 562.585L103.604 519.981M85.0339 562.585L53.1668 477.376H86.7917M85.0339 562.585L121.01 651.498M239.833 871.325H206.662L121.01 651.498M239.833 871.325L328.29 651.498L310.145 607.041M257.525 218.047L222.943 128.907M257.525 218.047H189.101M222.943 128.907L189.101 218.047M222.943 738.412L257.525 651.498M222.943 738.412L189.528 651.498M257.525 651.498H189.528M172.437 607.041L189.528 651.498M103.604 519.981L86.7917 477.376M172.223 262.503L189.101 218.047" stroke="url(#paint1_radial_2534_13255)" stroke-width="2" stroke-linecap="round" stroke-linejoin="round"/>
<path d="M292.907 218.047L275.216 262.503M292.907 218.047L310.145 262.503M292.907 218.047H257.525M292.907 218.047L239.833 84.4177L222.943 128.907M1 434.772H206.662M1 434.772L89.4567 651.498H121.01M1 434.772L89.4567 218.047L121.492 218.047M292.907 651.498L275.216 607.041M292.907 651.498L310.145 607.041M292.907 651.498L239.833 782.346L222.943 738.412M292.907 651.498H257.525M206.662 434.772L257.525 562.585M206.662 434.772L257.525 306.96M257.525 562.585L275.216 519.981M257.525 562.585H222.943M257.525 306.96L275.216 349.564M257.525 306.96H222.943M275.216 607.041L343.77 434.772M275.216 607.041H172.437M343.77 434.772C340.232 430.323 296.593 318.072 275.216 262.503M343.77 434.772H308.89M275.216 262.503L172.223 262.503M308.89 434.772L292.053 392.168M308.89 434.772L292.053 477.376M275.216 519.981L292.053 477.376M275.216 519.981L257.525 477.376M275.216 349.564L292.053 392.168M275.216 349.564L257.525 392.168M292.053 392.168H257.525M257.525 392.168L239.833 434.772L257.525 477.376M292.053 477.376H257.525M155.346 306.96L191.182 392.168M155.346 306.96H222.943M155.346 306.96L172.223 262.503M191.182 392.168H155.346M191.182 392.168L222.943 306.96M239.833 1L206.662 1L121.492 218.047M239.833 1L328.29 218.047L310.145 262.503M239.833 1L120.417 306.96M310.145 262.503L376.941 434.772L310.145 607.041M120.417 306.96L155.346 392.168M120.417 306.96H85.0339M155.346 392.168H120.417M85.0339 306.96L103.604 349.564M85.0339 306.96L53.1668 392.168H86.7917M85.0339 306.96L121.492 218.047M120.417 392.168L103.604 349.564M120.417 392.168H86.7917M103.604 349.564L86.7917 392.168M191.182 477.376L155.346 562.585M191.182 477.376H155.346M191.182 477.376L222.943 562.585M155.346 562.585L172.437 607.041M155.346 562.585H222.943M120.417 562.585L155.346 477.376M120.417 562.585H85.0339M120.417 562.585L239.833 871.325M155.346 477.376H120.417M120.417 477.376L103.604 519.981M120.417 477.376L86.7917 477.376M85.0339 562.585L103.604 519.981M85.0339 562.585L53.1668 477.376H86.7917M85.0339 562.585L121.01 651.498M239.833 871.325H206.662L121.01 651.498M239.833 871.325L328.29 651.498L310.145 607.041M257.525 218.047L222.943 128.907M257.525 218.047H189.101M222.943 128.907L189.101 218.047M222.943 738.412L257.525 651.498M222.943 738.412L189.528 651.498M257.525 651.498H189.528M172.437 607.041L189.528 651.498M103.604 519.981L86.7917 477.376M172.223 262.503L189.101 218.047" stroke="url(#paint2_radial_2534_13255)" stroke-width="2" stroke-linecap="round" stroke-linejoin="round"/>
<path d="M292.907 218.047L275.216 262.503M292.907 218.047L310.145 262.503M292.907 218.047H257.525M292.907 218.047L239.833 84.4177L222.943 128.907M1 434.772H206.662M1 434.772L89.4567 651.498H121.01M1 434.772L89.4567 218.047L121.492 218.047M292.907 651.498L275.216 607.041M292.907 651.498L310.145 607.041M292.907 651.498L239.833 782.346L222.943 738.412M292.907 651.498H257.525M206.662 434.772L257.525 562.585M206.662 434.772L257.525 306.96M257.525 562.585L275.216 519.981M257.525 562.585H222.943M257.525 306.96L275.216 349.564M257.525 306.96H222.943M275.216 607.041L343.77 434.772M275.216 607.041H172.437M343.77 434.772C340.232 430.323 296.593 318.072 275.216 262.503M343.77 434.772H308.89M275.216 262.503L172.223 262.503M308.89 434.772L292.053 392.168M308.89 434.772L292.053 477.376M275.216 519.981L292.053 477.376M275.216 519.981L257.525 477.376M275.216 349.564L292.053 392.168M275.216 349.564L257.525 392.168M292.053 392.168H257.525M257.525 392.168L239.833 434.772L257.525 477.376M292.053 477.376H257.525M155.346 306.96L191.182 392.168M155.346 306.96H222.943M155.346 306.96L172.223 262.503M191.182 392.168H155.346M191.182 392.168L222.943 306.96M239.833 1L206.662 1L121.492 218.047M239.833 1L328.29 218.047L310.145 262.503M239.833 1L120.417 306.96M310.145 262.503L376.941 434.772L310.145 607.041M120.417 306.96L155.346 392.168M120.417 306.96H85.0339M155.346 392.168H120.417M85.0339 306.96L103.604 349.564M85.0339 306.96L53.1668 392.168H86.7917M85.0339 306.96L121.492 218.047M120.417 392.168L103.604 349.564M120.417 392.168H86.7917M103.604 349.564L86.7917 392.168M191.182 477.376L155.346 562.585M191.182 477.376H155.346M191.182 477.376L222.943 562.585M155.346 562.585L172.437 607.041M155.346 562.585H222.943M120.417 562.585L155.346 477.376M120.417 562.585H85.0339M120.417 562.585L239.833 871.325M155.346 477.376H120.417M120.417 477.376L103.604 519.981M120.417 477.376L86.7917 477.376M85.0339 562.585L103.604 519.981M85.0339 562.585L53.1668 477.376H86.7917M85.0339 562.585L121.01 651.498M239.833 871.325H206.662L121.01 651.498M239.833 871.325L328.29 651.498L310.145 607.041M257.525 218.047L222.943 128.907M257.525 218.047H189.101M222.943 128.907L189.101 218.047M222.943 738.412L257.525 651.498M222.943 738.412L189.528 651.498M257.525 651.498H189.528M172.437 607.041L189.528 651.498M103.604 519.981L86.7917 477.376M172.223 262.503L189.101 218.047" stroke="url(#paint3_radial_2534_13255)" stroke-width="2" stroke-linecap="round" stroke-linejoin="round"/>
<path d="M292.907 218.047L275.216 262.503M292.907 218.047L310.145 262.503M292.907 218.047H257.525M292.907 218.047L239.833 84.4177L222.943 128.907M1 434.772H206.662M1 434.772L89.4567 651.498H121.01M1 434.772L89.4567 218.047L121.492 218.047M292.907 651.498L275.216 607.041M292.907 651.498L310.145 607.041M292.907 651.498L239.833 782.346L222.943 738.412M292.907 651.498H257.525M206.662 434.772L257.525 562.585M206.662 434.772L257.525 306.96M257.525 562.585L275.216 519.981M257.525 562.585H222.943M257.525 306.96L275.216 349.564M257.525 306.96H222.943M275.216 607.041L343.77 434.772M275.216 607.041H172.437M343.77 434.772C340.232 430.323 296.593 318.072 275.216 262.503M343.77 434.772H308.89M275.216 262.503L172.223 262.503M308.89 434.772L292.053 392.168M308.89 434.772L292.053 477.376M275.216 519.981L292.053 477.376M275.216 519.981L257.525 477.376M275.216 349.564L292.053 392.168M275.216 349.564L257.525 392.168M292.053 392.168H257.525M257.525 392.168L239.833 434.772L257.525 477.376M292.053 477.376H257.525M155.346 306.96L191.182 392.168M155.346 306.96H222.943M155.346 306.96L172.223 262.503M191.182 392.168H155.346M191.182 392.168L222.943 306.96M239.833 1L206.662 1L121.492 218.047M239.833 1L328.29 218.047L310.145 262.503M239.833 1L120.417 306.96M310.145 262.503L376.941 434.772L310.145 607.041M120.417 306.96L155.346 392.168M120.417 306.96H85.0339M155.346 392.168H120.417M85.0339 306.96L103.604 349.564M85.0339 306.96L53.1668 392.168H86.7917M85.0339 306.96L121.492 218.047M120.417 392.168L103.604 349.564M120.417 392.168H86.7917M103.604 349.564L86.7917 392.168M191.182 477.376L155.346 562.585M191.182 477.376H155.346M191.182 477.376L222.943 562.585M155.346 562.585L172.437 607.041M155.346 562.585H222.943M120.417 562.585L155.346 477.376M120.417 562.585H85.0339M120.417 562.585L239.833 871.325M155.346 477.376H120.417M120.417 477.376L103.604 519.981M120.417 477.376L86.7917 477.376M85.0339 562.585L103.604 519.981M85.0339 562.585L53.1668 477.376H86.7917M85.0339 562.585L121.01 651.498M239.833 871.325H206.662L121.01 651.498M239.833 871.325L328.29 651.498L310.145 607.041M257.525 218.047L222.943 128.907M257.525 218.047H189.101M222.943 128.907L189.101 218.047M222.943 738.412L257.525 651.498M222.943 738.412L189.528 651.498M257.525 651.498H189.528M172.437 607.041L189.528 651.498M103.604 519.981L86.7917 477.376M172.223 262.503L189.101 218.047" stroke="url(#paint4_radial_2534_13255)" stroke-width="2" stroke-linecap="round" stroke-linejoin="round"/>
<path d="M292.907 218.047L275.216 262.503M292.907 218.047L310.145 262.503M292.907 218.047H257.525M292.907 218.047L239.833 84.4177L222.943 128.907M1 434.772H206.662M1 434.772L89.4567 651.498H121.01M1 434.772L89.4567 218.047L121.492 218.047M292.907 651.498L275.216 607.041M292.907 651.498L310.145 607.041M292.907 651.498L239.833 782.346L222.943 738.412M292.907 651.498H257.525M206.662 434.772L257.525 562.585M206.662 434.772L257.525 306.96M257.525 562.585L275.216 519.981M257.525 562.585H222.943M257.525 306.96L275.216 349.564M257.525 306.96H222.943M275.216 607.041L343.77 434.772M275.216 607.041H172.437M343.77 434.772C340.232 430.323 296.593 318.072 275.216 262.503M343.77 434.772H308.89M275.216 262.503L172.223 262.503M308.89 434.772L292.053 392.168M308.89 434.772L292.053 477.376M275.216 519.981L292.053 477.376M275.216 519.981L257.525 477.376M275.216 349.564L292.053 392.168M275.216 349.564L257.525 392.168M292.053 392.168H257.525M257.525 392.168L239.833 434.772L257.525 477.376M292.053 477.376H257.525M155.346 306.96L191.182 392.168M155.346 306.96H222.943M155.346 306.96L172.223 262.503M191.182 392.168H155.346M191.182 392.168L222.943 306.96M239.833 1L206.662 1L121.492 218.047M239.833 1L328.29 218.047L310.145 262.503M239.833 1L120.417 306.96M310.145 262.503L376.941 434.772L310.145 607.041M120.417 306.96L155.346 392.168M120.417 306.96H85.0339M155.346 392.168H120.417M85.0339 306.96L103.604 349.564M85.0339 306.96L53.1668 392.168H86.7917M85.0339 306.96L121.492 218.047M120.417 392.168L103.604 349.564M120.417 392.168H86.7917M103.604 349.564L86.7917 392.168M191.182 477.376L155.346 562.585M191.182 477.376H155.346M191.182 477.376L222.943 562.585M155.346 562.585L172.437 607.041M155.346 562.585H222.943M120.417 562.585L155.346 477.376M120.417 562.585H85.0339M120.417 562.585L239.833 871.325M155.346 477.376H120.417M120.417 477.376L103.604 519.981M120.417 477.376L86.7917 477.376M85.0339 562.585L103.604 519.981M85.0339 562.585L53.1668 477.376H86.7917M85.0339 562.585L121.01 651.498M239.833 871.325H206.662L121.01 651.498M239.833 871.325L328.29 651.498L310.145 607.041M257.525 218.047L222.943 128.907M257.525 218.047H189.101M222.943 128.907L189.101 218.047M222.943 738.412L257.525 651.498M222.943 738.412L189.528 651.498M257.525 651.498H189.528M172.437 607.041L189.528 651.498M103.604 519.981L86.7917 477.376M172.223 262.503L189.101 218.047" stroke="url(#paint5_radial_2534_13255)" stroke-width="2" stroke-linecap="round" stroke-linejoin="round"/>
<path d="M292.907 218.047L275.216 262.503M292.907 218.047L310.145 262.503M292.907 218.047H257.525M292.907 218.047L239.833 84.4177L222.943 128.907M1 434.772H206.662M1 434.772L89.4567 651.498H121.01M1 434.772L89.4567 218.047L121.492 218.047M292.907 651.498L275.216 607.041M292.907 651.498L310.145 607.041M292.907 651.498L239.833 782.346L222.943 738.412M292.907 651.498H257.525M206.662 434.772L257.525 562.585M206.662 434.772L257.525 306.96M257.525 562.585L275.216 519.981M257.525 562.585H222.943M257.525 306.96L275.216 349.564M257.525 306.96H222.943M275.216 607.041L343.77 434.772M275.216 607.041H172.437M343.77 434.772C340.232 430.323 296.593 318.072 275.216 262.503M343.77 434.772H308.89M275.216 262.503L172.223 262.503M308.89 434.772L292.053 392.168M308.89 434.772L292.053 477.376M275.216 519.981L292.053 477.376M275.216 519.981L257.525 477.376M275.216 349.564L292.053 392.168M275.216 349.564L257.525 392.168M292.053 392.168H257.525M257.525 392.168L239.833 434.772L257.525 477.376M292.053 477.376H257.525M155.346 306.96L191.182 392.168M155.346 306.96H222.943M155.346 306.96L172.223 262.503M191.182 392.168H155.346M191.182 392.168L222.943 306.96M239.833 1L206.662 1L121.492 218.047M239.833 1L328.29 218.047L310.145 262.503M239.833 1L120.417 306.96M310.145 262.503L376.941 434.772L310.145 607.041M120.417 306.96L155.346 392.168M120.417 306.96H85.0339M155.346 392.168H120.417M85.0339 306.96L103.604 349.564M85.0339 306.96L53.1668 392.168H86.7917M85.0339 306.96L121.492 218.047M120.417 392.168L103.604 349.564M120.417 392.168H86.7917M103.604 349.564L86.7917 392.168M191.182 477.376L155.346 562.585M191.182 477.376H155.346M191.182 477.376L222.943 562.585M155.346 562.585L172.437 607.041M155.346 562.585H222.943M120.417 562.585L155.346 477.376M120.417 562.585H85.0339M120.417 562.585L239.833 871.325M155.346 477.376H120.417M120.417 477.376L103.604 519.981M120.417 477.376L86.7917 477.376M85.0339 562.585L103.604 519.981M85.0339 562.585L53.1668 477.376H86.7917M85.0339 562.585L121.01 651.498M239.833 871.325H206.662L121.01 651.498M239.833 871.325L328.29 651.498L310.145 607.041M257.525 218.047L222.943 128.907M257.525 218.047H189.101M222.943 128.907L189.101 218.047M222.943 738.412L257.525 651.498M222.943 738.412L189.528 651.498M257.525 651.498H189.528M172.437 607.041L189.528 651.498M103.604 519.981L86.7917 477.376M172.223 262.503L189.101 218.047" stroke="url(#paint6_radial_2534_13255)" stroke-width="2" stroke-linecap="round" stroke-linejoin="round"/>
<defs>
<radialGradient id="paint0_radial_2534_13255" cx="0" cy="0" r="1" gradientUnits="userSpaceOnUse" gradientTransform="translate(208.585 952.918) rotate(-78.1746) scale(861.409 651.546)">
<stop stop-color="#61B3FF"/>
<stop offset="1" stop-color="#61B3FF" stop-opacity="0"/>
</radialGradient>
<radialGradient id="paint1_radial_2534_13255" cx="0" cy="0" r="1" gradientUnits="userSpaceOnUse" gradientTransform="translate(68.0156 1333.68) rotate(-80.6874) scale(1286.17 635.685)">
<stop stop-color="#A282FF"/>
<stop offset="1" stop-color="#A282FF" stop-opacity="0"/>
</radialGradient>
<radialGradient id="paint2_radial_2534_13255" cx="0" cy="0" r="1" gradientUnits="userSpaceOnUse" gradientTransform="translate(46.2219 1170.5) rotate(-74.6282) scale(883.81 1082.76)">
<stop stop-color="#FF279C"/>
<stop offset="1" stop-color="#FF279C" stop-opacity="0"/>
</radialGradient>
<radialGradient id="paint3_radial_2534_13255" cx="0" cy="0" r="1" gradientUnits="userSpaceOnUse" gradientTransform="translate(75.0986 1660.06) rotate(-87.4051) scale(1660.76 348.909)">
<stop stop-color="#FF6FCE"/>
<stop offset="1" stop-color="#FF6FCE" stop-opacity="0"/>
</radialGradient>
<radialGradient id="paint4_radial_2534_13255" cx="0" cy="0" r="1" gradientUnits="userSpaceOnUse" gradientTransform="translate(17.3453 1224.89) rotate(-80.5845) scale(496.243 250.008)">
<stop stop-color="#FFCF54"/>
<stop offset="1" stop-color="#FFCF54" stop-opacity="0"/>
</radialGradient>
<radialGradient id="paint5_radial_2534_13255" cx="0" cy="0" r="1" gradientUnits="userSpaceOnUse" gradientTransform="translate(12.4417 1052.64) rotate(-85.2049) scale(436.691 76.8367)">
<stop stop-color="#DCFF93"/>
<stop offset="1" stop-color="#DCFF93" stop-opacity="0"/>
</radialGradient>
<radialGradient id="paint6_radial_2534_13255" cx="0" cy="0" r="1" gradientUnits="userSpaceOnUse" gradientTransform="translate(90.899 1469.67) rotate(-89.8889) scale(1124.17 111.572)">
<stop stop-color="white"/>
<stop offset="1" stop-color="white" stop-opacity="0"/>
</radialGradient>
</defs>
</svg>
