<svg width="596" height="347" viewBox="0 0 596 347" fill="none" xmlns="http://www.w3.org/2000/svg">
<g clip-path="url(#clip0_2530_9797)">
<path opacity="0.2" d="M55.5 364V283C60 280.833 71.7 273 100.5 273C136.5 273 137.5 307.5 175.5 307.5C205.9 307.5 226.833 284.833 233.5 273.5V364H55.5Z" fill="url(#paint0_linear_2530_9797)"/>
<path opacity="0.2" d="M55.5 364V283C60 280.833 71.7 273 100.5 273C136.5 273 137.5 307.5 175.5 307.5C205.9 307.5 226.833 284.833 233.5 273.5" stroke="url(#paint1_linear_2530_9797)"/>
<path d="M589.5 364V55C542 204.5 329.505 288.374 233.5 273.5V364H589.5Z" fill="url(#paint2_linear_2530_9797)"/>
<line opacity="0.2" x1="55.5" y1="364" x2="55.5" y2="32" stroke="white"/>
<line opacity="0.2" x1="144.5" y1="364" x2="144.5" y2="32" stroke="white"/>
<line opacity="0.2" x1="233.5" y1="364" x2="233.5" y2="32" stroke="white"/>
<line opacity="0.2" x1="322.5" y1="364" x2="322.5" y2="32" stroke="white"/>
<line opacity="0.2" x1="411.5" y1="364" x2="411.5" y2="32" stroke="white"/>
<line opacity="0.2" x1="500.5" y1="364" x2="500.5" y2="32" stroke="white"/>
<line opacity="0.2" x1="589.5" y1="364" x2="589.5" y2="32" stroke="white"/>
<rect x="198" y="243" width="72" height="72" rx="36" fill="white"/>
<path d="M230.873 295C251.569 295 241.671 263.899 251.434 263.899C251.929 263.899 252.469 263.989 253.098 264.169V263.09C236.587 261.337 242.211 285.607 235.462 292.393L235.057 291.36L220.706 263.09H214.902L230.873 295Z" fill="#0E031E"/>
</g>
<defs>
<linearGradient id="paint0_linear_2530_9797" x1="144.5" y1="273" x2="144.5" y2="364" gradientUnits="userSpaceOnUse">
<stop stop-color="white"/>
<stop offset="1" stop-color="white" stop-opacity="0"/>
</linearGradient>
<linearGradient id="paint1_linear_2530_9797" x1="154.5" y1="273" x2="105.5" y2="349" gradientUnits="userSpaceOnUse">
<stop stop-color="white"/>
<stop offset="1" stop-color="white" stop-opacity="0"/>
</linearGradient>
<linearGradient id="paint2_linear_2530_9797" x1="411.5" y1="55" x2="411.5" y2="364" gradientUnits="userSpaceOnUse">
<stop stop-color="white"/>
<stop offset="1" stop-color="white" stop-opacity="0"/>
</linearGradient>
<clipPath id="clip0_2530_9797">
<rect width="596" height="347" fill="white"/>
</clipPath>
</defs>
</svg>
