<svg width="446" height="170" viewBox="0 0 446 170" fill="none" xmlns="http://www.w3.org/2000/svg">
<g clip-path="url(#clip0_3142_798)">
<g filter="url(#filter0_f_3142_798)">
<path d="M271.589 -0.539334C407.23 -10.6888 493.833 79.1758 520.18 125.377L535.885 120.664L435.793 -209.409L-278.473 4.93393C-278.473 4.93393 -214.352 12.973 -57.7552 -4.01078C98.8415 -20.9945 102.038 12.1475 271.589 -0.539334Z" fill="url(#paint0_radial_3142_798)"/>
<path d="M271.589 -0.539334C407.23 -10.6888 493.833 79.1758 520.18 125.377L535.885 120.664L435.793 -209.409L-278.473 4.93393C-278.473 4.93393 -214.352 12.973 -57.7552 -4.01078C98.8415 -20.9945 102.038 12.1475 271.589 -0.539334Z" fill="url(#paint1_radial_3142_798)"/>
<path d="M271.589 -0.539334C407.23 -10.6888 493.833 79.1758 520.18 125.377L535.885 120.664L435.793 -209.409L-278.473 4.93393C-278.473 4.93393 -214.352 12.973 -57.7552 -4.01078C98.8415 -20.9945 102.038 12.1475 271.589 -0.539334Z" fill="url(#paint2_radial_3142_798)"/>
<path d="M271.589 -0.539334C407.23 -10.6888 493.833 79.1758 520.18 125.377L535.885 120.664L435.793 -209.409L-278.473 4.93393C-278.473 4.93393 -214.352 12.973 -57.7552 -4.01078C98.8415 -20.9945 102.038 12.1475 271.589 -0.539334Z" fill="url(#paint3_radial_3142_798)"/>
<path d="M271.589 -0.539334C407.23 -10.6888 493.833 79.1758 520.18 125.377L535.885 120.664L435.793 -209.409L-278.473 4.93393C-278.473 4.93393 -214.352 12.973 -57.7552 -4.01078C98.8415 -20.9945 102.038 12.1475 271.589 -0.539334Z" fill="url(#paint4_radial_3142_798)"/>
<path d="M271.589 -0.539334C407.23 -10.6888 493.833 79.1758 520.18 125.377L535.885 120.664L435.793 -209.409L-278.473 4.93393C-278.473 4.93393 -214.352 12.973 -57.7552 -4.01078C98.8415 -20.9945 102.038 12.1475 271.589 -0.539334Z" fill="url(#paint5_radial_3142_798)"/>
</g>
<g style="mix-blend-mode:overlay" filter="url(#filter1_f_3142_798)">
<path d="M260.483 30.5108C396.114 20.3426 482.698 110.204 509.036 156.405L524.74 151.69L424.701 -178.399L-289.531 36.0565C-229.227 17.9495 -225.417 44.0879 -68.8316 27.0821C87.7537 10.0764 90.9454 43.2209 260.483 30.5108Z" fill="url(#paint6_radial_3142_798)"/>
<path d="M260.483 30.5108C396.114 20.3426 482.698 110.204 509.036 156.405L524.74 151.69L424.701 -178.399L-289.531 36.0565C-229.227 17.9495 -225.417 44.0879 -68.8316 27.0821C87.7537 10.0764 90.9454 43.2209 260.483 30.5108Z" fill="url(#paint7_radial_3142_798)"/>
<path d="M260.483 30.5108C396.114 20.3426 482.698 110.204 509.036 156.405L524.74 151.69L424.701 -178.399L-289.531 36.0565C-229.227 17.9495 -225.417 44.0879 -68.8316 27.0821C87.7537 10.0764 90.9454 43.2209 260.483 30.5108Z" fill="url(#paint8_radial_3142_798)"/>
<path d="M260.483 30.5108C396.114 20.3426 482.698 110.204 509.036 156.405L524.74 151.69L424.701 -178.399L-289.531 36.0565C-229.227 17.9495 -225.417 44.0879 -68.8316 27.0821C87.7537 10.0764 90.9454 43.2209 260.483 30.5108Z" fill="url(#paint9_radial_3142_798)"/>
<path d="M260.483 30.5108C396.114 20.3426 482.698 110.204 509.036 156.405L524.74 151.69L424.701 -178.399L-289.531 36.0565C-229.227 17.9495 -225.417 44.0879 -68.8316 27.0821C87.7537 10.0764 90.9454 43.2209 260.483 30.5108Z" fill="url(#paint10_radial_3142_798)"/>
<path d="M260.483 30.5108C396.114 20.3426 482.698 110.204 509.036 156.405L524.74 151.69L424.701 -178.399L-289.531 36.0565C-229.227 17.9495 -225.417 44.0879 -68.8316 27.0821C87.7537 10.0764 90.9454 43.2209 260.483 30.5108Z" fill="url(#paint11_radial_3142_798)"/>
</g>
<g style="mix-blend-mode:overlay" filter="url(#filter2_f_3142_798)">
<path d="M325.744 17.8789C422.316 10.6389 483.965 74.622 502.719 107.518L513.9 104.161L442.67 -130.869L-65.8776 21.8275C-65.8776 21.8275 -20.2269 27.546 91.265 15.4376C202.757 3.32914 205.03 26.9288 325.744 17.8789Z" fill="url(#paint12_radial_3142_798)"/>
<path d="M325.744 17.8789C422.316 10.6389 483.965 74.622 502.719 107.518L513.9 104.161L442.67 -130.869L-65.8776 21.8275C-65.8776 21.8275 -20.2269 27.546 91.265 15.4376C202.757 3.32914 205.03 26.9288 325.744 17.8789Z" fill="url(#paint13_radial_3142_798)"/>
</g>
<g style="mix-blend-mode:overlay" filter="url(#filter3_f_3142_798)">
<path d="M260.485 30.5104L496.892 156.405L496.892 -47.0957L-62.1316 -42.0647L260.485 30.5104Z" fill="url(#paint14_radial_3142_798)"/>
<path d="M260.485 30.5104L496.892 156.405L496.892 -47.0957L-62.1316 -42.0647L260.485 30.5104Z" fill="url(#paint15_radial_3142_798)"/>
<path d="M260.485 30.5104L496.892 156.405L496.892 -47.0957L-62.1316 -42.0647L260.485 30.5104Z" fill="url(#paint16_radial_3142_798)"/>
<path d="M260.485 30.5104L496.892 156.405L496.892 -47.0957L-62.1316 -42.0647L260.485 30.5104Z" fill="url(#paint17_radial_3142_798)"/>
</g>
</g>
<defs>
<filter id="filter0_f_3142_798" x="-326.388" y="-257.325" width="910.189" height="430.617" filterUnits="userSpaceOnUse" color-interpolation-filters="sRGB">
<feFlood flood-opacity="0" result="BackgroundImageFix"/>
<feBlend mode="normal" in="SourceGraphic" in2="BackgroundImageFix" result="shape"/>
<feGaussianBlur stdDeviation="23.9577" result="effect1_foregroundBlur_3142_798"/>
</filter>
<filter id="filter1_f_3142_798" x="-337.447" y="-226.314" width="910.102" height="430.635" filterUnits="userSpaceOnUse" color-interpolation-filters="sRGB">
<feFlood flood-opacity="0" result="BackgroundImageFix"/>
<feBlend mode="normal" in="SourceGraphic" in2="BackgroundImageFix" result="shape"/>
<feGaussianBlur stdDeviation="23.9577" result="effect1_foregroundBlur_3142_798"/>
</filter>
<filter id="filter2_f_3142_798" x="-119.117" y="-184.109" width="686.257" height="344.867" filterUnits="userSpaceOnUse" color-interpolation-filters="sRGB">
<feFlood flood-opacity="0" result="BackgroundImageFix"/>
<feBlend mode="normal" in="SourceGraphic" in2="BackgroundImageFix" result="shape"/>
<feGaussianBlur stdDeviation="26.6197" result="effect1_foregroundBlur_3142_798"/>
</filter>
<filter id="filter3_f_3142_798" x="-110.047" y="-95.0112" width="654.855" height="299.332" filterUnits="userSpaceOnUse" color-interpolation-filters="sRGB">
<feFlood flood-opacity="0" result="BackgroundImageFix"/>
<feBlend mode="normal" in="SourceGraphic" in2="BackgroundImageFix" result="shape"/>
<feGaussianBlur stdDeviation="23.9577" result="effect1_foregroundBlur_3142_798"/>
</filter>
<radialGradient id="paint0_radial_3142_798" cx="0" cy="0" r="1" gradientUnits="userSpaceOnUse" gradientTransform="translate(461.157 334.397) rotate(-146.308) scale(652.848 988.968)">
<stop stop-color="#A282FF"/>
<stop offset="1" stop-color="#A282FF" stop-opacity="0"/>
</radialGradient>
<radialGradient id="paint1_radial_3142_798" cx="0" cy="0" r="1" gradientUnits="userSpaceOnUse" gradientTransform="translate(512.327 127.733) rotate(-162.514) scale(560.897 558.571)">
<stop stop-color="#FF279C"/>
<stop offset="1" stop-color="#FF279C" stop-opacity="0"/>
</radialGradient>
<radialGradient id="paint2_radial_3142_798" cx="0" cy="0" r="1" gradientUnits="userSpaceOnUse" gradientTransform="translate(535.885 120.664) rotate(-147.575) scale(456.123 455.094)">
<stop stop-color="#6F9FFF"/>
<stop offset="1" stop-color="#FF6FCE" stop-opacity="0"/>
</radialGradient>
<radialGradient id="paint3_radial_3142_798" cx="0" cy="0" r="1" gradientUnits="userSpaceOnUse" gradientTransform="translate(440.323 78.6064) rotate(-166.667) scale(272.403 271.194)">
<stop stop-color="#FFCF54"/>
<stop offset="1" stop-color="#FFCF54" stop-opacity="0"/>
</radialGradient>
<radialGradient id="paint4_radial_3142_798" cx="0" cy="0" r="1" gradientUnits="userSpaceOnUse" gradientTransform="translate(523.949 124.246) rotate(-146.352) scale(130.654 130.384)">
<stop stop-color="#DCFF93"/>
<stop offset="1" stop-color="#DCFF93" stop-opacity="0"/>
</radialGradient>
<radialGradient id="paint5_radial_3142_798" cx="0" cy="0" r="1" gradientUnits="userSpaceOnUse" gradientTransform="translate(519.551 125.565) rotate(-157.099) scale(234.662 233.825)">
<stop stop-color="white"/>
<stop offset="1" stop-color="white" stop-opacity="0"/>
</radialGradient>
<radialGradient id="paint6_radial_3142_798" cx="0" cy="0" r="1" gradientUnits="userSpaceOnUse" gradientTransform="translate(449.991 365.452) rotate(-146.306) scale(652.747 989.122)">
<stop stop-color="#A282FF"/>
<stop offset="1" stop-color="#A282FF" stop-opacity="0"/>
</radialGradient>
<radialGradient id="paint7_radial_3142_798" cx="0" cy="0" r="1" gradientUnits="userSpaceOnUse" gradientTransform="translate(501.184 158.763) rotate(-162.517) scale(560.815 558.654)">
<stop stop-color="#FF279C"/>
<stop offset="1" stop-color="#FF279C" stop-opacity="0"/>
</radialGradient>
<radialGradient id="paint8_radial_3142_798" cx="0" cy="0" r="1" gradientUnits="userSpaceOnUse" gradientTransform="translate(524.74 151.69) rotate(-147.573) scale(456.052 455.165)">
<stop stop-color="#6F9FFF"/>
<stop offset="1" stop-color="#FF6FCE" stop-opacity="0"/>
</radialGradient>
<radialGradient id="paint9_radial_3142_798" cx="0" cy="0" r="1" gradientUnits="userSpaceOnUse" gradientTransform="translate(506.015 153.22) rotate(-155.462) scale(405.701 404.462)">
<stop stop-color="#FFCF54"/>
<stop offset="1" stop-color="#FFCF54" stop-opacity="0"/>
</radialGradient>
<radialGradient id="paint10_radial_3142_798" cx="0" cy="0" r="1" gradientUnits="userSpaceOnUse" gradientTransform="translate(512.805 155.274) rotate(-146.351) scale(130.634 130.404)">
<stop stop-color="#DCFF93"/>
<stop offset="1" stop-color="#DCFF93" stop-opacity="0"/>
</radialGradient>
<radialGradient id="paint11_radial_3142_798" cx="0" cy="0" r="1" gradientUnits="userSpaceOnUse" gradientTransform="translate(508.408 156.594) rotate(-157.101) scale(234.626 233.861)">
<stop stop-color="white"/>
<stop offset="1" stop-color="white" stop-opacity="0"/>
</radialGradient>
<radialGradient id="paint12_radial_3142_798" cx="0" cy="0" r="1" gradientUnits="userSpaceOnUse" gradientTransform="translate(460.677 256.364) rotate(-146.306) scale(464.769 704.275)">
<stop stop-color="#A282FF"/>
<stop offset="1" stop-color="#A282FF" stop-opacity="0"/>
</radialGradient>
<radialGradient id="paint13_radial_3142_798" cx="0" cy="0" r="1" gradientUnits="userSpaceOnUse" gradientTransform="translate(502.271 107.653) rotate(-157.101) scale(167.058 166.514)">
<stop stop-color="white"/>
<stop offset="1" stop-color="white" stop-opacity="0"/>
</radialGradient>
<radialGradient id="paint14_radial_3142_798" cx="0" cy="0" r="1" gradientUnits="userSpaceOnUse" gradientTransform="translate(449.993 365.452) rotate(-146.306) scale(652.747 989.122)">
<stop stop-color="#A282FF"/>
<stop offset="1" stop-color="#A282FF" stop-opacity="0"/>
</radialGradient>
<radialGradient id="paint15_radial_3142_798" cx="0" cy="0" r="1" gradientUnits="userSpaceOnUse" gradientTransform="translate(501.186 158.763) rotate(-162.517) scale(560.814 558.653)">
<stop stop-color="#27FFF2"/>
<stop offset="1" stop-color="#277EFF" stop-opacity="0"/>
</radialGradient>
<radialGradient id="paint16_radial_3142_798" cx="0" cy="0" r="1" gradientUnits="userSpaceOnUse" gradientTransform="translate(524.742 151.69) rotate(-147.573) scale(456.052 455.165)">
<stop stop-color="#6F9FFF"/>
<stop offset="1" stop-color="#6FCBFF" stop-opacity="0"/>
</radialGradient>
<radialGradient id="paint17_radial_3142_798" cx="0" cy="0" r="1" gradientUnits="userSpaceOnUse" gradientTransform="translate(403.063 66.2064) rotate(-164.871) scale(210.816 209.968)">
<stop stop-color="#FFCF54"/>
<stop offset="1" stop-color="#FFCF54" stop-opacity="0"/>
</radialGradient>
<clipPath id="clip0_3142_798">
<rect width="446" height="170" fill="white" transform="matrix(-1 0 0 1 446 0)"/>
</clipPath>
</defs>
</svg>
