<svg width="413" height="196" viewBox="0 0 413 196" fill="none" xmlns="http://www.w3.org/2000/svg">
<g clip-path="url(#clip0_3142_792)">
<g filter="url(#filter0_f_3142_792)">
<path d="M171.077 196.539C35.4364 206.688 -51.167 116.823 -77.5137 70.6224L-93.2188 75.3353L6.87276 405.408L721.139 191.065C721.139 191.065 657.018 183.026 500.421 200.01C343.825 216.994 340.628 183.852 171.077 196.539Z" fill="url(#paint0_radial_3142_792)"/>
<path d="M171.077 196.539C35.4364 206.688 -51.167 116.823 -77.5137 70.6224L-93.2188 75.3353L6.87276 405.408L721.139 191.065C721.139 191.065 657.018 183.026 500.421 200.01C343.825 216.994 340.628 183.852 171.077 196.539Z" fill="url(#paint1_radial_3142_792)"/>
<path d="M171.077 196.539C35.4364 206.688 -51.167 116.823 -77.5137 70.6224L-93.2188 75.3353L6.87276 405.408L721.139 191.065C721.139 191.065 657.018 183.026 500.421 200.01C343.825 216.994 340.628 183.852 171.077 196.539Z" fill="url(#paint2_radial_3142_792)"/>
<path d="M171.077 196.539C35.4364 206.688 -51.167 116.823 -77.5137 70.6224L-93.2188 75.3353L6.87276 405.408L721.139 191.065C721.139 191.065 657.018 183.026 500.421 200.01C343.825 216.994 340.628 183.852 171.077 196.539Z" fill="url(#paint3_radial_3142_792)"/>
<path d="M171.077 196.539C35.4364 206.688 -51.167 116.823 -77.5137 70.6224L-93.2188 75.3353L6.87276 405.408L721.139 191.065C721.139 191.065 657.018 183.026 500.421 200.01C343.825 216.994 340.628 183.852 171.077 196.539Z" fill="url(#paint4_radial_3142_792)"/>
<path d="M171.077 196.539C35.4364 206.688 -51.167 116.823 -77.5137 70.6224L-93.2188 75.3353L6.87276 405.408L721.139 191.065C721.139 191.065 657.018 183.026 500.421 200.01C343.825 216.994 340.628 183.852 171.077 196.539Z" fill="url(#paint5_radial_3142_792)"/>
</g>
<g style="mix-blend-mode:overlay" filter="url(#filter1_f_3142_792)">
<path d="M182.183 165.489C46.5524 175.657 -40.0317 85.7954 -66.3699 39.5938L-82.0742 44.3092L17.9649 374.398L732.197 159.943C671.893 178.05 668.083 151.911 511.498 168.917C354.912 185.923 351.721 152.778 182.183 165.489Z" fill="url(#paint6_radial_3142_792)"/>
<path d="M182.183 165.489C46.5524 175.657 -40.0317 85.7954 -66.3699 39.5938L-82.0742 44.3092L17.9649 374.398L732.197 159.943C671.893 178.05 668.083 151.911 511.498 168.917C354.912 185.923 351.721 152.778 182.183 165.489Z" fill="url(#paint7_radial_3142_792)"/>
<path d="M182.183 165.489C46.5524 175.657 -40.0317 85.7954 -66.3699 39.5938L-82.0742 44.3092L17.9649 374.398L732.197 159.943C671.893 178.05 668.083 151.911 511.498 168.917C354.912 185.923 351.721 152.778 182.183 165.489Z" fill="url(#paint8_radial_3142_792)"/>
<path d="M182.183 165.489C46.5524 175.657 -40.0317 85.7954 -66.3699 39.5938L-82.0742 44.3092L17.9649 374.398L732.197 159.943C671.893 178.05 668.083 151.911 511.498 168.917C354.912 185.923 351.721 152.778 182.183 165.489Z" fill="url(#paint9_radial_3142_792)"/>
<path d="M182.183 165.489C46.5524 175.657 -40.0317 85.7954 -66.3699 39.5938L-82.0742 44.3092L17.9649 374.398L732.197 159.943C671.893 178.05 668.083 151.911 511.498 168.917C354.912 185.923 351.721 152.778 182.183 165.489Z" fill="url(#paint10_radial_3142_792)"/>
<path d="M182.183 165.489C46.5524 175.657 -40.0317 85.7954 -66.3699 39.5938L-82.0742 44.3092L17.9649 374.398L732.197 159.943C671.893 178.05 668.083 151.911 511.498 168.917C354.912 185.923 351.721 152.778 182.183 165.489Z" fill="url(#paint11_radial_3142_792)"/>
</g>
<g style="mix-blend-mode:overlay" filter="url(#filter2_f_3142_792)">
<path d="M116.922 178.121C20.3504 185.361 -41.2992 121.378 -60.0526 88.4813L-71.2344 91.8387L-0.00442475 326.869L508.544 174.172C508.544 174.172 462.893 168.454 351.401 180.562C239.909 192.671 237.636 169.071 116.922 178.121Z" fill="url(#paint12_radial_3142_792)"/>
<path d="M116.922 178.121C20.3504 185.361 -41.2992 121.378 -60.0526 88.4813L-71.2344 91.8387L-0.00442475 326.869L508.544 174.172C508.544 174.172 462.893 168.454 351.401 180.562C239.909 192.671 237.636 169.071 116.922 178.121Z" fill="url(#paint13_radial_3142_792)"/>
</g>
<g style="mix-blend-mode:overlay" filter="url(#filter3_f_3142_792)">
<path d="M182.181 165.489L-54.2261 39.5941L-54.2261 243.095L504.798 238.064L182.181 165.489Z" fill="url(#paint14_radial_3142_792)"/>
<path d="M182.181 165.489L-54.2261 39.5941L-54.2261 243.095L504.798 238.064L182.181 165.489Z" fill="url(#paint15_radial_3142_792)"/>
<path d="M182.181 165.489L-54.2261 39.5941L-54.2261 243.095L504.798 238.064L182.181 165.489Z" fill="url(#paint16_radial_3142_792)"/>
<path d="M182.181 165.489L-54.2261 39.5941L-54.2261 243.095L504.798 238.064L182.181 165.489Z" fill="url(#paint17_radial_3142_792)"/>
</g>
</g>
<defs>
<filter id="filter0_f_3142_792" x="-141.134" y="22.7068" width="910.189" height="430.617" filterUnits="userSpaceOnUse" color-interpolation-filters="sRGB">
<feFlood flood-opacity="0" result="BackgroundImageFix"/>
<feBlend mode="normal" in="SourceGraphic" in2="BackgroundImageFix" result="shape"/>
<feGaussianBlur stdDeviation="23.9577" result="effect1_foregroundBlur_3142_792"/>
</filter>
<filter id="filter1_f_3142_792" x="-129.99" y="-8.32173" width="910.102" height="430.635" filterUnits="userSpaceOnUse" color-interpolation-filters="sRGB">
<feFlood flood-opacity="0" result="BackgroundImageFix"/>
<feBlend mode="normal" in="SourceGraphic" in2="BackgroundImageFix" result="shape"/>
<feGaussianBlur stdDeviation="23.9577" result="effect1_foregroundBlur_3142_792"/>
</filter>
<filter id="filter2_f_3142_792" x="-124.474" y="35.2418" width="686.257" height="344.867" filterUnits="userSpaceOnUse" color-interpolation-filters="sRGB">
<feFlood flood-opacity="0" result="BackgroundImageFix"/>
<feBlend mode="normal" in="SourceGraphic" in2="BackgroundImageFix" result="shape"/>
<feGaussianBlur stdDeviation="26.6197" result="effect1_foregroundBlur_3142_792"/>
</filter>
<filter id="filter3_f_3142_792" x="-102.142" y="-8.32124" width="654.855" height="299.332" filterUnits="userSpaceOnUse" color-interpolation-filters="sRGB">
<feFlood flood-opacity="0" result="BackgroundImageFix"/>
<feBlend mode="normal" in="SourceGraphic" in2="BackgroundImageFix" result="shape"/>
<feGaussianBlur stdDeviation="23.9577" result="effect1_foregroundBlur_3142_792"/>
</filter>
<radialGradient id="paint0_radial_3142_792" cx="0" cy="0" r="1" gradientUnits="userSpaceOnUse" gradientTransform="translate(-18.491 -138.398) rotate(33.6922) scale(652.848 988.968)">
<stop stop-color="#A282FF"/>
<stop offset="1" stop-color="#A282FF" stop-opacity="0"/>
</radialGradient>
<radialGradient id="paint1_radial_3142_792" cx="0" cy="0" r="1" gradientUnits="userSpaceOnUse" gradientTransform="translate(-69.6612 68.2659) rotate(17.4863) scale(560.897 558.571)">
<stop stop-color="#FF279C"/>
<stop offset="1" stop-color="#FF279C" stop-opacity="0"/>
</radialGradient>
<radialGradient id="paint2_radial_3142_792" cx="0" cy="0" r="1" gradientUnits="userSpaceOnUse" gradientTransform="translate(-93.2187 75.3353) rotate(32.4252) scale(456.123 455.094)">
<stop stop-color="#6F9FFF"/>
<stop offset="1" stop-color="#FF6FCE" stop-opacity="0"/>
</radialGradient>
<radialGradient id="paint3_radial_3142_792" cx="0" cy="0" r="1" gradientUnits="userSpaceOnUse" gradientTransform="translate(2.3432 117.393) rotate(13.3327) scale(272.403 271.194)">
<stop stop-color="#FFCF54"/>
<stop offset="1" stop-color="#FFCF54" stop-opacity="0"/>
</radialGradient>
<radialGradient id="paint4_radial_3142_792" cx="0" cy="0" r="1" gradientUnits="userSpaceOnUse" gradientTransform="translate(-81.2829 71.7535) rotate(33.6476) scale(130.654 130.384)">
<stop stop-color="#DCFF93"/>
<stop offset="1" stop-color="#DCFF93" stop-opacity="0"/>
</radialGradient>
<radialGradient id="paint5_radial_3142_792" cx="0" cy="0" r="1" gradientUnits="userSpaceOnUse" gradientTransform="translate(-76.8854 70.4339) rotate(22.9005) scale(234.662 233.825)">
<stop stop-color="white"/>
<stop offset="1" stop-color="white" stop-opacity="0"/>
</radialGradient>
<radialGradient id="paint6_radial_3142_792" cx="0" cy="0" r="1" gradientUnits="userSpaceOnUse" gradientTransform="translate(-7.3248 -169.452) rotate(33.6939) scale(652.747 989.122)">
<stop stop-color="#A282FF"/>
<stop offset="1" stop-color="#A282FF" stop-opacity="0"/>
</radialGradient>
<radialGradient id="paint7_radial_3142_792" cx="0" cy="0" r="1" gradientUnits="userSpaceOnUse" gradientTransform="translate(-58.5179 37.2361) rotate(17.483) scale(560.815 558.654)">
<stop stop-color="#FF279C"/>
<stop offset="1" stop-color="#FF279C" stop-opacity="0"/>
</radialGradient>
<radialGradient id="paint8_radial_3142_792" cx="0" cy="0" r="1" gradientUnits="userSpaceOnUse" gradientTransform="translate(-82.0742 44.3092) rotate(32.4266) scale(456.052 455.165)">
<stop stop-color="#6F9FFF"/>
<stop offset="1" stop-color="#FF6FCE" stop-opacity="0"/>
</radialGradient>
<radialGradient id="paint9_radial_3142_792" cx="0" cy="0" r="1" gradientUnits="userSpaceOnUse" gradientTransform="translate(-63.3486 42.779) rotate(24.5384) scale(405.701 404.462)">
<stop stop-color="#FFCF54"/>
<stop offset="1" stop-color="#FFCF54" stop-opacity="0"/>
</radialGradient>
<radialGradient id="paint10_radial_3142_792" cx="0" cy="0" r="1" gradientUnits="userSpaceOnUse" gradientTransform="translate(-70.139 40.7255) rotate(33.6493) scale(130.634 130.404)">
<stop stop-color="#DCFF93"/>
<stop offset="1" stop-color="#DCFF93" stop-opacity="0"/>
</radialGradient>
<radialGradient id="paint11_radial_3142_792" cx="0" cy="0" r="1" gradientUnits="userSpaceOnUse" gradientTransform="translate(-65.7418 39.4052) rotate(22.8989) scale(234.626 233.861)">
<stop stop-color="white"/>
<stop offset="1" stop-color="white" stop-opacity="0"/>
</radialGradient>
<radialGradient id="paint12_radial_3142_792" cx="0" cy="0" r="1" gradientUnits="userSpaceOnUse" gradientTransform="translate(-18.0112 -60.364) rotate(33.6939) scale(464.769 704.275)">
<stop stop-color="#A282FF"/>
<stop offset="1" stop-color="#A282FF" stop-opacity="0"/>
</radialGradient>
<radialGradient id="paint13_radial_3142_792" cx="0" cy="0" r="1" gradientUnits="userSpaceOnUse" gradientTransform="translate(-59.6052 88.347) rotate(22.8989) scale(167.058 166.514)">
<stop stop-color="white"/>
<stop offset="1" stop-color="white" stop-opacity="0"/>
</radialGradient>
<radialGradient id="paint14_radial_3142_792" cx="0" cy="0" r="1" gradientUnits="userSpaceOnUse" gradientTransform="translate(-7.32666 -169.452) rotate(33.6939) scale(652.747 989.122)">
<stop stop-color="#A282FF"/>
<stop offset="1" stop-color="#A282FF" stop-opacity="0"/>
</radialGradient>
<radialGradient id="paint15_radial_3142_792" cx="0" cy="0" r="1" gradientUnits="userSpaceOnUse" gradientTransform="translate(-58.5197 37.2362) rotate(17.483) scale(560.814 558.653)">
<stop stop-color="#27FFF2"/>
<stop offset="1" stop-color="#277EFF" stop-opacity="0"/>
</radialGradient>
<radialGradient id="paint16_radial_3142_792" cx="0" cy="0" r="1" gradientUnits="userSpaceOnUse" gradientTransform="translate(-82.0762 44.3094) rotate(32.4266) scale(456.052 455.165)">
<stop stop-color="#6F9FFF"/>
<stop offset="1" stop-color="#6FCBFF" stop-opacity="0"/>
</radialGradient>
<radialGradient id="paint17_radial_3142_792" cx="0" cy="0" r="1" gradientUnits="userSpaceOnUse" gradientTransform="translate(39.6028 129.793) rotate(15.1294) scale(210.816 209.968)">
<stop stop-color="#FFCF54"/>
<stop offset="1" stop-color="#FFCF54" stop-opacity="0"/>
</radialGradient>
<clipPath id="clip0_3142_792">
<rect width="413" height="196" fill="white" transform="matrix(1 0 0 -1 0 196)"/>
</clipPath>
</defs>
</svg>
