<svg width="916" height="140" viewBox="0 0 916 140" fill="none" xmlns="http://www.w3.org/2000/svg">
    <g clip-path="url(#clip0_3195_2152)">
        <rect width="916" height="140" fill="#0E031E" />
        <g filter="url(#filter0_f_3195_2152)">
            <path
                d="M373.636 60.5843C640.779 80.7053 811.319 -97.1146 863.196 -188.54L894.128 -179.209L1124.33 369.376C727.892 249.786 -222.845 104.894 -577.652 60.416C-624.558 64.0857 -655.576 65.9362 -709.695 49.6107C-730.638 43.293 -677.96 47.8416 -577.652 60.416C-521.61 56.0316 -442.89 49.0504 -274.996 67.3693C33.4209 101.021 39.7073 35.4331 373.636 60.5843Z"
                fill="url(#paint0_radial_3195_2152)" />
            <path
                d="M373.636 60.5843C640.779 80.7053 811.319 -97.1146 863.196 -188.54L894.128 -179.209L1124.33 369.376C727.892 249.786 -222.845 104.894 -577.652 60.416C-624.558 64.0857 -655.576 65.9362 -709.695 49.6107C-730.638 43.293 -677.96 47.8416 -577.652 60.416C-521.61 56.0316 -442.89 49.0504 -274.996 67.3693C33.4209 101.021 39.7073 35.4331 373.636 60.5843Z"
                fill="url(#paint1_radial_3195_2152)" />
            <path
                d="M373.636 60.5843C640.779 80.7053 811.319 -97.1146 863.196 -188.54L894.128 -179.209L1124.33 369.376C727.892 249.786 -222.845 104.894 -577.652 60.416C-624.558 64.0857 -655.576 65.9362 -709.695 49.6107C-730.638 43.293 -677.96 47.8416 -577.652 60.416C-521.61 56.0316 -442.89 49.0504 -274.996 67.3693C33.4209 101.021 39.7073 35.4331 373.636 60.5843Z"
                fill="url(#paint2_radial_3195_2152)" />
            <path
                d="M373.636 60.5843C640.779 80.7053 811.319 -97.1146 863.196 -188.54L894.128 -179.209L1124.33 369.376C727.892 249.786 -222.845 104.894 -577.652 60.416C-624.558 64.0857 -655.576 65.9362 -709.695 49.6107C-730.638 43.293 -677.96 47.8416 -577.652 60.416C-521.61 56.0316 -442.89 49.0504 -274.996 67.3693C33.4209 101.021 39.7073 35.4331 373.636 60.5843Z"
                fill="url(#paint3_radial_3195_2152)" />
            <path
                d="M373.636 60.5843C640.779 80.7053 811.319 -97.1146 863.196 -188.54L894.128 -179.209L1124.33 369.376C727.892 249.786 -222.845 104.894 -577.652 60.416C-624.558 64.0857 -655.576 65.9362 -709.695 49.6107C-730.638 43.293 -677.96 47.8416 -577.652 60.416C-521.61 56.0316 -442.89 49.0504 -274.996 67.3693C33.4209 101.021 39.7073 35.4331 373.636 60.5843Z"
                fill="url(#paint4_radial_3195_2152)" />
            <path
                d="M373.636 60.5843C640.779 80.7053 811.319 -97.1146 863.196 -188.54L894.128 -179.209L1124.33 369.376C727.892 249.786 -222.845 104.894 -577.652 60.416C-624.558 64.0857 -655.576 65.9362 -709.695 49.6107C-730.638 43.293 -677.96 47.8416 -577.652 60.416C-521.61 56.0316 -442.89 49.0504 -274.996 67.3693C33.4209 101.021 39.7073 35.4331 373.636 60.5843Z"
                fill="url(#paint5_radial_3195_2152)" />
        </g>
        <g filter="url(#filter1_f_3195_2152)">
            <path
                d="M30.6485 81.6414C-370.912 111.887 -627.262 -155.406 -705.241 -292.833L-751.737 -278.807L-607.659 369.377C-98.9274 215.912 799.942 112.879 1302.2 73.8267C1488.67 74.4676 1530.5 103.931 1659.08 65.1454C1706.85 50.7342 1554.61 54.2012 1302.2 73.8267C1229.73 73.5775 1135.4 77.6823 1005.65 91.8398C542.049 142.424 532.599 43.8347 30.6485 81.6414Z"
                fill="url(#paint6_radial_3195_2152)" />
            <path
                d="M30.6485 81.6414C-370.912 111.887 -627.262 -155.406 -705.241 -292.833L-751.737 -278.807L-607.659 369.377C-98.9274 215.912 799.942 112.879 1302.2 73.8267C1488.67 74.4676 1530.5 103.931 1659.08 65.1454C1706.85 50.7342 1554.61 54.2012 1302.2 73.8267C1229.73 73.5775 1135.4 77.6823 1005.65 91.8398C542.049 142.424 532.599 43.8347 30.6485 81.6414Z"
                fill="url(#paint7_radial_3195_2152)" />
            <path
                d="M30.6485 81.6414C-370.912 111.887 -627.262 -155.406 -705.241 -292.833L-751.737 -278.807L-607.659 369.377C-98.9274 215.912 799.942 112.879 1302.2 73.8267C1488.67 74.4676 1530.5 103.931 1659.08 65.1454C1706.85 50.7342 1554.61 54.2012 1302.2 73.8267C1229.73 73.5775 1135.4 77.6823 1005.65 91.8398C542.049 142.424 532.599 43.8347 30.6485 81.6414Z"
                fill="url(#paint8_radial_3195_2152)" />
            <path
                d="M30.6485 81.6414C-370.912 111.887 -627.262 -155.406 -705.241 -292.833L-751.737 -278.807L-607.659 369.377C-98.9274 215.912 799.942 112.879 1302.2 73.8267C1488.67 74.4676 1530.5 103.931 1659.08 65.1454C1706.85 50.7342 1554.61 54.2012 1302.2 73.8267C1229.73 73.5775 1135.4 77.6823 1005.65 91.8398C542.049 142.424 532.599 43.8347 30.6485 81.6414Z"
                fill="url(#paint9_radial_3195_2152)" />
            <path
                d="M30.6485 81.6414C-370.912 111.887 -627.262 -155.406 -705.241 -292.833L-751.737 -278.807L-607.659 369.377C-98.9274 215.912 799.942 112.879 1302.2 73.8267C1488.67 74.4676 1530.5 103.931 1659.08 65.1454C1706.85 50.7342 1554.61 54.2012 1302.2 73.8267C1229.73 73.5775 1135.4 77.6823 1005.65 91.8398C542.049 142.424 532.599 43.8347 30.6485 81.6414Z"
                fill="url(#paint10_radial_3195_2152)" />
            <path
                d="M30.6485 81.6414C-370.912 111.887 -627.262 -155.406 -705.241 -292.833L-751.737 -278.807L-607.659 369.377C-98.9274 215.912 799.942 112.879 1302.2 73.8267C1488.67 74.4676 1530.5 103.931 1659.08 65.1454C1706.85 50.7342 1554.61 54.2012 1302.2 73.8267C1229.73 73.5775 1135.4 77.6823 1005.65 91.8398C542.049 142.424 532.599 43.8347 30.6485 81.6414Z"
                fill="url(#paint11_radial_3195_2152)" />
        </g>
        <g style="mix-blend-mode:overlay" filter="url(#filter2_f_3195_2152)">
            <path
                d="M351.785 -0.781862C618.928 19.3391 789.468 -158.481 841.345 -249.906L872.277 -240.575L703.737 252.591C332.549 140.618 -312.11 35.9929 -596.28 -1.20336C-645.012 2.62565 -676.198 4.9407 -731.547 -11.7559C-757.209 -19.4971 -701.418 -14.9653 -596.28 -1.20336C-540.434 -5.59133 -461.547 -11.9675 -296.848 6.00289C11.5694 39.6543 17.8558 -25.9331 351.785 -0.781862Z"
                fill="url(#paint12_radial_3195_2152)" />
            <path
                d="M351.785 -0.781862C618.928 19.3391 789.468 -158.481 841.345 -249.906L872.277 -240.575L703.737 252.591C332.549 140.618 -312.11 35.9929 -596.28 -1.20336C-645.012 2.62565 -676.198 4.9407 -731.547 -11.7559C-757.209 -19.4971 -701.418 -14.9653 -596.28 -1.20336C-540.434 -5.59133 -461.547 -11.9675 -296.848 6.00289C11.5694 39.6543 17.8558 -25.9331 351.785 -0.781862Z"
                fill="url(#paint13_radial_3195_2152)" />
            <path
                d="M351.785 -0.781862C618.928 19.3391 789.468 -158.481 841.345 -249.906L872.277 -240.575L703.737 252.591C332.549 140.618 -312.11 35.9929 -596.28 -1.20336C-645.012 2.62565 -676.198 4.9407 -731.547 -11.7559C-757.209 -19.4971 -701.418 -14.9653 -596.28 -1.20336C-540.434 -5.59133 -461.547 -11.9675 -296.848 6.00289C11.5694 39.6543 17.8558 -25.9331 351.785 -0.781862Z"
                fill="url(#paint14_radial_3195_2152)" />
            <path
                d="M351.785 -0.781862C618.928 19.3391 789.468 -158.481 841.345 -249.906L872.277 -240.575L703.737 252.591C332.549 140.618 -312.11 35.9929 -596.28 -1.20336C-645.012 2.62565 -676.198 4.9407 -731.547 -11.7559C-757.209 -19.4971 -701.418 -14.9653 -596.28 -1.20336C-540.434 -5.59133 -461.547 -11.9675 -296.848 6.00289C11.5694 39.6543 17.8558 -25.9331 351.785 -0.781862Z"
                fill="url(#paint15_radial_3195_2152)" />
        </g>
        <g style="mix-blend-mode:overlay" filter="url(#filter3_f_3195_2152)">
            <path
                d="M63.4909 -10.6017C-338.07 19.6436 -594.419 -247.649 -672.399 -385.076L-718.894 -371.05L-509.755 195.955C-205.721 104.24 227.364 43.3798 629.753 6.05017C732.991 15.9335 846.999 20.4907 1038.49 -0.403246C1502.1 -50.987 1513.37 26.7619 1691.92 -27.0976C1777.94 -53.0473 1239.03 -50.4728 629.753 6.05017C483.056 -7.99379 358.107 -32.792 63.4909 -10.6017Z"
                fill="url(#paint16_radial_3195_2152)" />
            <path
                d="M63.4909 -10.6017C-338.07 19.6436 -594.419 -247.649 -672.399 -385.076L-718.894 -371.05L-509.755 195.955C-205.721 104.24 227.364 43.3798 629.753 6.05017C732.991 15.9335 846.999 20.4907 1038.49 -0.403246C1502.1 -50.987 1513.37 26.7619 1691.92 -27.0976C1777.94 -53.0473 1239.03 -50.4728 629.753 6.05017C483.056 -7.99379 358.107 -32.792 63.4909 -10.6017Z"
                fill="url(#paint17_radial_3195_2152)" />
            <path
                d="M63.4909 -10.6017C-338.07 19.6436 -594.419 -247.649 -672.399 -385.076L-718.894 -371.05L-509.755 195.955C-205.721 104.24 227.364 43.3798 629.753 6.05017C732.991 15.9335 846.999 20.4907 1038.49 -0.403246C1502.1 -50.987 1513.37 26.7619 1691.92 -27.0976C1777.94 -53.0473 1239.03 -50.4728 629.753 6.05017C483.056 -7.99379 358.107 -32.792 63.4909 -10.6017Z"
                fill="url(#paint18_radial_3195_2152)" />
            <path
                d="M63.4909 -10.6017C-338.07 19.6436 -594.419 -247.649 -672.399 -385.076L-718.894 -371.05L-509.755 195.955C-205.721 104.24 227.364 43.3798 629.753 6.05017C732.991 15.9335 846.999 20.4907 1038.49 -0.403246C1502.1 -50.987 1513.37 26.7619 1691.92 -27.0976C1777.94 -53.0473 1239.03 -50.4728 629.753 6.05017C483.056 -7.99379 358.107 -32.792 63.4909 -10.6017Z"
                fill="url(#paint19_radial_3195_2152)" />
            <path
                d="M63.4909 -10.6017C-338.07 19.6436 -594.419 -247.649 -672.399 -385.076L-718.894 -371.05L-509.755 195.955C-205.721 104.24 227.364 43.3798 629.753 6.05017C732.991 15.9335 846.999 20.4907 1038.49 -0.403246C1502.1 -50.987 1513.37 26.7619 1691.92 -27.0976C1777.94 -53.0473 1239.03 -50.4728 629.753 6.05017C483.056 -7.99379 358.107 -32.792 63.4909 -10.6017Z"
                fill="url(#paint20_radial_3195_2152)" />
        </g>
        <g style="mix-blend-mode:overlay" filter="url(#filter4_f_3195_2152)">
            <path
                d="M480.329 24.218C670.541 38.5446 791.968 -88.0669 828.906 -153.163L850.93 -146.52L710.633 318.565L-291.025 16.4044C-206.453 41.9166 -201.11 5.08841 18.4895 29.0489C238.089 53.0094 242.565 6.30984 480.329 24.218Z"
                fill="url(#paint21_radial_3195_2152)" />
            <path
                d="M480.329 24.218C670.541 38.5446 791.968 -88.0669 828.906 -153.163L850.93 -146.52L710.633 318.565L-291.025 16.4044C-206.453 41.9166 -201.11 5.08841 18.4895 29.0489C238.089 53.0094 242.565 6.30984 480.329 24.218Z"
                fill="url(#paint22_radial_3195_2152)" />
        </g>
        <g style="mix-blend-mode:overlay" filter="url(#filter5_f_3195_2152)">
            <path
                d="M-129.73 26.9766C-415.65 48.5119 -598.176 -141.806 -653.699 -239.657L-686.805 -229.67L-475.914 469.429L1029.74 15.2312C902.617 53.5803 894.586 -1.77859 564.492 34.2381C234.397 70.2548 227.669 0.0575578 -129.73 26.9766Z"
                fill="url(#paint23_radial_3195_2152)" />
            <path
                d="M-129.73 26.9766C-415.65 48.5119 -598.176 -141.806 -653.699 -239.657L-686.805 -229.67L-475.914 469.429L1029.74 15.2312C902.617 53.5803 894.586 -1.77859 564.492 34.2381C234.397 70.2548 227.669 0.0575578 -129.73 26.9766Z"
                fill="url(#paint24_radial_3195_2152)" />
        </g>
        <g style="mix-blend-mode:overlay" filter="url(#filter6_f_3195_2152)">
            <path
                d="M351.784 -0.780875C618.928 19.3401 789.467 -158.48 841.344 -249.905L841.344 107.71L665.54 184.981L474.56 151.175L-283.656 142.833C-283.656 142.833 17.8554 -25.9321 351.784 -0.780875Z"
                fill="url(#paint25_radial_3195_2152)" />
            <path
                d="M351.784 -0.780875C618.928 19.3401 789.467 -158.48 841.344 -249.905L841.344 107.71L665.54 184.981L474.56 151.175L-283.656 142.833C-283.656 142.833 17.8554 -25.9321 351.784 -0.780875Z"
                fill="url(#paint26_radial_3195_2152)" />
            <path
                d="M351.784 -0.780875C618.928 19.3401 789.467 -158.48 841.344 -249.905L841.344 107.71L665.54 184.981L474.56 151.175L-283.656 142.833C-283.656 142.833 17.8554 -25.9321 351.784 -0.780875Z"
                fill="url(#paint27_radial_3195_2152)" />
            <path
                d="M351.784 -0.780875C618.928 19.3401 789.467 -158.48 841.344 -249.905L841.344 107.71L665.54 184.981L474.56 151.175L-283.656 142.833C-283.656 142.833 17.8554 -25.9321 351.784 -0.780875Z"
                fill="url(#paint28_radial_3195_2152)" />
        </g>
        <g style="mix-blend-mode:overlay" filter="url(#filter7_f_3195_2152)">
            <path
                d="M63.4923 -10.5999C-338.068 19.6454 -594.418 -247.647 -672.397 -385.075L-672.397 152.48L-422.707 610.804L-96.6411 316.806L1018.66 205.275C1018.66 205.275 565.443 -48.4065 63.4923 -10.5999Z"
                fill="url(#paint29_radial_3195_2152)" />
            <path
                d="M63.4923 -10.5999C-338.068 19.6454 -594.418 -247.647 -672.397 -385.075L-672.397 152.48L-422.707 610.804L-96.6411 316.806L1018.66 205.275C1018.66 205.275 565.443 -48.4065 63.4923 -10.5999Z"
                fill="url(#paint30_radial_3195_2152)" />
            <path
                d="M63.4923 -10.5999C-338.068 19.6454 -594.418 -247.647 -672.397 -385.075L-672.397 152.48L-422.707 610.804L-96.6411 316.806L1018.66 205.275C1018.66 205.275 565.443 -48.4065 63.4923 -10.5999Z"
                fill="url(#paint31_radial_3195_2152)" />
            <path
                d="M63.4923 -10.5999C-338.068 19.6454 -594.418 -247.647 -672.397 -385.075L-672.397 152.48L-422.707 610.804L-96.6411 316.806L1018.66 205.275C1018.66 205.275 565.443 -48.4065 63.4923 -10.5999Z"
                fill="url(#paint32_radial_3195_2152)" />
        </g>
    </g>
    <defs>
        <filter id="filter0_f_3195_2152" x="-837.171" y="-311.47" width="2084.43" height="803.776"
            filterUnits="userSpaceOnUse" color-interpolation-filters="sRGB">
            <feFlood flood-opacity="0" result="BackgroundImageFix" />
            <feBlend mode="normal" in="SourceGraphic" in2="BackgroundImageFix" result="shape" />
            <feGaussianBlur stdDeviation="61.4651" result="effect1_foregroundBlur_3195_2152" />
        </filter>
        <filter id="filter1_f_3195_2152" x="-874.667" y="-415.763" width="2665.41" height="908.07"
            filterUnits="userSpaceOnUse" color-interpolation-filters="sRGB">
            <feFlood flood-opacity="0" result="BackgroundImageFix" />
            <feBlend mode="normal" in="SourceGraphic" in2="BackgroundImageFix" result="shape" />
            <feGaussianBlur stdDeviation="61.4651" result="effect1_foregroundBlur_3195_2152" />
        </filter>
        <filter id="filter2_f_3195_2152" x="-860.673" y="-372.836" width="1855.88" height="748.357"
            filterUnits="userSpaceOnUse" color-interpolation-filters="sRGB">
            <feFlood flood-opacity="0" result="BackgroundImageFix" />
            <feBlend mode="normal" in="SourceGraphic" in2="BackgroundImageFix" result="shape" />
            <feGaussianBlur stdDeviation="61.4651" result="effect1_foregroundBlur_3195_2152" />
        </filter>
        <filter id="filter3_f_3195_2152" x="-841.825" y="-508.006" width="2665.74" height="826.892"
            filterUnits="userSpaceOnUse" color-interpolation-filters="sRGB">
            <feFlood flood-opacity="0" result="BackgroundImageFix" />
            <feBlend mode="normal" in="SourceGraphic" in2="BackgroundImageFix" result="shape" />
            <feGaussianBlur stdDeviation="61.4651" result="effect1_foregroundBlur_3195_2152" />
        </filter>
        <filter id="filter4_f_3195_2152" x="-413.955" y="-276.094" width="1387.82" height="717.588"
            filterUnits="userSpaceOnUse" color-interpolation-filters="sRGB">
            <feFlood flood-opacity="0" result="BackgroundImageFix" />
            <feBlend mode="normal" in="SourceGraphic" in2="BackgroundImageFix" result="shape" />
            <feGaussianBlur stdDeviation="61.4651" result="effect1_foregroundBlur_3195_2152" />
        </filter>
        <filter id="filter5_f_3195_2152" x="-809.735" y="-362.587" width="1962.41" height="954.946"
            filterUnits="userSpaceOnUse" color-interpolation-filters="sRGB">
            <feFlood flood-opacity="0" result="BackgroundImageFix" />
            <feBlend mode="normal" in="SourceGraphic" in2="BackgroundImageFix" result="shape" />
            <feGaussianBlur stdDeviation="61.4651" result="effect1_foregroundBlur_3195_2152" />
        </filter>
        <filter id="filter6_f_3195_2152" x="-406.586" y="-372.835" width="1370.86" height="680.746"
            filterUnits="userSpaceOnUse" color-interpolation-filters="sRGB">
            <feFlood flood-opacity="0" result="BackgroundImageFix" />
            <feBlend mode="normal" in="SourceGraphic" in2="BackgroundImageFix" result="shape" />
            <feGaussianBlur stdDeviation="61.4651" result="effect1_foregroundBlur_3195_2152" />
        </filter>
        <filter id="filter7_f_3195_2152" x="-795.328" y="-508.005" width="1936.92" height="1241.74"
            filterUnits="userSpaceOnUse" color-interpolation-filters="sRGB">
            <feFlood flood-opacity="0" result="BackgroundImageFix" />
            <feBlend mode="normal" in="SourceGraphic" in2="BackgroundImageFix" result="shape" />
            <feGaussianBlur stdDeviation="61.4651" result="effect1_foregroundBlur_3195_2152" />
        </filter>
        <radialGradient id="paint0_radial_3195_2152" cx="0" cy="0" r="1" gradientUnits="userSpaceOnUse"
            gradientTransform="translate(746.898 -602.207) rotate(146.183) scale(1287.53 1954.49)">
            <stop stop-color="#A282FF" />
            <stop offset="1" stop-color="#A282FF" stop-opacity="0" />
        </radialGradient>
        <radialGradient id="paint1_radial_3195_2152" cx="0" cy="0" r="1" gradientUnits="userSpaceOnUse"
            gradientTransform="translate(847.73 -193.206) rotate(162.44) scale(1105.07 1105.01)">
            <stop stop-color="#FF279C" />
            <stop offset="1" stop-color="#FF279C" stop-opacity="0" />
        </radialGradient>
        <radialGradient id="paint2_radial_3195_2152" cx="0" cy="0" r="1" gradientUnits="userSpaceOnUse"
            gradientTransform="translate(894.128 -179.21) rotate(147.453) scale(899.466 899.485)">
            <stop stop-color="#6F9FFF" />
            <stop offset="1" stop-color="#FF6FCE" stop-opacity="0" />
        </radialGradient>
        <radialGradient id="paint3_radial_3195_2152" cx="0" cy="0" r="1" gradientUnits="userSpaceOnUse"
            gradientTransform="translate(705.932 -96.002) rotate(166.612) scale(536.597 536.587)">
            <stop stop-color="#0B3CFF" />
            <stop offset="1" stop-color="#0B3CFF" stop-opacity="0" />
        </radialGradient>
        <radialGradient id="paint4_radial_3195_2152" cx="0" cy="0" r="1" gradientUnits="userSpaceOnUse"
            gradientTransform="translate(870.619 -186.301) rotate(146.228) scale(257.67 257.677)">
            <stop stop-color="#DCFF93" />
            <stop offset="1" stop-color="#DCFF93" stop-opacity="0" />
        </radialGradient>
        <radialGradient id="paint5_radial_3195_2152" cx="0" cy="0" r="1" gradientUnits="userSpaceOnUse"
            gradientTransform="translate(861.959 -188.914) rotate(157.005) scale(462.456 462.444)">
            <stop stop-color="white" />
            <stop offset="1" stop-color="white" stop-opacity="0" />
        </radialGradient>
        <radialGradient id="paint6_radial_3195_2152" cx="0" cy="0" r="1" gradientUnits="userSpaceOnUse"
            gradientTransform="translate(-530.427 -914.644) rotate(33.8171) scale(1935.37 2937.93)">
            <stop stop-color="#82F7FF" />
            <stop offset="1" stop-color="#82D2FF" stop-opacity="0" />
        </radialGradient>
        <radialGradient id="paint7_radial_3195_2152" cx="0" cy="0" r="1" gradientUnits="userSpaceOnUse"
            gradientTransform="translate(-681.994 -299.847) rotate(17.5595) scale(1661.1 1661.02)">
            <stop stop-color="#FF279C" />
            <stop offset="1" stop-color="#FF279C" stop-opacity="0" />
        </radialGradient>
        <radialGradient id="paint8_radial_3195_2152" cx="0" cy="0" r="1" gradientUnits="userSpaceOnUse"
            gradientTransform="translate(-751.738 -278.808) rotate(32.5473) scale(1352.05 1352.08)">
            <stop stop-color="#6F9FFF" />
            <stop offset="1" stop-color="#FF6FCE" stop-opacity="0" />
        </radialGradient>
        <radialGradient id="paint9_radial_3195_2152" cx="0" cy="0" r="1" gradientUnits="userSpaceOnUse"
            gradientTransform="translate(-468.849 -153.734) rotate(13.3882) scale(806.594 806.58)">
            <stop stop-color="#0B3CFF" stop-opacity="0" />
            <stop offset="1" stop-color="#0B3CFF" />
        </radialGradient>
        <radialGradient id="paint10_radial_3195_2152" cx="0" cy="0" r="1" gradientUnits="userSpaceOnUse"
            gradientTransform="translate(-716.401 -289.468) rotate(33.7724) scale(387.321 387.332)">
            <stop stop-color="#DCFF93" />
            <stop offset="1" stop-color="#DCFF93" stop-opacity="0" />
        </radialGradient>
        <radialGradient id="paint11_radial_3195_2152" cx="0" cy="0" r="1" gradientUnits="userSpaceOnUse"
            gradientTransform="translate(-703.382 -293.395) rotate(22.9946) scale(695.148 695.13)">
            <stop stop-color="white" />
            <stop offset="1" stop-color="white" stop-opacity="0" />
        </radialGradient>
        <radialGradient id="paint12_radial_3195_2152" cx="0" cy="0" r="1" gradientUnits="userSpaceOnUse"
            gradientTransform="translate(825.879 -254.572) rotate(162.44) scale(1105.07 1105.01)">
            <stop stop-color="#FF279C" />
            <stop offset="1" stop-color="#FF279C" stop-opacity="0" />
        </radialGradient>
        <radialGradient id="paint13_radial_3195_2152" cx="0" cy="0" r="1" gradientUnits="userSpaceOnUse"
            gradientTransform="translate(872.277 -240.575) rotate(147.453) scale(899.466 899.485)">
            <stop stop-color="#6F9FFF" />
            <stop offset="1" stop-color="#FF6FCE" stop-opacity="0" />
        </radialGradient>
        <radialGradient id="paint14_radial_3195_2152" cx="0" cy="0" r="1" gradientUnits="userSpaceOnUse"
            gradientTransform="translate(835.394 -243.603) rotate(155.361) scale(799.73 799.716)">
            <stop stop-color="#FFCF54" />
            <stop offset="1" stop-color="#FFCF54" stop-opacity="0" />
        </radialGradient>
        <radialGradient id="paint15_radial_3195_2152" cx="0" cy="0" r="1" gradientUnits="userSpaceOnUse"
            gradientTransform="translate(840.107 -250.279) rotate(157.005) scale(462.456 462.444)">
            <stop stop-color="white" />
            <stop offset="1" stop-color="white" stop-opacity="0" />
        </radialGradient>
        <radialGradient id="paint16_radial_3195_2152" cx="0" cy="0" r="1" gradientUnits="userSpaceOnUse"
            gradientTransform="translate(-497.584 -1006.89) rotate(33.8171) scale(1935.37 2937.93)">
            <stop stop-color="#A282FF" />
            <stop offset="1" stop-color="#A282FF" stop-opacity="0" />
        </radialGradient>
        <radialGradient id="paint17_radial_3195_2152" cx="0" cy="0" r="1" gradientUnits="userSpaceOnUse"
            gradientTransform="translate(-649.151 -392.089) rotate(17.5595) scale(1661.1 1661.02)">
            <stop stop-color="#FF279C" />
            <stop offset="0.0001" stop-color="#27FF64" />
            <stop offset="1" stop-color="#EEFFEA" stop-opacity="0" />
        </radialGradient>
        <radialGradient id="paint18_radial_3195_2152" cx="0" cy="0" r="1" gradientUnits="userSpaceOnUse"
            gradientTransform="translate(-718.894 -371.05) rotate(32.5474) scale(1352.05 1352.07)">
            <stop stop-color="#6F9FFF" />
            <stop offset="1" stop-color="#FF6FCE" stop-opacity="0" />
        </radialGradient>
        <radialGradient id="paint19_radial_3195_2152" cx="0" cy="0" r="1" gradientUnits="userSpaceOnUse"
            gradientTransform="translate(-663.453 -375.602) rotate(24.6393) scale(1202.13 1202.11)">
            <stop stop-color="#0B3CFF" />
            <stop offset="1" stop-color="#0B3CFF" stop-opacity="0" />
        </radialGradient>
        <radialGradient id="paint20_radial_3195_2152" cx="0" cy="0" r="1" gradientUnits="userSpaceOnUse"
            gradientTransform="translate(-670.539 -385.637) rotate(22.9946) scale(695.148 695.13)">
            <stop stop-color="white" />
            <stop offset="1" stop-color="white" stop-opacity="0" />
        </radialGradient>
        <radialGradient id="paint21_radial_3195_2152" cx="0" cy="0" r="1" gradientUnits="userSpaceOnUse"
            gradientTransform="translate(746.099 -447.703) rotate(146.183) scale(916.745 1391.64)">
            <stop stop-color="#A282FF" />
            <stop offset="1" stop-color="#A282FF" stop-opacity="0" />
        </radialGradient>
        <radialGradient id="paint22_radial_3195_2152" cx="0" cy="0" r="1" gradientUnits="userSpaceOnUse"
            gradientTransform="translate(828.025 -153.429) rotate(157.005) scale(329.278 329.27)">
            <stop stop-color="white" />
            <stop offset="1" stop-color="white" stop-opacity="0" />
        </radialGradient>
        <radialGradient id="paint23_radial_3195_2152" cx="0" cy="0" r="1" gradientUnits="userSpaceOnUse"
            gradientTransform="translate(-529.227 -682.398) rotate(33.8171) scale(1378.02 2091.86)">
            <stop stop-color="#A282FF" />
            <stop offset="1" stop-color="#A282FF" stop-opacity="0" />
        </radialGradient>
        <radialGradient id="paint24_radial_3195_2152" cx="0" cy="0" r="1" gradientUnits="userSpaceOnUse"
            gradientTransform="translate(-652.375 -240.057) rotate(22.9946) scale(494.96 494.947)">
            <stop stop-color="white" />
            <stop offset="1" stop-color="white" stop-opacity="0" />
        </radialGradient>
        <radialGradient id="paint25_radial_3195_2152" cx="0" cy="0" r="1" gradientUnits="userSpaceOnUse"
            gradientTransform="translate(725.047 -663.572) rotate(146.183) scale(1287.53 1954.49)">
            <stop stop-color="#A282FF" />
            <stop offset="1" stop-color="#A282FF" stop-opacity="0" />
        </radialGradient>
        <radialGradient id="paint26_radial_3195_2152" cx="0" cy="0" r="1" gradientUnits="userSpaceOnUse"
            gradientTransform="translate(825.879 -254.571) rotate(162.44) scale(1105.07 1105.01)">
            <stop stop-color="#27FFF2" />
            <stop offset="1" stop-color="#277EFF" stop-opacity="0" />
        </radialGradient>
        <radialGradient id="paint27_radial_3195_2152" cx="0" cy="0" r="1" gradientUnits="userSpaceOnUse"
            gradientTransform="translate(872.277 -240.574) rotate(147.453) scale(899.466 899.485)">
            <stop stop-color="#6F9FFF" />
            <stop offset="1" stop-color="#6FCBFF" stop-opacity="0" />
        </radialGradient>
        <radialGradient id="paint28_radial_3195_2152" cx="0" cy="0" r="1" gradientUnits="userSpaceOnUse"
            gradientTransform="translate(632.613 -71.417) rotate(164.803) scale(415.365 415.357)">
            <stop stop-color="#04FFF0" />
            <stop offset="1" stop-color="#6254FF" stop-opacity="0" />
        </radialGradient>
        <radialGradient id="paint29_radial_3195_2152" cx="0" cy="0" r="1" gradientUnits="userSpaceOnUse"
            gradientTransform="translate(-497.583 -1006.89) rotate(33.8171) scale(1935.37 2937.93)">
            <stop stop-color="#A282FF" />
            <stop offset="1" stop-color="#A282FF" stop-opacity="0" />
        </radialGradient>
        <radialGradient id="paint30_radial_3195_2152" cx="0" cy="0" r="1" gradientUnits="userSpaceOnUse"
            gradientTransform="translate(-649.151 -392.088) rotate(17.5596) scale(1661.1 1661.02)">
            <stop stop-color="#27FFF2" />
            <stop offset="1" stop-color="#277EFF" stop-opacity="0" />
        </radialGradient>
        <radialGradient id="paint31_radial_3195_2152" cx="0" cy="0" r="1" gradientUnits="userSpaceOnUse"
            gradientTransform="translate(-718.894 -371.049) rotate(32.5473) scale(1352.05 1352.08)">
            <stop stop-color="#6F9FFF" />
            <stop offset="1" stop-color="#6FCBFF" stop-opacity="0" />
        </radialGradient>
        <radialGradient id="paint32_radial_3195_2152" cx="0" cy="0" r="1" gradientUnits="userSpaceOnUse"
            gradientTransform="translate(-358.639 -116.778) rotate(15.1967) scale(624.362 624.351)">
            <stop stop-color="#04FFF0" />
            <stop offset="1" stop-color="#6254FF" stop-opacity="0" />
        </radialGradient>
        <clipPath id="clip0_3195_2152">
            <rect width="916" height="140" fill="white" />
        </clipPath>
    </defs>
</svg>