<svg width="106" height="106" viewBox="0 0 106 106" fill="none" xmlns="http://www.w3.org/2000/svg">
<path d="M20.9537 26.618V33.2769M20.9537 26.618L7.36108 32.827V39.036M20.9537 26.618L29.5954 30.9523M98.6389 72.1507V65.5817L77.3947 54.9265M98.6389 72.1507L86.1264 78.4496L77.3947 74.0804M98.6389 72.1507L77.3947 61.5201L64.6122 55.1237L20.9537 33.2769M20.9537 33.2769L7.36108 39.036M7.36108 39.036L29.5954 50.1619M35.6655 33.9968V29.4975M35.6655 33.9968L48.139 40.253M35.6655 33.9968L29.5954 30.9523M35.6655 29.4975L59.7513 17.2595V29.4975M35.6655 29.4975L48.139 35.8865M59.7513 46.0773L48.139 40.253M59.7513 46.0773V29.4975M59.7513 46.0773L64.6122 48.5153M35.6655 43.9852V80.9692L48.139 75.3968M35.6655 43.9852L29.5954 47.0447C29.5954 48.0211 29.5954 49.0647 29.5954 50.1619M35.6655 43.9852L48.139 50.1942V59.441M64.6122 59.1028L59.0311 61.8023V64.8913M64.6122 59.1028V75.0302M64.6122 59.1028L77.3947 65.4917V74.0804M64.6122 75.0302L77.3947 80.9692M64.6122 75.0302L29.5954 90.7777M77.3947 80.9692L41.7478 97.1666L29.5954 90.7777M77.3947 80.9692V74.0804M29.5954 90.7777C29.5954 90.241 29.5954 65.1766 29.5954 50.1619M29.5954 90.7777V50.1619M48.139 75.3968L59.0311 70.5309V64.8913M48.139 75.3968V59.441M64.6122 7.36108L77.3947 14.5599V54.9265M64.6122 7.36108L29.5954 25.1782V30.9523M64.6122 7.36108V48.5153M48.139 35.8865V40.253M48.139 35.8865L59.7513 29.4975M48.139 59.441L59.0311 64.8913M64.6122 48.5153L77.3947 54.9265" stroke="#FBA28E" stroke-linecap="round" stroke-linejoin="round"/>
</svg>
