<svg width="124" height="124" viewBox="0 0 124 124" fill="none" xmlns="http://www.w3.org/2000/svg">
<path d="M97.8436 62C97.8436 33.4653 89.8299 10.3334 79.9444 10.3334C76.6841 10.3334 73.6275 12.8494 70.9947 17.2455M97.8436 62C97.8436 90.5348 89.8299 113.667 79.9444 113.667M97.8436 62C97.8436 33.4653 89.9315 10.3334 80.1714 10.3334L44.1537 10.3334M97.8436 62C97.8436 90.5348 89.9315 113.667 80.1715 113.667H43.8992M79.9444 113.667C76.6841 113.667 73.6275 111.151 70.9947 106.755M79.9444 113.667H62.0451M62.0451 62C62.0451 42.8761 65.6446 26.1789 70.9947 17.2455M62.0451 62C62.0451 42.8761 58.4456 26.1789 53.0955 17.2455M62.0451 62C62.0451 81.124 65.6447 97.8212 70.9947 106.755M62.0451 62C62.0451 81.124 58.4456 97.8212 53.0955 106.755M62.0451 113.667C65.3053 113.667 68.362 111.151 70.9947 106.755M62.0451 113.667C58.7849 113.667 55.7282 111.151 53.0955 106.755M62.0451 113.667L44.1458 113.667M44.1458 113.667C34.2604 113.667 26.2466 90.5348 26.2466 62M44.1458 113.667C47.4061 113.667 50.4627 111.151 53.0955 106.755M26.2466 62C26.2466 33.4653 34.2603 10.3334 44.1458 10.3334C44.1484 10.3334 44.1511 10.3334 44.1537 10.3334M26.2466 62C26.2466 90.5348 34.1587 113.667 43.9187 113.667M26.2466 62C26.2466 33.4653 34.1587 10.3334 43.9187 10.3334M43.8992 10.3334L44.1537 10.3334M44.1537 10.3334C47.411 10.3374 50.4648 12.8529 53.0955 17.2455M53.0955 17.2455C55.7282 12.8494 58.7849 10.3334 62.0451 10.3334C65.3053 10.3334 68.362 12.8494 70.9947 17.2455M53.0955 17.2455C47.7454 26.1789 44.1459 42.8761 44.1459 62C44.1459 81.124 47.7454 97.8212 53.0955 106.755M70.9947 17.2455C76.3448 26.1789 79.9444 42.8761 79.9444 62C79.9444 81.124 76.3448 97.8212 70.9947 106.755" stroke="#FCE48F" stroke-linecap="round" stroke-linejoin="round"/>
</svg>
