<svg width="124" height="124" viewBox="0 0 124 124" fill="none" xmlns="http://www.w3.org/2000/svg">
    <path
        d="M83.2634 80.5205L75.8911 65.2638M83.2634 80.5205L38.4554 107.956M83.2634 80.5205L109.692 81.0855M75.8911 65.2638L59.1157 75.6401M75.8911 65.2638L94.4957 65.5696L87.4724 50.8801M59.1157 75.6401L44.7683 84.3896L27.8604 49.3916M59.1157 75.6401L54.8317 66.7595M27.8604 49.3916L14.3076 57.7014L38.4554 107.956M27.8604 49.3916L35.6657 49.673M38.4554 107.956L65.0583 108.5L109.692 81.0855M109.692 81.0855L85.7027 30.8255H82.0708M87.4724 50.8801L61.4265 66.9023M87.4724 50.8801L90.6727 48.9115M82.0708 30.8255L90.6727 48.9115M82.0708 30.8255L74.7115 15.6904L57.3167 15.5M90.6727 48.9115L73.0867 48.5307M90.6727 48.9115L61.4265 66.9023M73.0867 48.5307L43.8405 66.5215M73.0867 48.5307L57.3167 15.5M43.8405 66.5215L35.6657 49.673M43.8405 66.5215L54.8317 66.7595M57.3167 15.5L27.8604 33.586L35.6657 49.673M61.4265 66.9023L54.8317 66.7595"
        stroke="#8BDDF8" stroke-linecap="round" stroke-linejoin="round" />
</svg>