<svg width="104" height="104" viewBox="0 0 104 104" fill="none" xmlns="http://www.w3.org/2000/svg">
    <path
        d="M95.1678 8.84155L62.7899 41.1585H41.0943L8.74956 8.84155H95.1678ZM95.1678 8.84155L62.8396 41.1087V62.8191L95.1347 95.1029M95.1678 8.84155L95.1347 95.1029M85.2309 18.7521H18.6534M79.0037 24.9669H24.8805M74.7474 29.2261H29.1368M71.6504 32.3252H32.2339M69.2821 34.6785H34.6022M67.4272 36.5347H36.4571M65.9366 38.0262H37.9476M64.6945 39.2526H39.1897M63.6677 40.2801H40.2165M43.2639 41.1585L17.3616 8.84155M45.4334 41.1585L26.0067 8.84155M47.603 41.1585L34.6518 8.84155M49.7725 41.1585L43.297 8.84155M51.9421 41.1585V8.84155M54.1117 41.1585L60.5873 8.84155M56.2812 41.1585L69.2324 8.84155M58.4508 41.1585L77.8775 8.84155M60.6204 41.1585L86.5227 8.84155M8.68331 95.1029L40.9618 62.8357V41.1253L8.76612 8.84155H8.66675L8.68331 95.1029ZM8.68331 95.1029L95.1347 95.1029M8.68331 95.1029L41.0612 62.7859H62.7568L95.1347 95.1029M18.5706 18.6692V85.2918M24.7812 24.9006V79.077M29.0375 29.1598V74.8012M32.1345 32.2755V71.7021M34.4862 34.6288V69.3322M36.3411 36.4849V67.476M37.8317 37.9765V65.9845M39.0572 39.2195V64.7581M40.084 40.247V63.714M40.9618 60.6646L8.66675 86.5845M40.9618 58.4936L8.66675 77.9335M40.9618 56.3226L8.66675 69.2825M40.9618 54.1515L8.66675 60.6315M40.9618 51.9805H8.66675M40.9618 49.8095L8.66675 43.3295M40.9618 47.6384L8.66675 34.6785M40.9618 45.4674L8.66675 26.0275M40.9618 43.2964L8.66675 17.3765M18.6202 85.1923H85.1977M24.8474 78.9776H78.9706M29.1037 74.7183H74.7143M32.2007 71.6192H71.6173M34.569 69.2659H69.2489M36.4239 67.4263H67.3941M37.9145 65.9348H65.9035M39.1566 64.6918H64.678M40.1834 63.6643H63.6346M60.5873 62.7859L86.4895 95.1029M58.4177 62.7859L77.8444 95.1029M56.2481 62.7859L69.1993 95.1029M54.0786 62.7859L60.5541 95.1029M51.909 62.7859V95.1029M49.7394 62.7859L43.2639 95.1029M47.5699 62.7859L34.6187 95.1029M45.4003 62.7859L25.9736 95.1029M43.2307 62.7859L17.3284 95.1029M85.2309 85.2752V18.6526M79.0203 79.0438V24.884M74.764 74.7846V29.1432M71.6669 71.6855V32.2423M69.3152 69.3156V34.6122M67.4603 67.4595V36.4684M65.9698 65.9679V37.9599M64.7442 64.725V39.2029M63.7174 63.6974V40.2304M62.8396 43.2798L95.1347 17.36M62.8396 45.4508L95.1347 26.0109M62.8396 47.6219L95.1347 34.6619M62.8396 49.7929L95.1347 43.3129M62.8396 51.9639H95.1347M62.8396 54.135L95.1347 60.6149M62.8396 56.306L95.1347 69.2659M62.8396 58.477L95.1347 77.9169M62.8396 60.6481L95.1347 86.5679"
        stroke="#DCFF93" stroke-linecap="round" stroke-linejoin="round" />
</svg>