<svg width="104" height="105" viewBox="0 0 104 105" fill="none" xmlns="http://www.w3.org/2000/svg">
<path d="M20.5584 26.1314V32.6646M20.5584 26.1314L7.22217 32.2232V38.3151M20.5584 26.1314L29.037 30.3839M96.7777 70.8049V64.3599L75.9344 53.9058M96.7777 70.8049L84.5014 76.9851L75.9344 72.6982M96.7777 70.8049L75.9344 60.3749L63.3931 54.0992L20.5584 32.6646M20.5584 32.6646L7.22217 38.3151M7.22217 38.3151L29.037 49.2311M34.9925 33.371V28.9566M34.9925 33.371L47.2307 39.5091M34.9925 33.371L29.037 30.3839M34.9925 28.9566L58.6239 16.9494V28.9566M34.9925 28.9566L47.2307 35.225M58.6239 45.2235L47.2307 39.5091M58.6239 45.2235V28.9566M58.6239 45.2235L63.3931 47.6155M34.9925 43.1709V79.4571L47.2307 73.9899M34.9925 43.1709L29.037 46.1727C29.037 47.1306 29.037 48.1545 29.037 49.2311M34.9925 43.1709L47.2307 49.2627V58.3351M63.3931 58.0032L57.9173 60.6518V63.6826M63.3931 58.0032V73.6301M63.3931 58.0032L75.9344 64.2716V72.6982M63.3931 73.6301L75.9344 79.4571M63.3931 73.6301L29.037 89.0805M75.9344 79.4571L40.9601 95.3489L29.037 89.0805M75.9344 79.4571V72.6982M29.037 89.0805C29.037 88.5539 29.037 63.9625 29.037 49.2311M29.037 89.0805V49.2311M47.2307 73.9899L57.9173 69.2158V63.6826M47.2307 73.9899V58.3351M63.3931 7.23779L75.9344 14.3008V53.9058M63.3931 7.23779L29.037 24.7188V30.3839M63.3931 7.23779V47.6155M47.2307 35.225V39.5091M47.2307 35.225L58.6239 28.9566M47.2307 58.3351L57.9173 63.6826M63.3931 47.6155L75.9344 53.9058" stroke="#DCFF93" stroke-linecap="round" stroke-linejoin="round"/>
</svg>
