<svg width="104" height="105" viewBox="0 0 104 105" fill="none" xmlns="http://www.w3.org/2000/svg">
<path d="M63.8234 16.8293L61.2013 46.4924L61.1532 47.0364L61.6994 47.0364L62.3399 47.0364L62.6027 47.0364L62.7517 46.8199C74.6506 29.5366 81.1862 20.6083 84.2383 16.8293L103.5 16.8293L103.5 44.2452L103.5 84.1431L76.7186 84.1431L76.7186 60.5224L76.7186 60.0224L76.2186 60.0224L75.5781 60.0224L75.2591 60.0224L75.1247 60.3117L64.0505 84.1431L43.0262 84.1431L43.653 60.7044L43.6667 60.1911L43.1532 60.1911L42.5127 60.1911L42.2003 60.1911L42.0634 60.4718L30.5113 84.1431L0.799179 84.1431L33.5384 16.8293L63.8234 16.8293Z" stroke="#ED5D3D"/>
</svg>
