<svg width="243" height="558" viewBox="0 0 243 558" fill="none" xmlns="http://www.w3.org/2000/svg">
<path d="M188.108 139.659L176.814 168.059M188.108 139.659L199.112 168.059M188.108 139.659H165.52M188.108 139.659L154.225 54.2907L143.443 82.7125M1.75488 278.112H133.049M1.75488 278.112L58.2255 416.565H78.3691M1.75488 278.112L58.2255 139.659L78.677 139.659M188.108 416.565L176.814 388.165M188.108 416.565L199.112 388.165M188.108 416.565L154.225 500.157L143.443 472.09M188.108 416.565H165.52M133.049 278.112L165.52 359.764M133.049 278.112L165.52 196.46M165.52 359.764L176.814 332.547M165.52 359.764H143.443M165.52 196.46L176.814 223.677M165.52 196.46H143.443M176.814 388.165L220.578 278.112M176.814 388.165H111.2M220.578 278.112C218.32 275.27 190.461 203.559 176.814 168.059M220.578 278.112H198.311M176.814 168.059L111.064 168.059M198.311 278.112L187.562 250.895M198.311 278.112L187.562 305.329M176.814 332.547L187.562 305.329M176.814 332.547L165.52 305.329M176.814 223.677L187.562 250.895M176.814 223.677L165.52 250.895M187.562 250.895H165.52M165.52 250.895L154.225 278.112L165.52 305.329M187.562 305.329H165.52M100.289 196.46L123.167 250.895M100.289 196.46H143.443M100.289 196.46L111.064 168.059M123.167 250.895H100.289M123.167 250.895L143.443 196.46M154.225 1L133.049 1L78.677 139.659M154.225 1L210.696 139.659L199.112 168.059M154.225 1L77.9902 196.46M199.112 168.059L241.755 278.112L199.112 388.165M77.9902 196.46L100.289 250.895M77.9902 196.46H55.4019M100.289 250.895H77.9902M55.4019 196.46L67.2571 223.677M55.4019 196.46L35.058 250.895H56.5241M55.4019 196.46L78.677 139.659M77.9902 250.895L67.2571 223.677M77.9902 250.895H56.5241M67.2571 223.677L56.5241 250.895M123.167 305.329L100.289 359.764M123.167 305.329H100.289M123.167 305.329L143.443 359.764M100.289 359.764L111.2 388.165M100.289 359.764H143.443M77.9902 359.764L100.289 305.329M77.9902 359.764H55.4019M77.9902 359.764L154.225 557M100.289 305.329H77.9902M77.9902 305.329L67.2571 332.547M77.9902 305.329L56.5241 305.329M55.4019 359.764L67.2571 332.547M55.4019 359.764L35.058 305.329H56.5241M55.4019 359.764L78.3691 416.565M154.225 557H133.049L78.3691 416.565M154.225 557L210.696 416.565L199.112 388.165M165.52 139.659L143.443 82.7125M165.52 139.659H121.838M143.443 82.7125L121.838 139.659M143.443 472.09L165.52 416.565M143.443 472.09L122.111 416.565M165.52 416.565H122.111M111.2 388.165L122.111 416.565M67.2571 332.547L56.5241 305.329M111.064 168.059L121.838 139.659" stroke="url(#paint0_linear_3890_4158)" stroke-width="2" stroke-linecap="round" stroke-linejoin="round"/>
<defs>
<linearGradient id="paint0_linear_3890_4158" x1="1.75488" y1="557" x2="401.056" y2="395.939" gradientUnits="userSpaceOnUse">
<stop stop-color="#D9F99D"/>
<stop offset="1" stop-color="#10B981"/>
</linearGradient>
</defs>
</svg>
