<svg width="1920" height="1080" viewBox="0 0 1920 1080" fill="none" xmlns="http://www.w3.org/2000/svg">
<g clip-path="url(#clip0_267_359)">
<rect width="1920" height="1080" fill="#090A0B"/>
<path d="M86.1 385.5H98V415.1H131.8V385.5H143.7V457H131.8V425.3H98V457H86.1V385.5ZM176.801 458.5C160.801 458.5 151.101 447.4 151.101 431.5C151.101 415.6 160.801 404.5 176.801 404.5C192.801 404.5 202.501 415.6 202.501 431.5C202.501 447.4 192.801 458.5 176.801 458.5ZM176.801 449.9C186.801 449.9 192.001 442 192.001 431.5C192.001 420.9 186.801 413.1 176.801 413.1C166.801 413.1 161.601 420.9 161.601 431.5C161.601 442 166.801 449.9 176.801 449.9ZM201.688 405.9H212.788L223.188 444.7H223.388L233.788 405.9H244.088L254.588 444.7H254.788L265.088 405.9H276.188L260.588 457H249.988L238.988 418H238.788L227.888 457H217.388L201.688 405.9ZM316.431 457V395.6H293.531V385.5H351.131V395.6H328.331V457H316.431ZM367.824 458.5C351.824 458.5 342.124 447.4 342.124 431.5C342.124 415.6 351.824 404.5 367.824 404.5C383.824 404.5 393.524 415.6 393.524 431.5C393.524 447.4 383.824 458.5 367.824 458.5ZM367.824 449.9C377.824 449.9 383.024 442 383.024 431.5C383.024 420.9 377.824 413.1 367.824 413.1C357.824 413.1 352.624 420.9 352.624 431.5C352.624 442 357.824 449.9 367.824 449.9ZM470.824 403.5C470.824 412.3 465.624 416.4 459.724 418.4V418.6C467.224 419.9 473.624 425.4 473.624 436.1C473.624 449.9 464.124 457 449.324 457H416.924V385.5H447.624C462.324 385.5 470.824 392 470.824 403.5ZM428.824 415.1H447.224C455.724 415.1 458.924 411.7 458.924 405.4C458.924 399.1 455.024 395.6 447.924 395.6H428.824V415.1ZM428.824 424V446.9H448.424C458.624 446.9 461.724 442.1 461.724 435.4C461.724 428.1 457.224 424 449.724 424H428.824ZM512.756 405.9H523.256V457H512.756V450.4H512.556C509.856 454.4 504.556 458.4 495.756 458.4C486.256 458.4 478.756 452.9 478.756 441.2V405.9H489.356V438.2C489.356 445.1 492.256 449.5 499.456 449.5C507.556 449.5 512.756 444.6 512.756 437V405.9ZM537.158 397.3C534.258 397.3 531.258 395.3 531.258 391.7C531.258 388.1 534.258 386.2 537.158 386.2C540.258 386.2 543.158 388.1 543.158 391.7C543.158 395.3 540.258 397.3 537.158 397.3ZM531.958 405.9H542.458V457H531.958V405.9ZM550.552 385.5H561.152V457H550.552V385.5ZM605.248 385.5H615.748V457H605.248V451.1H605.048C602.348 454.6 597.348 458.5 589.448 458.5C576.348 458.5 566.648 448.3 566.648 431.5C566.648 414.7 576.348 404.5 589.448 404.5C597.348 404.5 602.348 408.2 605.048 412.1H605.248V385.5ZM591.248 449.9C599.848 449.9 605.148 442.8 605.148 431.5C605.148 420.1 599.848 413.1 591.248 413.1C582.048 413.1 577.148 421.5 577.148 431.5C577.148 441.5 582.048 449.9 591.248 449.9ZM86.1 577V505.5H113.9C133.6 505.5 145.7 518.3 145.7 541.3C145.7 564.3 134 577 114.2 577H86.1ZM98 515.6V566.9H113.3C129.3 566.9 133.8 555 133.8 541.3C133.8 527.6 129.3 515.6 113.3 515.6H98ZM182.259 539.3C182.259 535.6 180.059 532.8 173.059 532.8C164.659 532.8 161.559 535.4 161.059 542H150.859C151.359 532.2 157.659 524.5 173.059 524.5C184.359 524.5 192.759 528.8 192.759 542.4V566.7C192.759 570.3 193.559 572.2 197.659 571.8V576.8C195.259 577.7 193.559 577.9 191.559 577.9C185.959 577.9 183.359 575.9 182.359 570.9H182.159C178.959 575.4 173.159 578.5 165.259 578.5C154.859 578.5 148.459 572.5 148.459 563.9C148.459 552.7 156.759 549.2 169.559 546.7C177.459 545.2 182.259 544.2 182.259 539.3ZM167.559 570.2C176.259 570.2 182.259 565.9 182.259 557.6V549.9C180.559 551.1 176.459 552.3 171.559 553.3C162.859 555.2 159.059 557.7 159.059 562.9C159.059 567.6 161.859 570.2 167.559 570.2ZM225.224 534.5H215.624V562.2C215.624 568 218.424 568.7 225.224 568.3V576.9C223.124 577.4 220.824 577.7 218.024 577.7C209.624 577.7 205.024 573.9 205.024 563.1V534.5H197.624V525.9H205.024V509.8H215.624V525.9H225.224V534.5ZM262.048 539.3C262.048 535.6 259.848 532.8 252.848 532.8C244.448 532.8 241.348 535.4 240.848 542H230.648C231.148 532.2 237.448 524.5 252.848 524.5C264.148 524.5 272.548 528.8 272.548 542.4V566.7C272.548 570.3 273.348 572.2 277.448 571.8V576.8C275.048 577.7 273.348 577.9 271.348 577.9C265.748 577.9 263.148 575.9 262.148 570.9H261.948C258.748 575.4 252.948 578.5 245.048 578.5C234.648 578.5 228.248 572.5 228.248 563.9C228.248 552.7 236.548 549.2 249.348 546.7C257.248 545.2 262.048 544.2 262.048 539.3ZM247.348 570.2C256.048 570.2 262.048 565.9 262.048 557.6V549.9C260.348 551.1 256.248 552.3 251.348 553.3C242.648 555.2 238.848 557.7 238.848 562.9C238.848 567.6 241.648 570.2 247.348 570.2ZM280.19 546.7H307.09V556.5H280.19V546.7ZM314.772 577V505.5H342.572C362.272 505.5 374.372 518.3 374.372 541.3C374.372 564.3 362.672 577 342.872 577H314.772ZM326.672 515.6V566.9H341.972C357.972 566.9 362.472 555 362.472 541.3C362.472 527.6 357.972 515.6 341.972 515.6H326.672ZM405.113 524.7C406.913 524.7 408.213 524.8 409.713 525V534.9H409.513C399.413 533.2 391.313 540 391.313 550.9V577H380.813V525.9H391.313V535.5H391.513C394.213 529.1 398.413 524.7 405.113 524.7ZM420.357 517.3C417.457 517.3 414.457 515.3 414.457 511.7C414.457 508.1 417.457 506.2 420.357 506.2C423.457 506.2 426.357 508.1 426.357 511.7C426.357 515.3 423.457 517.3 420.357 517.3ZM415.157 525.9H425.657V577H415.157V525.9ZM429.332 525.9H440.432L453.332 565.9H453.432L466.332 525.9H477.432L459.332 577H447.432L429.332 525.9ZM501.807 569.9C510.507 569.9 514.007 564.5 514.907 561.4H525.407C522.807 571.1 515.207 578.5 502.107 578.5C486.207 578.5 476.507 567.5 476.507 551.5C476.507 534.9 486.207 524.5 501.607 524.5C518.107 524.5 526.207 536 526.207 554.2H487.007C487.007 562.8 492.507 569.9 501.807 569.9ZM501.607 532.8C493.107 532.8 487.007 538.5 487.007 546.4H515.707C515.707 538.5 510.107 532.8 501.607 532.8ZM558.906 524.5C568.406 524.5 575.906 530 575.906 541.7V577H565.306V544.7C565.306 537.8 562.406 533.4 555.206 533.4C547.106 533.4 541.906 538.3 541.906 545.9V577H531.406V525.9H541.906V532.5H542.106C544.806 528.5 550.106 524.5 558.906 524.5ZM601.651 577V505.5H629.451C649.151 505.5 661.251 518.3 661.251 541.3C661.251 564.3 649.551 577 629.751 577H601.651ZM613.551 515.6V566.9H628.851C644.851 566.9 649.351 555 649.351 541.3C649.351 527.6 644.851 515.6 628.851 515.6H613.551ZM673.591 517.3C670.691 517.3 667.691 515.3 667.691 511.7C667.691 508.1 670.691 506.2 673.591 506.2C676.691 506.2 679.591 508.1 679.591 511.7C679.591 515.3 676.691 517.3 673.591 517.3ZM668.391 525.9H678.891V577H668.391V525.9ZM722.966 525.9H733.466V573.5C733.466 588.2 724.566 594.7 710.066 594.7C695.366 594.7 687.266 587 686.166 578.4H696.766C697.766 582.9 701.366 586.3 709.666 586.3C718.466 586.3 722.966 582.3 722.966 573.1V566.9H722.766C720.066 570.7 715.366 574.5 707.266 574.5C694.466 574.5 684.866 565.6 684.866 549.5C684.866 533.3 694.466 524.5 707.266 524.5C715.366 524.5 720.066 528.3 722.766 531.9H722.966V525.9ZM709.266 565.9C717.766 565.9 722.866 560.3 722.866 549.5C722.866 538.7 717.766 533.1 709.266 533.1C700.066 533.1 695.366 540 695.366 549.5C695.366 558.9 700.066 565.9 709.266 565.9ZM747.326 517.3C744.426 517.3 741.426 515.3 741.426 511.7C741.426 508.1 744.426 506.2 747.326 506.2C750.426 506.2 753.326 508.1 753.326 511.7C753.326 515.3 750.426 517.3 747.326 517.3ZM742.126 525.9H752.626V577H742.126V525.9ZM785.701 534.5H776.101V562.2C776.101 568 778.901 568.7 785.701 568.3V576.9C783.601 577.4 781.301 577.7 778.501 577.7C770.101 577.7 765.501 573.9 765.501 563.1V534.5H758.101V525.9H765.501V509.8H776.101V525.9H785.701V534.5ZM822.525 539.3C822.525 535.6 820.325 532.8 813.325 532.8C804.925 532.8 801.825 535.4 801.325 542H791.125C791.625 532.2 797.925 524.5 813.325 524.5C824.625 524.5 833.025 528.8 833.025 542.4V566.7C833.025 570.3 833.825 572.2 837.925 571.8V576.8C835.525 577.7 833.825 577.9 831.825 577.9C826.225 577.9 823.625 575.9 822.625 570.9H822.425C819.225 575.4 813.425 578.5 805.525 578.5C795.125 578.5 788.725 572.5 788.725 563.9C788.725 552.7 797.025 549.2 809.825 546.7C817.725 545.2 822.525 544.2 822.525 539.3ZM807.825 570.2C816.525 570.2 822.525 565.9 822.525 557.6V549.9C820.825 551.1 816.725 552.3 811.825 553.3C803.125 555.2 799.325 557.7 799.325 562.9C799.325 567.6 802.125 570.2 807.825 570.2ZM842.266 505.5H852.866V577H842.266V505.5ZM86.1 697V625.5H101.5L121.5 680.5H121.7L141.6 625.5H157V697H145.4V642.8H145.2L126.3 697H116.8L97.9 642.8H97.7V697H86.1ZM197.201 659.3C197.201 655.6 195.001 652.8 188.001 652.8C179.601 652.8 176.501 655.4 176.001 662H165.801C166.301 652.2 172.601 644.5 188.001 644.5C199.301 644.5 207.701 648.8 207.701 662.4V686.7C207.701 690.3 208.501 692.2 212.601 691.8V696.8C210.201 697.7 208.501 697.9 206.501 697.9C200.901 697.9 198.301 695.9 197.301 690.9H197.101C193.901 695.4 188.101 698.5 180.201 698.5C169.801 698.5 163.401 692.5 163.401 683.9C163.401 672.7 171.701 669.2 184.501 666.7C192.401 665.2 197.201 664.2 197.201 659.3ZM182.501 690.2C191.201 690.2 197.201 685.9 197.201 677.6V669.9C195.501 671.1 191.401 672.3 186.501 673.3C177.801 675.2 174.001 677.7 174.001 682.9C174.001 687.6 176.801 690.2 182.501 690.2ZM241.042 644.7C242.842 644.7 244.142 644.8 245.642 645V654.9H245.442C235.342 653.2 227.242 660 227.242 670.9V697H216.742V645.9H227.242V655.5H227.442C230.142 649.1 234.342 644.7 241.042 644.7ZM250.387 625.5H260.887V666.4L281.687 645.9H294.587L275.187 664.9L296.687 697H284.087L267.987 671.8L260.887 678.5V697H250.387V625.5ZM318.838 689.9C327.538 689.9 331.038 684.5 331.938 681.4H342.438C339.838 691.1 332.238 698.5 319.138 698.5C303.238 698.5 293.538 687.5 293.538 671.5C293.538 654.9 303.238 644.5 318.638 644.5C335.138 644.5 343.238 656 343.238 674.2H304.038C304.038 682.8 309.538 689.9 318.838 689.9ZM318.638 652.8C310.138 652.8 304.038 658.5 304.038 666.4H332.738C332.738 658.5 327.138 652.8 318.638 652.8ZM371.861 654.5H362.261V682.2C362.261 688 365.061 688.7 371.861 688.3V696.9C369.761 697.4 367.461 697.7 364.661 697.7C356.261 697.7 351.661 693.9 351.661 683.1V654.5H344.261V645.9H351.661V629.8H362.261V645.9H371.861V654.5ZM383.392 637.3C380.492 637.3 377.492 635.3 377.492 631.7C377.492 628.1 380.492 626.2 383.392 626.2C386.492 626.2 389.392 628.1 389.392 631.7C389.392 635.3 386.492 637.3 383.392 637.3ZM378.192 645.9H388.692V697H378.192V645.9ZM424.867 644.5C434.367 644.5 441.867 650 441.867 661.7V697H431.267V664.7C431.267 657.8 428.367 653.4 421.167 653.4C413.067 653.4 407.867 658.3 407.867 665.9V697H397.367V645.9H407.867V652.5H408.067C410.767 648.5 416.067 644.5 424.867 644.5ZM484.869 645.9H495.369V693.5C495.369 708.2 486.469 714.7 471.969 714.7C457.269 714.7 449.169 707 448.069 698.4H458.669C459.669 702.9 463.269 706.3 471.569 706.3C480.369 706.3 484.869 702.3 484.869 693.1V686.9H484.669C481.969 690.7 477.269 694.5 469.169 694.5C456.369 694.5 446.769 685.6 446.769 669.5C446.769 653.3 456.369 644.5 469.169 644.5C477.269 644.5 481.969 648.3 484.669 651.9H484.869V645.9ZM471.169 685.9C479.669 685.9 484.769 680.3 484.769 669.5C484.769 658.7 479.669 653.1 471.169 653.1C461.969 653.1 457.269 660 457.269 669.5C457.269 678.9 461.969 685.9 471.169 685.9ZM548.571 654.4C563.871 658.3 575.471 661.6 575.471 677.6C575.471 689 566.871 698.5 548.871 698.5C531.371 698.5 518.071 689.4 517.371 673.2H529.271C529.871 682.3 536.071 688.3 548.871 688.3C559.471 688.3 563.571 683.6 563.571 678.1C563.571 669.6 557.471 668 543.371 664.5C532.171 661.7 520.071 657.4 520.071 643.8C520.071 631.1 529.871 624 545.471 624C561.171 624 572.571 632.2 573.571 646.9H561.671C560.571 638.6 555.371 634.2 545.471 634.2C536.971 634.2 531.871 637.4 531.871 642.7C531.871 650.5 538.571 651.9 548.571 654.4ZM605.759 654.5H596.159V682.2C596.159 688 598.959 688.7 605.759 688.3V696.9C603.659 697.4 601.359 697.7 598.559 697.7C590.159 697.7 585.559 693.9 585.559 683.1V654.5H578.159V645.9H585.559V629.8H596.159V645.9H605.759V654.5ZM635.691 644.7C637.491 644.7 638.791 644.8 640.291 645V654.9H640.091C629.991 653.2 621.891 660 621.891 670.9V697H611.391V645.9H621.891V655.5H622.091C624.791 649.1 628.991 644.7 635.691 644.7ZM674.177 659.3C674.177 655.6 671.977 652.8 664.977 652.8C656.577 652.8 653.477 655.4 652.977 662H642.777C643.277 652.2 649.577 644.5 664.977 644.5C676.277 644.5 684.677 648.8 684.677 662.4V686.7C684.677 690.3 685.477 692.2 689.577 691.8V696.8C687.177 697.7 685.477 697.9 683.477 697.9C677.877 697.9 675.277 695.9 674.277 690.9H674.077C670.877 695.4 665.077 698.5 657.177 698.5C646.777 698.5 640.377 692.5 640.377 683.9C640.377 672.7 648.677 669.2 661.477 666.7C669.377 665.2 674.177 664.2 674.177 659.3ZM659.477 690.2C668.177 690.2 674.177 685.9 674.177 677.6V669.9C672.477 671.1 668.377 672.3 663.477 673.3C654.777 675.2 650.977 677.7 650.977 682.9C650.977 687.6 653.777 690.2 659.477 690.2ZM717.142 654.5H707.542V682.2C707.542 688 710.342 688.7 717.142 688.3V696.9C715.042 697.4 712.742 697.7 709.942 697.7C701.542 697.7 696.942 693.9 696.942 683.1V654.5H689.542V645.9H696.942V629.8H707.542V645.9H717.142V654.5ZM744.885 689.9C753.585 689.9 757.085 684.5 757.985 681.4H768.485C765.885 691.1 758.285 698.5 745.185 698.5C729.285 698.5 719.585 687.5 719.585 671.5C719.585 654.9 729.285 644.5 744.685 644.5C761.185 644.5 769.285 656 769.285 674.2H730.085C730.085 682.8 735.585 689.9 744.885 689.9ZM744.685 652.8C736.185 652.8 730.085 658.5 730.085 666.4H758.785C758.785 658.5 753.185 652.8 744.685 652.8ZM809.884 645.9H820.384V693.5C820.384 708.2 811.484 714.7 796.984 714.7C782.284 714.7 774.184 707 773.084 698.4H783.684C784.684 702.9 788.284 706.3 796.584 706.3C805.384 706.3 809.884 702.3 809.884 693.1V686.9H809.684C806.984 690.7 802.284 694.5 794.184 694.5C781.384 694.5 771.784 685.6 771.784 669.5C771.784 653.3 781.384 644.5 794.184 644.5C802.284 644.5 806.984 648.3 809.684 651.9H809.884V645.9ZM796.184 685.9C804.684 685.9 809.784 680.3 809.784 669.5C809.784 658.7 804.684 653.1 796.184 653.1C786.984 653.1 782.284 660 782.284 669.5C782.284 678.9 786.984 685.9 796.184 685.9ZM873.444 645.9L853.044 700.2C850.144 708.1 846.844 714.4 837.044 714.4C834.044 714.4 831.544 713.9 829.544 713.4V705.4H830.444C834.844 706 838.144 705.7 840.444 702.9C842.344 700.6 843.744 696.6 841.844 691.8L823.344 645.9H834.644L848.944 685H849.144L862.244 645.9H873.444Z" fill="white"/>
<g clip-path="url(#clip1_267_359)">
<path d="M126.731 109.463C126.731 104.979 126.749 100.495 126.714 96.0111C126.706 95.1501 126.953 94.8543 127.835 94.8713C132.002 94.9523 136.188 94.7469 140.335 95.0767C146.594 95.574 151.532 100.229 152.83 106.381C154.155 112.662 151.398 118.983 145.965 122.105C143.54 123.497 140.904 124.089 138.125 124.093C134.675 124.098 131.228 124.072 127.778 124.11C126.94 124.119 126.71 123.82 126.715 123.011C126.747 118.495 126.731 113.981 126.732 109.465L126.731 109.463ZM133.291 109.431C133.291 111.909 133.31 114.386 133.279 116.862C133.27 117.572 133.455 117.887 134.229 117.857C135.606 117.804 136.987 117.853 138.366 117.838C142.396 117.792 145.695 114.793 146.283 110.656C146.856 106.624 144.535 102.575 140.74 101.612C138.717 101.098 136.524 101.26 134.41 101.083C133.558 101.011 133.249 101.294 133.27 102.187C133.327 104.6 133.289 107.016 133.289 109.429L133.291 109.431Z" fill="#F9FAFB"/>
<path d="M178.72 123.827C181.03 123.812 182.824 123.867 184.774 124.351C187.496 125.027 189.028 127.074 189.816 129.711C189.996 130.314 189.682 130.493 189.201 130.625C187.54 131.083 185.885 131.573 184.212 131.991C183.99 132.045 183.53 131.821 183.438 131.614C182.841 130.265 181.741 129.858 180.392 129.841C177.79 129.809 175.18 129.885 172.586 129.715C170.02 129.547 167.983 128.34 167.16 125.768C166.299 123.074 167.011 120.694 169.069 118.746C169.404 118.428 169.747 118.239 169.287 117.704C166.774 114.79 166.282 111.442 167.657 107.939C169.059 104.373 171.962 102.596 175.674 102.074C177.439 101.826 179.173 102.04 180.881 102.551C181.153 102.632 181.71 102.532 181.791 102.357C182.918 99.9113 184.981 99.1464 187.464 99.0635C189.252 99.0051 189.252 98.9938 189.252 100.808C189.252 101.78 189.207 102.756 189.265 103.725C189.316 104.574 189.041 104.88 188.15 104.874C187.506 104.87 186.814 105.109 186.236 105.417C186.021 105.53 185.884 106.245 186.031 106.511C187.905 109.908 188.011 113.318 185.908 116.591C183.691 120.042 180.275 121.188 176.322 121.018C175.823 120.997 175.325 120.911 174.832 120.82C173.886 120.649 173.404 120.907 173.142 121.796C172.899 122.618 173.219 123.234 173.963 123.571C174.348 123.746 174.809 123.805 175.239 123.816C176.399 123.848 177.56 123.827 178.72 123.827C178.728 123.759 178.713 123.895 178.72 123.827ZM181 111.472C180.985 109.418 179.301 107.862 177.108 107.875C175.007 107.888 173.328 109.501 173.328 111.506C173.328 113.559 175.033 115.166 177.194 115.148C179.384 115.129 181.015 113.552 181 111.47V111.472Z" fill="#F9FAFB"/>
<path d="M235.351 122.335C234.258 122.938 233.357 123.584 232.353 123.965C227.773 125.704 222.718 123.842 220.152 119.543C217.658 115.364 218.078 109.429 221.136 105.652C224.768 101.166 231.304 100.989 234.704 103.96C234.836 104.075 235.019 104.135 235.192 104.229C235.275 104.126 235.369 104.064 235.379 103.99C235.503 102.998 236.067 102.501 237.069 102.5C238.292 102.5 239.516 102.524 240.739 102.49C241.37 102.473 241.655 102.671 241.653 103.34C241.641 109.991 241.641 116.641 241.655 123.29C241.655 123.918 241.402 124.11 240.811 124.1C239.305 124.076 237.8 124.068 236.295 124.102C235.577 124.119 235.332 123.822 235.402 123.145C235.426 122.91 235.373 122.665 235.349 122.333L235.351 122.335ZM230.171 108.022C227.204 108.026 224.968 110.287 224.964 113.286C224.96 116.272 227.223 118.584 230.158 118.59C233.15 118.595 235.42 116.289 235.411 113.25C235.402 110.255 233.16 108.018 230.171 108.02V108.022Z" fill="#F9FAFB"/>
<path d="M216.473 118.043C216.473 119.837 216.49 121.555 216.45 123.269C216.444 123.486 216.19 123.795 215.973 123.895C213.667 124.963 208.891 125.02 206.632 122.544C205.304 121.089 204.81 119.358 204.799 117.453C204.782 114.725 204.775 111.997 204.81 109.269C204.82 108.485 204.633 108.142 203.765 108.157C201.502 108.199 201.5 108.163 201.5 105.87C201.5 105.024 201.513 104.176 201.495 103.331C201.48 102.737 201.713 102.46 202.329 102.492C202.893 102.522 203.458 102.49 204.021 102.505C204.581 102.52 204.81 102.266 204.803 101.71C204.786 100.488 204.812 99.2648 204.786 98.0421C204.773 97.409 204.989 97.134 205.658 97.149C207.162 97.1829 208.669 97.1735 210.172 97.149C210.781 97.1396 211.015 97.3921 211.001 97.9912C210.977 99.1819 211.02 100.374 210.979 101.565C210.956 102.251 211.19 102.53 211.894 102.509C213.115 102.471 214.34 102.53 215.563 102.487C216.273 102.46 216.508 102.745 216.493 103.423C216.465 104.708 216.454 105.995 216.497 107.279C216.522 108.003 216.216 108.206 215.548 108.186C214.325 108.152 213.1 108.208 211.879 108.163C211.141 108.135 210.975 108.48 210.981 109.128C211.001 111.417 210.973 113.706 210.994 115.995C211.009 117.687 211.943 118.635 213.649 118.569C214.532 118.535 215.406 118.25 216.473 118.043Z" fill="#F9FAFB"/>
<path d="M107.973 92.0154C110.831 95.1825 113.014 98.6095 114.309 102.517C116.553 109.29 117.101 116.244 116.147 123.315C115.963 124.681 115.703 126.041 115.59 127.413C115.509 128.404 114.902 128.334 114.214 128.351C113.378 128.374 113.433 127.831 113.44 127.279C113.563 119.75 111.688 112.759 107.728 106.353C106.806 104.865 105.719 103.476 104.676 102.065C104.284 101.535 104.182 101.064 104.453 100.424C105.55 97.8258 106.59 95.2051 107.656 92.5938C107.724 92.428 107.826 92.2773 107.973 92.0098V92.0154Z" fill="#F9FAFB"/>
<path d="M95.6132 92C97.7855 94.4492 99.5753 96.9644 100.839 99.8131C103.986 106.907 104.713 114.35 103.931 121.994C103.75 123.771 103.402 125.53 103.262 127.309C103.178 128.396 102.55 128.366 101.787 128.351C100.928 128.332 101.079 127.714 101.086 127.205C101.199 119.3 99.1212 112.027 94.7766 105.42C93.9853 104.216 93.0528 103.106 92.2633 101.903C92.0429 101.567 91.9223 100.979 92.0599 100.623C93.1281 97.8462 94.2717 95.0974 95.3965 92.3429C95.4323 92.2581 95.4963 92.1828 95.6132 92Z" fill="#F9FAFB"/>
<path d="M252.723 108.968C252.723 113.64 252.703 118.314 252.742 122.987C252.75 123.874 252.46 124.142 251.606 124.11C250.197 124.055 248.784 124.072 247.373 124.106C246.67 124.123 246.459 123.85 246.459 123.162C246.476 113.627 246.476 104.092 246.459 94.5566C246.459 93.8238 246.693 93.5487 247.435 93.5713C248.844 93.6146 250.259 93.6297 251.668 93.5713C252.512 93.5374 252.744 93.8539 252.74 94.664C252.712 99.4307 252.725 104.199 252.725 108.966L252.723 108.968Z" fill="#F9FAFB"/>
<path d="M197.994 113.29C197.994 116.551 197.971 119.812 198.009 123.073C198.019 123.857 197.774 124.132 196.99 124.108C195.549 124.063 194.105 124.078 192.664 124.102C192.033 124.113 191.773 123.904 191.773 123.232C191.79 116.615 191.788 109.998 191.773 103.381C191.773 102.745 191.978 102.473 192.643 102.488C194.085 102.522 195.53 102.534 196.969 102.488C197.74 102.464 198.017 102.713 198.007 103.508C197.971 106.769 197.992 110.03 197.992 113.292L197.994 113.29Z" fill="#F9FAFB"/>
<path d="M163.087 113.286C163.087 116.545 163.066 119.805 163.102 123.064C163.109 123.831 162.898 124.134 162.1 124.108C160.66 124.059 159.217 124.076 157.776 124.102C157.141 124.114 156.877 123.891 156.879 123.232C156.892 116.619 156.892 110.006 156.879 103.393C156.879 102.686 157.162 102.47 157.84 102.489C159.249 102.526 160.66 102.532 162.069 102.487C162.842 102.46 163.113 102.717 163.104 103.508C163.068 106.767 163.089 110.027 163.087 113.286Z" fill="#F9FAFB"/>
<path d="M198.77 96.0187C198.757 98.1646 197.11 99.7962 194.938 99.8113C192.741 99.8264 191.085 98.1684 191.087 95.9565C191.089 93.7428 192.728 92.1696 195 92.2017C197.191 92.2318 198.783 93.8445 198.77 96.0187Z" fill="#F9FAFB"/>
<path d="M163.852 95.9622C163.857 98.1458 162.173 99.8132 159.97 99.8075C157.809 99.8019 156.161 98.1722 156.135 96.015C156.108 93.8408 157.789 92.1866 160.016 92.1998C162.224 92.213 163.848 93.8069 163.853 95.9641L163.852 95.9622Z" fill="#F9FAFB"/>
</g>
<g clip-path="url(#clip2_267_359)">
<circle opacity="0.2" cx="1474.4" cy="549.449" r="284.944" stroke="#E3E5E8" stroke-width="2.55556"/>
<circle opacity="0.2" cx="1474.4" cy="549.447" r="366.722" stroke="#E3E5E8" stroke-width="2.55556"/>
<line opacity="0.2" x1="2274.29" y1="356.503" x2="674.513" y2="356.503" stroke="url(#paint0_linear_267_359)" stroke-width="2.55556"/>
<line opacity="0.2" x1="2274.29" y1="265.283" x2="1474.4" y2="265.283" stroke="url(#paint1_linear_267_359)" stroke-width="2.55556"/>
<line opacity="0.2" x1="1189.46" y1="355.226" x2="1189.46" y2="1006.89" stroke="url(#paint2_linear_267_359)" stroke-width="2.55556"/>
<line opacity="0.2" y1="-1.27778" x2="651.667" y2="-1.27778" transform="matrix(1.19249e-08 1 1 -1.19249e-08 1678.84 112.44)" stroke="url(#paint3_linear_267_359)" stroke-width="2.55556"/>
<line opacity="0.2" x1="2274" y1="561.278" x2="1761" y2="561.278" stroke="url(#paint4_linear_267_359)" stroke-width="2.55556"/>
<line opacity="0.2" x1="674.508" y1="762.827" x2="2274.29" y2="762.827" stroke="url(#paint5_linear_267_359)" stroke-width="2.55556"/>
<line opacity="0.2" y1="-1.27778" x2="799.889" y2="-1.27778" transform="matrix(1 8.74228e-08 8.74228e-08 -1 674.508 832.33)" stroke="url(#paint6_linear_267_359)" stroke-width="2.55556"/>
<line opacity="0.2" x1="1475.67" y1="115" x2="1475.67" y2="437" stroke="url(#paint7_linear_267_359)" stroke-width="2.55556"/>
<line opacity="0.2" x1="1473.12" y1="1006.89" x2="1473.12" y2="682.335" stroke="url(#paint8_linear_267_359)" stroke-width="2.55556"/>
<g clip-path="url(#clip3_267_359)">
<path d="M1476.32 355.374C1496.49 355.374 1515.9 358.3 1534.25 363.718C1537.18 364.588 1540.14 365.537 1543.15 366.565C1548.44 368.392 1550.65 374.559 1547.97 379.476L1545.49 384.037C1542.13 390.197 1534.75 392.86 1528.05 390.81C1511.69 385.811 1494.35 383.135 1476.36 383.135H1476.32C1451.96 383.135 1428.74 388.078 1407.63 397.015C1404.19 398.479 1400.78 400.021 1397.5 401.682C1380.42 410.224 1364.92 421.455 1351.55 434.821L1351.47 434.9C1347.04 439.329 1342.81 444.035 1338.9 448.939C1334.94 453.882 1331.22 459.023 1327.78 464.362C1310.03 491.885 1299.79 524.589 1299.79 559.666V559.706C1299.79 584.066 1304.73 607.279 1313.67 628.396C1315.13 631.837 1316.67 635.238 1318.33 638.52C1326.87 655.564 1338.11 671.106 1351.51 684.472L1351.59 684.551C1356.02 688.98 1360.73 693.212 1365.63 697.166C1370.57 701.121 1375.71 704.838 1381.05 708.278C1408.54 725.916 1441.24 736.158 1476.32 736.158H1476.36C1500.72 736.158 1523.93 731.215 1545.05 722.277C1548.49 720.814 1551.89 719.272 1555.17 717.611C1572.25 709.072 1587.75 697.846 1601.11 684.486C1601.12 684.477 1601.13 684.472 1601.14 684.472C1601.16 684.472 1601.17 684.467 1601.18 684.458L1601.28 684.353C1605.71 679.924 1609.9 675.258 1613.86 670.354C1617.81 665.411 1621.53 660.27 1624.97 654.931C1640.56 630.667 1650.38 602.322 1652.44 571.864C1652.91 564.926 1657.92 559.003 1664.79 557.944L1676.47 556.146C1678.64 555.811 1680.61 557.461 1680.61 559.666V559.706C1680.61 587.902 1674.88 614.793 1664.55 639.192C1662.89 643.147 1661.07 647.062 1659.14 650.937C1649.25 670.71 1636.24 688.664 1620.78 704.126L1620.7 704.205C1615.56 709.346 1610.1 714.25 1604.44 718.797C1598.75 723.385 1592.78 727.695 1586.61 731.65C1554.81 752.095 1516.97 763.958 1476.36 763.958C1448.16 763.958 1421.27 758.224 1396.87 747.903C1392.92 746.242 1389 744.423 1385.12 742.485C1365.37 732.61 1347.44 719.617 1331.99 704.176C1331.95 704.143 1331.92 704.106 1331.9 704.067C1331.87 704.027 1331.84 703.991 1331.81 703.957C1326.68 698.831 1321.84 693.43 1317.26 687.754C1312.68 682.06 1308.37 676.088 1304.41 669.919C1283.89 638.125 1272.02 600.28 1272.02 559.666V559.627C1272.02 531.431 1277.76 504.579 1288.08 480.14C1289.74 476.186 1291.56 472.271 1293.5 468.395C1303.38 448.622 1316.39 430.669 1331.86 415.206L1331.94 415.127C1337.08 409.986 1342.53 405.122 1348.19 400.535C1353.88 395.948 1359.86 391.637 1366.02 387.683C1397.86 367.238 1435.7 355.374 1476.32 355.374ZM1532.7 544.326C1516.44 546.836 1504.34 529.627 1512.21 515.176L1591.64 369.316C1600.87 352.348 1626.44 357.203 1628.82 376.377L1636.48 438.196C1637.29 444.763 1641.32 450.494 1647.23 453.484L1702.78 481.618C1720.02 490.347 1715.93 516.049 1696.83 518.996L1532.7 544.326ZM1476.32 495.009H1476.36C1480.41 495.009 1482.66 499.391 1480.72 502.949L1473.35 516.506C1470.97 520.866 1466.66 523.715 1462.09 525.644C1462.04 525.661 1462 525.679 1461.96 525.697C1461.25 526.013 1460.54 526.329 1459.83 526.685C1456.27 528.465 1453.02 530.798 1450.22 533.606L1450.14 533.685C1449.23 534.594 1448.4 535.543 1447.57 536.532C1446.74 537.56 1445.95 538.628 1445.23 539.775C1441.56 545.509 1439.42 552.35 1439.42 559.666V559.706C1439.42 564.807 1440.45 569.632 1442.35 574.061C1442.66 574.812 1442.98 575.524 1443.34 576.196C1445.12 579.755 1447.45 582.998 1450.26 585.806L1450.34 585.885C1451.25 586.794 1452.19 587.664 1453.18 588.455C1454.21 589.286 1455.28 590.077 1456.43 590.789C1462.16 594.466 1469 596.602 1476.32 596.602C1481.42 596.602 1486.24 595.574 1490.67 593.715C1491.42 593.399 1492.1 593.082 1492.81 592.726C1496.37 590.947 1499.61 588.614 1502.42 585.806L1502.5 585.727C1503.01 585.213 1503.48 584.699 1503.92 584.224C1504.81 583.252 1505.95 582.53 1507.25 582.329L1530.73 578.7C1534.36 578.139 1537.33 581.526 1535.87 584.896C1535.36 586.122 1534.77 587.388 1534.17 588.614C1531.06 594.879 1526.96 600.516 1522.08 605.408C1522.05 605.443 1522.01 605.474 1521.97 605.501C1521.93 605.526 1521.9 605.555 1521.86 605.587C1520.26 607.152 1518.61 608.678 1516.85 610.087C1515.03 611.55 1513.17 612.895 1511.2 614.16C1501.11 620.606 1489.17 624.363 1476.32 624.363C1467.38 624.363 1458.88 622.544 1451.17 619.261C1449.94 618.747 1448.67 618.154 1447.45 617.561C1441.16 614.437 1435.51 610.324 1430.6 605.42L1430.48 605.302C1428.9 603.72 1427.36 602.02 1425.94 600.24C1424.47 598.421 1423.13 596.562 1421.86 594.585C1415.42 584.54 1411.66 572.558 1411.66 559.706V559.666C1411.66 550.729 1413.48 542.227 1416.76 534.515C1417.28 533.289 1417.87 532.024 1418.46 530.798C1421.59 524.55 1425.7 518.855 1430.6 513.991C1432.22 512.37 1433.96 510.828 1435.78 509.364C1437.6 507.901 1439.46 506.557 1441.44 505.291C1451.48 498.766 1463.46 495.009 1476.32 495.009ZM1476.32 424.618C1488.42 424.618 1500.12 426.2 1511.24 429.206C1513.05 429.68 1514.83 430.194 1516.61 430.787C1518.12 431.288 1518.81 433.014 1518.05 434.406L1511.41 446.62C1508.23 452.459 1501.44 455.211 1494.9 454.068C1488.86 453.013 1482.63 452.458 1476.28 452.458C1461.49 452.458 1447.37 455.464 1434.52 460.882C1432.5 461.752 1430.44 462.701 1428.35 463.729L1428.19 463.808C1417.87 468.988 1408.54 475.79 1400.43 483.897L1400.35 483.976C1397.66 486.665 1395.13 489.512 1392.72 492.478C1390.31 495.484 1388.05 498.608 1385.96 501.851C1375.24 518.539 1369.03 538.43 1369.03 559.745V559.785C1369.03 574.575 1372.04 588.693 1377.45 601.545C1378.32 603.641 1379.27 605.697 1380.3 607.714C1385.48 618.075 1392.32 627.487 1400.47 635.633C1403.2 638.362 1406.08 640.932 1409.05 643.345C1412.06 645.757 1415.18 648.011 1418.42 650.107C1435.11 660.745 1455 666.953 1476.32 666.953H1476.36C1491.15 666.953 1505.26 663.948 1518.12 658.53C1520.21 657.66 1522.27 656.711 1524.29 655.683C1534.65 650.502 1544.06 643.661 1552.2 635.515C1554.93 632.786 1557.54 629.899 1559.92 626.933C1562.33 623.928 1564.58 620.804 1566.68 617.561C1573.67 606.689 1578.73 594.5 1581.42 581.434C1582.73 575.076 1587.57 569.849 1593.98 568.858C1602.9 567.481 1610.87 574.655 1609.29 583.536C1607.51 593.514 1604.64 603.118 1600.81 612.222C1599.7 614.832 1598.51 617.442 1597.21 619.973C1590.68 633.063 1582.06 644.926 1571.86 655.129L1571.78 655.208C1568.38 658.609 1564.78 661.812 1561.06 664.857C1557.31 667.902 1553.35 670.75 1549.28 673.36C1528.24 686.845 1503.21 694.714 1476.4 694.714C1457.77 694.714 1439.97 690.918 1423.84 684.116C1421.23 683.009 1418.62 681.822 1416.09 680.517C1403.02 674.003 1391.17 665.4 1380.98 655.219C1380.95 655.186 1380.92 655.149 1380.89 655.109C1380.87 655.07 1380.84 655.033 1380.8 655C1377.42 651.614 1374.24 648.071 1371.24 644.333C1368.2 640.576 1365.35 636.622 1362.74 632.549C1349.22 611.51 1341.39 586.518 1341.39 559.666V559.627C1341.39 541.001 1345.18 523.205 1352.03 507.071C1353.13 504.461 1354.32 501.851 1355.62 499.32C1362.15 486.23 1370.77 474.367 1380.97 464.164L1381.05 464.085C1384.45 460.684 1388.01 457.481 1391.77 454.475C1395.53 451.43 1399.48 448.583 1403.55 445.973C1424.47 432.448 1449.51 424.618 1476.32 424.618Z" fill="url(#paint9_linear_267_359)"/>
</g>
</g>
</g>
<defs>
<linearGradient id="paint0_linear_267_359" x1="674.513" y1="355.225" x2="2274.29" y2="355.251" gradientUnits="userSpaceOnUse">
<stop stop-color="#E3E5E8"/>
<stop offset="1" stop-color="#E3E5E8" stop-opacity="0.4"/>
</linearGradient>
<linearGradient id="paint1_linear_267_359" x1="1474.4" y1="264.005" x2="2274.29" y2="264.011" gradientUnits="userSpaceOnUse">
<stop stop-color="#E3E5E8"/>
<stop offset="1" stop-color="#E3E5E8" stop-opacity="0.4"/>
</linearGradient>
<linearGradient id="paint2_linear_267_359" x1="1188.18" y1="1006.89" x2="1188.18" y2="355.226" gradientUnits="userSpaceOnUse">
<stop stop-color="#E3E5E8"/>
<stop offset="1" stop-color="#E3E5E8" stop-opacity="0.4"/>
</linearGradient>
<linearGradient id="paint3_linear_267_359" x1="651.667" y1="0.000864337" x2="2.25144e-08" y2="-0.00342253" gradientUnits="userSpaceOnUse">
<stop stop-color="#E3E5E8"/>
<stop offset="1" stop-color="#E3E5E8" stop-opacity="0.4"/>
</linearGradient>
<linearGradient id="paint4_linear_267_359" x1="1761" y1="559.999" x2="2274" y2="560.002" gradientUnits="userSpaceOnUse">
<stop stop-color="#E3E5E8"/>
<stop offset="1" stop-color="#E3E5E8" stop-opacity="0.4"/>
</linearGradient>
<linearGradient id="paint5_linear_267_359" x1="2274.29" y1="764.105" x2="674.508" y2="764.08" gradientUnits="userSpaceOnUse">
<stop stop-color="#E3E5E8"/>
<stop offset="1" stop-color="#E3E5E8" stop-opacity="0.4"/>
</linearGradient>
<linearGradient id="paint6_linear_267_359" x1="799.889" y1="0.000864337" x2="4.51723e-08" y2="-0.0055944" gradientUnits="userSpaceOnUse">
<stop stop-color="#E3E5E8"/>
<stop offset="1" stop-color="#E3E5E8" stop-opacity="0.4"/>
</linearGradient>
<linearGradient id="paint7_linear_267_359" x1="1474.39" y1="437" x2="1474.39" y2="115" gradientUnits="userSpaceOnUse">
<stop stop-color="#E3E5E8"/>
<stop offset="1" stop-color="#E3E5E8" stop-opacity="0.4"/>
</linearGradient>
<linearGradient id="paint8_linear_267_359" x1="1474.39" y1="682.335" x2="1474.39" y2="1006.89" gradientUnits="userSpaceOnUse">
<stop stop-color="#E3E5E8"/>
<stop offset="1" stop-color="#E3E5E8" stop-opacity="0.4"/>
</linearGradient>
<linearGradient id="paint9_linear_267_359" x1="1426.92" y1="314.998" x2="1553.07" y2="752.992" gradientUnits="userSpaceOnUse">
<stop stop-color="#0B3CFF"/>
<stop offset="1" stop-color="#0B8AFF"/>
</linearGradient>
<clipPath id="clip0_267_359">
<rect width="1920" height="1080" fill="white"/>
</clipPath>
<clipPath id="clip1_267_359">
<rect width="160.742" height="40" fill="white" transform="translate(92 92)"/>
</clipPath>
<clipPath id="clip2_267_359">
<rect width="1599.78" height="851" fill="white" transform="translate(674.508 115)"/>
</clipPath>
<clipPath id="clip3_267_359">
<rect width="485.936" height="449" fill="white" transform="translate(1272.02 315)"/>
</clipPath>
</defs>
</svg>
