<svg width="1920" height="1080" viewBox="0 0 1920 1080" fill="none" xmlns="http://www.w3.org/2000/svg">
<rect width="1920" height="1080" fill="#090A0B"/>
<g clip-path="url(#clip0_267_272)">
<path opacity="0.2" d="M490.061 897.939C489.475 897.354 488.525 897.354 487.939 897.939L478.393 907.485C477.808 908.071 477.808 909.021 478.393 909.607C478.979 910.192 479.929 910.192 480.515 909.607L489 901.121L497.485 909.607C498.071 910.192 499.021 910.192 499.607 909.607C500.192 909.021 500.192 908.071 499.607 907.485L490.061 897.939ZM487.5 899L487.5 1251L490.5 1251L490.5 899L487.5 899Z" fill="url(#paint0_linear_267_272)"/>
<path opacity="0.2" d="M420 976L420 1180" stroke="url(#paint1_linear_267_272)" stroke-width="3"/>
<path opacity="0.2" d="M164 1005L164 1209" stroke="url(#paint2_linear_267_272)" stroke-width="3"/>
<path opacity="0.2" d="M1470.34 871.939C1469.75 871.354 1468.8 871.354 1468.22 871.939L1458.67 881.485C1458.09 882.071 1458.09 883.021 1458.67 883.607C1459.26 884.192 1460.21 884.192 1460.79 883.607L1469.28 875.121L1477.76 883.607C1478.35 884.192 1479.3 884.192 1479.88 883.607C1480.47 883.021 1480.47 882.071 1479.88 881.485L1470.34 871.939ZM1467.78 873L1467.78 1228L1470.78 1228L1470.78 873L1467.78 873Z" fill="url(#paint3_linear_267_272)"/>
<path opacity="0.2" d="M1548.94 807.939C1548.35 808.525 1548.35 809.475 1548.94 810.061L1558.49 819.607C1559.07 820.192 1560.02 820.192 1560.61 819.607C1561.19 819.021 1561.19 818.071 1560.61 817.485L1552.12 809L1560.61 800.515C1561.19 799.929 1561.19 798.979 1560.61 798.393C1560.02 797.808 1559.07 797.808 1558.49 798.393L1548.94 807.939ZM2063 807.5L1550 807.5L1550 810.5L2063 810.5L2063 807.5Z" fill="url(#paint4_linear_267_272)"/>
<line opacity="0.2" x1="1138.5" y1="1281" x2="1138.5" y2="810" stroke="url(#paint5_linear_267_272)" stroke-width="3"/>
<line opacity="0.2" x1="418" y1="977.5" x2="1948" y2="977.5" stroke="url(#paint6_linear_267_272)" stroke-width="3"/>
<path opacity="0.2" d="M1038.94 810.939C1038.35 811.525 1038.35 812.475 1038.94 813.061L1048.49 822.607C1049.07 823.192 1050.02 823.192 1050.61 822.607C1051.19 822.021 1051.19 821.071 1050.61 820.485L1042.12 812L1050.61 803.515C1051.19 802.929 1051.19 801.979 1050.61 801.393C1050.02 800.808 1049.07 800.808 1048.49 801.393L1038.94 810.939ZM1040 813.5L1140 813.5L1140 810.5L1040 810.5L1040 813.5Z" fill="url(#paint7_linear_267_272)"/>
<path opacity="0.2" d="M418.061 836.061C418.646 835.475 418.646 834.525 418.061 833.939L408.515 824.393C407.929 823.808 406.979 823.808 406.393 824.393C405.808 824.979 405.808 825.929 406.393 826.515L414.879 835L406.393 843.485C405.808 844.071 405.808 845.021 406.393 845.607C406.979 846.192 407.929 846.192 408.515 845.607L418.061 836.061ZM-95 836.5L417 836.5L417 833.5L-95 833.5L-95 836.5Z" fill="url(#paint8_linear_267_272)"/>
<line opacity="0.2" y1="-1.5" x2="799.889" y2="-1.5" transform="matrix(1 8.74228e-08 8.74228e-08 -1 162 1005.33)" stroke="url(#paint9_linear_267_272)" stroke-width="3"/>
<path opacity="0.2" d="M962.061 882.939C961.475 882.354 960.525 882.354 959.939 882.939L950.393 892.485C949.808 893.071 949.808 894.021 950.393 894.607C950.979 895.192 951.929 895.192 952.515 894.607L961 886.121L969.485 894.607C970.071 895.192 971.021 895.192 971.607 894.607C972.192 894.021 972.192 893.071 971.607 892.485L962.061 882.939ZM959.5 884L959.5 1008L962.5 1008L962.5 884L959.5 884Z" fill="url(#paint10_linear_267_272)"/>
<rect x="912.16" y="772.16" width="95.68" height="79.68" rx="7.84" fill="#090A0B"/>
<rect x="912.16" y="772.16" width="95.68" height="79.68" rx="7.84" stroke="url(#paint11_radial_267_272)" stroke-width="0.32"/>
<rect x="928" y="784" width="64" height="56" rx="8" fill="url(#paint12_linear_267_272)"/>
<path d="M952.424 802.648H956.232L959.944 808.408H960.008L963.72 802.648H967.528L962.024 810.648L968.136 819H964.232L960.008 812.856H959.944L955.784 819H951.848L957.96 810.648L952.424 802.648Z" fill="#3F65FD"/>
<rect x="1421.16" y="769.16" width="95.68" height="79.68" rx="7.84" fill="#090A0B"/>
<rect x="1421.16" y="769.16" width="95.68" height="79.68" rx="7.84" stroke="url(#paint13_radial_267_272)" stroke-width="0.32"/>
<rect x="1437" y="781" width="64" height="56" rx="8" fill="url(#paint14_linear_267_272)"/>
<path d="M1461.42 799.648H1465.23L1468.94 805.408H1469.01L1472.72 799.648H1476.53L1471.02 807.648L1477.14 816H1473.23L1469.01 809.856H1468.94L1464.78 816H1460.85L1466.96 807.648L1461.42 799.648Z" fill="#3F65FD"/>
<rect x="441.16" y="795.16" width="95.68" height="79.68" rx="7.84" fill="#090A0B"/>
<rect x="441.16" y="795.16" width="95.68" height="79.68" rx="7.84" stroke="url(#paint15_radial_267_272)" stroke-width="0.32"/>
<rect x="457" y="807" width="64" height="56" rx="8" fill="url(#paint16_linear_267_272)"/>
<path d="M481.424 825.648H485.232L488.944 831.408H489.008L492.72 825.648H496.528L491.024 833.648L497.136 842H493.232L489.008 835.856H488.944L484.784 842H480.848L486.96 833.648L481.424 825.648Z" fill="#3F65FD"/>
</g>
<g clip-path="url(#clip1_267_272)">
<path opacity="0.2" d="M1432 181L1432 -171" stroke="url(#paint17_linear_267_272)" stroke-width="3"/>
<path opacity="0.2" d="M1501 104L1501 -100" stroke="url(#paint18_linear_267_272)" stroke-width="3"/>
<path opacity="0.2" d="M1757 75L1757 -129" stroke="url(#paint19_linear_267_272)" stroke-width="3"/>
<path opacity="0.2" d="M452 134L452 -148" stroke="url(#paint20_linear_267_272)" stroke-width="3"/>
<path opacity="0.2" d="M-142 271H78" stroke="url(#paint21_linear_267_272)" stroke-width="3"/>
<line opacity="0.2" x1="779.5" y1="196" x2="779.5" y2="-201" stroke="url(#paint22_linear_267_272)" stroke-width="3"/>
<line opacity="0.2" x1="1503" y1="102.5" x2="-27" y2="102.5" stroke="url(#paint23_linear_267_272)" stroke-width="3"/>
<path opacity="0.2" d="M2016 245L1825 245" stroke="url(#paint24_linear_267_272)" stroke-width="3"/>
<line opacity="0.2" y1="-1.5" x2="799.889" y2="-1.5" transform="matrix(-1 -8.74228e-08 -8.74228e-08 1 1759 74.6699)" stroke="url(#paint25_linear_267_272)" stroke-width="3"/>
<path opacity="0.2" d="M958.939 197.061C959.525 197.646 960.475 197.646 961.061 197.061L970.607 187.515C971.192 186.929 971.192 185.979 970.607 185.393C970.021 184.808 969.071 184.808 968.485 185.393L960 193.879L951.515 185.393C950.929 184.808 949.979 184.808 949.393 185.393C948.808 185.979 948.808 186.929 949.393 187.515L958.939 197.061ZM961.5 196L961.5 72L958.5 72L958.5 196L961.5 196Z" fill="url(#paint26_linear_267_272)"/>
</g>
<rect x="786.16" y="284.16" width="346.68" height="87.68" rx="7.84" fill="#090A0B"/>
<rect x="786.16" y="284.16" width="346.68" height="87.68" rx="7.84" stroke="url(#paint27_radial_267_272)" stroke-width="0.32"/>
<rect x="802" y="296" width="315" height="64" rx="8" fill="url(#paint28_linear_267_272)"/>
<path d="M820.148 340V317.12H825.076L831.476 334.72H831.54L837.908 317.12H842.836V340H839.124V322.656H839.06L833.012 340H829.972L823.924 322.656H823.86V340H820.148ZM856.02 327.936C856.02 326.752 855.316 325.856 853.076 325.856C850.388 325.856 849.396 326.688 849.236 328.8H845.972C846.132 325.664 848.148 323.2 853.076 323.2C856.692 323.2 859.38 324.576 859.38 328.928V336.704C859.38 337.856 859.636 338.464 860.948 338.336V339.936C860.18 340.224 859.636 340.288 858.996 340.288C857.204 340.288 856.372 339.648 856.052 338.048H855.988C854.964 339.488 853.108 340.48 850.58 340.48C847.252 340.48 845.204 338.56 845.204 335.808C845.204 332.224 847.86 331.104 851.956 330.304C854.484 329.824 856.02 329.504 856.02 327.936ZM851.316 337.824C854.1 337.824 856.02 336.448 856.02 333.792V331.328C855.476 331.712 854.164 332.096 852.596 332.416C849.812 333.024 848.596 333.824 848.596 335.488C848.596 336.992 849.492 337.824 851.316 337.824ZM870.37 323.264C870.946 323.264 871.362 323.296 871.842 323.36V326.528H871.778C868.546 325.984 865.954 328.16 865.954 331.648V340H862.594V323.648H865.954V326.72H866.018C866.882 324.672 868.226 323.264 870.37 323.264ZM873.68 317.12H877.04V330.208L883.696 323.648H887.824L881.616 329.728L888.496 340H884.464L879.312 331.936L877.04 334.08V340H873.68V317.12ZM895.904 337.728C898.688 337.728 899.808 336 900.096 335.008H903.456C902.624 338.112 900.192 340.48 896 340.48C890.912 340.48 887.808 336.96 887.808 331.84C887.808 326.528 890.912 323.2 895.84 323.2C901.12 323.2 903.712 326.88 903.712 332.704H891.168C891.168 335.456 892.928 337.728 895.904 337.728ZM895.84 325.856C893.12 325.856 891.168 327.68 891.168 330.208H900.352C900.352 327.68 898.56 325.856 895.84 325.856ZM913.192 326.4H910.12V335.264C910.12 337.12 911.016 337.344 913.192 337.216V339.968C912.52 340.128 911.784 340.224 910.888 340.224C908.2 340.224 906.728 339.008 906.728 335.552V326.4H904.36V323.648H906.728V318.496H910.12V323.648H913.192V326.4ZM917.202 320.896C916.274 320.896 915.314 320.256 915.314 319.104C915.314 317.952 916.274 317.344 917.202 317.344C918.194 317.344 919.122 317.952 919.122 319.104C919.122 320.256 918.194 320.896 917.202 320.896ZM915.538 323.648H918.898V340H915.538V323.648ZM930.794 323.2C933.834 323.2 936.234 324.96 936.234 328.704V340H932.842V329.664C932.842 327.456 931.914 326.048 929.61 326.048C927.018 326.048 925.354 327.616 925.354 330.048V340H921.994V323.648H925.354V325.76H925.418C926.282 324.48 927.978 323.2 930.794 323.2ZM950.314 323.648H953.674V338.88C953.674 343.584 950.826 345.664 946.186 345.664C941.482 345.664 938.89 343.2 938.538 340.448H941.93C942.25 341.888 943.402 342.976 946.058 342.976C948.874 342.976 950.314 341.696 950.314 338.752V336.768H950.25C949.386 337.984 947.882 339.2 945.29 339.2C941.194 339.2 938.122 336.352 938.122 331.2C938.122 326.016 941.194 323.2 945.29 323.2C947.882 323.2 949.386 324.416 950.25 325.568H950.314V323.648ZM945.93 336.448C948.65 336.448 950.282 334.656 950.282 331.2C950.282 327.744 948.65 325.952 945.93 325.952C942.986 325.952 941.482 328.16 941.482 331.2C941.482 334.208 942.986 336.448 945.93 336.448ZM971.339 326.368C976.235 327.616 979.947 328.672 979.947 333.792C979.947 337.44 977.195 340.48 971.435 340.48C965.835 340.48 961.579 337.568 961.355 332.384H965.163C965.355 335.296 967.339 337.216 971.435 337.216C974.827 337.216 976.139 335.712 976.139 333.952C976.139 331.232 974.187 330.72 969.675 329.6C966.091 328.704 962.219 327.328 962.219 322.976C962.219 318.912 965.355 316.64 970.347 316.64C975.371 316.64 979.019 319.264 979.339 323.968H975.531C975.179 321.312 973.515 319.904 970.347 319.904C967.627 319.904 965.995 320.928 965.995 322.624C965.995 325.12 968.139 325.568 971.339 326.368ZM989.959 326.4H986.887V335.264C986.887 337.12 987.783 337.344 989.959 337.216V339.968C989.287 340.128 988.551 340.224 987.655 340.224C984.967 340.224 983.495 339.008 983.495 335.552V326.4H981.127V323.648H983.495V318.496H986.887V323.648H989.959V326.4ZM999.857 323.264C1000.43 323.264 1000.85 323.296 1001.33 323.36V326.528H1001.27C998.033 325.984 995.441 328.16 995.441 331.648V340H992.081V323.648H995.441V326.72H995.505C996.369 324.672 997.713 323.264 999.857 323.264ZM1012.49 327.936C1012.49 326.752 1011.79 325.856 1009.55 325.856C1006.86 325.856 1005.87 326.688 1005.71 328.8H1002.44C1002.6 325.664 1004.62 323.2 1009.55 323.2C1013.16 323.2 1015.85 324.576 1015.85 328.928V336.704C1015.85 337.856 1016.11 338.464 1017.42 338.336V339.936C1016.65 340.224 1016.11 340.288 1015.47 340.288C1013.68 340.288 1012.84 339.648 1012.52 338.048H1012.46C1011.44 339.488 1009.58 340.48 1007.05 340.48C1003.72 340.48 1001.68 338.56 1001.68 335.808C1001.68 332.224 1004.33 331.104 1008.43 330.304C1010.96 329.824 1012.49 329.504 1012.49 327.936ZM1007.79 337.824C1010.57 337.824 1012.49 336.448 1012.49 333.792V331.328C1011.95 331.712 1010.64 332.096 1009.07 332.416C1006.28 333.024 1005.07 333.824 1005.07 335.488C1005.07 336.992 1005.96 337.824 1007.79 337.824ZM1026.56 326.4H1023.49V335.264C1023.49 337.12 1024.39 337.344 1026.56 337.216V339.968C1025.89 340.128 1025.15 340.224 1024.26 340.224C1021.57 340.224 1020.1 339.008 1020.1 335.552V326.4H1017.73V323.648H1020.1V318.496H1023.49V323.648H1026.56V326.4ZM1035.76 337.728C1038.54 337.728 1039.66 336 1039.95 335.008H1043.31C1042.48 338.112 1040.05 340.48 1035.86 340.48C1030.77 340.48 1027.66 336.96 1027.66 331.84C1027.66 326.528 1030.77 323.2 1035.7 323.2C1040.98 323.2 1043.57 326.88 1043.57 332.704H1031.02C1031.02 335.456 1032.78 337.728 1035.76 337.728ZM1035.7 325.856C1032.98 325.856 1031.02 327.68 1031.02 330.208H1040.21C1040.21 327.68 1038.42 325.856 1035.7 325.856ZM1056.88 323.648H1060.24V338.88C1060.24 343.584 1057.39 345.664 1052.75 345.664C1048.05 345.664 1045.46 343.2 1045.1 340.448H1048.5C1048.82 341.888 1049.97 342.976 1052.62 342.976C1055.44 342.976 1056.88 341.696 1056.88 338.752V336.768H1056.82C1055.95 337.984 1054.45 339.2 1051.86 339.2C1047.76 339.2 1044.69 336.352 1044.69 331.2C1044.69 326.016 1047.76 323.2 1051.86 323.2C1054.45 323.2 1055.95 324.416 1056.82 325.568H1056.88V323.648ZM1052.5 336.448C1055.22 336.448 1056.85 334.656 1056.85 331.2C1056.85 327.744 1055.22 325.952 1052.5 325.952C1049.55 325.952 1048.05 328.16 1048.05 331.2C1048.05 334.208 1049.55 336.448 1052.5 336.448ZM1064.99 320.896C1064.07 320.896 1063.11 320.256 1063.11 319.104C1063.11 317.952 1064.07 317.344 1064.99 317.344C1065.99 317.344 1066.91 317.952 1066.91 319.104C1066.91 320.256 1065.99 320.896 1064.99 320.896ZM1063.33 323.648H1066.69V340H1063.33V323.648ZM1077.02 337.728C1079.8 337.728 1080.92 336 1081.21 335.008H1084.57C1083.74 338.112 1081.31 340.48 1077.11 340.48C1072.03 340.48 1068.92 336.96 1068.92 331.84C1068.92 326.528 1072.03 323.2 1076.95 323.2C1082.23 323.2 1084.83 326.88 1084.83 332.704H1072.28C1072.28 335.456 1074.04 337.728 1077.02 337.728ZM1076.95 325.856C1074.23 325.856 1072.28 327.68 1072.28 330.208H1081.47C1081.47 327.68 1079.67 325.856 1076.95 325.856ZM1093.88 330.112C1096.89 330.816 1100.15 331.488 1100.15 335.392C1100.15 338.528 1097.47 340.48 1093.5 340.48C1088.22 340.48 1085.95 338.016 1085.79 334.56H1089.05C1089.21 336.32 1089.98 337.824 1093.43 337.824C1095.77 337.824 1096.76 336.672 1096.76 335.648C1096.76 333.6 1094.81 333.44 1092.41 332.864C1089.82 332.256 1086.3 331.744 1086.3 328.032C1086.3 325.344 1088.67 323.2 1092.76 323.2C1097.21 323.2 1099.32 325.6 1099.55 328.448H1096.28C1096.06 327.168 1095.42 325.856 1092.79 325.856C1090.78 325.856 1089.69 326.624 1089.69 327.776C1089.69 329.44 1091.51 329.568 1093.88 330.112Z" fill="#3F65FD"/>
<path d="M537.191 445.5H549.091V517H537.191V445.5ZM614.705 464.5C625.005 464.5 630.305 470.7 630.305 481.7V517H619.705V484.7C619.705 477.8 618.305 473.4 611.105 473.4C604.005 473.4 599.605 478.3 599.605 485.9V517H589.005V484.7C589.005 477.8 587.605 473.4 580.305 473.4C573.305 473.4 568.805 478.3 568.805 485.9V517H558.305V465.9H568.805V472.5H569.005C571.705 468.5 576.505 464.5 584.205 464.5C591.405 464.5 595.705 467.8 597.805 473.3H598.005C601.805 468.4 606.805 464.5 614.705 464.5ZM664.543 464.5C677.543 464.5 687.243 474.7 687.243 491.5C687.243 508.3 677.543 518.5 664.543 518.5C656.543 518.5 651.543 514.7 648.843 510.9H648.643V534.4H638.043V465.9H648.643V471.9H648.843C651.543 468.3 656.543 464.5 664.543 464.5ZM662.543 509.9C671.743 509.9 676.643 501.5 676.643 491.5C676.643 481.5 671.743 473.1 662.543 473.1C654.043 473.1 648.743 480.1 648.743 491.5C648.743 502.8 654.043 509.9 662.543 509.9ZM715.879 518.5C699.879 518.5 690.179 507.4 690.179 491.5C690.179 475.6 699.879 464.5 715.879 464.5C731.879 464.5 741.579 475.6 741.579 491.5C741.579 507.4 731.879 518.5 715.879 518.5ZM715.879 509.9C725.879 509.9 731.079 502 731.079 491.5C731.079 480.9 725.879 473.1 715.879 473.1C705.879 473.1 700.679 480.9 700.679 491.5C700.679 502 705.879 509.9 715.879 509.9ZM771.136 464.7C772.936 464.7 774.236 464.8 775.736 465V474.9H775.536C765.436 473.2 757.336 480 757.336 490.9V517H746.836V465.9H757.336V475.5H757.536C760.236 469.1 764.436 464.7 771.136 464.7ZM805.173 474.5H795.573V502.2C795.573 508 798.373 508.7 805.173 508.3V516.9C803.073 517.4 800.773 517.7 797.973 517.7C789.573 517.7 784.973 513.9 784.973 503.1V474.5H777.573V465.9H784.973V449.8H795.573V465.9H805.173V474.5ZM841.998 479.3C841.998 475.6 839.798 472.8 832.798 472.8C824.398 472.8 821.298 475.4 820.798 482H810.598C811.098 472.2 817.398 464.5 832.798 464.5C844.098 464.5 852.498 468.8 852.498 482.4V506.7C852.498 510.3 853.298 512.2 857.398 511.8V516.8C854.998 517.7 853.298 517.9 851.298 517.9C845.698 517.9 843.098 515.9 842.098 510.9H841.898C838.698 515.4 832.898 518.5 824.998 518.5C814.598 518.5 808.198 512.5 808.198 503.9C808.198 492.7 816.498 489.2 829.298 486.7C837.198 485.2 841.998 484.2 841.998 479.3ZM827.298 510.2C835.998 510.2 841.998 505.9 841.998 497.6V489.9C840.298 491.1 836.198 492.3 831.298 493.3C822.598 495.2 818.798 497.7 818.798 502.9C818.798 507.6 821.598 510.2 827.298 510.2ZM889.039 464.5C898.539 464.5 906.039 470 906.039 481.7V517H895.439V484.7C895.439 477.8 892.539 473.4 885.339 473.4C877.239 473.4 872.039 478.3 872.039 485.9V517H861.539V465.9H872.039V472.5H872.239C874.939 468.5 880.239 464.5 889.039 464.5ZM948.841 484.6C948.441 479.4 945.141 473.1 936.141 473.1C925.841 473.1 921.441 481.9 921.441 491.5C921.441 501.1 925.741 509.9 936.141 509.9C945.141 509.9 948.441 503.7 948.841 498H959.341C958.541 509.8 949.441 518.5 936.141 518.5C920.841 518.5 910.941 507.5 910.941 491.5C910.941 475.5 920.841 464.5 936.041 464.5C949.341 464.5 958.041 473 959.341 484.6H948.841ZM986.877 509.9C995.577 509.9 999.077 504.5 999.977 501.4H1010.48C1007.88 511.1 1000.28 518.5 987.177 518.5C971.277 518.5 961.577 507.5 961.577 491.5C961.577 474.9 971.277 464.5 986.677 464.5C1003.18 464.5 1011.28 476 1011.28 494.2H972.077C972.077 502.8 977.577 509.9 986.877 509.9ZM986.677 472.8C978.177 472.8 972.077 478.5 972.077 486.4H1000.78C1000.78 478.5 995.177 472.8 986.677 472.8ZM1056.52 518.5C1040.52 518.5 1030.82 507.4 1030.82 491.5C1030.82 475.6 1040.52 464.5 1056.52 464.5C1072.52 464.5 1082.22 475.6 1082.22 491.5C1082.22 507.4 1072.52 518.5 1056.52 518.5ZM1056.52 509.9C1066.52 509.9 1071.72 502 1071.72 491.5C1071.72 480.9 1066.52 473.1 1056.52 473.1C1046.52 473.1 1041.32 480.9 1041.32 491.5C1041.32 502 1046.52 509.9 1056.52 509.9ZM1110.6 454.1C1103.8 453.8 1101.2 454.5 1101.2 460.3V465.9H1110.6V474.5H1101.2V517H1090.6V474.5H1083.3V465.9H1090.6V459.4C1090.6 448.6 1095.2 444.8 1103.6 444.8C1106.2 444.8 1108.5 445.1 1110.6 445.5V454.1ZM1133.7 517V445.5H1161.5C1181.2 445.5 1193.3 458.3 1193.3 481.3C1193.3 504.3 1181.6 517 1161.8 517H1133.7ZM1145.6 455.6V506.9H1160.9C1176.9 506.9 1181.4 495 1181.4 481.3C1181.4 467.6 1176.9 455.6 1160.9 455.6H1145.6ZM1205.64 457.3C1202.74 457.3 1199.74 455.3 1199.74 451.7C1199.74 448.1 1202.74 446.2 1205.64 446.2C1208.74 446.2 1211.64 448.1 1211.64 451.7C1211.64 455.3 1208.74 457.3 1205.64 457.3ZM1200.44 465.9H1210.94V517H1200.44V465.9ZM1255.01 465.9H1265.51V513.5C1265.51 528.2 1256.61 534.7 1242.11 534.7C1227.41 534.7 1219.31 527 1218.21 518.4H1228.81C1229.81 522.9 1233.41 526.3 1241.71 526.3C1250.51 526.3 1255.01 522.3 1255.01 513.1V506.9H1254.81C1252.11 510.7 1247.41 514.5 1239.31 514.5C1226.51 514.5 1216.91 505.6 1216.91 489.5C1216.91 473.3 1226.51 464.5 1239.31 464.5C1247.41 464.5 1252.11 468.3 1254.81 471.9H1255.01V465.9ZM1241.31 505.9C1249.81 505.9 1254.91 500.3 1254.91 489.5C1254.91 478.7 1249.81 473.1 1241.31 473.1C1232.11 473.1 1227.41 480 1227.41 489.5C1227.41 498.9 1232.11 505.9 1241.31 505.9ZM1279.37 457.3C1276.47 457.3 1273.47 455.3 1273.47 451.7C1273.47 448.1 1276.47 446.2 1279.37 446.2C1282.47 446.2 1285.37 448.1 1285.37 451.7C1285.37 455.3 1282.47 457.3 1279.37 457.3ZM1274.17 465.9H1284.67V517H1274.17V465.9ZM1317.75 474.5H1308.15V502.2C1308.15 508 1310.95 508.7 1317.75 508.3V516.9C1315.65 517.4 1313.35 517.7 1310.55 517.7C1302.15 517.7 1297.55 513.9 1297.55 503.1V474.5H1290.15V465.9H1297.55V449.8H1308.15V465.9H1317.75V474.5ZM1354.57 479.3C1354.57 475.6 1352.37 472.8 1345.37 472.8C1336.97 472.8 1333.87 475.4 1333.37 482H1323.17C1323.67 472.2 1329.97 464.5 1345.37 464.5C1356.67 464.5 1365.07 468.8 1365.07 482.4V506.7C1365.07 510.3 1365.87 512.2 1369.97 511.8V516.8C1367.57 517.7 1365.87 517.9 1363.87 517.9C1358.27 517.9 1355.67 515.9 1354.67 510.9H1354.47C1351.27 515.4 1345.47 518.5 1337.57 518.5C1327.17 518.5 1320.77 512.5 1320.77 503.9C1320.77 492.7 1329.07 489.2 1341.87 486.7C1349.77 485.2 1354.57 484.2 1354.57 479.3ZM1339.87 510.2C1348.57 510.2 1354.57 505.9 1354.57 497.6V489.9C1352.87 491.1 1348.77 492.3 1343.87 493.3C1335.17 495.2 1331.37 497.7 1331.37 502.9C1331.37 507.6 1334.17 510.2 1339.87 510.2ZM1374.31 445.5H1384.91V517H1374.31V445.5ZM580.403 637V565.5H595.803L615.803 620.5H616.003L635.903 565.5H651.303V637H639.703V582.8H639.503L620.603 637H611.103L592.203 582.8H592.003V637H580.403ZM691.504 599.3C691.504 595.6 689.304 592.8 682.304 592.8C673.904 592.8 670.804 595.4 670.304 602H660.104C660.604 592.2 666.904 584.5 682.304 584.5C693.604 584.5 702.004 588.8 702.004 602.4V626.7C702.004 630.3 702.804 632.2 706.904 631.8V636.8C704.504 637.7 702.804 637.9 700.804 637.9C695.204 637.9 692.604 635.9 691.604 630.9H691.404C688.204 635.4 682.404 638.5 674.504 638.5C664.104 638.5 657.704 632.5 657.704 623.9C657.704 612.7 666.004 609.2 678.804 606.7C686.704 605.2 691.504 604.2 691.504 599.3ZM676.804 630.2C685.504 630.2 691.504 625.9 691.504 617.6V609.9C689.804 611.1 685.704 612.3 680.804 613.3C672.104 615.2 668.304 617.7 668.304 622.9C668.304 627.6 671.104 630.2 676.804 630.2ZM735.345 584.7C737.145 584.7 738.445 584.8 739.945 585V594.9H739.745C729.645 593.2 721.545 600 721.545 610.9V637H711.045V585.9H721.545V595.5H721.745C724.445 589.1 728.645 584.7 735.345 584.7ZM744.689 565.5H755.189V606.4L775.989 585.9H788.889L769.489 604.9L790.989 637H778.389L762.289 611.8L755.189 618.5V637H744.689V565.5ZM813.141 629.9C821.841 629.9 825.341 624.5 826.241 621.4H836.741C834.141 631.1 826.541 638.5 813.441 638.5C797.541 638.5 787.841 627.5 787.841 611.5C787.841 594.9 797.541 584.5 812.941 584.5C829.441 584.5 837.541 596 837.541 614.2H798.341C798.341 622.8 803.841 629.9 813.141 629.9ZM812.941 592.8C804.441 592.8 798.341 598.5 798.341 606.4H827.041C827.041 598.5 821.441 592.8 812.941 592.8ZM866.164 594.5H856.564V622.2C856.564 628 859.364 628.7 866.164 628.3V636.9C864.064 637.4 861.764 637.7 858.964 637.7C850.564 637.7 845.964 633.9 845.964 623.1V594.5H838.564V585.9H845.964V569.8H856.564V585.9H866.164V594.5ZM877.695 577.3C874.795 577.3 871.795 575.3 871.795 571.7C871.795 568.1 874.795 566.2 877.695 566.2C880.795 566.2 883.695 568.1 883.695 571.7C883.695 575.3 880.795 577.3 877.695 577.3ZM872.495 585.9H882.995V637H872.495V585.9ZM919.17 584.5C928.67 584.5 936.17 590 936.17 601.7V637H925.57V604.7C925.57 597.8 922.67 593.4 915.47 593.4C907.37 593.4 902.17 598.3 902.17 605.9V637H891.67V585.9H902.17V592.5H902.37C905.07 588.5 910.37 584.5 919.17 584.5ZM979.171 585.9H989.671V633.5C989.671 648.2 980.771 654.7 966.271 654.7C951.571 654.7 943.471 647 942.371 638.4H952.971C953.971 642.9 957.571 646.3 965.871 646.3C974.671 646.3 979.171 642.3 979.171 633.1V626.9H978.971C976.271 630.7 971.571 634.5 963.471 634.5C950.671 634.5 941.071 625.6 941.071 609.5C941.071 593.3 950.671 584.5 963.471 584.5C971.571 584.5 976.271 588.3 978.971 591.9H979.171V585.9ZM965.471 625.9C973.971 625.9 979.071 620.3 979.071 609.5C979.071 598.7 973.971 593.1 965.471 593.1C956.271 593.1 951.571 600 951.571 609.5C951.571 618.9 956.271 625.9 965.471 625.9ZM1020.57 577.3C1017.67 577.3 1014.67 575.3 1014.67 571.7C1014.67 568.1 1017.67 566.2 1020.57 566.2C1023.67 566.2 1026.57 568.1 1026.57 571.7C1026.57 575.3 1023.67 577.3 1020.57 577.3ZM1015.37 585.9H1025.87V637H1015.37V585.9ZM1062.05 584.5C1071.55 584.5 1079.05 590 1079.05 601.7V637H1068.45V604.7C1068.45 597.8 1065.55 593.4 1058.35 593.4C1050.25 593.4 1045.05 598.3 1045.05 605.9V637H1034.55V585.9H1045.05V592.5H1045.25C1047.95 588.5 1053.25 584.5 1062.05 584.5ZM1104.79 637V565.5H1132.59C1152.29 565.5 1164.39 578.3 1164.39 601.3C1164.39 624.3 1152.69 637 1132.89 637H1104.79ZM1116.69 575.6V626.9H1131.99C1147.99 626.9 1152.49 615 1152.49 601.3C1152.49 587.6 1147.99 575.6 1131.99 575.6H1116.69ZM1204.43 585.9H1214.93V637H1204.43V630.4H1204.23C1201.53 634.4 1196.23 638.4 1187.43 638.4C1177.93 638.4 1170.43 632.9 1170.43 621.2V585.9H1181.03V618.2C1181.03 625.1 1183.93 629.5 1191.13 629.5C1199.23 629.5 1204.43 624.6 1204.43 617V585.9ZM1249.24 584.5C1262.34 584.5 1272.04 594.7 1272.04 611.5C1272.04 628.3 1262.34 638.5 1249.24 638.5C1241.34 638.5 1236.34 634.6 1233.64 631.1H1233.44V637H1222.94V565.5H1233.44V592.1H1233.64C1236.34 588.2 1241.34 584.5 1249.24 584.5ZM1247.44 629.9C1256.64 629.9 1261.54 621.5 1261.54 611.5C1261.54 601.5 1256.64 593.1 1247.44 593.1C1238.84 593.1 1233.54 600.1 1233.54 611.5C1233.54 622.8 1238.84 629.9 1247.44 629.9ZM1308.28 599.3C1308.28 595.6 1306.08 592.8 1299.08 592.8C1290.68 592.8 1287.58 595.4 1287.08 602H1276.88C1277.38 592.2 1283.68 584.5 1299.08 584.5C1310.38 584.5 1318.78 588.8 1318.78 602.4V626.7C1318.78 630.3 1319.58 632.2 1323.68 631.8V636.8C1321.28 637.7 1319.58 637.9 1317.58 637.9C1311.98 637.9 1309.38 635.9 1308.38 630.9H1308.18C1304.98 635.4 1299.18 638.5 1291.28 638.5C1280.88 638.5 1274.48 632.5 1274.48 623.9C1274.48 612.7 1282.78 609.2 1295.58 606.7C1303.48 605.2 1308.28 604.2 1308.28 599.3ZM1293.58 630.2C1302.28 630.2 1308.28 625.9 1308.28 617.6V609.9C1306.58 611.1 1302.48 612.3 1297.58 613.3C1288.88 615.2 1285.08 617.7 1285.08 622.9C1285.08 627.6 1287.88 630.2 1293.58 630.2ZM1333.72 577.3C1330.82 577.3 1327.82 575.3 1327.82 571.7C1327.82 568.1 1330.82 566.2 1333.72 566.2C1336.82 566.2 1339.72 568.1 1339.72 571.7C1339.72 575.3 1336.82 577.3 1333.72 577.3ZM1328.52 585.9H1339.02V637H1328.52V585.9Z" fill="white"/>
<defs>
<linearGradient id="paint0_linear_267_272" x1="487.72" y1="1251" x2="487.721" y2="899" gradientUnits="userSpaceOnUse">
<stop stop-color="#E3E5E8"/>
<stop offset="1" stop-color="#E3E5E8" stop-opacity="0.4"/>
</linearGradient>
<linearGradient id="paint1_linear_267_272" x1="418.72" y1="1180" x2="418.72" y2="976" gradientUnits="userSpaceOnUse">
<stop stop-color="#E3E5E8"/>
<stop offset="1" stop-color="#E3E5E8" stop-opacity="0.4"/>
</linearGradient>
<linearGradient id="paint2_linear_267_272" x1="162.72" y1="1209" x2="162.72" y2="1005" gradientUnits="userSpaceOnUse">
<stop stop-color="#E3E5E8"/>
<stop offset="1" stop-color="#E3E5E8" stop-opacity="0.4"/>
</linearGradient>
<linearGradient id="paint3_linear_267_272" x1="1468" y1="1228" x2="1468" y2="873" gradientUnits="userSpaceOnUse">
<stop stop-color="#E3E5E8"/>
<stop offset="1" stop-color="#E3E5E8" stop-opacity="0.4"/>
</linearGradient>
<linearGradient id="paint4_linear_267_272" x1="1550" y1="807.72" x2="2063" y2="807.723" gradientUnits="userSpaceOnUse">
<stop stop-color="#E3E5E8"/>
<stop offset="1" stop-color="#E3E5E8" stop-opacity="0.4"/>
</linearGradient>
<linearGradient id="paint5_linear_267_272" x1="1140" y1="810" x2="1140" y2="1281" gradientUnits="userSpaceOnUse">
<stop stop-color="#E3E5E8"/>
<stop offset="1" stop-color="#E3E5E8" stop-opacity="0.4"/>
</linearGradient>
<linearGradient id="paint6_linear_267_272" x1="1948" y1="979.001" x2="418" y2="978.977" gradientUnits="userSpaceOnUse">
<stop stop-color="#E3E5E8"/>
<stop offset="1" stop-color="#E3E5E8" stop-opacity="0.4"/>
</linearGradient>
<linearGradient id="paint7_linear_267_272" x1="1140" y1="812.001" x2="1040" y2="812.001" gradientUnits="userSpaceOnUse">
<stop stop-color="#E3E5E8"/>
<stop offset="1" stop-color="#E3E5E8" stop-opacity="0.4"/>
</linearGradient>
<linearGradient id="paint8_linear_267_272" x1="417" y1="835.001" x2="-95" y2="834.998" gradientUnits="userSpaceOnUse">
<stop stop-color="#E3E5E8"/>
<stop offset="1" stop-color="#E3E5E8" stop-opacity="0.4"/>
</linearGradient>
<linearGradient id="paint9_linear_267_272" x1="799.889" y1="0.000864337" x2="4.51723e-08" y2="-0.0055944" gradientUnits="userSpaceOnUse">
<stop stop-color="#E3E5E8"/>
<stop offset="1" stop-color="#E3E5E8" stop-opacity="0.4"/>
</linearGradient>
<linearGradient id="paint10_linear_267_272" x1="959.72" y1="1008" x2="959.72" y2="884" gradientUnits="userSpaceOnUse">
<stop stop-color="#E3E5E8"/>
<stop offset="1" stop-color="#E3E5E8" stop-opacity="0.4"/>
</linearGradient>
<radialGradient id="paint11_radial_267_272" cx="0" cy="0" r="1" gradientUnits="userSpaceOnUse" gradientTransform="translate(960 772) rotate(90) scale(34.7143 41.6571)">
<stop stop-color="#BEC9E7" stop-opacity="0.61"/>
<stop offset="1" stop-color="#2962FF" stop-opacity="0"/>
</radialGradient>
<linearGradient id="paint12_linear_267_272" x1="948.4" y1="784" x2="963.421" y2="839.067" gradientUnits="userSpaceOnUse">
<stop stop-color="#0B3CFF" stop-opacity="0.16"/>
<stop offset="1" stop-color="#0B8AFF" stop-opacity="0"/>
</linearGradient>
<radialGradient id="paint13_radial_267_272" cx="0" cy="0" r="1" gradientUnits="userSpaceOnUse" gradientTransform="translate(1469 769) rotate(90) scale(34.7143 41.6571)">
<stop stop-color="#BEC9E7" stop-opacity="0.61"/>
<stop offset="1" stop-color="#2962FF" stop-opacity="0"/>
</radialGradient>
<linearGradient id="paint14_linear_267_272" x1="1457.4" y1="781" x2="1472.42" y2="836.067" gradientUnits="userSpaceOnUse">
<stop stop-color="#0B3CFF" stop-opacity="0.16"/>
<stop offset="1" stop-color="#0B8AFF" stop-opacity="0"/>
</linearGradient>
<radialGradient id="paint15_radial_267_272" cx="0" cy="0" r="1" gradientUnits="userSpaceOnUse" gradientTransform="translate(489 795) rotate(90) scale(34.7143 41.6571)">
<stop stop-color="#BEC9E7" stop-opacity="0.61"/>
<stop offset="1" stop-color="#2962FF" stop-opacity="0"/>
</radialGradient>
<linearGradient id="paint16_linear_267_272" x1="477.4" y1="807" x2="492.421" y2="862.067" gradientUnits="userSpaceOnUse">
<stop stop-color="#0B3CFF" stop-opacity="0.16"/>
<stop offset="1" stop-color="#0B8AFF" stop-opacity="0"/>
</linearGradient>
<linearGradient id="paint17_linear_267_272" x1="1433.28" y1="-171" x2="1433.28" y2="181" gradientUnits="userSpaceOnUse">
<stop stop-color="#E3E5E8"/>
<stop offset="1" stop-color="#E3E5E8" stop-opacity="0.4"/>
</linearGradient>
<linearGradient id="paint18_linear_267_272" x1="1502.28" y1="-100" x2="1502.28" y2="104" gradientUnits="userSpaceOnUse">
<stop stop-color="#E3E5E8"/>
<stop offset="1" stop-color="#E3E5E8" stop-opacity="0.4"/>
</linearGradient>
<linearGradient id="paint19_linear_267_272" x1="1758.28" y1="-129" x2="1758.28" y2="75" gradientUnits="userSpaceOnUse">
<stop stop-color="#E3E5E8"/>
<stop offset="1" stop-color="#E3E5E8" stop-opacity="0.4"/>
</linearGradient>
<linearGradient id="paint20_linear_267_272" x1="450.72" y1="-148" x2="450.721" y2="134" gradientUnits="userSpaceOnUse">
<stop stop-color="#E3E5E8"/>
<stop offset="1" stop-color="#E3E5E8" stop-opacity="0.4"/>
</linearGradient>
<linearGradient id="paint21_linear_267_272" x1="78" y1="272.28" x2="-142" y2="272.28" gradientUnits="userSpaceOnUse">
<stop stop-color="#E3E5E8"/>
<stop offset="1" stop-color="#E3E5E8" stop-opacity="0.4"/>
</linearGradient>
<linearGradient id="paint22_linear_267_272" x1="782.28" y1="-201" x2="782.279" y2="196" gradientUnits="userSpaceOnUse">
<stop stop-color="#E3E5E8"/>
<stop offset="1" stop-color="#E3E5E8" stop-opacity="0.4"/>
</linearGradient>
<linearGradient id="paint23_linear_267_272" x1="-27" y1="100.999" x2="1503" y2="101.023" gradientUnits="userSpaceOnUse">
<stop stop-color="#E3E5E8"/>
<stop offset="1" stop-color="#E3E5E8" stop-opacity="0.4"/>
</linearGradient>
<linearGradient id="paint24_linear_267_272" x1="1825" y1="244.999" x2="2016" y2="245" gradientUnits="userSpaceOnUse">
<stop stop-color="#E3E5E8"/>
<stop offset="1" stop-color="#E3E5E8" stop-opacity="0.4"/>
</linearGradient>
<linearGradient id="paint25_linear_267_272" x1="799.889" y1="0.000864337" x2="4.51723e-08" y2="-0.0055944" gradientUnits="userSpaceOnUse">
<stop stop-color="#E3E5E8"/>
<stop offset="1" stop-color="#E3E5E8" stop-opacity="0.4"/>
</linearGradient>
<linearGradient id="paint26_linear_267_272" x1="961.28" y1="72" x2="961.28" y2="196" gradientUnits="userSpaceOnUse">
<stop stop-color="#E3E5E8"/>
<stop offset="1" stop-color="#E3E5E8" stop-opacity="0.4"/>
</linearGradient>
<radialGradient id="paint27_radial_267_272" cx="0" cy="0" r="1" gradientUnits="userSpaceOnUse" gradientTransform="translate(959.5 284) rotate(90) scale(38.1857 150.573)">
<stop stop-color="#BEC9E7" stop-opacity="0.61"/>
<stop offset="1" stop-color="#2962FF" stop-opacity="0"/>
</radialGradient>
<linearGradient id="paint28_linear_267_272" x1="902.406" y1="296" x2="906.672" y2="363.346" gradientUnits="userSpaceOnUse">
<stop stop-color="#0B3CFF" stop-opacity="0.16"/>
<stop offset="1" stop-color="#0B8AFF" stop-opacity="0"/>
</linearGradient>
<clipPath id="clip0_267_272">
<rect width="1919" height="526" fill="white" transform="translate(1 554)"/>
</clipPath>
<clipPath id="clip1_267_272">
<rect width="1919" height="526" fill="white" transform="matrix(-1 0 0 -1 1920 526)"/>
</clipPath>
</defs>
</svg>
