<svg fill="none" height="24" viewBox="0 0 24 24" width="24" xmlns="http://www.w3.org/2000/svg"><path d="m6 3h-3v3m15-3h3v3m-15 15h-3v-3m4 0v-1c0-1.3261.52678-2.5979 1.46447-3.5355.93768-.9377 2.20943-1.4645 3.53553-1.4645s2.5979.5268 3.5355 1.4645c.9377.9376 1.4645 2.2094 1.4645 3.5355v1m1 3h3v-3m-9-6c.7956 0 1.5587-.3161 2.1213-.8787s.8787-1.32565.8787-2.1213-.3161-1.55871-.8787-2.12132-1.3257-.87868-2.1213-.87868-1.5587.31607-2.12132.87868c-.56261.56261-.87868 1.32567-.87868 2.12132s.31607 1.5587.87868 2.1213c.56262.5626 1.32572.8787 2.12132.8787z" stroke="#090a0b" stroke-linecap="square" stroke-width="1.5"/></svg>