<svg fill="none" height="56" viewBox="0 0 256 56" width="256" xmlns="http://www.w3.org/2000/svg"><path clip-rule="evenodd" d="m48.1755 41.574c2.5352 1.7805 5.2189 3.3621 8.0327 4.717-9.185 4.2002-17.5533 4.6075-20.2795 4.6181l-.2763-.0003c-.422-.0025-.6493-.0142-.6524-.0142 4.8846-2.3957 9.3272-5.5552 13.1755-9.3206zm10.0423-13.8184c.9026.6245 1.8312 1.2137 2.7877 1.7638-3.4099 6.4956-7.1523 10.4153-7.1523 10.4153 3.5752-2.9439 6.4391-6.3339 8.6827-9.5808 3.2149 1.6652 6.6825 2.9086 10.332 3.6502-3.6217 4.0349-7.8748 7.4881-12.6053 10.1997-3.3914-1.4199-6.6044-3.1818-9.5984-5.2411 2.9865-3.3658 5.5347-7.1313 7.5536-11.2071zm38.8012-3.9445c2.5503 0 4.475 1.0011 5.924 2.2791l-2.118 3.4289c-.8645-.6381-1.8816-1.4046-3.5675-1.4046-2.0324 0-3.2414 1.4687-3.2433 3.1502 0 1.6814 1.2109 3.1519 3.2433 3.1519 1.6859 0 2.703-.7664 3.5675-1.4064l2.118 3.4289c-1.449 1.278-3.3737 2.2791-5.924 2.2791-4.5175 0-7.9116-3.2143-7.9116-7.4535 0-4.2375 3.3941-7.4536 7.9116-7.4536zm12.341 0v5.2603h5.259v-5.2603h4.82v14.9071h-4.82v-5.4812h-5.259v5.4812h-4.821v-14.9071zm17.529 0v14.9071h-4.789v-14.9071zm7.502 0v10.7415h6.866v4.1656h-11.707v-14.9071zm13.252 0v14.9071h-4.79v-14.9071zm15.238 0c2.982 0 5.515 1.7987 5.515 5.6775 0 3.5087-2.533 5.5906-5.515 5.5906h-3.069v3.639h-4.719v-14.9071zm11.901 0v14.9071h-4.789v-14.9071zm10.45 0c2.983 0 5.514 1.7987 5.514 5.6775 0 3.5087-2.531 5.5906-5.514 5.5906h-3.069v3.639h-4.72v-14.9071zm19.35 0v4.1656h-7.666v1.3156h6.076v3.8353h-6.076v1.425h7.666v4.1656h-12.24v-14.9071zm10.529 0c2.963 0 5.181 1.7119 5.181 5.0867 0 1.8722-1.025 3.3729-2.625 4.1412l-.148.0678 3.559 4.5148v1.0966h-4.69l-3.687-5.1282h-.768v5.1282h-4.691v-14.9071zm-152.3336-10.1266c7.104.0279 13.7122 2.1559 19.2394 5.7987-1.7161 4.1446-3.9634 8.0104-6.6564 11.5175-3.8947-.5892-7.587-1.7935-10.9747-3.5108 3.3639-5.562 4.8134-10.0973 4.8505-10.2142l.0007-.0023-3.5306-.8382c-.7262 3.6799-1.8926 7.0513-3.2168 10.0232-.9788-.5725-1.9297-1.1877-2.8472-1.8437 1.4319-3.4681 2.4943-7.1257 3.1351-10.9302zm99.3536 14.2922h-2.317v2.9369h2.317c.815 0 1.394-.6361 1.396-1.4685 0-.8116-.581-1.4684-1.396-1.4684zm22.351 0h-2.319v2.9369h2.319c.815 0 1.394-.6361 1.394-1.4685 0-.8116-.579-1.4684-1.394-1.4684zm29.839 0h-2.388v2.2801h2.388c.81 0 1.152-.5927 1.15-1.1401 0-.5266-.34-1.14-1.15-1.14zm-136.7969-27.9767s2.8583 5.82843-.3956 11.9654c0 0 2.2365 1.4616 2.6782 2.4053l.0334.0796-.338 1.0389c-3.2269-1.6297-6.7217-2.8054-10.4008-3.4453l-.481-.0804.2768-1.0687s2.3661-.394 4.1417 0c0 0 2.543-1.92396 2.6581-8.28506l.0034-.25681z" fill="#fff" fill-rule="evenodd"/></svg>