<svg fill="none" height="56" viewBox="0 0 107 56" width="107" xmlns="http://www.w3.org/2000/svg"><path d="m105.703 46.6896c0 1.1363-.927 2.0629-2.063 2.0629h-100.78189c-1.1365 0-2.063188-.9266-2.063188-2.0629v-38.98604c0-1.13636.926688-2.06294 2.063188-2.06294h100.78189c1.136 0 2.063.92658 2.063 2.06294z" fill="#fff"/><g fill="#0e031e"><path d="m48.0371 15.8496h1.189v9.3007h-1.1015v-7.1329l-2.0457 4.6854h-1.1016l-2.0457-4.6854v7.1329h-1.1015v-9.3007h1.1715l2.5177 5.7168z"/><path d="m56.2733 25.1507h-.9967l-.0699-.5769c-.3847.3147-1.3463.7168-2.2031.7168-1.4862 0-2.0632-.8741-2.0632-2.1678 0-1.3637.6819-2.0805 2.1506-2.0805.8743 0 1.6436.2273 2.0108.3847v-1.0665c0-.8916-.2798-1.2762-1.3114-1.2762-.6119 0-1.2239.0874-1.8533.2622l-.1749-.9615c.5945-.1923 1.4338-.3147 2.1506-.3147 1.6086 0 2.3605.6993 2.3605 2.2203zm-1.1715-2.9196c-.3847-.1223-1.154-.2972-1.8534-.2972-.9442 0-1.1715.4546-1.1715 1.2238 0 .8567.2798 1.2588 1.0841 1.2588.8392 0 1.5386-.3147 1.9233-.5944v-1.591z"/><path d="m61.571 19.207c-.7868.1573-1.5736.4195-2.1681.7342v5.2273h-1.1715v-6.9406h.9617l.1224.8042c.4196-.4195 1.1889-.8216 2.0982-.9091z"/><path d="m62.7949 25.1512v-9.8602h1.1715v6.1364l2.4129-3.1993h1.3813l-2.6577 3.4266 2.7626 3.4965h-1.3813l-2.5178-3.2868v3.2868z"/><path d="m69.7359 22.2138c.07 1.4685.4371 2.1678 1.8534 2.1678.7344 0 1.5037-.1748 2.0457-.3846l.1749.8916c-.577.2447-1.4862.4196-2.2381.4196-2.5003 0-3.0073-1.7133-3.0073-3.6539 0-1.993.6644-3.5664 2.78-3.5664 1.8884 0 2.6752 1.3287 2.6752 2.9895v1.1364zm0-.9266h3.1473v-.2448c0-1.2937-.4022-2.0629-1.5562-2.0629-1.2938-.0175-1.5736.9266-1.5911 2.3077z"/><path d="m79.2483 25.0812c-.2972.1049-.9791.2098-1.4337.2098-1.189 0-1.696-.6643-1.696-1.7308v-4.3881h-1.2065v-.944h1.2065v-1.6959l1.1714-.1748v1.8532h1.9758l-.1049.944h-1.8709v4.3357c0 .6468.1574.8392.8043.8392.2798 0 .6819-.0525 1.0491-.1399z"/><path d="m81.2585 15.4121c.4546 0 .7868.3322.7868.7867 0 .4546-.3147.7867-.7868.7867-.4546 0-.7868-.3321-.7868-.7867.0175-.4545.3322-.7867.7868-.7867zm-.577 2.8147h1.1715v6.9406h-1.1715z"/><path d="m88.0427 25.1507v-5.0524c0-.6294-.2623-.9441-.9442-.9441-.7344 0-1.4512.2448-1.9583.4546v5.5419h-1.1714v-6.9405h.9441l.1049.6119c.5595-.3847 1.4338-.7518 2.3779-.7518 1.189 0 1.8359.6643 1.8359 1.9056v5.1748z"/><path d="m94.442 18.2278h2.2031v.8042l-.9267.1748c.1749.3147.2623.7342.2623 1.1713 0 1.4336-.9966 2.2902-2.5877 2.2902-.2623 0-.5246-.0175-.7344-.0699-.1574.1398-.3147.3321-.3147.6468 0 .3322.1748.4895.6294.4895h1.5737c1.2239 0 1.9757.7693 1.9757 1.8532 0 1.486-1.3113 2.2203-3.1822 2.2203-1.8184 0-2.7975-.5595-2.7975-1.8707 0-.8391.5595-1.2237 1.1015-1.486-.2972-.2098-.4546-.5244-.4546-.9265 0-.6294.4371-.9441.8043-1.1539-.7518-.3671-1.189-1.0664-1.189-1.993 0-1.486.8568-2.2902 2.5703-2.2902.4021 0 .7518.0524 1.0665.1399zm-2.203 6.4685c-.3147.2622-.5945.5944-.5945 1.1538 0 .8042.6819 1.1014 1.731 1.1014 1.2239 0 1.9758-.3147 1.9758-1.2412 0-.5245-.2973-.9616-1.0491-.9616h-1.5037c-.2098 0-.4721-.0174-.5595-.0524zm1.154-5.7692c-.9967 0-1.4687.4021-1.4687 1.451 0 1.049.542 1.4511 1.4687 1.4511s1.4862-.4546 1.4862-1.4511c0-1.014-.5246-1.451-1.4862-1.451z"/><path d="m43.0365 35.675v3.4615h-1.2064v-9.3181h2.78c2.1507 0 2.9375 1.2237 2.9375 2.9195s-.7868 2.9196-2.9375 2.9196h-1.5736zm0-.979h1.5387c1.3987 0 1.7834-.8042 1.7834-1.9406 0-1.1538-.3847-1.9405-1.7834-1.9405h-1.5387z"/><path d="m53.4754 39.1371h-.9966l-.07-.577c-.3846.3147-1.3463.7168-2.203.7168-1.4862 0-2.0632-.8741-2.0632-2.1678 0-1.3636.6819-2.0804 2.1506-2.0804.8567 0 1.6435.2272 2.0107.3846v-1.0665c0-.8916-.2797-1.2762-1.3113-1.2762-.612 0-1.2239.0874-1.8534.2623l-.1748-.9616c.5944-.1923 1.4337-.3147 2.1506-.3147 1.6086 0 2.3604.6993 2.3604 2.2203zm-1.1715-2.9196c-.3846-.1224-1.154-.2972-1.8533-.2972-.9442 0-1.1715.4545-1.1715 1.2237 0 .8567.2797 1.2588 1.084 1.2588.8393 0 1.5387-.3147 1.9233-.5944v-1.5909z"/><path d="m58.7732 33.1913c-.7868.1574-1.5737.4196-2.1681.7343v5.2273h-1.1715v-6.9406h.9617l.1223.8042c.4197-.4196 1.189-.8217 2.0982-.9091z"/><path d="m63.5648 39.0656c-.2972.1049-.9791.2098-1.4337.2098-1.189 0-1.6961-.6644-1.6961-1.7308v-4.3881h-1.1889v-.9441h1.2064v-1.6958l1.1715-.1748v1.8531h1.9758l-.1049.9441h-1.8709v4.3357c0 .6468.1574.8391.8043.8391.2798 0 .6819-.0524 1.0491-.1398z"/><path d="m69.0895 39.1371v-5.0525c0-.6294-.2622-.944-.9441-.944-.7344 0-1.4512.2447-1.9583.4545v5.542h-1.1715v-6.9406h.9442l.1049.6119c.5595-.3846 1.4337-.7518 2.3779-.7518 1.189 0 1.8359.6644 1.8359 1.9056v5.1749z"/><path d="m73.0055 36.2001c.0699 1.4685.4371 2.1678 1.8533 2.1678.7344 0 1.5037-.1748 2.0457-.3846l.1749.8916c-.577.2448-1.4862.4196-2.2381.4196-2.5003 0-3.0073-1.7133-3.0073-3.6538 0-1.9931.6644-3.5665 2.78-3.5665 1.8884 0 2.6752 1.3287 2.6752 2.9895v1.1364zm0-.9266h3.1472v-.2447c0-1.2937-.4022-2.063-1.5561-2.063-1.3114-.0175-1.5911.9266-1.5911 2.3077z"/><path d="m82.2732 33.1913c-.7868.1574-1.5737.4196-2.1681.7343v5.2273h-1.1715v-6.9406h.9617l.1223.8042c.4197-.4196 1.189-.8217 2.0982-.9091z"/><path d="m33.7709 14.3809h-22.8175c-.7868 0-1.41629.6293-1.41629 1.416v22.8147c0 .7867.62949 1.4161 1.41629 1.4161h12.2742v-9.9301h-3.3396v-3.8636h3.3396v-2.8496c0-3.3042 2.0282-5.1224 4.9831-5.1224 1.4163 0 2.6402.1049 2.9899.1573v3.4616h-2.0457c-1.6086 0-1.9233.7692-1.9233 1.8881v2.465h3.8291l-.507 3.8636h-3.3396v9.9301h6.5393c.7868 0 1.4162-.6294 1.4162-1.4161v-22.8147c0-.7867-.6294-1.416-1.3987-1.416z"/></g></svg>