<svg fill="none" height="70" viewBox="0 0 282 70" width="282" xmlns="http://www.w3.org/2000/svg"><g clip-rule="evenodd" fill="#fff" fill-rule="evenodd"><path d="m75.3975 37.5863c-2.2659 4.0081-4.9831 6.2618-10.8597 6.9122-6.4753.7237-11.8269-3.4859-13.9408-6.6283 2.6958.9488 5.5678 1.2992 8.4142 1.0261 5.278-.4809 8.2899-2.556 10.4499-5.9549.3269-.5085 1.2112-2.1025-.3362-2.6385-1.4185-.4901-2.7219-.5039-3.7351.9757-1.6442 2.414-3.5693 3.3393-7.599 3.7791-5.37.5726-11.8177-2.9637-12.5638-2.2262-1.3356 1.3192 2.9982 15.8217 18.97 15.6431 5.7522-.0642 9.7913-2.0155 13.5724-6.8711.9211-1.1773.6356-2.6064-.3731-3.9485-.6217-.8292-1.5059-.8887-1.9803-.0505"/><path d="m79.597 28.8876c2.1415-5.5518.0736-9.0469-.7185-8.882-.6447.142-1.8422 3.7928-3.5463 5.9183-5.7292-2.611-9.3261-.2382-9.2432 1.0215.0692 1.0489 4.7852.2931 9.211 4.1226 4.7022 4.0539 4.8404 8.4468 6.1852 8.4285 1.0776 0 3.3666-4.2738-1.8882-10.6089z"/><path d="m94.1433 29.3962h-5.7753v-3.4081h15.571v3.4081h-5.7705v15.4736h-4.0252z"/><path d="m105.738 29.3183h3.864v-3.3302h-3.864zm.055 15.5745h3.758v-13.8293h-3.758z"/><path d="m125.137 39.8676c-.073 1.4876-.694 2.8964-1.745 3.9577-1.013.9773-2.53 1.4658-4.55 1.4658-1.048.0179-2.088-.1688-3.063-.5496-.813-.3161-1.537-.8239-2.109-1.4796-.565-.6694-.981-1.4499-1.221-2.2904-.276-.9713-.411-1.9771-.4-2.9865-.015-1.0202.141-2.0355.46-3.005.286-.8598.747-1.6519 1.354-2.3271.605-.6514 1.347-1.1615 2.174-1.4932 1.751-.6378 3.662-.694 5.448-.1604.654.2098 1.26.5461 1.783.9895.482.4196.867.9385 1.128 1.5207.277.6168.458 1.2716.539 1.9423l-3.786.5039c-.056-.6113-.268-1.198-.617-1.7041-.205-.2337-.463-.4149-.754-.5281-.29-.1132-.603-.1552-.913-.1224-.499-.0186-.993.1054-1.423.3574-.377.2414-.686.574-.898.9665-.229.4298-.384.8941-.461 1.3743-.09.5374-.134 1.0813-.134 1.626-.001.5586.044 1.1162.134 1.6675.081.4878.236.9606.461 1.4016.206.3928.512.7246.888.962.43.2532.924.3773 1.424.3573.318.0203.637-.0254.937-.1343.299-.1087.573-.2783.803-.4979.449-.5084.706-1.156.728-1.8323z"/><path d="m127.431 25.9881h3.68v9.8898l5.393-4.8144h4.352l-5.103 4.7594 5.503 9.0469h-4.052l-4.136-6.9856-1.957 1.7453v5.2403h-3.68z"/><path d="m154.568 40.559c-.152 1.3738-.83 2.6366-1.893 3.5273-1.007.8031-2.477 1.2046-4.412 1.2046-2.33 0-4.08-.6351-5.25-1.9055s-1.756-3.0676-1.759-5.3915c-.018-1.0588.156-2.1122.511-3.1103.316-.8535.805-1.6331 1.437-2.2903.616-.6427 1.365-1.1431 2.197-1.4659.911-.3339 1.875-.4985 2.846-.4856 2.149 0 3.764.6108 4.845 1.8323 1.082 1.2185 1.626 2.8538 1.626 4.9197v1.4796h-9.704c-.022.9363.276 1.8524.847 2.5972.309.3217.685.5709 1.103.7294.417.1585.865.2223 1.311.1867 1.487 0 2.362-.6184 2.634-1.8321zm-3.463-4.1226c.055-.8058-.199-1.6025-.709-2.2308-.293-.2842-.644-.5019-1.03-.6379s-.796-.1872-1.204-.15c-.451-.0101-.899.071-1.317.2382-.359.1484-.683.3682-.953.6459-.261.2766-.465.5999-.604.9529-.145.3764-.226.7743-.239 1.1771z"/><path d="m158.035 33.9446h-2.202v-2.8813h2.202v-3.6645h3.758v3.6645h3.224v2.8813h-3.224v6.3763c0 .7192.152 1.2093.46 1.4659.333.2668.752.4036 1.179.3848.256-.0002.511-.014.765-.0413.259-.0253.515-.0745.764-.1466l.539 2.7485c-.494.1545-1.001.2648-1.515.3297-.469.0612-.941.0917-1.414.0917-1.538 0-2.676-.3619-3.422-1.081-.746-.7193-1.114-1.9423-1.114-3.6646z"/><path d="m171.725 38.704c.092 1.1635.46 2.0108 1.142 2.5422.681.5314 1.663.7925 2.966.7925.534.0105 1.068-.0558 1.584-.1969.381-.1093.737-.2896 1.05-.5314.255-.2068.453-.4748.575-.7788.118-.3134.178-.6456.175-.9802-.011-.5119-.213-1.0014-.567-1.3742-.37-.4307-1.059-.736-2.067-.9162l-2.497-.4581c-.886-.1486-1.757-.3785-2.601-.6871-.693-.2498-1.333-.6224-1.893-1.0993-.515-.4619-.914-1.0378-1.165-1.6812-.284-.7425-.42-1.5328-.401-2.327-.016-.8251.173-1.6415.548-2.3773.367-.6855.893-1.2743 1.534-1.7178.714-.485 1.509-.8387 2.348-1.0444.984-.247 1.994-.3671 3.009-.3573 1.178-.0383 2.357.1165 3.485.4581.831.2587 1.6.686 2.257 1.2551.558.4983.995 1.1173 1.276 1.8094.276.6878.462 1.4084.553 2.1437l-3.786.4581c-.113-.8486-.52-1.6313-1.151-2.2125-.567-.458-1.42-.6871-2.566-.6871-.564-.011-1.127.0459-1.676.1695-.377.0913-.736.2462-1.06.4581-.247.1558-.445.3803-.566.6459-.106.2415-.161.5017-.161.7649-.023.2945.02.5904.125.8666.105.2763.27.5262.483.7321.606.4388 1.311.7206 2.054.8199l2.634.504c2.072.403 3.594 1.0596 4.564 1.9696.97.9101 1.453 2.2186 1.447 3.9256.011.7874-.145 1.5684-.461 2.2905-.317.7062-.789 1.3326-1.382 1.8323-.679.5526-1.462.9652-2.303 1.2138-1.061.3178-2.166.4722-3.275.4581-2.615 0-4.611-.5497-5.987-1.649-1.375-1.0995-2.122-2.7623-2.242-4.9885z"/><path d="m185.53 31.0633h3.648v1.8324c.483-.7133 1.141-1.2932 1.91-1.6857.77-.3924 1.627-.5847 2.491-.5589 1.954 0 3.413.652 4.381 1.956.967 1.3039 1.449 3.0934 1.445 5.3685.013 1.0106-.127 2.0171-.414 2.9867-.246.842-.657 1.6278-1.206 2.3132-.521.627-1.177 1.1283-1.921 1.4658-.802.3743-1.679.5623-2.566.5497-.71-.0025-1.414-.1281-2.081-.3711-.771-.3083-1.443-.8198-1.943-1.4794v6.5595h-3.758zm3.73 7.0085c-.02.7244.056 1.4483.226 2.153.126.494.382.9461.741 1.31.306.2922.68.5059 1.086.623.365.0969.739.1461 1.115.1466.406-.0002.807-.0812 1.18-.2382.384-.1663.723-.4262.98-.7558.305-.3977.528-.8504.659-1.3331.172-.6466.253-1.3143.24-1.9833.015-.6864-.061-1.3719-.226-2.0384-.123-.4818-.337-.9358-.631-1.3376-.247-.325-.576-.5793-.953-.7375-.371-.1513-.769-.2275-1.17-.2245-.41-.0092-.819.0528-1.207.1832-.362.1375-.698.3341-.995.5818-.367.3499-.639.7863-.792 1.2689-.187.6364-.272 1.2979-.253 1.9605z"/><path d="m201.852 29.3183h3.883v-3.3302h-3.865zm.05 15.5745h3.763v-13.8293h-3.763z"/><path d="m221.233 39.8675c-.067 1.4863-.684 2.8955-1.731 3.9577-1.014.9773-2.532 1.4658-4.556 1.4658-1.046.0179-2.084-.1689-3.058-.5496-.813-.3161-1.537-.8238-2.108-1.4796-.565-.6694-.982-1.4499-1.221-2.2903-.277-.9713-.412-1.9772-.401-2.9866-.015-1.0202.141-2.0355.461-3.005.285-.8598.746-1.6519 1.354-2.327.614-.6521 1.368-1.1592 2.206-1.4841 1.74-.6337 3.639-.6931 5.415-.1695.654.2087 1.261.5451 1.783.9894.483.4196.868.9385 1.128 1.5208.275.6176.456 1.272.54 1.9422l-3.8.5039c-.056-.6112-.269-1.198-.617-1.704-.206-.2337-.464-.4149-.754-.5282-.291-.1132-.604-.1552-.914-.1223-.499-.0186-.992.1053-1.423.3573-.384.2384-.703.5713-.921.9666-.23.4289-.386.8935-.461 1.3741-.088.5375-.133 1.0814-.133 1.6262-.002.5585.043 1.1162.133 1.6674.079.4883.235.9613.461 1.4016.206.3928.513.7247.889.962.428.2526.921.3767 1.419.3573.318.021.639-.0244.939-.1332.301-.1089.575-.2787.806-.4989.448-.5084.706-1.1561.728-1.8323z"/><path d="m235.838 40.5594c-.156 1.3725-.833 2.6337-1.893 3.5272-1.012.8031-2.485 1.2046-4.416 1.2046-2.325 0-4.075-.6351-5.251-1.9055s-1.761-3.0675-1.759-5.3915c-.017-1.0588.156-2.1121.512-3.1103.316-.8535.804-1.6331 1.437-2.2903.623-.6366 1.379-1.1292 2.214-1.443.912-.3331 1.877-.4977 2.847-.4855 2.149 0 3.765.6107 4.844 1.8322 1.083 1.2186 1.627 2.8538 1.627 4.9198v1.4794h-9.722c-.021.9412.283 1.8609.86 2.6066.31.3216.688.5709 1.106.7293.418.1585.866.2224 1.312.1867 1.483 0 2.363-.6183 2.63-1.8322zm-3.463-4.1227c.053-.8064-.201-1.6032-.714-2.2308-.29-.2826-.638-.4997-1.02-.6364-.383-.1367-.79-.1899-1.195-.1561-.449-.0101-.896.071-1.313.2382-.36.1463-.684.3663-.953.6459-.261.2766-.465.6-.604.9528-.148.3757-.231.7739-.243 1.1773z"/></g></svg>