<svg fill="none" height="56" viewBox="0 0 256 56" width="256" xmlns="http://www.w3.org/2000/svg"><g fill="#fff"><path d="m148.009 28.6767c2.717 1.0828 3.866 2.6968 3.722 5.1685-.149 2.5438-1.595 4.2051-4.309 4.9277-.468.1238-.949.2882-1.423.2904-3.922.0225-7.842.0135-11.834.0135v-20.161c.315-.0337.598-.0922.884-.0945 2.995-.0068 5.993-.09 8.982.036 1.428.0608 2.921.3197 4.241.8442 2.058.8194 2.906 2.5933 2.856 4.7814-.045 2.0012-1.066 3.2888-2.928 3.9484-.056.0203-.09.1081-.195.2431zm-9.099 6.4292c2.022 0 3.929.0765 5.825-.027 1.282-.0698 1.943-.8847 1.97-2.0328.027-1.1616-.592-2.071-1.838-2.1566-1.958-.135-3.933-.036-5.957-.036v4.2546zm.016-12.3384v4.2321c1.684 0 3.324.0608 4.954-.018 1.367-.0653 2.197-.9365 2.2-2.0845 0-1.1954-.734-2.0148-2.164-2.1048-1.633-.1036-3.276-.0248-4.992-.0248z"/><path d="m78.0412 39.1197h-4.8058v-20.3028h1.2571c2.7728 0 5.5457-.0225 8.3163.0113.9692.0112 1.9497.081 2.8987.2611 2.9843.5673 4.7721 2.4357 5.0915 5.2158.3283 2.8725-.8096 4.7319-3.9108 6.1366 2.8785.8959 3.1574 3.174 3.3216 5.5692.0697 1.0288.3733 2.0418.5892 3.1561-1.3808 0-2.8269.0338-4.2706-.0338-.2429-.0112-.614-.4232-.6747-.7046-.2451-1.1323-.4228-2.2826-.5667-3.4329-.2631-2.0958-1.003-2.8297-3.1192-2.8972-1.3403-.0428-2.6829-.009-4.1266-.009v7.0257zm.0202-10.9674c1.979 0 3.8838.1261 5.7638-.0405 1.5315-.1351 2.1544-1.04 2.1679-2.5123.0135-1.4519-.7151-2.5145-2.2038-2.6428-1.8778-.1643-3.7804-.0405-5.7279-.0405v5.2338z"/><path d="m195.031 18.876h4.515v11.2601c1.572-1.5376 2.949-2.7802 4.194-4.1421.859-.941 1.779-1.3484 3.045-1.2291 1.107.1058 2.229.0225 3.5.2566-1.901 1.8009-3.803 3.6018-5.782 5.477 2.048 2.8499 4.068 5.6638 6.231 8.6713-1.765 0-3.317.0315-4.866-.0293-.29-.0112-.634-.3399-.839-.61-1.334-1.7582-2.636-3.541-3.989-5.3712-.997.7046-1.676 1.4362-1.509 2.7621.128 1.0265.024 2.0823.024 3.1853h-4.527v-20.2307z"/><path d="m109.425 29.6073c.209-2.2962 1.768-4.1758 4.03-4.8151 1.802-.5088 3.641-.5156 5.443.009 2.327.6753 3.6 2.3681 3.663 4.8173.04 1.5398.013 3.0796.016 4.6193 0 1.3552.647 2.0298 1.943 2.0238.479 2.3411.303 2.7396-2.069 3.1335-1.842.3062-3.342-.2566-4.183-2.2713-1.493 2.2668-3.648 2.519-5.964 2.2601-1.804-.2026-3.14-1.3619-3.436-2.9242-.371-1.9562.305-3.6693 2.116-4.3829 1.722-.6776 3.589-.9928 5.395-1.452.504-.1283 1.019-.2004 1.576-.3084.09-1.076-.15-1.8977-1.214-2.2781-1.1-.3917-2.328.0045-2.764 1.0557-.315.7542-.742.8937-1.453.8037-1.03-.1306-2.066-.1981-3.099-.2927zm8.548 3.1786c-1.223.2881-2.35.5155-3.452.8284-.841.2386-1.408.8081-1.158 1.7536.247.9432 1.055 1.094 1.882 1.0197 1.694-.153 2.708-1.4294 2.728-3.6017z"/><path d="m107.212 33.0544h-10.0385c.0292 1.4002.6431 2.2646 1.8665 2.7239 1.374.5155 3.142.2859 3.834-.7406.569-.8442 1.199-.9613 2.067-.8285.735.1149 1.482.1644 2.226.2454-.629 3.7189-4.122 5.6526-8.7836 4.93-3.9805-.6168-6.4768-4.1736-5.8538-8.3359.6836-4.5653 4.3695-7.1968 9.1194-6.5125 3.854.556 6.171 4.0182 5.566 8.5182zm-4.484-2.5415c-.04-1.7311-1.061-2.6946-2.714-2.6743-1.6936.0203-2.7573 1.0558-2.7281 2.6743z"/><path d="m168.742 24.4434c4.586 0 7.736 3.0795 7.734 7.5502-.002 4.4595-3.169 7.557-7.736 7.5705-4.554.0113-7.711-3.0863-7.714-7.5728-.002-4.4932 3.122-7.5479 7.716-7.5479zm-3.128 7.3994c.18.8712.263 1.6208.497 2.3186.376 1.1301 1.194 1.7807 2.413 1.8459 1.241.0676 2.213-.4029 2.721-1.5622.74-1.6929.733-3.4127-.085-5.0876-.5-1.0197-1.406-1.4227-2.483-1.4114-1.043.009-1.936.439-2.355 1.4227-.344.8081-.492 1.6996-.706 2.4717z"/><path d="m223.936 29.1964c-.135.0361-.275.0968-.416.1058-1.046.0608-2.094.1126-3.117.1644-1.046-1.6591-2.249-2.3344-3.765-1.9135-.504.1396-1.136.6889-1.253 1.1616-.177.7181.554.923 1.177 1.0423 1.396.2679 2.811.475 4.178.8509 2.265.6236 3.418 2.08 3.456 4.1555.039 2.0463-1.086 3.6288-3.283 4.3132-2.471.7699-4.965.7181-7.354-.3737-1.731-.7924-2.732-2.1431-2.842-4.2051h3.944c.536 1.7649 1.959 2.1566 3.673 1.9855.699-.0698 1.407-.2589 1.488-1.0918.084-.8554-.598-1.1481-1.286-1.2989-1.462-.3174-2.95-.5222-4.394-.9049-1.577-.4165-2.751-1.3282-3.086-3.0661-.384-2.0034.488-3.9507 2.431-4.8511 2.744-1.2696 5.537-1.1976 8.222.2229 1.383.7316 2.087 2.0327 2.227 3.703z"/><path d="m188.948 33.0023c1.32.1103 2.505.2071 3.681.3039.007 3.5005-2.984 6.2085-6.8 6.2558-4.511.0563-7.684-2.9354-7.806-7.3634-.121-4.4212 2.818-7.548 7.28-7.7438 4.129-.1824 7.122 2.2804 7.362 6.1951-1.101.0787-2.208.1936-3.317.2093-.211.0023-.528-.3422-.629-.592-.709-1.7446-1.718-2.4605-3.281-2.2624-1.552.1958-2.467 1.1841-2.623 3.0187-.074.8847-.051 1.8122.133 2.6766.308 1.4475 1.316 2.2219 2.69 2.2894 1.453.072 2.48-.6326 2.998-2.0598.101-.2791.188-.5605.312-.9274z"/><path d="m130.929 39.1235h-4.497v-20.2173h4.497v20.2196z"/><path d="m154.295 18.8838h4.453v20.2308h-4.453z"/><path d="m31 19.6023v26.3178h35.8041v-35.84zm30.3686 21.1019h-24.9331v-16.9756l24.9331-6.6318z"/></g></svg>