<svg fill="none" height="28" viewBox="0 0 205 28" width="205" xmlns="http://www.w3.org/2000/svg" xmlns:xlink="http://www.w3.org/1999/xlink"><clipPath id="a"><path d="m0 0h205v28h-205z"/></clipPath><g clip-path="url(#a)" fill="#000"><path d="m7.81817 0h-5.04208v.00381992h-2.77609v11.23798008h5.55217v-5.64002h2.266c3.09273 0 5.59963 2.523 5.59963 5.63812 0 3.115-2.5069 5.638-5.59963 5.638v5.6018c6.16463 0 11.16313-5.0307 11.16313-11.2398 0-6.20918-4.9966-11.2399-11.16313-11.2399z"/><path d="m20.5547 11.2379c0 6.2073 4.9966 11.238 11.1612 11.238v-5.598c-3.0927 0-5.5977-2.523-5.5977-5.638 0-3.11512 2.505-5.63812 5.5977-5.63812v-5.60178c-6.1646 0-11.1612 5.03072-11.1612 11.2379z"/><path d="m49.1115 22.4797h-5.0422c-6.1665 0-11.1631-5.0307-11.1631-11.2398 0-6.20918 4.9985-11.2399 11.1631-11.2399v5.60178c-3.0927 0-5.5996 2.523-5.5996 5.63812 0 3.115 2.5069 5.638 5.5996 5.638h2.2661v-5.64h5.5522v11.238h-2.7761z"/><path d="m63.0641 3.34257-3.467 16.44503v.0037c-.3383 1.5756-1.688 2.0703-3.5906 2.0703l-.1237.524h15.0103l2.6702-6.3062h-.5529c-2.3029 3.6789-4.5111 5.6576-8.4401 5.6576h-2.8559l2.1792-10.2635h2.9176c2.2702 0 2.8559 1.2092 2.6703 3.6496h.5203l.7967-7.91477h-.553c-.5202 2.81417-1.1678 3.61657-3.376 3.61657h-2.8559l1.9937-9.42803h3.1323c3.8999 0 5.1877 1.67088 5.8025 5.65756h.5203v-6.306139h-15.0067l-.1237.523989c1.9027 0 3.0705.49467 2.7321 2.07029z"/><path d="m83.0141 20.6193-1.226-4.3897c-2.4265 3.9866-4.02 6.46-5.8608 6.46-1.1059 0-1.7789-.6192-1.7789-1.6709 0-.8977.5529-1.6709 1.6261-1.6709.6704 0 1.0326.2322 1.3513.4365.2504.1604.4739.3037.7988.3037.7385 0 1.6262-1.3301 3.6816-4.5766l-1.688-6.09c-.6767-2.41106-2.3647.49467-2.7321 3.3381l-.3384.0294c0-1.8248.7058-5.93612 3.0996-5.93612.9204 0 1.6589.61925 2.0555 2.07028l1.1969 4.38974c2.4229-3.98667 3.9908-6.46002 5.8607-6.46002 1.0732 0 1.779.61925 1.779 1.67088 0 .89774-.5821 1.67094-1.6589 1.67094-.6703 0-1.0326-.23222-1.3513-.4365-.2504-.16046-.4739-.30372-.7988-.30372-.7385 0-1.597 1.33012-3.6234 4.57662l1.6589 6.09c.6767 2.411 2.3938-.4947 2.7613-3.3381l.3056-.0293c0 1.8247-.6767 5.936-3.0996 5.936-.8913 0-1.6262-.6192-2.0264-2.0703z"/><g clip-rule="evenodd" fill-rule="evenodd"><path d="m94.1261 10.5129-3.1323 14.8987h-.0037c-.3383 1.5756-1.4115 2.0117-3.0086 2.041l-.0909.4947h8.5929l.0618-.4947c-2.7612 0-3.6198-.524-3.3142-2.008l.6767-3.1842c.7676.3408 1.6589.4947 2.6412.4947 4.912 0 8.564-5.5953 8.564-10.6959 0-3.52499-1.473-5.25451-3.132-5.25451-2.7617 0-4.2679 3.33811-6.7526 9.79811h-.1237l2.0264-9.64421h-.3675l-5.3696 1.88708.1237.43238c1.3205-.40307 2.9758-.46536 2.6084 1.23485zm8.4399 1.9164c0 3.3705-1.872 9.7668-5.5241 9.7688-1.2578-.0007-2.1776-.6526-2.7594-1.3924l.2385-.6458c1.9686-5.3339 4.234-11.4718 6.328-11.4718 1.226 0 1.717 1.7332 1.717 3.7412z"/><path d="m106.398 16.8476c0-4.9137 4.115-10.04731 8.564-10.04731 2.365 0 3.838 1.11392 3.838 2.68954 0 3.40037-5.741 5.28747-9.975 6.08997v.4031c0 3.3381 1.535 4.7928 3.805 4.7928s4.111-1.2349 5.894-3.7705l.243.1246c-1.717 3.6165-4.143 5.6245-7.367 5.6245-3.223 0-5.002-2.5356-5.002-5.903zm9.976-7.44938c0-1.01865-.462-2.00799-1.874-2.00799-3.285 0-5.341 4.23587-5.646 7.76087 5.464-1.5463 7.52-3.2136 7.52-5.74921z"/><path d="m129.139 6.80081c-4.911 0-8.592 5.62459-8.592 10.69589l-.008.0037c0 3.5249 1.474 5.2545 3.162 5.2545 2.794 0 4.3-3.3382 6.785-9.7982h.123l-1.411 6.6139c-.248 1.2056-.43 3.1843 1.349 3.1843 2.176 0 3.529-3.1843 4.111-4.7929l-.367-.0622c-1.044 2.378-2.027 3.2135-2.547 3.2135-.429 0-.491-.4031-.4-.8355l4.267-20.2778h-.367l-5.37 1.88708.124.43237c1.321-.40306 2.976-.46535 2.608 1.23485l-.796 3.74118c-.797-.34077-1.688-.49467-2.671-.49467zm2.057 2.61518c-1.97 5.32921-4.234 11.45181-6.353 11.45181l-.004-.0037c-1.255 0-1.717-1.7295-1.717-3.7082 0-3.3674 1.874-9.79813 5.526-9.79813 1.321 0 2.241.65223 2.794 1.3924z"/></g><path d="m137.37 19.5999 2.241-10.35508c.091-.37009.029-.80247-.401-.80247-.553 0-1.564.83545-2.608 3.21355l-.368-.0623c.583-1.60861 1.932-4.79282 4.082-4.79282 1.841 0 1.717 1.88708 1.441 3.1549l-2.241 10.35512c-.091.3701-.029.8025.4.8025.553 0 1.564-.8355 2.579-3.2136l.368.0623c-.582 1.6086-1.936 4.7928-4.082 4.7928-1.841 0-1.688-1.887-1.411-3.1512z"/><path d="m141.578.743896c1.011 0 1.503.897734 1.503 1.854104 0 1.26782-.706 2.28648-1.812 2.28648-1.012 0-1.503-.89774-1.503-1.8541 0-1.23485.706-2.286484 1.812-2.286484z"/><path d="m147.096 7.9148-2.426 11.4068h.007c-.429 1.9457.062 3.4297 1.873 3.4297 2.485 0 3.653-3.3381 4.235-5.009l-.367-.0916c-1.077 2.6273-2.121 3.5543-2.856 3.5543-.677 0-.891-.557-.739-1.3301l2.485-11.96376h3.314l.153-.74017h-3.285l1.011-4.75984h-.338c-1.197 2.56496-2.761 4.23585-5.064 5.03832l-.091.46535z"/><path d="m154.002 19.5999 2.241-10.35508c.091-.37009.029-.80247-.401-.80247-.553 0-1.564.83545-2.608 3.21355l-.367-.0623c.582-1.60861 1.931-4.79282 4.081-4.79282 1.841 0 1.717 1.88708 1.445 3.1549l-2.241 10.35512c-.091.3701-.029.8025.4.8025.553 0 1.564-.8355 2.579-3.2136l.368.0623c-.582 1.6086-1.936 4.7928-4.082 4.7928-1.841 0-1.688-1.887-1.412-3.1512z"/><path d="m158.203.743896c1.011 0 1.503.897734 1.503 1.854104 0 1.26782-.706 2.28648-1.812 2.28648-1.011 0-1.503-.89774-1.503-1.8541 0-1.23485.706-2.286484 1.812-2.286484z"/><path clip-rule="evenodd" d="m169.161 6.80029c-4.144 0-8.04 4.48131-8.04 9.36581h-.004c0 4.3604 2.212 6.5846 5.527 6.5846 4.176 0 8.072-4.4227 8.072-9.5527 0-4.01596-2.15-6.39771-5.555-6.39771zm3.041 6.18151c0 3.4622-1.687 9.21-5.4 9.2119-2.178-.0012-3.16-2.2874-3.16-5.6869 0-3.4004 1.626-9.14955 5.37-9.14955 2.27 0 3.19 2.16189 3.19 5.62455z" fill-rule="evenodd"/><path d="m186.564 19.5987 1.688-8.0393c.338-1.5463.276-3.05964-1.044-3.05964-2.595 0-5.363 7.88024-6.824 12.03874-.268.763-.492 1.4006-.663 1.8414h-2.823l2.762-13.13996c.276-1.26782-1.322-1.4547-3.01 2.41106l-.338-.0623c.583-1.60859 1.903-4.7928 4.053-4.7928 1.688 0 1.779 1.51333 1.44 3.1549l-2.179 10.2928h.124c.141-.3668.312-.842.51-1.3939 1.438-4.0063 4.328-12.0538 8.021-12.0538 2.365 0 2.823 2.38174 2.179 5.3791l-1.75 8.1309c-.276 1.2678 1.321 1.4511 3.009-2.411l.338.0623c-.582 1.6086-1.935 4.7928-4.082 4.7928-1.659 0-1.75-1.5463-1.411-3.1513z"/><path d="m194.3 17.9608c-.826 0-1.288.6193-1.288 1.3301l-.004-.0073c0 1.4547 1.288 3.4627 4.941 3.4627 2.364 0 4.973-1.3264 4.973-3.7705 0-1.1762-.611-2.1326-2.27-3.8035l-2.58-2.5979c-.673-.6779-1.226-1.451-1.226-2.5027 0-1.51331 1.135-2.71884 2.824-2.71884 2.109 0 1.963 1.31519 1.871 2.14744-.016.14806-.031.28084-.031.3882 0 .8941.706 1.2972 1.321 1.2972.858 0 1.321-.4947 1.321-1.42178 0-1.4547-1.659-2.96802-4.421-2.96802-2.393 0-5.064 1.26782-5.064 3.8658 0 1.1762.706 2.4733 2.241 4.0196l2.15 2.1656c.859.8648 1.903 1.9787 1.903 3.1842s-1.106 2.1656-2.947 2.1656c-2.628 0-2.491-1.6049-2.415-2.5042.012-.1302.021-.2457.021-.3393 0-1.0223-.494-1.3924-1.32-1.3924z"/></g></svg>