<svg fill="none" height="1094" viewBox="0 0 2500 1094" width="2500" xmlns="http://www.w3.org/2000/svg" xmlns:xlink="http://www.w3.org/1999/xlink"><clipPath id="a"><path d="m0 0h2500v1094h-2500z"/></clipPath><g clip-path="url(#a)" clip-rule="evenodd" fill="#090a0b" fill-rule="evenodd"><path d="m110.295 178.334c10.596 0 21.193 0 32.762.973 12.515-.973 25.044-.973 38.533-.973v6.758c-20.233 0-20.233 9.636-20.233 26.977v50.102c0 26.004 5.784 42.398 35.641 42.398 26.017 0 39.506-13.489 39.506-38.546v-43.371c0-7.704 0-22.152-3.852-28.91-2.893-5.771-9.637-7.704-15.421-8.663v-6.758c7.704 0 15.421 0 23.125.973 8.676-.973 17.34-.973 25.057-.973v6.758c-5.784 1.919-12.528 2.892-15.408 8.663-3.852 7.717-2.892 21.206-2.892 28.91v38.533c0 37.574-19.26 56.847-57.806 56.847-35.654 0-59.726-13.489-59.726-55.874v-50.102c0-17.341.96-26.977-19.273-26.977v-6.745zm201.356 32.762v63.578c0 16.381 0 32.761 20.232 32.761v7.704c-7.704 0-16.38 0-25.044-.972-7.704 0-15.408.972-23.125.972v-7.704c16.38-.959 18.3-9.636 18.3-24.084v-83.824c-6.744-9.637-9.624-12.516-21.193-14.448v-6.758c6.745 0 13.489 0 20.233.973 7.704-.973 15.408-.973 23.125-.973l81.891 94.42v-55.873c0-15.409 0-30.83-20.232-31.789v-6.758c8.663 0 16.38 0 24.071.973 8.677-.973 16.381-.973 25.058-.973v6.758c-5.784 1.919-12.529 1.919-15.408 7.704-2.892 5.784-2.892 19.273-2.892 26.017v99.232h-10.597zm156.065.96c0-17.341 0-26.977-20.233-26.977v-6.758c11.556 0 23.112 0 34.681.973 11.569-.973 24.085-.973 36.614-.973v6.758c-20.233 0-19.273 9.636-19.273 26.977v70.322c0 17.34-.96 26.017 19.273 25.057v7.704c-12.516 0-24.085 0-36.614-.972-11.569 0-23.125.972-34.681.972v-7.704c20.233.96 20.233-8.676 20.233-26.017zm127.168 105.976-43.358-110.788c-6.744-17.341-6.744-19.26-24.085-22.152v-6.758c11.57 0 23.126 0 34.682.973 11.569-.973 24.085-.973 36.613-.973v6.758c-6.744.959-17.34.959-17.34 10.596 0 2.892 2.892 10.596 3.852 13.488l26.004 69.363 19.273-50.102c3.852-7.704 9.637-23.126 9.637-31.789 0-9.637-9.637-10.597-17.341-11.556v-6.758c7.717 0 16.381 0 24.085.973 9.637-.973 18.3-.973 26.977-.973v6.758c-15.408.959-18.313 10.596-24.085 23.125l-45.277 109.828zm88.636-10.597c20.232.96 19.273-8.676 19.273-26.017v-69.362c0-17.341.959-26.977-19.273-26.977v-6.758c11.569 0 23.125 0 35.653.973 25.045-.973 50.09-.973 76.107-.973l.973 36.614h-8.677c-3.852-21.206-15.408-26.977-35.641-26.977-1.932 0-15.408 0-16.381 1.919-.959.96-.959 10.597-.959 11.569v38.534c17.34 0 27.936-2.893 28.896-22.153h7.704c0 9.637 0 19.26-.959 28.91.959 7.704.959 16.381.959 25.044h-7.704c-3.852-19.273-9.636-22.152-28.896-22.152v24.085c0 19.273 0 31.802 24.071 31.802 23.125 0 32.749-6.757 37.574-29.869h8.664c-.96 7.704-.96 15.408-.96 23.112 0 5.784 0 10.596.96 16.38-28.897 0-57.807 0-85.731-.972-12.528 0-24.084.972-35.653.972zm258.189-25.057c4.825 5.784 8.677 12.529 14.448 18.313 3.852 4.825 6.744 5.785 12.529 6.744v7.704c-6.744 0-13.489 0-20.233-.972-6.757 0-13.489.972-20.233.972l-29.869-41.425c-6.744-9.637-15.408-20.233-21.193-19.26h-3.852v26.977c0 17.341 0 26.977 20.233 26.017v7.704c-11.556 0-24.085 0-35.654-.972-11.556 0-23.125.972-35.641.972v-7.704c20.233.96 20.233-8.676 20.233-26.017v-69.362c0-17.341 0-26.977-20.233-26.977v-6.758c12.516 0 24.085 0 35.641.973 11.569-.973 22.153-.973 33.722-.973 9.636 0 25.044.973 33.721 4.825 13.489 4.812 20.233 16.368 20.233 30.816 0 18.314-15.421 29.87-31.802 32.762zm-59.726-37.561c19.26 0 29.869-7.717 29.869-27.936 0-19.274-7.704-28.91-27.937-28.91-1.919 0-8.663-.96-9.636 1.919-.96 1.92-.96 16.381-.96 19.273v35.654zm107.895 70.322h-9.623v-43.358h8.664c5.784 19.274 15.411 36.614 38.531 36.614 11.57 0 23.13-8.677 23.13-21.192 0-19.261-20.24-24.085-34.68-30.83-18.304-7.704-33.726-18.313-33.726-41.425 0-25.058 20.236-38.546 43.356-38.546 11.56 0 23.11 1.919 31.79 9.636l2.89-7.717h8.67l.96 37.574h-8.67c-3.85-16.381-15.4-29.87-33.72-29.87-10.59 0-20.23 5.772-20.23 16.381 0 15.408 15.41 20.233 26.98 26.005 22.15 8.663 43.34 19.273 43.34 46.237 0 27.937-23.11 43.358-49.13 43.358-13.49 0-26.98-4.825-35.639-14.449zm123.332-103.083c0-17.341.96-26.977-19.28-26.977v-6.758c11.56 0 22.16 0 33.73.973 12.53-.973 25.04-.973 36.61-.973v6.758c-20.23 0-19.26 9.636-19.26 26.977v70.322c0 17.34 0 26.017 19.26 25.057v7.704c-11.57 0-24.08 0-36.61-.972-11.56 0-22.16.972-33.73.972v-7.704c20.24.96 19.28-8.676 19.28-26.017zm199.42 5.784h-8.69c-2.89-17.34-12.51-29.869-30.83-29.869-13.47 0-12.51-.96-12.51 15.408v78.039c0 18.3 0 26.977 21.2 26.017v7.704c-12.54 0-25.06 0-36.62-.972-12.52 0-25.05.972-36.61.972v-7.704c21.2.96 20.24-7.717 20.24-26.017v-78.039c0-14.448.96-13.489-12.53-15.408-20.23-.96-27.94 11.556-30.82 29.869h-8.66l.96-39.506h132.95zm93.45 63.578c0 18.3 0 26.977 20.22 26.017v7.704c-12.52 0-25.03 0-38.54-.972-10.58 0-22.16.972-32.74.972v-7.704c20.24.96 19.27-7.717 20.24-26.017v-18.3l-36.62-63.591c-4.82-9.637-6.75-11.556-17.33-14.448v-6.758c10.58 0 21.2 0 31.79.973 11.55-.973 23.12-.973 34.68-.973v6.758c-4.81.959-15.41 1.919-15.41 9.636 0 3.852 5.77 13.489 7.7 17.341l21.21 37.573 19.25-33.721c2.89-4.825 7.7-14.449 7.7-20.233 0-8.664-7.7-10.596-14.43-10.596v-6.758c6.74 0 13.47 0 20.24.973 8.66-.973 16.37-.973 25.03-.973v6.758c-9.62.959-13.47 7.704-17.32 15.408l-35.65 58.766v22.165zm-695.583 228.32c0-28.91 22.152-56.834 52.021-56.834 20.233 0 33.722 16.381 33.722 36.614 0 27.937-22.165 55.874-51.062 55.874-21.193 0-34.681-14.449-34.681-35.654zm30.829-23.112c-3.852 10.596-7.704 26.004-7.704 37.573 0 6.744 1.919 14.448 10.583 14.448 18.313 0 28.91-50.089 28.91-65.51 0-6.757-2.892-12.529-10.597-12.529-11.569 0-18.313 16.381-21.192 26.018z"/><path d="m823.217 557.934c-5.785 19.247-16.381 40.452-39.493 40.452-8.664 0-18.313-3.852-18.313-13.501 0-4.812 4.824-9.624 9.636-9.624 5.785 0 8.664 3.852 9.637 8.664 0 2.892 0 6.757 3.852 6.757 5.784 0 6.744-6.757 7.717-10.609 2.892-12.516 5.771-24.085 8.663-35.641l18.314-79.972h-17.341l1.92-7.704h17.34c6.745-24.084 18.314-52.994 48.17-52.994 7.704 0 20.233 2.892 20.233 12.529 0 5.784-4.812 10.596-9.637 10.596-11.556 0-9.636-14.448-17.34-14.448-5.785 0-8.677 6.744-9.637 10.596-4.812 10.596-6.744 22.152-8.664 33.721h19.273l-1.919 7.704h-19.273zm-458.585 116.546h8.677l.959 42.411h-8.663c-4.825-19.273-17.341-33.721-38.534-33.721-33.721 0-41.425 35.64-41.425 61.658 0 25.031 7.717 58.766 39.506 58.766 18.3 0 26.977-6.757 26.977-25.058 0-13.501-2.892-16.394-17.341-17.353v-7.704h61.659v7.704c-13.489 0-12.529 5.771-12.529 17.353v21.18c-14.448 1.919-18.3 2.892-30.816 7.73-12.529 3.852-20.233 6.744-33.722 6.744-41.425 0-69.362-26.017-69.362-68.389 0-41.439 27.937-73.228 70.322-73.228 14.448 0 28.897 3.852 40.466 13.502zm42.385 130.074c19.273.959 19.273-8.69 19.273-26.018v-70.348c0-17.327 0-26.951-19.273-25.991v-7.73c10.596 0 21.193.96 32.762.96 12.516 0 25.044 0 37.56-.96v7.73c-20.233-.96-19.26 9.623-19.26 25.991v60.699c0 20.246-.973 33.721 24.085 33.721 24.085 0 33.721-6.744 39.493-29.843h9.636l-1.932 39.493c-37.574-.96-75.147-.96-87.663-.96-11.569 0-23.125 0-34.681.96zm170.526-28.897c-1.919 4.812-4.811 11.556-4.811 17.328 0 10.609 9.636 10.609 17.34 11.582v7.704c-8.664-.96-17.34-.96-26.004-.96-7.704 0-16.381 0-24.085.96v-7.704c17.341 0 23.112-20.246 28.91-32.749l40.465-99.245h10.597l42.398 106.949c1.919 5.771 6.744 16.368 10.596 20.22 3.852 2.892 8.664 3.878 13.489 4.838v7.704c-11.556-.96-24.085-.96-36.614-.96-10.596 0-22.152 0-32.749.96v-7.704c5.772-.96 17.341 0 17.341-9.65 0-2.892-2.892-10.583-3.852-13.476l-4.825-11.582h-45.277zm44.318-16.394-18.3-47.197-19.273 47.197zm85.743 52.035h-8.664v-42.411h7.705c5.784 18.313 15.408 35.667 38.533 35.667 11.556 0 23.125-7.73 23.125-20.246 0-19.273-19.273-25.058-33.722-30.829-19.273-8.664-33.721-18.314-33.721-41.413 0-25.057 19.273-39.519 43.345-39.519 10.596 0 22.165 2.893 30.829 10.61l2.892-8.69h8.664l.96 37.586h-8.664c-3.852-15.421-15.408-29.869-33.721-29.869-9.637 0-20.233 5.771-20.233 17.327 0 15.422 15.408 20.246 27.937 25.058 22.152 9.624 42.385 19.273 42.385 47.223 0 27.911-23.125 42.385-49.13 42.385-12.515 0-26.004-4.812-35.653-14.461zm222.549-136.818h8.663l1.92 42.411h-8.664c-4.825-19.273-17.341-33.721-38.546-33.721-33.722 0-41.426 35.64-41.426 61.658 0 25.031 7.705 58.766 39.493 58.766 18.301 0 26.977-6.757 26.977-25.058 0-13.501-2.892-16.394-17.34-17.353v-7.704h61.658v7.704c-13.488 0-12.516 5.771-12.516 17.353v21.18c-14.448 1.919-18.3 2.892-30.829 7.73-12.529 3.852-20.233 6.744-33.721 6.744-41.426 0-69.375-26.017-69.375-68.389 0-41.439 27.936-73.228 70.335-73.228 14.448 0 28.896 3.852 40.465 13.502zm46.237 69.388c0-44.331 35.65-71.308 77.08-71.308 42.38 0 77.07 26.977 77.07 71.308 0 44.305-35.65 70.322-77.07 70.322-42.39 0-77.08-26.99-77.08-70.322zm35.65-1.958c0 26.977 7.71 62.644 41.43 62.644s41.42-30.83 41.42-59.726c0-27.937-7.7-62.618-41.42-62.618s-41.43 33.708-41.43 59.7zm219.66-17.328-30.83 89.595h-10.6l-38.53-113.693c-4.81-12.516-4.81-16.368-19.26-18.287v-7.73c10.6 0 21.19.96 30.83.96 12.52 0 24.08 0 36.61-.96v7.73c-6.74.96-17.34 0-17.34 10.583 0 4.812 3.85 17.328 5.79 22.166l17.34 55.886 29.85-96.365h9.64l32.75 94.407 10.61-34.681c2.89-8.664 9.62-29.87 9.62-37.561 0-11.556-7.7-12.516-17.33-14.435v-7.73c6.75 0 14.44.96 21.18.96 7.73 0 16.4 0 24.09-.96v7.73c-10.58.96-13.48 6.744-16.37 16.368l-37.58 115.612h-10.6zm1081.91-638.735v496.145c-3.88 42.412-12.54 82.864-32.75 120.425-2.96 6.722-6.51 13.171-10.61 19.273-58.76 97.299-162.81 153.186-277.46 147.401-56.85-3.852-107.91-21.205-153.18-52.035-19.28-14.461-37.57-28.909-53.96-47.222v-.96c-19.25-21.18-34.68-45.265-47.2-71.282-20.24-39.493-29.87-84.783-31.78-131.021v-481.7097c27.93.9857 606.94.9857 606.94.9857z"/><path d="m1953.3 111.864c5.77-.959 12.51 1.92 18.29 2.893 14.46 2.892 26.01 8.676 39.51 15.408 17.33-10.597 37.57-17.341 57.81-18.301v13.489c3.85-.96 8.66-.96 11.56-2.892l1.92.959v15.408c3.85 0 7.7-.959 11.55-.959v77.066l-3.85-.973h-65.51c-2.89 4.825-9.62 7.717-14.44 7.717-6.75 0-12.54-2.892-15.42-7.717h-68.39l.96-.959v-75.134c2.9 0 7.71.959 12.52.959v-15.408c4.81 0 8.69 1.92 12.54 1.92l.96-14.448z"/><path d="m2001.44 141.721c-.96 1.92 0 4.812 0 6.744-3.85-.972-7.7-2.892-11.55-4.824-7.71-1.92-15.42-5.772-24.09-7.705v-7.704c12.54 2.893 25.06 7.717 35.64 13.489zm53.97-4.812-.96-.96c-11.56 3.852-23.13 6.745-33.72 11.556.47-1.06.72-2.209.72-3.372 0-1.162-.25-2.311-.72-3.372 11.55-5.784 23.12-8.677 34.68-12.529z"/><path d="m2001.44 157.142c0 1.92-.96 5.785 0 7.704-11.55-5.784-23.1-9.636-35.64-13.488v-6.745c12.54 2.893 24.1 6.745 35.64 12.529zm53.97-5.784c-11.56 2.892-23.13 6.744-33.72 12.528-.96-2.892 0-5.784-.96-7.704 9.62-4.824 21.2-7.704 30.83-11.569h3.85zm-53.97 21.192c-.96 1.92-.96 3.852-.96 6.744v.96c-10.58-5.784-23.12-9.636-34.68-12.529v-7.704c12.54 2.906 24.1 6.758 35.64 12.529zm53.97-4.812c-12.52 2.893-23.13 7.704-33.72 12.529h-.96v-8.664c11.55-4.824 22.16-8.663 33.72-11.569zm-138.73 47.21c-4.83 1.92-10.6 3.852-14.46 8.664l-1.92 2.892c0 15.408-1.92 30.83-16.39 38.534-6.74 3.852-14.44 5.784-21.18 7.704-2.89 3.852-5.77 8.663-5.77 13.488-2.89-.96-5.8-2.892-7.73-3.852 0-2.892 1.92-5.771 3.85-8.664-12.51 0-23.1 3.852-33.72 6.745h-13.48c3.86-2.893 6.75-6.745 10.59-9.637-4.81-3.852-9.63 1.92-14.44 2.892-10.61 2.893-22.16 8.664-30.83 9.637-.96-6.744 0-14.448-.96-22.165h.96c17.33-1.92 33.72-8.664 48.16-19.26 12.54-8.664 24.08-23.126 38.56-26.005.96-6.744 4.81-14.448 11.55-18.313 4.82-1.92 10.59-4.825 16.37-3.852 12.53 3.839 18.3 19.26 30.84 21.192z"/><path d="m1885.83 212.056c0 1.919 0 4.825-1.92 6.744-.96.96-2.89 0-4.81 0-.89-.453-1.63-1.146-2.14-1.999-.51-.852-.77-1.832-.75-2.826 0-1.919.96-3.852 2.89-4.811 2.88 0 5.77 0 6.73 2.892zm129.11 19.273c.96 1.919 0 3.852-.96 4.812-.96 1.919-2.89 1.919-2.89 2.892 4.81 3.865 8.67 7.717 14.44 10.596v33.722c1.92.959 3.85.959 4.81.959.96 12.516.96 26.005.96 39.493h6.74c.96 19.257.96 38.55 0 57.807-4.81.959-8.66 4.811-9.62 10.596 3.85 0 6.74-.96 8.66 2.892 3.88 3.852 4.84 9.624 3.88 14.448-.96 4.812-4.84 8.664-8.69 10.584-.96.96-1.92 0-1.92.959v75.147c.96.96 2.89-.959 2.89.96 3.86 2.892 7.73 8.664 8.69 14.448.96 6.758-1.92 14.449-8.69 19.273 0 .96-1.92.96-2.89.96v86.729c3.85 0 6.75 4.812 8.67 6.744 3.87 8.664 2.91 18.288-2.9 25.058-1.92 1.919-3.85 3.852-5.77 3.852v7.704c10.61-.96 22.17-.96 31.79 2.892-2.89 4.812-6.74 10.584-10.58 15.421 21.2 2.893 42.38 3.852 62.62-1.945 7.7-5.772 14.46-15.408 24.08-18.288 2.89 0 4.81 1.92 4.81 4.812 7.71-1.919 13.48-8.664 19.28-12.516 3.85-15.421 3.85-30.829 2.89-46.25 0-7.704 1.92-14.435 3.85-20.246 13.48 4.838 35.64 9.65 35.64 28.91 1.92 0 3.85-1.92 4.81-2.892 16.4-3.852 28.91 7.73 46.25 4.812 3.85-.96 6.75-2.893 10.59-3.852-.96 6.757-3.86 12.541-7.71 18.313-12.54 18.287-31.79 28.909-51.07 37.56l-6.75 5.772c-4.81 8.69-11.55 16.394-17.35 24.085 1.92-1.92 4.81.959 6.76.959-.96 11.582-13.51 18.314-22.17 23.126l-11.58 3.852c-20.22 16.393-41.41 27.936-63.58 38.533-12.51 5.797-26.98 8.689-40.45 12.541.96 5.772.96 12.516 1.92 17.328-3.85.96-8.67.96-13.48.96 1.92 5.771 0 12.542-3.88 17.353-.96.96-1.92 2.893-3.85 2.893 4.81 4.811 10.61 10.583 16.4 15.421.96 0 .96.959.96.959-25.06 6.745-55.89 7.705-80.94 0 4.82-4.837 10.61-10.609 16.4-16.393-2.89-3.852-5.77-6.745-6.75-12.516 0-6.757 2.9-12.542 8.67-15.421v-.96c-5.77-1.919-11.58-4.812-17.36-7.704-20.22-2.892-41.41-3.852-59.72-11.582-16.37-5.771-33.72-12.516-46.23-25.032-18.31 0-30.82-16.393-42.41-27.937-7.7-9.649-14.43-19.273-15.4-30.829 0-1.919 1.91-3.852 2.89-4.837 6.74-1.92 12.51 2.918 19.27 2.918 4.81.96 8.66 1.919 14.44 1.919-1.93-2.105-2.97-4.876-2.9-7.73-7.7 0-17.35 2.893-23.12-3.852-.96-1.919 0-4.811.96-6.744 6.74-5.771 14.46-7.704 23.12-8.664 2.9-9.649 10.59-21.205 22.17-22.165 4.81-.96 8.66.96 12.51 3.852 5.78 5.772 6.75 13.502 5.78 21.206 17.35 1.919 33.74-4.812 52.03-2.893 20.25 0 38.53 3.852 56.85 9.624v-12.516c-5.77-1.92-8.67-6.757-11.56-12.542-2.92-8.664 1.92-18.287 8.66-23.099h2.9v-86.729c-5.77 0-9.63-6.744-11.56-11.556-2.92-9.636 1.92-18.3 9.62-24.085h1.92v-76.119c-2.89 0-6.74-2.892-8.66-4.812-2.89-3.852-4.84-10.596-1.92-15.408.96-2.892 2.89-5.785 5.77-7.704h5.77c0-4.825-4.81-8.664-8.66-10.596h-.96c-.96-19.273 0-37.574-.96-56.847.96-1.919 5.77-.96 7.7-.96.96-15.408.96-26.017.96-39.493 0-.959.96 0 .96 0 1.92-.959 4.82.96 4.82-.959v-33.722h1.92c3.85-3.852 8.66-6.744 12.54-10.596 0-1.92-1.92 0-2.9-1.919-.98 0-1.94-1.92-1.94-3.853 0-1.932 1.94-2.892 2.92-4.824 2.95-.934 5.83.026 6.79 2.931z"/><path d="m2014.94 265.997v7.704c-1.51-1.406-2.81-3.027-3.85-4.811-1.92 1.919-3.85 3.852-4.84 4.811v-8.663c1.74-.747 3.12-2.124 3.88-3.852 1.93.972 2.89 2.892 4.81 4.811zm-112.72 16.381c4.82 11.569 5.78 25.058 0 36.614 8.67-10.597 22.17-18.301 36.6-17.341 1.92 15.408-.96 29.87-9.62 40.466 7.7-2.892 17.33-3.852 26.02-3.852h-.96c.96 14.448-2.89 28.909-13.5 38.533-4.82.96-9.63.96-13.48 1.92 9.62-6.745 18.29-19.274 17.33-31.789-7.71 0-14.44 2.892-21.18 4.824 0-3.852-.96-8.676-.96-13.488 8.66-6.745 7.7-17.341 8.66-27.937-14.43 5.784-28.91 16.381-37.56 28.91-.96-3.852-1.92-8.664-2.89-12.529 8.66-9.637 9.62-24.085 5.77-35.641-8.66.96-17.35 6.744-21.2 14.448l-.96 6.744-9.63 10.597c-1.92-8.677-5.77-17.341-13.5-23.125-5.77 4.824-7.7 12.528-9.62 19.273-6.75-11.556-20.25-18.301-33.72-18.301.96 9.637 2.89 19.261 7.7 26.978-.96 4.824-1.92 8.676-1.92 13.488-8.66-10.596-21.2-18.3-35.64-17.341-.96 8.664 2.89 16.381 9.62 20.233-1.92 5.785-2.89 11.569-1.92 17.341-6.74-2.892-14.43-6.744-23.12-5.785 1.92 9.637 9.65 20.233 19.27 26.018-6.74-.973-13.47 2.892-16.39-3.852-6.75-7.704-10.58-18.314-12.52-28.897v-.973c8.67-2.892 20.25 0 28.91 2.893-8.66-8.677-13.47-21.193-13.47-33.722 6.74 0 15.4-2.892 22.14-.96 5.79 1.92 11.58 4.812 16.39 8.664-4.81-9.636-8.66-22.152-4.81-32.748 13.47 0 26.02 3.852 36.6 12.528 1.92-5.784 5.77-11.569 10.58-16.38 8.69 2.892 17.36 11.556 18.32 20.232.96.96 0-.959.96-1.919 0-8.677 8.66-17.341 16.36-21.193 5.79-.998 10.6-3.891 17.34-2.931z"/><path d="m2019.77 303.571v8.663l-9.63-8.663c-3.27 2.178-5.93 5.161-7.73 8.663h-.95v-8.663l8.68-9.637c3.84 3.865 5.78 5.785 9.63 9.637zm186.89-7.704c6.75 1.919 12.52 4.824 17.36 11.569 8.66 20.232-8.69 36.6-13.51 53.954 9.65 0 20.25 5.784 24.09 14.448 2.89 15.408 4.81 31.789 6.74 47.21 3.86 28.91 7.71 53.954 11.59 82.851 3.85 18.3-15.43 27.937-23.13 42.385-3.85 2.892-9.62 5.772-14.46 5.772-41.41.959-81.87 0-124.28 0-4.81-1.92-9.62-5.772-10.58-11.556-1.92-6.745.96-14.449.96-22.153 6.74-46.237 12.52-94.42 18.31-140.657 1.92-5.784 5.77-12.516 12.52-15.408 3.85-.96 6.74-2.892 11.55-1.919l-16.36-37.574c-1.92-9.636 1.92-19.26 10.58-26.017 2.89-.96 6.74-2.892 10.61-2.892 25.02-.973 52-.013 78.01-.013z"/><path d="m1849.23 340.184.96 1.92-6.75 9.636c0-9.636-5.77-19.273-13.47-26.977-3.88 16.381-2.89 36.614 2.89 53.954-3.85-1.919-9.65-1.919-13.5-4.824-2.89-7.704-10.58-16.381-19.25-18.301.96 13.489-2.89 30.829 11.56 39.506 0 4.812 1.92 8.664 3.85 13.489 0-.973-1.92 0-1.92-.973-9.62-8.664-22.16-13.489-35.64-12.516.57 4.675 2.15 9.168 4.65 13.162 2.49 3.994 5.83 7.391 9.79 9.95.98 3.852 0 6.745 1.94 9.637l3.85 9.636c-7.73-2.892-15.42-4.824-23.12-2.892 7.7 17.341 26.02 28.91 44.3 30.829h2.89c.96 1.92 0 6.757.96 9.637-12.51-3.852-25.03.96-35.64 5.771 8.69 7.717 22.17 7.717 34.68 6.758 1.92 0 1.92-.973 3.86-1.933 2.92 2.892 4.83 5.785 6.75 8.664-17.35 3.852-37.56 1.932-50.1-9.637l-6.74-7.704h.96c6.74-3.852 15.41-6.744 23.12-9.636-17.35-4.812-31.79-22.153-36.62-38.533 7.73-1.933 17.35-4.825 26.01-1.933-13.47-7.704-19.24-24.085-21.18-39.493 9.63.96 20.22-2.892 27.94 1.933-4.84-13.489-3.88-29.87-.96-44.318l-.96-.96h.96c7.7 2.892 16.37 6.757 22.14 13.489h.96l1.92 1.919h-.96l1.92 1.933c-1.92-16.381 0-32.749 3.85-48.17 11.58 3.852 21.21 16.381 24.1 26.977z"/><path d="m1882.95 314.167c-1.92 11.569 7.73 19.273 5.8 30.829l-.96 7.717c7.7-6.744 18.29-11.569 28.91-15.408 1.92 12.529 4.81 27.937 0 40.466 0 2.892-2.92 5.784-4.84 8.664 12.54.959 22.17-6.745 35.67-5.785-3.88 9.637-2.92 21.193-8.69 30.829-1.92 5.772-4.81 9.624-9.63 14.448 8.67-.959 19.28-1.919 26.98 2.893-9.65 10.596-14.46 26.017-27.94 32.748h-.96c6.75 2.893 14.44 8.664 18.29 14.449-12.51 2.892-25.03 8.663-32.75 20.232-5.77.96-12.51.96-17.32 2.893v-.96c12.51-6.744 21.2-21.193 35.64-26.004-7.71-5.785-18.32-2.893-26.98-1.933-2.89.973-6.75 3.852-7.71 7.704-.95-1.919-.95-6.744-1.91-9.636-.96-3.852-3.86-8.664-2.9-13.489 10.59-6.757 15.41-19.273 16.37-30.829-10.58.96-22.16 4.825-28.91 11.569-.96-4.825-.96-9.637-2.89-12.529v-1.932c11.58-5.772 17.35-22.153 15.42-35.641-9.65 2.892-20.25 12.529-23.12 23.125-.96-4.825-12.52-8.677-4.82-13.489 4.82-11.569 3.86-26.017-2.89-35.654l-3.85-4.811c-8.69 11.556-11.58 29.869-3.88 43.358-1.92 2.892-5.77 6.744-7.7 10.596-.96-.973-1.92-2.905-2.9-4.825-5.77-5.771-11.55-11.556-19.27-13.488.96 10.596 7.73 20.232 15.42 27.936l1.92.96c-.96 5.785-.96 12.529-.96 18.313-6.74-6.744-16.39-8.663-25.06-12.528l-8.66-1.92c.96 11.556 7.71 22.153 17.33 28.91v-.96c0 2.892-.96 6.744-.96 10.596h-.96c-16.37-12.528-24.06-30.829-25.03-50.089 2.89 0 5.77 1.92 7.7 1.92 9.63.959 17.33 2.892 25.06 6.744-8.7-12.399-14.62-26.529-17.35-41.426h-.96c11.55 1.92 22.16 4.825 31.78 12.529-2.89-17.34 2.9-35.654 12.55-49.142 15.4 10.596 20.22 29.869 18.28 48.169 7.03-8 16.52-13.424 26.98-15.408 0 .96 0 1.92.96 2.893 1.92 15.408-3.85 30.829-14.43 42.385 10.58-.96 20.22-4.812 28.91-9.624 4.81 20.233-5.8 36.601-17.36 50.09-.96.959-1.92 2.892-3.85 3.852 10.58-7.704 26.98-2.893 35.64-14.449 4.81-4.812 8.66-10.596 12.52-16.381-8.67-1.919-18.29 0-25.04 3.852 1.92-4.824 3.86-9.636 4.82-14.448 9.62-8.664 9.62-22.152 13.47-33.721-8.66 3.852-18.29 5.784-27.93 6.744l-2.9 1.92c.96-4.825.96-10.597.96-17.341 6.75-8.664 7.71-21.193 2.89-31.789-12.51 5.772-23.12 16.368-29.86 28.897-.96-3.852 0-8.664-1.92-12.529-.96-1.92 1.92-3.852 2.89-5.785 3.85-8.663 1.92-21.192-2.89-29.856-4.82 5.784-7.71 11.556-8.67 18.3-1.92-2.892-3.85-4.824-6.74-7.704 3.86-9.636 10.59-20.232 21.19-26.017z"/><path d="m2018.8 350.793c.96 7.704-.96 16.381-7.71 20.233-2.89 0-3.85-1.919-5.8-3.852-4.81-4.825-3.85-11.569-2.89-17.341h16.4z"/><path d="m2143.07 381.61c-.96 1.919 0 2.892-.96 4.811-2.89.96-6.74-.959-9.62 0-7.73-.959-13.5 2.893-19.27 5.785h-.96c3.85-6.744 9.62-11.569 17.35-13.489 3.84.973 10.58-.959 13.46 2.893zm74.18-1.92c.96 0 1.92.96 2.91 1.932.96 2.893-.98 4.812-2.91 4.812h-27.91c-1.95-.959-2.92-2.892-1.95-4.812l2.92-2.892c7.69.96 17.31-.013 26.94.96zm-243.74 1.92c2.89 16.38-8.67 30.829-21.18 39.492-3.86 0-8.69-.959-13.51-.959 12.55-4.812 23.13-15.408 26.02-27.937-5.77-.96-11.55 1.919-16.37 3.852 1.92-1.933 0-10.596 5.78-10.596 6.74-.96 12.52-1.92 19.26-3.852z"/><path d="m1762.53 386.434c-.96 3.852 1.92 7.704 2.89 11.569-5.77-4.825-13.48-6.744-20.22-7.704 0 7.704 3.85 15.408 10.58 20.233 4.81.96 9.63 2.892 14.46 2.892l5.77 8.664c-12.54 0-25.05-3.852-31.78-13.489-5.78-6.757-6.75-15.421-6.75-24.085 8.4-.847 16.88-.197 25.05 1.92zm380.54 9.637c-.03 1.783-.72 3.493-1.92 4.811-6.74 1.92-15.42-.959-20.24 1.92-3.31 2.581-6.85 4.843-10.59 6.757 1.92-8.677 11.56-14.448 18.32-16.381 4.81.96 12.51-1.932 14.43 2.893zm76.11-1.933c1.94 0 2.92 1.933 2.92 3.852.96 2.892-1.92 3.852-3.88 3.852l-20.22-.96c-1.92-.959-3.85-1.919-3.85-4.811 0-.96 0-.96 1.92-1.933zm-204.24 9.624c0 2.892-.96 4.824-2.89 5.784s-3.85 0-5.8-.96c-1.92-1.932-1.92-3.865-.96-5.784 0-1.92 2.92-2.892 4.84-2.892s3.85.972 4.81 3.852zm-157.98 0c14.43 11.569 17.33 28.909 18.29 46.237-2.9 4.825-6.75 9.636-9.63 14.448 2.9-15.408 4.81-36.6-8.66-48.169-4.84 13.488-4.84 28.909-1.92 44.317-2.92-3.852-4.84-8.664-9.65-11.569v-.96h-.96c-.97-15.395-.01-33.695 12.53-44.304zm285.15 5.797c0 1.92.96 2.892.96 4.812-2.89 4.812-12.51 1.919-17.35 2.892-6.75.96-11.56 4.825-17.33 8.664 2.89-6.744 10.58-16.368 19.27-16.368zm79.97 0c1.92.96 2.9 2.892 1.92 4.812l-1.92 2.892c-6.75 0-13.5.96-20.24-.96-.96-.959-.96-3.852 0-5.771l1.92-.96z"/><path d="m2141.15 424.967c.96 1.92 2.89 4.825.96 6.745l-2.89.96c-5.77.959-16.39-2.893-22.17 2.892-3.85 1.919-6.74 5.784-10.58 6.744 2.89-7.717 10.58-16.381 20.22-17.341zm84.79 4.812c0 .96 0 2.893-1.92 2.893-5.8-.96-14.46 2.892-17.36-2.893-.96-1.919 0-2.892.96-3.852s1.92 0 2.89-.96c5.78.96 13.51-2.892 15.43 4.812zm-240.85 1.933c.96 14.448-10.61 26.017-23.13 31.789-5.77.959-11.55 3.852-17.35 2.892-2.89-.96-4.81-4.812-8.66-4.812 2.89-1.919 3.85-2.892 6.74-4.812 10.61 1.92 22.16-.96 27.94-10.596 1.92-1.92 2.89-3.852 3.85-5.785-7.71 0-15.41-.959-21.18 2.893l4.81-9.637c8.66-.973 17.33-.973 26.98-1.932zm-224.5 2.879c.96 2.892 2.9 6.757 3.86 9.637-6.75-2.893-15.41-2.893-23.1-1.92 1.92 6.744 9.62 13.489 16.36 14.448 5.78 1.92 11.59.96 16.4 0 2.89 1.92 5.77 4.812 8.66 7.704-15.41 2.893-32.75.96-43.34-10.596-4.81-5.784-6.76-11.556-6.76-18.3 9.2-1.751 18.62-2.079 27.92-.973zm381.52 5.784c.96 1.933 1.92 3.853.96 4.825l-2.89 2.893c-3.85-.96-12.52-.96-18.31 0-6.75 1.919-12.52 6.757-18.29 11.569.96-3.852 3.85-6.745 5.77-9.637 7.7-9.636 19.27-11.556 30.83-10.596zm86.72 1.933c0 1.92 0 5.772-2.89 5.772-5.78-.96-12.55 1.919-15.43-3.852 0-1.92 0-3.853 1.92-3.853 5.78 0 11.59-2.879 16.4 1.933zm-378.64 18.3c4.84 7.704 8.69 16.381 10.61 25.045 4.81-11.556 10.58-26.004 23.1-32.749 2.92 3.852 2.92 9.637 3.88 13.489 3.85 6.757 3.85 18.313.96 25.057-4.84 7.705-12.55 14.449-12.55 23.126 12.55-11.557 30.83-13.489 49.15-12.516-11.59 9.623-7.71 28.896-23.13 35.641-6.74 2.892-12.52 5.784-20.25 3.852-3.85 10.596-2.89 24.097-1.91 35.654 0 10.583 9.64 24.084-2.9 30.829-8.66 5.771-21.18 7.704-30.83 1.919-6.74-3.852-12.51-12.516-14.43-20.246 14.43 13.502 26.02-8.663 42.38-4.811l.96.959c0-1.919-.96-4.811-.96-6.744-4.81-.96-8.66-1.919-12.51 0 1.09-2.048 2.76-3.724 4.81-4.812 1.92 0 2.89-1.919 5.77-1.919v-4.812c-3.85 0-7.7 0-11.55.96 2.89-3.852 6.74-6.745 10.58-7.704.96-.96 0-2.893.96-3.878-2.89-.96-6.75-.96-10.59-.96 2.9-2.892 7.71-4.812 11.56-5.772l1.92-7.704c-3.85 0-7.7 1.92-11.56 2.893 7.71-19.273 37.56-4.825 44.31-26.977.96-3.852 3.85-6.758 5.77-10.597-17.33 0-30.83 9.637-43.34 21.193-4.82-15.408 1.92-29.87 11.55-41.426 4.84-5.784 2.89-14.448-.96-20.245-10.58 11.569-19.24 26.017-20.22 42.398-3.85-18.301-7.73-39.493-24.08-51.062-4.81 14.448 3.85 26.004 11.55 37.573 3.86 7.704 5.8 18.301 2.9 27.937h.96c0 .96-.96 0-.96.96h.96c-7.71-6.744-19.25-9.624-29.87-5.772-6.56.941-13.26-.064-19.25-2.892 2.89 6.744 8.66 13.489 16.37 15.408 10.61 2.892 21.2 0 30.83-2.892 1.92-.96 0 1.919.96 3.852 4.83 7.704 3.87 19.26 0 26.99-.96 6.744 2.91 13.476 2.91 21.18-.98 3.852-4.83 6.744-7.73 7.704 2.9-9.624-6.74-16.368-3.85-25.992 2.89-4.811 0-10.609.96-15.421 0-3.852 1.92-6.744 1.92-10.596-9.62 3.852-22.16 6.744-31.79.96-10.58-6.745-18.28-18.301-21.2-30.83 10.61 7.705 26.97 3.853 39.52 3.853 4.81.959 9.62.959 13.47 3.852 1.92-14.449-12.51-21.193-15.41-33.722-3.87-11.556-1.92-24.072 0-36.6 6.77 4.811 15.44 8.663 20.25 16.367zm292.88-3.852c.96 2.893 0 5.772-1.92 5.772-10.58.96-22.16-1.92-28.91 4.812l-9.62 6.757c2.89-8.677 12.52-18.3 23.1-19.26 4.84.96 12.54-1.933 17.35 1.919zm87.68.973c.96 1.92.96 3.852-.96 4.812-4.81-.96-13.5 2.892-15.42-2.892 0-1.92.96-4.812 2.89-4.812 4.82.96 11.57-1.933 13.49 2.892zm-89.6 13.489c1.92.959 1.92 3.852.96 5.771l-1.92.96c-8.66 1.919-20.24-2.892-26.97 3.852-5.78 2.892-9.63 8.664-14.47 11.556 2.92-8.664 10.61-17.341 20.25-21.193 5.76-2.879 15.41-1.919 22.15-.946zm91.53 1.919c.96 1.92.96 3.852-.96 5.772-5.77 0-12.54 1.919-15.42-3.852 0-.96 0-3.852 1.92-3.852 3.86.013 12.53-2.88 14.46 1.932zm-92.49 12.516c.96 0 1.92.96 2.9 1.932 0 1.92 0 3.852-.96 4.812-8.67 2.892-19.28-.96-26.02 3.852-5.77 3.852-12.52 8.664-18.32 14.449 3.88-11.556 14.47-23.113 26.98-26.005zm94.41 1.932c0 2.893.96 4.812-1.92 5.772h-10.58c-.96-.96-3.88-.96-3.88-2.892-.96-1.92.96-2.892.96-4.825 3.88-.96 8.69 0 11.58-.96 1.92.973 2.88 1.946 3.84 2.905z"/><path d="m2192.21 612.821c-.96 10.61-6.75 21.206-12.54 31.789.96-9.623 1.92-22.139.96-31.789 0-1.919.96-4.811.96-6.744 3.87 1.933 7.75 3.852 10.62 6.744zm14.45 14.462s.96-.96 1.92-.96c-3.85 7.704-8.66 15.408-16.37 21.18 2.9-5.772 3.86-14.436 6.75-22.14v-1.919c.96 1.919 3.85 4.811 7.7 3.839z"/><path d="m2239.41 628.255c-9.62 12.516-24.08 19.248-37.56 26.018 3.85-9.65 15.41-13.502 20.25-23.125 1.92 0 .96-2.893 2.89-3.852l-.96-.96c4.8-.013 9.61 2.879 15.38 1.919z"/><path d="m2137.3 691.833c-25.06 15.408-58.77 13.476-86.72 6.745-2.89-.96-6.74-.96-9.62-2.893 24.06 4.812 50.08 4.812 73.22-.959 17.35-4.812 32.74-11.556 46.25-23.125-5.8 8.676-15.43 14.461-23.13 20.232zm-164.75-14.461c15.42 4.838 29.87 8.69 45.29 13.502-21.21-2.893-42.42-9.624-63.58-8.664-12.54-.96-25.06.96-36.6.96v.959c-1.92-3.852-4.84-8.689-8.69-10.609 22.16-.96 43.36-.96 63.58 3.852zm-65.51 2.905c3.85 4.812 1.91 14.436-.96 20.22-3.86 1.92 1.92 3.852.96 6.745 1.91 9.649-.96 19.273-8.67 25.057-7.7 5.785-17.35 5.772-25.06 2.892-.96-.959-2.89-1.919-3.85-1.919 1.92-1.92 4.81-.96 7.71-1.92 9.65-1.919 20.24-8.664 22.16-19.247.96-4.838-1.92-8.69-4.81-11.582 1.92-2.892 5.77-4.812 7.7-8.664.96-2.892-.96-8.663-2.89-12.541-1.92-2.893-3.85-2.893-5.77-4.812 4.81-.986 10.58-.026 13.48 5.771z"/><path d="m1894.52 686.062c0 4.812-2.89 7.704-5.77 10.583-8.69 5.772-21.21 4.812-30.83 2.892-1.92-1.919-3.85-.959-4.84-1.919 12.54-.96 25.06-3.852 34.71-13.476 1.92-1.932 5.77-.972 6.73 1.92zm73.21 12.503c5.78 4.811 14.46 8.663 19.28 14.461-20.25 2.892-37.56 19.247-60.7 12.516-4.07-1.015-7.97-2.637-11.56-4.812l1.92-2.892c17.33 8.664 38.53-.96 52.97-9.65-10.58-6.744-25.06-4.812-38.53-3.852-4.81 0-10.59-.96-13.48-3.852.96-2.892.96-6.744 1.92-9.623 13.5 14.448 32.78-1.92 48.18 7.704zm-109.81 12.541c1.4-2.387 3.39-4.381 5.77-5.797 1.92.96 1.92 3.852 1.92 5.797 0 2.893-1.92 4.812-3.85 6.745-2.89.96-6.75.959-8.69-.96-1.92-1.92-4.81-3.852-3.85-7.73 0-2.892 1.92-3.852 3.85-5.772l2.92-.959c.97 2.879.01 6.731 1.93 8.676z"/><path d="m1930.16 710.121c6.74 0 15.41-2.893 21.21 0-8.69.985-17.36 8.689-27.94 4.837l-5.77-.959c.96-1.92 1.92-5.798 1.92-7.73 2.89 2.892 6.73 2.892 10.58 3.852zm-204.25 23.125c7.73 13.501 18.32 25.057 26.02 37.586 25.06 28.884 51.07 56.821 84.78 76.094 77.06 49.142 184.02 64.55 274.57 33.721 76.1-24.085 147.4-80.931 186.9-153.186l2.89 1.92 87.68 63.578s.96 0 .96.959v157.025l-.96.986c-27.94-18.313-54.92-38.559-82.87-56.847-111.73 103.071-281.3 141.608-430.63 93.448-58.77-18.314-112.72-49.143-159.92-91.528-27.94 18.287-54.91 37.56-81.89 56.846h-.96v-159.943c0-.959-.96-.959 0-1.919 9.65-5.772 17.35-13.476 26.98-18.288 19.27-17.353 44.33-28.909 63.57-46.25 1.92.986 1.92 4.838 2.88 5.798z"/><path d="m2008.21 807.446v4.812c-2.92 0-4.84-1.92-6.75-2.892-2.9-3.852-4.82-6.758-4.82-11.583l.96-.959c4.82.972 8.67 6.77 10.61 10.622zm11.56-3.852c.96 1.92 1.92 3.852 1.92 6.744-.96.96-2.89 0-4.81-.96-2.9-2.892-4.82-5.771-3.86-10.609 1.92.947 5.78 1.92 6.75 4.825zm-12.52 13.475c-.98 1.92-.98 7.705-4.83 8.664-1.92 0-2.9.96-4.82 0-1.92-.959.96-2.892.96-4.811 1.92-2.893 4.81-3.853 8.69-3.853zm11.55 1.933c0 2.892-.96 5.772-3.86 7.704-1.92 0-3.85.96-4.81 0h-.96c0-2.892 1.92-5.771 4.81-7.704 1.94 0 3.86-.973 4.82 0z"/><path d="m1750.97 829.585c-1.92-2.892-2.89-2.892-7.7-.959l-34.69 12.541-.95-.959 15.4-32.749c2.9-5.797 1.92-6.757 0-9.649h.96l10.61 11.582v.959c-2.92-2.892-3.88-2.892-4.84-1.919s-1.91 2.892-3.85 5.771l-8.66 21.206 22.16-8.69c.96 0 2.9-.96 3.86-1.919 1.92-.96.96-2.893-.96-4.812l.96-.96 8.66 9.624zm-16.37 36.627c3.85 2.892 5.77 2.892 8.67 0l17.32-20.246c2.9-3.852 2.9-4.811 0-8.664v-.959l13.51 12.516-.96.959c-2.9-2.892-4.82-3.852-7.73 0l-18.29 20.246c-2.89 2.892-1.92 4.812.96 7.704l-.96.96-13.48-11.556zm59.74 48.157-12.54-9.624v-.96c1.92 1.92 3.85 2.893 4.81.96.96-.96.96-2.892 1.92-3.852l.96-6.744-12.52-8.69-6.74 3.852-1.92 1.946c-.96 1.919.96 3.852 1.92 4.811l-.96.96-9.65-7.73.96-.96c.96.96 1.92.96 2.89.96 1.92 0 6.76-2.892 8.69-4.812l27.94-16.367.96.959-7.7 36.601c-.99 4.812-.99 5.772.96 7.704v.986zm-3.88-22.14 3.88-18.313-15.42 9.624zm94.41 23.1c-2.89-.96-3.85 0-7.7 2.892l-26.02 26.017h-.96v-36.601c0-6.744-.96-7.704-3.85-8.663l.96-.96 14.46 6.744v.96c-3.85-1.92-4.81-1.92-5.77 0v29.869l17.32-17.353s1.92-1.92 2.9-3.852c.97-1.933-.96-2.893-2.9-3.852v-.96l11.56 4.812zm31.81 50.115-31.81-8.664.96-.96c3.88.96 4.84.96 6.76-3.852l6.74-26.017c.96-4.838 0-5.798-3.85-6.757l.96-.96 30.83 8.69-1.92 8.663-1.92-.959c.96-4.812-.96-6.745-6.75-8.664l-8.69-1.92c-.95 0-1.91-.96-1.91 1.92l-3.86 12.516 9.63 2.892c4.83.96 5.79 0 7.73-3.852h.96l-3.86 13.475h-.95c0-4.811 0-5.771-4.84-7.704l-9.63-2.892-3.85 14.461c0 2.893 0 2.893 8.67 5.772 6.74 1.92 10.6.96 14.46-4.812l1.92.96zm57.79 9.623-9.63-.959-11.55-21.18h-3.86l-.96 11.556c-.96 4.812 0 5.772 4.82 6.744l-.96.96-16.4-1.92v-1.919c4.81.96 5.77 0 5.77-4.812l3.86-26.017c.96-4.812 0-4.812-3.86-6.744v-.96l16.4 2.892c5.77 0 15.41 2.892 13.47 12.516-.96 7.73-8.66 8.69-11.55 8.69l9.62 16.368c.96 1.919 2.89 3.852 4.81 3.852zm-24.06-24.098c4.81 0 13.47 1.946 15.4-6.744.96-8.664-6.74-9.623-9.62-9.623-2.89-.96-3.85 0-3.85.959zm40.45 24.098c4.81 0 5.77-.959 5.77-5.771l.96-26.977c0-3.852-.96-4.812-5.77-5.772v-.96l17.35.96v.96c-3.88 0-5.8 0-5.8 4.812l-.95 26.977c0 4.812 1.91 5.771 5.79 5.771v.96h-17.35zm60.7-.959-18.32 1.919v-.96c5.78-.96 5.78-2.892 5.78-6.744l-2.9-30.829-2.89.96c-6.74 0-8.66.959-9.62 7.704l-.96.959v-10.583l33.72-2.892.96 10.583h-.96c-1.92-6.744-3.85-7.704-10.58-6.744h-2.9l1.92 30.829c0 3.852.96 4.812 6.75 4.812zm57.8-9.637-15.42 2.892v-.96c1.92 0 3.85-.959 3.85-2.892 0-.959-1.91-2.892-1.91-3.852l-3.86-4.812-15.41 2.893-1.91 7.704v1.919c.96 2.893 3.85 1.92 4.81 1.92v.96l-11.56 2.892v-.96c.96-.96 1.92-.96 2.89-1.92.96-1.919 1.92-6.744 2.9-9.623l6.74-31.789h.96l21.21 30.829c2.89 3.852 3.85 4.812 6.74 3.852v.947zm-18.31-11.543-10.58-15.421-3.86 17.353zm44.33-26.017-.96.959c-2.89-4.811-7.73-8.689-14.46-6.757-2.89.96-4.81 3.878-3.85 6.757 2.89 8.664 22.16 3.852 26.02 16.368 1.91 4.812 0 11.582-8.67 14.461-4.81.96-7.73 0-9.65 0-.96.96-.96 1.92-.96 2.893h-.96l-5.77-11.582h.96c1.92 1.945 7.7 8.689 15.42 6.757 4.81-1.92 5.77-5.797 4.81-8.69-.96-3.852-2.89-5.771-12.54-7.704-6.74-.96-11.55-2.892-12.51-8.664-2.9-6.744 1.92-11.582 6.74-12.541 3.85-1.92 7.7-.96 8.69-.96 1.92-.96 1.92-1.92 1.92-2.892h.96zm69.35-44.331c-2.89.96-2.89 2.892-2.89 7.73l4.81 35.641-.96.96-28.91-22.166c-4.81-3.852-5.77-3.852-8.66-2.892v-.96l13.47-7.704.96.96c-2.89 1.919-3.85 2.892-2.89 4.812 0 .959 2.89 1.919 4.81 3.852l18.31 13.475-2.89-23.099c0-.96-.96-3.878-.96-4.838-.96-1.919-2.89-.959-5.77 0v-.959l10.58-5.772zm31.79 23.125c3.85-2.892 3.85-3.852 1.92-7.704l-15.41-22.165c-2.89-2.893-3.88-3.852-8.69-.96v-.96l14.46-10.583.96.96c-3.85 2.892-4.81 3.852-1.92 8.663l15.41 21.206c2.89 3.852 4.81 3.852 7.7.96l.96.959-14.43 10.584zm48.18-36.601-13.5 11.556v-.959c3.85-3.852 2.89-4.812 0-7.704l-20.25-23.126-2.89 1.92c-4.81 4.812-4.81 6.744-1.92 12.542l-.96.96-6.74-7.73 26.02-23.1 6.74 7.704-.96.96c-4.81-3.852-6.74-3.852-12.52.96l-1.91 1.92 20.22 23.125c2.89 2.892 3.87 3.852 7.72 0zm42.39-44.33-10.59 11.582-.96-.96c1.92-1.92 2.9-2.892 1.92-4.812-.96-.986-2.89-.986-3.85-1.945l-5.8-1.92-10.58 12.542 2.89 6.744c.96 0 .96.96 1.92 1.92 1.92.959 3.85-.96 3.85-1.92l.96.96-7.7 8.664-.96-.96c.96 0 .96-.96.96-2.892 0-1.933-1.92-6.745-2.89-8.664l-14.44-29.869.96-.96 35.64 11.556c4.82 1.919 5.77 1.919 7.71 0zm-22.17.959-17.33-5.771 7.71 16.394z"/></g></svg>