<svg fill="none" height="56" viewBox="0 0 169 56" width="169" xmlns="http://www.w3.org/2000/svg"><g fill="#fff"><path d="m17.293 41.2227 6.9311-1.7157s-2.9842-20.0948-3.0032-20.2326c-.019-.1379-.1399-.2144-.2402-.2227-.0997-.0083-2.0512-.0379-2.0512-.0379s-1.1894-1.1505-1.6365-1.5861z"/><path d="m16.5384 17.1973c-.0015.0008-.3064.0947-.8198.253-.0859-.2772-.2122-.618-.3924-.9604-.581-1.1043-1.432-1.6883-2.4602-1.6898-.0015 0-.0023 0-.0038 0-.0715 0-.1422.0068-.2137.0128-.0304-.0363-.0609-.0719-.0928-.1068-.4479-.4772-1.0222-.7097-1.7104-.6892-1.3278.0378-2.65035.993-3.72265 2.6896-.75443 1.1937-1.32862 2.6935-1.49136 3.8546-1.52483.4704-2.59105.7991-2.61462.8067-.76963.2409-.79397.2643-.89436.9869-.07529.5461-2.0891069 16.0554-2.0891069 16.0554l16.7075969 2.8775v-24.1243c-.0821.0053-.156.0204-.2024.034zm-3.858 1.19c-.8844.2727-1.8496.5703-2.81765.8687.27225-1.0384.78865-2.0723 1.42285-2.7502.2358-.2522.5659-.5332.9568-.6938.3673.7635.4471 1.8444.438 2.5753zm-1.8092-3.4903c.3118-.0068.5741.0614.7985.2083-.359.1856-.7058.4522-1.0312.7999-.84345.9013-1.4899 2.3003-1.74771 3.65-.80382.2477-1.59023.4909-2.31418.7136.45703-2.1247 2.24501-5.3127 4.29459-5.3718zm-2.58344 12.1031c.08974 1.4157 3.82914 1.7247 4.03904 5.0407.165 2.6086-1.3895 4.3932-3.62916 4.534-2.68838.169-4.16833-1.411-4.16833-1.411l.56962-2.414s1.48982 1.1195 2.68227 1.0445c.77878-.0492 1.05713-.6802 1.02902-1.1263-.11715-1.8466-3.16222-1.7375-3.3546-4.7718-.16201-2.5534 1.52177-5.1408 5.23688-5.3741 1.4312-.0901 2.1644.2743 2.1644.2743l-.8496 3.1652s-.9475-.4294-2.07082-.3589c-1.64802.1037-1.66546 1.1383-1.64872 1.3974zm5.27554-8.8847c-.0098-.6696-.0897-1.6013-.403-2.4064 1.0076.1901 1.5035 1.3255 1.7134 2.0027-.3886.1189-.8313.2552-1.3104.4037z"/><path d="m100.104 41.4027 2.34-12.4292c.294-1.5595.513-2.9432.659-4.0136h1.002l-.366 2.3591h.048c1.051-1.5807 2.516-2.6022 4.079-2.6022 2.223 0 3.053 1.8969 3.053 3.7945 0 3.9406-2.711 8.3646-6.448 8.3646-1.148 0-1.905-.2672-2.344-.5104h-.049l-.925 5.0329zm2.197-6.1054c.538.4132 1.319.6564 2.272.6564 3.101 0 5.251-4.378 5.251-7.3722 0-1.3865-.538-2.9191-2.271-2.9191-1.662 0-3.835 2.0919-4.494 5.6192z"/><path d="m119.003 36.6336c-.025-.7053.121-1.7998.292-3.1374h-.047c-1.344 2.5781-2.833 3.3806-4.372 3.3806-1.779 0-2.857-1.4596-2.857-3.5514 0-3.9647 2.857-8.6106 7.401-8.6106.831 0 1.759.1461 2.369.3403l-1.245 6.3004c-.415 2.1648-.562 4.0405-.513 5.2781zm1.566-10.8002c-.27-.0971-.684-.1701-1.418-.1701-3.37 0-6.007 3.7463-6.032 7.4189-.024 1.5085.415 2.8702 2.003 2.8702 1.905 0 4.057-2.8454 4.616-5.8623z"/><path d="m122.787 36.6336 1.49-7.857c.293-1.4836.465-2.7971.562-3.8186h.977c-.098.7542-.196 1.5326-.342 2.5299h.049c.732-1.5595 1.88-2.7731 3.345-2.7731.148.0014.295.0176.44.0482l-.196 1.0952c-.135-.0314-.275-.0478-.415-.0489-1.538 0-3.248 2.3109-3.737 4.8911l-1.099 5.9353z"/><path d="m133.753 22.3809-.513 2.5788h2.76l-.195.9002h-2.76l-1.295 6.9568c-.146.7798-.244 1.3865-.244 2.0188 0 .6812.317 1.0945 1.05 1.0945.391 0 .635-.0241.854-.0971l.072.8506c-.373.1112-.76.1685-1.148.1701-1.393 0-1.93-.9215-1.93-1.8969 0-.6329.071-1.2412.269-2.1407l1.319-6.9568h-1.685l.17-.9002h1.708l.391-2.0919z"/><path d="m135.731 36.6336 1.566-8.2461c.237-1.1334.417-2.278.538-3.4295h.976l-.319 2.3839h.049c1.025-1.7013 2.491-2.6271 4.078-2.6271 1.148 0 2.614.7294 2.614 2.9432 0 .5834-.098 1.1675-.221 1.7998l-1.343 7.1758h-1.05l1.368-7.1758c.109-.5607.166-1.1302.171-1.7012 0-1.2164-.489-2.0919-1.93-2.0919-1.566 0-3.761 1.9459-4.27 4.7678l-1.148 6.2025z"/><path d="m153.829 35.9772c-.611.3892-1.735.8755-3.2.8755-2.736 0-3.688-2.1408-3.688-4.3787 0-3.3564 2.345-7.7592 5.715-7.7592 1.93 0 2.736 1.2647 2.736 2.5519 0 2.9673-3.417 3.7946-7.254 3.7705-.122.5352-.143 2.0677.098 2.8943.415 1.3383 1.319 1.9706 2.562 1.9706 1.294 0 2.174-.4622 2.711-.7798zm-1.368-10.3139c-1.807 0-3.444 1.9458-4.152 4.4516 3.053.0241 5.984-.4869 5.984-2.7978 0-1.0945-.733-1.6538-1.832-1.6538z"/><path d="m155.979 36.6336 1.49-7.857c.293-1.4836.464-2.7971.561-3.8186h.977c-.098.7542-.195 1.5326-.342 2.5299h.049c.733-1.5595 1.881-2.7731 3.345-2.7731.149.0014.296.0176.44.0482l-.195 1.0952c-.136-.0314-.276-.0478-.415-.0489-1.539 0-3.249 2.3109-3.737 4.8911l-1.099 5.9353z"/><path d="m162.011 35.2714c.617.4034 1.338.6227 2.076.6323 1.539 0 2.562-1.0945 2.562-2.4102 0-1.1682-.488-1.8735-1.587-2.5788-1.148-.7542-1.784-1.7998-1.784-2.8702 0-1.8246 1.466-3.3316 3.517-3.3316.806 0 1.613.2672 1.954.5352l-.391.9009c-.367-.219-1.002-.4862-1.686-.4862-1.416 0-2.344.9732-2.344 2.1889 0 1.0952.611 1.7013 1.588 2.3393 1.123.7542 1.807 1.8238 1.807 2.992 0 2.3591-1.734 3.6727-3.737 3.6727-1.05 0-1.978-.3892-2.369-.7054z"/><path d="m34.134 29.5512c-.8475-.4579-1.2811-.8442-1.2811-1.3752 0-.6755.6058-1.1094 1.5511-1.1094 1.1002 0 2.0832.458 2.0832.458l.7693-2.3641s-.7118-.555-2.81-.555c-2.918 0-4.9422 1.6644-4.9422 4.005 0 1.327.9452 2.3393 2.2064 3.0637 1.017.5792 1.3809.9924 1.3809 1.5928 0 .6274-.5089 1.1342-1.4535 1.1342-1.4078 0-2.7373-.7237-2.7373-.7237l-.8256 2.364s1.2285.8202 3.2946.8202c3.0041 0 5.1599-1.4716 5.1599-4.1256.0029-1.4234-1.0874-2.4371-2.3957-3.1849z"/><path d="m46.1009 24.5785c-1.4776 0-2.6404.6997-3.5366 1.7609l-.0492-.0234 1.2811-6.6832h-3.3372l-3.2461 17.0127h3.3452l1.1136-5.8127c.4364-2.1974 1.5754-3.5443 2.6408-3.5443.7507 0 1.0418.5069 1.0418 1.2306 0 .4941-.0492.987-.146 1.4716l-1.2616 6.6541h3.3449l1.3075-6.876c.1448-.7155.2259-1.4422.2428-2.1719-.0035-1.8842-.9973-3.0184-2.741-3.0184z"/><path d="m56.3975 24.5781c-4.0212 0-6.6846 3.6216-6.6846 7.6508 0 2.5816 1.5986 4.6565 4.6029 4.6565 3.9487 0 6.6128-3.5223 6.6128-7.6479-.0016-2.391-1.4064-4.6594-4.5311-4.6594zm-1.6469 9.7469c-1.1386 0-1.6235-.9648-1.6235-2.1713 0-1.9061.9964-5.018 2.81-5.018 1.1872 0 1.5744 1.013 1.5744 2.0025 0 2.0536-.9929 5.1896-2.7609 5.1896z"/><path d="m69.4769 24.5781c-2.2567 0-3.5378 1.9848-3.5378 1.9848h-.0486l.1936-1.7856h-2.9538c-.1422 1.2051-.4118 3.0403-.6782 4.4155l-2.3251 12.1797h3.3451l.9201-4.9216h.0712s.6863.4345 1.9622.4345c3.9247 0 6.492-4.0051 6.492-8.0583-.0035-2.2436-.9936-4.249-3.4407-4.249zm-3.1969 9.7979c-.5032.0074-.9926-.1634-1.3808-.482l.5572-3.1126c.3872-2.0749 1.4775-3.45 2.6398-3.45 1.0178 0 1.3325.9406 1.3325 1.8338-.0023 2.1471-1.2834 5.2108-3.1487 5.2108z"/><path d="m77.6896 19.8027c-.2533-.0007-.5044.0489-.7386.1459-.2341.097-.4463.2396-.6249.4193-.1779.1797-.3181.393-.413.6274-.094.2344-.1409.4852-.1364.7377 0 .9924.6296 1.6644 1.5743 1.6644h.0482c1.0422 0 1.9383-.6996 1.9622-1.9302 0-.9648-.6539-1.6645-1.6718-1.6645z"/><path d="m73.0146 36.644h3.343l2.2769-11.7983h-3.3673z"/><path d="m87.137 24.8214h-2.3252l.1211-.5543c.1936-1.1342.8719-2.1479 1.9865-2.1479.3623.0006.723.0578 1.0673.1694l.6521-2.6022s-.5814-.2899-1.8172-.2899c-1.1862 0-2.3736.3381-3.2694 1.1101-1.1389.9647-1.6721 2.364-1.9383 3.764l-.0968.5544h-1.55l-.4847 2.5093h1.5501l-1.7686 9.313h3.3452l1.7644-9.3165h2.3009z"/><path d="m95.18 24.8457s-2.0897 5.2456-3.0283 8.1065h-.0476c-.0648-.9215-.8242-8.1065-.8242-8.1065h-3.5126l2.0108 10.8328c.0485.241.0243.3863-.0713.5551-.3878.7478-1.0418 1.4715-1.8171 2.0025-.6297.4586-1.3322.7478-1.8887.9406l.9201 2.8234c.6785-.1418 2.0832-.7003 3.2742-1.8097 1.5258-1.4234 2.9308-3.6194 4.3841-6.6108l4.094-8.7339z"/></g></svg>