<svg fill="none" height="66" viewBox="0 0 195 66" width="195" xmlns="http://www.w3.org/2000/svg" xmlns:xlink="http://www.w3.org/1999/xlink"><clipPath id="a"><path d="m.679688.947998h193.914v64.1039h-193.914z"/></clipPath><g clip-path="url(#a)" fill="#fff"><path d="m92.8194 54.4h10.5436v-.0067h5.805v-23.3071h-11.6098v11.6973h-4.7388c-3.1032.0013-6.0799-1.2298-8.2756-3.4227s-3.4307-5.168-3.4334-8.2712c.0023-3.1035 1.237-6.079 3.4328-8.2723 2.1958-2.1932 5.1727-3.4246 8.2762-3.4232v-11.61822c-12.8911 0-23.3389 10.43432-23.3389 23.31032 0 12.8761 10.4478 23.3138 23.3389 23.3138z"/><path clip-rule="evenodd" d="m66.9941 54.393c-6.185.0027-12.1178-2.4513-16.4936-6.8224-4.3759-4.3711-6.8363-10.3013-6.8403-16.4862.0044-6.1847 2.4651-12.1145 6.8409-16.4852 4.3757-4.3707 10.3083-6.82453 16.493-6.82185v11.61815c-6.4658 0-11.704 5.2315-11.704 11.6905 0 6.4591 5.2382 11.6905 11.704 11.6905z" fill-rule="evenodd"/><path d="m17.0282 7.77734h-10.54362v.00673h-5.804892v23.30873h11.609812v-11.6989h4.7387c3.1035-.0014 6.0805 1.23 8.2763 3.4232 2.1957 2.1932 3.4305 5.1688 3.4327 8.2723-.0027 3.1032-1.2376 6.0783-3.4333 8.2712-2.1958 2.1929-5.1725 3.424-8.2757 3.4227v11.6181c12.8912 0 23.339-10.4343 23.339-23.3103 0-12.8761-10.4478-23.31376-23.339-23.31376zm104.4848 0h4.555c3.762 0 6.179 2.78306 6.179 6.59696 0 3.8138-2.417 6.5784-6.179 6.5784h-4.555zm4.463 11.75606c2.766 0 4.463-2.0633 4.463-5.1776 0-3.1144-1.697-5.16087-4.463-5.16087h-2.766v10.33677zm7.912-11.75606h1.863v2.06333h-1.863zm.092 3.68436h1.66v9.4893h-1.66zm3.616 9.8223h1.696c.296 1.1048 1.125 1.6395 2.583 1.6395 1.383 0 2.639-.681 2.639-2.635v-1.2343c-.738 1.1973-1.845 1.7135-3.099 1.7135-2.287 0-4.151-2.0263-4.151-4.8094 0-2.7645 1.864-4.7354 4.151-4.7354 1.254 0 2.47.5886 3.099 1.6581v-1.4193h1.66v8.7881c0 2.9663-2.121 4.0342-4.354 4.0342-2.38.0016-3.965-1.1234-4.223-3.0017zm4.167-1.8986c1.715 0 2.84-1.4377 2.84-3.4271 0-2.0078-1.125-3.3531-2.84-3.3531-1.697 0-2.803 1.3453-2.803 3.3531 0 1.9911 1.106 3.4271 2.803 3.4271zm6.474-11.60806h1.863v2.06333h-1.863zm.092 3.68436h1.66v9.4893h-1.66zm4.517 7.278v-5.9142h-1.512v-1.3638h1.088c.258 0 .424-.1648.424-.4052v-2.72591h1.641v3.13281h2.086v1.3638h-2.086v5.6569c0 .8105.221 1.1048.977 1.1048h1.347v1.3638h-1.824c-1.458.0017-2.139-.6239-2.139-2.2096zm4.926-.3498c0-2.2113 1.9-2.709 3.449-2.9108l2.048-.2758c.756-.111.903-.5331.903-.977 0-.9215-.627-1.6766-2.048-1.6766s-2.232.6643-2.378 1.8229h-1.66c.204-1.8985 1.734-3.1513 4.002-3.1513 2.526 0 3.725 1.2528 3.725 3.3901v4.6059c0 .2035.165.3683.388.3683h.591v1.3637h-1.125c-.903 0-1.403-.4792-1.403-1.1603v-.2404c-.829 1.2343-2.14 1.6395-3.319 1.6395-1.936.0034-3.17-1.1199-3.17-2.7965zm3.597 1.4748c1.696 0 2.803-1.2528 2.803-3.1126v-.6643c-.313.1648-.646.2203-.959.2758l-1.678.2573c-1.439.2203-2.048.7365-2.048 1.695.002.9771.74 1.5488 1.882 1.5488zm6.896-12.08736h1.66v13.17366h-1.66zm-47.435 23.66686c0-4.1098 2.454-6.8357 5.958-6.8357 3.062 0 4.979 1.8985 5.368 4.7354h-1.791c-.333-1.7321-1.44-3.2791-3.577-3.2791-2.618 0-4.185 2.3038-4.185 5.3626s1.622 5.3794 4.185 5.3794c2.232 0 3.449-1.6025 3.708-3.3363h1.789c-.535 3.2069-2.618 4.7909-5.495 4.7909-3.562.0017-5.958-2.7074-5.958-6.8155zm13.039 3.0403v-5.9511h1.66v5.8402c0 1.658.942 2.5072 2.306 2.5072 1.346 0 2.562-1.1788 2.562-2.8755v-5.4719h1.66v9.4892h-1.66v-1.4747c-.627 1.1418-1.807 1.7135-3.154 1.7135-1.973 0-3.374-1.3083-3.374-3.7769z"/><path d="m144.145 28.5336h1.659v1.4748c.591-1.162 1.495-1.5858 2.602-1.5858h.534v1.5656h-.664c-1.512 0-2.47.94-2.47 2.8923v5.1407h-1.66v-9.4876z"/><path d="m150.34 28.5336h1.66v1.4748c.59-1.162 1.495-1.5858 2.601-1.5858h.535v1.5656h-.664c-1.512 0-2.471.94-2.471 2.8923v5.1407h-1.659v-9.4876z"/><path d="m155.616 33.2876c0-2.8554 1.752-4.9944 4.537-4.9944 2.361 0 4.426 1.3268 4.206 5.4165h-7.028c.111 1.732.922 3.2253 2.822 3.2253 1.384 0 2.083-.6996 2.416-1.7321h1.679c-.461 1.8431-1.88 3.0589-4.095 3.0589-2.786 0-4.539-2.1189-4.539-4.9759zm7.12-.8291c-.111-1.9338-.996-2.8368-2.581-2.8368-1.734 0-2.582 1.2528-2.785 2.8368zm3.188-3.9248h1.66v1.4378c.627-1.0494 1.826-1.6783 3.208-1.6783 2.065 0 3.505 1.2898 3.505 3.8139v5.9159h-1.66v-5.8234c0-1.6581-.942-2.5241-2.342-2.5241-1.475 0-2.711 1.1973-2.711 2.8755v5.472h-1.66zm9.848 4.7539c0-2.8369 1.789-4.9944 4.574-4.9944 2.177 0 3.761 1.3268 4.076 3.5011h-1.678c-.276-1.3268-1.199-2.1373-2.417-2.1373-1.972 0-2.84 1.7135-2.84 3.6121 0 1.8985.868 3.6289 2.84 3.6289 1.236 0 2.065-.6811 2.417-1.991h1.659c-.349 2.0078-1.824 3.3531-4.076 3.3531-2.764.0017-4.555-2.1357-4.555-4.9725zm11.527 6.5044c.59 0 .866-.111 1.088-.681l.479-1.2713-3.835-9.3043h1.787l2.859 7.2056 2.655-7.2056h1.734l-4.261 11.1473c-.461 1.2158-1.162 1.4748-2.286 1.4748h-1.863v-1.3638h1.643zm-66.467 8.7242c0-4.1099 2.509-6.8358 6.067-6.8358 3.079 0 4.961 1.8986 5.349 4.7169h-1.789c-.257-1.695-1.512-3.2606-3.56-3.2606-2.673 0-4.298 2.3038-4.298 5.3626 0 3.0589 1.66 5.3795 4.278 5.3795 1.863 0 3.669-1.0695 3.891-4.0897h-4.241v-1.4176h5.866v6.7248h-1.568v-2.0634c-.829 1.4008-2.194 2.3038-4.278 2.3038-3.208-.0016-5.717-2.709-5.717-6.8189zm13.851-2.9126h1.66v1.4748c.59-1.1603 1.495-1.5858 2.602-1.5858h.534v1.5656h-.664c-1.512 0-2.47.94-2.47 2.8924v5.1406h-1.66v-9.4876zm5.276 4.7539c0-2.8368 1.696-4.9943 4.574-4.9943 2.877 0 4.573 2.1558 4.573 4.9943 0 2.8386-1.696 4.9742-4.573 4.9742-2.878 0-4.574-2.1373-4.574-4.9742zm4.572 3.6104c2.065 0 2.859-1.7875 2.859-3.6289 0-1.8615-.794-3.6121-2.859-3.6121-2.085 0-2.859 1.7506-2.859 3.6121 0 1.8431.774 3.6289 2.859 3.6289zm6.049-2.4114v-5.9512h1.659v5.8402c0 1.6581.942 2.5073 2.306 2.5073 1.347 0 2.563-1.1788 2.563-2.8756v-5.4719h1.659v9.4893h-1.659v-1.4748c-.628 1.1418-1.808 1.7136-3.155 1.7136-1.971 0-3.373-1.3083-3.373-3.7769zm10.272-5.9529h1.66v1.4378c.337-.5313.807-.9653 1.363-1.2594.557-.294 1.18-.4378 1.809-.4172 2.305 0 4.15 2.0264 4.15 5.0112 0 2.9849-1.845 4.9557-4.15 4.9557-1.327 0-2.491-.5717-3.172-1.6581v4.5505h-1.66zm4.426 8.3475c1.808 0 2.841-1.4933 2.841-3.5734s-1.035-3.6289-2.841-3.6289c-1.789 0-2.84 1.5471-2.84 3.6121s1.051 3.5902 2.84 3.5902z"/></g></svg>