<svg fill="none" height="56" viewBox="0 0 85 56" width="85" xmlns="http://www.w3.org/2000/svg"><g fill="#fff"><path d="m19.9944 35.8078v6.1828h-1.9475v-15.2562h5.1733c1.3183 0 2.4268.4416 3.3457 1.3249.9287.8832 1.3981 1.9572 1.3981 3.2218 0 1.2647-.4694 2.3688-1.3981 3.242-.9089.8631-2.0174 1.3048-3.3457 1.3048h-3.2258zm0-7.2065v5.3296h3.2657c.779 0 1.4182-.261 1.9275-.7929.5194-.522.789-1.1543.789-1.8769 0-.7227-.2597-1.3249-.789-1.8569-.5093-.542-1.1485-.813-1.9275-.813h-3.2657z"/><path d="m33.1769 31.2112c1.4382 0 2.5767.3915 3.4156 1.1643.8289.7728 1.2484 1.8368 1.2484 3.1817v6.4337h-1.8676v-1.4453h-.0799c-.8089 1.1944-1.8776 1.7866-3.2258 1.7866-1.1485 0-2.1073-.3413-2.8763-1.0238s-1.1585-1.5357-1.1585-2.5594c0-1.084.4095-1.9372 1.2184-2.5795.809-.6424 1.8976-.9636 3.2558-.9636 1.1585 0 2.1173.2108 2.8663.6424v-.4517c0-.6825-.2696-1.2646-.8089-1.7364-.5393-.4717-1.1685-.7126-1.8876-.7126-1.0886 0-1.9475.4617-2.5867 1.3851l-1.7177-1.084c.9487-1.365 2.3469-2.0475 4.1945-2.0475zm-2.5267 7.588c0 .5119.2197.9334.6492 1.2747.4294.3412.9387.5118 1.518.5118.8189 0 1.548-.3011 2.1972-.9133.6391-.6123.9687-1.3249.9687-2.1479-.6092-.4818-1.4581-.7227-2.5467-.7227-.789 0-1.4481.1907-1.9874.5721-.5293.3814-.799.8632-.799 1.4253z"/><path d="m40.0488 31.5514h1.8676v1.7063h.0799c.5793-1.3349 1.7777-2.0074 3.5854-2.0074l.3995.0401v2.0476l-.8689-.0803c-.9088 0-1.6479.281-2.2371.8431-.5893.5621-.8789 1.2747-.8789 2.1379v5.7512h-1.9475zm12.1743 10.6091c-.8489 0-1.548-.261-2.1073-.7929-.5593-.522-.8489-1.2547-.8589-2.1981v-5.8416h-1.8276v-1.7865h1.8276v-3.1918h1.9475v3.1918h2.5467v1.7865h-2.5467v5.1992c0 .6926.1298 1.1643.3995 1.4152.2696.2509.5692.3714.9088.3714.1598 0 .3096-.0201.4594-.0502.1498-.0401.2896-.0803.4095-.1405l.6192 1.7464c-.5094.1807-1.0986.2811-1.7777.2811z"/><path d="m55.7178 31.5522h1.8676v1.4453h.0799c.2996-.5119.749-.9334 1.3682-1.2747.6192-.3412 1.2584-.5119 1.9175-.5119 1.2684 0 2.2471.3614 2.9362 1.0941s1.0287 1.7765 1.0287 3.1215v6.5642h-1.9475v-6.4338c-.04-1.7062-.8988-2.5594-2.5667-2.5594-.779 0-1.4281.3212-1.9475.9435-.5193.6323-.7889 1.3851-.7889 2.2684v5.7712h-1.9475v-10.4384z"/><path d="m71.8775 42.3319c-1.5281 0-2.7864-.5219-3.7752-1.5758-.9887-1.0539-1.488-2.3788-1.488-3.9847s.4793-2.9107 1.4381-3.9746c.9588-1.0539 2.1872-1.5859 3.6852-1.5859 1.4981 0 2.7665.5019 3.6753 1.5056s1.3682 2.4089 1.3682 4.2055l-.02.2108h-8.1594c.03 1.0237.3695 1.8468 1.0187 2.4691.6491.6222 1.4281.9334 2.3369.9334 1.2484 0 2.2172-.6223 2.9263-1.8769l1.7377.8531c-.4694.8833-1.1086 1.5658-1.9375 2.0676-.8289.5019-1.7677.7428-2.8063.7428zm-3.116-6.8151h5.9623c-.06-.7227-.3496-1.3249-.8789-1.7966-.5293-.4718-1.2384-.7126-2.1272-.7126-.7391 0-1.3683.2308-1.8976.6825-.5293.4516-.8788 1.0639-1.0486 1.8367z"/><path d="m80.5256 41.9912h-1.9475v-10.4384h1.8676v1.7063h.0799c.1997-.5521.6092-1.0238 1.2184-1.4152.6192-.3915 1.2184-.5822 1.8177-.5822.5992 0 1.0486.0803 1.4381.2509l-.5892 1.897c-.2397-.1003-.6192-.1505-1.1485-.1505-.7391 0-1.3783.3011-1.9176.8933-.5492.5921-.8189 1.2947-.8189 2.0877z"/><path d="m22.4605 17.8133v1.3349h3.1659c-.0999.8431-.4494 1.4955-1.0386 1.9572-.5793.4617-1.2884.6926-2.1273.6926-.9787 0-1.7977-.3413-2.4668-1.0338-.6691-.6825-1.0087-1.5156-1.0087-2.5093 0-.9936.3396-1.8267 1.0087-2.5092.6691-.6926 1.4981-1.0338 2.4668-1.0338.9188 0 1.7078.3212 2.3869.9535l.9388-.9435c-.9388-.8933-2.0473-1.3449-3.3257-1.3449-.8689 0-1.6878.2208-2.4568.6624-.769.4316-1.3682 1.0338-1.8077 1.7966-.4294.7427-.6491 1.5457-.6491 2.4089s.2197 1.6762.6491 2.4289c.4295.7528 1.0387 1.345 1.8077 1.7866s1.5879.6625 2.4568.6625c1.3083 0 2.3969-.4116 3.2558-1.2346.8489-.813 1.2783-1.897 1.2783-3.2419 0-.3212-.0199-.5922-.0699-.8331h-4.4542z"/><path d="m30.591 16.8496c-.8888 0-1.6379.3011-2.2371.9033-.5992.5922-.8988 1.335-.8988 2.2383s.2996 1.626.9088 2.2382c.5992.6022 1.3383.9034 2.2271.9034.8889 0 1.6279-.3012 2.2271-.9034.6093-.6122.9089-1.355.9089-2.2382 0-.8833-.2996-1.636-.9089-2.2383-.5992-.6022-1.3382-.9033-2.2271-.9033zm1.2384 4.4966c-.3395.3613-.749.542-1.2384.542-.4893 0-.9188-.1807-1.2584-.542-.3395-.3614-.5093-.813-.5093-1.355s.1698-1.0037.5093-1.355c.3396-.3613.7591-.542 1.2584-.542.4994 0 .9188.1807 1.2584.542.3396.3513.5093.8029.5093 1.355 0 .552-.1697.9836-.5193 1.355z"/><path d="m49.4258 13.7168h-1.3682v9.224h1.3682z"/><path d="m37.4309 16.8496c-.8889 0-1.6379.3011-2.2371.9033-.5993.5922-.8989 1.335-.8989 2.2383s.2996 1.626.9088 2.2382c.5993.6022 1.3383.9034 2.2272.9034.8888 0 1.6279-.3012 2.2271-.9034.6092-.6122.9088-1.355.9088-2.2382 0-.8833-.2996-1.636-.9088-2.2383-.5992-.6022-1.3383-.9033-2.2271-.9033zm1.2384 4.4966c-.3396.3613-.7491.542-1.2384.542-.4894 0-.9188-.1807-1.2584-.542-.3396-.3614-.5093-.813-.5093-1.355s.1697-1.0037.5093-1.355c.3396-.3613.759-.542 1.2584-.542.4993 0 .9188.1807 1.2583.542.3396.3513.5094.8029.5094 1.355 0 .552-.1698.9836-.5194 1.355z"/><path d="m53.1909 21.8884c-.6891 0-1.1884-.3211-1.518-.9535l4.1746-1.7364-.1398-.3613c-.1099-.2911-.2497-.5621-.4295-.813-.1797-.2409-.3795-.4617-.6092-.6323-.2297-.1807-.4794-.3112-.759-.4115-.2796-.0904-.5693-.1406-.8789-.1406-.8389 0-1.538.3012-2.1072.8933-.5593.6023-.8389 1.355-.8389 2.2483s.2996 1.636.8888 2.2383c.5892.6022 1.3283.9033 2.2072.9033 1.1085 0 1.9674-.4617 2.5966-1.3951l-1.0686-.7127c-.3895.5822-.8989.8632-1.538.8632zm-1.2683-3.3021c.3495-.3513.729-.5219 1.1585-.5219.2696 0 .5093.0602.7191.1806.2097.1205.3595.2811.4394.4818l-2.7864 1.1643c-.02-.532.1398-.9636.4694-1.3048z"/><path d="m45.8111 17.5522h-.0499c-.3895-.4717-.9388-.7026-1.6479-.7026-.8089 0-1.508.3112-2.1073.9234-.5892.6223-.8888 1.355-.8888 2.2182s.2996 1.5959.8888 2.2081c.6093.6123 1.3083.9134 2.1073.9134.6991 0 1.2484-.2409 1.6479-.7126h.0499v.3211c0 1.3149-.5593 1.9773-1.6678 1.9773-.3596 0-.6692-.1003-.9488-.3111s-.4894-.4718-.6292-.813l-1.1984.5018c.1198.2811.2696.532.4494.7528.1798.2309.3895.4216.6292.5822.2397.1605.4993.291.789.3814.2796.0903.5792.1405.8988.1405.9288 0 1.6578-.2811 2.1772-.8532.5193-.562.7889-1.375.7889-2.4189v-5.6307h-1.2983v.5119zm-.3895 3.804c-.3196.3613-.7191.532-1.1785.532-.4893 0-.8988-.1807-1.2384-.542-.3295-.3614-.4993-.813-.4993-1.345 0-.5319.1698-.9936.5093-1.355.3496-.3713.7591-.562 1.2284-.562.4694 0 .8689.1806 1.1785.542.3196.3713.4894.833.4894 1.365 0 .5319-.1598.9836-.4894 1.355z"/><path d="m9.94713 9h-9.94713v38h9.94713z"/></g></svg>