<svg fill="none" height="88" viewBox="0 0 88 88" width="88" xmlns="http://www.w3.org/2000/svg"><path clip-rule="evenodd" d="m43.3791 77.1214c18.6392 0 33.7423-15.1031 33.7423-33.7423 0-18.6258-15.1031-33.74238-33.7423-33.74238-18.6393 0-33.74238 15.10308-33.74238 33.74238 0 18.6392 15.10308 33.7423 33.74238 33.7423zm5.8846-39.2489h8.719v-2.3889h-5.7631c.1619-.9043.7153-1.4172 1.849-1.9841l1.0663-.5399c1.8896-.9717 2.9018-2.065 2.9018-3.8601 0-1.1202-.4319-2.011-1.3092-2.6589-.8503-.6478-1.8895-.9583-3.0908-.9583-.9582 0-1.8355.243-2.6319.7424-.7828.4993-1.3767 1.1202-1.7411 1.903l1.6736 1.6736c.6479-1.3092 1.5792-1.957 2.8209-1.957 1.0393 0 1.6871.5399 1.6871 1.2822 0 .6209-.3104 1.1472-1.5116 1.7546l-.6749.3374c-1.4846.7559-2.5104 1.6062-3.1043 2.5779-.5938.9583-.8908 2.1865-.8908 3.6712zm-1.5926 2.7534h9.5423l4.7779 8.2601-4.7644 8.2601-4.7779-8.2601h-9.5423zm-14.9546 2.7669c0 6.0736 4.9399 11.0135 11.0135 11.0135 2.7399 0 5.2503-1.0123 7.1669-2.6589l4.184 7.2343c-3.1853 2.3215-7.1129 3.6982-11.3509 3.6982-10.6626 0-19.2871-8.6381-19.2871-19.2871 0-10.6356 8.638-19.2737 19.2871-19.2737 1.2957 0 2.5509.1215 3.7791.3645l-3.7791 7.8957c-6.0736 0-11.0135 4.9398-11.0135 11.0135z" fill="#fff" fill-rule="evenodd"/></svg>