<svg fill="none" height="40" viewBox="0 0 113 40" width="113" xmlns="http://www.w3.org/2000/svg" xmlns:xlink="http://www.w3.org/1999/xlink"><clipPath id="a"><path d="m0 0h113v40h-113z"/></clipPath><g clip-path="url(#a)" fill="#090a0b"><path d="m39.924 20.0883c.5469 0 1-.0593 1.3598-.1786.3593-.1182.6442-.285.8557-.4983.2111-.2138.3553-.4714.4337-.7719.078-.3006.1172-.6337.1172-.9977 0-.301-.0473-.5897-.141-.8669-.0939-.2768-.2538-.5226-.4802-.7364-.2268-.2137-.5392-.38-.9378-.4988-.3985-.1187-.9025-.1786-1.5126-.1786h-2.4142v4.7272zm-6.1662-7.6484h5.9313c1.3134 0 2.3954.1544 3.2476.4632.8511.3084 1.5197.7126 2.0044 1.2114.4842.4988.8201 1.0533 1.0076 1.6627s.2813 1.2078.2813 1.7929c0 1.0931-.1952 2.0117-.5856 2.7557-.3913.7442-1.0478 1.3699-1.9697 1.8766l3.3993 7.1971h-3.7745l-2.8128-6.3658h-3.2821v6.3658h-3.4468z"/><path d="m56.1978 21.8222c0-.8551-.2075-1.5202-.6214-1.9953-.4142-.475-1.0589-.7126-1.934-.7126-.4379 0-.8206.0713-1.1488.2139-.3277.1425-.6059.3361-.8322.5814-.2264.2462-.4027.5313-.5271.8556-.1258.3243-.1961.677-.2115 1.057zm3.0242 3.7054c-.2187 1.3937-.77 2.4507-1.6528 3.171-.8831.7204-2.1685 1.0808-3.8565 1.0808-2.0319 0-3.5595-.5701-4.5833-1.7103-1.0239-1.14-1.5356-2.7553-1.5356-4.8455 0-1.0451.1483-1.9752.4455-2.791.297-.8153.715-1.5082 1.2546-2.0783.5387-.5701 1.1835-1.0013 1.9342-1.2945.7502-.2928 1.5784-.4394 2.4846-.4394 1.8755 0 3.2858.5463 4.2316 1.6389.9459 1.0926 1.4189 2.5648 1.4189 4.418v1.3302h-8.4872c.0315.9976.2812 1.7777.7501 2.3396.4689.5623 1.1722.8433 2.11.8433 1.2971 0 2.0631-.5541 2.2975-1.6628z"/><path d="m69.936 22.7723c0-.7441-.082-1.3457-.2461-1.8052-.1641-.4591-.3792-.8118-.6452-1.0575-.2655-.2453-.5622-.407-.8904-.4865-.3283-.0789-.6565-.1187-.9847-.1187-.3597 0-.6992.0634-1.0198.19-.3205.127-.6019.3325-.8444.6176-.2422.285-.4333.6495-.574 1.0922-.1406.444-.2109.9743-.2109 1.5919 0 1.3146.2462 2.2446.7384 2.7909.4924.5458 1.1056.8195 1.8404.8195.4062 0 .7853-.0594 1.1365-.1786.3522-.1183.6529-.3083.9027-.5701.2502-.2608.4459-.6011.5866-1.0209.1406-.4193.2109-.93.2109-1.5321zm-5.017 7.4109c.0623.3166.1524.5701.2696.7601.1168.19.2732.3403.4689.4513.1952.1106.4297.1859.7034.2256.2732.0393.6055.0594.9962.0594.6096 0 1.0862-.1151 1.4302-.3444.3435-.2298.5978-.5344.7619-.9145.1641-.38.2655-.8157.3048-1.3064.0387-.4906.0586-.9976.0586-1.5202v-.38c-.4067.602-.926 1.0569-1.5591 1.3658-.6329.3088-1.3479.4631-2.1455.4631-1.7191 0-3.0044-.5618-3.8561-1.6864-.8521-1.1241-1.2777-2.6365-1.2777-4.5367 0-.9027.1208-1.7341.3634-2.4941.2421-.7606.5897-1.4134 1.0432-1.9597.4532-.5463 1.0117-.9739 1.6763-1.2826.6641-.3088 1.4102-.4631 2.2384-.4631.6569 0 1.2936.1269 1.9112.38.6172.2535 1.1839.7203 1.6996 1.4014v-1.4014h3.1885v10.665c0 1.0451-.1055 1.9752-.3165 2.791-.211.8148-.5474 1.5082-1.0081 2.0783-.4613.5701-1.0632 1.0009-1.8053 1.2945-.7424.2928-1.6451.4394-2.7078.4394-.9846 0-1.825-.0835-2.5206-.2493-.6956-.1663-1.2696-.4198-1.7227-.7601-.4535-.3408-.8011-.7683-1.0432-1.2831-.2425-.5148-.4026-1.1123-.4806-1.7929z"/><path d="m76.5 12.4399h10.9952v3.0404h-7.502v3.9905h7.0561v3.0404h-7.0561v6.8883h-3.4932z"/><path d="m94.9041 27.1187c.9377 0 1.637-.3404 2.0983-1.021.4602-.681.6911-1.6549.6911-2.9221 0-1.2667-.2309-2.2328-.6911-2.8978-.4613-.6651-1.1606-.9977-2.0983-.9977s-1.6375.3326-2.0983.9977c-.4612.665-.6911 1.6311-.6911 2.8978 0 1.2827.2258 2.2607.6794 2.9335.4532.6733 1.1565 1.0096 2.11 1.0096zm0 2.6602c-1.9693 0-3.4932-.5701-4.5716-1.7101-1.0784-1.1402-1.6177-2.7709-1.6177-4.8932 0-1.0131.1443-1.9275.4338-2.7434.2889-.8154.7033-1.5042 1.2425-2.0665.5396-.5618 1.1916-.9935 1.9576-1.2945.7656-.3006 1.6177-.4508 2.5554-.4508.9531 0 1.8128.1502 2.5789.4508.7655.301 1.4184.7327 1.9578 1.2945.5385.5623.9492 1.2511 1.2302 2.0665.281.8159.423 1.7303.423 2.7434 0 1.0297-.145 1.9523-.434 2.7673-.29.8158-.704 1.5087-1.2434 2.0788-.5385.5701-1.1914 1.0054-1.9569 1.306-.7662.3005-1.6179.4512-2.5556.4512z"/><path d="m105.595 23.0332-4.01-6.0332h3.869l2.086 3.5387 2.345-3.5387h3.423l-3.962 5.8431 4.267 6.5559h-3.799l-2.484-4.038-2.603 4.038h-3.563z"/><path d="m4.02418 22.2969c.01489-3.5661 1.10053-6.5265 4.37683-9.37 1.25425-1.0885 2.71589-2.6621 3.31959-3.63825 3.1397 4.54725-.1908 9.32255-.9581 12.30895-.76686 2.9861-.6654 7.6384 1.9102 10.2298-3.54989 0-8.67376-3.5219-8.64852-9.5305zm25.37612-4.3897c-.0102-.6947-1.5728-.5888-2.9258-.8715-2.7957-.5833-4.1212-3.0847-5.1955-7.3894-.2277-.91219-.8837-1.24702-1.7375-.43851-.9988.94551-2.5249 2.22231-3.1217 2.72151-.3963-2.99878-2.6393-6.40457-4.3764-7.79-.2205-.17541-.5658-.15759-.711.08542-.8088 1.35208-2.082 3.09654-3.99269 4.8031-4.95886 4.42808-7.945716 9.13158-6.75999 15.48908 1.40619 7.4704 7.34068 11.0278 14.39098 10.6025 1.9657-.1182 3.3841-.5011 4.3025-.9126.371-.1663.4274-.7062.0703-.9017-1.9873-1.0895-5.2907-4.0897-5.2812-7.7079.0077-3.028 1.6924-6.569 2.4859-9.4239.8183-.6276 2.174-1.7988 2.8174-2.3716.5266 1.6521 1.348 3.7968 3.5987 5.0479-4.5189 1.031-5.8511 4.6899-5.4088 7.5507.2885 1.8687 1.715 3.012 2.164 2.8435.4504-.1695.3391-1.8733.3931-3.1537.1339-3.1605 1.8124-3.816 6.4354-5.5549 1.674-.63 2.8665-1.6025 2.8523-2.628z"/></g></svg>