<svg fill="none" height="40" viewBox="0 0 141 40" width="141" xmlns="http://www.w3.org/2000/svg"><path clip-rule="evenodd" d="m17.0057 29.7107c1.8117 1.2724 3.7296 2.4027 5.7405 3.371-6.564 3.0016-12.5444 3.2928-14.49267 3.3003l-.19747-.0002c-.30159-.0018-.46403-.0101-.46622-.0101 3.49076-1.7121 6.66566-3.9701 9.41586-6.661zm7.1766-9.8752c.6451.4462 1.3087.8673 1.9923 1.2604-2.4369 4.6421-5.1114 7.4433-5.1114 7.4433 2.555-2.1039 4.6017-4.5265 6.2051-6.8469 2.2975 1.1901 4.7756 2.0786 7.3837 2.6086-2.5882 2.8835-5.6277 5.3513-9.0083 7.2892-2.4237-1.0147-4.7199-2.2739-6.8595-3.7455 2.1343-2.4054 3.9554-5.0964 5.3981-8.0091zm27.7292-2.819c1.8226 0 3.1978.7155 4.2336 1.6288l-1.5137 2.4504c-.6177-.456-1.3446-1.0037-2.5495-1.0037-1.4524 0-2.3164 1.0496-2.3178 2.2512 0 1.2016.8654 2.2525 2.3178 2.2525 1.2049 0 1.9318-.5477 2.5495-1.005l1.5137 2.4504c-1.0358.9133-2.411 1.6287-4.2336 1.6287-3.2284 0-5.654-2.297-5.654-5.3266 0-3.0283 2.4256-5.3267 5.654-5.3267zm8.8195 0v3.7593h3.7581v-3.7593h3.445v10.6533h-3.445v-3.9171h-3.7581v3.9171h-3.4451v-10.6533zm12.5272 0v10.6533h-3.4226v-10.6533zm5.361 0v7.6764h4.9069v2.9769h-8.3664v-10.6533zm9.4704 0v10.6533h-3.4227v-10.6533zm10.8902 0c2.1312 0 3.9412 1.2855 3.9412 4.0574 0 2.5075-1.81 3.9953-3.9412 3.9953h-2.1931v2.6006h-3.373v-10.6533zm8.5042 0v10.6533h-3.422v-10.6533zm7.469 0c2.131 0 3.94 1.2855 3.94 4.0574 0 2.5075-1.809 3.9953-3.94 3.9953h-2.194v2.6006h-3.373v-10.6533zm13.828 0v2.977h-5.479v.9401h4.343v2.7409h-4.343v1.0184h5.479v2.9769h-8.747v-10.6533zm7.524 0c2.118 0 3.703 1.2234 3.703 3.6352 0 1.338-.732 2.4104-1.876 2.9595l-.105.0485 2.543 3.2265v.7836h-3.352l-2.635-3.6648h-.549v3.6648h-3.352v-10.6533zm-108.8642-7.23691c5.0769.01993 9.7994 1.54071 13.7495 4.14401-1.2265 2.9619-2.8325 5.7246-4.7571 8.2309-2.7833-.421-5.422-1.2817-7.8429-2.509 2.4039-3.9748 3.4398-7.216 3.4663-7.2995l.0006-.0016-2.5232-.599c-.519 2.6298-1.3525 5.0392-2.2989 7.163-.6995-.4091-1.3791-.8488-2.0347-1.3176 1.0233-2.4784 1.7825-5.0924 2.2404-7.81121zm71.0026 10.21391h-1.6554v2.0988h1.6554c.5827 0 .9962-.4546.9975-1.0494 0-.58-.4148-1.0494-.9975-1.0494zm15.9726 0h-1.657v2.0988h1.657c.583 0 .997-.4546.997-1.0494 0-.58-.414-1.0494-.997-1.0494zm21.325 0h-1.707v1.6294h1.707c.579 0 .823-.4236.822-.8147 0-.3764-.243-.8147-.822-.8147zm-97.7615-19.9935s2.0427 4.16526-.2827 8.55101c0 0 1.5984 1.04453 1.914 1.71899l.0239.0568-.2416.7425c-2.3061-1.16468-4.8036-2.00488-7.4329-2.46215l-.3437-.05747.1978-.76373s1.6909-.28158 2.9598 0c0 0 1.8174-1.37497 1.8997-5.92091l.0023-.18353z" fill="#090a0b" fill-rule="evenodd"/></svg>