<svg enable-background="new 0 0 188 80" viewBox="0 0 188 80" xmlns="http://www.w3.org/2000/svg" xmlns:xlink="http://www.w3.org/1999/xlink"><clipPath id="a"><path d="m1.2 21h155.8v38.8h-155.8z"/></clipPath><path d="m0 0h187.5v80h-187.5z" fill="#fff"/><g clip-path="url(#a)" fill="#090a0b"><path d="m34.8 37.9c0-4.3 0-8.7 0-13 0-.8.2-1.1 1.1-1.1 4.1.1 8.1-.1 12.1.2 6.1.5 10.9 5 12.1 11 1.3 6.1-1.4 12.2-6.7 15.2-2.4 1.3-4.9 1.9-7.6 1.9-3.3 0-6.7 0-10 0-.8 0-1-.3-1-1.1.1-4.3 0-8.7 0-13.1zm6.4 0v7.2c0 .7.2 1 .9 1 1.3-.1 2.7 0 4 0 3.9 0 7.1-3 7.7-7 .6-3.9-1.7-7.8-5.4-8.8-2-.5-4.1-.3-6.1-.5-.8-.1-1.1.2-1.1 1.1z"/><path d="m85.2 51.9c2.2 0 4 0 5.9.5 2.6.7 4.1 2.6 4.9 5.2.2.6-.1.8-.6.9-1.6.4-3.2.9-4.8 1.3-.2.1-.7-.2-.8-.4-.6-1.3-1.6-1.7-3-1.7-2.5 0-5.1 0-7.6-.1-2.5-.2-4.5-1.3-5.3-3.8-.8-2.6-.1-4.9 1.9-6.8.3-.3.7-.5.2-1-2.4-2.8-2.9-6.1-1.6-9.5 1.4-3.5 4.2-5.2 7.8-5.7 1.7-.2 3.4 0 5 .5.3.1.8 0 .9-.2 1.1-2.4 3.1-3.1 5.5-3.2 1.7-.1 1.7-.1 1.7 1.7v2.8c0 .8-.2 1.1-1.1 1.1-.6 0-1.3.2-1.9.5-.2.1-.3.8-.2 1.1 1.8 3.3 1.9 6.6-.1 9.8-2.1 3.3-5.5 4.5-9.3 4.3-.5 0-1-.1-1.4-.2-.9-.2-1.4.1-1.6.9s.1 1.4.8 1.7c.4.2.8.2 1.2.2 1.3.1 2.4.1 3.5.1.1-.1 0 0 0 0zm2.3-12c0-2-1.6-3.5-3.8-3.5-2 0-3.7 1.6-3.7 3.5 0 2 1.7 3.5 3.7 3.5 2.2 0 3.8-1.5 3.8-3.5z"/><path d="m140.1 50.4c-1.1.6-1.9 1.2-2.9 1.6-4.4 1.7-9.3-.1-11.8-4.3-2.4-4.1-2-9.8 1-13.5 3.5-4.3 9.9-4.5 13.2-1.6.1.1.3.2.5.3.1-.1.2-.2.2-.2.1-1 .7-1.4 1.6-1.4h3.6c.6 0 .9.2.9.8v19.3c0 .6-.2.8-.8.8-1.5 0-2.9 0-4.4 0-.7 0-.9-.3-.9-.9-.1-.3-.1-.6-.2-.9zm-5-13.9c-2.9 0-5 2.2-5 5.1s2.2 5.1 5 5.1c2.9 0 5.1-2.2 5.1-5.2 0-2.8-2.2-5-5.1-5z"/><path d="m121.8 46.2v5.1c0 .2-.3.5-.5.6-2.2 1-6.9 1.1-9.1-1.3-1.3-1.4-1.8-3.1-1.8-4.9 0-2.6 0-5.3 0-7.9 0-.8-.2-1.1-1-1.1-2.2 0-2.2 0-2.2-2.2 0-.8 0-1.6 0-2.5 0-.6.2-.8.8-.8h1.6c.5 0 .8-.2.8-.8 0-1.2 0-2.4 0-3.6 0-.6.2-.9.8-.9h4.4c.6 0 .8.2.8.8v3.5c0 .7.2.9.9.9h3.6c.7 0 .9.3.9.9v3.7c0 .7-.3.9-.9.9-1.2 0-2.4 0-3.6 0-.7 0-.9.3-.9.9v6.7c0 1.6.9 2.6 2.6 2.5 1-0 1.8-.3 2.8-.5z"/><path d="m157 37.4v13.6c0 .9-.3 1.1-1.1 1.1-1.4-.1-2.7 0-4.1 0-.7 0-.9-.2-.9-.9 0-9.2 0-18.5 0-27.7 0-.7.2-1 .9-1 1.4 0 2.7.1 4.1 0 .8 0 1 .3 1 1.1.1 4.6.1 9.2.1 13.8z"/><path d="m103.9 41.6v9.5c0 .8-.2 1-1 1-1.4 0-2.8 0-4.2 0-.6 0-.9-.2-.9-.8 0-6.4 0-12.8 0-19.2 0-.6.2-.9.8-.9h4.2c.7 0 1 .2 1 1 .1 3.1.1 6.3.1 9.4z"/><path d="m70.1 41.6v9.5c0 .7-.2 1-1 1-1.4 0-2.8 0-4.2 0-.6 0-.9-.2-.9-.8 0-6.4 0-12.8 0-19.2 0-.7.3-.9.9-.9h4.1c.7 0 1 .2 1 1 .1 3.1.1 6.3.1 9.4z"/><path d="m104.7 24.9c0 2.1-1.6 3.7-3.7 3.7s-3.7-1.6-3.7-3.7 1.6-3.7 3.8-3.6c2.1-.1 3.6 1.5 3.6 3.6z"/><path d="m70.8 24.8c0 2.1-1.6 3.7-3.8 3.7-2.1 0-3.7-1.6-3.7-3.7s1.6-3.7 3.8-3.7c2.2.1 3.7 1.7 3.7 3.7z"/></g></svg>