<svg fill="none" height="36" viewBox="0 0 124 36" width="124" xmlns="http://www.w3.org/2000/svg" xmlns:xlink="http://www.w3.org/1999/xlink"><clipPath id="a"><path d="m0 0h124v36h-124z"/></clipPath><g clip-path="url(#a)" fill="#fff"><path d="m13.4294 5.77344v9.84196h-9.10812v-9.84196h-4.32128v23.49406h4.32245v-9.5226h9.10585v9.5226h4.3236v-23.49406zm18.1578 15.90036c0 .9417-.3768 1.8448-1.0475 2.5107-.6708.6659-1.5806 1.04-2.5292 1.04s-1.8583-.3741-2.5291-1.04c-.6707-.6659-1.0476-1.569-1.0476-2.5107v-10.0637h-4.1001v10.0637c0 2.0192.808 3.9557 2.2462 5.3835 1.4383 1.4278 3.389 2.2299 5.423 2.2299 2.0341 0 3.9848-.8021 5.423-2.2299 1.4383-1.4278 2.2463-3.3643 2.2463-5.3835v-10.0637h-4.085zm30.3812-9.0267c0-2.0636 1.3745-2.7174 2.8801-2.7174 1.2143 0 2.8169.9174 3.8662 2.0299l2.6847-3.14242c-1.3406-1.8-4.0592-3.04374-6.2854-3.04374-4.4488 0-7.6657 2.58619-7.6657 6.87366 0 7.9549 9.7936 5.4302 9.7936 9.8826 0 1.3726-1.3429 2.585-2.88 2.585-2.4251 0-3.2112-1.1764-4.3248-2.4213l-2.9807 3.0763c1.9068 2.3226 4.2581 3.5024 7.0738 3.5024 4.2266 0 7.626-2.6175 7.626-6.7099 0-8.8304-9.7948-6.0863-9.7948-9.9151m60.5966 12.8671c-2.423 0-3.112-1.0405-3.112-2.6338v-7.0548h3.767v-3.5745h-3.767v-4.71598l-4.158 1.85225v14.36983c0 3.6755 2.555 5.5277 6.058 5.5277.55.0093 1.099-.0348 1.64-.13l1.014-3.7069c-.457.0314-.983.0627-1.442.0627m-75.3631-13.7833c-2.0308 0-3.4486.5853-4.8197 1.9196v-7.73305h-4.106v14.33385c0 5.3651 3.9072 9.0418 8.2986 9.0418 4.8711 0 9.1562-3.7417 9.1562-8.7794 0-4.975-3.9435-8.7793-8.5291-8.7793m-.0258 13.4558c-.6119 0-1.2179-.1196-1.7832-.3521-.5654-.2325-1.0791-.5732-1.5118-1.0028-.4328-.4296-.776-.9395-1.0102-1.5008-.2342-.5612-.3547-1.1628-.3547-1.7703s.1205-1.209.3547-1.7703c.2342-.5612.5774-1.0712 1.0102-1.5007.4327-.4296.9464-.7704 1.5118-1.0028.5653-.2325 1.1713-.3522 1.7832-.3522 1.2359 0 2.4212.4874 3.2951 1.355.8739.8675 1.3649 2.0441 1.3649 3.271s-.491 2.4036-1.3649 3.2711-2.0592 1.3549-3.2951 1.3549zm44.619-4.8902c0-5.0469-4.2757-8.7793-9.1561-8.7793-4.3903 0-8.2987 3.6755-8.2987 9.0418v14.3419h4.1061v-7.7435c1.3686 1.332 2.7888 1.9197 4.8172 1.9197 4.5857 0 8.5303-3.8044 8.5303-8.7806m-3.8873-.0511c0 1.2269-.4909 2.4036-1.3648 3.2711-.8739.8676-2.0592 1.3549-3.2951 1.3549s-2.4212-.4873-3.2951-1.3549c-.8739-.8675-1.3649-2.0442-1.3649-3.2711s.491-2.4035 1.3649-3.271c.8739-.8676 2.0592-1.355 3.2951-1.355s2.4212.4874 3.2951 1.355c.8739.8675 1.3648 2.0441 1.3648 3.271z"/><path d="m105.056 11.321v-4.09588c.545-.25296 1.007-.65445 1.331-1.15773.325-.50329.498-1.08766.501-1.6851v-.09407c0-1.74193-1.422-3.15406-3.177-3.15406h-.095c-.843 0-1.651.3323-2.247.9238-.595.5915-.93 1.39375-.93 2.23026v.09407c.003.59744.176 1.18181.501 1.6851.324.50328.786.90477 1.331 1.15773v4.09588c-1.567.2382-3.043.8832-4.2782 1.8697l-11.3156-8.74919c.0808-.28916.1229-.58645.1276-.8849.0013-.70292-.2073-1.39047-.5996-1.97566s-.9506-1.041743-1.6043-1.311908c-.6537-.27016358-1.3734-.3418011-2.0681-.2058506-.6947.1359506-1.3332.4733816-1.8347.9696086-.5015.49623-.8435 1.12896-.9827 1.81817-.1392.6892-.0694 1.40391.2006 2.05372.27.64982.7281 1.20554 1.3163 1.59687.5882.39134 1.2801.60071 1.9881.60163.6195-.0029 1.2274-.16707 1.763-.47613l11.1424 8.60744c-1.001 1.5012-1.5232 3.2669-1.4986 5.067.0247 1.8001.595 3.551 1.6366 5.0247l-3.3889 3.3654c-.2739-.087-.5594-.1332-.8469-.1371-.5813.0005-1.1493.172-1.6324.4928-.4831.3209-.8595.7767-1.0817 1.3098-.2222.5332-.2802 1.1198-.1667 1.6857s.3934 1.0856.8044 1.4936.9346.6859 1.5046.7986 1.1609.0551 1.698-.1655.9962-.5943 1.3194-1.0739c.3232-.4795.496-1.0434.4964-1.6204-.0037-.2855-.0503-.5689-.138-.8408l3.3527-3.3294c1.0933.8355 2.3643 1.4116 3.7173 1.684 1.352.2724 2.749.2339 4.084-.1124 1.335-.3464 2.572-.9915 3.617-1.886 1.045-.8944 1.87-2.0144 2.411-3.2742.542-1.2597.786-2.6259.713-3.9937-.072-1.3678-.459-2.701-1.131-3.8975-.671-1.1964-1.61-2.2244-2.743-3.0051-1.134-.7808-2.433-1.2936-3.797-1.4991zm-1.39 13.471c-.619.0169-1.236-.0896-1.813-.3133-.578-.2237-1.104-.5601-1.549-.9892-.4438-.429-.7969-.9422-1.0381-1.509-.2411-.5669-.3654-1.176-.3654-1.7913s.1243-1.2244.3654-1.7913c.2412-.5669.5943-1.08 1.0381-1.5091.445-.429.971-.7654 1.549-.9891.577-.2237 1.194-.3302 1.813-.3133 1.201.0418 2.339.5445 3.174 1.4025.835.8579 1.302 2.004 1.302 3.1969.001 1.1929-.465 2.3394-1.299 3.1982s-1.971 1.3627-3.172 1.4056"/></g></svg>