<svg fill="none" height="26" viewBox="0 0 98 26" width="98" xmlns="http://www.w3.org/2000/svg" xmlns:xlink="http://www.w3.org/1999/xlink"><clipPath id="a"><path d="m0 0h98v26h-98z"/></clipPath><g clip-path="url(#a)"><path d="m9.43418 2.4226h2.14682c1.3074-.1951 2.6426-.02357 3.8605.49596 1.5279.93119 2.6362 2.4303 3.0884 4.17755.3201.91563.3201.91563 1.0922.59134h.6026v-7.248712h-20.2063525v1.278062h.8285935c.360069-.00252.716129.0767 1.042009.23184.32588.15515.6133.38228.84116.66471.7721 1.25899.90392 2.67058.90392 10.01465 0 7.8019-.16949 9.7095-.90392 10.6823-.18131.2501-.41606.4555-.68671.6009-.27065.1453-.57021.2268-.87632.2385-1.1487325.2098-1.1487325.1907-1.1487325.7058-.0635258.1722-.0635258.3619 0 .5341h12.7490525c.0844-.1685.1283-.3548.1283-.5437s-.0439-.3751-.1283-.5436c-.3088-.0871-.6235-.1508-.9416-.1908-.3441-.0414-.6842-.1116-1.0169-.2098-.4764-.3523-.85382-.8245-1.09492-1.3698s-.33754-1.1449-.2798-1.7395c-.18832-1.259-.28247-3.5672-.28247-5.4747v-1.507h.75326c.93853-.0291 1.87643.0736 2.78713.3052.4362.2731.8076.6404 1.0876 1.0757.2799.4352.4615.9277.5319 1.4423l.1695.5913h1.1487v-8.45044h-1.0546l-.1695.82025c-.0713.52619-.2635 1.02819-.5611 1.46549s-.6924.7978-1.1525 1.0525c-.4457.1343-.9152.1669-1.3748.0954h-2.16559v-2.0602c0-2.13646.11299-6.6383.18831-7.34409zm88.13222 15.1269c-.8901-1.4512-2.2785-2.5179-3.8982-2.9948-1.2416-.3932-2.3894-1.0427-3.3708-1.9076-.2209-.2164-.3861-.4842-.4813-.7801-.0952-.296-.1175-.611-.0649-.9176.0015-.6015.2386-1.1778.6592-1.60237.285-.30243.6458-.52074 1.0438-.63161s.8183-.11014 1.216.00212c.8232.23766 1.5677.69646 2.1545 1.32776.5868.6314.994 1.4117 1.1787 2.2584.3013.8584.3389.8584.885.6295l.339-.1335v-4.74981l-.2448-.11445c-1.854-.65958-3.8206-.93211-5.7813-.80118-1.6885.04334-3.3003.7236-4.5196 1.90756-.553.52437-.9862 1.16488-1.2692 1.87658s-.409 1.4775-.3692 2.2437c.0106 1.1715.4697 2.2931 1.2806 3.1284.8961.8928 1.9957 1.548 3.2014 1.9076 2.9189 1.1636 3.7663 1.9075 3.7663 3.2619.0125.5712-.1671 1.1296-.5093 1.5837s-.8267.7769-1.3739.9152c-.6575.1463-1.3386.1463-1.9961 0-.8609-.3385-1.6296-.8803-2.2421-1.5803-.6126-.7001-1.0512-1.5382-1.2795-2.4446l-.2448-.6104h-.3389c-.162.0121-.321.0508-.4708.1144h-.1883v5.4175h.3201c1.2722.4287 2.5849.7227 3.917.8774h1.8832c.8166.0608 1.6376-.0166 2.4292-.2289 1.005-.1878 1.944-.6388 2.7237-1.3081.7796-.6693 1.3728-1.5336 1.7206-2.507.2247-.5437.34-1.1274.339-1.7168.0742-.8304-.0687-1.6659-.4143-2.4226zm-17.7394-9.86205c-1.1285-.47992-2.3444-.71272-3.5679-.68314-1.2236.02959-2.4271.3209-3.5317.85482-1.0382.51444-1.9585 1.24369-2.7013 2.14068s-1.2916 1.94179-1.6111 3.06699c-.4074 1.2274-.5799 2.5222-.5085 3.8151-.0135.7034.0433 1.4064.1695 2.0983.3041 1.7012 1.1149 3.2673 2.3234 4.4881 1.2085 1.2207 2.7569 2.0376 4.4372 2.3409 1.0941.1397 2.2013.1397 3.2955 0 1.1354-.2027 2.2221-.6235 3.2014-1.2399.81-.46 1.4956-1.1152 1.9962-1.9075-.0322-.1244-.0888-.2408-.1664-.3424-.0777-.1017-.1748-.1863-.2856-.249-.2149.0789-.4178.188-.6026.3243-.9367.6253-2.0427.9388-3.1637.8966-.7441.0509-1.49-.0664-2.1838-.3436-.6937-.2771-1.318-.7071-1.8274-1.2588-.3941-.3708-.7194-.8101-.9604-1.2971-.5852-1.1859-.9005-2.4896-.9228-3.8151v-.744h10.4328v-.3815c.023-.3811.023-.7634 0-1.1445-.0038-1.3469-.3594-2.6689-1.0309-3.8315-.6714-1.16255-1.6347-2.12439-2.7919-2.78775zm-5.2541 6.60015h-1.3182v-1.1255c.4331-2.8804 1.5065-4.59717 2.8248-4.59717 1.3182 0 1.8831 1.69777 2.1279 4.80707v.8774h-1.1299zm-27.0799-7.22964c-.6507-.02556-1.2976.11204-1.8832.40059-1.2728.62611-2.3008 1.66745-2.9189 2.95675l-.2448.4578v-3.81514h-.0942c-.2259 0-7.1937 1.41159-7.4196 1.50697-.226.09538-.1507.11445-.1507.45781s0 .40059.1507.41967l.7344.1526c.2057.00511.4075.05758.5903.15342.1827.09585.3414.23255.4643.39977.4708.6295.5649 1.7359.5649 6.4475.093 2.1212.0048 4.2465-.2636 6.3522-.0632.3175-.2222.6073-.4549.8294-.2328.2221-.5278.3656-.8445.4105l-.6403.1335h-.2448v.5342c-.0683.1779-.0683.3753 0 .5532h10.5269v-.5532c.0365-.1826.0365-.3707 0-.5532-.6338-.025-1.2641-.108-1.8832-.248-.3371-.1786-.6129-.4565-.791-.797-.1782-.3405-.2504-.7277-.207-1.1106-.1507-1.1064-.226-4.3492-.1884-6.829.0377-2.4798 0-2.6324.2072-2.8041.6301-.4894 1.4099-.7392 2.2033-.7058.7478.0165 1.4821.2057 2.1468.5532.2304.1296.4777.2259.7344.2861 0 0 1.8832-4.61628 1.8832-4.82612-.241-.28366-.548-.50198-.8932-.63521-.3453-.13323-.7179-.17716-1.0841-.12781zm-12.6926 8.01174c-.0657-1.3631-.452-2.6906-1.1268-3.8719-.6748-1.1812-1.6185-2.18202-2.7525-2.919-1.3476-.73642-2.8469-1.14247-4.3775-1.18553-1.5306-.04307-3.0498.27804-4.4357.93754-1.9595 1.04664-3.4389 2.82579-4.1241 4.95969-.7078 2.389-.7078 4.9359 0 7.325.371 1.3056 1.0645 2.494 2.0149 3.4527 1.1838 1.17 2.7102 1.9196 4.3502 2.1364 1.0527.0892 2.1109.0892 3.1637 0 .3874-.0597.771-.1425 1.1487-.248 1.5328-.4343 2.9119-1.3018 3.9757-2.5011 1.0639-1.1992 1.7685-2.6806 2.0316-4.2707.188-1.2624.2322-2.5425.1318-3.8151zm-7.8339 9.5378c-1.8832.5722-3.2956-1.2781-3.7664-5.1695-.1729-2.0373-.1729-4.0859 0-6.1233.3767-3.1283 1.3371-4.71162 2.8248-4.71162.3001-.01884.6004.0354.8756.1582.2752.12279.5174.31056.7062.5476 1.2618 1.27802 1.8832 3.81512 1.8832 7.63022.1567 2.1591-.1783 4.3259-.9792 6.3331-.3537.5854-.9009 1.0247-1.5442 1.2399zm33.897-17.16803c-.5314-.06926-1.0694-.06926-1.6007 0-1.02-.00088-2.0283.22031-2.9566.64857l-.5838.24798v-4.1394c.102-1.39696.102-2.79965 0-4.19662-.226 0-7.4197 1.39252-7.5326 1.44974-.0556.14084-.0556.29791 0 .43874 0 .40059 0 .38151.8474.57227.2379.05405.4665.14408.6779.26706.3676.35015.6123.81231.6968 1.31621.2144 1.45169.2838 2.92159.2071 4.38738v16.7483l.5085.1145c.7533.1717 2.8812.5341 3.578.6104 1.3914.1121 2.7893.1121 4.1806 0 1.5444-.1598 3.0164-.7434 4.2575-1.6879 1.2411-.9446 2.2042-2.2143 2.7856-3.6723.3466-.9358.5867-1.9086.7156-2.8995.1121-1.3422.0678-2.6932-.1318-4.0249-.2021-1.4929-.8525-2.8866-1.8631-3.99223-1.0107-1.10562-2.3326-1.86959-3.7864-2.1883zm-4.9339 16.84373c0-.248-.1883-8.6031-.1507-11.9413v-2.61336l.5461-.13353c.3685-.05348.7426-.05348 1.1111 0 .4075-.04197.8174.05179 1.1676.26706.7032.49163 1.2872 1.13853 1.708 1.89183s.6674 1.5936.7213 2.4574c.1371 1.389.1371 2.7885 0 4.1775-.1128 2.0189-.8807 3.9435-2.1845 5.4747-.3701.3561-.8348.5948-1.3371.6868-.38.0669-.7686.0669-1.1487 0-.3578 0-.3578-.1145-.3578-.2671z" fill="#fff"/></g></svg>