<svg fill="none" height="40" viewBox="0 0 122 40" width="122" xmlns="http://www.w3.org/2000/svg" xmlns:xlink="http://www.w3.org/1999/xlink"><clipPath id="a"><path d="m.5 0h121v40h-121z"/></clipPath><g clip-path="url(#a)" fill="#17191c"><path d="m57.9929 33.3533h6.5791v-.0042h3.6222v-14.5432h-7.2444v7.2989h-2.9569c-1.9364.0008-3.7938-.7674-5.1639-2.1357s-2.1407-3.2248-2.1424-5.1611c.0014-1.9366.7719-3.7933 2.142-5.1618 1.3702-1.3686 3.2277-2.1369 5.1643-2.1361v-7.2496c-8.0439 0-14.5632 6.5109-14.5632 14.5454 0 8.0344 6.5193 14.5474 14.5632 14.5474z"/><path clip-rule="evenodd" d="m41.8804 33.3491c-3.8594.0016-7.5614-1.5297-10.2918-4.2572-2.7305-2.7275-4.2658-6.4278-4.2683-10.2872.0028-3.8591 1.5382-7.5592 4.2686-10.28646 2.7305-2.72727 6.4323-4.25843 10.2915-4.25676v7.24962c-4.0346 0-7.3031 3.2643-7.3031 7.2947 0 4.0303 3.2685 7.2947 7.3031 7.2947z" fill-rule="evenodd"/><path d="m10.7013 4.26147h-6.57912v.0042h-3.62218v14.54433h7.24435v-7.3h2.95695c1.9365-.0008 3.7941.7675 5.1642 2.1361 1.3702 1.3685 2.1406 3.2252 2.142 5.1618-.0016 1.9364-.7722 3.7928-2.1423 5.1611s-3.2276 2.1365-5.1639 2.1357v7.2496c8.0439 0 14.5632-6.5109 14.5632-14.5454 0-8.0344-6.5193-14.54743-14.5632-14.54743zm65.1971 0h2.8425c2.3473 0 3.8551 1.73659 3.8551 4.1164 0 2.37983-1.5078 4.10483-3.8551 4.10483h-2.8425zm2.7848 7.33563c1.7261 0 2.7848-1.2875 2.7848-3.23077 0-1.9433-1.0587-3.2203-2.7848-3.2203h-1.7261v6.45007zm4.9369-7.33563h1.1627v1.28749h-1.1627zm.0577 2.29902h1.0357v5.92121h-1.0357zm2.256 6.12891h1.0588c.1847.6894.702 1.0231 1.6117 1.0231.8625 0 1.6463-.425 1.6463-1.6442v-.7702c-.4606.7471-1.151 1.0692-1.9338 1.0692-1.4271 0-2.5897-1.2644-2.5897-3.00099 0-1.72505 1.1626-2.95482 2.5897-2.95482.7828 0 1.5414.36725 1.9338 1.0346v-.8856h1.0357v5.48361c0 1.851-1.3232 2.5173-2.7166 2.5173-1.4848.001-2.4743-.7009-2.6348-1.873zm2.6002-1.1846c1.0703 0 1.7723-.8972 1.7723-2.13849 0-1.25286-.702-2.0923-1.7723-2.0923-1.0587 0-1.7492.83944-1.7492 2.0923 0 1.24239.6905 2.13849 1.7492 2.13849zm4.0398-7.24333h1.1626v1.28749h-1.1626zm.0577 2.29902h1.0357v5.92121h-1.0357zm2.8184 4.54131v-3.69033h-.9433v-.85098h.6789c.1605 0 .2644-.10283.2644-.25288v-1.70092h1.0241v1.95485h1.3012v.85098h-1.3012v3.52988c0 .5057.1375.6893.6097.6893h.8405v.851h-1.1385c-.9098.0011-1.3347-.3893-1.3347-1.3788zm3.0734-.2182c0-1.37983 1.1857-1.69043 2.1517-1.81634l1.278-.17209c.473-.06925.564-.33262.564-.60964 0-.57501-.391-1.04615-1.278-1.04615s-1.3925.41448-1.4838 1.13744h-1.0357c.127-1.18466 1.0819-1.96638 2.4975-1.96638 1.576 0 2.324.78172 2.324 2.11538v2.87398c0 .127.103.2298.242.2298h.369v.851h-.702c-.564 0-.875-.299-.875-.724v-.15c-.518.7701-1.336 1.023-2.072 1.023-1.2074.0021-1.9776-.6988-1.9776-1.745zm2.2447.9202c1.058 0 1.749-.7817 1.749-1.94222v-.41448c-.195.10284-.403.13746-.598.17209l-1.047.16054c-.8986.13746-1.2784.45957-1.2784 1.05767.0011.6097.4614.9664 1.1744.9664zm4.303-7.54233h1.036v8.22023h-1.036zm-29.5987 14.76783c0-2.5645 1.531-4.2654 3.7177-4.2654 1.9108 0 3.107 1.1847 3.3494 2.9548h-1.1175c-.2078-1.0808-.8982-2.0461-2.2319-2.0461-1.6338 0-2.6117 1.4375-2.6117 3.3462s1.0126 3.3567 2.6117 3.3567c1.3924 0 2.1521-1 2.3137-2.0818h1.1165c-.3337 2.001-1.6338 2.9894-3.4291 2.9894-2.2225.0011-3.7177-1.6893-3.7177-4.2528zm8.1363 1.8971v-3.7134h1.0356v3.6442c0 1.0346.5876 1.5645 1.4386 1.5645.8405 0 1.5992-.7356 1.5992-1.7943v-3.4144h1.0356v5.9211h-1.0356v-.9202c-.3914.7125-1.128 1.0692-1.9685 1.0692-1.2308 0-2.1049-.8163-2.1049-2.3567z"/><path d="m90.0195 17.2131h1.0357v.9202c.3683-.7251.9328-.9895 1.6232-.9895h.3337v.9769h-.4145c-.9433 0-1.5414.5866-1.5414 1.8048v3.2077h-1.0356v-5.9201z"/><path d="m93.8867 17.2131h1.0357v.9202c.3683-.7251.9328-.9895 1.6232-.9895h.3337v.9769h-.4145c-.9433 0-1.5414.5866-1.5414 1.8048v3.2077h-1.0356v-5.9201z"/><path d="m97.1774 20.1794c0-1.7817 1.0934-3.1164 2.8306-3.1164 1.474 0 2.762.8279 2.625 3.3798h-4.3853c.0692 1.0808.575 2.0125 1.7603 2.0125.864 0 1.3-.4365 1.508-1.0807h1.047c-.287 1.15-1.173 1.9086-2.555 1.9086-1.7383 0-2.8317-1.3221-2.8317-3.1048zm4.4426-.5173c-.069-1.2067-.621-1.7702-1.611-1.7702-1.0814 0-1.6102.7818-1.7372 1.7702zm1.99-2.4491h1.035v.8972c.392-.6548 1.14-1.0472 2.002-1.0472 1.289 0 2.187.8048 2.187 2.3798v3.6914h-1.036v-3.6337c0-1.0346-.587-1.575-1.461-1.575-.921 0-1.692.7471-1.692 1.7943v3.4144h-1.035zm6.144 2.9664c0-1.7702 1.117-3.1164 2.854-3.1164 1.359 0 2.348.8279 2.544 2.1846h-1.047c-.172-.8279-.748-1.3336-1.508-1.3336-1.231 0-1.772 1.0692-1.772 2.2539 0 1.1846.541 2.2643 1.772 2.2643.771 0 1.288-.4249 1.508-1.2423h1.035c-.218 1.2528-1.138 2.0923-2.543 2.0923-1.725.001-2.843-1.3326-2.843-3.1028zm7.193 4.0587c.369 0 .541-.0693.679-.425l.299-.7932-2.393-5.8058h1.115l1.784 4.4962 1.657-4.4962h1.082l-2.659 6.9558c-.288.7586-.725.9202-1.426.9202h-1.163v-.851h1.025zm-41.4743 5.4437c0-2.5644 1.5655-4.2654 3.7858-4.2654 1.9213 0 3.0955 1.1847 3.3378 2.9433h-1.1164c-.1605-1.0577-.9433-2.0346-2.2214-2.0346-1.6684 0-2.682 1.4376-2.682 3.3463 0 1.9086 1.0357 3.3567 2.6694 3.3567 1.1627 0 2.2896-.6674 2.4281-2.5519h-2.6463v-.8846h3.6599v4.1961h-.9779v-1.2874c-.5173.874-1.3693 1.4375-2.6694 1.4375-2.0021-.0011-3.5676-1.6904-3.5676-4.2549zm8.643-1.8173h1.0357v.9202c.3683-.724.9328-.9895 1.6232-.9895h.3337v.9769h-.4145c-.9433 0-1.5414.5866-1.5414 1.8048v3.2077h-1.0356v-5.9201zm3.2917 2.9663c0-1.7701 1.0587-3.1164 2.8541-3.1164 1.7953 0 2.8541 1.3452 2.8541 3.1164s-1.0588 3.1039-2.8541 3.1039c-1.7954 0-2.8541-1.3337-2.8541-3.1039zm2.853 2.2529c1.2886 0 1.7838-1.1154 1.7838-2.2644 0-1.1616-.4952-2.2539-1.7838-2.2539-1.3011 0-1.7838 1.0923-1.7838 2.2539 0 1.15.4827 2.2644 1.7838 2.2644zm3.7743-1.5047v-3.7135h1.0357v3.6442c0 1.0346.5876 1.5645 1.4386 1.5645.8405 0 1.5991-.7355 1.5991-1.7943v-3.4144h1.0357v5.9212h-1.0357v-.9202c-.3914.7124-1.128 1.0692-1.9685 1.0692-1.2297 0-2.1049-.8164-2.1049-2.3567zm6.4103-3.7145h1.036v.8971c.21-.3315.503-.6023.85-.7858s.736-.2732 1.129-.2603c1.438 0 2.589 1.2644 2.589 3.1269s-1.151 3.0923-2.589 3.0923c-.828 0-1.554-.3568-1.979-1.0347v2.8394h-1.036zm2.762 5.2087c1.128 0 1.772-.9318 1.772-2.2298s-.645-2.2644-1.772-2.2644c-1.117 0-1.773.9654-1.773 2.2539 0 1.2886.656 2.2403 1.773 2.2403z"/></g></svg>