<svg fill="none" height="56" viewBox="0 0 91 56" width="91" xmlns="http://www.w3.org/2000/svg" xmlns:xlink="http://www.w3.org/1999/xlink"><clipPath id="a"><path d="m0 0h91v56h-91z"/></clipPath><g clip-path="url(#a)"><path d="m8.77948 18.2362h1.99782c1.2167-.18 2.4592-.0217 3.5927.4579 1.4219.8595 2.4533 2.2433 2.874 3.8562.298.8452.298.8452 1.0165.5458h.5608v-6.6911h-18.8043053v1.1797h.7710993c.335086-.0023.666436.0708.969706.214.30327.1433.57075.3529.78279.6136.71853 1.1622.8412 2.4652.8412 9.2443 0 7.2018-.15772 8.9626-.8412 9.8606-.16873.2309-.38718.4205-.63905.5546-.25187.1342-.53065.2095-.81552.2202-1.0690253.1937-1.0690253.1761-1.0690253.6515-.0591179.159-.0591179.3341 0 .493h11.8644053c.0785-.1555.1194-.3274.1194-.5018s-.0409-.3463-.1194-.5018c-.2874-.0804-.5802-.1392-.8762-.1761-.3203-.0383-.6368-.1031-.9464-.1937-.44335-.3252-.79456-.761-1.01893-1.2644s-.31412-1.0569-.26039-1.6057c-.17525-1.1622-.26287-3.2928-.26287-5.0536v-1.3911h.701c.87339-.0268 1.74619.068 2.59369.2818.406.2521.7516.5911 1.0121.9929.2606.4018.4296.8564.4951 1.3314l.1577.5458h1.069v-7.8004h-.9814l-.1577.7571c-.0664.4858-.2452.9491-.5222 1.3528s-.6444.7364-1.0726.9715c-.4147.124-.8516.1541-1.2793.0881h-2.01539v-1.9017c0-1.9721.10515-6.1277.17525-6.7792zm82.01692 13.9634c-.8284-1.3397-2.1204-2.3243-3.6277-2.7645-1.1555-.3629-2.2236-.9625-3.137-1.7609-.2055-.1997-.3592-.4469-.4478-.7201-.0886-.2731-.1093-.5639-.0604-.847.0014-.5552.222-1.0872.6134-1.4791.2653-.2791.601-.4807.9714-.583s.7615-.1017 1.1316.002c.7661.2193 1.4589.6428 2.005 1.2256s.9251 1.3031 1.0969 2.0847c.2804.7924.3155.7924.8237.5811l.3154-.1233v-4.3844l-.2278-.1057c-1.7253-.6088-3.5555-.8604-5.3802-.7395-1.5713.04-3.0712.6679-4.206 1.7608-.5146.484-.9177 1.0752-1.1811 1.7322-.2633.657-.3806 1.3639-.3435 2.0712.0098 1.0813.4371 2.1166 1.1917 2.8877.8339.8241 1.8572 1.4289 2.9792 1.7608 2.7164 1.0741 3.505 1.7609 3.505 3.011.0117.5273-.1555 1.0428-.4739 1.4619-.3185.4192-.7694.7171-1.2786.8448-.6119.1351-1.2457.1351-1.8576 0-.8012-.3124-1.5166-.8125-2.0866-1.4588-.57-.6462-.9782-1.4198-1.1906-2.2565l-.2278-.5635h-.3155c-.1507.0113-.2987.047-.4381.1057h-.1753v5.0007h.298c1.1839.3957 2.4055.6672 3.6452.81h1.7525c.76.056 1.524-.0154 2.2607-.2113.9353-.1734 1.8091-.5897 2.5346-1.2075.7256-.6178 1.2776-1.4156 1.6013-2.3142.2091-.5018.3164-1.0406.3154-1.5847.0691-.7665-.0639-1.5377-.3855-2.2362zm-16.5085-9.1035c-1.0502-.443-2.1817-.6579-3.3204-.6306-1.1386.0273-2.2586.2962-3.2866.7891-.9662.4749-1.8226 1.148-2.5138 1.976-.6913.828-1.2021 1.7924-1.4994 2.831-.3791 1.133-.5396 2.3282-.4732 3.5217-.0125.6493.0403 1.2982.1578 1.9369.283 1.5703 1.0375 3.016 2.1622 4.1428 1.1246 1.1269 2.5656 1.8809 4.1292 2.1609 1.0183.1289 2.0486.1289 3.0669 0 1.0566-.1871 2.0679-.5756 2.9792-1.1445.7539-.4246 1.3919-1.0294 1.8577-1.7608-.0299-.1148-.0826-.2223-.1548-.3161-.0723-.0938-.1627-.172-.2658-.2298-.2.0728-.3888.1736-.5608.2993-.8717.5772-1.901.8666-2.9442.8276-.6924.0471-1.3866-.0613-2.0322-.3171s-1.2265-.6527-1.7006-1.162c-.3668-.3422-.6695-.7477-.8938-1.1973-.5446-1.0947-.838-2.2981-.8587-3.5217v-.6867h9.7088v-.3521c.0215-.3519.0215-.7047 0-1.0565-.0035-1.2433-.3344-2.4636-.9593-3.5367-.6248-1.0732-1.5213-1.9611-2.5982-2.5734zm-4.8895 6.0925h-1.2268v-1.0389c.4031-2.6589 1.402-4.2436 2.6288-4.2436 1.2267 0 1.7525 1.5671 1.9803 4.4373v.8099h-1.0515zm-25.2009-6.6736c-.6056-.0236-1.2076.1035-1.7525.3698-1.1845.578-2.1412 1.5392-2.7164 2.7293l-.2278.4226v-3.5217h-.0877c-.2102 0-6.6945 1.303-6.9048 1.3911-.2103.088-.1402.1056-.1402.4226 0 .3169 0 .3698.1402.3874l.6835.1408c.1914.0048.3792.0532.5493.1417.17.0884.3178.2146.4321.369.4381.581.5257 1.6023.5257 5.9515.0866 1.958.0045 3.9198-.2453 5.8636-.0588.2931-.2067.5606-.4233.7656s-.4913.3374-.7859.3789l-.5959.1233h-.2278v.493c-.0636.1642-.0636.3464 0 .5106h9.7964v-.5106c.034-.1685.034-.3421 0-.5106-.5898-.0231-1.1763-.0997-1.7525-.2289-.3137-.1649-.5703-.4214-.7361-.7357s-.233-.6717-.1927-1.0252c-.1402-1.0212-.2103-4.0146-.1752-6.3037.035-2.2891 0-2.4299.1927-2.5884.5865-.4518 1.3121-.6824 2.0505-.6515.6959.0152 1.3792.1899 1.9978.5106.2145.1197.4445.2086.6835.2641 0 0 1.7525-4.2611 1.7525-4.4548-.2243-.2619-.51-.4634-.8313-.5864s-.668-.1635-1.0088-.118zm-11.8119 7.3955c-.0611-1.2583-.4207-2.4837-1.0486-3.574-.628-1.0904-1.5062-2.0142-2.5615-2.6945-1.2541-.6798-2.6494-1.0546-4.0738-1.0944-1.4244-.0397-2.8382.2567-4.1279.8655-1.8235.9661-3.2003 2.6084-3.838 4.5781-.6586 2.2053-.6586 4.5563 0 6.7616.3453 1.2052.9907 2.3021 1.8752 3.187 1.1016 1.08 2.5221 1.772 4.0483 1.9722.9797.0823 1.9645.0823 2.9442 0 .3605-.0552.7174-.1316 1.069-.2289 1.4265-.401 2.7098-1.2018 3.6998-2.3088.9901-1.107 1.6458-2.4744 1.8907-3.9422.1749-1.1653.2161-2.3469.1226-3.5216zm-7.2904 8.8041c-1.7525.5282-3.0668-1.1798-3.505-4.7718-.1609-1.8806-.1609-3.7717 0-5.6523.3505-2.8877 1.2443-4.3492 2.6288-4.3492.2793-.0174.5587.0327.8148.146.2561.1134.4815.2867.6573.5055 1.1742 1.1798 1.7525 3.5217 1.7525 7.0433.1458 1.993-.166 3.9931-.9113 5.8459-.3291.5404-.8383.946-1.4371 1.1446zm31.545-15.8474c-.4945-.0639-.9951-.0639-1.4896 0-.9493-.0008-1.8876.2034-2.7514.5987l-.5433.2289v-3.821c.0949-1.2895.0949-2.5843 0-3.8738-.2103 0-6.9049 1.2854-7.01 1.3382-.0517.13-.0517.275 0 .405 0 .3698 0 .3522.7886.5283.2214.0499.4341.133.6309.2465.3421.3232.5698.7498.6484 1.2149.1996 1.3401.2642 2.6969.1928 4.0499v15.46l.4732.1057c.701.1585 2.6813.493 3.3297.5635 1.2948.1034 2.5958.1034 3.8906 0 1.4372-.1475 2.807-.6863 3.962-1.5582s2.0513-2.0439 2.5923-3.3898c.3226-.8638.546-1.7617.666-2.6764.1043-1.239.0631-2.486-.1227-3.7153-.188-1.378-.7933-2.6646-1.7338-3.6851-.9405-1.0206-2.1707-1.7258-3.5237-2.02zm-4.5915 15.5481c0-.2289-.1753-7.9413-.1402-11.0228v-2.4123l.5082-.1233c.3429-.0493.691-.0493 1.034 0 .3792-.0387.7606.0478 1.0865.2465.6545.4539 1.1979 1.051 1.5895 1.7464.3916.6953.6211 1.4709.6712 2.2683.1277 1.2822.1277 2.574 0 3.8562-.1049 1.8636-.8195 3.6402-2.0329 5.0536-.3443.3286-.7768.549-1.2442.6339-.3537.0618-.7154.0618-1.0691 0-.3329 0-.3329-.1057-.3329-.2465z" fill="#fff"/></g></svg>