<svg fill="none" height="128" viewBox="0 0 128 128" width="128" xmlns="http://www.w3.org/2000/svg"><g stroke="#090a0b" stroke-width="8"><path d="m109.247 109.25-90.5034-90.5043"/><path d="m18.7461 109.25 90.5039-90.5048"/><path d="m63.9961 127.988v-127.99288853"/><path d="m.00878906 63.9976h127.99121094"/><path d="m63.9966 95.9964c-17.6717 0-31.9975-14.326-31.9975-31.9981s14.3258-31.9981 31.9975-31.9981 31.9975 14.326 31.9975 31.9981-14.3258 31.9981-31.9975 31.9981z"/><path d="m63.9956 123.995c-33.1346 0-59.9956-26.8612-59.9956-59.9965 0-33.1352 26.861-59.99655 59.9956-59.99655s59.9954 26.86135 59.9954 59.99655c0 33.1353-26.8608 59.9965-59.9954 59.9965z"/></g></svg>