<svg fill="none" height="56" viewBox="0 0 256 56" width="256" xmlns="http://www.w3.org/2000/svg"><path d="m72.1693 21.2422h7.6898v-7.5423c.0004-1.5472-.6099-3.0322-1.6984-4.13258-.5388-.54519-1.1802-.97856-1.8873-1.27519s-1.4659-.45067-2.2327-.45326h-15.2066c-.7684.00576-1.5278.16607-2.233.47139-.7072.28793-1.349.71548-1.887 1.25706-.5341.55008-.9607 1.19488-1.2581 1.90128-.3005.7111-.4556 1.4751-.456 2.247v15.2418c.0031.765.1526 1.5223.4403 2.2312.2973.7103.7299 1.356 1.2738 1.9013.538.5416 1.1798.9692 1.887 1.2571.7073.2949 1.4667.4446 2.233.44h7.5011v-7.6995c-.0021-.7648.1469-1.5225.4384-2.2297.2914-.7072.7197-1.35 1.2602-1.8915s1.1826-.9712 1.8896-1.2643c.7069-.2932 1.4648-.4441 2.2302-.4441" fill="#fff"/><path d="m87.3609 21.2432h-7.501v7.7151c-.0042 1.5421-.618 3.0202-1.7078 4.1121-1.0899 1.0919-2.5674 1.7092-4.1107 1.7175h-7.7054v7.6209c-.0021.7648.1469 1.5225.4383 2.2297.2915.7072.7198 1.35 1.2603 1.8915s1.1826.9712 1.8895 1.2643c.707.2932 1.4649.4441 2.2303.4441h15.1908c.7646.0015 1.5221-.1476 2.2291-.4388.7069-.2911 1.3495-.7187 1.8909-1.2582.5439-.5453.9765-1.1911 1.2738-1.9013.2877-.7089.4372-1.4663.4403-2.2313v-15.2418c-.0031-.765-.1526-1.5223-.4403-2.2312-.2973-.7103-.7299-1.356-1.2738-1.9013-.5414-.5395-1.184-.9671-1.8909-1.2583-.707-.2912-1.4645-.4403-2.2291-.4388" fill="#fff"/><path d="m79.8588 28.9583v-7.7151h-7.6898c-.7654 0-1.5233.1509-2.2302.444-.707.2932-1.3491.7228-1.8896 1.2644-.5405.5415-.9687 1.1843-1.2602 1.8915-.2915.7071-.4405 1.4648-.4384 2.2297v7.7151h7.6898c1.5433-.0083 3.0208-.6256 4.1106-1.7175s1.7037-2.57 1.7078-4.1121z" fill="#090a0b"/><g fill="#fff"><path d="m93.1949 12.2239c.0042.8726-.2532 1.7263-.7391 2.4513-.4841.7076-1.1685 1.2547-1.9657 1.5713-.7929.3254-1.6646.408-2.5046.2374-.84-.1707-1.6102-.5869-2.213-1.1959-.5962-.6107-1.0026-1.3808-1.1701-2.2174-.1674-.8366-.0887-1.7037.2266-2.4965.2749-.66521.71-1.25222 1.2666-1.70889.5566-.45666 1.2175-.76884 1.924-.90878s1.4366-.10331 2.1255.10665c.6889.20995 1.3152.58671 1.8232 1.0968.4134.41178.7403.90182.9617 1.44142.2214.5397.3329 1.118.3278 1.7012"/><path d="m131.927 26.9629v13.6077h-4.199v-5.5625c-1.573 5.0125-5.85 5.9239-8.885 5.9239-1.708.0022-3.398-.343-4.968-1.0146-1.57-.6717-2.987-1.6557-4.164-2.892-1.177-1.2364-2.089-2.6993-2.682-4.2996s-.854-3.3044-.766-5.0086c0-7.8566 5.724-13.1205 13.618-13.1205 5.724 0 10.504 3.1426 11.747 8.4851l-4.403 1.9484c-1.085-4.2268-3.271-6.0495-7.611-6.0495-5.426 0-8.429 2.4669-8.429 8.7522s2.406 9.0508 8.664 9.0508c3.979 0 6.967-1.9799 7.439-5.751h-7.313v-4.0698z"/><path d="m147.353 22.6113v4.384c-.778-.2649-1.603-.3665-2.422-.2985-2.909 0-4.954 1.9798-4.954 6.5052v7.4323h-4.717v-17.9915h4.702v5.0753c.471-2.7027 1.792-5.3739 5.205-5.3739.738-.0401 1.478.0504 2.186.2671z"/><path d="m162.843 31.6456c0-3.5826-1.494-5.1696-4.954-5.1696-3.459 0-4.859 1.5713-4.859 5.1696s1.573 5.0754 4.859 5.0754c3.287 0 4.954-1.5713 4.954-5.0754zm4.482-9.0036v17.9287h-4.624v-3.9126c-.437 1.301-1.289 2.423-2.425 3.1947-1.136.7718-2.493 1.1508-3.865 1.0793-5.095 0-8.114-3.724-8.114-9.2865 0-5.5624 2.909-9.4279 7.863-9.4279 1.43-.0696 2.843.3305 4.025 1.1392 1.181.8086 2.065 1.9813 2.516 3.3391v-4.054z"/><path d="m178.049 26.6955v9.7264h4.718v4.1012h-3.806c-.739.0415-1.48-.0742-2.171-.3397-.692-.2655-1.319-.6747-1.841-1.2004-.522-.5258-.926-1.1562-1.186-1.8496s-.369-1.4339-.321-2.1728v-8.2651h-3.428v-4.054h3.428v-5.3739h4.623v5.3425h5.174v4.0854z"/><path d="m132.005 26.9629v13.6077h-4.199v-5.5625c-1.572 5.0125-5.881 5.9239-8.901 5.9239-1.707.0022-3.398-.343-4.968-1.0146-1.569-.6717-2.986-1.6557-4.163-2.892-1.177-1.2364-2.09-2.6993-2.683-4.2996s-.853-3.3044-.766-5.0086c0-7.8566 5.74-13.1205 13.634-13.1205 5.724 0 10.489 3.1426 11.731 8.4851l-4.403 1.9484c-1.101-4.2268-3.286-6.0495-7.627-6.0495-5.425 0-8.397 2.4669-8.397 8.7522s2.406 9.0508 8.68 9.0508c3.979 0 6.967-1.9799 7.423-5.751h-7.313v-4.0698z"/><path d="m147.352 22.61v4.3839c-.758-.2563-1.56-.3579-2.359-.2985-2.909 0-4.953 1.9799-4.953 6.5053v7.4323h-4.718v-17.9916h4.718v5.0754c.456-2.7027 1.777-5.374 5.205-5.374.713-.0309 1.425.0594 2.107.2672z"/><path d="m162.905 31.645c0-3.5826-1.573-5.1696-4.954-5.1696s-4.843 1.5713-4.843 5.1696 1.573 5.0753 4.843 5.0753c3.271 0 4.954-1.5713 4.954-5.0753zm4.482-9.0037v17.9288h-4.639v-3.9126c-.433 1.2822-1.268 2.3907-2.381 3.1607-1.114.77-2.446 1.1605-3.799 1.1133-5.111 0-8.13-3.724-8.13-9.2865s2.909-9.4279 7.862-9.4279c1.416-.0565 2.812.3503 3.976 1.1585 1.163.8083 2.031 1.9738 2.472 3.3197v-4.054z"/><path d="m178.128 26.6955v9.7264h4.717v4.1012h-3.821c-.74.0413-1.481-.0745-2.174-.3399-.692-.2653-1.32-.6742-1.843-1.1996-.523-.5255-.929-1.1557-1.191-1.8491-.261-.6934-.373-1.4343-.327-2.1739v-8.2651h-3.428v-4.054h3.428v-5.3739h4.639v5.3425h5.158v4.0854z"/><path d="m199.483 31.6457c0-3.5826-1.572-5.1697-4.953-5.1697s-4.844 1.5714-4.844 5.1697 1.573 5.0753 4.844 5.0753c3.27 0 4.953-1.5713 4.953-5.0753zm4.482-9.0037v17.9288h-4.623v-3.9126c-.434 1.2848-1.271 2.3952-2.388 3.1655-1.116.7703-2.452 1.1591-3.808 1.1085-5.111 0-8.13-3.7241-8.13-9.2865 0-5.5625 2.909-9.4279 7.862-9.4279 1.418-.0548 2.815.3524 3.981 1.1602 1.165.8077 2.037 1.9723 2.483 3.318v-4.054z"/></g></svg>