<svg fill="none" height="36" viewBox="0 0 183 36" width="183" xmlns="http://www.w3.org/2000/svg" xmlns:xlink="http://www.w3.org/1999/xlink"><clipPath id="a"><path d="m0 0h183v36h-183z"/></clipPath><g clip-path="url(#a)" fill="#fff"><path d="m.26823 24.437 2.31348-.3698v-21.41174l-2.58171-.33613.134115-2.31933h16.160885l-.4024 6.48739-3.2187-.10084-.2012-4.06722h-4.99579v9.64707h2.17937l.50292-2.2185 2.2464.06723v6.65547h-2.2464l-.53644-2.2857h-2.17937v10.2185h5.02931l.4694-4.437 3.3864.1008.2682 6.7563h-16.429056z"/><path d="m18.1055 26.8581.1006-1.9832 1.8105-.3698v-13.5126l-2.1123-.2017v-2.01677l5.2975-.77311.4024 1.14286v.77311c1.2741-1.34454 2.8164-2.15127 4.7946-2.15127 2.8835 0 5.0293 1.7479 5.0293 5.21008v11.4958l1.9112.3698-.1006 1.9832h-6.3034v-12.8404c0-1.8487-.6706-2.8907-2.3471-2.8907-.5699 0-.9723.1008-1.4082.2689-.2682.2353-.5364.5714-.7711.8739v12.3025l1.9111.3698-.1341 1.9832h-8.0804z"/><path d="m119.396 26.8581.067-1.9832 1.81-.3698v-13.5126l-2.112-.2017v-2.01677l5.298-.77311.402 1.14286v.77311c1.274-1.34454 2.816-2.15127 4.795-2.15127 2.883 0 5.029 1.7479 5.029 5.21008v11.4958l1.911.3698-.1 1.9832h-6.27v-12.8404c0-1.8487-.671-2.8907-2.347-2.8907-.57 0-.973.1008-1.409.2689-.268.2353-.536.5714-.771.8739v12.3025l1.911.3698-.134 1.9832h-8.08z"/><path d="m45.3308 26.4856c-.7377.3025-2.0453.6386-3.7553.6386-2.2464 0-4.3252-1.0084-4.3252-4.3025v-11.8319l-2.1458-.3362.1006-2.35292 2.414-.10084 1.0394-3.59664 3.0847-.13445v3.86555h3.3193l-.2347 2.3529-3.0511.3362v11.8319c0 .9748.5365 1.6135 1.5423 1.6135h1.8106z"/><path d="m170.829 26.8556.067-1.9496 1.71-.4033v-13.5126l-2.011-.2017v-2.01683l5.498-.77311.369 1.31092v.43698c1.442-1.07563 3.387-1.78152 5.734-1.78152l.804.70589-.57 5.10927-3.017-.1009-.302-2.7227c-.704.1009-1.375.3026-1.945.7059v12.874l1.912.4033-.135 1.9496h-8.114z"/><path d="m91.8691 26.8556.1006-1.9496 1.71-.4033v-13.5126l-2.0117-.2017v-2.01683l5.4987-.77311.3688 1.31092v.43698c1.4417-1.07563 3.3865-1.78152 5.7335-1.78152l.805.70589-.637 5.10927-3.018-.1009-.302-2.7227c-.7039.1009-1.3745.3026-1.9445.7059v12.874l1.9115.4033-.1344 1.9496h-8.0805z"/><path d="m46.6719 26.8556.1006-1.9496 1.7099-.4033v-13.5126l-2.0117-.2017v-2.01683l5.4987-.77311.3688 1.31092v.43698c1.4418-1.07563 3.3864-1.78152 5.6999-1.78152l.8047.70589-.57 5.10927-3.0176-.1009-.3017-2.7227c-.7041.1009-1.3747.3026-1.9447.7059v12.874l1.9112.4033-.1342 1.9496h-8.1139z"/><path d="m64.0401 18.6212c0 3.2269 1.4082 5.7143 4.1911 5.7143 1.4417 0 2.5817-.3025 3.9228-.9412l.7712 1.7815c-1.3747 1.1093-3.3864 1.9496-5.9011 1.9496-4.8952 0-7.7116-4.2353-7.7116-9.6806 0-4.6387 2.0453-9.71433 7.6446-9.71433 4.8952 0 6.7392 4.53783 6.7392 9.57983l-.4694 1.2101zm-.0671-2.1512 5.6328-.2689c-.1006-2.2521-.57-5.8152-2.7829-5.8152-.5364 0-.9052.1009-1.5758.437-.9053 1.5462-1.2741 4.3361-1.2741 5.6471z"/><path d="m141.961 18.6212c0 3.2269 1.408 5.7143 4.191 5.7143 1.442 0 2.582-.3025 3.923-.9412l.771 1.7815c-1.375 1.1093-3.386 1.9496-5.901 1.9496-4.895 0-7.712-4.2353-7.712-9.6806 0-4.6387 2.046-9.71433 7.645-9.71433 4.895 0 6.739 4.53783 6.739 9.57983l-.469 1.2101zm-.067-2.1512 5.633-.2689c-.101-2.2521-.57-5.8152-2.783-5.8152-.537 0-.905.1009-1.576.437-.905 1.5462-1.274 4.3361-1.274 5.6471z"/><path d="m109.236 18.6212c0 3.2269 1.409 5.7143 4.191 5.7143 1.442 0 2.582-.3025 3.923-.9412l.771 1.7815c-1.374 1.1093-3.386 1.9496-5.901 1.9496-4.895 0-7.711-4.2353-7.711-9.6806 0-4.6387 2.045-9.71433 7.644-9.71433 4.896 0 6.74 4.53783 6.74 9.57983l-.47 1.2101zm-.067-2.1512 5.633-.2689c-.1-2.2521-.57-5.8152-2.783-5.8152-.536 0-.905.1009-1.576.437-.905 1.5462-1.307 4.3361-1.274 5.6471z"/><path d="m164.291 26.8572-.469-1.6134c-1.241 1.1765-2.448 1.8823-4.326 1.8823-2.883 0-5.465-1.4453-5.465-5.4453v-11.1597l-2.112-.2017v-1.78149l6.102-.70588.47 1.61345v11.69752c0 2.0504.838 3.126 2.481 3.126.469 0 1.073-.0672 1.609-.2689.302-.3025.604-.6723.838-1.042v-12.437l-2.179-.2017v-1.78149l6.169-.70588.47 1.61345v15.05882l1.911.3697-.235 1.9832z"/><path d="m82.8493 24.4379c-.9723 0-1.7435-.1681-2.347-.5042v-11.8656c.2682-.4033.57-.7731.8717-1.1092.57-.2017 1.073-.2689 1.6765-.2689 2.5146 0 2.9505 2.5546 2.9505 7.126 0 4.4034-.6706 5.6135-.8382 6.1177-.7041.3361-1.4417.5042-2.3135.5042zm7.5105-7.4286c0-5.6807-1.6765-9.24368-5.8676-9.24368-2.7829 0-4.0905 1.61345-4.6269 2.28568v-.63862l-.4694-1.61344-5.4652.77311v1.94955l2.1123.2689v22.9244l-1.8106.3698-.1006 1.9159h8.0805l.1341-1.9159-1.9112-.3698v-7.2605c.7712.437 1.8441.7059 3.0176.7059 6.8399 0 6.907-6.958 6.907-10.1513z"/></g></svg>