<svg fill="none" height="24" viewBox="0 0 153 24" width="153" xmlns="http://www.w3.org/2000/svg" xmlns:xlink="http://www.w3.org/1999/xlink"><clipPath id="a"><path d="m0 0h153v24h-153z"/></clipPath><mask id="b" height="24" maskUnits="userSpaceOnUse" width="153" x="0" y="0"><path d="m153 0h-153v24h153z" fill="#fff"/></mask><g clip-path="url(#a)"><g clip-rule="evenodd" fill="#090a0b" fill-rule="evenodd" mask="url(#b)"><path d="m24.3501 14.0673c-1.8151 3.2071-3.9918 5.0104-8.6992 5.5308-5.1871.5791-9.47403-2.7892-11.16739-5.3036 2.15949.7592 4.46011 1.0395 6.74029.821 4.2279-.3848 6.6406-2.0452 8.3709-4.7648.2619-.40686.9702-1.68236-.2693-2.11119-1.1363-.39218-2.1804-.40318-2.992.78069-1.3171 1.9316-2.8592 2.672-6.0872 3.0239-4.30175.4581-9.466678-2.37148-10.064334-1.7813-1.069879 1.0555 2.401694 12.6597 15.196034 12.5168 4.6078-.0514 7.8433-1.6127 10.8722-5.4979.7378-.942.5091-2.0855-.2989-3.1594-.498-.6635-1.2063-.7111-1.5863-.0404"/><path d="m27.7123 7.10698c1.7155-4.44227.059-7.238849-.5755-7.10690093-.5165.11362293-1.4757 3.03482093-2.8408 4.73549093-4.5894-2.08919-7.4707-.19059-7.4043.81735.0554.83934 3.8332.23457 7.3785 3.29871 3.7667 3.24377 3.8774 6.75867 4.9547 6.74407.8632 0 2.6968-3.4197-1.5126-8.48872z"/><path d="m39.3685 7.51381h-4.6263v-2.72694h12.4733v2.72694h-4.6226v12.38119h-3.2244z"/><path d="m48.6523 7.4515h3.0953v-2.66463h-3.0953zm.0443 12.4619h3.0104v-11.06544h-3.0104z"/><path d="m64.1965 15.8926c-.0589 1.1903-.5566 2.3175-1.3982 3.1667-.8117.782-2.0267 1.1729-3.645 1.1729-.8389.0143-1.6724-.1351-2.4533-.4398-.6514-.2529-1.2312-.6592-1.6897-1.1839-.4522-.5356-.7853-1.1601-.9777-1.8326-.2216-.7772-.3297-1.582-.3209-2.3897-.0116-.8163.113-1.6287.3689-2.4044.2291-.688.5983-1.3218 1.0846-1.862.4844-.52126 1.0791-.92935 1.7414-1.19483 1.4026-.51028 2.9338-.55529 4.3643-.12828.5238.16786 1.009.43691 1.4278.79169.3865.33574.6949.75092.9038 1.21682.2218.4935.3673 1.0174.4317 1.5541l-3.0326.4032c-.0445-.4891-.2147-.9586-.4943-1.3635-.1641-.187-.3712-.332-.6037-.4226s-.4835-.1242-.7319-.0979c-.3996-.0149-.7953.0843-1.1399.2859-.3018.1932-.5494.4593-.7194.7734-.183.3439-.3076.7154-.369 1.0996-.0717.43-.1075.8652-.1069 1.3011-.0009.4469.0349.8931.1069 1.3342.0647.3903.1891.7686.369 1.1215.1651.3143.4107.5798.712.7697.3443.2026.7402.3019 1.14.2859.255.0163.5107-.0203.7507-.1074.2401-.087.4593-.2227.6438-.3984.3595-.4068.5656-.925.5829-1.4661z"/><path d="m66.0312 4.78687h2.9478v7.91333l4.32-3.85224h3.4864l-4.0877 3.80824 4.4087 7.2388h-3.2465l-3.313-5.5895-1.5679 1.3965v4.193h-2.9478z"/><path d="m87.7681 16.4461c-.1223 1.0992-.6652 2.1096-1.5163 2.8223-.8067.6426-1.9848.9639-3.5343.9639-1.8667 0-3.2686-.5082-4.2057-1.5247s-1.4068-2.4545-1.4093-4.314c-.014-.8472.1247-1.6901.4095-2.4887.253-.6829.6448-1.3067 1.1511-1.8326.4931-.51427 1.0938-.91465 1.7597-1.17296.7296-.2672 1.5024-.3989 2.28-.38852 1.7216 0 3.0153.4887 3.881 1.4661.867.97498 1.3023 2.28348 1.3023 3.93648v1.1839h-7.7732c-.0179.7492.2215 1.4822.6789 2.0782.247.2574.5487.4568.8831.5836.3345.1268.6932.1779 1.05.1494 1.1916 0 1.8926-.4948 2.1103-1.466zm-2.7743-3.2987c.0437-.6448-.1592-1.2823-.5682-1.785-.2345-.2274-.516-.4016-.8249-.5104s-.6379-.1498-.9643-.12c-.3611-.0081-.7201.0568-1.0552.1906-.2873.1187-.5472.2946-.7636.5168-.2085.2213-.3725.48-.4833.7624-.1161.3012-.1809.6196-.1918.9419z"/><path d="m90.5448 11.1534h-1.7636v-2.30544h1.7636v-2.93219h3.0104v2.93219h2.5825v2.30544h-2.5825v5.102c0 .5755.1218.9676.3689 1.1729.2666.2135.6024.323.9445.3079.2046-.0001.409-.0112.6124-.033.2073-.0203.4123-.0596.6124-.1173l.4317 2.1992c-.3959.1236-.8021.2119-1.2138.2638-.3755.049-.754.0734-1.1327.0734-1.2322 0-2.1433-.2896-2.741-.865-.5977-.5755-.8928-1.5541-.8928-2.9322z"/><path d="m101.515 14.9616c.074.931.369 1.609.915 2.0342s1.332.6341 2.376.6341c.428.0084.856-.0447 1.269-.1576.305-.0874.59-.2317.841-.4252.204-.1654.363-.3799.461-.6231.094-.2508.142-.5166.14-.7843-.009-.4096-.171-.8013-.454-1.0996-.297-.3446-.849-.5889-1.656-.7331l-2-.3665c-.71-.1189-1.408-.3029-2.084-.5498-.555-.1999-1.068-.498-1.5164-.8796-.4128-.3696-.7325-.8304-.9333-1.3452-.2274-.5941-.3364-1.22649-.321-1.86193-.0127-.66024.1381-1.31346.439-1.90226.294-.54845.7151-1.01957 1.2287-1.37446.572-.38807 1.209-.67111 1.881-.83568.788-.19764 1.597-.29372 2.41-.28589.944-.03063 1.888.09319 2.792.36653.666.207 1.282.54895 1.808 1.00427.447.39875.797.894 1.022 1.44777.221.55039.37 1.12697.443 1.71534l-3.033.36652c-.09-.67901-.416-1.30532-.922-1.77031-.454-.36653-1.137-.54979-2.055-.54979-.452-.00882-.903.03672-1.343.13562-.302.07304-.589.19702-.849.36652-.198.12468-.356.3043-.453.5168-.085.19323-.129.40148-.129.61209-.019.23565.016.47237.1.69341.084.22105.216.42102.387.58576.485.35109 1.05.57659 1.645.65609l2.11.4032c1.66.3225 2.879.8479 3.656 1.576.777.7282 1.164 1.7752 1.159 3.1411.009.63-.116 1.2549-.369 1.8327-.254.5651-.632 1.0663-1.107 1.4661-.544.4422-1.171.7723-1.845.9712-.85.2543-1.735.3779-2.623.3666-2.095 0-3.694-.4399-4.796-1.3195-1.1017-.8797-1.7006-2.2102-1.7965-3.9915z"/><path d="m112.574 8.84806h2.921v1.46614c.387-.57076.915-1.03473 1.531-1.34876.617-.31403 1.303-.46789 1.995-.44725 1.566 0 2.735.52168 3.51 1.56511.775 1.0433 1.16 2.4752 1.157 4.2956.01.8086-.102 1.614-.332 2.3898-.197.6737-.525 1.3025-.965 1.8509-.417.5017-.943.9028-1.539 1.1729-.642.2995-1.345.4499-2.055.4398-.569-.002-1.133-.1025-1.667-.2969-.618-.2467-1.156-.656-1.557-1.1838v5.2486h-3.011zm2.988 5.60784c-.016.5796.045 1.1588.181 1.7227.101.3953.306.757.594 1.0482.245.2338.544.4048.87.4985.292.0775.592.1169.893.1173.325-.0002.646-.065.945-.1906.308-.1331.578-.341.784-.6048.244-.3182.423-.6804.528-1.0666.138-.5174.203-1.0517.192-1.587.012-.5492-.049-1.0977-.181-1.631-.098-.3855-.269-.7488-.504-1.0703-.198-.26-.462-.4635-.764-.5901-.297-.121-.617-.182-.938-.1796-.328-.0074-.655.0422-.966.1466-.29.11-.56.2673-.798.4655-.294.28-.511.6292-.633 1.0153-.15.5092-.218 1.0385-.203 1.5687z"/><path d="m125.648 7.4515h3.11v-2.66463h-3.096zm.04 12.4619h3.014v-11.06544h-3.014z"/><path d="m141.17 15.8927c-.054 1.1892-.548 2.3168-1.387 3.1667-.812.782-2.028 1.1729-3.649 1.1729-.838.0143-1.67-.1352-2.45-.4398-.651-.2529-1.231-.6592-1.689-1.1839-.452-.5356-.786-1.1601-.978-1.8326-.222-.7772-.33-1.582-.321-2.3897-.012-.8163.113-1.6287.369-2.4044.229-.688.598-1.3218 1.085-1.862.492-.52178 1.096-.92753 1.767-1.18754 1.394-.50702 2.915-.55458 4.338-.13561.524.16705 1.01.43618 1.428.79169.387.33574.695.75096.904 1.21686.22.4942.365 1.0178.432 1.5541l-3.044.4032c-.045-.4891-.215-.9586-.494-1.3635-.165-.187-.372-.332-.604-.4226-.233-.0906-.484-.1242-.732-.0979-.4-.0149-.795.0843-1.14.2859-.308.1908-.563.4571-.738.7734-.184.3432-.309.715-.369 1.0995-.071.4301-.107.8653-.107 1.3012-.001.4469.035.8931.107 1.3342.063.3907.188.7692.369 1.1215.165.3143.411.5798.712.7697.343.2021.738.3014 1.137.2859.255.0168.512-.0195.752-.1066.241-.0871.461-.223.646-.3992.359-.4068.565-.925.583-1.4661z"/><path d="m152.869 16.446c-.125 1.0982-.667 2.1074-1.516 2.8223-.811.6426-1.991.9639-3.538.9639-1.862 0-3.264-.5082-4.206-1.5247s-1.411-2.4545-1.409-4.314c-.014-.8472.125-1.69.41-2.4887.253-.6829.644-1.3067 1.151-1.8326.499-.50941 1.105-.90356 1.774-1.15462.73-.26656 1.503-.39823 2.28-.38852 1.722 0 3.016.4887 3.881 1.4661.867.97504 1.303 2.28344 1.303 3.93654v1.1838h-7.788c-.017.7531.227 1.489.689 2.0856.248.2574.551.4568.886.5836s.694.1779 1.051.1494c1.188 0 1.893-.4948 2.107-1.4661zm-2.774-3.2987c.043-.6453-.161-1.2828-.572-1.785-.232-.2261-.511-.3998-.817-.5092-.307-.1094-.633-.152-.957-.1249-.36-.0081-.718.0568-1.052.1906-.288.117-.548.2931-.763.5168-.209.2213-.373.4801-.484.7624-.119.3006-.185.6192-.195.942z"/></g></g></svg>