<svg fill="none" height="26" viewBox="0 0 187 26" width="187" xmlns="http://www.w3.org/2000/svg"><g fill="#fff"><path d="m70.2913 10.1584v11.5082h-4.2639v-11.5082h-4.3077v-3.66231h12.8805v3.66231h-4.3077z"/><path d="m84.5535 17.0955h-6.7698c.1316 1.2564.8783 1.8197 1.9565 1.8197 1.0111 0 1.8468-.2174 2.9896-.8023l1.5167 2.4923c-1.4278.8228-2.9019 1.2997-4.7025 1.2997-3.4732 0-5.3858-2.4275-5.3858-5.9169 0-3.9217 2.2416-5.9372 5.275-5.9372s5.1434 2.0587 5.1434 6.2844c0 .3255 0 .5633-.0219.7591zm-5.2312-4.162c-.9015 0-1.407.6066-1.5386 1.7333h3.2978c-.1986-1.1483-.5945-1.7333-1.7592-1.7333z"/><path d="m91.9134 21.9049c-3.3843 0-5.4066-2.1236-5.4066-5.9589 0-3.4893 1.803-5.8952 5.4943-5.8952 2.1758 0 3.4294.9969 4.4405 2.6005l-2.7252 2.0371c-.5494-.9969-.9234-1.4738-1.7799-1.4738-1.0123 0-1.5167.9969-1.5167 2.7951 0 1.7981.5495 2.7302 1.6264 2.7302.7468 0 1.2743-.412 2.0003-1.4738l2.506 1.929c-1.3401 1.9507-2.5937 2.7098-4.6379 2.7098z"/><path d="m105.407 21.6659v-6.4586c0-1.4738-.506-1.863-1.318-1.863-.813 0-1.341.3904-1.341 1.8198v6.5018h-3.956v-14.23842l3.956-1.56029v5.17931c.724-.5417 1.538-.9969 2.901-.9969 2.528 0 3.738 1.6684 3.738 4.6592v6.9571h-3.979z"/><path d="m118.857 21.9039c-4.572 0-7.012-3.3379-7.012-7.823 0-4.87548 2.902-7.82309 7.034-7.82309 3.781 0 5.276 1.60353 6.331 4.46469l-3.868 1.4954c-.551-1.4089-1.077-2.29779-2.484-2.29779-1.78 0-2.55 1.75489-2.55 4.16079s.747 4.1607 2.594 4.1607c1.34 0 1.913-.7146 2.747-2.1452l3.605 1.8858c-1.033 1.9939-2.748 3.9229-6.396 3.9229z"/><path d="m134.985 14.5776c-.505-.5417-1.076-.9537-1.846-.9537-.967 0-1.561.4552-1.561 1.8413v6.198h-3.956v-11.3785h3.956v.824c.681-.6498 1.451-1.0618 2.462-1.0618.834 0 1.407.1946 1.867.4768l-.923 4.0527z"/><path d="m144.39 21.6663v-.7591c-.704.5417-1.539.9981-2.879.9981-2.528 0-3.738-1.6683-3.738-4.6604v-6.9558h3.979v6.4585c0 1.4726.506 1.863 1.318 1.863.813 0 1.318-.3904 1.318-1.8209v-6.5006h3.979v11.3784h-3.979z"/><path d="m157.839 21.6671v-6.4586c0-1.4738-.506-1.863-1.318-1.863-.813 0-1.342.3904-1.342 1.8198v6.5018h-3.955v-11.3785h3.955v.7591c.725-.5417 1.539-.9969 2.902-.9969 2.528 0 3.738 1.6684 3.738 4.6592v6.9571h-3.979z"/><path d="m169.528 21.9049c-3.385 0-5.407-2.1236-5.407-5.9589 0-3.4893 1.803-5.8952 5.494-5.8952 2.176 0 3.43.9969 4.441 2.6005l-2.725 2.0371c-.55-.9969-.924-1.4738-1.78-1.4738-1.013 0-1.517.9969-1.517 2.7951 0 1.7981.55 2.7302 1.626 2.7302.747 0 1.275-.412 2.001-1.4738l2.506 1.929c-1.34 1.9507-2.594 2.7098-4.638 2.7098z"/><path d="m183.021 21.6659v-6.4586c0-1.4738-.505-1.863-1.318-1.863-.812 0-1.341.3904-1.341 1.8198v6.5018h-3.956v-14.23842l3.956-1.56029v5.17931c.725-.5417 1.539-.9969 2.902-.9969 2.528 0 3.737 1.6684 3.737 4.6592v6.9571h-3.978z"/><path d="m0 0v8.66627h8.78961v17.33373h8.79079v-17.33373h8.7896v-8.66627z"/><path d="m35.1597 17.3354v-8.66743h-8.7896v17.33373h26.3701v-8.6663z"/><path d="m52.7396 0h-17.5804v8.66627h17.5804z"/></g></svg>