<svg fill="none" height="48" viewBox="0 0 56 48" width="56" xmlns="http://www.w3.org/2000/svg" xmlns:xlink="http://www.w3.org/1999/xlink"><clipPath id="a"><path d="m0 0h56v48h-56z"/></clipPath><g clip-path="url(#a)" fill="#fff"><path d="m36.6823 25.699c-1.5593-2.5179-4.1321-4.3963-8.2252-4.4363-3.4304-.04-6.0032 1.159-7.7963 3.1574l-.2729 2.6777h-1.5203c-.5457 1.1591-.9745 2.438-1.2084 3.7969 2.4558 1.4388 4.0151 3.9567 4.0151 7.0741 0 2.0383-.6627 4.0766-1.8321 5.6752 1.8711 2.5179 4.6778 3.8768 7.9912 3.8768 4.0931 0 6.8608-1.8385 8.576-4.4363-1.3254-2.0783-2.105-4.8759-2.105-8.2731-.039-3.4371.7406-6.6744 2.3779-9.1124zm-8.654 16.7061c-1.5982 0-2.6897-1.199-3.1575-3.1574-.2729-1.3189-.3119-2.7177-.3119-4.0766 0-2.4779.156-5.7552 1.0525-7.3539.6627-1.119 1.7152-1.5587 2.5339-1.5587 1.7152 0 2.6117 1.4388 2.9626 2.9975.3508 1.5587.4288 4.3164.4288 5.4355 0 3.597-.5068 7.7136-3.5084 7.7136z"/><path d="m45.4529 21.3405c-4.0541-.0399-6.9388 1.6387-8.7319 4.3164 1.5982 2.5579 2.105 5.7552 2.105 8.3531 0 3.1174-.7017 6.4746-2.4559 9.0724 1.8711 2.9176 4.8337 4.5163 8.4201 4.5163 8.1861 0 11.0318-7.234 11.0318-13.5088-.039-5.1157-2.066-12.6295-10.3691-12.7494zm-.4288 21.1424c-1.5983 0-2.6898-1.199-3.1576-3.1573-.2728-1.3189-.3118-2.7178-.3118-4.0766 0-2.478.1559-5.7553 1.0525-7.3539.6627-1.1191 1.7152-1.5587 2.5338-1.5587 1.7152 0 2.6118 1.4388 2.9626 2.9975s.4288 4.3164.4288 5.4355c0 3.597-.5068 7.7135-3.5083 7.7135z"/><path d="m36.6815 25.6992c-1.6372 2.438-2.4169 5.6753-2.4169 9.1924 0 3.3971.7797 6.1548 2.1051 8.2731 1.7152-2.5979 2.4558-5.9551 2.4558-9.0725-.039-2.6777-.5457-5.8751-2.144-8.393z"/><path d="m17.6197 30.8928c-1.4813-.8793-3.3134-1.3589-5.3405-1.3589-1.3253 0-2.92359.2398-4.01508.6794-.23389.1199-.50676.2398-.74065.3997l.35083-3.5571h10.9539c.4677-.9991 1.0915-1.9184 1.7931-2.6777l.2729-2.5579h-18.20446l-1.36436 13.6287 6.12013.7593c.42879-.6394 1.01352-1.5986 3.00159-1.5986 2.5338 0 3.7422 1.6386 3.7422 3.9167 0 1.9584-1.0525 3.9167-3.6253 3.9167-1.48126 0-2.65071-.6794-3.07951-2.1182-.19491-.5995-.19491-1.199-.19491-1.8385l-7.28958.7994c.389817 1.9184.740652 3.6769 2.3389 5.3555 2.7677 2.8776 6.86078 2.8776 8.1862 2.8776 2.066 0 5.8862-.1998 8.5759-2.9975.2729-.2798.5068-.5595.7017-.8393-1.5982-2.1582-2.5338-5.1557-2.5338-8.8726 0-1.3589.1169-2.6778.3508-3.9167z"/><path d="m20.3484 27.0957.2729-2.6777c-.7017.7993-1.3254 1.6786-1.7932 2.6777z"/><path d="m17.6194 30.8945c-.2339 1.239-.3508 2.5179-.3508 3.8768 0 3.7169.9355 6.7144 2.5338 8.8726 1.1694-1.5987 1.8321-3.637 1.8321-5.6753 0-3.1174-1.5593-5.6353-4.0151-7.0741z"/><path d="m.740234 19.3033v-4.1965h2.416866v-10.43131h-2.416866v-4.476271h12.941966v4.476271h-2.4169v10.43131h2.4169v4.1965z"/><path d="m25.4156 19.3036v-4.1965h1.8711v-4.3564c0-1.31888-.8965-1.91838-2.105-1.91838-1.4813 0-2.6118 1.11907-2.6118 2.63778v3.597h1.9491v4.1566h-10.1352v-4.1166h1.8321v-6.27478h-1.8321v-4.15654h7.9912v2.8776c.117-.1199.2729-.27976.3509-.39966 1.4813-1.71857 3.1185-2.31807 5.3405-2.31807 3.0795 0 5.6133 1.27893 5.6133 4.796v5.51545h1.6373v4.1565z"/><path d="m51.4555 10.8325-5.4574.5995c-.078-1.55871-.3899-3.19734-2.222-3.19734-2.3389 0-2.5338 1.99834-2.5338 3.95674v.0399c0 1.9184.1949 3.9567 2.5338 3.9567 1.2474 0 2.3389-.7194 2.3389-2.2781h.1949 5.2625l-.1169.4796c-.8966 4.5562-4.9117 5.2756-7.7963 5.2756-4.5219 0-8.9658-2.2781-8.9658-7.4338 0-5.15568 4.4439-7.43378 8.9658-7.43378.0389-.03997 7.0946-.4796 7.7963 6.03498z"/><path d="m53.3663 19.345c1.2702 0 2.2999-1.0558 2.2999-2.3581s-1.0297-2.358-2.2999-2.358-2.2999 1.0557-2.2999 2.358 1.0297 2.3581 2.2999 2.3581z"/></g></svg>