<svg fill="none" height="56" viewBox="0 0 82 56" width="82" xmlns="http://www.w3.org/2000/svg"><g fill="#fff"><path d="m21.3359 16h3.7332v23.6983h-3.7332zm16.7993 16.1385c0 3.6268-3.0024 3.9159-3.8956 3.9159-2.2315 0-2.6374-2.1214-2.6374-3.4011v-9.0698h-3.7332v9.0508c0 2.2466.6944 4.1008 1.9114 5.3369 1.0751 1.0929 2.686 1.6901 4.4312 1.6901 1.2376 0 2.9903-.3915 3.9236-1.2569v1.2939h3.7332v-16.1148h-3.7332zm11.1995-14.2426h-3.7332v5.6876h-2.7998v3.7917h2.7998v12.3231h3.7332v-12.3231h2.7999v-3.7917h-2.7999zm14.5566 16.9841c-.8129.7422-1.8862 1.1536-3.064 1.1536-2.5964 0-4.5032-1.9366-4.5032-4.5956 0-2.6589 1.8461-4.514 4.5032-4.514 1.1573 0 2.2511.3915 3.0845 1.1337l.5665.4948 2.5171-2.5556-.63-.5773c-1.4811-1.3584-3.4476-2.1205-5.5391-2.1205-4.6664 0-8.0552 3.4201-8.0552 8.119 0 4.679 3.47 8.2214 8.0552 8.2214 2.1307 0 4.1177-.7621 5.5802-2.1423l.6085-.5773-2.5563-2.5537zm16.4287-9.8917c-1.0751-1.092-2.3351-1.6892-4.0803-1.6892-1.2376 0-2.6394.3915-3.5727 1.256v-8.5551h-3.7332v23.6983h3.7332v-8.8774c0-3.6268 2.5367-3.9149 3.4299-3.9149 2.2315 0 2.1699 2.1224 2.1699 3.4002v9.3921h3.7331v-9.3722c0-2.2466-.4619-4.1008-1.6799-5.3378z"/><path d="m60.7049 28.7363c.7159 0 1.4024.2889 1.9086.803s.7905 1.2114.7905 1.9384c0 .7271-.2843 1.4244-.7905 1.9385s-1.1927.803-1.9086.803c-.7158 0-1.4023-.2889-1.9085-.803s-.7905-1.2114-.7905-1.9385c0-.727.2843-1.4243.7905-1.9384s1.1927-.803 1.9085-.803z"/><path d="m16.1096 33.7467c-1.4196 1.4835-3.3478 2.2874-5.3767 2.2874-4.15879 0-7.18266-3.3178-7.18266-7.8716 0-4.5747 3.02387-7.8925 7.18266-7.8925 2.0093 0 3.9161.8029 5.3571 2.2665l.5674.5773 2.4956-2.5348-.5478-.5773c-2.0691-2.1641-4.869-3.3376-7.8723-3.3376-6.1271 0-10.7329 4.9453-10.7329 11.5183 0 6.553 4.62633 11.4785 10.7329 11.4785 3.0238 0 5.8237-1.1944 7.8928-3.3585l.5479-.5773-2.4751-2.5756z"/></g></svg>