<svg fill="none" height="56" viewBox="0 0 124 56" width="124" xmlns="http://www.w3.org/2000/svg"><path d="m40.0396 24.6225c0-2.211-2.1631-4.5593-5.9062-4.5593-4.2034 0-8.821 3.0649-9.5267 9.1795-.721 6.1756 3.1449 8.9204 7.0415 8.9204 3.8965 0 5.9369-1.5096 8.0232-3.5224-1.7949-2.2415-4.1113-1.2046-4.5562-.9759-.4909.244-1.1199.5794-2.4085.5794-1.5034 0-3.0375-.6709-3.0375-3.4614 9.634-.9454 10.3704-3.9493 10.3704-6.1603zm-4.771.3659c-.0614.6862-.3375 1.8603-5.2159 2.516 1.0278-3.6291 2.9915-3.9036 3.8966-3.9036.8437 0 1.3807.6557 1.3193 1.3876zm-16.3227.5947s-2.071 6.4654-2.2397 6.999c-.0614-.5489-1.5801-12.1529-1.5801-12.1529-3.5284 0-5.41535 2.5007-6.4125 5.1387 0 0-2.5159 6.4806-2.73067 7.0295-.01534-.5032-.38352-6.9533-.38352-6.9533-.21478-3.2326-3.1909-5.1997-5.59941-5.1997l2.91476 17.5814c3.69714-.0152 5.69145-2.5007 6.73463-5.1387 0 0 2.22441-5.7181 2.31651-5.9774.0153.244 1.5954 11.1161 1.5954 11.1161 3.7125 0 5.7068-2.333 6.7807-4.8795l5.2005-12.7019c-3.6665 0-5.5994 2.4855-6.5966 5.1387zm34.7164-5.5504c-2.2858 0-4.0347 1.2351-5.5074 3.0497v-.0153l1.3193-10.5671c-3.0375 0-5.5074 2.6227-5.9829 6.5263l-2.3011 18.8623c1.7488 0 3.605-.5032 4.6022-1.7841.8898 1.1437 2.2244 2.0586 4.2034 2.0586 5.1238 0 8.6369-5.9164 8.6369-11.4668-.0307-5.0625-2.5006-6.6636-4.9704-6.6636zm-.4756 9.0728c-.5369 3.0954-2.2705 5.1997-3.9426 5.1997-1.6875 0-2.4085-.7472-2.4085-.7472.3221-2.7142.5216-4.3762 1.1352-5.8096.6136-1.4333 2.071-3.7206 3.5898-3.7206 1.488 0 2.163 1.967 1.6261 5.0777zm18.2402-8.6611h-3.5744l.0154-.183c.2454-2.3177.7977-3.5376 2.6233-3.7358 1.2426-.122 1.7948-.7624 1.9329-1.4639.1074-.5489.4449-2.455.4449-2.455-7.1795-.0457-9.4346 3.0345-10.0176 7.731l-.0153.1067h-.0767c-1.1659 0-2.4546 1.3114-2.6693 2.9735l-.0767.6099h2.3931l-2.0096 16.4988-.6136 2.9582c.0767 0 .1687.0152.2454.0152 3.3596-.122 5.5074-2.76 5.9829-6.5873l1.5648-12.8849h1.1199c1.1045 0 2.3931-1.0979 2.6233-2.9277zm18.5931-.305c-4.1266 0-8.0232 3.0192-9.2198 7.7615-1.1966 4.7422.6136 10.3536 6.6886 10.3536 6.0596 0 9.5573-5.8401 9.5573-10.7043 0-4.8338-3.2982-7.4108-7.0261-7.4108zm1.6722 8.8136c-.2148 2.1501-1.1659 5.4132-3.7738 5.4132-2.6233 0-2.2552-3.8121-1.9944-5.6267.2762-1.9365 1.3654-4.6965 3.7125-4.6965 2.1017 0 2.3012 2.4855 2.0557 4.91zm25.7418-3.3699s-2.071 6.4654-2.24 6.999c-.061-.5489-1.58-12.1529-1.58-12.1529-3.528 0-5.415 2.5007-6.412 5.1387 0 0-2.516 6.4806-2.731 7.0295-.015-.5032-.383-6.9533-.383-6.9533-.215-3.2326-3.191-5.1997-5.5998-5.1997l2.8998 17.5814c3.697-.0152 5.691-2.5007 6.734-5.1387 0 0 2.225-5.7181 2.301-5.9774.031.244 1.596 11.1161 1.596 11.1161 3.712 0 5.707-2.333 6.78-4.8795l5.201-12.7019c-3.651 0-5.584 2.4855-6.566 5.1387zm-42.6321-12.9764-3.0068 24.1078-.6136 2.9734c.0767 0 .1687.0152.2454.0152 3.237-.0457 5.5381-2.8667 5.9676-6.4195l1.7335-13.8303c.5216-4.2238-2.0096-6.8466-4.3261-6.8466z" fill="#fff"/></svg>