<svg fill="none" height="103" viewBox="0 0 555 103" width="555" xmlns="http://www.w3.org/2000/svg" xmlns:xlink="http://www.w3.org/1999/xlink"><radialGradient id="a" cx="0" cy="0" gradientTransform="matrix(402.88668107 -99.7812392 87.80246127 354.51997286 369.765 112.656)" gradientUnits="userSpaceOnUse" r="1"><stop offset="0" stop-color="#61b3ff"/><stop offset="1" stop-color="#61b3ff" stop-opacity="0"/></radialGradient><radialGradient id="b" cx="0" cy="0" gradientTransform="matrix(475.00917583 -150.20834906 133.64871624 422.64206316 48.9478 157.719)" gradientUnits="userSpaceOnUse" r="1"><stop offset="0" stop-color="#a282ff"/><stop offset="1" stop-color="#a282ff" stop-opacity="0"/></radialGradient><radialGradient id="c" cx="0" cy="0" gradientTransform="matrix(534.69562118 -100.85395417 88.04638204 466.79394301 -.791314 138.406)" gradientUnits="userSpaceOnUse" r="1"><stop offset="0" stop-color="#ff279c"/><stop offset="1" stop-color="#ff279c" stop-opacity="0"/></radialGradient><radialGradient id="d" cx="0" cy="0" gradientTransform="matrix(171.59980846 -196.34369841 451.9264011 394.97312363 65.113 196.344)" gradientUnits="userSpaceOnUse" r="1"><stop offset="0" stop-color="#ff6fce"/><stop offset="1" stop-color="#ff6fce" stop-opacity="0"/></radialGradient><radialGradient id="e" cx="0" cy="0" gradientTransform="matrix(185.27858851 -57.93745348 51.51862853 164.75178322 -66.6956 144.844)" gradientUnits="userSpaceOnUse" r="1"><stop offset="0" stop-color="#ffcf54"/><stop offset="1" stop-color="#ffcf54" stop-opacity="0"/></radialGradient><radialGradient id="f" cx="0" cy="0" gradientTransform="matrix(83.31308159 -51.50001365 48.65242368 78.70645182 -77.8869 124.458)" gradientUnits="userSpaceOnUse" r="1"><stop offset="0" stop-color="#dcff93"/><stop offset="1" stop-color="#dcff93" stop-opacity="0"/></radialGradient><radialGradient id="g" cx="0" cy="0" gradientTransform="matrix(4.97399653 -133.04205194 254.28334831 9.50680235 101.174 173.812)" gradientUnits="userSpaceOnUse" r="1"><stop offset="0" stop-color="#fff"/><stop offset="1" stop-color="#fff" stop-opacity="0"/></radialGradient><clipPath id="h"><path d="m0 0h555v103h-555z"/></clipPath><g clip-path="url(#h)"><path d="m-104 0h858v103h-858z" fill="#ffee97"/><path d="m-104 0h858v103h-858z" fill="url(#a)"/><path d="m-104 0h858v103h-858z" fill="url(#b)"/><path d="m-104 0h858v103h-858z" fill="url(#c)"/><path d="m-104 0h858v103h-858z" fill="url(#d)"/><path d="m-104 0h858v103h-858z" fill="url(#e)"/><path d="m-104 0h858v103h-858z" fill="url(#f)"/><path d="m-104 0h858v103h-858z" fill="url(#g)"/></g></svg>