<svg fill="none" height="24" viewBox="0 0 24 24" width="24" xmlns="http://www.w3.org/2000/svg"><path d="m14.25 9.75v11.25m6.75-11.25h-18m17.4-6.75h-16.8c-.15913 0-.31174.06321-.42426.17574-.11253.11252-.17574.26513-.17574.42426v16.8c0 .1591.06321.3117.17574.4243.11252.1125.26513.1757.42426.1757h16.8c.1591 0 .3117-.0632.4243-.1757.1125-.1126.1757-.2652.1757-.4243v-16.8c0-.15913-.0632-.31174-.1757-.42426-.1126-.11253-.2652-.17574-.4243-.17574z" stroke="#090a0b" stroke-linecap="square" stroke-width="1.5"/></svg>