<svg fill="none" height="56" viewBox="0 0 154 56" width="154" xmlns="http://www.w3.org/2000/svg"><path d="m146.657 46.9214h-112.1492v-34.2925h112.1352c.941 0 1.525 1.0295 1.041 1.827l-9.782 14.5145c-.314.464-.314 1.0585 0 1.5225l9.796 14.587c.485.8265-.1 1.8415-1.041 1.8415z" fill="#fff"/><g fill="#0e031e"><path d="m66.7763 20.502v3.7265h-3.3795v-3.7265h-1.597v8.903h1.597v-3.6105h3.3795v3.6105h1.597v-8.903z"/><path d="m73.4782 26.5342c0 .7395-.5989 1.3485-1.3262 1.3485-.7272 0-1.3261-.609-1.3261-1.3485v-3.8135h-1.5114v3.8135c0 1.595 1.269 2.8855 2.8375 2.8855 1.5686 0 2.8376-1.2905 2.8376-2.8855v-3.8135h-1.5114z"/><path d="m84.7145 23.112c0-.783.5133-1.0295 1.0694-1.0295.4421 0 1.041.348 1.426.7685l.9981-1.189c-.4991-.6815-1.4972-1.16-2.3243-1.16-1.654 0-2.8375.986-2.8375 2.61 0 3.016 3.6218 2.059 3.6218 3.741 0 .522-.4991.986-1.0694.986-.8984 0-1.1836-.4495-1.5971-.9135l-1.0979 1.16c.6987.8845 1.5685 1.334 2.6094 1.334 1.5685 0 2.8233-.986 2.8233-2.5375 0-3.364-3.6218-2.32-3.6218-3.77z"/><path d="m107.13 27.9841c-.899 0-1.155-.3915-1.155-1.0005v-2.668h1.397v-1.3485h-1.397v-1.7835l-1.54.696v5.4375c0 1.392.941 2.088 2.238 2.088.2 0 .457-.0145.613-.0435l.371-1.4065c-.171.0145-.356.029-.527.029z"/><path d="m79.2535 22.7645c-.7558 0-1.2691.2175-1.7824.725v-2.929h-1.5258v5.423c0 2.03 1.4402 3.422 3.0658 3.422 1.8109 0 3.3794-1.421 3.3794-3.3205.0143-1.885-1.4402-3.3205-3.137-3.3205zm0 5.0895c-.9554 0-1.7254-.783-1.7254-1.7545s.77-1.7545 1.7254-1.7545c.9553 0 1.7253.783 1.7253 1.7545-.0142.9715-.7842 1.7545-1.7253 1.7545z"/><path d="m95.7509 26.0119c0-1.914-1.5828-3.3205-3.3795-3.3205-1.6256 0-3.0657 1.392-3.0657 3.422v5.423h1.5257v-2.929c.4991.5075 1.0267.725 1.7824.725 1.6683 0 3.1371-1.4355 3.1371-3.3205zm-1.4402-.029c0 .9715-.77 1.7545-1.7254 1.7545s-1.7254-.783-1.7254-1.7545.77-1.7545 1.7254-1.7545c.9411 0 1.7254.7975 1.7254 1.7545z"/><path d="m100.657 22.6045v-1.5515c.399-.1885.67-.5945.67-1.073v-.029c0-.6525-.528-1.189-1.169-1.189h-.029c-.6416 0-1.1692.5365-1.1692 1.189v.029c0 .4785.2851.8845.6844 1.073v1.5515c-.5989.087-1.1407.348-1.5828.7105l-4.1922-3.3205c.0285-.1015.0428-.2175.0428-.3335 0-.7395-.5846-1.3485-1.3261-1.3485-.7272 0-1.3261.5945-1.3261 1.3485 0 .7395.5846 1.3485 1.3261 1.3485.2424 0 .4563-.0725.6559-.174l4.1209 3.2625c-.3565.5365-.5561 1.189-.5561 1.8705 0 .725.2282 1.392.6132 1.9575l-1.2548 1.276c-.0999-.029-.1997-.058-.3138-.058-.5988 0-1.0837.493-1.0837 1.102s.4849 1.102 1.0837 1.102c.5989 0 1.0837-.493 1.0837-1.102 0-.116-.0142-.2175-.057-.319l1.2406-1.2615c.5561.435 1.269.696 2.0245.696 1.854 0 3.351-1.5225 3.351-3.4075-.014-1.6965-1.24-3.103-2.837-3.3495zm-.514 5.104c-.9408 0-1.7108-.783-1.7108-1.74s.77-1.74 1.7108-1.74c.941 0 1.711.783 1.711 1.74s-.77 1.74-1.711 1.74z"/><path d="m62.3133 39.0634c.0856.116.1854.203.2995.261.1283.058.2566.087.385.087.0713 0 .1425-.0145.2281-.029s.1426-.058.2139-.1015c.057-.0435.1141-.1015.1568-.174.0428-.0725.0571-.145.0571-.232 0-.1305-.0428-.2175-.1141-.29-.0855-.0725-.1711-.116-.2994-.174-.1141-.0435-.2424-.087-.385-.1305s-.271-.1015-.385-.174c-.1141-.0725-.2139-.174-.2995-.3045-.0855-.1305-.1141-.29-.1141-.5075 0-.1015.0143-.203.0571-.3045s.0998-.203.1996-.29c.0856-.087.1996-.1595.3422-.232s.2995-.087.4991-.087c.1711 0 .3422.029.5133.0725.1569.0435.2995.145.4278.3045l-.3565.3335c-.057-.087-.1283-.1595-.2281-.203-.0998-.058-.2139-.0725-.3422-.0725-.1284 0-.2282.0145-.2995.0435-.0855.029-.1426.0725-.1996.1305-.0428.058-.0856.1015-.0998.1595-.0143.058-.0285.116-.0285.1595 0 .145.0427.2465.114.319.0856.0725.1711.1305.2995.174.1141.0435.2424.087.385.1305s.2709.087.385.1595.2139.1595.2994.2755c.0856.116.1141.2755.1141.464 0 .1595-.0285.3045-.0856.4205-.057.1305-.1426.232-.2424.319s-.2139.1595-.3564.203c-.1426.0435-.2852.0725-.4421.0725-.2139 0-.3992-.0435-.5846-.116s-.328-.1885-.442-.348z"/><path d="m66.2343 39.8319c-.2424 0-.4705-.0435-.6844-.1305s-.385-.203-.5276-.3625-.2567-.3335-.3422-.551c-.0856-.2175-.1283-.435-.1283-.6815s.0427-.4785.1283-.6815c.0855-.2175.1996-.3915.3422-.551s.328-.2755.5276-.3625c.2139-.087.4278-.1305.6844-.1305.2567 0 .4706.0435.6845.1305s.385.203.5276.3625.2567.3335.3422.551c.0856.2175.1283.435.1283.6815s-.0427.4785-.1283.6815c-.0855.2175-.1996.3915-.3422.551s-.328.2755-.5276.3625c-.2139.087-.4278.1305-.6845.1305zm0-.4205c.1854 0 .3565-.029.4991-.1015s.271-.1595.385-.2755c.0998-.116.1854-.261.2424-.4205.0571-.1595.0856-.3335.0856-.5075s-.0285-.348-.0856-.5075c-.057-.1595-.1426-.3045-.2424-.4205s-.2281-.2175-.385-.2755c-.1426-.0725-.3137-.1015-.4991-.1015-.1853 0-.3564.029-.499.1015s-.271.1595-.385.2755c-.0998.116-.1854.261-.2424.4205-.0571.1595-.0856.3335-.0856.5075s.0285.348.0856.5075c.057.1595.1426.3045.2424.4205s.2281.2175.385.2755c.1568.0725.3137.1015.499.1015z"/><path d="m68.5586 36.4688h.442v2.871h1.483v.4205h-1.925z"/><path d="m71.2965 36.4688v2.0154c0 .1015.0143.2031.0428.3191s.0713.2175.1426.3045c.057.087.1426.174.2567.232.0998.058.2281.0869.385.0869.1568 0 .2852-.0289.385-.0869s.1853-.1305.2566-.232c.0571-.087.1141-.1885.1426-.3045s.0428-.2176.0428-.3191v-2.0154h.442v2.0879c0 .1885-.0285.3626-.0998.522-.057.1596-.1568.2901-.2709.4061s-.2424.203-.3993.261c-.1568.058-.3137.087-.499.087-.1854 0-.3423-.029-.4991-.087-.1569-.058-.2852-.145-.3993-.261-.114-.116-.1996-.2465-.2709-.4061-.057-.1594-.0998-.3335-.0998-.522v-2.0879z"/><path d="m74.8046 36.8892h-1.0409v-.4204h2.5239v.4204h-1.041v2.8711h-.442z"/><path d="m76.7578 36.4688h.4421v3.2915h-.4421z"/><path d="m79.51 39.8319c-.2424 0-.4706-.0435-.6845-.1305-.2138-.087-.385-.203-.5276-.3625-.1425-.1595-.2566-.3335-.3422-.551-.0855-.2175-.1283-.435-.1283-.6815s.0428-.4785.1283-.6815c.0856-.2175.1997-.3915.3422-.551.1426-.1595.328-.2755.5276-.3625.2139-.087.4278-.1305.6845-.1305.2424 0 .4705.0435.6844.1305s.385.203.5276.3625.2567.3335.3422.551c.0856.2175.1284.435.1284.6815s-.0428.4785-.1284.6815c-.0855.2175-.1996.3915-.3422.551s-.3279.2755-.5276.3625c-.2139.087-.442.1305-.6844.1305zm0-.4205c.1854 0 .3565-.029.4991-.1015.1425-.0725.2709-.1595.385-.2755.0998-.116.1853-.261.2424-.4205.057-.1595.0855-.3335.0855-.5075s-.0285-.348-.0855-.5075c-.0571-.1595-.1426-.3045-.2424-.4205-.0999-.116-.2282-.2175-.385-.2755-.1426-.0725-.3137-.1015-.4991-.1015s-.3565.029-.4991.1015-.2709.1595-.385.2755c-.0998.116-.1854.261-.2424.4205s-.0856.3335-.0856.5075.0286.348.0856.5075.1426.3045.2424.4205.2282.2175.385.2755c.1426.0725.3137.1015.4991.1015z"/><path d="m81.8203 36.4688h.5704l1.7824 2.697h.0143v-2.697h.442v3.2915h-.5561l-1.7967-2.697h-.0142v2.697h-.4421z"/><path d="m85.5416 39.0634c.0855.116.1854.203.2994.261.1284.058.2567.087.385.087.0713 0 .1426-.0145.2282-.029.0855-.0145.1426-.058.2139-.1015.057-.0435.114-.1015.1568-.174s.0571-.145.0571-.232c0-.1305-.0428-.2175-.1141-.29-.0856-.0725-.1711-.116-.2995-.174-.114-.0435-.2424-.087-.385-.1305-.1425-.0435-.2709-.1015-.385-.174-.114-.0725-.2138-.174-.2994-.3045s-.1141-.29-.1141-.5075c0-.1015.0143-.203.0571-.3045.0427-.1015.0998-.203.1996-.29.0855-.087.1996-.1595.3422-.232s.2995-.087.4991-.087c.1711 0 .3422.029.5133.0725.1569.0435.2995.145.4278.3045l-.3565.3335c-.057-.087-.1283-.1595-.2281-.203-.0998-.058-.2139-.0725-.3423-.0725-.1283 0-.2281.0145-.2994.0435-.0856.029-.1426.0725-.1996.1305-.0428.058-.0856.1015-.0998.1595-.0143.058-.0286.116-.0286.1595 0 .145.0428.2465.1141.319.0856.0725.1711.1305.2995.174.114.0435.2424.087.385.1305.1425.0435.2709.087.385.1595.114.0725.2138.1595.2994.2755s.1141.2755.1141.464c0 .1595-.0285.3045-.0856.4205-.057.1305-.1426.232-.2424.319s-.2139.1595-.3565.203-.2852.0725-.442.0725c-.2139 0-.3993-.0435-.5846-.116-.1854-.0725-.328-.1885-.4421-.348z"/><path d="m89.249 36.4688h1.1408c.2139 0 .3707.029.5133.087.1283.058.2424.1305.3137.2175s.1283.1885.1568.29c.0286.116.0428.2175.0428.319s-.0142.203-.0428.3189c-.0285.1161-.0855.203-.1568.29s-.1854.1595-.3137.2176c-.1283.0579-.2994.087-.5133.087h-.6987v1.45h-.4421zm.4421 1.4499h.5703c.0856 0 .1711 0 .2567-.0145.0855-.0145.1568-.0435.2281-.0725.0713-.0435.1141-.0869.1569-.1594s.057-.1596.057-.2756-.0142-.203-.057-.2755-.0856-.116-.1569-.1595-.1426-.058-.2281-.0725c-.0856-.0145-.1711-.0144-.2567-.0144h-.5703z"/><path d="m92.6427 36.4688h.3993l1.3831 3.2915h-.5133l-.328-.812h-1.54l-.3137.812h-.5133zm.7843 2.0879-.5989-1.5079h-.0143l-.6131 1.5079z"/><path d="m94.8385 36.4688h1.1407c.2139 0 .3708.029.5134.087.1283.058.2424.1305.3137.2175s.1283.1885.1568.29c.0285.116.0428.2175.0428.319s-.0143.2029-.057.3044c-.0428.1015-.0856.1886-.1569.2611s-.1569.145-.2567.203-.2139.087-.3279.1015l.9126 1.4935h-.5419l-.827-1.45h-.4848v1.45h-.4421v-3.277zm.4278 1.4499h.5703c.0856 0 .1711 0 .2567-.0145s.1568-.0435.2281-.0725c.0713-.0435.1141-.0869.1569-.1594s.057-.1596.057-.2756-.0142-.203-.057-.2755-.0856-.116-.1569-.1595-.1425-.058-.2281-.0725-.1711-.0144-.2567-.0144h-.5703z"/><path d="m98.2187 36.8892h-1.041v-.4204h2.5239v.4204h-1.0409v2.8711h-.442z"/><path d="m100.157 36.4688h.571l1.782 2.697h.014v-2.697h.442v3.2915h-.556l-1.796-2.697h-.015v2.697h-.442z"/><path d="m103.793 36.4688h2.082v.4204h-1.64v.9861h1.54v.4205h-1.54v1.0584h1.725v.4206h-2.167z"/><path d="m106.574 36.4688h1.141c.213 0 .37.029.513.087.128.058.242.1305.314.2175.071.087.128.1885.156.29.029.116.043.2175.043.319s-.014.2029-.057.3044-.085.1886-.157.2611c-.071.0725-.157.145-.256.203-.1.058-.214.087-.328.1015l.912 1.4935h-.542l-.827-1.45h-.484v1.45h-.442v-3.277zm.442 1.4499h.57c.086 0 .171 0 .257-.0145.085-.0145.157-.0435.228-.0725.071-.0435.114-.0869.157-.1594s.057-.1596.057-.2756-.014-.203-.057-.2755-.086-.116-.157-.1595-.143-.058-.228-.0725c-.086-.0145-.171-.0144-.257-.0144h-.57z"/><path d="m110.639 36.4688h1.14c.214 0 .371.029.514.087.128.058.242.1305.313.2175.072.087.129.1885.157.29.029.1015.043.2175.043.319s-.014.203-.043.3189c-.028.1161-.085.203-.157.29-.071.087-.185.1595-.313.2176-.129.0579-.3.087-.514.087h-.698v1.45h-.442zm.442 1.4499h.57c.086 0 .171 0 .257-.0145.085-.0145.157-.0435.228-.0725s.114-.0869.157-.1594.057-.1596.057-.2756-.014-.203-.057-.2755-.086-.116-.157-.1595-.143-.058-.228-.0725c-.086-.0145-.171-.0144-.257-.0144h-.57z"/><path d="m113.347 36.4688h1.141c.214 0 .371.029.513.087.129.058.243.1305.314.2175s.128.1885.157.29c.028.116.043.2175.043.319s-.015.2029-.057.3044c-.043.1015-.086.1886-.157.2611-.072.0725-.157.145-.257.203s-.214.087-.328.1015l.913 1.4935h-.542l-.827-1.45h-.485v1.45h-.442v-3.277zm.428 1.4499h.57c.086 0 .172 0 .257-.0145.086-.0145.157-.0435.228-.0725.072-.029.114-.0869.157-.1594s.057-.1596.057-.2756-.014-.203-.057-.2755-.085-.116-.157-.1595c-.071-.0435-.142-.058-.228-.0725-.085-.0145-.171-.0144-.257-.0144h-.57z"/><path d="m117.61 39.8319c-.242 0-.47-.0435-.684-.1305s-.385-.203-.528-.3625c-.142-.1595-.256-.3335-.342-.551-.085-.2175-.128-.435-.128-.6815s.043-.4785.128-.6815c.086-.2175.2-.3915.342-.551.143-.1595.328-.2755.528-.3625.214-.087.428-.1305.684-.1305.257 0 .471.0435.685.1305s.385.203.527.3625c.143.1595.257.3335.343.551.085.2175.128.435.128.6815s-.043.4785-.128.6815c-.086.2175-.2.3915-.343.551-.142.1595-.328.2755-.527.3625-.2.087-.442.1305-.685.1305zm0-.4205c.186 0 .357-.029.499-.1015.143-.0725.271-.1595.385-.2755s.186-.261.243-.4205.085-.3335.085-.5075-.028-.348-.085-.5075-.143-.3045-.243-.4205c-.099-.116-.228-.2175-.385-.2755-.142-.0725-.313-.1015-.499-.1015-.185 0-.356.029-.499.1015-.142.0725-.271.1595-.385.2755-.1.116-.185.261-.242.4205s-.086.3335-.086.5075.029.348.086.5075.142.3045.242.4205.228.2175.385.2755c.143.0725.314.1015.499.1015z"/><path d="m122.672 37.9179v1.624c-.085.0435-.171.087-.271.1305-.099.0435-.199.0725-.313.1015s-.214.0435-.328.058-.214.0145-.314.0145c-.271 0-.513-.0435-.727-.145-.214-.087-.399-.2175-.542-.377s-.257-.348-.342-.551c-.072-.203-.114-.435-.114-.667 0-.2465.042-.4785.128-.6815.086-.2175.2-.3915.342-.551.143-.1595.328-.2755.528-.3625.214-.087.428-.1305.684-.1305.3 0 .542.0435.728.116.185.0725.342.174.47.319l-.314.3335c-.128-.1305-.271-.2175-.427-.2755-.143-.058-.3-.0725-.471-.0725-.185 0-.356.029-.499.1015s-.271.1595-.385.2755c-.1.116-.185.261-.242.4205s-.086.3335-.086.5075c0 .1885.029.3625.1.522.057.1595.157.3045.271.4205s.242.203.399.2755.314.1015.499.1015c.157 0 .3-.0145.442-.0435.143-.029.257-.0725.357-.1305v-.9135h-.713v-.4205z"/><path d="m123.471 36.4688h1.14c.214 0 .371.029.514.087.128.058.242.1305.313.2175.072.087.129.1885.157.29.029.1015.043.2175.043.319s-.014.2029-.057.3044-.085.1886-.157.2611c-.071.0725-.157.145-.256.203-.1.058-.214.087-.328.1015l.912 1.4935h-.542l-.827-1.45h-.47v1.45h-.442zm.442 1.4499h.57c.086 0 .171 0 .257-.0145.085-.0145.157-.0435.228-.0725.071-.0435.114-.0869.157-.1594s.057-.1596.057-.2756-.014-.203-.057-.2755-.086-.116-.157-.1595-.143-.058-.228-.0725c-.086-.0145-.171-.0144-.257-.0144h-.57z"/><path d="m127.278 36.4688h.4l1.383 3.2915h-.513l-.328-.812h-1.54l-.314.812h-.513zm.785 2.0879-.599-1.5079h-.014l-.614 1.5079z"/><path d="m129.445 36.4688h.656l1.027 2.494h.014l1.013-2.494h.656v3.2915h-.443v-2.697h-.014l-1.084 2.697h-.285l-1.083-2.697h-.015v2.697h-.442z"/><path d="m45.4027 50.5908h-28.7467c-4.0639 0-7.3435-3.3495-7.3435-7.4675v-29.232c0-4.13247 3.2939-7.46747 7.3435-7.46747h28.7467c4.0639 0 7.3435 3.3495 7.3435 7.46747v29.232c0 4.1325-3.2796 7.4675-7.3435 7.4675z"/></g><path d="m45.7879 48.8502h-29.5167c-2.8946 0-5.2331-2.378-5.2331-5.3215v-30.0295c0-2.9435 2.3385-5.32147 5.2331-5.32147h29.531c2.8946 0 5.2331 2.37797 5.2331 5.32147v30.015c-.0143 2.9435-2.3528 5.336-5.2474 5.336z" fill="#fff"/><path d="m47.5129 11.7305h-32.9817v33.5385h32.9817z" fill="#0e031e"/><path d="m52.6887 35.0753h-43.33391c-1.6113 0-2.92315-1.334-2.92315-2.9725v-7.2065c0-1.6385 1.31185-2.9725 2.92315-2.9725h43.33391c1.6113 0 2.9231 1.334 2.9231 2.9725v7.2065c0 1.6385-1.3118 2.9725-2.9231 2.9725z" fill="#0e031e"/><path d="m53.0028 33.4797h-43.74743c-.54185 0-.98389-.4495-.98389-1.0005v-7.9025c0-.551.44204-1.0005.98389-1.0005h43.74743c.5418 0 .9839.4495.9839 1.0005v7.9025c0 .551-.4421 1.0005-.9839 1.0005z" fill="#fff"/><g fill="#0e031e"><path d="m19.6074 26.2891h1.4402c.1996 0 .3993.0145.5989.058.1854.0435.3565.116.4991.203.1426.1015.2566.2175.3422.3915.0855.1595.1283.3625.1283.609 0 .2755-.0428.493-.1426.667-.0855.174-.2139.29-.3707.3915-.1569.087-.3422.1595-.5419.1885-.2138.029-.4277.0435-.6416.0435h-.5419v1.798h-.7557v-4.35zm1.2263 1.885c.1141 0 .2139 0 .3422-.0145.1284-.0145.2282-.029.328-.0725s.1854-.1015.2424-.1885.0998-.203.0998-.348c0-.1305-.0285-.2465-.0855-.319-.0571-.0725-.1284-.145-.2139-.1885-.0856-.0435-.1854-.0725-.2995-.087-.114-.0145-.2139-.0145-.3137-.0145h-.5418v1.218h.442z"/><path d="m23.2295 27.6955h.7272v.464h.0143c.0855-.174.1996-.3045.3422-.3915s.3137-.145.5133-.145c.0428 0 .0856 0 .1284.0145.0427.0145.0855.0145.1283.029v.7105c-.057-.0145-.1141-.029-.1711-.0435-.0571-.0145-.1141-.0145-.1711-.0145-.1711 0-.2995.029-.4135.1015-.0999.058-.1854.1305-.2282.2175-.057.087-.0855.1595-.1141.2465-.0142.087-.0285.145-.0285.1885v1.5805h-.7272z"/><path d="m25.3115 29.1598c0-.232.0428-.4495.1284-.638.0855-.1885.1996-.3481.3279-.493.1426-.1306.3137-.232.4991-.319.1996-.0725.3993-.116.6131-.116.2139 0 .4278.0435.6132.116s.3565.1739.4991.319c.1426.1304.2566.29.3279.493.0856.1885.1284.406.1284.638s-.0428.4494-.1284.6379c-.0855.1885-.1996.3481-.3279.4931-.1426.1305-.3137.232-.4991.319-.1996.0725-.3993.116-.6132.116-.2138 0-.4277-.0435-.6131-.116-.1996-.0725-.3565-.174-.4991-.319-.1426-.1305-.2566-.2901-.3279-.4931-.0856-.1885-.1284-.4059-.1284-.6379zm.7272 0c0 .116.0143.2175.0571.3335s.0998.2029.1711.2754c.0713.087.1568.1451.2709.2031s.2282.0725.3565.0725.2567-.029.3565-.0725.1996-.1161.2709-.2031.1283-.1739.1711-.2754.0571-.2175.0571-.3335-.0143-.2175-.0571-.3336c-.0428-.1015-.0998-.2029-.1711-.2754-.0713-.087-.1568-.1451-.2709-.2031s-.2282-.0725-.3565-.0725-.2567.029-.3565.0725-.1996.1161-.2709.2031-.1283.1739-.1711.2754c-.0285.1161-.0571.2176-.0571.3336z"/><path d="m28.748 27.6953h.7843l.77 2.059h.0143l.77-2.059h.7414l-1.1407 2.9435h-.77z"/><path d="m32.1699 26.6948c0-.116.0428-.2175.1284-.3045.0855-.087.1996-.1305.3279-.1305.1284 0 .2424.0435.328.1305.0855.087.1426.1885.1426.319s-.0428.232-.1426.319-.1996.1305-.328.1305c-.1283 0-.2424-.0435-.3279-.1305-.0856-.116-.1284-.2175-.1284-.3335zm.0998 1.0005h.7273v2.9435h-.7273z"/><path d="m36.1194 30.1894c-.1141.174-.2567.3045-.4278.3915s-.3707.116-.5704.116c-.2281 0-.4277-.0435-.5989-.116-.1711-.0725-.3279-.1885-.442-.3335s-.2139-.3045-.2852-.493-.0998-.3915-.0998-.609.0285-.4205.0998-.609.1569-.348.2852-.493.2709-.2465.442-.3335c.1712-.0725.3565-.116.5704-.116.1426 0 .2567.0145.3565.0435s.1996.0725.2709.116c.0856.0435.1426.087.1997.145.057.058.0998.1015.1425.145h.0143v-2.059h.7272v4.6255h-.6844zm-1.7111-1.0295c0 .116.0142.2175.057.3335s.0998.203.1711.2755c.0713.087.1569.145.2709.203.1141.058.2282.0725.3565.0725.1284 0 .2567-.029.3565-.0725s.1996-.116.2709-.203.1284-.174.1711-.2755c.0428-.1015.0571-.2175.0571-.3335s-.0143-.2175-.0571-.3335c-.0427-.1015-.0998-.203-.1711-.2755-.0713-.087-.1568-.145-.2709-.203s-.2281-.0725-.3565-.0725c-.1283 0-.2566.029-.3565.0725-.0998.0435-.1996.116-.2709.203s-.1283.174-.1711.2755c-.0428.116-.057.2175-.057.3335z"/><path d="m38.2012 29.4213c.0286.2175.1141.3915.2567.5075s.3137.1885.5276.1885c.1854 0 .328-.0435.4563-.116s.2281-.174.328-.29l.5133.3915c-.1711.2175-.3565.3625-.5704.4495s-.4278.1305-.6559.1305c-.2139 0-.4278-.0435-.6131-.116-.1997-.0725-.3565-.174-.4991-.319-.1426-.1305-.2567-.29-.328-.493-.0855-.1885-.1283-.406-.1283-.638s.0428-.4495.1283-.638c.0856-.1885.1996-.348.328-.493.1426-.1305.3137-.232.4991-.319.1996-.0725.3992-.116.6131-.116.1996 0 .385.029.5561.1015s.3137.174.4278.3045.2139.3045.2709.493c.0713.203.0998.4205.0998.6815v.203h-2.2102zm1.483-.551c0-.2175-.0713-.3915-.1996-.5075-.1284-.1305-.3137-.1885-.5419-.1885-.2139 0-.385.058-.5133.1885s-.1996.29-.2282.5075z"/><path d="m41.0818 27.6955h.7272v.464h.0143c.0855-.174.1996-.3045.3422-.3915s.3137-.145.5133-.145c.0428 0 .0856 0 .1284.0145.0427.0145.0855.0145.1283.029v.7105c-.057-.0145-.1141-.029-.1711-.0435-.0571-.0145-.1141-.0145-.1711-.0145-.1711 0-.2995.029-.4136.1015-.0998.058-.1853.1305-.2281.2175-.057.087-.0856.1595-.1141.2465-.0142.087-.0285.145-.0285.1885v1.5805h-.7272z"/></g><path d="m38.1729 20.7069h-5.775l4.7483-2.7695c.1284-.0725.1711-.232.0998-.348-.0713-.1305-.2281-.174-.3422-.1015l-4.9194 2.8565 2.9659-5.104c.0713-.1305.0285-.29-.0856-.3625-.1283-.0725-.2851-.029-.3564.087l-2.9089 5.0025v-5.974c0-.145-.1141-.261-.2567-.261s-.2567.116-.2567.261v6.2495l-2.9801-5.278c-.0713-.1305-.2282-.174-.3423-.1015-.1283.0725-.1711.232-.0998.348l2.7806 4.93-4.7341-2.6825c-.1283-.0725-.2852-.029-.3422.1015-.0713.1305-.0285.29.0998.348l4.8624 2.755h-5.8178c-.1426 0-.2566.116-.2566.261s.114.261.2566.261h13.6747c.1425 0 .2566-.116.2566-.261s-.1283-.2175-.2709-.2175z" fill="#fff"/><path d="m24.4985 37.3379h5.775l-4.7484 2.7695c-.1283.0725-.1711.232-.0998.348.0713.1305.2282.174.3422.1015l4.9195-2.8565-2.9659 5.104c-.0713.1305-.0286.29.0855.3625.1283.0725.2852.029.3565-.087l2.9089-5.0025v5.974c0 .145.1141.261.2567.261.1425 0 .2566-.116.2566-.261v-6.2495l2.9802 5.278c.0713.1305.2282.174.3422.1015.1284-.0725.1711-.232.0998-.348l-2.7805-4.93 4.7341 2.6825c.1283.0725.2851.029.3422-.1015.0713-.1305.0285-.29-.0998-.348l-4.8624-2.755h5.8177c.1426 0 .2567-.116.2567-.261s-.1141-.261-.2567-.261h-13.6746c-.1426 0-.2567.116-.2567.261s.1284.2175.271.2175z" fill="#fff"/></svg>