<svg fill="none" height="152" viewBox="0 0 152 152" width="152" xmlns="http://www.w3.org/2000/svg" xmlns:xlink="http://www.w3.org/1999/xlink"><linearGradient id="a" gradientUnits="userSpaceOnUse" x1="0" x2="180.39" y1="0" y2="101.589"><stop offset="0" stop-color="#141f49" stop-opacity=".54"/><stop offset="1" stop-color="#0e142c" stop-opacity=".23"/></linearGradient><mask id="b" fill="#fff"><path d="m0 9.12c0-5.03684 4.08316-9.12 9.12-9.12h133.76c5.037 0 9.12 4.08316 9.12 9.12v133.76c0 5.037-4.083 9.12-9.12 9.12h-133.76c-5.03684 0-9.12-4.083-9.12-9.12z" fill="#fff"/><path d="m86.4134 24.5251c8.0995 8.975 14.2876 18.6869 17.9556 29.7602 6.359 19.1941 7.912 38.9008 5.211 58.9387-.523 3.871-1.26 7.726-1.581 11.612-.229 2.809-1.948 2.611-3.897 2.659-2.371.064-2.216-1.473-2.194-3.038.347-21.335-4.9658-41.1483-16.1886-59.3013-2.6109-4.2179-5.6915-8.1528-8.6494-12.1518-1.1105-1.5003-1.3989-2.8351-.63-4.6504 3.1073-7.3626 6.0545-14.7893 9.0765-22.1893.1922-.4699.4805-.897.8969-1.6552z" fill="#fff"/><path d="m51.3867 24.4886c6.156 6.9409 11.2282 14.0686 14.8107 22.1413 8.9163 20.1018 10.9772 41.1967 8.7615 62.8571-.5126 5.035-1.5003 10.022-1.8954 15.062-.2403 3.081-2.0182 2.995-4.1805 2.953-2.4347-.054-2.0075-1.805-1.9862-3.247.3204-22.403-5.5687-43.0116-17.8807-61.7358-2.2424-3.4117-4.8853-6.5565-7.1224-9.9682-.6246-.9503-.9663-2.6161-.5766-3.6252 3.0273-7.8699 6.2681-15.6597 9.4556-23.4655.1014-.2402.283-.4538.614-.9717z" fill="#fff"/></mask><path d="m0 9.12c0-5.03684 4.08316-9.12 9.12-9.12h133.76c5.037 0 9.12 4.08316 9.12 9.12v133.76c0 5.037-4.083 9.12-9.12 9.12h-133.76c-5.03684 0-9.12-4.083-9.12-9.12z" fill="url(#a)"/><path d="m86.4134 24.5251c8.0995 8.975 14.2876 18.6869 17.9556 29.7602 6.359 19.1941 7.912 38.9008 5.211 58.9387-.523 3.871-1.26 7.726-1.581 11.612-.229 2.809-1.948 2.611-3.897 2.659-2.371.064-2.216-1.473-2.194-3.038.347-21.335-4.9658-41.1483-16.1886-59.3013-2.6109-4.2179-5.6915-8.1528-8.6494-12.1518-1.1105-1.5003-1.3989-2.8351-.63-4.6504 3.1073-7.3626 6.0545-14.7893 9.0765-22.1893.1922-.4699.4805-.897.8969-1.6552z" fill="#f9fafb"/><path d="m51.3867 24.4886c6.156 6.9409 11.2282 14.0686 14.8107 22.1413 8.9163 20.1018 10.9772 41.1967 8.7615 62.8571-.5126 5.035-1.5003 10.022-1.8954 15.062-.2403 3.081-2.0182 2.995-4.1805 2.953-2.4347-.054-2.0075-1.805-1.9862-3.247.3204-22.403-5.5687-43.0116-17.8807-61.7358-2.2424-3.4117-4.8853-6.5565-7.1224-9.9682-.6246-.9503-.9663-2.6161-.5766-3.6252 3.0273-7.8699 6.2681-15.6597 9.4556-23.4655.1014-.2402.283-.4538.614-.9717z" fill="#f9fafb"/><path d="m86.4134 24.5251h-1v.3845l.2577.2854zm17.9556 29.7602-.949.3144v.0001zm5.211 58.9387.991.134v-.001zm-1.581 11.612-.996-.082v.001zm-3.897 2.659-.025-.999h-.002zm-2.194-3.038-1-.016v.003zm-16.1886-59.3013.8505-.5258-.0003-.0005zm-8.6494-12.1518.804-.5947-.0002-.0003zm-.63-4.6504.9208.39.0005-.0011zm9.0765-22.1893-.9256-.3787-.0002.0006zm.8969-1.6552h1l-1.8764-.4814zm-35.0267-.0204.7481-.6635-.878-.99-.7127 1.115zm14.8107 22.1413.9141-.4054-.0001-.0002zm8.7615 62.8571-.9948-.101h-.0001zm-1.8954 15.062-.9969-.078h-.0001zm-4.1805 2.953-.0219.999h.0021zm-1.9862-3.247.9999.015zm-17.8807-61.7358-.8356.5492.0001.0002zm-7.1224-9.9682.8363-.5483-.0006-.001zm-.5766-3.6252.9328.3603.0005-.0013zm9.4556-23.4655-.9213-.389-.0045.011zm-41.6527-24.4603h133.76v-2h-133.76zm141.88 8.12v133.76h2v-133.76zm-8.12 141.88h-133.76v2h133.76zm-141.88-8.12v-133.76h-2v133.76zm8.12 8.12c-4.48455 0-8.12-3.635-8.12-8.12h-2c0 5.589 4.53088 10.12 10.12 10.12zm141.88-8.12c0 4.485-3.635 8.12-8.12 8.12v2c5.589 0 10.12-4.531 10.12-10.12zm-8.12-141.88c4.485 0 8.12 3.63545 8.12 8.12h2c0-5.58912-4.531-10.12-10.12-10.12zm-133.76-2c-5.58912 0-10.12 4.53088-10.12 10.12h2c0-4.48455 3.63545-8.12 8.12-8.12zm76.5511 26.195c8.0276 8.8955 14.133 18.4899 17.7489 29.4047l1.898-.6289c-3.72-11.2317-9.9909-21.0611-18.1622-30.1157zm17.7489 29.4048c6.308 19.0407 7.851 38.5934 5.169 58.4902l1.982.267c2.72-20.1781 1.157-40.0387-5.253-59.3862zm5.169 58.4902c-.513 3.793-1.263 7.748-1.586 11.664l1.993.165c.318-3.858 1.041-7.613 1.575-11.561zm-1.586 11.665c-.05.608-.174.96-.295 1.164-.11.185-.24.29-.414.366-.199.087-.472.143-.866.172-.407.03-.818.025-1.351.039l.05 1.999c.442-.011.976-.009 1.447-.043.483-.036 1.019-.115 1.523-.335.528-.232.992-.607 1.331-1.177.326-.55.503-1.226.568-2.022zm-2.928 1.741c-.496.013-.751-.062-.871-.122-.094-.048-.141-.1-.183-.194-.055-.123-.097-.318-.114-.633-.018-.319-.005-.653 0-1.076l-1.999-.027c-.005.359-.02.803.002 1.211.022.412.084.89.284 1.339.214.478.571.896 1.114 1.168.517.258 1.132.352 1.821.333zm-1.168-2.022c.351-21.522-5.0112-41.5245-16.3371-59.8441l-1.7011 1.0517c11.1198 17.9863 16.3832 37.6104 16.0392 58.7594zm-16.3374-59.8446c-2.6394-4.2641-5.7602-8.2515-8.6956-12.2202l-1.608 1.1894c2.9803 4.0293 6.0208 7.9117 8.6031 12.0834zm-8.6958-12.2205c-.4982-.6729-.7534-1.231-.8351-1.7637-.0803-.5231-.0085-1.1212.3221-1.9017l-1.8416-.78c-.4383 1.0349-.6067 2.0118-.4574 2.985.1478.9635.592 1.823 1.2044 2.6504zm-.5125-3.6665c3.1102-7.3694 6.0642-14.8129 9.081-22.2002l-1.8516-.7561c-3.0271 7.4127-5.9675 14.8227-9.072 22.1786zm9.0807-22.1996c.1644-.4019.3741-.6896.8479-1.5523l-1.7529-.9629c-.3591.6536-.7261 1.2202-.9461 1.7579zm-1.0286-2.0338v.0161h2v-.0161zm-34.7748.6432c6.112 6.8913 11.1166 13.9331 14.6448 21.8834l1.828-.8113c-3.6368-8.1952-8.7766-15.4088-14.9766-22.3992zm14.6447 21.8832c8.8301 19.9074 10.8832 40.8198 8.6808 62.3506l1.9896.203c2.2291-21.7911.1604-43.0684-8.8422-63.3645zm8.6807 62.3506c-.2536 2.492-.6249 4.972-.9867 7.488-.3604 2.506-.7104 5.041-.9107 7.597l1.9938.156c.1948-2.484.5362-4.963.8966-7.468.359-2.497.7379-5.027.9967-7.57zm-1.8975 15.085c-.1048 1.344-.504 1.679-.8061 1.824-.2116.102-.5027.169-.9175.199-.4184.03-.8822.019-1.4402.008l-.0395 1.999c.5232.011 1.0925.026 1.6232-.012.5342-.039 1.1081-.135 1.6412-.391 1.1875-.572 1.7974-1.735 1.9329-3.471zm-3.1616 2.031c-.4991-.011-.7273-.108-.8215-.169-.0708-.045-.1194-.102-.1599-.232-.0494-.158-.0724-.387-.0678-.724.0022-.164.0102-.334.0193-.522.0088-.183.0188-.385.0217-.585l-1.9998-.029c-.0023.16-.0104.328-.0196.517-.0088.184-.0187.388-.0214.592-.0054.397.013.881.1584 1.347.1543.495.4542.976.9873 1.319.5098.327 1.1413.47 1.8595.485zm-1.0082-2.232c.3232-22.6-5.621-43.4057-18.045-62.3003l-1.6711 1.0989c12.2 18.5539 18.0339 38.9664 17.7163 61.1724zm-18.0449-62.3001c-1.1401-1.7345-2.3793-3.3971-3.5968-5.0321-1.2235-1.6429-2.4255-3.2584-3.525-4.9351l-1.6725 1.0967c1.1376 1.7349 2.3756 3.3977 3.5934 5.033 1.2238 1.6432 2.4272 3.2588 3.5296 4.936zm-7.1224-9.9682c-.2227-.3388-.4228-.8575-.5191-1.4123-.0986-.5681-.0645-1.0336.0396-1.3033l-1.8656-.7206c-.2856.7393-.2755 1.6113-.1446 2.3659.1333.768.4164 1.5573.8184 2.1689zm-.479-2.7169c3.0225-7.8573 6.2572-15.6323 9.4481-23.4464l-1.8516-.7561c-3.184 7.7975-6.431 15.6021-9.4631 23.4844zm9.4435-23.4355c.0104-.0244.0333-.0694.13-.2134.0876-.1306.232-.3374.4054-.6087l-1.6852-1.0771c-.1576.2466-.2696.4054-.3808.5712-.1022.1523-.2207.3342-.3119.5501z" fill="#fff" fill-opacity=".24" mask="url(#b)"/></svg>