<svg fill="none" height="258" viewBox="0 0 258 258" width="258" xmlns="http://www.w3.org/2000/svg"><path d="m1 65v-56c0-4.41828 3.58172-8 8-8h56m-64 64v64m0-64h64m-64 64v64m0-64h64m-64 64v56c0 4.418 3.58172 8 8 8h56m-64-64h64m0-192v64m0-64h64m-64 64v64m0-64h64m-64 64v64m0-64h64m-64 64v64m0-64h64m-64 64h64m0-256v64m0-64h64m-64 64v64m0-64h64m-64 64v64m0-64h64m-64 64v64m0-64h64m-64 64h64m0-256v64m0-64h56c4.418 0 8 3.58172 8 8v56m-64 0v64m0-64h64m-64 64v64m0-64h64m-64 64v64m0-64h64m-64 64h56c4.418 0 8-3.582 8-8v-56m0-128v64m0 0v64" stroke="#e3e5e8"/><circle cx="129" cy="129" fill="#090a0b" r="60"/><g fill="#f9fafb"><path d="m133.547 89.6163c6.196 6.8665 10.931 14.2967 13.737 22.7687 4.865 14.685 6.053 29.762 3.987 45.092-.401 2.961-.964 5.911-1.21 8.884-.175 2.149-1.49 1.998-2.981 2.035-1.814.049-1.696-1.128-1.679-2.325.265-16.322-3.799-31.481-12.385-45.369-1.998-3.227-4.355-6.238-6.618-9.297-.849-1.148-1.07-2.169-.482-3.558 2.378-5.633 4.632-11.3152 6.944-16.9767.147-.3595.368-.6863.687-1.2663z"/><path d="m106.749 89.5859c4.709 5.3103 8.59 10.7631 11.331 16.9401 6.821 15.379 8.398 31.518 6.703 48.09-.392 3.852-1.148 7.667-1.45 11.523-.184 2.357-1.544 2.292-3.199 2.259-1.862-.041-1.536-1.381-1.519-2.484.245-17.139-4.261-32.907-13.68-47.232-1.716-2.61-3.738-5.016-5.4493-7.626-.4779-.727-.7393-2.002-.4411-2.774 2.3164-6.021 4.7954-11.9807 7.2344-17.9526.077-.1838.216-.3472.47-.7435z"/></g></svg>